<svg xmlns="http://www.w3.org/2000/svg" width="34.156" height="33.38" viewBox="0 0 34.156 33.38">
  <g id="Group_1007" data-name="Group 1007" transform="translate(-969.844 -143)">
    <rect id="Rectangle_1613" data-name="Rectangle 1613" width="34.156" height="33.38" transform="translate(969.844 143)" fill="#555" opacity="0.51"/>
    <g id="picture" transform="translate(975.278 147.658)">
      <path id="Path_14032" data-name="Path 14032" d="M11.041,18.219a2.61,2.61,0,1,0-2.61-2.61A2.612,2.612,0,0,0,11.041,18.219Zm0-4.282A1.672,1.672,0,1,1,9.368,15.61,1.675,1.675,0,0,1,11.041,13.937Z" transform="translate(-4.949 -6.908)" fill="#fff"/>
      <path id="Path_14033" data-name="Path 14033" d="M1,0V24.368H24.431V0Zm.937.937H23.493V13.462L18.655,9.027a.481.481,0,0,0-.337-.123.469.469,0,0,0-.325.152L13.4,14.083l-2.223-2.223a.469.469,0,0,0-.641-.021L2.7,18.745h-.76ZM23.493,23.431H1.937V19.682H23.493ZM4.116,18.745l6.712-5.91,4.828,4.827A.469.469,0,1,0,16.318,17l-2.253-2.253,4.3-4.711,5.125,4.7v4.011Z" transform="translate(-1)" fill="#fff"/>
    </g>
  </g>
</svg>
