<svg xmlns="http://www.w3.org/2000/svg" width="679" height="98.293" viewBox="0 0 679 98.293">
  <g id="Group_1029" data-name="Group 1029" transform="translate(-1896 -667.869)">
    <g id="Group_602" data-name="Group 602" transform="translate(1896 687.608)">
      <g id="Group_756" data-name="Group 756" transform="translate(0 0)">
        <path id="Path_11176" data-name="Path 11176" d="M425.448,443.059l-40.24-.1.174-67.216,15.562.041-.134,51.761,24.678.063Z" transform="translate(-385.208 -375.068)" fill="#66bc99"/>
        <path id="Path_11177" data-name="Path 11177" d="M487.255,443.242l-2.65-8.146-21.271-.056-2.783,8.132-16.483-.042,23.2-67.064,14.733.038,21.649,67.18ZM468.716,419.6l10.958.029-5.3-16.292Z" transform="translate(-392.779 -375.11)" fill="#66bc99"/>
        <path id="Path_11178" data-name="Path 11178" d="M566.858,376l-.04,15.455-12.983-.033-.135,51.943-15.561-.04.134-51.944-12.892-.033.041-15.455Z" transform="translate(-403.237 -375.088)" fill="#66bc99"/>
        <path id="Path_11179" data-name="Path 11179" d="M633.3,391.958l-27.809-.072-.027,10.151,22.56.058-.04,15.456-22.56-.059-.028,10.608,27.808.072-.039,15.455-43.372-.113.174-67.032,43.372.021Z" transform="translate(-411.521 -375.163)" fill="#66bc99"/>
        <path id="Path_11180" data-name="Path 11180" d="M678.983,444.809a24.154,24.154,0,0,1-6.4-.885,21.721,21.721,0,0,1-6.024-2.714,22.523,22.523,0,0,1-7.715-8.3,22.87,22.87,0,0,1-2.732-11.118l15.561.04a6.682,6.682,0,0,0,1.186,4.256,8.639,8.639,0,0,0,2.112,2.063,6.975,6.975,0,0,0,3.588,1.2,8.18,8.18,0,0,0,3.778-.722,6.135,6.135,0,0,0,2.075-1.365,7.5,7.5,0,0,0,1.2-1.6,4.386,4.386,0,0,0,.511-1.508,10.593,10.593,0,0,0,.095-1.189,10.456,10.456,0,0,0-.089-1.189,4.85,4.85,0,0,0-.5-1.557,6.2,6.2,0,0,0-1.194-1.6,7.9,7.9,0,0,0-2.068-1.423,20.023,20.023,0,0,0-2.161-.829q-1.152-.368-2.438-.83-2.3-.736-4.784-1.657a26.751,26.751,0,0,1-4.966-2.482,19.336,19.336,0,0,1-5.42-5.044,19.853,19.853,0,0,1-3.786-13.682,18.845,18.845,0,0,1,2.09-7.082,20.155,20.155,0,0,1,4.157-5.384,19.875,19.875,0,0,1,5.535-3.6,20.191,20.191,0,0,1,6.542-1.584,21.759,21.759,0,0,1,7.088.659,20.766,20.766,0,0,1,6.321,2.623,20.127,20.127,0,0,1,4.888,4.311,18.628,18.628,0,0,1,3.143,5.633,19.345,19.345,0,0,1,1.082,6.5l-15.482-.04a3.159,3.159,0,0,0-1.328-2.93,9.281,9.281,0,0,0-2.345-1.1,6.074,6.074,0,0,1-.875-.139,4.5,4.5,0,0,0-1.565,0,5.583,5.583,0,0,0-1.8.636,3.58,3.58,0,0,0-1.477,1.6,4.063,4.063,0,0,0-.284,3.063,4.367,4.367,0,0,0,1.834,2.519,20.3,20.3,0,0,0,2.851,1.333q1.563.6,3.312,1.153,1.565.461,3.171,1.013t3.254,1.289a21.68,21.68,0,0,1,9.452,8.073,21.829,21.829,0,0,1-.06,23.5,21.685,21.685,0,0,1-9.495,8.023,22.1,22.1,0,0,1-4.87,1.588A25.057,25.057,0,0,1,678.983,444.809Z" transform="translate(-420.052 -374.969)" fill="#66bc99"/>
        <path id="Path_11181" data-name="Path 11181" d="M765.207,376.516l-.04,15.456-12.984-.033-.134,51.943-15.562-.041.135-51.943-12.891-.033.039-15.456Z" transform="translate(-428.748 -375.154)" fill="#66bc99"/>
      </g>
    </g>
    <g id="Group_603" data-name="Group 603" transform="translate(1899.498 683.26)">
      <g id="Group_758" data-name="Group 758" transform="translate(0 0)">
        <path id="Path_11182" data-name="Path 11182" d="M429.462,438.069l-40.24-.1.173-67.216,15.563.041-.135,51.761,24.678.063Z" transform="translate(-389.222 -370.078)" fill="#fff"/>
        <path id="Path_11183" data-name="Path 11183" d="M491.268,438.252l-2.649-8.146-21.272-.055-2.783,8.132-16.483-.044,23.2-67.064,14.734.038L507.658,438.3Zm-18.54-23.642,10.959.029-5.3-16.292Z" transform="translate(-396.792 -370.12)" fill="#fff"/>
        <path id="Path_11184" data-name="Path 11184" d="M570.871,371.012l-.04,15.455-12.984-.034-.135,51.943-15.562-.04.136-51.943-12.892-.034.04-15.455Z" transform="translate(-407.251 -370.098)" fill="#fff"/>
        <path id="Path_11185" data-name="Path 11185" d="M637.311,386.968,609.5,386.9l-.027,10.152,22.561.058L632,412.56l-22.56-.058-.028,10.608,27.809.072-.04,15.455-43.37-.113.174-67.033,43.372.022Z" transform="translate(-415.536 -370.174)" fill="#fff"/>
        <path id="Path_11186" data-name="Path 11186" d="M683,439.819a24.2,24.2,0,0,1-6.4-.884,21.721,21.721,0,0,1-6.026-2.714,22.516,22.516,0,0,1-7.713-8.3,22.859,22.859,0,0,1-2.734-11.119l15.562.041a6.691,6.691,0,0,0,1.186,4.255,8.662,8.662,0,0,0,2.112,2.063,6.99,6.99,0,0,0,3.589,1.2,8.194,8.194,0,0,0,3.777-.721,6.146,6.146,0,0,0,2.076-1.367,7.507,7.507,0,0,0,1.2-1.6,4.391,4.391,0,0,0,.51-1.507,9.947,9.947,0,0,0,.1-1.188,9.762,9.762,0,0,0-.089-1.19,4.84,4.84,0,0,0-.5-1.555,6.253,6.253,0,0,0-1.193-1.6,7.979,7.979,0,0,0-2.068-1.423,20.343,20.343,0,0,0-2.162-.829q-1.153-.367-2.438-.83-2.3-.736-4.784-1.658a26.773,26.773,0,0,1-4.967-2.483,19.369,19.369,0,0,1-5.42-5.044,19.869,19.869,0,0,1-3.785-13.681,18.857,18.857,0,0,1,2.089-7.083,20.189,20.189,0,0,1,4.158-5.384,19.884,19.884,0,0,1,5.534-3.6,20.222,20.222,0,0,1,6.542-1.582,21.716,21.716,0,0,1,7.089.659,20.756,20.756,0,0,1,6.321,2.623,20.088,20.088,0,0,1,4.886,4.311,18.612,18.612,0,0,1,3.145,5.633,19.371,19.371,0,0,1,1.082,6.5l-15.484-.04a3.159,3.159,0,0,0-1.327-2.929,9.277,9.277,0,0,0-2.346-1.1,6.388,6.388,0,0,1-.874-.139,4.525,4.525,0,0,0-1.566,0,5.575,5.575,0,0,0-1.8.636,3.6,3.6,0,0,0-1.478,1.6,4.069,4.069,0,0,0-.284,3.063,4.364,4.364,0,0,0,1.835,2.52,20.394,20.394,0,0,0,2.852,1.332q1.562.6,3.311,1.152,1.563.464,3.171,1.014t3.253,1.289a21.684,21.684,0,0,1,9.454,8.073,21.828,21.828,0,0,1-.061,23.5,21.69,21.69,0,0,1-9.5,8.024,22.043,22.043,0,0,1-4.871,1.588A25.025,25.025,0,0,1,683,439.819Z" transform="translate(-424.066 -369.979)" fill="#fff"/>
        <path id="Path_11187" data-name="Path 11187" d="M769.219,371.527l-.041,15.456-12.984-.035-.134,51.944-15.562-.04.134-51.943-12.892-.035.041-15.455Z" transform="translate(-432.762 -370.164)" fill="#fff"/>
      </g>
    </g>
    <g id="Group_604" data-name="Group 604" transform="translate(2262.192 672.596)">
      <path id="Path_11188" data-name="Path 11188" d="M831.732,367.525l6.284,5.693q.394-2.894,2.413-2.923l1.01-.013,9.419,34.54-.262,1.93-1.011.014-1.234-5.761-1.009.013-.264,1.929,4.842,16.307,1.009-.014A540.75,540.75,0,0,1,871.7,366.7l2.769,1.89,3.162-1.006,5.666,2.812-.131.964q-3.03.042-3.555,3.9l1.012-.014.878.95,1.009-.014,1.666-4.838,2.022-.027-.13.966-1.143.978.88.951-.131.965q-10.64,22.406-22.365,64.145l-2.02.027,4.121-15.464q-2.021.028-8.554,18.412-4.138,2.946-7.464,2.991l-.263,1.93-1.009.013q.26-1.929-3.778-1.875l.917-6.753q.595-4.37-13.643-47.966l-1.009.014q-6.379,17.251-13.367,46.405l-.88-.951q-6.292,1.783-6.716,4.906l-2.02.027q-1.529-3.6-.316-12.514l-1.009.013-1.182,8.682-2.02.027-.354-4.81q3.566-26.22,20.78-63.84Zm-17.421,24.312-.131.965.878.951-1.14.979-.262,1.929,1.009-.013,1.536-3.873-.88-.951ZM850.6,406.753q2.614-.035,2.989,7.664l-.131.966-1.009.013Z" transform="translate(-802.74 -354.166)" fill="#ffd337"/>
      <path id="Path_11189" data-name="Path 11189" d="M954.379,365.391l4.432,3.169q-3.306,8.6-8.844,8.333l-26.534,1.493-.381,1.932,4.944.273,6.2-.65.8,1.065,1,.044,7.208-.664,2,.143-.189.965-23.786,2.645-3.539,12.51,1,.043,27.736-2.471.752,1.009-.19.966-2-.144-.132.966,6.752,1.382-.191.966q-2.931,5.422-30.183,9.132l-10.206.478.82.951-6.54,12.325-1.011.013,1.777-8.69-1-.043L901.29,426.95q30.767-4.268,43.139-3.642l4.753,1.239-.321,1.929-2.005-.086.752,1.01-.572,2.9q-3.4,3.675-12.775,3.233l-.19.966,8.011.4-.441,1.931-47.893,7.22-1-.042q-4.736-.957-4.464-2.943l.024-.171.571-2.9,4.212-10.48-.812-1.008,2.012.029-1.012,4.828,1,.1q1.249-4.829,3.011-4.685l-.805-1.067,2.016-9.6-2-.143-2.014,4.786,1.252-.924,1,.043-1.2,5.8-1-.1.565-2.839-1-.044-.381,1.932-1-.043.382-1.932,5.422-16.331-1-.043,2.949-4.685-.812-1.009.191-.966,4.413-16.317.812,1.009,1,.043.382-1.931.01-4.872,2.777-8.648.572-2.9.994.1.812,1.01,1.193-.923.995.1.819.952,1.193-.921,3,.185Zm-56.3,42.853L896.688,415l1,.044,1.385-6.7Zm33.161.8,1.011-.014-.25.965L913.464,412l-.8-1.066.184-.909,9.2-.52-.189.966Z" transform="translate(-813.74 -353.998)" fill="#ffd337"/>
      <path id="Path_11190" data-name="Path 11190" d="M976.359,362.023l3.03-.041.354,4.811a3.1,3.1,0,0,0,3.424-2.936l1.009-.014,1.759,1.9-1.8,5.8,1.011-.014-1.142.978-.131.967.88.951-.131.965-1.011.014.88.951-.132.965-5.341,31.852-.13.964,1.011-.014,4.342-9.689,2.02-.027L976.7,418.837l2.021-.027L995.3,385.843l-2.02.027-5.745,12.6-2.02.027.131-.964L994.816,382l1.01-.013-.262,1.929,8.342-2.039q3.847,1.363,3.648,2.84l1.141-.979,3.03-.041.892,23.1,1.01-.013q.586-4.313,22.684-49.931l1.01-.014.616,2.881,1.011-.014.262-1.929,1.009-.014q7.487-.1,7.687,2.785l-.262,1.93-2.413,2.92-.133.966,2.021-.027,1.93-6.768,2.018-.027,1.759,1.9-.132.966-33.3,76.073-3.162,1.007.262-1.929-1.14.978-1.012.014-.877-.951q-.527,3.858-3.555,3.9-7.989-.571-7.688-2.785l1.009-.014q-.354-4.809-3.122-6.7l-1.153-21.171q-1.731.081-15.794,27.178L977.46,442.9l-1.009.014-.486-3.846q18.765-24.611,21.279-37.846-3.023,2.592-17.067,29.122-1.248.017-5.617,11.633l-9.09.123-.487-3.845-1.14.978-1.009.014q.709-5.22-1.981-7.676l.524-3.86,3.648,2.839.211-16.372,1.141-.978-.879-.952,1.14-.979-1.009.014,1.141-.979,1.838-13.507,1.666-4.838-1.011.014,1.142-.979,3.411-25.084-.88-.95.132-.965Zm59.3-.348q-20.944,44.525-21.674,49.916l-.132.965,1.009-.013,22.816-50.895Zm-16.047,60.434-3.2,8.71-.264,1.929,1.011-.013,3.332-9.676.131-.964Zm9.209-23.238-3.2,8.711-.13.964,1.011-.014,3.2-8.71.131-.965Z" transform="translate(-823.076 -352.897)" fill="#ffd337"/>
      <path id="Path_11191" data-name="Path 11191" d="M1093.019,361.941q2.409,1.892,16.731,1.7l-.192.965-7.07.1-.191.966q12.656-.173,15.018,5.573l-.381,1.931-5.05.068-.191.966,6.88.871-.191.965-6.061.082-.19.965q3.031-.041,2.65,1.89-18.005.245-33.85,12.977l-.191.966a41.841,41.841,0,0,1,27.941,21.772l-.192.965q-5.382,12.536-23.766,23.435l-6.311,1.048-.191.965,2.021-.027q-.476,2.612-19.326,6.04l.381-1.932,5.049-.068.252-.966q-6.48.087-10.788-6.595-4.214-2.153-3.365-8.4.078-.566.222-1.193l3.41-1.972,2.65,1.889,2.02-.027q29.1-4.641,31.774-17.764-11.156-5.625-15.02-5.573l-.191.965-9.4-3.724.819.951-.323,1.931q-11.393-8.683-10.461-13.34l9.738-13.614,5.814-3.932-.381,1.933Zm-25.031,80.269-.191.965,4.041-.055,5.242-1.033.131-.966-1.011.013Zm7.7-54.034-.191.965,19.269-10.854,8.46-2.039.384-1.932-2.02.027Q1084.835,380.236,1075.692,388.176Zm.206,39.48,1.011-.014,2.4-1.958-1.009.014Zm4.478,7.644-.132.965,1.01-.014,4.613-2.951Zm13.7-7.89-4.994,4.884,1.011-.014,4.994-4.883Z" transform="translate(-834.839 -353.554)" fill="#ffd337"/>
      <path id="Path_11192" data-name="Path 11192" d="M1138.768,423.142l-.13.964-1.143.979-.13.965,1.141-.978,2.021-.027,2.243,5.747.617,2.882-3.426,2.936,2.021-.027,1.758,1.9-.262,1.929-15.545,3.1-.878-.952.262-1.93q4.039-.055,4.3-1.984l.131-.965-6.061.083.788-5.788,1.14-.979.131-.965-1.009.014-3.162,1,.131-.964Q1127.657,423.292,1138.768,423.142Zm5.421-70.827,12.624,4.417-.155,1.135q-8.459,22.1-10.32,35.771l-.163,1.192q-.934,6.869,1.684,19.465l-1.54,3.476q-2.734.037-2.651-4.5l-1.128.015-.308,2.27-4.458.06-1.411-5.758-1.231,1.205-1.128.016q-6.929-5.74-5.061-19.474l.307-2.271,5.341-23.127,1.128-.016.127,6.909-2.2.029-.316,2.328,1.882,2.3,1.128-.016,4.081-13.876-1.283,1.149-1.069.014.462-3.405,2.516-2.356-.471,3.463,1.13-.016.634-4.655-1.959-2.182Zm-12.862,30.028-.786,5.788.289,5.718,1.13-.016.47-3.462-.034-8.043Zm.009,16.087q1.851,10.342,4.111,10.311Zm2.653-19.523-.625,4.6,1.068-.015.625-4.6Zm2.347-17.253,1.067-.014.513,4.525-2.2.03Z" transform="translate(-844.006 -352.316)" fill="#ffd337"/>
    </g>
    <g id="Group_605" data-name="Group 605" transform="translate(2259.828 667.869)">
      <path id="Path_11188-2" data-name="Path 11188" d="M831.732,367.525l6.284,5.693q.394-2.894,2.413-2.923l1.01-.013,9.419,34.54-.262,1.93-1.011.014-1.234-5.761-1.009.013-.264,1.929,4.842,16.307,1.009-.014A540.75,540.75,0,0,1,871.7,366.7l2.769,1.89,3.162-1.006,5.666,2.812-.131.964q-3.03.042-3.555,3.9l1.012-.014.878.95,1.009-.014,1.666-4.838,2.022-.027-.13.966-1.143.978.88.951-.131.965q-10.64,22.406-22.365,64.145l-2.02.027,4.121-15.464q-2.021.028-8.554,18.412-4.138,2.946-7.464,2.991l-.263,1.93-1.009.013q.26-1.929-3.778-1.875l.917-6.753q.595-4.37-13.643-47.966l-1.009.014q-6.379,17.251-13.367,46.405l-.88-.951q-6.292,1.783-6.716,4.906l-2.02.027q-1.529-3.6-.316-12.514l-1.009.013-1.182,8.682-2.02.027-.354-4.81q3.566-26.22,20.78-63.84Zm-17.421,24.312-.131.965.878.951-1.14.979-.262,1.929,1.009-.013,1.536-3.873-.88-.951ZM850.6,406.753q2.614-.035,2.989,7.664l-.131.966-1.009.013Z" transform="translate(-802.74 -354.166)" fill="#0cebb3"/>
      <path id="Path_11189-2" data-name="Path 11189" d="M954.379,365.391l4.432,3.169q-3.306,8.6-8.844,8.333l-26.534,1.493-.381,1.932,4.944.273,6.2-.65.8,1.065,1,.044,7.208-.664,2,.143-.189.965-23.786,2.645-3.539,12.51,1,.043,27.736-2.471.752,1.009-.19.966-2-.144-.132.966,6.752,1.382-.191.966q-2.931,5.422-30.183,9.132l-10.206.478.82.951-6.54,12.325-1.011.013,1.777-8.69-1-.043L901.29,426.95q30.767-4.268,43.139-3.642l4.753,1.239-.321,1.929-2.005-.086.752,1.01-.572,2.9q-3.4,3.675-12.775,3.233l-.19.966,8.011.4-.441,1.931-47.893,7.22-1-.042q-4.736-.957-4.464-2.943l.024-.171.571-2.9,4.212-10.48-.812-1.008,2.012.029-1.012,4.828,1,.1q1.249-4.829,3.011-4.685l-.805-1.067,2.016-9.6-2-.143-2.014,4.786,1.252-.924,1,.043-1.2,5.8-1-.1.565-2.839-1-.044-.381,1.932-1-.043.382-1.932,5.422-16.331-1-.043,2.949-4.685-.812-1.009.191-.966,4.413-16.317.812,1.009,1,.043.382-1.931.01-4.872,2.777-8.648.572-2.9.994.1.812,1.01,1.193-.923.995.1.819.952,1.193-.921,3,.185Zm-56.3,42.853L896.688,415l1,.044,1.385-6.7Zm33.161.8,1.011-.014-.25.965L913.464,412l-.8-1.066.184-.909,9.2-.52-.189.966Z" transform="translate(-813.74 -353.998)" fill="#0cebb3"/>
      <path id="Path_11190-2" data-name="Path 11190" d="M976.359,362.023l3.03-.041.354,4.811a3.1,3.1,0,0,0,3.424-2.936l1.009-.014,1.759,1.9-1.8,5.8,1.011-.014-1.142.978-.131.967.88.951-.131.965-1.011.014.88.951-.132.965-5.341,31.852-.13.964,1.011-.014,4.342-9.689,2.02-.027L976.7,418.837l2.021-.027L995.3,385.843l-2.02.027-5.745,12.6-2.02.027.131-.964L994.816,382l1.01-.013-.262,1.929,8.342-2.039q3.847,1.363,3.648,2.84l1.141-.979,3.03-.041.892,23.1,1.01-.013q.586-4.313,22.684-49.931l1.01-.014.616,2.881,1.011-.014.262-1.929,1.009-.014q7.487-.1,7.687,2.785l-.262,1.93-2.413,2.92-.133.966,2.021-.027,1.93-6.768,2.018-.027,1.759,1.9-.132.966-33.3,76.073-3.162,1.007.262-1.929-1.14.978-1.012.014-.877-.951q-.527,3.858-3.555,3.9-7.989-.571-7.688-2.785l1.009-.014q-.354-4.809-3.122-6.7l-1.153-21.171q-1.731.081-15.794,27.178L977.46,442.9l-1.009.014-.486-3.846q18.765-24.611,21.279-37.846-3.023,2.592-17.067,29.122-1.248.017-5.617,11.633l-9.09.123-.487-3.845-1.14.978-1.009.014q.709-5.22-1.981-7.676l.524-3.86,3.648,2.839.211-16.372,1.141-.978-.879-.952,1.14-.979-1.009.014,1.141-.979,1.838-13.507,1.666-4.838-1.011.014,1.142-.979,3.411-25.084-.88-.95.132-.965Zm59.3-.348q-20.944,44.525-21.674,49.916l-.132.965,1.009-.013,22.816-50.895Zm-16.047,60.434-3.2,8.71-.264,1.929,1.011-.013,3.332-9.676.131-.964Zm9.209-23.238-3.2,8.711-.13.964,1.011-.014,3.2-8.71.131-.965Z" transform="translate(-823.076 -352.897)" fill="#0cebb3"/>
      <path id="Path_11191-2" data-name="Path 11191" d="M1093.019,361.941q2.409,1.892,16.731,1.7l-.192.965-7.07.1-.191.966q12.656-.173,15.018,5.573l-.381,1.931-5.05.068-.191.966,6.88.871-.191.965-6.061.082-.19.965q3.031-.041,2.65,1.89-18.005.245-33.85,12.977l-.191.966a41.841,41.841,0,0,1,27.941,21.772l-.192.965q-5.382,12.536-23.766,23.435l-6.311,1.048-.191.965,2.021-.027q-.476,2.612-19.326,6.04l.381-1.932,5.049-.068.252-.966q-6.48.087-10.788-6.595-4.214-2.153-3.365-8.4.078-.566.222-1.193l3.41-1.972,2.65,1.889,2.02-.027q29.1-4.641,31.774-17.764-11.156-5.625-15.02-5.573l-.191.965-9.4-3.724.819.951-.323,1.931q-11.393-8.683-10.461-13.34l9.738-13.614,5.814-3.932-.381,1.933Zm-25.031,80.269-.191.965,4.041-.055,5.242-1.033.131-.966-1.011.013Zm7.7-54.034-.191.965,19.269-10.854,8.46-2.039.384-1.932-2.02.027Q1084.835,380.236,1075.692,388.176Zm.206,39.48,1.011-.014,2.4-1.958-1.009.014Zm4.478,7.644-.132.965,1.01-.014,4.613-2.951Zm13.7-7.89-4.994,4.884,1.011-.014,4.994-4.883Z" transform="translate(-834.839 -353.554)" fill="#0cebb3"/>
      <path id="Path_11192-2" data-name="Path 11192" d="M1138.768,423.142l-.13.964-1.143.979-.13.965,1.141-.978,2.021-.027,2.243,5.747.617,2.882-3.426,2.936,2.021-.027,1.758,1.9-.262,1.929-15.545,3.1-.878-.952.262-1.93q4.039-.055,4.3-1.984l.131-.965-6.061.083.788-5.788,1.14-.979.131-.965-1.009.014-3.162,1,.131-.964Q1127.657,423.292,1138.768,423.142Zm5.421-70.827,12.624,4.417-.155,1.135q-8.459,22.1-10.32,35.771l-.163,1.192q-.934,6.869,1.684,19.465l-1.54,3.476q-2.734.037-2.651-4.5l-1.128.015-.308,2.27-4.458.06-1.411-5.758-1.231,1.205-1.128.016q-6.929-5.74-5.061-19.474l.307-2.271,5.341-23.127,1.128-.016.127,6.909-2.2.029-.316,2.328,1.882,2.3,1.128-.016,4.081-13.876-1.283,1.149-1.069.014.462-3.405,2.516-2.356-.471,3.463,1.13-.016.634-4.655-1.959-2.182Zm-12.862,30.028-.786,5.788.289,5.718,1.13-.016.47-3.462-.034-8.043Zm.009,16.087q1.851,10.342,4.111,10.311Zm2.653-19.523-.625,4.6,1.068-.015.625-4.6Zm2.347-17.253,1.067-.014.513,4.525-2.2.03Z" transform="translate(-844.006 -352.316)" fill="#0cebb3"/>
    </g>
  </g>
</svg>
