<svg xmlns="http://www.w3.org/2000/svg" width="618.614" height="135.822" viewBox="0 0 618.614 135.822">
  <g id="Group_783" data-name="Group 783" transform="translate(-129 333)">
    <path id="Path_11215" data-name="Path 11215" d="M132.157-232.267c.685,1.189,598.85,3.061,598.85,3.061l16.607-13.049V-333H148.573L129-319.952" transform="translate(0)" fill="#2d68ff"/>
    <path id="Path_11200" data-name="Path 11200" d="M176.5-189.5v45.67l40.332-38.552Z" transform="translate(-19.327 -58.389)" fill="#fff"/>
    <rect id="Rectangle_1516" data-name="Rectangle 1516" width="594.297" height="81.849" transform="translate(132.262 -315.503)" fill="#fff"/>
    <g id="Group_780" data-name="Group 780" transform="translate(129.064 -320.141)">
      <g id="Group_779" data-name="Group 779" transform="translate(0 0)">
        <path id="Path_11201" data-name="Path 11201" d="M154.433-188.356v-31.969H129.108v-90.994H731.051v90.994H194.479ZM136.9-227.8h25.325v23.5l29.436-23.5H723.852V-303.84H136.9Z" transform="translate(-129.108 311.319)" fill="#2d68ff"/>
      </g>
    </g>
    <g id="Group_781" data-name="Group 781" transform="translate(525.791 -294.097)">
      <path id="Path_11202" data-name="Path 11202" d="M812.829-226.113a17.006,17.006,0,0,1-4.139-.514,14.743,14.743,0,0,1-3.9-1.6,13.894,13.894,0,0,1-5-4.894,12.61,12.61,0,0,1-1.786-6.57h10.065a3.719,3.719,0,0,0,.774,2.515,5.407,5.407,0,0,0,1.37,1.216,4.8,4.8,0,0,0,2.322.7,5.72,5.72,0,0,0,2.442-.432,4,4,0,0,0,1.34-.812,4.48,4.48,0,0,0,.775-.946,2.435,2.435,0,0,0,.327-.893,5.427,5.427,0,0,0,.059-.7,5.457,5.457,0,0,0-.059-.7,2.688,2.688,0,0,0-.327-.919,3.739,3.739,0,0,0-.775-.946,5.155,5.155,0,0,0-1.34-.838,13.7,13.7,0,0,0-1.4-.487q-.746-.215-1.578-.487-1.489-.431-3.1-.973a18.043,18.043,0,0,1-3.216-1.46,12.168,12.168,0,0,1-3.514-2.974,11.466,11.466,0,0,1-2.055-3.839,10.9,10.9,0,0,1-.417-4.245,10.447,10.447,0,0,1,1.34-4.191,12.09,12.09,0,0,1,2.681-3.19,13.018,13.018,0,0,1,3.572-2.136,14.085,14.085,0,0,1,4.228-.947,15.345,15.345,0,0,1,4.586.378,14.167,14.167,0,0,1,4.093,1.541,12.721,12.721,0,0,1,3.167,2.542,10.782,10.782,0,0,1,2.043,3.326,10.568,10.568,0,0,1,.71,3.839H816.1a1.817,1.817,0,0,0-.863-1.731,6.3,6.3,0,0,0-1.519-.648,4.463,4.463,0,0,1-.565-.081,3.171,3.171,0,0,0-1.012,0,3.827,3.827,0,0,0-1.162.378,2.215,2.215,0,0,0-.953.946,2.22,2.22,0,0,0-.179,1.812,2.611,2.611,0,0,0,1.191,1.487,13.835,13.835,0,0,0,1.846.784q1.011.352,2.144.676,1.011.271,2.053.6t2.105.757a13.769,13.769,0,0,1,6.128,4.758,11.8,11.8,0,0,1,2.22,6.975,11.715,11.715,0,0,1-2.22,6.922,13.766,13.766,0,0,1-6.128,4.759,15.221,15.221,0,0,1-3.147.947A17.717,17.717,0,0,1,812.829-226.113Z" transform="translate(-798 267.409)" fill="#2d68ff" stroke="#2d68ff" stroke-miterlimit="10" stroke-width="1"/>
      <path id="Path_11203" data-name="Path 11203" d="M878.653-226.325H868.588v-39.744h10.065Z" transform="translate(-826.722 266.864)" fill="#2d68ff" stroke="#2d68ff" stroke-miterlimit="10" stroke-width="1"/>
      <path id="Path_11204" data-name="Path 11204" d="M932.165-226.288l-1.727-4.813H916.681l-1.787,4.813h-10.66l14.889-39.69h9.529l14.115,39.69Zm-12.03-13.951h7.087l-3.454-9.626Z" transform="translate(-841.225 266.827)" fill="#2d68ff" stroke="#2d68ff" stroke-miterlimit="10" stroke-width="1"/>
      <path id="Path_11205" data-name="Path 11205" d="M1004.583-266.069a23.027,23.027,0,0,1,8.5,1.568,22.734,22.734,0,0,1,6.958,4.244,19.928,19.928,0,0,1,4.7,6.3,17.76,17.76,0,0,1,1.725,7.733,17.753,17.753,0,0,1-1.725,7.732,19.913,19.913,0,0,1-4.7,6.3,22.708,22.708,0,0,1-6.958,4.244,23,23,0,0,1-8.5,1.569,23,23,0,0,1-8.505-1.569,22.342,22.342,0,0,1-6.929-4.244,20.128,20.128,0,0,1-4.668-6.3,17.751,17.751,0,0,1-1.724-7.732,17.758,17.758,0,0,1,1.724-7.733,20.144,20.144,0,0,1,4.668-6.3,22.368,22.368,0,0,1,6.929-4.244A23.028,23.028,0,0,1,1004.583-266.069Zm.03,30.551a12.464,12.464,0,0,0,4.586-.838,12.043,12.043,0,0,0,3.752-2.3,10.818,10.818,0,0,0,2.531-3.407,9.589,9.589,0,0,0,.924-4.163,9.594,9.594,0,0,0-.924-4.164,10.832,10.832,0,0,0-2.531-3.407,12.078,12.078,0,0,0-3.752-2.3,12.493,12.493,0,0,0-4.586-.838,12.483,12.483,0,0,0-4.586.838,12.065,12.065,0,0,0-3.752,2.3,10.838,10.838,0,0,0-2.531,3.407,9.586,9.586,0,0,0-.923,4.164,9.582,9.582,0,0,0,.923,4.163,10.825,10.825,0,0,0,2.531,3.407,12.03,12.03,0,0,0,3.752,2.3A12.454,12.454,0,0,0,1004.613-235.518Z" transform="translate(-873.175 266.864)" fill="#2d68ff" stroke="#2d68ff" stroke-miterlimit="10" stroke-width="1"/>
      <path id="Path_11206" data-name="Path 11206" d="M1080.316-236.216a5.336,5.336,0,0,1,3.722,1.379,4.333,4.333,0,0,1,1.519,3.326,4.334,4.334,0,0,1-1.519,3.325,5.336,5.336,0,0,1-3.722,1.379,5.258,5.258,0,0,1-3.664-1.379,4.332,4.332,0,0,1-1.518-3.325,4.331,4.331,0,0,1,1.518-3.326A5.259,5.259,0,0,1,1080.316-236.216Zm-5-4.272v-26.766h10.065v26.766Z" transform="translate(-910.763 267.346)" fill="#2d68ff" stroke="#2d68ff" stroke-miterlimit="10" stroke-width="1"/>
    </g>
    <g id="Group_782" data-name="Group 782" transform="translate(170.881 -293.676)">
      <path id="Path_11207" data-name="Path 11207" d="M226-257.286H209.677v6H222.6v9.139H209.677v15.411H199.612v-39.69H226Z" transform="translate(-199.612 266.587)" fill="#2d68ff" stroke="#2d68ff" stroke-miterlimit="10" stroke-width="1"/>
      <path id="Path_11208" data-name="Path 11208" d="M281.484-266.516a23.018,23.018,0,0,1,8.5,1.568,22.74,22.74,0,0,1,6.959,4.245,19.919,19.919,0,0,1,4.7,6.3,17.756,17.756,0,0,1,1.725,7.732,17.753,17.753,0,0,1-1.725,7.733,19.91,19.91,0,0,1-4.7,6.3,22.72,22.72,0,0,1-6.959,4.244,23.012,23.012,0,0,1-8.5,1.568,23.016,23.016,0,0,1-8.505-1.568,22.354,22.354,0,0,1-6.929-4.244,20.131,20.131,0,0,1-4.669-6.3,17.755,17.755,0,0,1-1.724-7.733,17.758,17.758,0,0,1,1.724-7.732,20.14,20.14,0,0,1,4.669-6.3,22.373,22.373,0,0,1,6.929-4.245A23.022,23.022,0,0,1,281.484-266.516Zm.03,30.552a12.472,12.472,0,0,0,4.585-.838,12.023,12.023,0,0,0,3.752-2.3,10.846,10.846,0,0,0,2.532-3.407,9.6,9.6,0,0,0,.923-4.164,9.6,9.6,0,0,0-.923-4.163,10.845,10.845,0,0,0-2.532-3.407,12.06,12.06,0,0,0-3.752-2.3,12.492,12.492,0,0,0-4.585-.838,12.5,12.5,0,0,0-4.587.838,12.069,12.069,0,0,0-3.751,2.3,10.824,10.824,0,0,0-2.531,3.407,9.583,9.583,0,0,0-.924,4.163,9.581,9.581,0,0,0,.924,4.164,10.825,10.825,0,0,0,2.531,3.407,12.033,12.033,0,0,0,3.751,2.3A12.479,12.479,0,0,0,281.514-235.964Z" transform="translate(-224.044 266.624)" fill="#2d68ff" stroke="#2d68ff" stroke-miterlimit="10" stroke-width="1"/>
      <path id="Path_11209" data-name="Path 11209" d="M368.841-266.516a23.015,23.015,0,0,1,8.5,1.568A22.745,22.745,0,0,1,384.3-260.7a19.93,19.93,0,0,1,4.7,6.3,17.762,17.762,0,0,1,1.725,7.732A17.759,17.759,0,0,1,389-238.938a19.921,19.921,0,0,1-4.7,6.3,22.725,22.725,0,0,1-6.959,4.244,23.008,23.008,0,0,1-8.5,1.568,23.01,23.01,0,0,1-8.5-1.568,22.353,22.353,0,0,1-6.929-4.244,20.114,20.114,0,0,1-4.669-6.3,17.749,17.749,0,0,1-1.724-7.733,17.752,17.752,0,0,1,1.724-7.732,20.123,20.123,0,0,1,4.669-6.3,22.373,22.373,0,0,1,6.929-4.245A23.017,23.017,0,0,1,368.841-266.516Zm.03,30.552a12.475,12.475,0,0,0,4.586-.838,12.036,12.036,0,0,0,3.752-2.3,10.85,10.85,0,0,0,2.531-3.407,9.593,9.593,0,0,0,.923-4.164,9.594,9.594,0,0,0-.923-4.163,10.85,10.85,0,0,0-2.531-3.407,12.072,12.072,0,0,0-3.752-2.3,12.5,12.5,0,0,0-4.586-.838,12.491,12.491,0,0,0-4.586.838,12.063,12.063,0,0,0-3.752,2.3A10.825,10.825,0,0,0,358-250.834a9.584,9.584,0,0,0-.923,4.163,9.582,9.582,0,0,0,.923,4.164,10.826,10.826,0,0,0,2.531,3.407,12.026,12.026,0,0,0,3.752,2.3A12.471,12.471,0,0,0,368.872-235.964Z" transform="translate(-259.589 266.624)" fill="#2d68ff" stroke="#2d68ff" stroke-miterlimit="10" stroke-width="1"/>
      <path id="Path_11210" data-name="Path 11210" d="M463.28-266.7v9.139h-8.4v30.714H444.818v-30.714H436.48V-266.7Z" transform="translate(-295.991 266.698)" fill="#2d68ff" stroke="#2d68ff" stroke-miterlimit="10" stroke-width="1"/>
      <path id="Path_11211" data-name="Path 11211" d="M525.975-250.746a14.564,14.564,0,0,1,4.408,4.569,11.092,11.092,0,0,1,1.608,5.813,11.048,11.048,0,0,1-1.31,5.272,13.794,13.794,0,0,1-3.6,4.3,17.752,17.752,0,0,1-5.331,2.893,19.677,19.677,0,0,1-6.491,1.054h-12.8V-266.7l11.613.055a15.415,15.415,0,0,1,5.182.865,14.489,14.489,0,0,1,4.288,2.352,11.07,11.07,0,0,1,2.888,3.461,8.959,8.959,0,0,1,1.042,4.245A8.892,8.892,0,0,1,525.975-250.746Zm-13.46-6.813v3.677h1.608a4.492,4.492,0,0,0,2.382-.658q.894-.6.893-1.207,0-.549-.893-1.18a4.161,4.161,0,0,0-2.442-.631Zm2.74,21.575a9.046,9.046,0,0,0,2.531-.353,8.031,8.031,0,0,0,2.144-.952,5.061,5.061,0,0,0,1.46-1.388,2.907,2.907,0,0,0,.536-1.659,3.04,3.04,0,0,0-.536-1.687,4.913,4.913,0,0,0-1.46-1.414,8.037,8.037,0,0,0-2.144-.952,9.066,9.066,0,0,0-2.531-.354h-2.74v8.76Z" transform="translate(-322.834 266.698)" fill="#2d68ff" stroke="#2d68ff" stroke-miterlimit="10" stroke-width="1"/>
      <path id="Path_11212" data-name="Path 11212" d="M594.947-226.734l-1.726-4.813H579.463l-1.787,4.813h-10.66l14.888-39.69h9.53l14.114,39.69Zm-12.03-13.951H590l-3.455-9.626Z" transform="translate(-349.105 266.587)" fill="#2d68ff" stroke="#2d68ff" stroke-miterlimit="10" stroke-width="1"/>
      <path id="Path_11213" data-name="Path 11213" d="M676.584-226.772H650.558v-39.744h10.065v30.606h15.961Z" transform="translate(-383.097 266.624)" fill="#2d68ff" stroke="#2d68ff" stroke-miterlimit="10" stroke-width="1"/>
      <path id="Path_11214" data-name="Path 11214" d="M740.948-226.772H714.922v-39.744h10.065v30.606h15.961Z" transform="translate(-409.286 266.624)" fill="#2d68ff" stroke="#2d68ff" stroke-miterlimit="10" stroke-width="1"/>
    </g>
    <path id="Path_11216" data-name="Path 11216" d="M134.5-303.5" transform="translate(-2.238 -12.003)" fill="#2d68ff" stroke="#000" stroke-miterlimit="10" stroke-width="1"/>
  </g>
</svg>
