<svg id="Group_1095" data-name="Group 1095" xmlns="http://www.w3.org/2000/svg" width="219.889" height="222.756" viewBox="0 0 219.889 222.756">
  <path id="Path_13891" data-name="Path 13891" d="M1212.813,900.059c-.873,2.617-3.715,9.023-10.573,9.023-7.79,0-10.509-8.44-10.641-8.786l-.223-.81s6.715.56,10.41.56,10.012-.36,11.045-.56Z" transform="translate(-1091.968 -686.326)" fill="#231f20" fill-rule="evenodd"/>
  <path id="Path_13892" data-name="Path 13892" d="M1271.947,888.653l1.607.214c-1.908,4.978-5.337,10.559-12.076,10.559a12.044,12.044,0,0,1-11.13-6.32l-1.124-.691A102.361,102.361,0,0,0,1271.947,888.653Z" transform="translate(-1130.651 -679.082)" fill="#231f20" fill-rule="evenodd"/>
  <path id="Path_13893" data-name="Path 13893" d="M1127.985,888.653l-1.609.214c1.908,4.978,5.338,10.559,12.077,10.559a13.2,13.2,0,0,0,11.485-6.32l.769-.691A102.362,102.362,0,0,1,1127.985,888.653Z" transform="translate(-1048.502 -679.082)" fill="#231f20" fill-rule="evenodd"/>
  <path id="Path_13894" data-name="Path 13894" d="M1211.8,902.068c-1.054,1.53-1.761,1.456-3.032,1.456a1.56,1.56,0,0,0-1.566,1.488,1.5,1.5,0,0,0,1.671,1.376c2.3,0,4.055-3.218,4.551-4.575,0,0,1.359-.059,1.758-.1,0,0-2.44,7.265-8.763,7.265s-8.918-7.186-8.918-7.186,5.333.33,8.387.33S1210.883,902.108,1211.8,902.068Z" transform="translate(-1096.062 -687.816)" fill="#fff000" fill-rule="evenodd"/>
  <path id="Path_13895" data-name="Path 13895" d="M1277.789,893.136a81.4,81.4,0,0,1-14.012,2.859s.217.716,1.728.637a2.547,2.547,0,0,0,.869-.211.981.981,0,0,1,1.009,1.126c-.058.526-.51,1.192-2.045,1.192a6.238,6.238,0,0,1-4.237-2.424,12.811,12.811,0,0,1-1.876.263,11.184,11.184,0,0,0,8.778,4.14C1274.414,900.718,1276.781,894.991,1277.789,893.136Z" transform="translate(-1137.338 -682.079)" fill="#fff000" fill-rule="evenodd"/>
  <path id="Path_13896" data-name="Path 13896" d="M1283.149,899.89a4.747,4.747,0,0,0-.837-2.7,78.566,78.566,0,0,1-8.566,1.48c-.03.11-.055.222-.075.337a2.124,2.124,0,0,0,1.494.336,2.524,2.524,0,0,0,.87-.211.981.981,0,0,1,1.009,1.127c-.058.526-.509,1.192-2.045,1.192a3.715,3.715,0,0,1-1.222-.229,4.788,4.788,0,0,0,1.028,1.857,11.6,11.6,0,0,0,2.858.351,8.9,8.9,0,0,0,5.006-1.451A4.739,4.739,0,0,0,1283.149,899.89Z" transform="translate(-1146.999 -684.789)" fill="#fd0" fill-rule="evenodd"/>
  <path id="Path_13897" data-name="Path 13897" d="M1283.2,899.925a4.676,4.676,0,0,0-.838-2.683,79.248,79.248,0,0,1-8.428,1.453c-.036.128-.064.258-.09.391a2.263,2.263,0,0,0,1.437.292,2.563,2.563,0,0,0,.87-.211.981.981,0,0,1,1.009,1.126c-.059.526-.51,1.192-2.045,1.192a3.67,3.67,0,0,1-1.146-.2,4.735,4.735,0,0,0,1.068,1.859,11.612,11.612,0,0,0,2.743.321,8.926,8.926,0,0,0,4.9-1.378A4.7,4.7,0,0,0,1283.2,899.925Z" transform="translate(-1147.112 -684.825)" fill="#ffdf00" fill-rule="evenodd"/>
  <path id="Path_13898" data-name="Path 13898" d="M1283.253,899.954a4.632,4.632,0,0,0-.843-2.669,78.245,78.245,0,0,1-8.292,1.43,4.4,4.4,0,0,0-.1.438,2.351,2.351,0,0,0,1.378.253,2.544,2.544,0,0,0,.869-.211.981.981,0,0,1,1.009,1.126c-.058.526-.509,1.193-2.044,1.193a3.549,3.549,0,0,1-1.072-.179,4.667,4.667,0,0,0,1.109,1.863,11.62,11.62,0,0,0,2.627.294,8.949,8.949,0,0,0,4.788-1.31A4.636,4.636,0,0,0,1283.253,899.954Z" transform="translate(-1147.233 -684.854)" fill="#ffe100" fill-rule="evenodd"/>
  <path id="Path_13899" data-name="Path 13899" d="M1133.784,893.136a81.3,81.3,0,0,0,14.01,2.859s-.217.716-1.725.637a2.557,2.557,0,0,1-.871-.211.979.979,0,0,0-1.006,1.126c.054.526.506,1.192,2.043,1.192a6.231,6.231,0,0,0,4.235-2.424,12.883,12.883,0,0,0,1.881.263,11.19,11.19,0,0,1-8.781,4.14C1137.157,900.718,1134.79,894.991,1133.784,893.136Z" transform="translate(-1053.456 -682.079)" fill="#fff000" fill-rule="evenodd"/>
  <path id="Path_13900" data-name="Path 13900" d="M1035.79,711.083c22.091,0,46.568-13.561,63.734-33.111,1.855-2.112,5.008-6.118,12.476-6.118s17.4,6.806,16.233,19.2c-.851,9.038-13.769,29.4-35.86,41.961a112.545,112.545,0,0,1-113.163,0c-22.092-12.556-35.01-32.923-35.862-41.961-1.17-12.4,8.761-19.2,16.231-19.2s10.625,4.006,12.479,6.118C989.221,697.522,1013.7,711.083,1035.79,711.083Z" transform="translate(-926.048 -534.108)" fill="#fff000" fill-rule="evenodd"/>
  <path id="Path_13901" data-name="Path 13901" d="M1034.185,710.273h0c-10.966,0-22.5-3.295-33.449-8.983a108.024,108.024,0,0,1-30.88-24.4,18.7,18.7,0,0,0-3.97-3.708,14.093,14.093,0,0,0-7.913-2.141c-.4,0-.778.018-1.146.054a16.233,16.233,0,0,0-14.385,16.379c0,.636.029,1.27.088,1.9.463,4.912,4.645,13.327,12.05,21.99A88.848,88.848,0,0,0,978,730.723a116.1,116.1,0,0,0,31.06,12.254,110.357,110.357,0,0,0,50.26,0,116.087,116.087,0,0,0,31.061-12.254,88.934,88.934,0,0,0,23.417-19.354c7.4-8.663,11.584-17.078,12.046-21.99.061-.634.089-1.267.089-1.9a16.233,16.233,0,0,0-14.386-16.379q-.552-.054-1.147-.054a14.09,14.09,0,0,0-7.912,2.141,18.661,18.661,0,0,0-3.969,3.708,108.047,108.047,0,0,1-30.88,24.4c-10.948,5.688-22.484,8.983-33.45,8.983Zm0-1.589c10.7,0,21.988-3.229,32.717-8.8a106.405,106.405,0,0,0,30.42-24.034,19.9,19.9,0,0,1,4.3-3.994,15.659,15.659,0,0,1,8.776-2.4c.4,0,.839.024,1.3.065a17.826,17.826,0,0,1,15.826,17.956c0,.646-.032,1.33-.1,2.05-.487,5.19-4.8,13.96-12.42,22.874a90.57,90.57,0,0,1-23.838,19.7,117.827,117.827,0,0,1-31.482,12.422,111.976,111.976,0,0,1-50.982,0A117.809,117.809,0,0,1,977.213,732.1a90.49,90.49,0,0,1-23.838-19.7c-7.618-8.917-11.931-17.684-12.422-22.876q-.1-1.08-.1-2.05a17.828,17.828,0,0,1,15.825-17.956c.457-.042.89-.065,1.3-.065a15.651,15.651,0,0,1,8.776,2.4,19.871,19.871,0,0,1,4.3,3.994,106.383,106.383,0,0,0,30.422,24.034C1012.2,705.455,1023.48,708.684,1034.185,708.684Z" transform="translate(-924.443 -532.503)" fill="#231f20" fill-rule="evenodd"/>
  <path id="Path_13902" data-name="Path 13902" d="M975.392,685.934l-.258-.293c-1.758-2.021-4.167-4.787-9.921-4.787a13.877,13.877,0,0,0-9.682,4.568,14.207,14.207,0,0,0-3.5,11.286c.719,7.613,12.8,27.353,34.326,39.588a109.489,109.489,0,0,0,110.137,0c21.524-12.236,33.612-31.975,34.327-39.588a14.2,14.2,0,0,0-3.5-11.286,13.868,13.868,0,0,0-9.678-4.568c-5.755,0-8.165,2.766-9.922,4.787l-.259.293c-18.5,21.063-43.8,34.15-66.031,34.15S993.887,707,975.392,685.934Z" transform="translate(-931.863 -540.126)" fill="#e02e22" fill-rule="evenodd"/>
  <path id="Path_13903" data-name="Path 13903" d="M1436.785,582.445a19.192,19.192,0,1,1,19.191,19.191A19.192,19.192,0,0,1,1436.785,582.445Z" transform="translate(-1256.074 -461.486)" fill="#fff000" fill-rule="evenodd"/>
  <path id="Path_13904" data-name="Path 13904" d="M1435.978,580.84h0a18.4,18.4,0,1,0,5.388-13.01,18.338,18.338,0,0,0-5.388,13.01Zm-1.589,0a19.984,19.984,0,1,1,5.854,14.132A19.922,19.922,0,0,1,1434.389,580.84Z" transform="translate(-1254.472 -459.881)" fill="#231f20" fill-rule="evenodd"/>
  <path id="Path_13905" data-name="Path 13905" d="M893.719,582.54a19.192,19.192,0,1,1,19.192,19.193A19.192,19.192,0,0,1,893.719,582.54Z" transform="translate(-892.924 -461.551)" fill="#fff000" fill-rule="evenodd"/>
  <path id="Path_13906" data-name="Path 13906" d="M892.91,580.935h0a18.4,18.4,0,1,0,5.389-13.008,18.335,18.335,0,0,0-5.389,13.008Zm-1.589,0a19.986,19.986,0,1,1,5.854,14.133A19.919,19.919,0,0,1,891.321,580.935Z" transform="translate(-891.321 -459.946)" fill="#231f20" fill-rule="evenodd"/>
  <path id="Path_13907" data-name="Path 13907" d="M1478.627,407.821l.108-5.139a4.985,4.985,0,0,0,6.3-.638,4.812,4.812,0,0,0,1.182-3.519,6.525,6.525,0,0,0-1.908-4.219c-6.462-6.3-12.175-12.595-12.175-12.595a5.276,5.276,0,0,0-2.048-1.851,4.162,4.162,0,0,0-5.735,1.6c-1.937,2.939-1.648,7.1-1.3,8.608l6.063,8.239A97.894,97.894,0,0,0,1478.627,407.821Z" transform="translate(-1273.471 -338.482)" fill="#231f20" fill-rule="evenodd"/>
  <path id="Path_13908" data-name="Path 13908" d="M1120.521,292.964c7.62-2.555,14.574-4.662,23.952-5.5Z" transform="translate(-1044.587 -277.069)" fill="#231f20" fill-rule="evenodd"/>
  <path id="Path_13909" data-name="Path 13909" d="M1117.32,277.424c7.62-2.557,14.574-4.663,23.951-5.5l1.429-.806c-5.244-4.12-10.443-6.923-15.621-6.923-3.252,0-9.86,2.2-11.345,13.86Z" transform="translate(-1041.386 -261.508)" fill="#231f20" fill-rule="evenodd"/>
  <path id="Path_13910" data-name="Path 13910" d="M1273.457,277.424c-7.62-2.557-14.575-4.663-23.951-5.5l-1.43-.806c5.243-4.12,10.443-6.923,15.622-6.923,3.251,0,9.86,2.2,11.343,13.86Z" transform="translate(-1129.884 -261.508)" fill="#231f20" fill-rule="evenodd"/>
  <path id="Path_13911" data-name="Path 13911" d="M1203.73,283.672c1.549-.08,5.125-.159,6.556-.159s5.378.189,6.245.253Z" transform="translate(-1100.229 -274.424)" fill="#231f20" fill-rule="evenodd"/>
  <path id="Path_13912" data-name="Path 13912" d="M1196.6,266.1c3.832-7.347,7.344-10.024,9.286-10.024,2.431,0,5.276,3.866,7.506,8.843l.472,1.121-1.941-.16a56.822,56.822,0,0,0-6.4-.276c-1.431,0-4.53,0-6.4.159Z" transform="translate(-1095.462 -256.078)" fill="#231f20" fill-rule="evenodd"/>
  <path id="Path_13913" data-name="Path 13913" d="M1136.3,803.973l-3.431,12.8-6.4-15.436-3.983-1.07-4.851,18.1,4.319,1.16,3.458-12.906,6.5,15.573,3.88,1.04,4.849-18.1Z" transform="translate(-1042.658 -619.98)" fill="#fff000" fill-rule="evenodd"/>
  <rect id="Rectangle_1526" data-name="Rectangle 1526" width="18.74" height="4.926" transform="matrix(0.052, -0.999, 0.999, 0.052, 102.649, 204.735)" fill="#fff000"/>
  <path id="Path_13914" data-name="Path 13914" d="M1232.3,813.524l.345,2.469,5.249-.742,2.262,16.1,4.877-.686-2.26-16.091,5.168-.728-.345-2.465Z" transform="translate(-1119.337 -627.406)" fill="#fff000" fill-rule="evenodd"/>
  <path id="Path_13915" data-name="Path 13915" d="M1343.793,775.422h0l-6.352,3.666,9.4,16.284,6.307-3.643c6.559-3.785,7.164-9.5,4.595-14.067-3.108-5.433-8.205-5.557-13.948-2.241Zm9.583,4.949c2.384,4.177,1.9,7.213-1.772,9.337l-1.744,1.005-6.89-11.93,1.885-1.089C1349.251,775.154,1351.732,777.413,1353.376,780.371Z" transform="translate(-1189.642 -601.879)" fill="#fff000" fill-rule="evenodd"/>
  <path id="Path_13916" data-name="Path 13916" d="M1301.073,814.614l-1.87-5.753,5.553-1.8-.78-2.395-5.549,1.8-1.6-4.914,5.705-1.853-.77-2.367-10.414,3.385,5.79,17.82,11.485-3.729-.779-2.4Z" transform="translate(-1158.82 -618.015)" fill="#fff000" fill-rule="evenodd"/>
  <path id="Path_13917" data-name="Path 13917" d="M1068.78,774.721l-5.55,10.011c-1.673,3.018-3.4,4.93-6.223,3.3-2.8-1.551-2.154-3.87-.439-6.963l5.562-10.035-4.482-2.483-5.873,10.6c-3.24,5.846.846,9.448,4.013,11.2,3.409,1.892,8.361,3.3,11.574-2.5l5.9-10.645Z" transform="translate(-997.824 -598.769)" fill="#fff000" fill-rule="evenodd"/>
  <path id="Path_13918" data-name="Path 13918" d="M1095.916,444.817v87.744l41.96,26.974,41.96-26.974.051-87.605a51.391,51.391,0,0,0-6.325-5.145H1102A67.731,67.731,0,0,0,1095.916,444.817Z" transform="translate(-1028.134 -378.941)" fill="#fff000" fill-rule="evenodd"/>
  <path id="Path_13919" data-name="Path 13919" d="M1095.105,454.922v87.313l41.165,26.459,41.165-26.459.054-87.175h1.588l-.053,87.605v.432l-.368.237-41.958,26.97-.428.276-.429-.276-41.959-26.97-.367-.237V454.922Z" transform="translate(-1026.529 -389.046)" fill="#231f20" fill-rule="evenodd"/>
  <path id="Path_13920" data-name="Path 13920" d="M1335.246,444.18c-.377-.34-.093-.087-.494-.449h0a45.81,45.81,0,0,0-5.709-4.612l.826-1.354a46.764,46.764,0,0,1,5.952,4.787h0c.037.034-.181-.163.493.442Z" transform="translate(-1184.024 -377.572)" fill="#231f20" fill-rule="evenodd"/>
  <rect id="Rectangle_1527" data-name="Rectangle 1527" width="71.566" height="1.589" transform="translate(73.862 60.076)" fill="#231f20"/>
  <path id="Path_13921" data-name="Path 13921" d="M1101.275,439.148c-.858.6-2.067,1.553-3.173,2.463-1.3,1.067-2.464,2.085-2.779,2.428l-1.167-1.073c.351-.383,1.586-1.461,2.941-2.577,1.177-.97,2.432-1.959,3.266-2.544Z" transform="translate(-1026.957 -377.625)" fill="#231f20" fill-rule="evenodd"/>
  <path id="Path_13922" data-name="Path 13922" d="M1174.382,575.027h0v-3.261a3.581,3.581,0,0,0-3.02-1.35c-2.144,0-3.415.635-3.415,1.192,0,.873,1.907,3.418,6.435,3.418Zm-16.926-28.876h0l3.26-5.669,2.539,5.669h4.213a12.179,12.179,0,0,0-3.574,8.372v2.622a13.364,13.364,0,0,1-.558,2.941s3.649,2.788,4.213,3.258c.238.2.49.314.318.8-.291.822-2.757,1.918-3.02,2.144-.556.476-.705.79-.543,1.271s.622.559,1.576.238,2.941-1.349,4.611-2.064a9.814,9.814,0,0,1,3.892-.558v-3.179h-6.276v-10.17l-1.115-1.775,2.783-4.928,2.781,4.956-1.112,1.748v5.324h3.219v-5.324l-1.113-1.748,2.779-4.929,2.779,4.929-1.11,1.748v5.324h3.218v-5.324l-1.11-1.748,2.781-4.929,2.782,4.929-1.116,1.748.036,10.166-6.311,0v4.671a10.59,10.59,0,0,1,2.784,6.219,3.178,3.178,0,0,1-1.193,2.624,6.865,6.865,0,0,1,.159,3.337,9.761,9.761,0,0,1-1.83,3.415v24.232c0,1.65-3.815,1.492-3.815.077v-23.75c-2.146-2.385-8.025-4.212-8.025-4.212a18.848,18.848,0,0,0-3.5,5.881,2.519,2.519,0,0,0,2.939-.637,1.966,1.966,0,0,1,2.307-.4c.635.4.8.557.554,1.512a17.566,17.566,0,0,0-.633,3.642c0,1.114,1.27.876,2.224.957,1.9.157,2.224,2.3,2.065,3.5a45.442,45.442,0,0,0-.716,5.325,26.792,26.792,0,0,0,.24,4.054,11.021,11.021,0,0,1,.4,2.937c-.108,1.51-1.033,1.751-1.985.8s-14.226-15.1-14.226-15.1c-.874,2.86,2.781,7.786,3.974,9.3s1.111,2.621.078,3.654-3.02,1.588-3.417,2.542.954,3.816,3.735,7.39-3.178,5.962-6.754,6.677-3.576-1.75-3.337-3.1a12.143,12.143,0,0,0,.159-3.337c-.081-1.19-1.192-2.86-2.7-4.849s-1.51-3.812-.873-8.423a43.764,43.764,0,0,0,.477-7.55s-1.59.08-3.895,0-4.212-1.42-4.371-6.985-.293-18.833-.663-20.211-1.854-1.642-2.49-1.8a.776.776,0,0,1-.046-1.433c1.655-.825,3.649-2.858,2.906-4.13s-3.654-1.007-5.615-.054a18.419,18.419,0,0,0-4.557,3.6c-.53.582-.952.582-.9-.052a29.1,29.1,0,0,0-.635-4.716,19.919,19.919,0,0,0-1.537-3.6c-.318-.53,0-.742.53-.53s1.694.688,2.808,1.006a2.266,2.266,0,0,0,2.7-1.272c.53-1.059,1.536-3.336,2.066-4.344s1.379-.8,2.067-.635a12.7,12.7,0,0,1,1.959.847c.636.265,1.166.212,1.378-.106a4.89,4.89,0,0,0,.849-1.22c.37-.795.846-.423.9-.105,1.9,11.394,6.835,11.921,6.835,11.921a52.874,52.874,0,0,1-2.914,5.667,7.284,7.284,0,0,0-.688,2.541,81.714,81.714,0,0,0,.8,11.076c.529,2.754,2.224,1.7,2.755.847s2.172-4.344,2.172-4.344a5.2,5.2,0,0,0,.424-1.749c0-.794-1.378-2.544-1.7-3.074a6.267,6.267,0,0,1-1.483-4.237c0-2.649,2.383-4.505,3.232-5.193a2.238,2.238,0,0,0,.742-2.225c-.373-2.049-2.544-6.357-3.6-8s-3.127-4.768-3.127-4.768h4.291l2.755-5.721,3.021,5.748,3.125.026Zm-.695,17.38h0a18.748,18.748,0,0,0,2-4.717h-4.033a19.663,19.663,0,0,0,2.037,4.717Zm-4.213-11.671h0c.175,1.191,1.053,1.649,1.729,1.29s.537-1.33.061-2.085-1.461-1.6-1.756-1.469c-.318.139-.132,1.588-.034,2.264Zm8.033-2.264c-.293-.129-1.337.715-1.814,1.469s-.616,1.728.06,2.085,1.525-.105,1.73-1.29C1160.675,551.166,1160.9,549.735,1160.581,549.6Z" transform="translate(-1047.874 -446.189)" fill="#e02e22" fill-rule="evenodd"/>
  <rect id="Rectangle_1528" data-name="Rectangle 1528" width="77.41" height="5.28" transform="translate(71.069 87.763)" fill="#e02e22"/>
  <rect id="Rectangle_1529" data-name="Rectangle 1529" width="77.41" height="21.031" transform="translate(71.069 64.018)" fill="#e02e22"/>
  <path id="Path_13923" data-name="Path 13923" d="M1188.709,476.62v-3.591h-5.624v-2.315h4.589V460.541h-4.213l-1.43-2.781-1.431,2.781h-4.212v10.173h4.589v2.315h-11.014v-2.315h4.586V460.541h-4.211l-1.431-2.781-1.43,2.781h-4.211v10.173h4.586v2.315h-11.229v-2.315h4.588V460.541H1157l-1.43-2.781-1.431,2.781h-4.212v10.173h4.588v2.315l-8.878.025-8.847-2.067,1.784,5.634Z" transform="translate(-1055.466 -390.944)" fill="#fff000" fill-rule="evenodd"/>
  <path id="Path_13924" data-name="Path 13924" d="M1146.011,476.669l5.932,1.457,3.182-8.931v-2.252Z" transform="translate(-1061.633 -397.083)" fill="#fff000" fill-rule="evenodd"/>
  <path id="Path_13925" data-name="Path 13925" d="M1144.18,274.762c-9.19.816-14.846,2.77-22.315,5.274a16.2,16.2,0,0,1,2.6-7.011c-.1,1.663,1.251,3.431,3.952,3.431s4.2-1.557,4.2-2.493a2.131,2.131,0,0,0-2.021-2.284c-1.453,0-1.765,1.039-1.662,1.454s-.207.519-.623.625-1.558-.521-1.142-1.973c.455-1.6,2.388-2.467,4.671-2.467C1131.843,269.318,1137.279,269.1,1144.18,274.762Z" transform="translate(-1045.486 -264.931)" fill="#fff000" fill-rule="evenodd"/>
  <path id="Path_13926" data-name="Path 13926" d="M1277.991,280.215c-7.469-2.506-13.379-4.46-22.568-5.277,4.229-2.947,8.181-5.451,12.522-5.451,2.282,0,4.215.869,4.67,2.466.415,1.454-.728,2.077-1.142,1.973s-.726-.209-.623-.623-.209-1.453-1.661-1.453a2.131,2.131,0,0,0-2.023,2.285c0,.934,1.5,2.492,4.2,2.492s4.058-1.771,3.953-3.431A16.224,16.224,0,0,1,1277.991,280.215Z" transform="translate(-1134.797 -265.045)" fill="#fff000" fill-rule="evenodd"/>
  <path id="Path_13927" data-name="Path 13927" d="M1204.844,267.812c-.247.393-.464.687-.728,1.126,1.518-.08,5.022-.158,6.424-.158s5.272.187,6.122.249c-1.37-3.17-3.955-7.548-5.759-7.548-.356,0-1.144-.186-2.626,1.522,0,0-.231.752.711.609,1.193-.182,1.645,1.051,1.557,1.662a3.727,3.727,0,0,1-3.531,2.8A5.411,5.411,0,0,1,1204.844,267.812Z" transform="translate(-1100.488 -259.688)" fill="#fff000" fill-rule="evenodd"/>
  <path id="Path_13928" data-name="Path 13928" d="M929.85,398.312l6.065-8.239c.35-1.51.636-5.669-1.3-8.608a4.167,4.167,0,0,0-5.74-1.6,5.306,5.306,0,0,0-2.047,1.851s-5.818,6.43-12.256,12.757a6.914,6.914,0,0,0-1.986,4.057,4.994,4.994,0,0,0,1.26,3.574,5.091,5.091,0,0,0,6.385.582l.105,5.139A97.283,97.283,0,0,0,929.85,398.312Z" transform="translate(-905.539 -338.482)" fill="#231f20" fill-rule="evenodd"/>
  <path id="Path_13929" data-name="Path 13929" d="M1018.1,323.912c34.543,0,54.214,32.437,58.488,38.135,7.63,10.172,16.951,18.42,27.761,15.681,15.893-4.026,15.045-27.574,15.045-27.574-3.812-2.757-10.353-6.228-22.251-23.1C1085.487,310.525,1059.1,286,1018.1,286s-67.389,24.523-79.044,41.052c-11.9,16.872-18.437,20.343-22.251,23.1,0,0-.849,23.548,15.046,27.574,10.811,2.739,20.132-5.51,27.76-15.681C963.884,356.349,983.557,323.912,1018.1,323.912Z" transform="translate(-908.356 -276.088)" fill="#fff000" fill-rule="evenodd"/>
  <path id="Path_13930" data-name="Path 13930" d="M1016.492,323.1h0c-31.3,0-50.3,27.076-56.476,35.885-.547.777-.992,1.411-1.379,1.929-3.866,5.154-8.169,9.826-12.892,12.874-4.812,3.105-10.049,4.532-15.7,3.1-16.521-4.185-15.65-28.3-15.648-28.366l.011-.388.322-.232c.433-.314.867-.613,1.336-.936,3.909-2.7,10.188-7.028,20.728-21.978A100.98,100.98,0,0,1,972.1,294.319a97.319,97.319,0,0,1,88.773,0A100.956,100.956,0,0,1,1096.184,325c10.541,14.946,16.818,19.28,20.727,21.976.469.323.9.623,1.337.938l.323.232.011.388c0,.07.873,24.181-15.647,28.366-5.644,1.43-10.882,0-15.694-3.1-4.723-3.048-9.026-7.721-12.892-12.874-.389-.518-.834-1.153-1.379-1.929-6.182-8.81-25.182-35.885-56.477-35.885Zm0-1.59c32.119,0,51.475,27.586,57.772,36.562.572.812,1.036,1.474,1.349,1.891,3.764,5.018,7.935,9.557,12.483,12.491,4.459,2.876,9.287,4.2,14.454,2.9,14.11-3.575,14.475-23.371,14.447-26.394-.3-.214-.637-.444-.987-.686-4-2.76-10.425-7.193-21.121-22.368a99.368,99.368,0,0,0-34.735-30.18,95.767,95.767,0,0,0-87.322,0,99.346,99.346,0,0,0-34.735,30.18c-10.7,15.178-17.126,19.611-21.125,22.369-.351.242-.683.472-.986.685-.026,3.023.338,22.818,14.451,26.394,5.165,1.309,9.995-.02,14.453-2.9,4.547-2.934,8.719-7.473,12.483-12.491.312-.417.777-1.08,1.347-1.891C965.017,349.1,984.374,321.515,1016.492,321.515Z" transform="translate(-906.75 -274.487)" fill="#231f20" fill-rule="evenodd"/>
  <path id="Path_13931" data-name="Path 13931" d="M1024.441,327.03c33.3,0,53.119,28.247,59.634,37.529.526.754.984,1.4,1.3,1.831,8.812,11.747,16.846,16.507,24.561,14.551,11.161-2.828,12.531-18.184,12.686-22.823l0-.174-.141-.1c-3.926-2.707-10.5-7.238-21.5-22.848-6.577-9.326-31.531-39.754-76.544-39.754S954.475,325.671,947.9,335c-10.93,15.5-17.79,20.236-21.474,22.779l-.143.1,0,.174c.16,4.658,1.546,20.075,12.657,22.891,7.719,1.955,15.752-2.8,24.561-14.551.321-.429.776-1.077,1.3-1.829C971.323,355.277,991.141,327.03,1024.441,327.03Z" transform="translate(-914.699 -282.268)" fill="#e02e22" fill-rule="evenodd"/>
  <path id="Path_13932" data-name="Path 13932" d="M978.175,430.467l-3.476,4.143,6.519,13.472-13.988-4.571-2.995,3.567,14.356,12.047,2.169-2.584L970.626,448l13.594,4.417,1.427-1.7-6.476-12.983,10.194,8.551,3.168-3.774Z" transform="translate(-940.079 -372.692)" fill="#fff000" fill-rule="evenodd"/>
  <path id="Path_13933" data-name="Path 13933" d="M1031.785,396.278h0l-3.195,3.425,8.977,17.853,2.191-2.349-2.438-4.726,4.344-4.66,4.9,2.083,3.615-3.877-18.4-7.749Zm7.574,8.506-3.251,3.484-3.331-6.437Z" transform="translate(-983.113 -349.83)" fill="#fff000" fill-rule="evenodd"/>
  <path id="Path_13934" data-name="Path 13934" d="M1079.927,340.263l7.023,11.24-15.65-5.849-3.5,2.186,9.932,15.892,3.792-2.367-7.08-11.331,15.821,5.867,3.406-2.13-9.93-15.892Z" transform="translate(-1009.334 -310.779)" fill="#fff000" fill-rule="evenodd"/>
  <path id="Path_13935" data-name="Path 13935" d="M1272.321,338.635l1.969-5.72,5.518,1.9.824-2.381-5.52-1.9,1.68-4.887,5.671,1.953.81-2.355-10.352-3.564-6.1,17.718,11.418,3.931.818-2.379Z" transform="translate(-1142.418 -299.948)" fill="#fff000" fill-rule="evenodd"/>
  <path id="Path_13936" data-name="Path 13936" d="M1362.781,369.275l-1.689,1.832,3.941,3.547-10.876,12.079,3.661,3.3,10.876-12.077,3.88,3.493,1.663-1.849Z" transform="translate(-1200.821 -331.773)" fill="#fff000" fill-rule="evenodd"/>
  <path id="Path_13937" data-name="Path 13937" d="M1386.108,425.507l4.634-3.887,3.751,4.47,1.929-1.619-3.751-4.47,3.957-3.322,3.856,4.6,1.9-1.6-7.037-8.389L1381,423.333l7.758,9.248,1.928-1.617Z" transform="translate(-1218.769 -359.865)" fill="#fff000" fill-rule="evenodd"/>
  <path id="Path_13938" data-name="Path 13938" d="M1426.235,464.654h0c.037.04,2.9,1.458,6.064-1.389,2.645-2.384,1.755-5.653-1-8.716l-5.106-5.669-13.926,12.539,3.3,3.661,5.533-4.98,1.63,1.81L1419.2,469.8l4.184,3.367,2.854-8.513Zm2.495-9.235a2.961,2.961,0,0,1-.183,4.521c-1.492,1.344-3.37,1.055-4.8-.536l-.844-.936,4.734-4.263Z" transform="translate(-1239.675 -385.004)" fill="#fff000" fill-rule="evenodd"/>
  <path id="Path_13939" data-name="Path 13939" d="M1216.226,316.51l-.131,7.654-7.363-.127.135-7.656-4.926-.084-.325,18.737,4.923.087.149-8.568,7.362.129-.151,8.565,4.927.087.326-18.739Z" transform="translate(-1100.153 -296.346)" fill="#fff000" fill-rule="evenodd"/>
  <path id="Path_13940" data-name="Path 13940" d="M1312.818,364.444c3.495,2.1,7.314,1.763,9.09-1.2,1.307-2.067,1.319-3.774-.237-6.831-.419-.886-.932-1.511-1.284-2.294-.681-1.3-1.319-2.345-.716-3.347.645-1.071,2.149-1.149,3.523-.323a5.472,5.472,0,0,1,2.328,3.3l2.269-.982a8.993,8.993,0,0,0-4.053-4.91c-4.009-2.407-7.276-1.772-8.632.489-1.372,2.282-.983,4.166.037,6.11,0,0,.655,1.124,1.038,1.86.894,1.52,1.941,3.417,1.213,4.627a2.665,2.665,0,0,1-3.958.888,6.108,6.108,0,0,1-2.782-4.019l-2.486,1.074A9.591,9.591,0,0,0,1312.818,364.444Z" transform="translate(-1170.068 -316.429)" fill="#fff000" fill-rule="evenodd"/>
  <path id="Path_13941" data-name="Path 13941" d="M1149.67,319.331c-6.136,1.307-10.155,5.809-8.829,11.914.754,3.294,3.708,9.385,13.018,7.405a9.754,9.754,0,0,0,5.343-2.823l-1.714-1.957a6.248,6.248,0,0,1-3.734,2.2c-4.5.955-7.183-2.7-7.85-5.852-.99-4.654,1.724-7.885,4.817-8.542a6.7,6.7,0,0,1,4.355.457l.026,0,.571-2.389A9.6,9.6,0,0,0,1149.67,319.331Z" transform="translate(-1058.006 -298.185)" fill="#fff000" fill-rule="evenodd"/>
  <path id="Path_13942" data-name="Path 13942" d="M1467.44,393.888c-.258-1.112-.622-5.858,1.18-8.363,1.665-2.309,3.181-1.528,3.993-1.166a3.109,3.109,0,0,1,1.683,2.279,4.008,4.008,0,0,1-.7,2.688,10.149,10.149,0,0,1-3.735,2.464,51.685,51.685,0,0,0,10.368,12.981l-.023,4.4C1470.557,399.863,1467.44,393.888,1467.44,393.888Z" transform="translate(-1276.428 -341.577)" fill="#fff000" fill-rule="evenodd"/>
  <path id="Path_13943" data-name="Path 13943" d="M1482.474,400.7c.956,1.645,3.376,5.666,9.437,11.347,1.008.942,3.514,1.727,4.931.137a3.453,3.453,0,0,0,.836-2.5,5.033,5.033,0,0,0-1.472-3.119c-1.211-1.038-6.422-6.3-10.157-10.435a7.86,7.86,0,0,1-.742,2.013A6.7,6.7,0,0,1,1482.474,400.7Z" transform="translate(-1286.626 -349.73)" fill="#fff000" fill-rule="evenodd"/>
  <path id="Path_13944" data-name="Path 13944" d="M940.106,408.9l-.025-4.15a51.872,51.872,0,0,0,10.376-12.962,10.132,10.132,0,0,1-3.734-2.464,4,4,0,0,1-.7-2.688,3.123,3.123,0,0,1,1.681-2.278c.815-.362,2.33-1.143,3.994,1.166,1.8,2.5,1.33,7.219,1.074,8.33C952.768,393.856,949.483,399.578,940.106,408.9Z" transform="translate(-923.927 -341.577)" fill="#fff000" fill-rule="evenodd"/>
  <path id="Path_13945" data-name="Path 13945" d="M933.037,400.7c-.952,1.645-3.373,5.666-9.437,11.347-1.006.942-3.513,1.727-4.928.137a3.444,3.444,0,0,1-.836-2.5,5.015,5.015,0,0,1,1.473-3.119c1.209-1.038,6.421-6.3,10.155-10.435a7.88,7.88,0,0,0,.742,2.013A6.7,6.7,0,0,0,933.037,400.7Z" transform="translate(-909.048 -349.73)" fill="#fff000" fill-rule="evenodd"/>
  <path id="Path_13946" data-name="Path 13946" d="M904.62,590.247a15.612,15.612,0,1,1,15.612,15.611A15.612,15.612,0,0,1,904.62,590.247Z" transform="translate(-900.214 -469.098)" fill="#e02e22" fill-rule="evenodd"/>
  <path id="Path_13947" data-name="Path 13947" d="M927,606.809a14.34,14.34,0,0,0,10.128-13.558,12.8,12.8,0,0,0-.272-2.335c-.11-.606-.563-.679-.772-.261a13.324,13.324,0,0,1-3.5,4.445,12.773,12.773,0,0,1-8.337,3.009c-.413.009-.626.655-.626,1.245s.375,5.054,1.826,6.71c.375.432.749,1.007,1.557.745Zm-3.707.575c-.1,0-.2,0-.3,0a16,16,0,0,1-7.138-1.929c-1.743-.976-2.4-5.438-2.4-7.721a23.343,23.343,0,0,1,3.519-12.65,2.045,2.045,0,0,1,2.366-.753c.805.217,1.116.38,2.041.657.5.155,1.5.363,2.258.527s1.557.322,1.074,1.722a27.844,27.844,0,0,0-2.281,8.776,26.162,26.162,0,0,0,1.142,9.42c.532,1.434.523,1.977-.283,1.949ZM912.6,590.531c.7.386.808-.054.914-.482a23.967,23.967,0,0,1,2.795-5.75,2.151,2.151,0,0,0,.279-1.553c-.007-.326-.172-.854-.172-1.189,0-.6-.376-.591-.619-.479a11.39,11.39,0,0,0-4.91,4.865,2.76,2.76,0,0,0-.082,1.9c.269.528,1.1,2.3,1.8,2.683Zm-.375,11.837h0a13.257,13.257,0,0,1-3.369-9.117,14.185,14.185,0,0,1,.6-4.106s.331-.593.654-.088c.23.362.54.73.82,1.221s1.808,1.653,1.667,2.567a33.673,33.673,0,0,0,.108,8.811c.162.755-.076,1.116-.483.713Zm6.175-22.492a1.743,1.743,0,0,0-.856,1.467c0,.431.373,1.41,2.049,1.934a22.192,22.192,0,0,0,5.965,1.288c1.928,0,4.825-.624,4.825-2.462a1.335,1.335,0,0,0-.652-1.282,12.379,12.379,0,0,0-6.738-1.708,14.542,14.542,0,0,0-4.593.763Zm13.064,2.058c.269.215.945.771.945.771a12.3,12.3,0,0,1,3.279,4.318c.893,2.135-1.859,5.338-2.665,6.089-3.641,3.4-5.905,3.342-7.205,3.53a1.651,1.651,0,0,1-2.092-1.593c.084-2.869,2.114-7.754,2.687-8.654a3.382,3.382,0,0,1,1.021-.966,7.24,7.24,0,0,0,3.322-1.72A3.114,3.114,0,0,0,931.463,581.934Z" transform="translate(-903.046 -472.092)" fill="#fff000" fill-rule="evenodd"/>
  <path id="Path_13948" data-name="Path 13948" d="M1479.341,590.247a15.612,15.612,0,1,0-15.612,15.611A15.611,15.611,0,0,0,1479.341,590.247Z" transform="translate(-1263.652 -469.098)" fill="#e02e22" fill-rule="evenodd"/>
  <path id="Path_13949" data-name="Path 13949" d="M1452.785,593.251a14.342,14.342,0,0,0,10.127,13.558c.812.262,1.183-.312,1.558-.745,1.453-1.656,1.826-6.117,1.826-6.71s-.216-1.236-.626-1.245a12.768,12.768,0,0,1-8.335-3.009,13.3,13.3,0,0,1-3.506-4.445c-.211-.418-.663-.345-.771.261a12.654,12.654,0,0,0-.274,2.335Zm13.553,12.183a26.221,26.221,0,0,0,1.141-9.42,27.955,27.955,0,0,0-2.279-8.776c-.486-1.4.321-1.558,1.072-1.722s1.753-.372,2.258-.527c.922-.277,1.234-.441,2.04-.657a2.048,2.048,0,0,1,2.367.753,23.346,23.346,0,0,1,3.518,12.65c0,2.283-.654,6.745-2.4,7.721a15.989,15.989,0,0,1-7.137,1.929c-.1,0-.2-.007-.3,0-.806.028-.817-.515-.281-1.949Zm10.063-15.385c.106.428.219.868.914.482s1.527-2.156,1.8-2.683a2.746,2.746,0,0,0-.082-1.9,11.393,11.393,0,0,0-4.911-4.865c-.243-.112-.616-.123-.616.479,0,.335-.167.862-.174,1.189a2.155,2.155,0,0,0,.279,1.553,23.906,23.906,0,0,1,2.8,5.75Zm.807,11.606h0a33.78,33.78,0,0,0,.107-8.811c-.141-.914,1.384-2.075,1.667-2.567s.59-.859.821-1.221c.321-.5.652.089.652.089a14.109,14.109,0,0,1,.6,4.106,13.25,13.25,0,0,1-3.369,9.117c-.407.4-.645.042-.481-.713Zm-4.839-20.313a1.745,1.745,0,0,0-.854-1.467,14.561,14.561,0,0,0-4.6-.763,12.387,12.387,0,0,0-6.738,1.708,1.341,1.341,0,0,0-.65,1.282c0,1.838,2.9,2.462,4.825,2.462a22.192,22.192,0,0,0,5.964-1.288c1.675-.524,2.048-1.5,2.048-1.934Zm-13.208,2.365a7.22,7.22,0,0,0,3.318,1.72,3.386,3.386,0,0,1,1.023.966c.571.9,2.6,5.785,2.689,8.654a1.654,1.654,0,0,1-2.1,1.593c-1.3-.188-3.564-.134-7.2-3.53-.807-.751-3.56-3.954-2.666-6.089a12.258,12.258,0,0,1,3.279-4.318s.674-.556.943-.771A3.107,3.107,0,0,0,1459.162,583.708Z" transform="translate(-1266.773 -472.092)" fill="#fff000" fill-rule="evenodd"/>
  <path id="Path_13950" data-name="Path 13950" d="M1448.479,589.837h0a15.534,15.534,0,1,0,4.55-10.982,15.483,15.483,0,0,0-4.55,10.982Zm-.159,0a15.689,15.689,0,1,1,4.6,11.1A15.636,15.636,0,0,1,1448.32,589.837Z" transform="translate(-1263.787 -468.771)" fill="#ffe500" fill-rule="evenodd"/>
</svg>
