<svg id="Group_1094" data-name="Group 1094" xmlns="http://www.w3.org/2000/svg" width="223.944" height="223.944" viewBox="0 0 223.944 223.944">
  <ellipse id="Ellipse_260" data-name="Ellipse 260" cx="111.972" cy="111.972" rx="111.972" ry="111.972" transform="translate(0 0)" fill="#fff"/>
  <g id="Group_813" data-name="Group 813" transform="translate(3.834 3.831)">
    <path id="Path_13733" data-name="Path 13733" d="M1363.22,407.65a103.668,103.668,0,0,1-2.316,13.777,108.521,108.521,0,0,1-83.9,81.23,96.507,96.507,0,0,1-10.352,1.559c-.208.112-.456-.04-.661.1h-21.195c-.17-.126-.379,0-.556-.087a107.626,107.626,0,0,1-57.839-24.257,107.572,107.572,0,0,1-35.627-55.262,103.741,103.741,0,0,1-3.1-16.588,108.628,108.628,0,0,1,8.721-55.788,106.219,106.219,0,0,1,15.032-24.383,107.914,107.914,0,0,1,50.536-34.636,105.2,105.2,0,0,1,19.078-4.321,108.332,108.332,0,0,1,121.492,90.738c.279,1.8.468,3.6.7,5.408.088.174-.038.381.087.549V407.1C1363.184,407.265,1363.317,407.477,1363.22,407.65Z" transform="translate(-1147.035 -288.029)" fill="#d68f16"/>
    <path id="Path_13734" data-name="Path 13734" d="M1931.965,1714.518c.2-.172.433-.111.661-.1a.151.151,0,0,0-.013.1Z" transform="translate(-1813.011 -1498.236)" fill="#e6b465"/>
    <path id="Path_13735" data-name="Path 13735" d="M2573.579,929.329a.7.7,0,0,1-.087-.549.131.131,0,0,1,.087.008Z" transform="translate(-2357.302 -831.673)" fill="#f3d6a9"/>
    <path id="Path_13736" data-name="Path 13736" d="M2573.423,1074.258c-.021-.193-.07-.391.091-.553v.54A.2.2,0,0,1,2573.423,1074.258Z" transform="translate(-2357.237 -954.637)" fill="#eabe79"/>
    <path id="Path_13737" data-name="Path 13737" d="M1788.438,1714.475a.623.623,0,0,1,.556.088h-.54A.454.454,0,0,1,1788.438,1714.475Z" transform="translate(-1691.235 -1498.28)" fill="#ebbe79"/>
    <path id="Path_13738" data-name="Path 13738" d="M1171,416.727a104.759,104.759,0,1,1,104.619,104.79A104.745,104.745,0,0,1,1171,416.727Z" transform="translate(-1167.365 -308.366)" fill="#003980"/>
    <path id="Path_13739" data-name="Path 13739" d="M1444.207,510.6a74.662,74.662,0,1,1-74.663,74.672A74.685,74.685,0,0,1,1444.207,510.6Z" transform="translate(-1335.823 -476.873)" fill="#d68f16"/>
    <path id="Path_13740" data-name="Path 13740" d="M1228.472,1085.023a2.583,2.583,0,0,1,2.747-2.773,5.356,5.356,0,0,1,1.559.1c1.219.3,2.475.13,3.7.314a3.854,3.854,0,0,1,1.844.7,2.483,2.483,0,0,1,.853,2.607c.156-.032.255-.048.352-.072a2.392,2.392,0,0,1,2.791,1.1,4.169,4.169,0,0,1,.612,1.544c.24,1.437.626,2.836.976,4.247a3.663,3.663,0,0,1,.008,1.769,2.409,2.409,0,0,1-2.266,1.9.6.6,0,0,0,.052.175,2.5,2.5,0,0,1-.53,3.592c-.308.268-4.972,3.066-5.352,3.2-1.49.524-2.362.178-3.471-1.376-1.108,1.371-2.445,1.65-3.86.578a44.039,44.039,0,0,1-4.274-3.7c-1.273-1.253-1.2-2.449.01-3.988a2.464,2.464,0,0,1-1.725-1.4,3.028,3.028,0,0,1,.039-2.369c.634-1.579,1.312-3.141,1.984-4.7a3.449,3.449,0,0,1,.4-.64C1225.807,1084.613,1226.774,1084.39,1228.472,1085.023Z" transform="translate(-1210.877 -961.877)" fill="#fff"/>
    <path id="Path_13741" data-name="Path 13741" d="M2370.684,1086c-.1-1.915.524-2.8,2.316-3.214a5.144,5.144,0,0,1,1.279-.17,19.845,19.845,0,0,0,3.273-.29,5.775,5.775,0,0,1,1.293-.031,2.6,2.6,0,0,1,2.61,2.763,3.068,3.068,0,0,1,1.745-.375,2.522,2.522,0,0,1,1.872,1.336,36.218,36.218,0,0,1,2.392,5.632c.515,1.629-.141,2.674-1.764,3.337,0,.017,0,.042.008.052,1.424,1.4.974,2.909-.109,4.043a4.46,4.46,0,0,1-.469.448,31.636,31.636,0,0,0-2.973,2.581,4.6,4.6,0,0,1-.956.7c-1.39.816-2.433.61-3.661-.7-.084-.036-.083.042-.1.082a2.461,2.461,0,0,1-3.206,1.316,5.94,5.94,0,0,1-1.676-.852,17.7,17.7,0,0,0-2.491-1.5,5.3,5.3,0,0,1-1.718-1.286,2.42,2.42,0,0,1-.269-3.036c.107-.181.324-.328-.108-.41a2.442,2.442,0,0,1-2.087-2.5,4.7,4.7,0,0,1,.223-1.652,28.558,28.558,0,0,0,.848-3.668,4.279,4.279,0,0,1,.2-.67A2.625,2.625,0,0,1,2370.684,1086Z" transform="translate(-2181.164 -961.909)" fill="#fff"/>
    <path id="Path_13742" data-name="Path 13742" d="M2375.313,805.531a10.02,10.02,0,1,1,10.065-9.938A10.045,10.045,0,0,1,2375.313,805.531Z" transform="translate(-2180.693 -710.103)" fill="#fff"/>
    <path id="Path_13743" data-name="Path 13743" d="M1236.918,805.531a10.02,10.02,0,1,1,10.029-9.9A10,10,0,0,1,1236.918,805.531Z" transform="translate(-1214.823 -710.103)" fill="#fff"/>
    <path id="Path_13744" data-name="Path 13744" d="M1535.652,387.76c.191.043.2.229.265.364.985,2.076,1.982,4.147,2.935,6.237.2.437.373.435.747.247.929-.467,1.871-.914,2.825-1.329.372-.161.421-.312.247-.672-1-2.069-1.967-4.153-2.961-6.225-.15-.313-.168-.472.2-.641,1.714-.783,3.417-1.592,5.115-2.412.323-.156.444-.094.594.223q4.292,9.14,8.617,18.265c.167.352.046.443-.239.575q-2.562,1.195-5.109,2.421c-.322.156-.44.1-.587-.222-1.071-2.313-2.172-4.612-3.247-6.924-.167-.359-.31-.472-.708-.267-.957.492-1.937.943-2.921,1.379-.329.146-.362.275-.208.594,1.1,2.3,2.175,4.611,3.278,6.909.176.366.173.533-.236.718-1.684.763-3.353,1.559-5.019,2.361-.321.155-.475.142-.642-.215q-4.286-9.143-8.6-18.273c-.089-.188-.242-.348.087-.5,1.793-.828,3.576-1.678,5.361-2.52C1535.513,387.823,1535.579,387.794,1535.652,387.76Z" transform="translate(-1471.866 -368.817)" fill="#d68f16"/>
    <path id="Path_13745" data-name="Path 13745" d="M1418.012,505.162A11.314,11.314,0,0,1,1406.894,496a10.743,10.743,0,0,1,7.17-12.26,11.655,11.655,0,0,1,6.746.161c.25.069.236.183.187.391q-.416,1.756-.8,3.518c-.06.278-.163.369-.47.308q-1.451-.288-2.922-.48a4.257,4.257,0,0,0-4.373,5.55,9.777,9.777,0,0,0,5.678,6.137,4.312,4.312,0,0,0,5.8-3.959,8.244,8.244,0,0,0-.594-3.045c-.107-.322-.109-.461.279-.556,1.22-.3,2.429-.638,3.638-.974.192-.053.338-.116.414.141.656,2.2,1.131,4.417.375,6.673a10.606,10.606,0,0,1-8.343,7.36A13.922,13.922,0,0,1,1418.012,505.162Z" transform="translate(-1367.333 -453.719)" fill="#d68f16"/>
    <path id="Path_13746" data-name="Path 13746" d="M1700.813,365.3l5.258-1.061c.246-.05.491-.109.738-.156.971-.185.974-.185,1.168.762.188.915.356,1.834.562,2.745.092.4.012.579-.43.665-2.751.533-5.5,1.1-8.242,1.65-1.461.294-2.929.56-4.381.893-.425.1-.479-.075-.541-.386q-.6-2.986-1.2-5.969-1.381-6.867-2.771-13.731c-.074-.365-.021-.507.354-.582q6.315-1.254,12.623-2.54c.33-.068.433-.024.494.317q.309,1.723.692,3.433c.076.333.007.443-.317.506-2.027.393-4.051.806-6.078,1.2-.406.079-.651.151-.5.7.252.9.393,1.825.562,2.743.049.268.122.356.421.293,1.951-.41,3.91-.784,5.86-1.2.378-.081.49-.015.556.373.186,1.1.4,2.193.661,3.274.106.437,0,.547-.408.625-1.906.364-3.8.772-5.708,1.133-.389.074-.439.206-.358.565.256,1.139.479,2.285.7,3.431C1700.574,365.2,1700.594,365.392,1700.813,365.3Z" transform="translate(-1608.515 -338.536)" fill="#d68f16"/>
    <path id="Path_13747" data-name="Path 13747" d="M2072.344,421.375c-.114-.054-.213-.1-.308-.146q-5.794-2.926-11.588-5.847c-.3-.149-.374-.257-.2-.59q4.578-9,9.117-18.023c.157-.31.27-.356.584-.2q5.737,2.919,11.491,5.8c.293.147.375.258.2.583-.55,1.03-1.068,2.077-1.577,3.127-.141.289-.258.328-.554.175-1.883-.97-3.783-1.9-5.664-2.877-.338-.175-.462-.138-.622.2-.407.878-.851,1.74-1.3,2.6-.142.266-.116.37.164.509,1.753.87,3.483,1.786,5.248,2.633.463.222.436.4.234.779-.517.964-1.008,1.943-1.482,2.929-.157.325-.283.4-.631.216-1.736-.9-3.495-1.767-5.232-2.669-.343-.178-.474-.115-.634.22-.5,1.036-1.017,2.061-1.557,3.075-.168.314-.117.431.2.587,1.914.948,3.809,1.933,5.726,2.874.371.182.4.314.213.665-.538.994-1.029,2.013-1.544,3.02C2072.551,421.156,2072.528,421.339,2072.344,421.375Z" transform="translate(-1921.773 -380.047)" fill="#d68f16"/>
    <path id="Path_13748" data-name="Path 13748" d="M1954.8,380.47a8.636,8.636,0,0,1-6.7-3.344,10.091,10.091,0,0,1-1.323-3.163c-.072-.237.024-.306.221-.385,1.249-.5,2.5-1.006,3.736-1.529.264-.112.333-.033.411.205.224.682.456,1.362.718,2.029a2.14,2.14,0,0,0,1.588,1.329,1.7,1.7,0,0,0,1.766-.637,1.676,1.676,0,0,0-.056-1.922,7.121,7.121,0,0,0-1.492-1.321,16.6,16.6,0,0,1-3.074-2.621c-2.344-2.8-1.337-6.93,1.008-8.871a7.694,7.694,0,0,1,12.362,4.641c.171.932.171.933-.732,1.236-1.021.342-2.046.673-3.062,1.03-.271.1-.372.079-.426-.234-.11-.636-.25-1.269-.42-1.892a2.154,2.154,0,0,0-1.663-1.66,1.194,1.194,0,0,0-1.39.563,1.134,1.134,0,0,0,.03,1.574,11.154,11.154,0,0,0,1.948,1.618,11.626,11.626,0,0,1,2.968,2.882,6.838,6.838,0,0,1-3.485,9.965,8.133,8.133,0,0,1-1.616.409C1955.732,380.427,1955.335,380.433,1954.8,380.47Z" transform="translate(-1825.562 -347.853)" fill="#d68f16"/>
    <path id="Path_13749" data-name="Path 13749" d="M2178.268,489.719c-2.778,8.189-5.553,16.377-8.354,24.634-.618-.534-1.2-1.035-1.78-1.539-1.02-.886-2.026-1.788-3.061-2.655a.592.592,0,0,1-.191-.781c.461-1.3.879-2.617,1.341-3.918a.494.494,0,0,0-.166-.644q-1.259-1.063-2.486-2.163a.407.407,0,0,0-.559-.041c-1.231.666-2.476,1.309-3.7,1.981a.546.546,0,0,1-.744-.094c-1.112-1-2.247-1.967-3.424-2.99l23.028-11.891Z" transform="translate(-2002.365 -459.068)" fill="#d68f16"/>
    <path id="Path_13750" data-name="Path 13750" d="M1835.841,353.6q.112-5.078.219-10.156c.005-.3.069-.4.389-.4q2.89.08,5.78.117c.325,0,.378.126.371.416-.119,5.15-.216,10.3-.353,15.45-.014.561.132.677.665.679,2.035,0,4.07.074,6.1.092.384,0,.438.143.426.475-.042,1.224-.073,2.449-.077,3.673,0,.363-.114.448-.466.44q-6.428-.146-12.857-.254c-.411-.007-.416-.187-.409-.488q.115-5.024.217-10.048Z" transform="translate(-1731.277 -334.711)" fill="#d68f16"/>
    <path id="Path_13751" data-name="Path 13751" d="M2180.813,1443.213a4.1,4.1,0,0,1-3.517-1.809q-1.952-2.653-3.9-5.311c-.213-.291-.408-.6-.642-.868-.2-.233-.123-.349.092-.5.864-.617,1.726-1.238,2.569-1.883.275-.211.4-.2.614.09,1.455,2.013,2.928,4.012,4.4,6.015a1.135,1.135,0,0,0,1.94.137c.5-.514.525-.8.078-1.413-1.487-2.034-2.97-4.071-4.48-6.088-.253-.336-.208-.483.112-.7.568-.381,1.111-.8,1.657-1.208.191-.143.318-.212.5.043,1.6,2.216,3.243,4.407,4.829,6.636a3.437,3.437,0,0,1,.161,3.964A5.747,5.747,0,0,1,2180.813,1443.213Z" transform="translate(-2017.214 -1256.552)" fill="#d68f16"/>
    <path id="Path_13752" data-name="Path 13752" d="M2048.18,1517.027a5.993,5.993,0,0,1,3.3-5.429,5.607,5.607,0,0,1,6.031.321c.792.505.79.509.3,1.28-.271.425-.555.842-.811,1.275-.131.222-.241.251-.464.113a12.145,12.145,0,0,0-1.366-.757,2.179,2.179,0,0,0-3.16,2.137,5.624,5.624,0,0,0,1.25,3.327,2.209,2.209,0,0,0,2.4.975,2.434,2.434,0,0,0,1.817-2.182c.009-.071.013-.143.017-.216.061-1.087.061-1.086,1.15-.993.466.041.932.068,1.4.107.173.014.374-.007.355.279a6.347,6.347,0,0,1-1.171,3.854,5.927,5.927,0,0,1-6.117,2.182,5.994,5.994,0,0,1-4.683-4.508A5.379,5.379,0,0,1,2048.18,1517.027Z" transform="translate(-1911.609 -1325.548)" fill="#d68f16"/>
    <path id="Path_13753" data-name="Path 13753" d="M1398.416,1392.755c-.113.1-.222.2-.319.3-.91.95-1.824,1.9-2.721,2.858-.208.222-.325.283-.575.031-.763-.765-1.553-1.5-2.347-2.238-.2-.188-.21-.294-.014-.5q3.907-4.078,7.793-8.178c.206-.218.314-.238.541-.019q2.527,2.441,5.086,4.849c.257.242.227.372,0,.6-.438.427-.866.869-1.263,1.334-.253.3-.41.336-.708.029-.689-.71-1.436-1.366-2.139-2.064-.215-.212-.339-.235-.535.01-.27.336-.8.644-.8.964,0,.305.528.618.836.916.439.427.881.852,1.336,1.261.183.165.217.273.025.464-.5.5-.983,1-1.45,1.529-.2.22-.313.18-.5,0-.643-.631-1.3-1.246-1.953-1.867C1398.617,1392.938,1398.525,1392.855,1398.416,1392.755Z" transform="translate(-1355.128 -1218.632)" fill="#d68f16"/>
    <path id="Path_13754" data-name="Path 13754" d="M1776.656,1542.717c1.578,4.89,3.116,9.658,4.675,14.491-1.347-.1-2.619-.2-3.892-.275-.284-.018-.347-.2-.415-.412-.207-.648-.43-1.293-.622-1.946-.064-.219-.14-.341-.388-.353q-.729-.032-1.453-.115c-.244-.027-.3.118-.382.289-.286.618-.594,1.228-.871,1.851a.442.442,0,0,1-.529.311c-.906-.091-1.818-.14-2.8-.211C1772.216,1551.787,1774.407,1547.311,1776.656,1542.717Z" transform="translate(-1675.578 -1352.572)" fill="#d68f16"/>
    <path id="Path_13755" data-name="Path 13755" d="M1701.338,1553.061a32.3,32.3,0,0,1-3.747-.716c-.653-.118-1.3-.271-1.95-.4-.249-.05-.342-.128-.276-.433.79-3.685,1.558-7.375,2.326-11.064.054-.26.134-.348.43-.282,1.7.38,3.418.67,5.1,1.111a3.514,3.514,0,0,1,1.773,5.924c-.174.154-.152.259-.052.448C1706.312,1550.25,1704.579,1553.065,1701.338,1553.061Z" transform="translate(-1612.249 -1350.386)" fill="#d68f16"/>
    <path id="Path_13756" data-name="Path 13756" d="M2241.768,1385.551a3.523,3.523,0,0,1,3.656,2.765c.052.233.112.356.4.375a3.6,3.6,0,0,1,3,5.091,5.294,5.294,0,0,1-1.173,1.6c-1.15,1.116-2.305,2.224-3.445,3.351-.228.226-.35.255-.591,0q-3.9-4.046-7.816-8.066c-.2-.208-.241-.325-.005-.547,1.215-1.15,2.4-2.33,3.621-3.478A3.715,3.715,0,0,1,2241.768,1385.551Z" transform="translate(-2070.66 -1219.224)" fill="#d68f16"/>
    <path id="Path_13757" data-name="Path 13757" d="M1924.576,1551.559c-.114-.26.059-.328.279-.362,1.118-.172,2.237-.333,3.353-.524.319-.054.262.156.287.314q.319,1.968.628,3.936c.225,1.437.454,2.874.661,4.312.054.376.252.406.553.357,1.01-.167,2.024-.309,3.031-.493.319-.059.458-.009.5.329.091.694.212,1.383.323,2.076.041.255.034.421-.314.471q-3.571.526-7.133,1.1c-.267.043-.382.033-.429-.272q-.85-5.509-1.721-11.016C1924.584,1551.722,1924.583,1551.649,1924.576,1551.559Z" transform="translate(-1806.711 -1359.315)" fill="#d68f16"/>
    <path id="Path_13758" data-name="Path 13758" d="M1859.478,1563.515c-.081-1.818-.155-3.635-.25-5.453-.019-.346.065-.473.429-.479,1.044-.017,2.089-.063,3.132-.119.316-.017.427.052.438.4.094,2.719.225,5.436.314,8.154.016.461.166.568.6.541,1.006-.065,2.015-.074,3.023-.129.3-.017.407.062.41.372.009.7.036,1.4.089,2.1.025.344-.1.423-.422.434-2.394.082-4.789.172-7.181.284-.4.019-.336-.229-.346-.442q-.126-2.834-.24-5.67Z" transform="translate(-1751.295 -1365.083)" fill="#d68f16"/>
    <path id="Path_13759" data-name="Path 13759" d="M1634.125,1521.065c.017-.074-.135-.086-.244-.124-.422-.149-.843-.307-1.272-.433-.278-.081-.313-.2-.211-.461.245-.634.456-1.282.672-1.927.08-.238.156-.335.453-.228,2.26.812,4.528,1.6,6.8,2.389.24.083.366.149.247.45-.257.65-.479,1.314-.693,1.979-.083.257-.2.28-.428.185-.364-.149-.757-.229-1.111-.4s-.485-.04-.6.3c-.9,2.608-1.827,5.207-2.72,7.818-.134.388-.263.481-.66.325q-1.4-.548-2.839-1c-.374-.117-.415-.252-.291-.6.934-2.616,1.849-5.238,2.768-7.859C1634.027,1521.38,1634.057,1521.277,1634.125,1521.065Z" transform="translate(-1557.792 -1331.472)" fill="#d68f16"/>
    <path id="Path_13760" data-name="Path 13760" d="M2131.546,1491.93c-.015.177-.157.205-.26.262-2.1,1.176-4.206,2.346-6.3,3.527-.236.132-.355.132-.5-.127q-2.747-4.95-5.521-9.883c-.146-.262-.091-.364.145-.494.96-.527,1.922-1.056,2.866-1.612.326-.191.387.017.5.225,1.327,2.386,2.667,4.767,3.984,7.16.2.36.346.425.716.2.873-.534,1.787-1,2.672-1.516.262-.152.39-.129.533.151.328.639.695,1.259,1.045,1.886C2131.471,1491.786,2131.511,1491.866,2131.546,1491.93Z" transform="translate(-1971.601 -1302.354)" fill="#d68f16"/>
    <path id="Path_13761" data-name="Path 13761" d="M1554.417,1496.643a6.606,6.606,0,0,1-5.15,6.519,5.889,5.889,0,0,1-6.777-4.225,6.672,6.672,0,0,1,4.682-8.015A5.894,5.894,0,0,1,1554.417,1496.643Z" transform="translate(-1482.383 -1308.49)" fill="#d68f16"/>
    <path id="Path_13762" data-name="Path 13762" d="M1462.4,1449.446a6.635,6.635,0,0,1,6.352-6.557,5.932,5.932,0,0,1,5.875,5.832,6.656,6.656,0,0,1-6.332,6.638A5.922,5.922,0,0,1,1462.4,1449.446Z" transform="translate(-1414.608 -1267.873)" fill="#d68f16"/>
    <path id="Path_13763" data-name="Path 13763" d="M1384.6,597.962a72.39,72.39,0,1,1,72.332,72.4A72.376,72.376,0,0,1,1384.6,597.962Z" transform="translate(-1348.596 -489.567)" fill="#fdfdfc"/>
    <path id="Path_13764" data-name="Path 13764" d="M1270.988,1091.478a1.23,1.23,0,0,1,1.074-1.385,3.9,3.9,0,0,1,1.872.007c1.239.292,2.511.129,3.754.325a3.7,3.7,0,0,1,.728.185,1.282,1.282,0,0,1,.884,1.795,10.262,10.262,0,0,1-2.725,3.7c-.215.219-1.073-.219-1.124-.551-.093-.6-.167-1.211-.272-1.813-.022-.131.048-.367-.2-.37-.2,0-.179.2-.221.323-.2.576-.406,1.152-.57,1.738-.139.5-.592.292-.881.447-.255.137-.3-.123-.388-.25a12.431,12.431,0,0,1-1.809-3.411A3.885,3.885,0,0,1,1270.988,1091.478Z" transform="translate(-1252.203 -968.448)" fill="#e4001b"/>
    <path id="Path_13765" data-name="Path 13765" d="M1315.716,1118.133a1.116,1.116,0,0,0-.269,0c-.85.214-1.2-.337-1.525-.964a.261.261,0,0,1,.046-.329,12.338,12.338,0,0,1,2.8-2.9c1.224-.819,2.076-.531,2.584.854a5.094,5.094,0,0,1,.323,1.359,23.461,23.461,0,0,0,.765,3.187,4.334,4.334,0,0,1,.1.963,1.343,1.343,0,0,1-1.594,1.5,11.109,11.109,0,0,1-4.1-1.393c-.291-.144-.192-.8.138-.975.574-.3,1.163-.562,1.736-.86.138-.072.412-.07.344-.328-.057-.217-.275-.108-.421-.115C1316.329,1118.122,1316.022,1118.133,1315.716,1118.133Z" transform="translate(-1288.598 -988.392)" fill="#e4001b"/>
    <path id="Path_13766" data-name="Path 13766" d="M1232.143,1113.885c-.072,0-.144,0-.216,0-1.5-.1-2.011-.833-1.579-2.275a2.217,2.217,0,0,1,.121-.355c.649-1.3,1.144-2.666,1.716-4,.764-1.781,1.9-1.924,3.184-.472a15.417,15.417,0,0,1,1.9,2.934c.115.214.034.314-.083.5a1.3,1.3,0,0,1-1.751.582,6.42,6.42,0,0,0-1.164-.214c-.115-.018-.26-.087-.33.074s.06.226.16.3c.537.394,1.055.817,1.62,1.166.358.222.244.51.253.8.009.323-.262.289-.45.346A13.444,13.444,0,0,1,1232.143,1113.885Z" transform="translate(-1217.597 -981.865)" fill="#e4001b"/>
    <path id="Path_13767" data-name="Path 13767" d="M1294.231,1170.949c.067-.723.125-1.422.2-2.12.02-.183-.013-.459.25-.471.307-.015.618-.3.937.082.461.551.991,1.045,1.5,1.559.095.1.185.265.353.161s.042-.255,0-.382c-.207-.65-.391-1.308-.63-1.946s.4-.811.607-1.2c.155-.29.413-.008.6.056a13.444,13.444,0,0,1,2.361,1.043,7.1,7.1,0,0,1,.638.4c1.405,1.011,1.438,2.09-.021,3.009-1.335.841-2.728,1.59-4.051,2.454a1.719,1.719,0,0,1-.292.136c-1.264.523-1.986.148-2.3-1.193A11.193,11.193,0,0,1,1294.231,1170.949Z" transform="translate(-1271.924 -1033.369)" fill="#e4001b"/>
    <path id="Path_13768" data-name="Path 13768" d="M1244.515,1166.2a12.3,12.3,0,0,1-.552,3.334c-.512,1.373-1.384,1.651-2.6.835a.986.986,0,0,1-.131-.093c-1.19-1.094-2.4-2.159-3.658-3.178a2.448,2.448,0,0,1-.419-.492,1.327,1.327,0,0,1,.348-2.088,8.916,8.916,0,0,1,3.319-1.19c.052-.012.108-.01.161-.02a1.067,1.067,0,0,1,1.394.844c.05.17-.062.266-.124.385-.331.637-.67,1.27-1,1.905-.054.1-.172.21-.027.331s.233-.006.328-.073a14.566,14.566,0,0,0,1.563-1.145c.432-.4.809-.248,1.216-.065C1244.708,1165.662,1244.385,1166.013,1244.515,1166.2Z" transform="translate(-1223.193 -1030.634)" fill="#e4001b"/>
    <path id="Path_13769" data-name="Path 13769" d="M1278.849,1140.633a2.247,2.247,0,0,1,2.273-2.291,2.29,2.29,0,0,1,2.3,2.287,2.329,2.329,0,0,1-2.263,2.283A2.293,2.293,0,0,1,1278.849,1140.633Z" transform="translate(-1258.873 -1009.479)" fill="#e4001b"/>
    <path id="Path_13770" data-name="Path 13770" d="M2408.354,1090.378a10.606,10.606,0,0,0,2.413-.262,4.734,4.734,0,0,1,1.5,0,1.354,1.354,0,0,1,1.189,1.8,9.213,9.213,0,0,1-1.3,2.881c-.119.2-.272.383-.375.59a.767.767,0,0,1-1.1.453.57.57,0,0,1-.406-.411q-.277-.844-.554-1.686c-.041-.13-.039-.318-.232-.309s-.175.194-.195.331c-.078.57-.194,1.138-.221,1.71-.03.594-.554.525-.868.734-.271.181-.378-.107-.511-.241a13.23,13.23,0,0,1-2.158-2.684c-.922-1.619-.466-2.539,1.369-2.825A11.113,11.113,0,0,1,2408.354,1090.378Z" transform="translate(-2214.424 -968.51)" fill="#e4001b"/>
    <path id="Path_13771" data-name="Path 13771" d="M2378.469,1118.151c-.269,0-.54-.012-.81,0-.164.01-.409-.1-.476.119-.071.246.21.253.351.325.558.288,1.114.586,1.7.818.383.153.266.453.327.712.07.294-.175.328-.335.4a12.288,12.288,0,0,1-3.644,1.273c-1.277.169-1.972-.471-1.875-1.754a2.755,2.755,0,0,1,.084-.532c.411-1.469.673-2.973,1.039-4.45.418-1.689,1.477-2.007,2.884-.956a14.162,14.162,0,0,1,2.551,2.7c.138.176.068.286.005.469C2379.951,1118.2,2379.267,1118.278,2378.469,1118.151Z" transform="translate(-2187.795 -988.411)" fill="#e4001b"/>
    <path id="Path_13772" data-name="Path 13772" d="M2460.087,1113.943a14.838,14.838,0,0,1-3.6-.663c-.367-.106-.436-.791-.112-1.036.561-.422,1.133-.829,1.694-1.247.092-.067.252-.114.164-.285-.077-.151-.214-.1-.333-.083-.62.106-1.247.186-1.855.335a.536.536,0,0,1-.66-.255c-.578-.78-.594-.771-.121-1.612a10.6,10.6,0,0,1,1.844-2.578q1.6-1.519,2.7.394a.766.766,0,0,1,.053.094c.65,1.532,1.306,3.063,1.946,4.6a2.463,2.463,0,0,1,.155.735,1.277,1.277,0,0,1-1.134,1.5C2460.547,1113.9,2460.259,1113.921,2460.087,1113.943Z" transform="translate(-2256.721 -981.91)" fill="#e4001b"/>
    <path id="Path_13773" data-name="Path 13773" d="M2393.323,1171.433a5.389,5.389,0,0,1-.211,1.91,1.321,1.321,0,0,1-1.831.979,5.323,5.323,0,0,1-1.708-.9,12.082,12.082,0,0,0-1.983-1.189,5.516,5.516,0,0,1-1.564-1.042,1.365,1.365,0,0,1,0-2.166,5.8,5.8,0,0,1,1.605-1.076c.483-.235.979-.451,1.478-.65.995-.4.992-.384,1.63.471a.4.4,0,0,1,.024.443q-.335,1.023-.656,2.05c-.037.113-.119.257.008.35.166.12.26-.041.354-.139.5-.516,1.034-1.009,1.49-1.564.319-.389.628-.094.936-.092s.2.288.245.459a2.748,2.748,0,0,1,.072.479A11.16,11.16,0,0,1,2393.323,1171.433Z" transform="translate(-2197.806 -1033.833)" fill="#e4001b"/>
    <path id="Path_13774" data-name="Path 13774" d="M2443.772,1165.962a2.654,2.654,0,0,1-.022-.377c.017-.23-.194-.544.135-.667.358-.132.7-.414,1.131-.032a17.109,17.109,0,0,0,1.566,1.146c.123.087.249.288.414.153.2-.165-.013-.33-.083-.471-.3-.592-.6-1.187-.936-1.76-.32-.547.271-.78.371-1.182.077-.307.371-.16.554-.125a13.077,13.077,0,0,1,3,.828,5.277,5.277,0,0,1,.715.372c.944.614,1.159,1.453.375,2.256a33.836,33.836,0,0,1-4.426,3.842c-.888.641-1.674.324-2.149-.674A8.752,8.752,0,0,1,2443.772,1165.962Z" transform="translate(-2247.193 -1030.045)" fill="#e4001b"/>
    <path id="Path_13775" data-name="Path 13775" d="M2425.023,1138.339a2.272,2.272,0,0,1,2.288,2.291,2.319,2.319,0,0,1-2.317,2.281,2.288,2.288,0,0,1-2.246-2.284A2.24,2.24,0,0,1,2425.023,1138.339Z" transform="translate(-2229.417 -1009.476)" fill="#e4001b"/>
    <path id="Path_13776" data-name="Path 13776" d="M2406.749,812.4c-.4-.866-.8-1.73-1.207-2.589a.258.258,0,0,1,.114-.392,73.47,73.47,0,0,1,6.341-3.991,7.952,7.952,0,0,1,2.211-.664.658.658,0,0,1,.561.1,8.941,8.941,0,0,1,1.766,1.812c.091.125.232.242-.052.351C2413.007,808.375,2409.958,810.5,2406.749,812.4Z" transform="translate(-2214.779 -726.436)" fill="#e4001b"/>
    <path id="Path_13777" data-name="Path 13777" d="M2416.974,831.417c-.251.039-.277-.089-.324-.21-.168-.435-.337-.87-.525-1.3-.077-.18-.064-.28.113-.387a70.49,70.49,0,0,1,9.308-5.192c.449-.185.671-.117.837.331.738,1.976.96,1.655-.782,3.048a19.914,19.914,0,0,1-6.787,3.188C2418.181,831.093,2417.538,831.259,2416.974,831.417Z" transform="translate(-2223.759 -742.974)" fill="#e4001b"/>
    <path id="Path_13778" data-name="Path 13778" d="M2433,844.987a12.117,12.117,0,0,1-.01,2.171,4.227,4.227,0,0,1-2,2.937,14.722,14.722,0,0,1-4.824,2.069c-.586.169-1.188.286-1.767.476-.291.1-.372-.014-.461-.242-.285-.736-.565-1.475-.886-2.2-.157-.35-.076-.442.279-.536a29.391,29.391,0,0,0,6.968-2.673A12.431,12.431,0,0,0,2433,844.987Z" transform="translate(-2229.608 -760.581)" fill="#e4001b"/>
    <path id="Path_13779" data-name="Path 13779" d="M2391.424,837.879c.486-.122.732.18.974.684,1.267,2.638,2.24,5.4,3.39,8.082.179.419-.106.591-.317.808-.671.7-.681.693-1.276-.059a15.536,15.536,0,0,1-3.581-8.784C2390.565,837.854,2390.58,837.853,2391.424,837.879Z" transform="translate(-2202.139 -754.527)" fill="#e4001b"/>
    <path id="Path_13780" data-name="Path 13780" d="M2379.037,848.57c-.154.1-.258.018-.375-.029a8.792,8.792,0,0,1-5.181-9.341c.072-.44.3-.49.63-.565,1.084-.25,1.058-.254,1.148.839a16.264,16.264,0,0,0,3.382,8.494C2378.784,848.159,2378.992,848.318,2379.037,848.57Z" transform="translate(-2187.526 -755.075)" fill="#e4001b"/>
    <path id="Path_13781" data-name="Path 13781" d="M2393.37,802.6c-.59.382-1.18.761-1.765,1.146a.346.346,0,0,1-.4.046,6.813,6.813,0,0,0-5.4-.252c-.051.015-.1.021-.275.056.92-.9,1.582-1.985,2.9-2.138C2390.649,801.2,2392.39,801.623,2393.37,802.6Z" transform="translate(-2197.845 -723.585)" fill="#e4001b"/>
    <path id="Path_13782" data-name="Path 13782" d="M2382.748,818.379c-.966.638-1.82,1.2-2.668,1.765a.667.667,0,0,1-.464.079,11.291,11.291,0,0,0-3.448.229c.3-.937.5-1.78,1.612-2.082a7.815,7.815,0,0,1,4.082-.295C2382.117,818.141,2382.362,818.245,2382.748,818.379Z" transform="translate(-2189.895 -737.608)" fill="#e4001b"/>
    <path id="Path_13783" data-name="Path 13783" d="M2415.925,793.982a8.891,8.891,0,0,1,6.5.732,10.538,10.538,0,0,0-2.294.833.278.278,0,0,1-.344-.021,6.81,6.81,0,0,0-3.708-1.457C2416.046,794.066,2416.016,794.036,2415.925,793.982Z" transform="translate(-2223.628 -717.046)" fill="#e4001c"/>
    <path id="Path_13784" data-name="Path 13784" d="M2426.766,895.523c-1.226,2.17-1.784,2.4-4.2,1.986C2423.514,895.944,2425.277,896.166,2426.766,895.523Z" transform="translate(-2229.266 -803.459)" fill="#e4001c"/>
    <path id="Path_13785" data-name="Path 13785" d="M2452.7,889.309a3,3,0,0,1-2.73,2.495,6.859,6.859,0,0,0,.953-1.688.338.338,0,0,1,.222-.213C2451.643,889.715,2452.139,889.525,2452.7,889.309Z" transform="translate(-2252.513 -798.186)" fill="#e4001c"/>
    <path id="Path_13786" data-name="Path 13786" d="M2473,882.969c.015-.852.5-1.262,1.238-1.625A6.706,6.706,0,0,1,2473,882.969Z" transform="translate(-2272.052 -791.428)" fill="#e50d20"/>
    <path id="Path_13787" data-name="Path 13787" d="M1247.587,804.7a7.957,7.957,0,0,1,2.962.929c2.043,1.1,3.888,2.519,5.85,3.75a.255.255,0,0,1,.109.393c-.374.775-.742,1.554-1.081,2.345-.142.333-.286.152-.443.056-1.135-.692-2.265-1.392-3.4-2.077a37.708,37.708,0,0,0-5.917-3.071c-.181-.069-.35-.122-.171-.361a9.139,9.139,0,0,1,1.85-1.875A.394.394,0,0,1,1247.587,804.7Z" transform="translate(-1230.507 -726.398)" fill="#e4001b"/>
    <path id="Path_13788" data-name="Path 13788" d="M1237.975,823.937c.277.108.6.222.91.357a55.926,55.926,0,0,1,6.874,3.8c.6.365,1.182.752,1.793,1.095.286.162.324.316.184.6-.221.447-.237,1.121-.624,1.321s-.95-.154-1.427-.293a23.534,23.534,0,0,1-7.011-3.076c-.148-.1-.292-.211-.433-.321-1.468-1.145-1.561-1.675-.576-3.277C1237.728,824.036,1237.76,823.893,1237.975,823.937Z" transform="translate(-1223.379 -742.715)" fill="#e4001b"/>
    <path id="Path_13789" data-name="Path 13789" d="M1235.04,845.241c2.792,2.545,6.174,3.67,9.63,4.63.4.11.488.2.305.591-.333.715-.61,1.456-.9,2.191-.077.2-.137.279-.384.214a29.455,29.455,0,0,1-5.162-1.677,7.414,7.414,0,0,1-2.8-2.141C1234.855,847.909,1234.947,846.615,1235.04,845.241Z" transform="translate(-1221.654 -760.797)" fill="#e4001b"/>
    <path id="Path_13790" data-name="Path 13790" d="M1304.828,838.564a16.007,16.007,0,0,1-3.994,9.431c-.053.063-.127.15-.194.152-.375.015-1.137-1.038-1-1.376,1.14-2.77,2.161-5.591,3.485-8.283.081-.164.084-.428.335-.442a5.873,5.873,0,0,1,1.29,0C1304.942,838.079,1304.791,838.4,1304.828,838.564Z" transform="translate(-1276.5 -754.661)" fill="#e4001b"/>
    <path id="Path_13791" data-name="Path 13791" d="M1312.366,848.613a18.119,18.119,0,0,0,3.327-5.971,14.382,14.382,0,0,0,.7-3.915c.01-.348.094-.416.432-.355,1.251.226,1.254.214,1.383,1.422A8.789,8.789,0,0,1,1312.366,848.613Z" transform="translate(-1287.311 -754.952)" fill="#e4001b"/>
    <path id="Path_13792" data-name="Path 13792" d="M1286.925,802.447a6.546,6.546,0,0,1,4.4-1.2c1.54.045,2.385,1.073,3.363,2.112a1.474,1.474,0,0,1-.826-.117,6.437,6.437,0,0,0-4.669.4.459.459,0,0,1-.536-.063C1288.1,803.205,1287.542,802.847,1286.925,802.447Z" transform="translate(-1265.725 -723.461)" fill="#e4001b"/>
    <path id="Path_13793" data-name="Path 13793" d="M1305.042,818.33a5.958,5.958,0,0,1,3.995-.286c.175.04.342.12.518.144a2.277,2.277,0,0,1,2.011,2.192,11.182,11.182,0,0,0-3.531-.215.6.6,0,0,1-.4-.117C1306.8,819.49,1305.957,818.936,1305.042,818.33Z" transform="translate(-1281.096 -737.541)" fill="#e4001b"/>
    <path id="Path_13794" data-name="Path 13794" d="M1266.009,794.778a8.412,8.412,0,0,1,6.4-.742,3.071,3.071,0,0,1-1.086.232,6.229,6.229,0,0,0-2.6,1.213.453.453,0,0,1-.573.052A9.117,9.117,0,0,0,1266.009,794.778Z" transform="translate(-1247.979 -717.085)" fill="#e4001b"/>
    <path id="Path_13795" data-name="Path 13795" d="M1274.434,895.978c1.036.271,2.016.481,2.963.793.531.175.763.786,1.3,1.08C1276.3,898.334,1275.615,898.1,1274.434,895.978Z" transform="translate(-1255.127 -803.845)" fill="#e4001c"/>
    <path id="Path_13796" data-name="Path 13796" d="M1259.132,892.013a2.971,2.971,0,0,1-2.652-2.45C1257.937,889.925,1258.373,890.328,1259.132,892.013Z" transform="translate(-1239.894 -798.402)" fill="#e4001c"/>
    <path id="Path_13797" data-name="Path 13797" d="M1244.636,883.468a8.708,8.708,0,0,1-1.152-1.487A1.339,1.339,0,0,1,1244.636,883.468Z" transform="translate(-1228.867 -791.969)" fill="#e50e20"/>
    <path id="Path_13798" data-name="Path 13798" d="M1560.976,409.466c0,.135-.118.158-.211.2-1.154.544-2.314,1.076-3.458,1.641-.383.19-.385-.12-.469-.3-1.077-2.273-2.157-4.545-3.209-6.829-.2-.434-.365-.523-.822-.3-1.56.776-3.144,1.5-4.729,2.228-.339.155-.391.294-.227.635,1.105,2.3,2.18,4.613,3.282,6.913.171.356.138.507-.244.674-1.069.467-2.121.977-3.17,1.491-.293.144-.42.1-.563-.2q-3.846-8.2-7.723-16.381c-.141-.3-.115-.409.191-.546,1.082-.485,2.158-.985,3.216-1.519.348-.176.476-.107.628.224.966,2.087,1.961,4.161,2.92,6.251.167.364.306.433.672.256q2.375-1.154,4.776-2.253c.375-.172.455-.317.263-.713-.995-2.053-1.945-4.128-2.937-6.183-.175-.362-.143-.508.231-.674,1.068-.474,2.119-.983,3.169-1.495.279-.136.414-.127.563.192q3.858,8.222,7.742,16.431C1560.906,409.3,1560.939,409.379,1560.976,409.466Z" transform="translate(-1479.896 -376.675)" fill="#fff"/>
    <path id="Path_13799" data-name="Path 13799" d="M1413.826,499.92a9.627,9.627,0,0,1,7.683-9.5,10.208,10.208,0,0,1,4.015.17c.258.06.352.16.262.45a10.993,10.993,0,0,0-.344,1.467c-.052.323-.179.362-.469.3a8.714,8.714,0,0,0-3.48-.23,5.243,5.243,0,0,0-4.09,6.472,10.466,10.466,0,0,0,6.24,7.141c3.948,1.609,6.746-1.386,7.283-4.094a5.694,5.694,0,0,0-.21-3.084c-.139-.389-.051-.53.342-.606a10.5,10.5,0,0,0,1.4-.377c.331-.113.438-.056.545.3,1.511,5.062-1.467,9-5.037,10.731a9.874,9.874,0,0,1-13.469-5.6A9.253,9.253,0,0,1,1413.826,499.92Z" transform="translate(-1373.392 -459.645)" fill="#fff"/>
    <path id="Path_13800" data-name="Path 13800" d="M1712.146,365.654c.07.336-.173.324-.389.368-1.92.387-3.835.8-5.759,1.16-.4.075-.438.194-.362.557.385,1.828.746,3.661,1.1,5.5.067.351.223.366.526.3,2.111-.437,4.228-.844,6.336-1.29.341-.072.448-.005.493.321a8.255,8.255,0,0,0,.264,1.32c.115.367-.019.474-.341.538q-3.012.6-6.023,1.208c-1.532.308-3.067.6-4.594.935-.392.086-.491-.033-.562-.39q-1.755-8.744-3.536-17.483c-.085-.42-.084-.631.465-.737,3.458-.663,6.9-1.38,10.352-2.091.365-.075.517.013.564.39a11.622,11.622,0,0,0,.251,1.213c.076.327.042.5-.372.575-2.065.392-4.117.846-6.182,1.236-.4.075-.406.234-.344.535.333,1.637.672,3.273.98,4.915.077.406.309.349.572.3,1.866-.378,3.733-.75,5.6-1.147.427-.091.662-.04.714.45C1711.943,364.776,1712.06,365.214,1712.146,365.654Z" transform="translate(-1615.569 -345.566)" fill="#fff"/>
    <path id="Path_13801" data-name="Path 13801" d="M2081.092,409.815c-.165-.033-.19.113-.242.219-.788,1.554-1.565,3.114-2.369,4.659-.183.349.051.391.254.493,1.733.874,3.459,1.761,5.2,2.61.413.2.467.379.227.75a6.243,6.243,0,0,0-.536,1.055c-.144.354-.31.389-.645.216-1.707-.883-3.434-1.729-5.138-2.621-.4-.209-.563-.155-.76.247q-1.191,2.446-2.448,4.861c-.173.334-.135.471.206.638,1.916.947,3.817,1.924,5.731,2.877.3.147.394.27.2.587-.3.49-.431,1.262-.843,1.445s-1.005-.391-1.511-.645c-2.842-1.427-5.675-2.871-8.521-4.289-.344-.172-.37-.295-.2-.628q4.077-8.025,8.116-16.068c.194-.389.349-.369.68-.2q4.729,2.411,9.476,4.789c.353.176.441.32.228.672-.288.474-.421,1.225-.82,1.4s-.974-.385-1.467-.629c-1.5-.739-2.984-1.5-4.476-2.257Z" transform="translate(-1929.788 -388.042)" fill="#fff"/>
    <path id="Path_13802" data-name="Path 13802" d="M1963.652,365.737a6.615,6.615,0,0,1,6.549,5c.085.365.016.521-.336.619a12.811,12.811,0,0,0-1.482.492c-.355.149-.441,0-.493-.3a4.684,4.684,0,0,0-.643-1.759,3.053,3.053,0,0,0-3.17-1.347,2.432,2.432,0,0,0-1.25,3.806,13.6,13.6,0,0,0,2.439,2.039,15.9,15.9,0,0,1,1.757,1.516c2.821,2.889,1.421,7.709-1.991,9.146a7.593,7.593,0,0,1-8.75-2.421,7.124,7.124,0,0,1-.8-1.7c-.1-.284-.065-.459.252-.573.557-.2,1.107-.424,1.647-.667.277-.124.4-.1.5.214a7.687,7.687,0,0,0,.523,1.3,3.142,3.142,0,0,0,3.385,1.659,2.659,2.659,0,0,0,1.437-4.432,12.966,12.966,0,0,0-2.2-1.818c-.522-.384-1.031-.783-1.523-1.207-3.044-2.624-1.833-6.927.689-8.56A6.162,6.162,0,0,1,1963.652,365.737Z" transform="translate(-1832.922 -353.96)" fill="#fff"/>
    <path id="Path_13803" data-name="Path 13803" d="M2186.953,504.005l-6.99,20.611c-1.12-.972-2.19-1.908-3.27-2.83-.2-.172-.14-.326-.071-.522.463-1.339.917-2.682,1.375-4.023.075-.22.15-.406-.093-.612q-1.813-1.536-3.589-3.115a.485.485,0,0,0-.658-.066c-1.23.67-2.477,1.308-3.705,1.982a.475.475,0,0,1-.655-.075c-.538-.5-1.1-.974-1.725-1.52l19.255-9.959Z" transform="translate(-2012.911 -471.166)" fill="#fff"/>
    <path id="Path_13804" data-name="Path 13804" d="M1842.989,359.632c.07-2.99.149-5.98.2-8.97.007-.418.136-.507.528-.489,1.169.055,2.341.079,3.511.1.274,0,.373.075.366.367-.072,3.242-.128,6.485-.194,9.727-.042,1.981-.085,3.963-.151,5.943-.012.377.127.446.46.453,2.072.04,4.142.111,6.214.141.421.006.574.108.524.546a10.079,10.079,0,0,0-.053,1.457c.01.355-.1.45-.461.441-3.332-.084-6.665-.144-10-.22-1.143-.026-1.149-.038-1.124-1.171q.093-4.161.195-8.321Z" transform="translate(-1737.362 -340.754)" fill="#fff"/>
    <path id="Path_13805" data-name="Path 13805" d="M2191.241,1444.352a3.447,3.447,0,0,1-1.246,2.74,4.452,4.452,0,0,1-3.653,1.381,2.861,2.861,0,0,1-1.923-1.188c-1.431-1.916-2.832-3.856-4.259-5.776-.183-.245-.114-.351.094-.5.441-.31.881-.625,1.3-.964.25-.2.376-.186.574.089,1.3,1.809,2.627,3.606,3.95,5.4a1.894,1.894,0,0,0,3.159.21,1.657,1.657,0,0,0,.158-2.415c-1.293-1.773-2.6-3.538-3.89-5.312-.131-.178-.442-.393-.308-.566a3.253,3.253,0,0,1,.889-.682c.128-.079.209.1.279.2,1.467,2,2.939,4,4.394,6.013A2.364,2.364,0,0,1,2191.241,1444.352Z" transform="translate(-2023.502 -1262.667)" fill="#fff"/>
    <path id="Path_13806" data-name="Path 13806" d="M2055.73,1520.757a6.221,6.221,0,0,0,1.779,3.939,2.783,2.783,0,0,0,3.157.757,3.086,3.086,0,0,0,2.079-2.775c.064-.866.644-.382.984-.434.483-.074.3.321.276.553a4.985,4.985,0,0,1-4.968,4.366,5.431,5.431,0,0,1-5.351-4.117,5.365,5.365,0,0,1,4.49-6.824,4.843,4.843,0,0,1,3.289.785c.211.128.219.248.079.425a1.162,1.162,0,0,0-.174.272c-.173.4-.38.456-.774.21a3.245,3.245,0,0,0-2.24-.614C2056.706,1517.564,2055.718,1518.773,2055.73,1520.757Z" transform="translate(-1916.12 -1330.052)" fill="#fff"/>
    <path id="Path_13807" data-name="Path 13807" d="M1407.11,1400.205c-.081-.071-.177-.149-.266-.234-.627-.594-1.267-1.176-1.874-1.791-.261-.264-.411-.28-.673.005-.865.941-1.776,1.841-2.633,2.789-.3.332-.476.294-.75,0a15.085,15.085,0,0,0-1.1-1.041c-.187-.165-.212-.275-.026-.47q3.384-3.529,6.75-7.075c.166-.175.272-.223.472-.03q2,1.933,4.027,3.84c.194.182.207.3,0,.469a1.628,1.628,0,0,0-.3.313c-.194.272-.345.26-.586.018-.711-.714-1.46-1.389-2.177-2.1-.212-.209-.333-.232-.547,0-.568.627-1.158,1.235-1.757,1.833-.217.217-.212.353.015.56.652.594,1.289,1.206,1.919,1.823.109.107.388.2.215.413A6.947,6.947,0,0,1,1407.11,1400.205Z" transform="translate(-1361.379 -1224.892)" fill="#fff"/>
    <path id="Path_13808" data-name="Path 13808" d="M1784.483,1557.586c1.027,3.178,2.046,6.334,3.065,9.491.165.512.324,1.027.5,1.536.081.234.033.335-.229.313q-.942-.078-1.885-.14c-.254-.018-.3-.2-.365-.4-.2-.651-.422-1.3-.623-1.949a.432.432,0,0,0-.445-.363c-.79-.043-1.58-.109-2.367-.189a.455.455,0,0,0-.526.327c-.264.59-.573,1.161-.824,1.756a.508.508,0,0,1-.651.36c-.942-.141-.946-.121-.515-1q2.2-4.505,4.4-9.006A1.687,1.687,0,0,1,1784.483,1557.586Z" transform="translate(-1683.516 -1365.188)" fill="#fff"/>
    <path id="Path_13809" data-name="Path 13809" d="M1708.783,1552.49c1.49,1.442,1.487,3.377.036,4.5a3.41,3.41,0,0,1-2.939.471c-1.319-.274-2.633-.575-3.954-.833-.317-.062-.371-.165-.307-.462q1.011-4.716,1.99-9.437c.07-.338.154-.39.485-.314,1.382.318,2.782.564,4.158.9a2.76,2.76,0,0,1,2.185,3.411A2.463,2.463,0,0,1,1708.783,1552.49Z" transform="translate(-1617.553 -1355.681)" fill="#fff"/>
    <path id="Path_13810" data-name="Path 13810" d="M2251.19,1394.079c1.778-.3,3.008.305,3.523,1.762a2.811,2.811,0,0,1-.586,2.872c-.913,1.095-2.025,1.995-3.024,3.007-.658.665-.668.656-1.331-.028-2.081-2.147-4.153-4.3-6.248-6.433-.307-.313-.272-.467.028-.746.91-.846,1.781-1.732,2.68-2.59a3.176,3.176,0,0,1,2.7-1.06,2.625,2.625,0,0,1,2.239,3.063A.443.443,0,0,0,2251.19,1394.079Z" transform="translate(-2077.172 -1223.709)" fill="#fff"/>
    <path id="Path_13811" data-name="Path 13811" d="M1932.626,1556.69c.267-.045.28.124.309.322q.53,3.407,1.073,6.813c.078.5.164.992.222,1.492.036.312.163.368.465.313,1.025-.185,2.059-.318,3.083-.507.385-.072.494.067.544.413.11.779.124.789-.7.926-1.684.279-3.369.542-5.052.82-.308.052-.454-.02-.505-.356-.487-3.177-.99-6.353-1.486-9.529-.027-.169-.108-.355.187-.4C1931.388,1556.908,1932.007,1556.794,1932.626,1556.69Z" transform="translate(-1811.809 -1364.421)" fill="#fff"/>
    <path id="Path_13812" data-name="Path 13812" d="M1866.073,1563.247c1.1-.031,1.085-.031,1.128,1.039.1,2.536.22,5.074.313,7.611.013.336.119.429.444.41,1.043-.061,2.088-.078,3.13-.15.326-.022.437.027.449.377.03.922.048.917-.868.955-1.619.066-3.24.125-4.857.214-.408.023-.6-.015-.616-.509-.067-2.2-.182-4.39-.277-6.585-.04-.936-.056-1.872-.119-2.806-.028-.413.073-.606.514-.562C1865.566,1563.267,1865.821,1563.247,1866.073,1563.247Z" transform="translate(-1756.023 -1369.981)" fill="#fff"/>
    <path id="Path_13813" data-name="Path 13813" d="M1639.6,1535.869c-.676-.237-1.328-.442-1.958-.7-.242-.1-.045-.321.006-.466q1.185-3.407,2.386-6.805c.136-.389.248-.789.409-1.167.114-.268.059-.389-.212-.471-.4-.119-.779-.276-1.174-.394-.26-.078-.334-.194-.25-.468.237-.778.225-.779,1-.508,1.625.57,3.245,1.156,4.881,1.694.406.134.349.334.217.581s-.04.79-.616.526a.292.292,0,0,0-.048-.023c-.482-.112-1.018-.583-1.389-.367-.322.189-.375.848-.535,1.3q-1.21,3.425-2.414,6.852C1639.841,1535.626,1639.851,1535.869,1639.6,1535.869Z" transform="translate(-1563.19 -1337.309)" fill="#fff"/>
    <path id="Path_13814" data-name="Path 13814" d="M2127.972,1490.527c.2.025.216.215.288.344,1.178,2.1,2.348,4.2,3.528,6.3.234.417.365,1.072.761,1.166.342.079.811-.364,1.218-.588.615-.338,1.23-.672,1.829-1.034.272-.165.41-.164.579.142.434.791.45.78-.355,1.228-1.443.8-2.891,1.6-4.322,2.422-.33.188-.484.209-.693-.17q-2.3-4.177-4.644-8.326c-.155-.276-.158-.414.154-.565.485-.234.942-.522,1.411-.786C2127.8,1490.613,2127.884,1490.573,2127.972,1490.527Z" transform="translate(-1977.69 -1308.292)" fill="#fff"/>
    <path id="Path_13815" data-name="Path 13815" d="M1558.116,1501.243a5.806,5.806,0,0,1-5.251,5.785,5.176,5.176,0,0,1-4.861-7.344,5.458,5.458,0,0,1,5.06-3.569A5.119,5.119,0,0,1,1558.116,1501.243Z" transform="translate(-1486.858 -1313.032)" fill="#fff"/>
    <path id="Path_13816" data-name="Path 13816" d="M1472.63,1459.094a5.1,5.1,0,0,1-5.117-5.051,5.854,5.854,0,0,1,5.5-5.781,5.137,5.137,0,0,1,5.178,5.059A5.842,5.842,0,0,1,1472.63,1459.094Z" transform="translate(-1418.945 -1272.431)" fill="#fff"/>
    <path id="Path_13817" data-name="Path 13817" d="M1612.613,719.254a3.562,3.562,0,0,1-3.105-2.768,1.4,1.4,0,0,1-.013-.265c.234-.02.279.194.386.322a2.045,2.045,0,0,0,2.162.757,1.989,1.989,0,0,0,1.565-1.666,2.05,2.05,0,0,0-.863-2.07,1.818,1.818,0,0,0-1.107-.359c-.19-.008-.445.076-.521-.222l.377-.243c-.725,0-1.329-.021-1.93.008-.345.017-.428-.1-.414-.426.028-.647.019-1.3.025-1.943.3-.248.682-.172,1.025-.237a12.288,12.288,0,0,0,1.614-.383,1.162,1.162,0,0,0,.809-.563,1.053,1.053,0,0,0,.058-.426c-.005-6,.014-12-.011-17.99-.125-.258-.3-.11-.456-.047a3.017,3.017,0,0,0-1.08.956c-.083.1-.148.206-.234.3s-.168.28-.338.19c-.143-.076-.125-.251-.1-.393a6.373,6.373,0,0,1,.718-2.475c.391-.648.156-.723-.423-.819-.529-.087-1.07-.01-1.6-.09a6.9,6.9,0,0,0-2.045,1.453c-.236-.305-.11-.618,0-.92a8.992,8.992,0,0,1,1.7-2.786c.378-.452.358-.486-.192-.648-.362-.107-.76.023-1.1-.194a4.149,4.149,0,0,0-2.2.84c-.349.228-.282-.009-.262-.212a4.959,4.959,0,0,1,3.087-3.536.744.744,0,0,0,.427-.305,2.15,2.15,0,0,1,1.456-1.027,10.5,10.5,0,0,1,2.976-.461c.488,0,.961-.151,1.45-.119.751,0,1.5,0,2.25,0a19.772,19.772,0,0,0,5.644-1.783,128.581,128.581,0,0,0,13.023-6.9c1.946-1.134,3.86-2.318,5.794-3.52-1.124-.2-2.247-.107-3.351-.259a19.57,19.57,0,0,1-2.446-.422,1.381,1.381,0,0,1-.626-.3c-.344-.423-.509-.949-.806-1.4a7.731,7.731,0,0,0-.565-.789c-.424-.494-.608-.478-.982.033a8.044,8.044,0,0,1-4.028,2.765,9.764,9.764,0,0,1-3.619.441,4.892,4.892,0,0,1-3.376-1.557c-.218-.241-.5-.483-.411-.88a8.147,8.147,0,0,1,1.436,0,3.46,3.46,0,0,0,1.406-.325,2.274,2.274,0,0,0,.62-3.607,4.114,4.114,0,0,0-2.64-1.424c-1.153-.352-2.266-.826-3.445-1.1-.737-.171-1.477-.323-2.223-.447-.2-.033-.4-.089-.548.1a1.535,1.535,0,0,0-.071.746q-.005,8.741,0,17.483c0,.216.006.432,0,.647-.027.533-.177.69-.707.618a5.356,5.356,0,0,1-1.954-.312,1.452,1.452,0,0,1-.125-.893q-.006-8.7,0-17.4a2.3,2.3,0,0,0-1.7-2.151c-.188-.059-.365-.143-.544-.217-.23-.042-.461-.074-.689-.128a2.558,2.558,0,0,1-2.187-2.874,1.34,1.34,0,0,0-.338-1.017,4.787,4.787,0,0,1-.555-.859,1.743,1.743,0,0,1,.244-2.143c.274-.309.65-.612.738-.977.1-.39-.362-.7-.591-1.017-.877-1.227-.05-3.512,1.316-4.179a6.066,6.066,0,0,1,1.956-.57.707.707,0,0,1,.662.11,8.619,8.619,0,0,0,1.287.549c.33.119.417-.028.4-.332-.014-.341-.015-.683,0-1.024.016-.4-.126-.541-.545-.489a3.073,3.073,0,0,1-1.7-.088,7.214,7.214,0,0,1-2.914-1.006l1.3-.546c.254-.339.7-.381,1-.644-.049-.139-.194-.153-.271-.244a9.777,9.777,0,0,1-4.4-7.584,11.068,11.068,0,0,1,2.375-8.458,6.108,6.108,0,0,1,2.6-1.955,9.877,9.877,0,0,1,9.4,1.953,11.233,11.233,0,0,1,2.145,2.478,1.3,1.3,0,0,1,.4.564,8.987,8.987,0,0,1-.857,9.5,16.183,16.183,0,0,1-5.34,4.946,1.049,1.049,0,0,0-.331.271.815.815,0,0,0-.092.523c-.005.883.022,1.767,0,2.649a.733.733,0,0,0,.578.832c.991.331,1.963.717,2.934,1.105a13.706,13.706,0,0,1,2.087,1.008,33.3,33.3,0,0,0,3.552,1.754,22.329,22.329,0,0,1,6.082,4.157,9.051,9.051,0,0,1,2.944,4.742,6.187,6.187,0,0,1-.041,2.681c-.112.466-.092.475.408.412a3.826,3.826,0,0,0,3.306-2.871,6.459,6.459,0,0,0-.115-4.652.673.673,0,0,1,.087-.75,29.006,29.006,0,0,0,3.031-5.411c.486-1,.9-2.045,1.288-3.092.157-.422.289-.852.42-1.283s-.016-.626-.429-.75a10.581,10.581,0,0,1-3.686-1.877,4.494,4.494,0,0,1-1.732-3.241c-.02-.261-.154-.648.322-.719a2.751,2.751,0,0,0,2.448,1.379,11.884,11.884,0,0,0,1.448,0,8.581,8.581,0,0,0,4.2-1.649c2.094-1.677,2.45-5.323.686-7.161a2.449,2.449,0,0,0-2.865-.561c-.381.168-.709.424-1.069.624-.113.063-.269.271-.4,0a5.964,5.964,0,0,1,5.18-3.474.538.538,0,0,1,.263-.034c1.446.071,2.885-.159,4.333-.11.488.017.5-.033.283-.477a3.607,3.607,0,0,1-.336-.958,4.884,4.884,0,0,1-.01-.9,6.532,6.532,0,0,1,1.885-3.613,3.094,3.094,0,0,1,.962-.676c.343-.2.467-.148.474.3a4.79,4.79,0,0,0,1.771,3.565,15.024,15.024,0,0,0,5.66,2.912,42.9,42.9,0,0,0,6.994,1.518,1.182,1.182,0,0,1,1.116.785,4.186,4.186,0,0,0,2.161,2.169,4.164,4.164,0,0,1,1.857,1.745.546.546,0,0,1,.031.594,4.992,4.992,0,0,1-.958,1.664c-.17.237-.433.073-.651.013-.579-.162-.619-.161-.583.411a1.754,1.754,0,0,1-.618,1.471,12.892,12.892,0,0,0-2.229,3.033,4.29,4.29,0,0,1-.249.417c-.132.181-.21.524-.469.44-.228-.073-.074-.386-.077-.59a1.2,1.2,0,0,0-1.1-1.3c-2.256-.473-3.426.853-4.22,2.591a1.474,1.474,0,0,0,.941,1.915,2.935,2.935,0,0,0,1.594.146,12.426,12.426,0,0,0,1.268-.266c.426-.106.518.125.452.473-.114.6-.126,1.211-.21,1.813a3.066,3.066,0,0,0,.034,1.013,20.168,20.168,0,0,0,.2,2.8.983.983,0,0,1,.012.216c-.011.142,0,.314-.149.38s-.264-.076-.354-.181a6.653,6.653,0,0,0-1.817-1.431,6.472,6.472,0,0,0-2.673-.8,2.94,2.94,0,0,0-2.993,1.974,7.6,7.6,0,0,0-.008,5.7,4.365,4.365,0,0,0,2.775,2.547,3.479,3.479,0,0,0,2.022.021,2.051,2.051,0,0,0,1.485-1.431c.046-.161.028-.4.261-.42.175-.017.283.142.377.273a7.13,7.13,0,0,1,1.522,3.639,5.045,5.045,0,0,1-1.228,3.858c-1.26,1.526-4,2.87-6.315,2.127-.264-.085-.357-.034-.381.236-.092,1.04-.185,2.079-.2,3.124a.851.851,0,0,0,.219.541,11.83,11.83,0,0,1,1.983,4.75c.608,2.618.887,5.294,1.353,7.937a24.761,24.761,0,0,0,2.063,6.86,1.6,1.6,0,0,1,.111.3c1.521,4.173,4.571,7.229,9.388,7.646a11.784,11.784,0,0,0,3.858-.217,5.515,5.515,0,0,0,4.426-4.375,9.22,9.22,0,0,0-.319-4.641,17.224,17.224,0,0,0-3.631-6.077,37.132,37.132,0,0,1-4.132-5.328,11.733,11.733,0,0,1-1.554-5,9.578,9.578,0,0,1,2.376-6.964,36.713,36.713,0,0,1,5.037-4.8,30.485,30.485,0,0,0,4.215-3.938,6.5,6.5,0,0,0,1.611-3.306c.325-2.791-1.038-5.241-3.957-5.746-.088-.015-.175-.042-.265-.05-.463-.017-.925-.008-1.387,0a5.828,5.828,0,0,0-4.427,2.661,2.2,2.2,0,0,0-.345.843c-.082.277-.142.559-.215.838-.046.179-.043.462-.277.458-.2,0-.194-.274-.228-.443a6.141,6.141,0,0,1,.424-3.9c.089-.2.185-.39.292-.578a8.758,8.758,0,0,1,4.99-3.724,2.925,2.925,0,0,1,1.1-.182,11.045,11.045,0,0,1,4.6.084,7.818,7.818,0,0,1,4.986,3.651c.073.122.156.238.234.356a3.364,3.364,0,0,1,.725,1.607,9.675,9.675,0,0,1,0,6,9.565,9.565,0,0,1-2.049,3.273,34.844,34.844,0,0,1-5.22,4.351,42.216,42.216,0,0,0-4.915,3.964,14.324,14.324,0,0,0-3.313,4.605c2.484-2.362,5.47-3.914,9.254-3.379a7.785,7.785,0,0,1,6.465,4.139,4.408,4.408,0,0,1,.679,3.085,8.309,8.309,0,0,1-2.739,5.515.72.72,0,0,1-.4.251,11.458,11.458,0,0,1-2.376,1.529c-.073-.226.106-.321.233-.439a4.785,4.785,0,0,0,1.42-5.308,4.683,4.683,0,0,0-4.124-3.33,4.886,4.886,0,0,0-5.4,4.1,3.228,3.228,0,0,0,.591,2.659c1.031,1.613,2.324,3.03,3.427,4.589a16.283,16.283,0,0,1,3.06,7.074,10.362,10.362,0,0,1-.042,3.756,7.1,7.1,0,0,1-4.423,5.158,13.272,13.272,0,0,1-4.723,1.025,20.034,20.034,0,0,1-8.7-1.523,14.091,14.091,0,0,1-4.412-2.884,14.415,14.415,0,0,0,1.855,4.222,19.421,19.421,0,0,0,3.419,3.876.241.241,0,0,1,.057.089,9.057,9.057,0,0,0,8.081,1.625c.62-.153,1.221-.381,1.877-.542a32.769,32.769,0,0,0-2.7,3.736,2.643,2.643,0,0,1-.316.792,23.15,23.15,0,0,0-3,9.625,31.614,31.614,0,0,0-.19,4.474c.047.972.12,1.942.083,2.914a8.825,8.825,0,0,1-.3,2.35,2.038,2.038,0,0,1-2.14,1.625,4.4,4.4,0,0,0-1.014.138,2.389,2.389,0,0,0-1.831,1.923c-.061.266-.023.592-.351.736a2.885,2.885,0,0,1-.9-2.362c.018-.441-.123-.577-.537-.546a10.926,10.926,0,0,0-1.44.05,3.445,3.445,0,0,0-3.1,2c-.158.34-.148.744-.4,1.05-.012.106-.025.212-.038.318-.062.1-.033.341-.266.168a1.222,1.222,0,0,1-.4-.623,3.69,3.69,0,0,1,.158-2.942c-1.143,0-2.225-.072-3.308.033a6.892,6.892,0,0,0-3.424,1.2,2.493,2.493,0,0,0-.727,1.679c-.03.291-.1.26-.236.064a4.2,4.2,0,0,1-.363-3.586c-.382-.168-.872.1-1.248-.207a.14.14,0,0,1-.035-.078,4.659,4.659,0,0,1,.337-2.475,4.9,4.9,0,0,1,3.223-2.824,15.066,15.066,0,0,1,3.761-.7c.359-.029.714-.089,1.073-.117.4,0,.795,0,1.191,0,.667.012,1.324-.148,1.993-.113a.661.661,0,0,0,.6-.305c1.854-2.781,3.329-5.708,3.258-9.162a7.075,7.075,0,0,0-1.708-4.4,1.128,1.128,0,0,0-.994-.429,11.173,11.173,0,0,1-3.472-.416,5.654,5.654,0,0,1-4.5-4.571c-.094-.5-.45-.552-.829-.606a13.264,13.264,0,0,0-3.979.027,13.459,13.459,0,0,0-6.968,2.82,5.011,5.011,0,0,0-1.507,1.812,3.035,3.035,0,0,0,.531,3.455,6.35,6.35,0,0,0,1.744,1.348,1,1,0,0,1,.418.331,16.654,16.654,0,0,0,3.943,1.318,20.986,20.986,0,0,0-2.527.636.929.929,0,0,1-.5.3,19.8,19.8,0,0,0-2.024.89,8.042,8.042,0,0,0-4.077,5.5q-.3,1.233-.615,2.463a5.618,5.618,0,0,1-4.449,4.418c-.474.108-.95.2-1.42.327a2.87,2.87,0,0,0-2.293,2.435,2.484,2.484,0,0,0-.061.642c-.009.143,0,.324-.146.382-.182.073-.292-.1-.386-.221a5.5,5.5,0,0,1-1.2-2.845c-.041-.45-.19-.6-.622-.559a9.225,9.225,0,0,1-.971,0,4.241,4.241,0,0,0-4.131,2.578,1.152,1.152,0,0,1-.25.411,2.975,2.975,0,0,0-.23,1.078c-.081.128,0,.286-.1.447a.757.757,0,0,1-.494-.487,3.626,3.626,0,0,1,.01-3.737c.2-.32.11-.408-.224-.4a12.15,12.15,0,0,0-1.877.063,9.11,9.11,0,0,0-2.733.426c-.456.172-.815.513-1.281.651a2.523,2.523,0,0,0-.772,2.01c0,.194.008.389.012.584-.331-.027-.354-.321-.443-.538a4.09,4.09,0,0,1,.313-4.21,4.458,4.458,0,0,0-1.267-.062c-.427.007-.624-.164-.647-.59-.142-2.575.981-4.72,3.62-5.21.584-.109,1.172-.182,1.764-.236.935,0,1.87,0,2.8,0a21.315,21.315,0,0,1,2.315.128,8.223,8.223,0,0,0,6.169-2.532,14.183,14.183,0,0,0,4.27-8.585c.077-.536.095-1.074.127-1.612a1.042,1.042,0,0,0-.65-1.111,6.5,6.5,0,0,1-1.467-1.092,5.744,5.744,0,0,1-.462-7.667,12.754,12.754,0,0,1,3.483-2.95,55.108,55.108,0,0,1,7.031-3.437,52.783,52.783,0,0,0,7.1-3.424,9.566,9.566,0,0,0,2.549-2.141,4.232,4.232,0,0,0-1.862-6.7,6.042,6.042,0,0,0-.986-.281c-.292-.055-.431.01-.269.333a6.471,6.471,0,0,1,.537,1.694,3.414,3.414,0,0,1-1.737,3.891,7.423,7.423,0,0,1-4.125.792c-.46-.328-.592-.881-.9-1.317-.153-.219-.285-.454-.42-.686-.646-1.1-1.3-2.2-1.943-3.309-.323-.559-.363-.566-.805-.111a40.462,40.462,0,0,1-5.189,4.642,25.025,25.025,0,0,1-7.124,3.79c-.7.222-.71.228-1.158-.382a3.354,3.354,0,0,0-1.931-1.217,7.169,7.169,0,0,0-6.775,1.536,4.339,4.339,0,0,0-1.671,3.493c-.071.414-.287.384-.493.123a3.613,3.613,0,0,1-.961-2.507c.041-.649-.016-.714-.639-.906-1.074-.331-1.323-.105-1.07,1a3.34,3.34,0,0,0,1.27,2.006,1.038,1.038,0,0,1,.483.56,4.47,4.47,0,0,1,.038.862q0,6.046,0,12.092c0,.726-.039.881.775.863.423-.009.622.214.625.633.008,1.133.021,2.267-.006,3.4-.012.516-.181.667-.692.7-.356.026-.713.005-1.081.006a3.476,3.476,0,0,1,1.589,3.657,3.7,3.7,0,0,1-3.136,2.812A1.292,1.292,0,0,1,1612.613,719.254Z" transform="translate(-1535.618 -569.133)" fill="#003980"/>
    <path id="Path_13818" data-name="Path 13818" d="M1695.019,1031.2a10.579,10.579,0,0,0,3.129-.422,3.478,3.478,0,0,0,2.546-4.553,7.133,7.133,0,0,0-.716-1.761,1.349,1.349,0,0,1,1.006.039,4.494,4.494,0,0,1,3.64,4.472,4.635,4.635,0,0,1-1.789,3.491,24.308,24.308,0,0,1-6.474,3.713,93.262,93.262,0,0,0-8.932,4.171,12.394,12.394,0,0,0-4.082,3.382,5.543,5.543,0,0,0,1.848,8.323,1.436,1.436,0,0,1,.857,1.543,15.07,15.07,0,0,1-3.2,8.745,10.28,10.28,0,0,1-4.995,3.605,8.874,8.874,0,0,1-3.519.238c-.393-.035-.789-.047-1.184-.069a22.081,22.081,0,0,0-3.006,0,15.5,15.5,0,0,0-2.265.4,4.01,4.01,0,0,0-2.821,3.406,12.339,12.339,0,0,0-.124,1.5c-.023.37.121.464.463.45.538-.023,1.078-.006,1.706-.006-1.348,1.637-1.139,3.292-.226,4.967-.13.159-.134.166-.291.06a4.1,4.1,0,0,1-1.852-3.077,4.334,4.334,0,0,1,.075-1.607,1.371,1.371,0,0,0-.13-.836,5.973,5.973,0,0,1-.291-3.227,4.393,4.393,0,0,1,1.2-2.128,1.838,1.838,0,0,1,.91-.8,8.339,8.339,0,0,1,3.216-1.011,20.876,20.876,0,0,1,5.22.025,5.1,5.1,0,0,0,3.692-.66,6.426,6.426,0,0,0,1.9-2.181,14.227,14.227,0,0,0,1.467-4.78,16.24,16.24,0,0,0,.231-2.9.821.821,0,0,0-.5-.812,7.341,7.341,0,0,1-1.576-1.038,5.034,5.034,0,0,1-1.535-5.585,14.04,14.04,0,0,1,2.9-5.141,35.8,35.8,0,0,1,11.926-9.389A3.613,3.613,0,0,1,1695.019,1031.2Z" transform="translate(-1585.897 -912.784)" fill="#4e68a7"/>
    <path id="Path_13819" data-name="Path 13819" d="M1661.918,1069.451a12.362,12.362,0,0,0-2.411.639,6.953,6.953,0,0,0-1.72,1.06,3.954,3.954,0,0,1-2.423-2.028,2.95,2.95,0,0,1-.275-1.077,3.92,3.92,0,0,0,2.726-.805,3.3,3.3,0,0,0-.172-5.325c-.158-.111-.325-.209-.627-.4.684,0,1.227-.011,1.77,0,.3.009.41-.089.405-.4q-.024-1.808-.005-3.617c0-.3-.075-.4-.389-.4-.982-.016-.982-.03-.982-1.028v-13.01c.393-.231.741.055,1.1.12.4.072.38-.084.3-.354a4.394,4.394,0,0,1,1.762-3.606,7.3,7.3,0,0,1,6.722-1.555,3.539,3.539,0,0,1,2.3,1.573c.153.251.294.222.526.154a22.3,22.3,0,0,0,6.268-3.077,37.016,37.016,0,0,0,6.511-5.656c.32-.348.426-.269.625.084.687,1.221,1.4,2.427,2.1,3.64a1.021,1.021,0,0,1-.369.52,36.635,36.635,0,0,1-8.62,6.45,16.348,16.348,0,0,1-3.205,1.284.676.676,0,0,1-.82-.206c-1.151-1.536-2.8-1.807-4.546-1.69a6.883,6.883,0,0,0-3.942,1.472,4.514,4.514,0,0,0-2.007,3.964c.032.432-.238.461-.564.414-.883-.126-.883-.125-.883.786q0,5.972,0,11.943c0,.736,0,.736.733.777.554.031.66.124.667.684q.022,1.675,0,3.35c-.007.567-.113.673-.659.687a6.716,6.716,0,0,1-1.212-.024c-.024-.013-.029.006-.019.012A3.3,3.3,0,0,1,1661.918,1069.451Z" transform="translate(-1578.095 -917.926)" fill="#c8c9ca"/>
    <path id="Path_13820" data-name="Path 13820" d="M1610.475,871.882a2.426,2.426,0,0,1,2.376,2.158,1.206,1.206,0,0,0-.036.48q0,8.744,0,17.488c0,.17-.077.36.077.51.622.061,1.247.1,1.863.192.438.069.6-.014.6-.5q-.023-9.278,0-18.557c0-.2-.106-.432.113-.594a1.318,1.318,0,0,1,.166.933q.005,8.826,0,17.652c0,1,.113,1.08,1.095.747a17.164,17.164,0,0,0,1.67-.755,17.453,17.453,0,0,0,3.308-2.131,55.933,55.933,0,0,1,5.7-3.906c1.982-1.141,3.966-2.279,5.986-3.353.477-.254.961-.492,1.433-.754a8.752,8.752,0,0,0,2.972.634c1.244.132,2.5.18,3.877.274-.842.525-1.591,1-2.344,1.459-4.687,2.878-9.436,5.651-14.379,8.07a32.147,32.147,0,0,1-7.2,2.8c-.3.064-.6.1-.894.155a15.589,15.589,0,0,0-2.467,0,22.282,22.282,0,0,0-4.245.565c-.618.2-1.249.4-1.471,1.118-.037.121-.12.147-.233.181a5.148,5.148,0,0,0-3.221,3.17c-.042.1-.03.217-.14.278a6.13,6.13,0,0,1,.551-3.047,2.321,2.321,0,0,1,2.006-1.507c.23-.013.295-.158.38-.32a5.46,5.46,0,0,1,2.2-2.247.679.679,0,0,0,.382-.687q-.014-9.971-.008-19.942C1610.587,872.252,1610.634,872.046,1610.475,871.882Z" transform="translate(-1535.655 -783.401)" fill="#4e68a7"/>
    <path id="Path_13821" data-name="Path 13821" d="M2002.362,1012.3a14.294,14.294,0,0,1-4.2-4.929,11.612,11.612,0,0,1-1.238-3.091c-.035-.149-.046-.3-.069-.465,4,3.694,8.786,4.851,14.03,4.527a11.435,11.435,0,0,0,4.106-1.048,7.27,7.27,0,0,0,4.327-7.563,17.3,17.3,0,0,0-4.131-9.433,37.042,37.042,0,0,1-2.486-3.329,3.273,3.273,0,0,1-.582-2.71,3.316,3.316,0,0,1,3.83-2.154,5.155,5.155,0,0,1,3.684,2.744c.113.213.277.435.132.705a3.446,3.446,0,0,0-4.148,1.276c-.831,1.122-.455,2.18.176,3.206.922,1.5,2.108,2.814,3.149,4.23a17.131,17.131,0,0,1,3.27,6.848,9.132,9.132,0,0,1-.533,6.044,7.2,7.2,0,0,1-4.032,3.476,13.88,13.88,0,0,1-4.516.887,19.365,19.365,0,0,1-9.762-2.119,13,13,0,0,1-3.378-2.513,6.512,6.512,0,0,0,.517,1.948A20.313,20.313,0,0,0,2002.362,1012.3Z" transform="translate(-1868.071 -876.857)" fill="#c8c9ca"/>
    <path id="Path_13822" data-name="Path 13822" d="M1979.2,1234.371a3.394,3.394,0,0,1,3.433-3.156,2.14,2.14,0,0,1,.48-.034c.376-.058.507.115.538.474a2.668,2.668,0,0,0,1.432,2.153,2.267,2.267,0,0,1,.479.345c.236-.087.142-.31.169-.465a2.552,2.552,0,0,1,2.7-2.417c1.962.016,2.388-1.133,2.541-2.545a34.147,34.147,0,0,0,.031-4.32,27.624,27.624,0,0,1,2.021-11.766,18.976,18.976,0,0,1,1.615-3.036.25.25,0,0,0,.26.218,10.917,10.917,0,0,0,3.357-.175,16.594,16.594,0,0,0,2.362-.746c-.608.721-1.19,1.452-1.748,2.2a22.918,22.918,0,0,0-4.113,9.1,27.4,27.4,0,0,0-.56,4.578,24.506,24.506,0,0,0-.07,3.012,23.923,23.923,0,0,1,.074,2.745,9.484,9.484,0,0,1-.293,2.338,1.891,1.891,0,0,1-1.918,1.492,3.079,3.079,0,0,0-2.44.914,2.434,2.434,0,0,0-.639,1.39c-.082.731-.147.761-.778.384a2.772,2.772,0,0,1-1.481-2.3c-.018-.3-.117-.39-.415-.4a3.463,3.463,0,0,0-3.912,3.441c-.035.445-.229.368-.481.218a3.107,3.107,0,0,1-1.457-2.448,1.894,1.894,0,0,1-.036-.9c.043-.123.012-.279-.155-.287C1979.861,1234.368,1979.531,1234.136,1979.2,1234.371Z" transform="translate(-1853.086 -1069.346)" fill="#c8c9ca"/>
    <path id="Path_13823" data-name="Path 13823" d="M1918.92,1196.805a32.385,32.385,0,0,0-4.269.676,4.943,4.943,0,0,0-3.771,3.311,17.273,17.273,0,0,0-.325,2,3.58,3.58,0,0,1-.243-3.591,5.324,5.324,0,0,1,3.461-3.028,14.608,14.608,0,0,1,5.428-.675,2.366,2.366,0,0,0,2.732-1.764,9.821,9.821,0,0,0,.539-5.345,1.275,1.275,0,0,1-.212-.6,6.642,6.642,0,0,0-.436-1.329,1.22,1.22,0,0,0-1.1-.772,7.842,7.842,0,0,1-4.508-1.859,21,21,0,0,1-3.875-4,7.447,7.447,0,0,1-1.268-1.786,9.068,9.068,0,0,1-.51-.888c-.091-.163-.235-.335-.089-.544a9.372,9.372,0,0,1,3.184-.183c.444.035.883.121,1.327.17a.46.46,0,0,1,.463.433c.386,2.746,2.18,4.109,4.691,4.749a10.959,10.959,0,0,0,3.3.329.982.982,0,0,1,.884.39,7.648,7.648,0,0,1,1.759,6,17.988,17.988,0,0,1-3.17,7.783.88.88,0,0,1-.838.449c-.627-.009-1.254.047-1.88.075A4.346,4.346,0,0,0,1918.92,1196.805Z" transform="translate(-1794.33 -1041.745)" fill="#4e68a7"/>
    <path id="Path_13824" data-name="Path 13824" d="M1782.253,1272.131a3.027,3.027,0,0,1,2.49-2.573c.4-.108.809-.162,1.212-.252a5.477,5.477,0,0,0,4.421-4.277c.246-.973.49-1.948.742-2.92a8.119,8.119,0,0,1,4.911-5.633c.557-.242,1.139-.429,1.708-.642.156.487.629.625,1,.836a13.431,13.431,0,0,0,4.181,1.517.5.5,0,0,1,.35.165,24.061,24.061,0,0,0-4.278,1.348,8.315,8.315,0,0,0-4.826,5.832,33.434,33.434,0,0,1-.989,3.628,5.15,5.15,0,0,1-3.733,3.185c-.655.181-1.328.3-1.979.5a2.928,2.928,0,0,0-2.066,3.378,2.086,2.086,0,0,1-.014.338,4.956,4.956,0,0,1-3.212-3.143C1782.278,1272.993,1782.166,1272.556,1782.253,1272.131Z" transform="translate(-1685.92 -1109.165)" fill="#c8c9ca"/>
    <path id="Path_13825" data-name="Path 13825" d="M1746.151,733.858c-.447.556-.142,1.133.007,1.669a5.2,5.2,0,0,0,2.791,3.06,9.63,9.63,0,0,0,2.487,1.009c.476.113.521.334.407.767a24.743,24.743,0,0,1-1.3,3.525,29.114,29.114,0,0,1-2.939,5.619,2.412,2.412,0,0,0-.359,2.324,5.862,5.862,0,0,1-1.341,5.8,4.1,4.1,0,0,1-2.632,1.082c-.271.033-.336-.056-.254-.337.742-2.557-.137-4.693-1.792-6.592a23.988,23.988,0,0,0-6.477-4.948c-.169-.1-.376-.136-.481-.326,1.369.364,2.724.781,4.125,1.02a49.7,49.7,0,0,0,5.3.585.936.936,0,0,0,.843-.345,18.642,18.642,0,0,0,3.625-6.868c.11-.348-.131-.351-.307-.436a5.03,5.03,0,0,1-2.659-5.649,2.915,2.915,0,0,1,.793-1.4Z" transform="translate(-1645.271 -665.927)" fill="#4e68a7"/>
    <path id="Path_13826" data-name="Path 13826" d="M2085.421,819.407a11.338,11.338,0,0,0-5.223.821,10.776,10.776,0,0,0-4.2,3.031c-.042.051-.1.091-.25.23a12.284,12.284,0,0,1,1.674-3.132,26.3,26.3,0,0,1,5.847-5.479,57.5,57.5,0,0,0,5.473-4.3,9.329,9.329,0,0,0,3.123-5.231,10.6,10.6,0,0,0-.771-5.963c-.056-.131-.1-.266-.152-.4a6.653,6.653,0,0,1,3,2.982,10.718,10.718,0,0,1,1.14,4.117,8.291,8.291,0,0,1-.582,4.1,9.287,9.287,0,0,1-1.606,2.476c-1.757,2.058-4.037,3.488-6.146,5.124-.622.482-1.262.944-1.934,1.446C2085.015,819.383,2085.272,819.237,2085.421,819.407Z" transform="translate(-1935.002 -721.553)" fill="#c8c9ca"/>
    <path id="Path_13827" data-name="Path 13827" d="M1673.307,682.159a16.37,16.37,0,0,0,5.651-5.073,8.92,8.92,0,0,0,.816-9.62c-.069-.145-.135-.291-.2-.436a6.273,6.273,0,0,1,1.988,1.607,9.266,9.266,0,0,1,2.325,5.235,8.361,8.361,0,0,1-1.154,5.39,16.023,16.023,0,0,1-5.8,5.732,1.024,1.024,0,0,0-.583,1.172c-.269.058-.44-.128-.62-.265a10.367,10.367,0,0,0-2.054-1.293.609.609,0,0,1-.411-.673C1673.306,683.344,1673.217,682.749,1673.307,682.159Z" transform="translate(-1593.51 -609.593)" fill="#c8c9ca"/>
    <path id="Path_13828" data-name="Path 13828" d="M1986.074,719.789a4.615,4.615,0,0,1-2.587.212,1.672,1.672,0,0,1-1.133-2.548,9.237,9.237,0,0,1,.708-1.081,3.333,3.333,0,0,1,3.913-1.122,1.048,1.048,0,0,1,.8,1.028c.019.268,0,.537,0,.81a5.231,5.231,0,0,0,.7-1.1,11.368,11.368,0,0,1,2.026-2.713,1.828,1.828,0,0,0,.636-1.7c-.07-.606,0-.66.541-.385.561.283.858.146,1.115-.393a9.468,9.468,0,0,1,.7-1.081,16.132,16.132,0,0,0,1.587,1.008,3.914,3.914,0,0,1,1.491,1.51.532.532,0,0,1,0,.686,6.182,6.182,0,0,0-.4.635,3.017,3.017,0,0,1-.592.887c-.309.221-.659-.124-.992-.205-.231-.057-.3,0-.294.218a1.232,1.232,0,0,0,0,.162,1.764,1.764,0,0,1-.747,1.871.494.494,0,0,0-.231.462c-.134.19-.319.114-.492.094a4.895,4.895,0,0,1-2.222-.769c-.308-.206-.517-.184-.711.128a2.466,2.466,0,0,1-.292.387c-.36.38-.527.764-.1,1.211a.247.247,0,0,1,.038.3.665.665,0,0,1-.514.081,2.652,2.652,0,0,0-2.364.856C1986.468,719.429,1986.275,719.611,1986.074,719.789Z" transform="translate(-1855.547 -645.808)" fill="#c8c9ca"/>
    <path id="Path_13829" data-name="Path 13829" d="M1632.219,1074.368a3.905,3.905,0,0,1,2.2.1c.36.123.3.318.127.569a6.643,6.643,0,0,0-.888,3.04,6.85,6.85,0,0,1,1.236-1.325c.289-.2.588-.435.989-.292a1.783,1.783,0,0,0-.033.588q0,8.881,0,17.761a1.314,1.314,0,0,1-.045.585,4.625,4.625,0,0,1-2.331.839,3.756,3.756,0,0,1-1.225.12c-.006-.558,0-1.117-.025-1.673-.016-.324.121-.383.41-.388.993-.019.993-.03.993-1.032q0-7.157,0-14.313a1.553,1.553,0,0,0-.276-.946,6.107,6.107,0,0,1-.915-3.117C1632.422,1074.7,1632.566,1074.421,1632.219,1074.368Z" transform="translate(-1558.689 -955.104)" fill="#4e68a7"/>
    <path id="Path_13830" data-name="Path 13830" d="M1863.554,1177.93a17.916,17.916,0,0,0,1.538,2.673c.113.179.22.363.33.544a18.216,18.216,0,0,0-4.1,1.625,9.037,9.037,0,0,0-2.674,2.139,3.869,3.869,0,0,0-.835,2.87,5.724,5.724,0,0,1-2.518-1.87,3.213,3.213,0,0,1,.069-3.955,8.637,8.637,0,0,1,3.276-2.573A11.459,11.459,0,0,1,1863.554,1177.93Z" transform="translate(-1747.414 -1043.067)" fill="#c8c9ca"/>
    <path id="Path_13831" data-name="Path 13831" d="M2164.734,969.9a11.09,11.09,0,0,0,2.14-2.758,7.049,7.049,0,0,0,.324-6.094,6.278,6.278,0,0,1,3.6,4.911,7.569,7.569,0,0,1-2.257,6.364,10.561,10.561,0,0,1-3.29,2.4,1.732,1.732,0,0,1-.739.219A4.572,4.572,0,0,0,2164.734,969.9Z" transform="translate(-2010.313 -859.051)" fill="#c8c9ca"/>
    <path id="Path_13832" data-name="Path 13832" d="M2105.228,973.909a4.82,4.82,0,0,0-3.954-3.323,3.4,3.4,0,0,0-3.692,2.028,3.949,3.949,0,0,1,.915-2.257,4.82,4.82,0,0,1,4.03-2.043,4.873,4.873,0,0,1,4.586,2.863,4.971,4.971,0,0,1-.5,5.334c-.293.417-.722.693-1.037,1.083-.246.261-.6.262-.945.4A4.788,4.788,0,0,0,2105.228,973.909Z" transform="translate(-1953.528 -865.218)" fill="#4e68a7"/>
    <path id="Path_13833" data-name="Path 13833" d="M1598.508,637.787a13.658,13.658,0,0,0-2.047,1.555,10.076,10.076,0,0,0-2.693,5.58,11.788,11.788,0,0,0,.834,6.732,9.05,9.05,0,0,0,3.052,3.759c.14.1.333.144.391.339a2.816,2.816,0,0,1-1.849-.658,2.017,2.017,0,0,1-.283-.242,10.29,10.29,0,0,1-3.564-3.825,9.245,9.245,0,0,1,4.1-12.486A5.538,5.538,0,0,1,1598.508,637.787Z" transform="translate(-1523.994 -584.782)" fill="#4e68a7"/>
    <path id="Path_13834" data-name="Path 13834" d="M1732.157,1348.787a4.242,4.242,0,0,1,4.316-3.118.8.8,0,0,1,.225.529,3.789,3.789,0,0,0,1.542,2.415c.13.1.339.156.291.393a4.259,4.259,0,0,0-3.458,4.054c0,.15.079.349-.1.442s-.31-.049-.439-.135a4.563,4.563,0,0,1-2.057-3.769C1732.461,1349.3,1732.608,1348.919,1732.157,1348.787Z" transform="translate(-1643.483 -1185.386)" fill="#c8c9ca"/>
    <path id="Path_13835" data-name="Path 13835" d="M2028.7,744.412c-.6-.8-.6-.8.007-1.631.559-.766.555-.759,1.359-.317a5.143,5.143,0,0,0,2.4.633c2.147.037,3.953-.585,5.051-2.562.563,1.847-.968,4.241-3.43,5.306a1.555,1.555,0,0,1-1.144.351,8.35,8.35,0,0,1-1.123-.015,5.715,5.715,0,0,1-2.376-.954A1.553,1.553,0,0,1,2028.7,744.412Z" transform="translate(-1894.705 -671.958)" fill="#e4001b"/>
    <path id="Path_13836" data-name="Path 13836" d="M1931.167,1357.242a4.8,4.8,0,0,1,3.359-1.3c.536-.082,1.075-.009,1.611-.038.267-.015.336.147.374.359.072.407.109.819.192,1.224a3.064,3.064,0,0,0,.426,1.1c.1.147.218.3.131.494a10.251,10.251,0,0,0-2.008.574,2.97,2.97,0,0,0-1.711,2.669,4.4,4.4,0,0,1-1.782-3.23A7.3,7.3,0,0,0,1931.167,1357.242Z" transform="translate(-1812.333 -1194.064)" fill="#c8c9ca"/>
    <path id="Path_13837" data-name="Path 13837" d="M1686.44,1346.715a4.617,4.617,0,0,1,3.042-1.164c.32-.036.646-.015.969-.02a.9.9,0,0,1,.231.638,5.8,5.8,0,0,0,.585,2.315.415.415,0,0,1,.042.407,3.735,3.735,0,0,0-1.878,1.09,2.716,2.716,0,0,0-.607,2.007c.019.194,0,.391,0,.65a3.56,3.56,0,0,1-1.849-2.034,4.533,4.533,0,0,1-.229-2.687A1.377,1.377,0,0,0,1686.44,1346.715Z" transform="translate(-1604.694 -1185.268)" fill="#c8c9ca"/>
    <path id="Path_13838" data-name="Path 13838" d="M1838.956,682.008c.23.081.342-.119.481-.221,2.158-1.59,4.249-.659,4.923,1.8a5.537,5.537,0,0,1-4.368,6.963,4.091,4.091,0,0,1-1.584.209,6.6,6.6,0,0,0,2.5-1.067,4.872,4.872,0,0,0,1.781-4.688,3.255,3.255,0,0,0-3.49-2.571c-.134,0-.315.1-.393-.057C1838.734,682.238,1838.846,682.107,1838.956,682.008Z" transform="translate(-1733.631 -621.447)" fill="#4e68a7"/>
    <path id="Path_13839" data-name="Path 13839" d="M1636.022,1237.225c.114.13.266.08.405.083a2.231,2.231,0,0,1,2.276,2,2.317,2.317,0,0,1-1.488,2.323,2.229,2.229,0,0,1-2.72-1.04,1.364,1.364,0,0,0-.094-.125A3.278,3.278,0,0,1,1636.022,1237.225Z" transform="translate(-1560.524 -1093.376)" fill="#4e68a7"/>
    <path id="Path_13840" data-name="Path 13840" d="M2048.334,763.446a6.739,6.739,0,0,0,2.369-.206c.27.463.781.356,1.157.383a5.575,5.575,0,0,0,4.739-1.569,2.831,2.831,0,0,0,.638-1.013,1.016,1.016,0,0,1,.13.8c-.041.28-.244.6.071.861a10.253,10.253,0,0,0-4.6,2.292,10.473,10.473,0,0,0-1.345,1.593.5.5,0,0,1-.463.02,5.155,5.155,0,0,1-2.907-1.888C2047.684,764.13,2047.732,763.9,2048.334,763.446Z" transform="translate(-1911.319 -689.357)" fill="#c8c9ca"/>
    <path id="Path_13841" data-name="Path 13841" d="M1880.859,625.216a5.378,5.378,0,0,0,.668,1.39c.215.275-.119.234-.259.235q-1.885.017-3.769.015c-.43,0-.86-.016-1.289-.025.754-.2,1.53.014,2.333-.118a2.725,2.725,0,0,1,.447-3.249,10.64,10.64,0,0,1,4.39-3.364.971.971,0,0,1,.208-.038,7.027,7.027,0,0,0-2.438,3.241c-.112.316-.2.642-.293.964A2.365,2.365,0,0,0,1880.859,625.216Z" transform="translate(-1765.706 -569.745)" fill="#4e68a7"/>
    <path id="Path_13842" data-name="Path 13842" d="M1951.287,1225.571a11.2,11.2,0,0,0,3.571,1.578,4.294,4.294,0,0,0,1.06.152.932.932,0,0,1,.974.585,5.387,5.387,0,0,1,.655,2.249,8.151,8.151,0,0,1-3-1.4A13.843,13.843,0,0,1,1951.287,1225.571Z" transform="translate(-1829.404 -1083.489)" fill="#c8c9ca"/>
    <path id="Path_13843" data-name="Path 13843" d="M1672.982,766.863q0,.884-.01,1.768c0,.183,0,.352.21.441a14.693,14.693,0,0,1,2.839,1.8,27.626,27.626,0,0,0,2.6,2.258c-1.126-.452-2.25-.913-3.381-1.354-.667-.26-1.346-.489-2.02-.732-.187-.067-.354-.121-.351-.392.013-1.2,0-2.41.008-3.615C1672.883,766.978,1672.947,766.921,1672.982,766.863Z" transform="translate(-1593.185 -694.297)" fill="#4e68a7"/>
    <path id="Path_13844" data-name="Path 13844" d="M1713.767,1348.335a7.444,7.444,0,0,1-.858-3.359,14.3,14.3,0,0,1,2.643-.078c-1.306,1.611-1.069,3.128-.125,4.7.071-.172.12-.292.169-.411.023.176.092.4-.055.5s-.334-.064-.488-.149A4.883,4.883,0,0,1,1713.767,1348.335Z" transform="translate(-1627.152 -1184.712)" fill="#4e68a7"/>
    <path id="Path_13845" data-name="Path 13845" d="M1615.946,1054.407a3.251,3.251,0,0,1,1.278.083c.642.163.673.223.242.717a9.623,9.623,0,0,0-1.715,2.653,2.265,2.265,0,0,0-.21,1.094c-.22-.1-.235-.107-.314-.339a4.23,4.23,0,0,1,.4-3.714C1615.725,1054.734,1615.838,1054.572,1615.946,1054.407Z" transform="translate(-1544.056 -938.239)" fill="#4e68a7"/>
    <path id="Path_13846" data-name="Path 13846" d="M1762.692,1348.9a4.236,4.236,0,0,1-2.057-3.337c.52-.006,1.039-.016,1.56-.018.142,0,.312-.012.27.217a3.952,3.952,0,0,0,.646,2.48,9.937,9.937,0,0,0,.713,1.08c.153-.393-.062-.771.156-1.076-.052.427.15.87-.08,1.284Z" transform="translate(-1667.646 -1185.281)" fill="#4e68a7"/>
    <path id="Path_13847" data-name="Path 13847" d="M1640.153,771.9a11.488,11.488,0,0,0,1.982-.112c.281-.076.426.049.414.372-.021.539-.027,1.08,0,1.618.02.355-.166.342-.387.27a7.589,7.589,0,0,1-1.634-.679,1.092,1.092,0,0,0-.49-.195C1640.446,772.779,1640.272,772.336,1640.153,771.9Z" transform="translate(-1565.327 -698.455)" fill="#4e68a7"/>
    <path id="Path_13848" data-name="Path 13848" d="M1956.069,1358.679a4.513,4.513,0,0,1-.862-2.754c-.009-.33-.158-.381-.427-.377-.481.007-.962,0-1.444-.007a3.7,3.7,0,0,1,1.376-.093c.734-.016,1.467,0,2.325,0a2.945,2.945,0,0,0-.552,2.138,3.061,3.061,0,0,0,.481,1.454c.137.21.176.046.252-.024.051.248.012.391-.288.266A4.755,4.755,0,0,1,1956.069,1358.679Z" transform="translate(-1831.143 -1193.668)" fill="#4e68a7"/>
    <path id="Path_13849" data-name="Path 13849" d="M1914.161,1351.238h1.565a4.56,4.56,0,0,0,.046,3.794A4.491,4.491,0,0,1,1914.161,1351.238Z" transform="translate(-1797.901 -1190.111)" fill="#4f69a8"/>
    <path id="Path_13850" data-name="Path 13850" d="M1621.609,750.379a9.25,9.25,0,0,0,2.132.9c.108.155.36.041.46.284l-1.3.638C1622.578,751.516,1621.927,751.065,1621.609,750.379Z" transform="translate(-1549.688 -680.311)" fill="#c5c8ca"/>
    <path id="Path_13851" data-name="Path 13851" d="M2226.844,548.236l-2.773-2.41,4.415-2.3C2227.921,545.147,2227.394,546.66,2226.844,548.236Z" transform="translate(-2060.848 -504.808)" fill="#d68f16"/>
    <path id="Path_13852" data-name="Path 13852" d="M1800.495,1587.711c.275.887.494,1.641.745,2.385.1.287.077.416-.256.346a17.248,17.248,0,0,1-1.723-.185Z" transform="translate(-1700.417 -1390.747)" fill="#d79017"/>
    <path id="Path_13853" data-name="Path 13853" d="M1720.107,1589.442c-.371,0-.834-.167-1.312-.234-.267-.037-.271-.192-.232-.381.212-1.017.434-2.033.641-3.05.045-.224.141-.245.339-.189.258.073.526.108.79.161a1.955,1.955,0,0,1,1.225,3.16A1.483,1.483,0,0,1,1720.107,1589.442Z" transform="translate(-1631.934 -1388.924)" fill="#d68f16"/>
    <path id="Path_13854" data-name="Path 13854" d="M1726.363,1560.538a3.077,3.077,0,0,1-1.243-.284c-.377-.29.035-.776.082-1.175.067-.566.218-1.123.335-1.683.044-.21.1-.337.392-.266a4.2,4.2,0,0,1,1.456.511,1.407,1.407,0,0,1,.587,1.509,1.45,1.45,0,0,1-1.079,1.329A4.272,4.272,0,0,1,1726.363,1560.538Z" transform="translate(-1637.379 -1364.783)" fill="#d68f16"/>
    <path id="Path_13855" data-name="Path 13855" d="M2284.009,1425.232a1.968,1.968,0,0,1-.7,1.511c-.862.9-.864.9-1.716.021-.5-.517-.989-1.048-1.5-1.552-.2-.2-.2-.322.012-.5.345-.288.648-.627,1.007-.894a1.5,1.5,0,0,1,1.725-.05A2.018,2.018,0,0,1,2284.009,1425.232Z" transform="translate(-2108.254 -1251.439)" fill="#d68f16"/>
    <path id="Path_13856" data-name="Path 13856" d="M2261.406,1403.879a1.76,1.76,0,0,1,1.474,1.026,1.311,1.311,0,0,1-.176,1.505c-.837,1.156-.934,1.166-1.909.156q-.58-.6-1.152-1.208c-.088-.094-.28-.193-.117-.347C2260.068,1404.5,2260.564,1403.9,2261.406,1403.879Z" transform="translate(-2090.876 -1234.775)" fill="#d68f16"/>
    <path id="Path_13857" data-name="Path 13857" d="M1563.548,1513.037a2.227,2.227,0,0,1-2.288-2.4,7.43,7.43,0,0,1,2.6-5.222,2.143,2.143,0,0,1,2.649-.289,2.3,2.3,0,0,1,1.116,2.44,8.086,8.086,0,0,1-2.193,4.536A2.586,2.586,0,0,1,1563.548,1513.037Z" transform="translate(-1498.48 -1320.399)" fill="#d68f16"/>
    <path id="Path_13858" data-name="Path 13858" d="M1486.744,1460.293a3.865,3.865,0,0,1-.329,1.418,8.3,8.3,0,0,1-2.713,3.561,2.338,2.338,0,0,1-3.309-.159,2.208,2.208,0,0,1-.473-2.221,7.6,7.6,0,0,1,3.237-4.494,2.243,2.243,0,0,1,3.471,1.154A5.115,5.115,0,0,1,1486.744,1460.293Z" transform="translate(-1429.379 -1280.677)" fill="#d68f16"/>
    <path id="Path_13859" data-name="Path 13859" d="M1986.141,767.365c-.47.84-.453.865.236,1.591a5.5,5.5,0,0,0,2.927,1.549,6.456,6.456,0,0,0-.622,4.911c.127-.469.249-.915.369-1.362a3.847,3.847,0,0,1,4.208-2.28.68.68,0,0,1,.479.215c.1.227-.04.385-.179.524a6.269,6.269,0,0,0-1.731,5.454.95.95,0,0,1,0,.309,3.821,3.821,0,0,1,4.251-3.333c.27.124.241.375.253.605a4.561,4.561,0,0,1-.919,2.772,13.654,13.654,0,0,1-2.459,2.643c-1.885,1.672-3.913,3.184-5.678,4.989a14.164,14.164,0,0,0-3.307,4.888,10.467,10.467,0,0,0-.553,4.675,13.8,13.8,0,0,0,3.815,8.053c.992,1.117,2.019,2.2,2.947,3.377a10.763,10.763,0,0,1,2.427,5.4,9.454,9.454,0,0,1,0,2.533,4.871,4.871,0,0,1-5.409,3.952,16.832,16.832,0,0,1-4.063-.8,4.129,4.129,0,0,1-1.759-1.01,21.136,21.136,0,0,1-2.3-6.82c-.5-2.58-.785-5.2-1.287-7.776a22.3,22.3,0,0,0-.961-3.428,4.763,4.763,0,0,0-.827-1.569,2.56,2.56,0,0,1-.593-2.2c.1-.732.076-1.472.2-2.2.093-.559.164-.621.7-.473a6.085,6.085,0,0,0,6.791-3.173,5.11,5.11,0,0,0,.112-3.894,7.89,7.89,0,0,0-1.221-2.19,2.374,2.374,0,0,1-.833,1.3c-.141.115-.3.255-.483.18s-.076-.288-.093-.439a3.135,3.135,0,0,0-.037-.643,7.744,7.744,0,0,0-1.768-3.885,2.7,2.7,0,0,1-3.771,1.938,2.408,2.408,0,0,1-.438-1.633,7.942,7.942,0,0,1,.557-3.758,3.29,3.29,0,0,1,3.709-2.039,7.238,7.238,0,0,1,4.239,2.251,20.73,20.73,0,0,1-.01-6.087,5.132,5.132,0,0,1-2.546.346.8.8,0,0,1-.651-.329,7.849,7.849,0,0,1,.184-2.853c.108-.464-.063-.455-.389-.386a2.961,2.961,0,0,1,2.829-1.571,5.481,5.481,0,0,0,.635.044A5.851,5.851,0,0,0,1986.141,767.365Z" transform="translate(-1849.125 -693.277)" fill="#fff"/>
    <path id="Path_13860" data-name="Path 13860" d="M1690.153,1091.558c-.1-.341.15-.6.218-.9a3.306,3.306,0,0,0-1.636-3.66c-.075-.041-.149-.087-.367-.216.679,0,1.2-.015,1.73.005.334.014.487-.071.48-.446-.02-1.189-.017-2.379,0-3.568,0-.34-.126-.424-.444-.428-.963-.015-.963-.027-.963-.971V1068.99c0-.722,0-.721.671-.528.085.025.179.026.262.058.451.172.556.116.5-.436a3.676,3.676,0,0,1,.963-2.778,7.193,7.193,0,0,1,7.573-2.377,3.249,3.249,0,0,1,2.151,1.428.548.548,0,0,0,.749.255,24.876,24.876,0,0,0,7.639-4.13,50.144,50.144,0,0,0,4.258-3.72c.1-.1.221-.181.332-.271l1.182,1.956a31.162,31.162,0,0,0-8.031,4.789,28.7,28.7,0,0,0-7.175,7.847,9.338,9.338,0,0,0-1.254,3.422,4.865,4.865,0,0,0,2.414,5.034,5.232,5.232,0,0,0,.8.454.9.9,0,0,1,.619.98,17.973,17.973,0,0,1-1.559,7.385,5.374,5.374,0,0,1-3.626,3.212,5.945,5.945,0,0,1-2.1.056A23.465,23.465,0,0,0,1690.153,1091.558Z" transform="translate(-1606.33 -940.031)" fill="#fff"/>
    <path id="Path_13861" data-name="Path 13861" d="M2014.022,799.169a4,4,0,0,0-4.328,1.55c-.111.161-.22.323-.329.485a4.539,4.539,0,0,1,2.208-2.66,6.275,6.275,0,0,1,2.568-.884,6.742,6.742,0,0,0,1.6,0,5.484,5.484,0,0,1,2.455,1.022,4.956,4.956,0,0,1,1.789,3.319c.384,2.373-.778,4.117-2.268,5.722a48.565,48.565,0,0,1-4.232,3.762,25.178,25.178,0,0,0-5.407,5.684,8.658,8.658,0,0,0-1.378,4.579,11.363,11.363,0,0,0,1.923,6.342,48.88,48.88,0,0,0,3.762,4.718,16.128,16.128,0,0,1,3.855,6.825,8.193,8.193,0,0,1-.182,5.126,5.656,5.656,0,0,1-4.38,3.449,11.465,11.465,0,0,1-9-1.693,11.19,11.19,0,0,1-3.794-4.812,3.118,3.118,0,0,1-.412-1.041c.174-.013.255.111.327.234a10.06,10.06,0,0,0,2.773,3.024,1.322,1.322,0,0,1,.227.228,8.839,8.839,0,0,0,3.95,1.479,10.659,10.659,0,0,0,3.221.148,4.613,4.613,0,0,0,3.873-4.281,10.792,10.792,0,0,0-2.984-7.962c-1.281-1.485-2.665-2.883-3.823-4.472a12.557,12.557,0,0,1-2.485-8.413,10.807,10.807,0,0,1,2.554-6.071,38.377,38.377,0,0,1,5.552-5.27,20.828,20.828,0,0,0,3.944-3.9,3.973,3.973,0,0,0,.824-3.238c-.242-.212-.164-.532-.268-.794a3.182,3.182,0,0,0-1.646-1.886A1.377,1.377,0,0,1,2014.022,799.169Z" transform="translate(-1869.44 -720.427)" fill="#4e68a7"/>
    <path id="Path_13862" data-name="Path 13862" d="M1969.234,914.155a8.623,8.623,0,0,1-3.024-3.048c-.1-.149-.2-.292-.3-.438-1.661-3.263-2.183-6.824-2.724-10.381a38.6,38.6,0,0,0-1.412-6.8,8.448,8.448,0,0,0-1.5-2.788.569.569,0,0,1-.182-.431c.1-1.236.188-2.474.281-3.718a5.9,5.9,0,0,0,7.913-5.709c.211.306.005.669.129.988a1.8,1.8,0,0,0,1.178-1.665c.276.044.338.307.456.472a6.073,6.073,0,0,1,1.238,5.069,5.235,5.235,0,0,1-2.42,3.241,5.954,5.954,0,0,1-4.612.976,1.132,1.132,0,0,1-.3-.1c-.322-.174-.428-.092-.455.279-.076,1.073-.2,2.142-.224,3.22a.68.68,0,0,0,.124.494,12.053,12.053,0,0,1,2.162,5.171c.437,1.9.664,3.844.972,5.769a29.585,29.585,0,0,0,2.35,8.688C1969,913.676,1969.211,913.871,1969.234,914.155Z" transform="translate(-1836.874 -790.427)" fill="#c8c9ca"/>
    <path id="Path_13863" data-name="Path 13863" d="M1701.66,909.071a79.331,79.331,0,0,0-6.834,4.732,12.623,12.623,0,0,1-2.016,1.249c-.254-.016-.248-.224-.278-.393a3.06,3.06,0,0,1-.02-.54q0-6.837,0-13.674c0-.108,0-.216,0-.324.031-.617.188-.757.817-.676a20.354,20.354,0,0,1,3.943.908c.371.126.66.3.633.75a2.783,2.783,0,0,1-2.329,2.358c-.136.027-.288-.008-.4.1a4.121,4.121,0,0,0,2.931,2.149c.276.073.566.1.85.143.275.094.571-.032.885.09-.186.393-.579.458-.9.613-.436.213-.469.265-.158.652a4.324,4.324,0,0,0,2.38,1.493C1701.376,908.754,1701.661,908.729,1701.66,909.071Z" transform="translate(-1609.845 -806.768)" fill="#fff"/>
    <path id="Path_13864" data-name="Path 13864" d="M1681.654,884.5c.07-.444-.116-.646-.555-.79a28.991,28.991,0,0,0-4.026-.931c-.5-.089-.508.193-.508.559q.01,6.563,0,13.125c0,.432,0,.864,0,1.3,0,.175-.042.366.124.5a8.338,8.338,0,0,1-2.528,1.045c-.646.121-.651.1-.651-.546q0-8.375,0-16.75c0-.792.012-1.585.019-2.376a21.355,21.355,0,0,1,6.163,1.578c.066.026.135.045.2.067a3.3,3.3,0,0,1,1.966,2.649C1681.9,884.13,1681.984,884.4,1681.654,884.5Z" transform="translate(-1593.729 -789.975)" fill="#c8c9ca"/>
    <path id="Path_13865" data-name="Path 13865" d="M1963.051,796.89a4.329,4.329,0,0,0,2.95-.074c.42-.127.448,0,.375.368a14.976,14.976,0,0,0-.1,4.341c.052.58.093,1.16.15,1.858a7.2,7.2,0,0,0-3.8-2.405c-2.418-.63-4.015.56-4.514,2.8a8.493,8.493,0,0,0,.076,4.357,4.327,4.327,0,0,1-3.119-3.133,8.006,8.006,0,0,1,.067-4.886,3.241,3.241,0,0,1,4.27-2.305,6.877,6.877,0,0,1,3.881,2.471C1963.233,799.081,1963,797.993,1963.051,796.89Z" transform="translate(-1832.318 -719.671)" fill="#c8c9ca"/>
    <path id="Path_13866" data-name="Path 13866" d="M1734.485,924.482c-.088-.2-.276-.181-.45-.224a4.4,4.4,0,0,1-2.675-1.743c-.228-.322-.256-.495.186-.62a8.834,8.834,0,0,0,1.073-.462c-.322-.152-.614.02-.836-.171a9.481,9.481,0,0,0,5.1-1.1,6.3,6.3,0,0,0,2.618-2.344c.162-.281.331-.273.569-.143a2,2,0,0,1,.625.585,13.424,13.424,0,0,1,1.151,2.008c0,.149-.108.214-.225.273C1739.2,921.776,1736.844,923.136,1734.485,924.482Z" transform="translate(-1642.67 -822.179)" fill="#c8c9ca"/>
    <path id="Path_13867" data-name="Path 13867" d="M1641.352,676.366a3.24,3.24,0,0,1,2.375-1.917,3.69,3.69,0,0,1,4.537,3.875,6.875,6.875,0,0,1-1.53,3.73,21.219,21.219,0,0,1-2.115,2.247,6.7,6.7,0,0,0,.115-2c-.072-.521-.312-.605-.732-.636a3.609,3.609,0,0,1-3.061-3.254c.271.045.273.308.375.482a2.363,2.363,0,0,0,2.442,1.129,2.243,2.243,0,0,0,1.922-1.728,2.267,2.267,0,0,0-1.977-2.651,2.6,2.6,0,0,0-1.74.443C1641.78,676.213,1641.628,676.436,1641.352,676.366Z" transform="translate(-1566.09 -615.804)" fill="#4e68a7"/>
    <path id="Path_13868" data-name="Path 13868" d="M1641.189,682.723a3.206,3.206,0,0,1,2.183-.878,2.363,2.363,0,1,1-.326,4.7,2.517,2.517,0,0,1-2.268-1.778A3.09,3.09,0,0,1,1641.189,682.723Z" transform="translate(-1565.928 -622.16)" fill="#c8c9ca"/>
    <path id="Path_13869" data-name="Path 13869" d="M1629.813,799.7c-1.051-.182-2.064-.063-3.046-.315a1.267,1.267,0,0,1-1-1.415,1.331,1.331,0,0,1,1.739-1.142,16.2,16.2,0,0,1,3.993,2.064c.158.108.4.247.357.436-.055.224-.354.233-.551.244A7.965,7.965,0,0,0,1629.813,799.7Z" transform="translate(-1553.206 -719.664)" fill="#4e68a7"/>
    <path id="Path_13870" data-name="Path 13870" d="M1627.978,823.92a15.106,15.106,0,0,1,4.085,1.3c.1.049.211.1.2.224-.01.209-.207.244-.347.289a11.812,11.812,0,0,1-3.048.567,3.913,3.913,0,0,1-1.335.065,1.355,1.355,0,0,1-.971-1.308A1.251,1.251,0,0,1,1627.978,823.92Z" transform="translate(-1553.891 -742.707)" fill="#4e68a7"/>
    <path id="Path_13871" data-name="Path 13871" d="M1712.7,893.706a2.4,2.4,0,0,0-.642-2.213,6.3,6.3,0,0,0-1.11-1.007,3.77,3.77,0,0,1,3.216,2.279,2.293,2.293,0,0,1-1.409,3.1,4.858,4.858,0,0,1-2.648.11c0-.205.2-.123.293-.183a2.62,2.62,0,0,1,.4-.14A2.67,2.67,0,0,0,1712.7,893.706Z" transform="translate(-1624.771 -799.184)" fill="#4e68a7"/>
    <path id="Path_13872" data-name="Path 13872" d="M1663.8,1092.331c.182.411.136.579-.386.474a3.356,3.356,0,0,0-1.016-.241,3.966,3.966,0,0,1-1.819-2.553c-.236-1.16-.029-1.394,1.1-1.131a5.385,5.385,0,0,1,.557.191c.338.119.489.253.4.7a3.381,3.381,0,0,0,1.044,2.825C1663.837,1092.545,1663.741,1092.4,1663.8,1092.331Z" transform="translate(-1582.682 -967.43)" fill="#4e68a7"/>
    <path id="Path_13873" data-name="Path 13873" d="M1957.815,700.292c-.141.541-.412.7-.941.492a13.715,13.715,0,0,1-2.548-1.122,1.949,1.949,0,0,1-.877-.917c-.158-.429.022-.69.477-.694.593-.006,1.186.015,1.778-.008.3-.012.39.09.427.38A1.932,1.932,0,0,0,1957.815,700.292Z" transform="translate(-1831.19 -635.906)" fill="#fefefe"/>
    <path id="Path_13874" data-name="Path 13874" d="M1633.654,848.9a8.49,8.49,0,0,1,2.676.508c.125.045.322.035.316.224,0,.132-.152.2-.267.242a11.56,11.56,0,0,1-2.9.766.853.853,0,0,1-.951-.869c-.046-.536.333-.874.906-.873Z" transform="translate(-1558.953 -763.903)" fill="#4e68a7"/>
    <path id="Path_13875" data-name="Path 13875" d="M2004.78,1358.525a2.585,2.585,0,0,1-1.987-2.149c-.1-.7-.356-.848-.943-.789a9.311,9.311,0,0,1,2.072-.076c.118-.006.219.058.179.2a3.412,3.412,0,0,0,.671,2.763C2004.782,1358.486,2004.778,1358.507,2004.78,1358.525Z" transform="translate(-1872.306 -1193.718)" fill="#4e68a7"/>
    <path id="Path_13876" data-name="Path 13876" d="M1655.808,1107.715q0-9.264,0-18.528c0-.14-.037-.291.085-.407.007,1.225.02,2.449.02,3.674q0,7.323,0,14.646C1655.907,1107.305,1655.992,1107.534,1655.808,1107.715Z" transform="translate(-1578.697 -967.428)" fill="#5d75af"/>
    <path id="Path_13877" data-name="Path 13877" d="M1655.883,904.6c-.215-.139-.13-.357-.13-.542q-.006-8.712,0-17.423c0-.173-.06-.363.087-.514.006,1.891.016,3.782.017,5.673q0,6.079,0,12.158C1655.859,904.169,1655.875,904.385,1655.883,904.6Z" transform="translate(-1578.644 -795.482)" fill="#5d75b0"/>
    <path id="Path_13878" data-name="Path 13878" d="M1981.838,698.547c-.06-.32.116-.456.49-.383.052.01.108,0,.16.01.357.056,1-.11,1.017.13.028.391-.419.747-.706,1.083-.152.177-.4.118-.6.013C1981.894,699.235,1981.849,698.933,1981.838,698.547Z" transform="translate(-1855.316 -635.993)" fill="#f7f8fb"/>
    <path id="Path_13879" data-name="Path 13879" d="M1702.984,1299.148a9.647,9.647,0,0,1,3.006,0Z" transform="translate(-1618.731 -1145.815)" fill="#637db5"/>
    <path id="Path_13880" data-name="Path 13880" d="M1666.585,1023.017a6.753,6.753,0,0,1,2.467,0Z" transform="translate(-1587.848 -911.533)" fill="#5b75ab"/>
    <path id="Path_13881" data-name="Path 13881" d="M2103.455,797.664a2.894,2.894,0,0,1-1.6,0Z" transform="translate(-1957.156 -720.427)" fill="#607cb3"/>
    <path id="Path_13882" data-name="Path 13882" d="M1969.151,1310.586a1.9,1.9,0,0,1,1.275,0Z" transform="translate(-1844.561 -1155.527)" fill="#5b7ab2"/>
    <path id="Path_13883" data-name="Path 13883" d="M1906.276,648.754a1.084,1.084,0,0,1,0-.948Q1906.274,648.28,1906.276,648.754Z" transform="translate(-1791.122 -593.283)" fill="#647eb5"/>
    <path id="Path_13884" data-name="Path 13884" d="M1726.382,1592.793a1,1,0,0,1-1.553,1c-.188-.089-.107-.2-.086-.3.1-.508.211-1.014.317-1.521.024-.119.012-.235.205-.241A1.068,1.068,0,0,1,1726.382,1592.793Z" transform="translate(-1637.162 -1394.155)" fill="#003980"/>
    <path id="Path_13885" data-name="Path 13885" d="M1731.906,1565.1c-.394-.021-.721-.068-.528-.586a4.832,4.832,0,0,0,.151-.628c.118-.529.2-.555.689-.291.434.235.385.6.316.984A.6.6,0,0,1,1731.906,1565.1Z" transform="translate(-1642.774 -1370.146)" fill="#003a7f"/>
    <path id="Path_13886" data-name="Path 13886" d="M2288.488,1428.959a1.541,1.541,0,0,1,1.17.913,1.5,1.5,0,0,1-.646,1.115c-.161.093-.228-.006-.314-.093a9.694,9.694,0,0,0-.871-.88c-.442-.349-.31-.586.066-.851A.881.881,0,0,1,2288.488,1428.959Z" transform="translate(-2114.706 -1256.052)" fill="#003980"/>
    <path id="Path_13887" data-name="Path 13887" d="M2268.724,1410.129a1.015,1.015,0,0,1-.494.747c-.219.13-.3-.182-.439-.289a1.269,1.269,0,0,1-.336-.348c-.11-.184-.5-.249-.317-.551a.859.859,0,0,1,1.1-.235A1.062,1.062,0,0,1,2268.724,1410.129Z" transform="translate(-2097.348 -1239.412)" fill="#003a7f"/>
    <path id="Path_13888" data-name="Path 13888" d="M1566.393,1515.1a7.347,7.347,0,0,1,2.338-4.54,1.436,1.436,0,0,1,1.663-.228,1.379,1.379,0,0,1,.8,1.464,6.792,6.792,0,0,1-2.273,4.569,1.393,1.393,0,0,1-1.692.269A1.544,1.544,0,0,1,1566.393,1515.1Z" transform="translate(-1502.84 -1324.953)" fill="#003980"/>
    <path id="Path_13889" data-name="Path 13889" d="M1485.224,1467.856a1.668,1.668,0,0,1,.1-.6,7.35,7.35,0,0,1,2.838-3.824,1.428,1.428,0,0,1,1.763-.012,1.5,1.5,0,0,1,.546,1.683,4.1,4.1,0,0,1-.143.518,7.847,7.847,0,0,1-2.331,3.251,2.482,2.482,0,0,1-1,.516A1.449,1.449,0,0,1,1485.224,1467.856Z" transform="translate(-1433.971 -1285.039)" fill="#003980"/>
    <path id="Path_13890" data-name="Path 13890" d="M2089.487,807.619a3.223,3.223,0,0,1,2.4,3,4.225,4.225,0,0,0-2.6.71,3.491,3.491,0,0,0-1.54,2.365,5.329,5.329,0,0,1-.156.523,6.455,6.455,0,0,1,1.644-6.2C2089.348,807.9,2089.487,807.805,2089.487,807.619Z" transform="translate(-1944.904 -728.877)" fill="#c8c9ca"/>
  </g>
</svg>
