<svg id="Group_1121" data-name="Group 1121" xmlns="http://www.w3.org/2000/svg" width="138.363" height="138.363" viewBox="0 0 138.363 138.363">
  <ellipse id="Ellipse_260" data-name="Ellipse 260" cx="69.182" cy="69.182" rx="69.182" ry="69.182" transform="translate(0 0)" fill="#fff"/>
  <g id="Group_813" data-name="Group 813" transform="translate(2.369 2.367)">
    <path id="Path_13733" data-name="Path 13733" d="M1280.6,361.937a64.03,64.03,0,0,1-1.431,8.512,67.05,67.05,0,0,1-51.839,50.187,59.626,59.626,0,0,1-6.4.963c-.129.069-.282-.025-.408.059h-13.095c-.105-.078-.234,0-.344-.054a66.5,66.5,0,0,1-35.736-14.987,66.463,66.463,0,0,1-22.012-34.143,64.109,64.109,0,0,1-1.918-10.249,67.117,67.117,0,0,1,5.388-34.469,65.626,65.626,0,0,1,9.288-15.065,66.675,66.675,0,0,1,31.224-21.4,65,65,0,0,1,11.787-2.67,66.933,66.933,0,0,1,75.063,56.063c.173,1.109.289,2.227.431,3.341.054.107-.024.236.054.339v13.229C1280.582,361.7,1280.664,361.829,1280.6,361.937Z" transform="translate(-1147.035 -288.029)" fill="#d68f16"/>
    <path id="Path_13734" data-name="Path 13734" d="M1931.965,1714.473c.123-.106.268-.068.408-.06a.093.093,0,0,0-.008.06Z" transform="translate(-1858.47 -1580.843)" fill="#e6b465"/>
    <path id="Path_13735" data-name="Path 13735" d="M2573.54,929.118a.434.434,0,0,1-.054-.339.081.081,0,0,1,.054.005Z" transform="translate(-2439.914 -868.781)" fill="#f3d6a9"/>
    <path id="Path_13736" data-name="Path 13736" d="M2573.415,1074.047c-.013-.119-.043-.242.056-.342v.334A.122.122,0,0,1,2573.415,1074.047Z" transform="translate(-2439.845 -1000.14)" fill="#eabe79"/>
    <path id="Path_13737" data-name="Path 13737" d="M1788.438,1714.465a.385.385,0,0,1,.344.054h-.334A.275.275,0,0,1,1788.438,1714.465Z" transform="translate(-1728.381 -1580.89)" fill="#ebbe79"/>
    <path id="Path_13738" data-name="Path 13738" d="M1171,376.7a64.725,64.725,0,1,1,64.638,64.744A64.716,64.716,0,0,1,1171,376.7Z" transform="translate(-1168.752 -309.755)" fill="#003980"/>
    <path id="Path_13739" data-name="Path 13739" d="M1415.674,510.6a46.129,46.129,0,1,1-46.13,46.136A46.144,46.144,0,0,1,1415.674,510.6Z" transform="translate(-1348.71 -489.764)" fill="#d68f16"/>
    <path id="Path_13740" data-name="Path 13740" d="M1226.106,1083.958a1.6,1.6,0,0,1,1.7-1.713,3.309,3.309,0,0,1,.963.065c.753.183,1.529.081,2.287.194a2.38,2.38,0,0,1,1.139.432,1.534,1.534,0,0,1,.527,1.611c.1-.02.158-.029.218-.044a1.478,1.478,0,0,1,1.725.678,2.575,2.575,0,0,1,.378.954c.148.888.387,1.753.6,2.624a2.264,2.264,0,0,1,0,1.093,1.489,1.489,0,0,1-1.4,1.177.375.375,0,0,0,.032.108,1.546,1.546,0,0,1-.327,2.219c-.19.166-3.072,1.894-3.307,1.977-.921.324-1.459.11-2.145-.85a1.559,1.559,0,0,1-2.385.357,27.21,27.21,0,0,1-2.641-2.288c-.786-.774-.743-1.513.006-2.464a1.522,1.522,0,0,1-1.066-.866,1.87,1.87,0,0,1,.024-1.463c.392-.976.811-1.941,1.226-2.907a2.128,2.128,0,0,1,.246-.4C1224.459,1083.705,1225.057,1083.567,1226.106,1083.958Z" transform="translate(-1215.235 -1007.873)" fill="#fff"/>
    <path id="Path_13741" data-name="Path 13741" d="M2368.847,1084.579c-.064-1.183.323-1.728,1.431-1.986a3.171,3.171,0,0,1,.791-.105,12.27,12.27,0,0,0,2.022-.179,3.569,3.569,0,0,1,.8-.02A1.6,1.6,0,0,1,2375.5,1084a1.9,1.9,0,0,1,1.078-.232,1.558,1.558,0,0,1,1.157.826,22.388,22.388,0,0,1,1.478,3.48,1.523,1.523,0,0,1-1.09,2.062c0,.01,0,.026.005.032a1.631,1.631,0,0,1-.067,2.5,2.767,2.767,0,0,1-.29.277,19.555,19.555,0,0,0-1.837,1.595,2.844,2.844,0,0,1-.59.432,1.6,1.6,0,0,1-2.262-.43c-.052-.022-.051.026-.064.051a1.52,1.52,0,0,1-1.981.813,3.663,3.663,0,0,1-1.035-.526,10.972,10.972,0,0,0-1.539-.924,3.275,3.275,0,0,1-1.061-.795,1.5,1.5,0,0,1-.166-1.876c.066-.112.2-.2-.067-.254a1.508,1.508,0,0,1-1.289-1.545,2.906,2.906,0,0,1,.138-1.021,17.666,17.666,0,0,0,.524-2.266,2.655,2.655,0,0,1,.123-.414A1.622,1.622,0,0,1,2368.847,1084.579Z" transform="translate(-2251.753 -1007.908)" fill="#fff"/>
    <path id="Path_13742" data-name="Path 13742" d="M2371.494,797.873a6.191,6.191,0,1,1,6.219-6.14A6.206,6.206,0,0,1,2371.494,797.873Z" transform="translate(-2251.249 -738.913)" fill="#fff"/>
    <path id="Path_13743" data-name="Path 13743" d="M1233.1,797.873a6.191,6.191,0,1,1,6.2-6.117A6.176,6.176,0,0,1,1233.1,797.873Z" transform="translate(-1219.45 -738.913)" fill="#fff"/>
    <path id="Path_13744" data-name="Path 13744" d="M1533.449,386.035c.118.027.124.141.164.225.609,1.283,1.224,2.562,1.813,3.854.124.27.231.269.462.153.574-.289,1.156-.565,1.746-.821.23-.1.26-.193.153-.415-.617-1.279-1.215-2.566-1.829-3.846-.093-.193-.1-.292.125-.4,1.059-.484,2.111-.983,3.16-1.49.2-.1.274-.058.367.138q2.652,5.647,5.324,11.285c.1.217.028.274-.147.356q-1.583.738-3.157,1.5c-.2.1-.272.06-.363-.137-.662-1.429-1.342-2.85-2.006-4.278-.1-.222-.191-.292-.437-.165-.591.3-1.2.582-1.8.852-.2.09-.224.17-.129.367.681,1.42,1.344,2.849,2.025,4.269.109.226.107.329-.146.444-1.04.471-2.071.963-3.1,1.458-.2.1-.293.088-.4-.133q-2.648-5.649-5.313-11.29c-.055-.116-.149-.215.054-.309,1.108-.512,2.209-1.037,3.312-1.557Z" transform="translate(-1494.039 -374.331)" fill="#d68f16"/>
    <path id="Path_13745" data-name="Path 13745" d="M1413.682,496.813a6.991,6.991,0,0,1-6.87-5.658,6.638,6.638,0,0,1,4.43-7.575,7.2,7.2,0,0,1,4.168.1c.154.043.146.113.115.242q-.257,1.085-.493,2.174c-.037.172-.1.228-.29.191q-.9-.178-1.806-.3a2.63,2.63,0,0,0-2.7,3.429,6.041,6.041,0,0,0,3.508,3.792,2.664,2.664,0,0,0,3.583-2.446,5.094,5.094,0,0,0-.367-1.881c-.066-.2-.067-.285.173-.343.754-.183,1.5-.394,2.248-.6.119-.033.208-.071.256.087a6.675,6.675,0,0,1,.232,4.123,6.553,6.553,0,0,1-5.155,4.547A8.6,8.6,0,0,1,1413.682,496.813Z" transform="translate(-1382.37 -465.029)" fill="#d68f16"/>
    <path id="Path_13746" data-name="Path 13746" d="M1697.041,358.517l3.249-.656c.152-.031.3-.067.456-.1.6-.114.6-.114.722.471.116.565.22,1.133.347,1.7.057.25.007.358-.266.411-1.7.329-3.4.678-5.092,1.02-.9.182-1.81.346-2.707.552-.263.06-.3-.047-.334-.239q-.368-1.845-.742-3.688-.853-4.243-1.712-8.484c-.046-.226-.013-.313.219-.359q3.9-.775,7.8-1.57c.2-.042.268-.015.305.2q.191,1.065.428,2.121c.047.206,0,.274-.2.312-1.252.243-2.5.5-3.755.743-.251.049-.4.093-.307.432.156.554.243,1.127.347,1.695.03.166.075.22.26.181,1.206-.253,2.416-.485,3.62-.741.234-.05.3-.009.344.231.115.678.245,1.355.408,2.023.066.27,0,.338-.252.386-1.177.225-2.349.477-3.527.7-.24.046-.271.128-.221.349.158.7.3,1.412.433,2.12C1696.894,358.459,1696.906,358.576,1697.041,358.517Z" transform="translate(-1640.016 -341.984)" fill="#d68f16"/>
    <path id="Path_13747" data-name="Path 13747" d="M2067.686,411.863c-.071-.034-.132-.06-.19-.09q-3.58-1.808-7.16-3.612c-.184-.092-.231-.159-.126-.365q2.829-5.562,5.633-11.135c.1-.192.167-.22.361-.121q3.545,1.8,7.1,3.586c.181.091.231.159.125.36-.34.636-.66,1.283-.974,1.932-.087.178-.159.2-.343.108-1.163-.6-2.337-1.177-3.5-1.778-.209-.108-.286-.085-.384.127-.252.542-.526,1.075-.806,1.6-.087.165-.072.229.1.315,1.083.538,2.152,1.1,3.242,1.627.286.137.27.247.145.481-.32.6-.623,1.2-.916,1.81-.1.2-.175.246-.39.133-1.073-.559-2.159-1.092-3.232-1.649-.212-.11-.293-.071-.392.136-.306.64-.628,1.273-.962,1.9-.1.194-.073.266.122.363,1.183.586,2.354,1.194,3.538,1.776.229.113.249.194.132.411-.333.614-.636,1.244-.954,1.866C2067.814,411.727,2067.8,411.84,2067.686,411.863Z" transform="translate(-1974.656 -386.328)" fill="#d68f16"/>
    <path id="Path_13748" data-name="Path 13748" d="M1951.729,372.089a5.336,5.336,0,0,1-4.139-2.066,6.235,6.235,0,0,1-.817-1.954c-.044-.146.015-.189.136-.238.772-.309,1.542-.621,2.308-.945.163-.069.206-.021.254.127.139.421.282.841.444,1.254a1.322,1.322,0,0,0,.981.821,1.047,1.047,0,0,0,1.091-.394,1.035,1.035,0,0,0-.034-1.188,4.4,4.4,0,0,0-.921-.816,10.244,10.244,0,0,1-1.9-1.619,4,4,0,0,1,.623-5.481,4.753,4.753,0,0,1,7.638,2.867c.105.576.105.576-.452.764-.631.212-1.264.416-1.892.637-.167.059-.229.049-.263-.145-.068-.393-.155-.784-.259-1.169a1.331,1.331,0,0,0-1.027-1.025.738.738,0,0,0-.859.348.7.7,0,0,0,.018.973,6.884,6.884,0,0,0,1.2,1,7.183,7.183,0,0,1,1.834,1.781,4.225,4.225,0,0,1-2.153,6.157,5.026,5.026,0,0,1-1,.253C1952.3,372.062,1952.057,372.066,1951.729,372.089Z" transform="translate(-1871.878 -351.936)" fill="#d68f16"/>
    <path id="Path_13749" data-name="Path 13749" d="M2169.43,489.681c-1.716,5.059-3.431,10.119-5.162,15.22-.382-.33-.742-.639-1.1-.951-.63-.548-1.252-1.1-1.891-1.641a.366.366,0,0,1-.118-.482c.285-.8.543-1.617.829-2.421a.305.305,0,0,0-.1-.4q-.778-.657-1.536-1.337a.252.252,0,0,0-.345-.026c-.76.412-1.53.809-2.289,1.224a.338.338,0,0,1-.46-.058c-.687-.616-1.388-1.215-2.115-1.847l14.228-7.347Z" transform="translate(-2060.748 -470.742)" fill="#d68f16"/>
    <path id="Path_13750" data-name="Path 13750" d="M1835.761,349.569q.069-3.137.135-6.275c0-.183.043-.25.24-.244q1.785.049,3.571.072c.2,0,.234.078.229.257-.073,3.182-.133,6.364-.218,9.546-.009.347.081.418.411.419,1.257,0,2.514.046,3.772.057.237,0,.271.089.263.294-.026.756-.045,1.513-.047,2.269,0,.224-.071.277-.288.272q-3.972-.09-7.944-.157c-.254,0-.257-.116-.253-.3q.071-3.1.134-6.208Z" transform="translate(-1771.157 -337.898)" fill="#d68f16"/>
    <path id="Path_13751" data-name="Path 13751" d="M2177.691,1437.99a2.532,2.532,0,0,1-2.173-1.118q-1.206-1.639-2.407-3.281c-.132-.18-.252-.368-.4-.536-.125-.144-.076-.216.057-.311.533-.381,1.066-.765,1.587-1.163.17-.13.25-.124.379.055.9,1.244,1.809,2.479,2.717,3.716a.7.7,0,0,0,1.2.085c.31-.318.324-.5.048-.873-.918-1.257-1.835-2.515-2.768-3.761-.156-.208-.129-.3.069-.431.351-.235.686-.493,1.024-.746.118-.088.2-.131.31.027.99,1.369,2,2.723,2.983,4.1a2.124,2.124,0,0,1,.1,2.449A3.55,3.55,0,0,1,2177.691,1437.99Z" transform="translate(-2076.611 -1322.662)" fill="#d68f16"/>
    <path id="Path_13752" data-name="Path 13752" d="M2048.178,1514.672a3.7,3.7,0,0,1,2.036-3.354,3.464,3.464,0,0,1,3.726.2c.49.312.488.314.186.791-.168.263-.343.52-.5.788-.081.137-.149.155-.287.069a7.49,7.49,0,0,0-.844-.467,1.346,1.346,0,0,0-1.952,1.32,3.476,3.476,0,0,0,.772,2.055,1.365,1.365,0,0,0,1.481.6,1.5,1.5,0,0,0,1.123-1.348c.006-.044.008-.089.01-.133.038-.672.038-.671.71-.614.288.025.576.042.865.066.107.009.231,0,.219.172a3.921,3.921,0,0,1-.724,2.381,3.662,3.662,0,0,1-3.779,1.349,3.7,3.7,0,0,1-2.894-2.786A3.337,3.337,0,0,1,2048.178,1514.672Z" transform="translate(-1963.798 -1396.368)" fill="#d68f16"/>
    <path id="Path_13753" data-name="Path 13753" d="M1396.077,1389.735c-.07.065-.137.121-.2.184-.562.587-1.127,1.171-1.681,1.766-.128.137-.2.175-.356.02-.472-.473-.96-.929-1.45-1.383-.126-.116-.13-.182-.009-.308q2.414-2.52,4.815-5.053c.127-.134.194-.147.334-.012q1.562,1.508,3.143,3c.159.149.14.23,0,.368-.271.264-.535.537-.781.824-.156.183-.253.207-.437.018-.426-.439-.887-.844-1.321-1.275-.133-.131-.209-.145-.331.006-.167.208-.494.4-.494.6s.326.382.516.566c.271.264.544.526.826.779.113.1.134.169.016.287-.307.307-.608.621-.9.945-.121.136-.193.111-.309,0-.4-.39-.8-.77-1.207-1.154C1396.2,1389.848,1396.145,1389.8,1396.077,1389.735Z" transform="translate(-1369.332 -1282.154)" fill="#d68f16"/>
    <path id="Path_13754" data-name="Path 13754" d="M1774.106,1542.717l2.889,8.953c-.832-.06-1.618-.121-2.4-.17-.175-.011-.215-.123-.256-.254-.128-.4-.266-.8-.384-1.2-.04-.135-.087-.211-.24-.218q-.45-.02-.9-.071c-.151-.017-.187.073-.236.179-.177.382-.367.759-.538,1.143a.273.273,0,0,1-.327.192c-.56-.056-1.123-.087-1.728-.13Z" transform="translate(-1711.656 -1425.236)" fill="#d68f16"/>
    <path id="Path_13755" data-name="Path 13755" d="M1699.048,1548.123a19.933,19.933,0,0,1-2.315-.442c-.4-.073-.8-.167-1.2-.249-.154-.031-.211-.079-.17-.268.488-2.277.962-4.556,1.437-6.836.033-.161.083-.215.265-.174,1.049.235,2.112.414,3.152.687a2.171,2.171,0,0,1,1.1,3.66c-.108.1-.094.16-.032.277A2.26,2.26,0,0,1,1699.048,1548.123Z" transform="translate(-1644.005 -1422.902)" fill="#d68f16"/>
    <path id="Path_13756" data-name="Path 13756" d="M2239.424,1385.551a2.177,2.177,0,0,1,2.259,1.708c.032.144.069.22.249.232a2.224,2.224,0,0,1,1.854,3.146,3.27,3.27,0,0,1-.725.989c-.71.69-1.424,1.374-2.128,2.071-.141.14-.216.157-.365,0q-2.407-2.5-4.829-4.983c-.126-.129-.149-.2,0-.338.75-.71,1.485-1.439,2.237-2.149A2.3,2.3,0,0,1,2239.424,1385.551Z" transform="translate(-2133.706 -1282.786)" fill="#d68f16"/>
    <path id="Path_13757" data-name="Path 13757" d="M1924.562,1551.218c-.071-.16.036-.2.172-.224.691-.106,1.382-.206,2.071-.323.2-.034.162.1.177.194q.2,1.216.388,2.432c.139.888.281,1.775.408,2.664.033.232.156.251.342.22.624-.1,1.25-.191,1.873-.3.2-.036.283-.006.31.2.056.428.131.855.2,1.282.025.158.021.26-.194.291-1.471.217-2.939.447-4.407.683-.165.026-.236.02-.265-.168q-.525-3.4-1.064-6.806C1924.567,1551.318,1924.566,1551.273,1924.562,1551.218Z" transform="translate(-1851.74 -1432.44)" fill="#d68f16"/>
    <path id="Path_13758" data-name="Path 13758" d="M1859.382,1561.2c-.05-1.123-.1-2.246-.155-3.369-.012-.214.04-.292.265-.3.646-.011,1.291-.039,1.935-.073.2-.01.264.032.271.248.058,1.68.139,3.358.194,5.038.01.285.1.351.37.334.622-.04,1.245-.046,1.868-.08.185-.01.251.039.253.23.005.433.022.868.055,1.3.016.213-.063.261-.261.268-1.479.051-2.958.106-4.437.175-.25.012-.207-.142-.213-.273q-.078-1.751-.148-3.5Z" transform="translate(-1792.541 -1438.601)" fill="#d68f16"/>
    <path id="Path_13759" data-name="Path 13759" d="M1632.992,1519.836c.01-.046-.083-.053-.151-.077-.261-.092-.521-.19-.786-.267-.172-.05-.194-.121-.13-.285.151-.392.282-.792.415-1.191.05-.147.1-.207.28-.141,1.4.5,2.8.989,4.2,1.476.148.051.226.092.153.278-.159.4-.3.812-.428,1.223-.051.159-.121.173-.265.114-.225-.092-.468-.142-.687-.245s-.3-.025-.371.184c-.556,1.611-1.129,3.217-1.681,4.83-.083.24-.162.3-.408.2q-.865-.339-1.754-.617c-.231-.072-.256-.156-.18-.371.577-1.616,1.142-3.237,1.71-4.856C1632.931,1520.03,1632.95,1519.966,1632.992,1519.836Z" transform="translate(-1585.83 -1402.696)" fill="#d68f16"/>
    <path id="Path_13760" data-name="Path 13760" d="M2126.707,1488.72c-.009.11-.1.127-.16.162-1.3.727-2.6,1.449-3.895,2.179-.146.081-.22.081-.308-.079q-1.7-3.058-3.411-6.106c-.09-.162-.056-.225.09-.3.593-.325,1.187-.653,1.771-1,.2-.118.239.01.311.139.82,1.474,1.648,2.945,2.461,4.424.123.222.214.263.442.122.54-.33,1.1-.62,1.651-.937.162-.094.241-.08.329.094.2.395.429.778.646,1.165C2126.66,1488.63,2126.685,1488.68,2126.707,1488.72Z" transform="translate(-2027.885 -1371.59)" fill="#d68f16"/>
    <path id="Path_13761" data-name="Path 13761" d="M1549.78,1494.4a4.081,4.081,0,0,1-3.182,4.028,3.638,3.638,0,0,1-4.187-2.61,4.123,4.123,0,0,1,2.892-4.952A3.642,3.642,0,0,1,1549.78,1494.4Z" transform="translate(-1505.273 -1378.146)" fill="#d68f16"/>
    <path id="Path_13762" data-name="Path 13762" d="M1462.4,1446.94a4.1,4.1,0,0,1,3.925-4.051,3.665,3.665,0,0,1,3.63,3.6,4.112,4.112,0,0,1-3.912,4.1A3.659,3.659,0,0,1,1462.4,1446.94Z" transform="translate(-1432.872 -1334.756)" fill="#d68f16"/>
    <path id="Path_13763" data-name="Path 13763" d="M1384.6,570.3a44.726,44.726,0,1,1,44.69,44.731A44.717,44.717,0,0,1,1384.6,570.3Z" transform="translate(-1362.354 -503.324)" fill="#fdfdfc"/>
    <path id="Path_13764" data-name="Path 13764" d="M1270.988,1090.906a.76.76,0,0,1,.663-.856,2.408,2.408,0,0,1,1.157,0c.765.18,1.551.08,2.319.2a2.293,2.293,0,0,1,.45.114.792.792,0,0,1,.546,1.109,6.34,6.34,0,0,1-1.684,2.288c-.133.135-.663-.135-.694-.341-.057-.373-.1-.748-.168-1.12-.014-.081.03-.227-.126-.229-.127,0-.11.125-.136.2-.124.356-.251.712-.352,1.074-.086.307-.366.18-.544.276-.158.085-.187-.076-.24-.154a7.682,7.682,0,0,1-1.118-2.108A2.4,2.4,0,0,1,1270.988,1090.906Z" transform="translate(-1259.382 -1014.893)" fill="#e4001b"/>
    <path id="Path_13765" data-name="Path 13765" d="M1315.016,1116.358a.692.692,0,0,0-.166,0c-.525.133-.744-.208-.942-.6a.161.161,0,0,1,.028-.2,7.623,7.623,0,0,1,1.728-1.791c.756-.506,1.283-.328,1.6.527a3.143,3.143,0,0,1,.2.839,14.5,14.5,0,0,0,.473,1.969,2.68,2.68,0,0,1,.059.595.83.83,0,0,1-.985.929,6.864,6.864,0,0,1-2.534-.861c-.18-.089-.119-.5.086-.6.355-.182.719-.348,1.072-.531.086-.044.255-.043.212-.2-.036-.134-.17-.067-.26-.071C1315.395,1116.351,1315.2,1116.358,1315.016,1116.358Z" transform="translate(-1298.261 -1036.198)" fill="#e4001b"/>
    <path id="Path_13766" data-name="Path 13766" d="M1231.4,1110.794c-.044,0-.089,0-.134,0-.929-.062-1.242-.514-.976-1.406a1.368,1.368,0,0,1,.075-.219c.4-.8.707-1.647,1.06-2.471.472-1.1,1.177-1.189,1.967-.291a9.518,9.518,0,0,1,1.176,1.813c.071.132.021.194-.051.309a.8.8,0,0,1-1.082.36,3.969,3.969,0,0,0-.719-.132c-.071-.011-.161-.054-.2.046s.037.14.1.185c.332.243.652.5,1,.721.221.137.151.315.156.493.006.2-.162.178-.278.214A8.3,8.3,0,0,1,1231.4,1110.794Z" transform="translate(-1222.413 -1029.226)" fill="#e4001b"/>
    <path id="Path_13767" data-name="Path 13767" d="M1294.231,1169.249c.042-.447.077-.879.124-1.309.012-.113-.008-.284.155-.291.189-.01.382-.185.579.05.285.341.612.645.924.963.058.06.114.163.218.1s.026-.158,0-.236c-.128-.4-.242-.808-.389-1.2s.245-.5.375-.743c.1-.179.255-.005.373.034a8.31,8.31,0,0,1,1.459.645,4.394,4.394,0,0,1,.394.249c.868.625.888,1.292-.013,1.859-.825.519-1.685.983-2.5,1.516a1.051,1.051,0,0,1-.181.084c-.781.323-1.227.091-1.423-.737A6.971,6.971,0,0,1,1294.231,1169.249Z" transform="translate(-1280.448 -1084.246)" fill="#e4001b"/>
    <path id="Path_13768" data-name="Path 13768" d="M1241.565,1165.084a7.6,7.6,0,0,1-.341,2.06c-.316.849-.855,1.02-1.606.516a.619.619,0,0,1-.081-.057c-.735-.676-1.486-1.334-2.26-1.964a1.519,1.519,0,0,1-.259-.3.82.82,0,0,1,.215-1.29,5.507,5.507,0,0,1,2.051-.735c.032-.007.067-.007.1-.012a.659.659,0,0,1,.861.522c.031.1-.039.165-.076.238-.2.394-.414.784-.619,1.177-.033.063-.106.13-.017.2s.144,0,.2-.045a9.01,9.01,0,0,0,.966-.707c.267-.249.5-.154.751-.04C1241.684,1164.75,1241.485,1164.967,1241.565,1165.084Z" transform="translate(-1228.392 -1081.323)" fill="#e4001b"/>
    <path id="Path_13769" data-name="Path 13769" d="M1278.849,1139.758a1.388,1.388,0,0,1,1.4-1.416,1.414,1.414,0,0,1,1.419,1.413,1.439,1.439,0,0,1-1.4,1.411A1.417,1.417,0,0,1,1278.849,1139.758Z" transform="translate(-1266.507 -1058.724)" fill="#e4001b"/>
    <path id="Path_13770" data-name="Path 13770" d="M2407.1,1090.255a6.559,6.559,0,0,0,1.491-.162,2.924,2.924,0,0,1,.929,0,.837.837,0,0,1,.735,1.114,5.693,5.693,0,0,1-.8,1.78c-.074.124-.168.236-.232.365a.474.474,0,0,1-.681.28.352.352,0,0,1-.25-.254q-.171-.521-.342-1.042c-.026-.08-.024-.2-.144-.191s-.108.12-.12.2c-.048.352-.12.7-.137,1.057s-.342.325-.536.454c-.167.112-.234-.066-.316-.149a8.165,8.165,0,0,1-1.334-1.658c-.57-1-.288-1.569.846-1.746A6.861,6.861,0,0,1,2407.1,1090.255Z" transform="translate(-2287.283 -1014.959)" fill="#e4001b"/>
    <path id="Path_13771" data-name="Path 13771" d="M2376.644,1116.378c-.166,0-.334-.007-.5,0-.1.006-.253-.064-.294.073s.13.156.217.2c.345.178.688.362,1.048.506.237.095.164.28.2.44.043.182-.108.2-.207.25a7.593,7.593,0,0,1-2.251.787c-.789.1-1.218-.291-1.159-1.084a1.7,1.7,0,0,1,.052-.329c.254-.908.416-1.837.642-2.749.258-1.044.913-1.24,1.782-.591a8.753,8.753,0,0,1,1.576,1.67c.085.108.042.177,0,.29C2377.559,1116.408,2377.137,1116.456,2376.644,1116.378Z" transform="translate(-2258.836 -1036.218)" fill="#e4001b"/>
    <path id="Path_13772" data-name="Path 13772" d="M2458.116,1110.85a9.173,9.173,0,0,1-2.225-.41c-.227-.066-.27-.488-.069-.64.347-.261.7-.512,1.047-.77.057-.041.156-.07.1-.176s-.132-.063-.206-.051c-.383.066-.771.115-1.146.207a.331.331,0,0,1-.408-.157c-.357-.482-.367-.476-.075-1a6.554,6.554,0,0,1,1.139-1.593q.986-.938,1.667.244a.443.443,0,0,1,.033.058c.4.947.807,1.892,1.2,2.842a1.528,1.528,0,0,1,.1.454.789.789,0,0,1-.7.928C2458.4,1110.823,2458.223,1110.836,2458.116,1110.85Z" transform="translate(-2332.467 -1029.274)" fill="#e4001b"/>
    <path id="Path_13773" data-name="Path 13773" d="M2390.331,1169.757a3.322,3.322,0,0,1-.13,1.18.816.816,0,0,1-1.131.6,3.288,3.288,0,0,1-1.055-.557,7.475,7.475,0,0,0-1.225-.735,3.4,3.4,0,0,1-.967-.643.843.843,0,0,1,0-1.338,3.577,3.577,0,0,1,.992-.665c.3-.146.6-.278.913-.4.615-.245.613-.237,1.007.291.078.1.046.178.015.274q-.207.632-.406,1.266c-.022.07-.073.159,0,.216.1.074.161-.025.219-.086.311-.319.639-.623.92-.966.2-.24.388-.058.579-.057s.122.178.151.284a1.724,1.724,0,0,1,.045.3A6.9,6.9,0,0,1,2390.331,1169.757Z" transform="translate(-2269.531 -1084.741)" fill="#e4001b"/>
    <path id="Path_13774" data-name="Path 13774" d="M2443.744,1164.67a1.667,1.667,0,0,1-.014-.233c.011-.142-.12-.336.083-.412.221-.082.435-.256.7-.02a10.546,10.546,0,0,0,.968.708c.076.053.153.178.256.094.125-.1-.008-.2-.052-.291-.185-.366-.371-.734-.578-1.087-.2-.338.168-.482.229-.73.048-.19.229-.1.342-.077a8.073,8.073,0,0,1,1.856.511,3.251,3.251,0,0,1,.442.23c.583.38.716.9.232,1.394a20.9,20.9,0,0,1-2.735,2.374c-.548.4-1.034.2-1.328-.416A5.408,5.408,0,0,1,2443.744,1164.67Z" transform="translate(-2322.288 -1080.694)" fill="#e4001b"/>
    <path id="Path_13775" data-name="Path 13775" d="M2424.154,1138.339a1.4,1.4,0,0,1,1.414,1.415,1.433,1.433,0,0,1-1.432,1.409,1.414,1.414,0,0,1-1.387-1.411A1.384,1.384,0,0,1,2424.154,1138.339Z" transform="translate(-2303.299 -1058.721)" fill="#e4001b"/>
    <path id="Path_13776" data-name="Path 13776" d="M2406.27,809.472c-.249-.535-.494-1.069-.746-1.6a.16.16,0,0,1,.071-.242,45.4,45.4,0,0,1,3.917-2.466,4.915,4.915,0,0,1,1.366-.41.407.407,0,0,1,.347.062,5.531,5.531,0,0,1,1.091,1.12c.056.077.144.149-.032.217A41.772,41.772,0,0,0,2406.27,809.472Z" transform="translate(-2287.662 -756.361)" fill="#e4001b"/>
    <path id="Path_13777" data-name="Path 13777" d="M2416.632,828.672c-.155.024-.171-.055-.2-.13-.1-.269-.208-.538-.325-.8-.048-.111-.04-.173.07-.239a43.57,43.57,0,0,1,5.751-3.208c.278-.114.415-.072.518.2.456,1.221.593,1.023-.483,1.883a12.3,12.3,0,0,1-4.194,1.97C2417.377,828.472,2416.98,828.574,2416.632,828.672Z" transform="translate(-2297.254 -774.028)" fill="#e4001b"/>
    <path id="Path_13778" data-name="Path 13778" d="M2429.167,844.987a7.482,7.482,0,0,1-.006,1.342,2.612,2.612,0,0,1-1.236,1.815,9.1,9.1,0,0,1-2.98,1.278c-.362.1-.734.177-1.092.294-.18.059-.229-.009-.285-.15-.176-.454-.349-.911-.547-1.357-.1-.216-.047-.273.172-.331a18.166,18.166,0,0,0,4.3-1.652A7.689,7.689,0,0,0,2429.167,844.987Z" transform="translate(-2303.503 -792.837)" fill="#e4001b"/>
    <path id="Path_13779" data-name="Path 13779" d="M2391.108,837.868c.3-.076.452.111.6.422.783,1.63,1.384,3.335,2.095,4.994.111.259-.066.365-.2.5-.415.43-.421.428-.789-.036a9.6,9.6,0,0,1-2.212-5.427C2390.578,837.853,2390.587,837.852,2391.108,837.868Z" transform="translate(-2274.159 -786.37)" fill="#e4001b"/>
    <path id="Path_13780" data-name="Path 13780" d="M2376.873,844.721c-.095.063-.159.011-.231-.018a5.433,5.433,0,0,1-3.2-5.772c.045-.272.188-.3.389-.349.67-.154.654-.157.709.518a10.051,10.051,0,0,0,2.09,5.248C2376.717,844.467,2376.845,844.565,2376.873,844.721Z" transform="translate(-2258.548 -786.955)" fill="#e4001b"/>
    <path id="Path_13781" data-name="Path 13781" d="M2390.377,802.135c-.365.236-.729.47-1.09.708a.214.214,0,0,1-.245.028,4.209,4.209,0,0,0-3.333-.156c-.032.009-.063.013-.17.034.568-.557.978-1.226,1.79-1.321A3.678,3.678,0,0,1,2390.377,802.135Z" transform="translate(-2269.573 -753.316)" fill="#e4001b"/>
    <path id="Path_13782" data-name="Path 13782" d="M2380.233,818.2c-.6.394-1.125.74-1.649,1.091a.412.412,0,0,1-.287.049,6.976,6.976,0,0,0-2.13.141c.185-.579.308-1.1,1-1.287a4.827,4.827,0,0,1,2.522-.182C2379.843,818.052,2379.995,818.117,2380.233,818.2Z" transform="translate(-2261.079 -768.296)" fill="#e4001b"/>
    <path id="Path_13783" data-name="Path 13783" d="M2415.926,793.865a5.493,5.493,0,0,1,4.014.452,6.511,6.511,0,0,0-1.417.515.171.171,0,0,1-.212-.013,4.208,4.208,0,0,0-2.291-.9C2416,793.917,2415.981,793.9,2415.926,793.865Z" transform="translate(-2297.115 -746.33)" fill="#e4001c"/>
    <path id="Path_13784" data-name="Path 13784" d="M2425.163,895.523c-.758,1.34-1.1,1.483-2.593,1.227C2423.154,895.783,2424.243,895.92,2425.163,895.523Z" transform="translate(-2303.137 -838.641)" fill="#e4001c"/>
    <path id="Path_13785" data-name="Path 13785" d="M2451.657,889.309a1.857,1.857,0,0,1-1.687,1.542,4.237,4.237,0,0,0,.589-1.043.209.209,0,0,1,.137-.131C2451,889.56,2451.311,889.442,2451.657,889.309Z" transform="translate(-2327.972 -833.009)" fill="#e4001c"/>
    <path id="Path_13786" data-name="Path 13786" d="M2473,882.348c.009-.526.309-.78.765-1A4.14,4.14,0,0,1,2473,882.348Z" transform="translate(-2348.844 -825.79)" fill="#e50d20"/>
    <path id="Path_13787" data-name="Path 13787" d="M1246.758,804.7a4.917,4.917,0,0,1,1.83.574c1.262.681,2.4,1.556,3.615,2.317a.157.157,0,0,1,.068.243c-.231.479-.458.96-.668,1.449-.088.206-.177.094-.274.035-.7-.427-1.4-.86-2.1-1.283a23.3,23.3,0,0,0-3.656-1.9c-.112-.043-.217-.075-.105-.223a5.644,5.644,0,0,1,1.143-1.159A.244.244,0,0,1,1246.758,804.7Z" transform="translate(-1236.205 -756.32)" fill="#e4001b"/>
    <path id="Path_13788" data-name="Path 13788" d="M1237.608,823.934c.171.067.37.137.563.221a34.544,34.544,0,0,1,4.247,2.345c.369.226.73.465,1.108.676.177.1.2.2.114.37-.136.276-.147.693-.386.816s-.587-.1-.882-.181a14.54,14.54,0,0,1-4.332-1.9c-.091-.063-.18-.13-.267-.2-.907-.708-.964-1.035-.356-2.025C1237.456,823.995,1237.476,823.907,1237.608,823.934Z" transform="translate(-1228.59 -773.751)" fill="#e4001b"/>
    <path id="Path_13789" data-name="Path 13789" d="M1235.018,845.241a13.9,13.9,0,0,0,5.949,2.861c.245.068.3.122.188.365-.205.442-.377.9-.554,1.354-.047.122-.085.172-.237.132a18.2,18.2,0,0,1-3.189-1.036,4.58,4.58,0,0,1-1.731-1.323A3.217,3.217,0,0,1,1235.018,845.241Z" transform="translate(-1226.748 -793.067)" fill="#e4001b"/>
    <path id="Path_13790" data-name="Path 13790" d="M1302.839,838.352a9.89,9.89,0,0,1-2.468,5.827c-.033.039-.078.093-.12.094-.232.009-.7-.641-.617-.85.7-1.711,1.335-3.454,2.153-5.118.05-.1.052-.264.207-.273a3.627,3.627,0,0,1,.8,0C1302.91,838.052,1302.817,838.252,1302.839,838.352Z" transform="translate(-1285.338 -786.513)" fill="#e4001b"/>
    <path id="Path_13791" data-name="Path 13791" d="M1312.366,844.692a11.2,11.2,0,0,0,2.056-3.689,8.9,8.9,0,0,0,.43-2.419c.006-.215.058-.257.267-.219.773.14.775.132.854.879A5.43,5.43,0,0,1,1312.366,844.692Z" transform="translate(-1296.885 -786.823)" fill="#e4001b"/>
    <path id="Path_13792" data-name="Path 13792" d="M1286.925,801.984a4.045,4.045,0,0,1,2.718-.744c.951.028,1.474.663,2.078,1.305a.911.911,0,0,1-.51-.073,3.977,3.977,0,0,0-2.885.247.283.283,0,0,1-.331-.039C1287.651,802.453,1287.306,802.232,1286.925,801.984Z" transform="translate(-1273.826 -753.183)" fill="#e4001b"/>
    <path id="Path_13793" data-name="Path 13793" d="M1305.042,818.139a3.681,3.681,0,0,1,2.468-.177c.108.025.211.074.32.089a1.407,1.407,0,0,1,1.242,1.354,6.91,6.91,0,0,0-2.182-.133.371.371,0,0,1-.248-.072C1306.125,818.856,1305.607,818.514,1305.042,818.139Z" transform="translate(-1290.247 -768.225)" fill="#e4001b"/>
    <path id="Path_13794" data-name="Path 13794" d="M1266.009,794.374a5.2,5.2,0,0,1,3.952-.459,1.9,1.9,0,0,1-.671.144,3.849,3.849,0,0,0-1.609.749.28.28,0,0,1-.354.032A5.63,5.63,0,0,0,1266.009,794.374Z" transform="translate(-1254.869 -746.371)" fill="#e4001b"/>
    <path id="Path_13795" data-name="Path 13795" d="M1274.434,895.978c.64.167,1.246.3,1.831.49.328.108.471.486.8.667C1275.587,897.434,1275.163,897.287,1274.434,895.978Z" transform="translate(-1262.505 -839.054)" fill="#e4001c"/>
    <path id="Path_13796" data-name="Path 13796" d="M1258.118,891.077a1.835,1.835,0,0,1-1.639-1.514C1257.38,889.787,1257.65,890.035,1258.118,891.077Z" transform="translate(-1246.232 -833.239)" fill="#e4001c"/>
    <path id="Path_13797" data-name="Path 13797" d="M1244.2,882.9a5.368,5.368,0,0,1-.712-.919A.827.827,0,0,1,1244.2,882.9Z" transform="translate(-1234.453 -826.367)" fill="#e50e20"/>
    <path id="Path_13798" data-name="Path 13798" d="M1552.712,402.986c0,.083-.073.1-.131.125-.713.336-1.43.664-2.137,1.014-.237.117-.238-.074-.29-.184-.666-1.4-1.333-2.808-1.983-4.219-.123-.268-.225-.323-.508-.182-.964.479-1.943.929-2.922,1.377-.21.1-.242.182-.141.392.683,1.421,1.347,2.85,2.028,4.271.106.22.085.313-.151.416-.661.289-1.311.6-1.959.921-.181.089-.259.062-.348-.126q-2.376-5.065-4.772-10.121c-.087-.183-.071-.253.118-.337.668-.3,1.333-.609,1.987-.939.215-.109.294-.066.388.138.6,1.289,1.212,2.571,1.8,3.862.1.225.189.268.415.158q1.467-.713,2.951-1.392c.232-.106.281-.2.163-.441-.615-1.269-1.2-2.551-1.815-3.82-.108-.224-.088-.314.142-.417.66-.293,1.309-.608,1.958-.924.172-.084.256-.079.348.119q2.384,5.08,4.784,10.152C1552.669,402.88,1552.689,402.932,1552.712,402.986Z" transform="translate(-1502.617 -382.725)" fill="#fff"/>
    <path id="Path_13799" data-name="Path 13799" d="M1413.824,496.243a5.948,5.948,0,0,1,4.747-5.867,6.307,6.307,0,0,1,2.481.1c.159.037.217.1.162.278a6.791,6.791,0,0,0-.213.907c-.032.2-.11.224-.29.184a5.384,5.384,0,0,0-2.15-.142,3.239,3.239,0,0,0-2.527,4,6.466,6.466,0,0,0,3.856,4.412,3.265,3.265,0,0,0,4.5-2.53,3.518,3.518,0,0,0-.13-1.906c-.086-.24-.031-.327.211-.374a6.479,6.479,0,0,0,.867-.233c.2-.07.271-.035.337.187a5.5,5.5,0,0,1-3.112,6.63,6.1,6.1,0,0,1-8.322-3.463A5.72,5.72,0,0,1,1413.824,496.243Z" transform="translate(-1388.843 -471.36)" fill="#fff"/>
    <path id="Path_13800" data-name="Path 13800" d="M1707.22,361.9c.043.208-.107.2-.24.227-1.186.239-2.369.492-3.558.716-.247.046-.271.12-.224.344.238,1.129.461,2.262.678,3.4.042.217.138.226.325.187,1.3-.27,2.612-.522,3.915-.8.211-.045.277,0,.3.2a5.068,5.068,0,0,0,.163.815c.071.227-.011.293-.21.333q-1.861.369-3.721.747c-.947.191-1.9.372-2.838.577-.242.053-.3-.02-.347-.241q-1.084-5.4-2.185-10.8c-.053-.26-.052-.39.287-.455,2.136-.41,4.266-.853,6.4-1.292.226-.047.32.008.348.241a7.217,7.217,0,0,0,.155.75c.047.2.026.307-.229.355-1.276.242-2.544.523-3.82.764-.245.046-.251.145-.213.33.205,1.012.415,2.022.605,3.037.048.251.191.216.354.183,1.153-.234,2.307-.463,3.457-.708.264-.056.409-.025.441.278C1707.1,361.362,1707.167,361.633,1707.22,361.9Z" transform="translate(-1647.551 -349.494)" fill="#fff"/>
    <path id="Path_13801" data-name="Path 13801" d="M2076.7,408.321c-.1-.02-.117.07-.15.135-.487.96-.967,1.924-1.464,2.879-.113.216.032.241.157.3,1.071.54,2.137,1.088,3.215,1.613.255.124.289.234.14.463a3.869,3.869,0,0,0-.331.652c-.089.219-.192.24-.4.134-1.055-.546-2.122-1.068-3.174-1.619-.247-.129-.348-.1-.469.152q-.735,1.512-1.512,3c-.107.206-.083.291.127.394,1.184.585,2.358,1.189,3.541,1.777.182.091.244.167.125.363-.183.3-.266.78-.521.893s-.621-.242-.934-.4c-1.756-.881-3.507-1.774-5.265-2.65-.213-.106-.229-.182-.124-.388q2.519-4.958,5.014-9.928c.12-.24.216-.228.42-.124q2.922,1.49,5.855,2.959c.218.109.272.2.14.415-.177.293-.26.757-.507.864s-.6-.238-.906-.388c-.926-.456-1.844-.929-2.765-1.395Z" transform="translate(-1983.217 -394.868)" fill="#fff"/>
    <path id="Path_13802" data-name="Path 13802" d="M1960.511,365.737a4.087,4.087,0,0,1,4.046,3.092c.053.225.01.322-.208.383a7.933,7.933,0,0,0-.916.3c-.219.092-.272,0-.3-.184a2.9,2.9,0,0,0-.4-1.087,1.887,1.887,0,0,0-1.959-.832,1.5,1.5,0,0,0-.772,2.352,8.406,8.406,0,0,0,1.507,1.259,9.813,9.813,0,0,1,1.085.937,3.561,3.561,0,0,1-1.23,5.651,4.691,4.691,0,0,1-5.406-1.5,4.4,4.4,0,0,1-.494-1.052c-.06-.176-.04-.284.156-.354.344-.124.684-.262,1.018-.412.171-.077.247-.065.307.132a4.769,4.769,0,0,0,.323.8,1.942,1.942,0,0,0,2.091,1.025,1.643,1.643,0,0,0,.888-2.738,8.008,8.008,0,0,0-1.362-1.124c-.323-.237-.637-.484-.941-.746a3.346,3.346,0,0,1,.426-5.289A3.808,3.808,0,0,1,1960.511,365.737Z" transform="translate(-1879.739 -358.461)" fill="#fff"/>
    <path id="Path_13803" data-name="Path 13803" d="M2179.546,503.956l-4.319,12.735c-.692-.6-1.353-1.179-2.021-1.748-.125-.107-.086-.2-.044-.322.286-.828.567-1.657.849-2.486.047-.136.093-.251-.058-.378q-1.12-.949-2.217-1.924a.3.3,0,0,0-.406-.041c-.76.414-1.53.808-2.29,1.224a.293.293,0,0,1-.4-.047c-.332-.309-.68-.6-1.065-.939l11.9-6.153Z" transform="translate(-2072.015 -483.666)" fill="#fff"/>
    <path id="Path_13804" data-name="Path 13804" d="M1842.918,356.016c.043-1.847.092-3.695.123-5.542,0-.258.084-.313.326-.3.723.034,1.446.049,2.169.06.169,0,.231.046.226.227-.044,2-.079,4.007-.12,6.01-.026,1.224-.052,2.448-.094,3.672-.008.233.079.276.284.28,1.28.025,2.559.068,3.839.087.26,0,.355.067.324.337a6.191,6.191,0,0,0-.033.9c.006.219-.064.278-.285.272-2.059-.052-4.118-.089-6.177-.136-.706-.016-.71-.023-.695-.724q.057-2.571.12-5.141Z" transform="translate(-1777.657 -344.353)" fill="#fff"/>
    <path id="Path_13805" data-name="Path 13805" d="M2186.966,1441.448a2.13,2.13,0,0,1-.77,1.693,2.751,2.751,0,0,1-2.257.854,1.768,1.768,0,0,1-1.188-.734c-.884-1.184-1.75-2.382-2.631-3.569-.113-.152-.071-.217.058-.307.272-.192.544-.386.8-.6.155-.125.232-.115.354.055.806,1.118,1.623,2.228,2.441,3.337a1.17,1.17,0,0,0,1.952.13,1.023,1.023,0,0,0,.1-1.492c-.8-1.1-1.6-2.186-2.4-3.282-.081-.11-.273-.242-.19-.349a2.011,2.011,0,0,1,.549-.421c.079-.049.129.063.172.122.906,1.237,1.816,2.473,2.715,3.715A1.461,1.461,0,0,1,2186.966,1441.448Z" transform="translate(-2083.329 -1329.194)" fill="#fff"/>
    <path id="Path_13806" data-name="Path 13806" d="M2054.875,1519.006a3.843,3.843,0,0,0,1.1,2.434,1.72,1.72,0,0,0,1.95.468,1.907,1.907,0,0,0,1.284-1.715c.04-.535.4-.236.608-.268.3-.045.187.2.17.342a3.08,3.08,0,0,1-3.069,2.7,3.356,3.356,0,0,1-3.306-2.544,3.314,3.314,0,0,1,2.774-4.216,2.992,2.992,0,0,1,2.032.485c.13.079.135.153.049.262a.717.717,0,0,0-.108.168c-.107.248-.235.282-.478.13a2.005,2.005,0,0,0-1.384-.379A1.911,1.911,0,0,0,2054.875,1519.006Z" transform="translate(-1968.617 -1401.179)" fill="#fff"/>
    <path id="Path_13807" data-name="Path 13807" d="M1404.265,1397.158c-.05-.044-.109-.092-.164-.144-.388-.367-.783-.727-1.158-1.107-.161-.163-.254-.173-.416,0-.534.581-1.1,1.137-1.627,1.723-.186.205-.294.181-.464,0a9.3,9.3,0,0,0-.677-.643c-.115-.1-.131-.17-.016-.29q2.091-2.18,4.171-4.371c.1-.108.168-.138.291-.019q1.237,1.194,2.488,2.373c.12.113.128.188,0,.29a1.009,1.009,0,0,0-.183.193c-.12.168-.213.16-.362.011-.439-.441-.9-.858-1.345-1.3-.131-.129-.206-.143-.338,0-.351.387-.715.763-1.086,1.133-.134.134-.131.218.009.346.4.367.8.745,1.186,1.126.068.066.24.124.133.255A4.284,4.284,0,0,1,1404.265,1397.158Z" transform="translate(-1376.01 -1288.841)" fill="#fff"/>
    <path id="Path_13808" data-name="Path 13808" d="M1782.518,1557.586l1.894,5.864c.1.316.2.634.308.949.05.145.021.207-.141.193q-.582-.048-1.165-.086c-.157-.011-.188-.121-.226-.245-.124-.4-.261-.8-.385-1.2a.267.267,0,0,0-.275-.224c-.488-.027-.976-.068-1.463-.117a.281.281,0,0,0-.325.2c-.163.365-.354.718-.509,1.085a.314.314,0,0,1-.4.223c-.582-.087-.584-.075-.318-.62q1.357-2.783,2.718-5.564A1.042,1.042,0,0,1,1782.518,1557.586Z" transform="translate(-1720.136 -1438.713)" fill="#fff"/>
    <path id="Path_13809" data-name="Path 13809" d="M1706.036,1550.155a1.756,1.756,0,0,1,.022,2.779,2.107,2.107,0,0,1-1.816.291c-.815-.169-1.627-.355-2.443-.515-.2-.038-.229-.1-.19-.286q.625-2.914,1.229-5.831c.043-.209.095-.241.3-.194.854.2,1.719.349,2.569.558a1.705,1.705,0,0,1,1.35,2.107A1.522,1.522,0,0,1,1706.036,1550.155Z" transform="translate(-1649.67 -1428.557)" fill="#fff"/>
    <path id="Path_13810" data-name="Path 13810" d="M2248.178,1392.84a1.755,1.755,0,0,1,1.815,2.863c-.564.676-1.251,1.232-1.869,1.858-.407.411-.413.405-.822-.017-1.286-1.326-2.566-2.657-3.861-3.975-.19-.193-.168-.289.017-.461.562-.523,1.1-1.07,1.656-1.6a1.962,1.962,0,0,1,1.67-.655,1.622,1.622,0,0,1,1.383,1.892A.271.271,0,0,0,2248.178,1392.84Z" transform="translate(-2140.662 -1287.577)" fill="#fff"/>
    <path id="Path_13811" data-name="Path 13811" d="M1931.833,1556.687c.165-.028.173.077.191.2q.327,2.1.663,4.209c.048.307.1.613.137.922.022.193.1.227.288.193.633-.114,1.272-.2,1.9-.313.238-.044.305.042.336.255.068.481.077.488-.432.572-1.04.173-2.082.335-3.122.507-.19.032-.281-.013-.312-.22-.3-1.963-.612-3.925-.918-5.888-.016-.1-.067-.219.115-.246C1931.067,1556.822,1931.45,1556.751,1931.833,1556.687Z" transform="translate(-1857.186 -1437.894)" fill="#fff"/>
    <path id="Path_13812" data-name="Path 13812" d="M1865.586,1563.242c.677-.019.671-.019.7.642.063,1.567.136,3.135.194,4.7.008.207.073.265.274.253.645-.038,1.291-.048,1.934-.092.2-.014.27.017.278.233.018.569.03.567-.536.59-1,.041-2,.077-3,.132-.252.014-.371-.009-.38-.314-.042-1.356-.113-2.712-.171-4.068-.025-.578-.035-1.157-.073-1.734-.017-.255.045-.374.318-.347C1865.273,1563.255,1865.43,1563.242,1865.586,1563.242Z" transform="translate(-1797.592 -1443.834)" fill="#fff"/>
    <path id="Path_13813" data-name="Path 13813" d="M1638.8,1531.611c-.418-.146-.821-.273-1.21-.432-.15-.061-.028-.2,0-.288q.732-2.1,1.474-4.2c.084-.24.153-.487.253-.721.071-.165.036-.24-.131-.291-.244-.074-.482-.171-.726-.244-.161-.048-.206-.12-.155-.289.146-.481.139-.481.618-.314,1,.352,2,.714,3.015,1.047.251.083.216.206.134.359s-.025.488-.381.325a.175.175,0,0,0-.03-.014c-.3-.07-.629-.36-.858-.227-.2.117-.232.524-.331.805q-.747,2.116-1.491,4.234C1638.955,1531.461,1638.961,1531.611,1638.8,1531.611Z" transform="translate(-1591.596 -1408.931)" fill="#fff"/>
    <path id="Path_13814" data-name="Path 13814" d="M2127.24,1490.527c.121.016.133.133.178.213.728,1.3,1.45,2.6,2.18,3.891.145.258.226.663.47.72.211.049.5-.225.752-.363.38-.209.76-.415,1.13-.639.168-.1.253-.1.358.088.268.489.278.482-.219.759-.891.5-1.786.989-2.67,1.5-.2.116-.3.129-.428-.105q-1.418-2.581-2.869-5.144c-.1-.171-.1-.256.095-.349.3-.145.582-.323.871-.486C2127.137,1490.58,2127.187,1490.556,2127.24,1490.527Z" transform="translate(-2034.389 -1377.933)" fill="#fff"/>
    <path id="Path_13815" data-name="Path 13815" d="M1554.081,1499.283a3.588,3.588,0,0,1-3.244,3.574,3.2,3.2,0,0,1-3-4.537,3.372,3.372,0,0,1,3.126-2.2A3.163,3.163,0,0,1,1554.081,1499.283Z" transform="translate(-1510.054 -1382.998)" fill="#fff"/>
    <path id="Path_13816" data-name="Path 13816" d="M1470.674,1454.954a3.151,3.151,0,0,1-3.162-3.121,3.617,3.617,0,0,1,3.4-3.572,3.174,3.174,0,0,1,3.2,3.126A3.61,3.61,0,0,1,1470.674,1454.954Z" transform="translate(-1437.505 -1339.626)" fill="#fff"/>
    <path id="Path_13817" data-name="Path 13817" d="M1609.713,681.073a2.2,2.2,0,0,1-1.919-1.71.843.843,0,0,1-.008-.164c.145-.013.172.12.239.2a1.263,1.263,0,0,0,1.336.468,1.229,1.229,0,0,0,.967-1.029,1.267,1.267,0,0,0-.533-1.279,1.123,1.123,0,0,0-.684-.222c-.117,0-.275.047-.322-.137l.233-.15c-.448,0-.821-.013-1.193.005-.213.011-.265-.063-.256-.263.018-.4.012-.8.015-1.2.186-.153.422-.106.633-.146a7.585,7.585,0,0,0,1-.237.717.717,0,0,0,.5-.348.65.65,0,0,0,.036-.263c0-3.706.009-7.411-.007-11.115-.077-.159-.186-.068-.281-.029a1.863,1.863,0,0,0-.667.591c-.051.059-.091.127-.144.183s-.1.173-.209.117c-.089-.047-.077-.155-.065-.243a3.939,3.939,0,0,1,.443-1.529c.241-.4.1-.447-.261-.506-.327-.054-.661-.006-.99-.056a4.265,4.265,0,0,0-1.264.9c-.146-.189-.068-.382,0-.568a5.558,5.558,0,0,1,1.05-1.721c.234-.279.221-.3-.119-.4-.224-.066-.47.014-.678-.12a2.563,2.563,0,0,0-1.36.519c-.215.141-.174-.006-.162-.131a3.064,3.064,0,0,1,1.907-2.185.46.46,0,0,0,.264-.189,1.328,1.328,0,0,1,.9-.634,6.485,6.485,0,0,1,1.839-.285c.3,0,.594-.093.9-.074.464,0,.927,0,1.39,0a12.219,12.219,0,0,0,3.487-1.1,79.447,79.447,0,0,0,8.046-4.265c1.2-.7,2.385-1.432,3.58-2.175-.694-.123-1.388-.066-2.071-.16a12.109,12.109,0,0,1-1.511-.26.855.855,0,0,1-.387-.187c-.212-.261-.314-.586-.5-.865a4.77,4.77,0,0,0-.349-.488c-.262-.305-.376-.3-.607.021a4.969,4.969,0,0,1-2.489,1.708,6.032,6.032,0,0,1-2.236.273,3.022,3.022,0,0,1-2.086-.962c-.135-.149-.308-.3-.254-.543a5.021,5.021,0,0,1,.887,0,2.139,2.139,0,0,0,.868-.2,1.4,1.4,0,0,0,.383-2.229,2.541,2.541,0,0,0-1.631-.88c-.712-.218-1.4-.51-2.129-.68-.455-.106-.913-.2-1.374-.276-.121-.02-.244-.055-.338.063a.947.947,0,0,0-.044.461q0,5.4,0,10.8c0,.133,0,.267,0,.4-.017.33-.11.426-.437.382a3.309,3.309,0,0,1-1.207-.193.9.9,0,0,1-.077-.552q0-5.377,0-10.753a1.421,1.421,0,0,0-1.048-1.329c-.116-.036-.225-.088-.336-.134-.142-.026-.285-.046-.426-.079a1.58,1.58,0,0,1-1.352-1.776.829.829,0,0,0-.209-.628,2.962,2.962,0,0,1-.343-.531,1.077,1.077,0,0,1,.151-1.324c.169-.191.4-.378.456-.6.059-.241-.224-.429-.365-.628a1.98,1.98,0,0,1,.813-2.582,3.749,3.749,0,0,1,1.208-.352.437.437,0,0,1,.409.068,5.327,5.327,0,0,0,.8.339c.2.074.258-.017.25-.205-.008-.211-.009-.422,0-.633.01-.246-.078-.334-.337-.3a1.9,1.9,0,0,1-1.048-.054,4.46,4.46,0,0,1-1.8-.622l.8-.338c.157-.209.433-.235.621-.4-.03-.086-.12-.094-.168-.151a6.04,6.04,0,0,1-2.718-4.686,6.839,6.839,0,0,1,1.467-5.226,3.773,3.773,0,0,1,1.6-1.208,6.1,6.1,0,0,1,5.809,1.207,6.942,6.942,0,0,1,1.325,1.531.8.8,0,0,1,.25.348,5.553,5.553,0,0,1-.53,5.868,10,10,0,0,1-3.3,3.056.647.647,0,0,0-.2.167.5.5,0,0,0-.057.323c0,.546.013,1.092,0,1.636a.453.453,0,0,0,.357.514c.612.2,1.213.443,1.812.683a8.467,8.467,0,0,1,1.29.623,20.579,20.579,0,0,0,2.194,1.084,13.792,13.792,0,0,1,3.758,2.568,5.592,5.592,0,0,1,1.819,2.93,3.822,3.822,0,0,1-.026,1.656c-.069.288-.057.293.253.255a2.364,2.364,0,0,0,2.043-1.774,3.991,3.991,0,0,0-.071-2.874.416.416,0,0,1,.053-.463,17.926,17.926,0,0,0,1.873-3.343c.3-.621.555-1.263.8-1.911.1-.261.179-.527.26-.793s-.01-.387-.265-.463a6.538,6.538,0,0,1-2.277-1.16,2.777,2.777,0,0,1-1.07-2c-.012-.161-.095-.4.2-.444a1.7,1.7,0,0,0,1.513.852,7.351,7.351,0,0,0,.895,0,5.3,5.3,0,0,0,2.593-1.019,3.21,3.21,0,0,0,.424-4.424,1.513,1.513,0,0,0-1.771-.346c-.235.1-.438.262-.661.385-.07.039-.166.168-.246,0a3.684,3.684,0,0,1,3.2-2.146.331.331,0,0,1,.162-.021c.893.044,1.783-.1,2.677-.068.3.01.312-.02.175-.295a2.23,2.23,0,0,1-.207-.592,3.022,3.022,0,0,1-.007-.556,4.036,4.036,0,0,1,1.165-2.232,1.911,1.911,0,0,1,.594-.418c.212-.121.288-.091.293.184a2.959,2.959,0,0,0,1.094,2.2,9.282,9.282,0,0,0,3.5,1.8,26.516,26.516,0,0,0,4.322.938.73.73,0,0,1,.69.485,2.587,2.587,0,0,0,1.335,1.34,2.573,2.573,0,0,1,1.148,1.078.338.338,0,0,1,.02.367,3.083,3.083,0,0,1-.592,1.028c-.1.147-.267.045-.4.008-.358-.1-.382-.1-.36.254a1.084,1.084,0,0,1-.382.909,7.958,7.958,0,0,0-1.377,1.874,2.689,2.689,0,0,1-.154.257c-.081.112-.13.324-.29.272-.141-.045-.046-.238-.048-.365a.74.74,0,0,0-.681-.8c-1.394-.292-2.117.527-2.607,1.6a.91.91,0,0,0,.581,1.183,1.813,1.813,0,0,0,.985.09,7.679,7.679,0,0,0,.784-.164c.263-.065.32.078.28.292-.07.371-.078.748-.13,1.12a1.9,1.9,0,0,0,.021.626,12.45,12.45,0,0,0,.126,1.728.617.617,0,0,1,.007.133c-.007.088,0,.194-.092.235s-.163-.047-.218-.112a4.112,4.112,0,0,0-1.123-.884,4,4,0,0,0-1.651-.5,1.816,1.816,0,0,0-1.849,1.22,4.7,4.7,0,0,0,0,3.521,2.7,2.7,0,0,0,1.715,1.574,2.149,2.149,0,0,0,1.249.013,1.267,1.267,0,0,0,.917-.884c.029-.1.017-.245.161-.26.108-.011.175.088.233.169a4.4,4.4,0,0,1,.94,2.248,3.116,3.116,0,0,1-.758,2.383,3.964,3.964,0,0,1-3.9,1.314c-.163-.052-.221-.021-.235.146-.057.643-.114,1.285-.125,1.93a.526.526,0,0,0,.135.334,7.309,7.309,0,0,1,1.225,2.935c.375,1.617.548,3.271.836,4.9a15.3,15.3,0,0,0,1.274,4.238.987.987,0,0,1,.069.188,6.624,6.624,0,0,0,5.8,4.724,7.282,7.282,0,0,0,2.384-.134,3.407,3.407,0,0,0,2.734-2.7,5.7,5.7,0,0,0-.2-2.868,10.639,10.639,0,0,0-2.244-3.754,22.934,22.934,0,0,1-2.552-3.292,7.248,7.248,0,0,1-.96-3.092,5.918,5.918,0,0,1,1.468-4.3,22.68,22.68,0,0,1,3.112-2.964,18.832,18.832,0,0,0,2.6-2.433,4.015,4.015,0,0,0,.995-2.043,2.985,2.985,0,0,0-2.445-3.55c-.055-.009-.108-.026-.164-.031-.286-.011-.571-.005-.857,0a3.6,3.6,0,0,0-2.735,1.644,1.359,1.359,0,0,0-.213.521c-.051.171-.088.345-.133.518-.029.11-.027.286-.171.283-.122,0-.12-.169-.141-.273a3.793,3.793,0,0,1,.262-2.409c.055-.121.114-.241.18-.357a5.411,5.411,0,0,1,3.083-2.3,1.806,1.806,0,0,1,.681-.112,6.824,6.824,0,0,1,2.84.052,4.83,4.83,0,0,1,3.08,2.255c.045.075.1.147.145.22a2.079,2.079,0,0,1,.448.993,5.977,5.977,0,0,1,0,3.706,5.91,5.91,0,0,1-1.266,2.022,21.533,21.533,0,0,1-3.225,2.688,26.077,26.077,0,0,0-3.037,2.449,8.854,8.854,0,0,0-2.047,2.845,6.676,6.676,0,0,1,5.718-2.087,4.81,4.81,0,0,1,3.995,2.557,2.724,2.724,0,0,1,.42,1.906,5.135,5.135,0,0,1-1.692,3.408.444.444,0,0,1-.249.155,7.08,7.08,0,0,1-1.468.945c-.045-.14.065-.2.144-.271a2.956,2.956,0,0,0,.878-3.279,2.893,2.893,0,0,0-2.548-2.057,3.019,3.019,0,0,0-3.333,2.533,2,2,0,0,0,.365,1.643c.637,1,1.436,1.872,2.118,2.835a10.06,10.06,0,0,1,1.891,4.371,6.4,6.4,0,0,1-.026,2.321,4.384,4.384,0,0,1-2.733,3.187,8.2,8.2,0,0,1-2.918.633,12.377,12.377,0,0,1-5.374-.941,8.7,8.7,0,0,1-2.726-1.782,8.9,8.9,0,0,0,1.146,2.608,12,12,0,0,0,2.112,2.395.148.148,0,0,1,.036.055,5.6,5.6,0,0,0,4.993,1c.383-.095.755-.236,1.16-.335a20.213,20.213,0,0,0-1.669,2.309,1.631,1.631,0,0,1-.2.489,14.306,14.306,0,0,0-1.851,5.947,19.5,19.5,0,0,0-.117,2.764c.029.6.074,1.2.051,1.8a5.444,5.444,0,0,1-.187,1.452,1.259,1.259,0,0,1-1.323,1,2.722,2.722,0,0,0-.627.086,1.476,1.476,0,0,0-1.131,1.188c-.037.164-.014.366-.217.455a1.782,1.782,0,0,1-.558-1.459c.011-.273-.076-.357-.332-.337a6.756,6.756,0,0,0-.89.031,2.128,2.128,0,0,0-1.915,1.235c-.1.21-.091.46-.245.648l-.023.2c-.038.06-.02.211-.164.1a.755.755,0,0,1-.248-.385,2.28,2.28,0,0,1,.1-1.818c-.706,0-1.375-.045-2.044.021a4.258,4.258,0,0,0-2.116.74,1.541,1.541,0,0,0-.449,1.038c-.019.18-.061.161-.146.039a2.594,2.594,0,0,1-.225-2.216c-.236-.1-.539.064-.771-.128a.087.087,0,0,1-.022-.049,2.879,2.879,0,0,1,.208-1.529,3.03,3.03,0,0,1,1.991-1.745,9.309,9.309,0,0,1,2.324-.434c.222-.018.441-.055.663-.073.245,0,.491,0,.736,0,.412.008.818-.091,1.231-.07a.408.408,0,0,0,.372-.189,9.786,9.786,0,0,0,2.013-5.661,4.37,4.37,0,0,0-1.055-2.72.7.7,0,0,0-.614-.265,6.905,6.905,0,0,1-2.145-.257,3.494,3.494,0,0,1-2.778-2.824c-.058-.311-.278-.341-.512-.375a8.193,8.193,0,0,0-2.458.017,8.316,8.316,0,0,0-4.3,1.742,3.1,3.1,0,0,0-.931,1.12,1.875,1.875,0,0,0,.328,2.135,3.925,3.925,0,0,0,1.078.833.619.619,0,0,1,.258.2,10.293,10.293,0,0,0,2.436.814,12.977,12.977,0,0,0-1.561.393.575.575,0,0,1-.306.187,12.208,12.208,0,0,0-1.25.55,4.969,4.969,0,0,0-2.519,3.4q-.185.762-.38,1.521a3.471,3.471,0,0,1-2.749,2.73c-.292.067-.587.125-.877.2a1.773,1.773,0,0,0-1.417,1.5,1.535,1.535,0,0,0-.038.4c-.006.088,0,.2-.09.236-.113.045-.181-.061-.238-.136a3.4,3.4,0,0,1-.744-1.758c-.026-.278-.117-.37-.384-.346a5.681,5.681,0,0,1-.6,0,2.621,2.621,0,0,0-2.552,1.593.71.71,0,0,1-.155.254,1.84,1.84,0,0,0-.142.666c-.05.079,0,.177-.062.276a.468.468,0,0,1-.305-.3,2.241,2.241,0,0,1,.006-2.309c.123-.2.068-.252-.138-.244a7.512,7.512,0,0,0-1.159.039,5.633,5.633,0,0,0-1.689.263c-.282.106-.5.317-.792.4a1.559,1.559,0,0,0-.477,1.242c0,.12,0,.24.007.361-.2-.017-.219-.2-.273-.333a2.527,2.527,0,0,1,.193-2.6,2.752,2.752,0,0,0-.783-.038c-.263,0-.385-.1-.4-.365a2.788,2.788,0,0,1,2.236-3.219c.361-.067.724-.112,1.09-.146.578,0,1.156,0,1.733,0a13.163,13.163,0,0,1,1.43.079,5.08,5.08,0,0,0,3.811-1.565,8.762,8.762,0,0,0,2.638-5.3c.047-.331.059-.664.078-1a.643.643,0,0,0-.4-.687,4.012,4.012,0,0,1-.906-.675,3.549,3.549,0,0,1-.286-4.737,7.881,7.881,0,0,1,2.152-1.823,34.061,34.061,0,0,1,4.344-2.123,32.607,32.607,0,0,0,4.384-2.115,5.91,5.91,0,0,0,1.575-1.323,2.615,2.615,0,0,0-1.15-4.14,3.739,3.739,0,0,0-.609-.174c-.18-.034-.266.006-.166.206a4,4,0,0,1,.332,1.046,2.109,2.109,0,0,1-1.073,2.4,4.586,4.586,0,0,1-2.549.489c-.284-.2-.366-.545-.554-.814-.094-.135-.176-.281-.26-.424-.4-.682-.8-1.36-1.2-2.044-.2-.345-.224-.35-.5-.069a25,25,0,0,1-3.206,2.868,15.46,15.46,0,0,1-4.4,2.341c-.433.137-.439.141-.715-.236a2.073,2.073,0,0,0-1.193-.752,4.429,4.429,0,0,0-4.186.949,2.68,2.68,0,0,0-1.033,2.158c-.044.256-.177.237-.3.076a2.232,2.232,0,0,1-.594-1.549c.025-.4-.01-.441-.4-.56-.664-.2-.817-.065-.661.618a2.063,2.063,0,0,0,.785,1.24.641.641,0,0,1,.3.346,2.759,2.759,0,0,1,.023.533q0,3.736,0,7.471c0,.449-.024.544.479.533.261-.006.384.132.386.391.005.7.013,1.4,0,2.1-.007.319-.112.412-.427.435-.22.016-.441,0-.668,0a2.148,2.148,0,0,1,.982,2.26,2.284,2.284,0,0,1-1.938,1.737A.8.8,0,0,1,1609.713,681.073Z" transform="translate(-1562.142 -588.321)" fill="#003980"/>
    <path id="Path_13818" data-name="Path 13818" d="M1683.274,1028.591a6.534,6.534,0,0,0,1.933-.26,2.149,2.149,0,0,0,1.573-2.813,4.4,4.4,0,0,0-.443-1.088.833.833,0,0,1,.622.024,2.777,2.777,0,0,1,2.249,2.763,2.864,2.864,0,0,1-1.1,2.157,15.017,15.017,0,0,1-4,2.294,57.644,57.644,0,0,0-5.518,2.577,7.655,7.655,0,0,0-2.522,2.089,3.424,3.424,0,0,0,1.142,5.143.888.888,0,0,1,.53.954,9.311,9.311,0,0,1-1.977,5.4,6.35,6.35,0,0,1-3.086,2.228,5.482,5.482,0,0,1-2.174.147c-.243-.021-.488-.029-.732-.043a13.651,13.651,0,0,0-1.858,0,9.589,9.589,0,0,0-1.4.244,2.478,2.478,0,0,0-1.743,2.1,7.633,7.633,0,0,0-.077.925c-.014.229.075.286.286.278.332-.014.666,0,1.054,0a2.515,2.515,0,0,0-.14,3.069c-.08.1-.083.1-.18.037a2.532,2.532,0,0,1-1.144-1.9,2.68,2.68,0,0,1,.046-.993.849.849,0,0,0-.08-.516,3.69,3.69,0,0,1-.18-1.994,2.714,2.714,0,0,1,.739-1.315,1.136,1.136,0,0,1,.562-.5,5.155,5.155,0,0,1,1.987-.625,12.894,12.894,0,0,1,3.225.016,3.154,3.154,0,0,0,2.281-.408,3.971,3.971,0,0,0,1.173-1.348,8.788,8.788,0,0,0,.906-2.953,10.034,10.034,0,0,0,.143-1.795.507.507,0,0,0-.306-.5,4.536,4.536,0,0,1-.974-.642,3.11,3.11,0,0,1-.948-3.45,8.673,8.673,0,0,1,1.794-3.177,22.115,22.115,0,0,1,7.369-5.8A2.232,2.232,0,0,1,1683.274,1028.591Z" transform="translate(-1615.853 -955.429)" fill="#4e68a7"/>
    <path id="Path_13819" data-name="Path 13819" d="M1659.308,1054.541a7.639,7.639,0,0,0-1.49.4,4.294,4.294,0,0,0-1.063.655,2.443,2.443,0,0,1-1.5-1.253,1.822,1.822,0,0,1-.17-.665,2.422,2.422,0,0,0,1.684-.5,2.036,2.036,0,0,0-.106-3.29c-.1-.069-.2-.129-.388-.248.423,0,.758-.007,1.093,0,.184.005.253-.055.25-.248q-.015-1.117,0-2.235c0-.184-.046-.247-.24-.25-.607-.01-.607-.019-.607-.635v-8.038c.243-.143.458.034.679.074.245.045.235-.052.187-.219a2.716,2.716,0,0,1,1.089-2.228,4.512,4.512,0,0,1,4.153-.961,2.187,2.187,0,0,1,1.423.972c.095.155.181.137.325.1a13.776,13.776,0,0,0,3.872-1.9,22.869,22.869,0,0,0,4.023-3.494c.2-.215.263-.166.386.052.424.755.865,1.5,1.3,2.249a.631.631,0,0,1-.228.322,22.633,22.633,0,0,1-5.326,3.985,10.1,10.1,0,0,1-1.98.793.418.418,0,0,1-.506-.127,2.964,2.964,0,0,0-2.809-1.044,4.255,4.255,0,0,0-2.436.909,2.789,2.789,0,0,0-1.24,2.449c.02.267-.147.285-.349.256-.545-.078-.545-.077-.545.486q0,3.69,0,7.379c0,.454,0,.454.453.48.343.019.408.077.412.423q.013,1.035,0,2.07c0,.35-.07.416-.407.425a4.148,4.148,0,0,1-.749-.015c-.015-.008-.018,0-.012.007A2.036,2.036,0,0,1,1659.308,1054.541Z" transform="translate(-1607.518 -960.922)" fill="#c8c9ca"/>
    <path id="Path_13820" data-name="Path 13820" d="M1608.409,871.882a1.5,1.5,0,0,1,1.468,1.333.743.743,0,0,0-.022.3q0,5.4,0,10.8c0,.1-.048.222.048.315.384.038.771.059,1.151.119.271.043.369-.009.368-.31q-.014-5.733,0-11.466c0-.122-.065-.267.07-.367a.814.814,0,0,1,.1.576q0,5.453,0,10.906c0,.62.07.667.676.461a10.607,10.607,0,0,0,1.032-.467,10.784,10.784,0,0,0,2.044-1.317,34.538,34.538,0,0,1,3.524-2.414c1.224-.7,2.45-1.408,3.7-2.072.295-.157.594-.3.885-.466a5.406,5.406,0,0,0,1.836.392c.769.082,1.542.111,2.4.169-.52.324-.983.615-1.448.9-2.9,1.778-5.83,3.491-8.884,4.986a19.861,19.861,0,0,1-4.448,1.73c-.182.04-.369.064-.552.1a9.63,9.63,0,0,0-1.524,0,13.775,13.775,0,0,0-2.623.349c-.382.122-.772.244-.909.691-.023.075-.074.091-.144.112a3.181,3.181,0,0,0-1.99,1.958c-.026.059-.018.134-.087.172a3.788,3.788,0,0,1,.34-1.882,1.434,1.434,0,0,1,1.239-.931c.142-.008.182-.1.234-.2a3.373,3.373,0,0,1,1.357-1.388.42.42,0,0,0,.236-.425q-.008-6.161-.005-12.321C1608.479,872.111,1608.508,871.983,1608.409,871.882Z" transform="translate(-1562.182 -817.214)" fill="#4e68a7"/>
    <path id="Path_13821" data-name="Path 13821" d="M2000.26,1000.73a8.831,8.831,0,0,1-2.592-3.045,7.175,7.175,0,0,1-.765-1.91c-.021-.092-.028-.187-.042-.287a11.133,11.133,0,0,0,8.668,2.8,7.067,7.067,0,0,0,2.537-.647,4.492,4.492,0,0,0,2.674-4.673,10.691,10.691,0,0,0-2.552-5.828,22.828,22.828,0,0,1-1.536-2.057,2.022,2.022,0,0,1-.359-1.674,2.049,2.049,0,0,1,2.366-1.331,3.185,3.185,0,0,1,2.276,1.7c.07.131.171.269.081.436a2.129,2.129,0,0,0-2.562.789,1.62,1.62,0,0,0,.108,1.981c.569.929,1.3,1.738,1.946,2.614a10.585,10.585,0,0,1,2.021,4.231,5.642,5.642,0,0,1-.329,3.734,4.445,4.445,0,0,1-2.491,2.147,8.576,8.576,0,0,1-2.79.548,11.965,11.965,0,0,1-6.031-1.309,8.035,8.035,0,0,1-2.087-1.553,4.028,4.028,0,0,0,.32,1.2A12.539,12.539,0,0,0,2000.26,1000.73Z" transform="translate(-1917.288 -917.05)" fill="#c8c9ca"/>
    <path id="Path_13822" data-name="Path 13822" d="M1979.2,1224.638a2.1,2.1,0,0,1,2.121-1.949,1.314,1.314,0,0,1,.3-.021c.232-.036.313.071.332.293a1.649,1.649,0,0,0,.885,1.33,1.4,1.4,0,0,1,.3.213c.146-.054.088-.192.1-.287a1.577,1.577,0,0,1,1.667-1.493c1.213.01,1.475-.7,1.57-1.572a21.12,21.12,0,0,0,.019-2.669,17.067,17.067,0,0,1,1.248-7.27,11.706,11.706,0,0,1,1-1.876.154.154,0,0,0,.16.135,6.748,6.748,0,0,0,2.074-.108,10.26,10.26,0,0,0,1.459-.461c-.375.445-.735.9-1.08,1.362a14.157,14.157,0,0,0-2.541,5.624,16.923,16.923,0,0,0-.346,2.828,15.177,15.177,0,0,0-.043,1.861,14.77,14.77,0,0,1,.046,1.7,5.867,5.867,0,0,1-.181,1.445,1.168,1.168,0,0,1-1.185.922,1.9,1.9,0,0,0-1.507.565,1.505,1.505,0,0,0-.4.859c-.051.452-.091.47-.481.237a1.713,1.713,0,0,1-.915-1.42c-.011-.188-.072-.241-.256-.249a2.14,2.14,0,0,0-2.417,2.126c-.021.275-.141.228-.3.135a1.919,1.919,0,0,1-.9-1.513,1.169,1.169,0,0,1-.022-.557c.026-.076.007-.172-.1-.177C1979.608,1224.636,1979.4,1224.493,1979.2,1224.638Z" transform="translate(-1901.28 -1122.678)" fill="#c8c9ca"/>
    <path id="Path_13823" data-name="Path 13823" d="M1915.491,1189a20,20,0,0,0-2.637.418,3.054,3.054,0,0,0-2.33,2.045,10.674,10.674,0,0,0-.2,1.237,2.212,2.212,0,0,1-.15-2.218,3.29,3.29,0,0,1,2.138-1.871,9.027,9.027,0,0,1,3.354-.417,1.462,1.462,0,0,0,1.688-1.09,6.067,6.067,0,0,0,.333-3.3.787.787,0,0,1-.131-.373,4.109,4.109,0,0,0-.27-.821.753.753,0,0,0-.682-.477,4.846,4.846,0,0,1-2.785-1.149,12.976,12.976,0,0,1-2.394-2.473,4.6,4.6,0,0,1-.784-1.1,5.554,5.554,0,0,1-.315-.549c-.057-.1-.145-.207-.055-.336a5.8,5.8,0,0,1,1.967-.113c.274.022.546.075.82.105a.285.285,0,0,1,.286.268,3.413,3.413,0,0,0,2.9,2.934,6.775,6.775,0,0,0,2.041.2.607.607,0,0,1,.546.241,4.725,4.725,0,0,1,1.087,3.709,11.112,11.112,0,0,1-1.958,4.809.544.544,0,0,1-.518.278c-.387-.005-.775.029-1.162.046A2.685,2.685,0,0,0,1915.491,1189Z" transform="translate(-1838.514 -1093.193)" fill="#4e68a7"/>
    <path id="Path_13824" data-name="Path 13824" d="M1782.223,1265.9a1.87,1.87,0,0,1,1.539-1.59c.246-.067.5-.1.749-.156a3.385,3.385,0,0,0,2.731-2.642c.152-.6.3-1.2.458-1.8a5.016,5.016,0,0,1,3.034-3.48c.344-.149.7-.265,1.056-.4.1.3.389.386.618.517a8.3,8.3,0,0,0,2.583.937.31.31,0,0,1,.216.1,14.868,14.868,0,0,0-2.643.833,5.137,5.137,0,0,0-2.982,3.6,20.654,20.654,0,0,1-.611,2.242,3.181,3.181,0,0,1-2.306,1.968c-.4.112-.82.186-1.223.307a1.809,1.809,0,0,0-1.276,2.087,1.291,1.291,0,0,1-.009.209,3.062,3.062,0,0,1-1.984-1.942C1782.238,1266.436,1782.168,1266.166,1782.223,1265.9Z" transform="translate(-1722.703 -1165.215)" fill="#c8c9ca"/>
    <path id="Path_13825" data-name="Path 13825" d="M1741.609,733.693c-.276.343-.088.7,0,1.031a3.214,3.214,0,0,0,1.724,1.891,5.951,5.951,0,0,0,1.536.623c.294.07.322.206.251.474a15.3,15.3,0,0,1-.805,2.178,17.986,17.986,0,0,1-1.816,3.472,1.491,1.491,0,0,0-.222,1.436,3.622,3.622,0,0,1-.828,3.585,2.534,2.534,0,0,1-1.626.668c-.167.021-.208-.035-.157-.208a4.155,4.155,0,0,0-1.107-4.073,14.82,14.82,0,0,0-4-3.057c-.1-.059-.232-.084-.3-.2.846.225,1.683.483,2.549.63a30.725,30.725,0,0,0,3.277.362.578.578,0,0,0,.521-.213,11.518,11.518,0,0,0,2.239-4.243c.068-.215-.081-.217-.19-.269a3.107,3.107,0,0,1-1.643-3.49,1.8,1.8,0,0,1,.49-.862Z" transform="translate(-1679.281 -691.722)" fill="#4e68a7"/>
    <path id="Path_13826" data-name="Path 13826" d="M2081.724,811.6a7,7,0,0,0-3.227.507,6.659,6.659,0,0,0-2.6,1.873c-.026.031-.06.056-.155.142a7.59,7.59,0,0,1,1.034-1.935,16.246,16.246,0,0,1,3.613-3.385,35.537,35.537,0,0,0,3.382-2.656,5.764,5.764,0,0,0,1.929-3.232,6.548,6.548,0,0,0-.476-3.684c-.035-.081-.063-.164-.094-.246a4.11,4.11,0,0,1,1.854,1.843,6.63,6.63,0,0,1,.7,2.543,5.126,5.126,0,0,1-.359,2.534,5.741,5.741,0,0,1-.992,1.529,24.029,24.029,0,0,1-3.8,3.166c-.384.3-.78.583-1.195.894C2081.473,811.588,2081.631,811.5,2081.724,811.6Z" transform="translate(-1988.787 -751.144)" fill="#c8c9ca"/>
    <path id="Path_13827" data-name="Path 13827" d="M1673.288,676.377a10.115,10.115,0,0,0,3.491-3.134,5.511,5.511,0,0,0,.5-5.944c-.042-.089-.083-.18-.124-.27a3.875,3.875,0,0,1,1.229.993,5.725,5.725,0,0,1,1.436,3.234,5.166,5.166,0,0,1-.713,3.33,9.9,9.9,0,0,1-3.585,3.542.633.633,0,0,0-.36.724c-.166.036-.272-.079-.383-.164a6.408,6.408,0,0,0-1.269-.8.376.376,0,0,1-.254-.416C1673.287,677.109,1673.233,676.742,1673.288,676.377Z" transform="translate(-1623.986 -631.542)" fill="#c8c9ca"/>
    <path id="Path_13828" data-name="Path 13828" d="M1984.555,715.938a2.852,2.852,0,0,1-1.6.131,1.033,1.033,0,0,1-.7-1.574,5.714,5.714,0,0,1,.438-.668,2.059,2.059,0,0,1,2.418-.693.648.648,0,0,1,.5.635c.012.165,0,.332,0,.5a3.227,3.227,0,0,0,.43-.681,7.026,7.026,0,0,1,1.252-1.676,1.129,1.129,0,0,0,.393-1.051c-.043-.374,0-.408.334-.238s.53.09.689-.243a5.822,5.822,0,0,1,.431-.668,9.957,9.957,0,0,0,.98.623,2.417,2.417,0,0,1,.921.933.329.329,0,0,1,0,.424,3.824,3.824,0,0,0-.249.393,1.863,1.863,0,0,1-.365.548c-.191.137-.407-.076-.613-.127-.143-.035-.185,0-.182.134a.779.779,0,0,0,0,.1,1.09,1.09,0,0,1-.462,1.156.305.305,0,0,0-.143.285c-.082.117-.2.07-.3.058a3.024,3.024,0,0,1-1.373-.475c-.19-.127-.319-.114-.439.079a1.524,1.524,0,0,1-.181.239c-.222.235-.326.472-.062.748a.152.152,0,0,1,.024.186.411.411,0,0,1-.317.05,1.638,1.638,0,0,0-1.461.529C1984.8,715.716,1984.679,715.829,1984.555,715.938Z" transform="translate(-1903.909 -670.229)" fill="#c8c9ca"/>
    <path id="Path_13829" data-name="Path 13829" d="M1632.218,1074.324a2.414,2.414,0,0,1,1.359.06c.223.076.183.2.079.352a4.105,4.105,0,0,0-.549,1.878,4.237,4.237,0,0,1,.764-.819c.179-.124.364-.269.611-.18a1.1,1.1,0,0,0-.02.364q0,5.487,0,10.973a.813.813,0,0,1-.028.362,2.858,2.858,0,0,1-1.44.518,2.319,2.319,0,0,1-.757.074c0-.345,0-.69-.016-1.034-.01-.2.075-.236.254-.24.614-.012.614-.018.614-.637q0-4.422,0-8.843a.96.96,0,0,0-.17-.585,3.773,3.773,0,0,1-.566-1.926C1632.344,1074.528,1632.433,1074.358,1632.218,1074.324Z" transform="translate(-1586.788 -1000.638)" fill="#4e68a7"/>
    <path id="Path_13830" data-name="Path 13830" d="M1860.152,1177.93a11.061,11.061,0,0,0,.95,1.652c.07.111.136.224.2.336a11.259,11.259,0,0,0-2.531,1,5.582,5.582,0,0,0-1.652,1.322,2.391,2.391,0,0,0-.516,1.773,3.538,3.538,0,0,1-1.556-1.155,1.985,1.985,0,0,1,.043-2.443,5.335,5.335,0,0,1,2.024-1.589A7.079,7.079,0,0,1,1860.152,1177.93Z" transform="translate(-1788.395 -1094.606)" fill="#c8c9ca"/>
    <path id="Path_13831" data-name="Path 13831" d="M2164.648,966.514a6.857,6.857,0,0,0,1.322-1.7,4.356,4.356,0,0,0,.2-3.765,3.879,3.879,0,0,1,2.223,3.035,4.677,4.677,0,0,1-1.394,3.932,6.52,6.52,0,0,1-2.032,1.486,1.071,1.071,0,0,1-.457.135A2.825,2.825,0,0,0,2164.648,966.514Z" transform="translate(-2069.24 -898.028)" fill="#c8c9ca"/>
    <path id="Path_13832" data-name="Path 13832" d="M2102.306,971.771a2.978,2.978,0,0,0-2.443-2.053,2.1,2.1,0,0,0-2.281,1.253,2.441,2.441,0,0,1,.565-1.395,2.979,2.979,0,0,1,2.49-1.262,3.011,3.011,0,0,1,2.833,1.769,3.071,3.071,0,0,1-.311,3.3c-.181.258-.446.428-.641.669-.152.161-.373.162-.584.249A2.958,2.958,0,0,0,2102.306,971.771Z" transform="translate(-2008.579 -904.616)" fill="#4e68a7"/>
    <path id="Path_13833" data-name="Path 13833" d="M1595.763,637.787a8.449,8.449,0,0,0-1.265.96,6.226,6.226,0,0,0-1.663,3.448,7.282,7.282,0,0,0,.516,4.159,5.59,5.59,0,0,0,1.886,2.322c.087.061.205.089.242.209a1.74,1.74,0,0,1-1.142-.406,1.248,1.248,0,0,1-.175-.15,6.357,6.357,0,0,1-2.2-2.363,5.712,5.712,0,0,1,2.534-7.714A3.421,3.421,0,0,1,1595.763,637.787Z" transform="translate(-1549.725 -605.038)" fill="#4e68a7"/>
    <path id="Path_13834" data-name="Path 13834" d="M1732.157,1347.6a2.621,2.621,0,0,1,2.667-1.927.5.5,0,0,1,.139.327,2.341,2.341,0,0,0,.953,1.492c.08.061.209.1.18.243a2.632,2.632,0,0,0-2.136,2.5c0,.093.049.216-.061.273s-.191-.03-.271-.083a2.819,2.819,0,0,1-1.271-2.328C1732.345,1347.913,1732.436,1347.677,1732.157,1347.6Z" transform="translate(-1677.37 -1246.639)" fill="#c8c9ca"/>
    <path id="Path_13835" data-name="Path 13835" d="M2028.527,742.93c-.368-.5-.368-.5,0-1.008.345-.473.343-.469.839-.2a3.58,3.58,0,0,0,4.606-1.192c.348,1.141-.6,2.62-2.119,3.278a.961.961,0,0,1-.707.217,5.162,5.162,0,0,1-.694-.009,3.531,3.531,0,0,1-1.468-.589A.959.959,0,0,1,2028.527,742.93Z" transform="translate(-1945.74 -698.164)" fill="#e4001b"/>
    <path id="Path_13836" data-name="Path 13836" d="M1931.167,1356.728a2.966,2.966,0,0,1,2.076-.806c.331-.051.664-.005,1-.023.165-.009.208.091.231.222.045.251.067.506.119.756a1.9,1.9,0,0,0,.263.679c.059.091.135.183.081.305a6.326,6.326,0,0,0-1.24.354,1.835,1.835,0,0,0-1.057,1.649,2.721,2.721,0,0,1-1.1-2A4.518,4.518,0,0,0,1931.167,1356.728Z" transform="translate(-1857.746 -1255.91)" fill="#c8c9ca"/>
    <path id="Path_13837" data-name="Path 13837" d="M1686.44,1346.262a2.852,2.852,0,0,1,1.879-.719c.2-.022.4-.009.6-.012a.554.554,0,0,1,.143.394,3.584,3.584,0,0,0,.362,1.43.257.257,0,0,1,.026.251,2.306,2.306,0,0,0-1.161.673,1.679,1.679,0,0,0-.375,1.24c.012.12,0,.241,0,.4a2.2,2.2,0,0,1-1.143-1.256,2.8,2.8,0,0,1-.141-1.66A.851.851,0,0,0,1686.44,1346.262Z" transform="translate(-1635.933 -1246.513)" fill="#c8c9ca"/>
    <path id="Path_13838" data-name="Path 13838" d="M1838.746,681.623c.142.05.211-.073.3-.136a1.812,1.812,0,0,1,3.042,1.111,3.421,3.421,0,0,1-2.7,4.3,2.525,2.525,0,0,1-.979.129,4.075,4.075,0,0,0,1.544-.659,3.01,3.01,0,0,0,1.1-2.9,2.011,2.011,0,0,0-2.156-1.589c-.083,0-.195.06-.243-.035S1838.678,681.684,1838.746,681.623Z" transform="translate(-1773.671 -644.206)" fill="#4e68a7"/>
    <path id="Path_13839" data-name="Path 13839" d="M1635.395,1237.225c.071.08.165.05.25.051a1.378,1.378,0,0,1,1.406,1.235,1.432,1.432,0,0,1-.919,1.436,1.377,1.377,0,0,1-1.68-.643.818.818,0,0,0-.058-.077A2.026,2.026,0,0,1,1635.395,1237.225Z" transform="translate(-1588.749 -1148.349)" fill="#4e68a7"/>
    <path id="Path_13840" data-name="Path 13840" d="M2048.143,762.527a4.164,4.164,0,0,0,1.463-.127c.167.286.482.22.715.237a3.444,3.444,0,0,0,2.928-.969,1.752,1.752,0,0,0,.395-.626.629.629,0,0,1,.081.494c-.025.173-.151.372.044.532a6.334,6.334,0,0,0-2.841,1.416,6.463,6.463,0,0,0-.831.984.311.311,0,0,1-.286.012,3.185,3.185,0,0,1-1.8-1.166C2047.741,762.95,2047.771,762.8,2048.143,762.527Z" transform="translate(-1963.488 -716.751)" fill="#c8c9ca"/>
    <path id="Path_13841" data-name="Path 13841" d="M1879.083,623.247a3.322,3.322,0,0,0,.412.859c.133.17-.073.145-.16.145q-1.165.011-2.328.01c-.265,0-.531-.01-.8-.015.466-.126.945.009,1.441-.073a1.683,1.683,0,0,1,.276-2.008,6.574,6.574,0,0,1,2.713-2.078.6.6,0,0,1,.129-.023,4.341,4.341,0,0,0-1.506,2c-.069.2-.121.4-.181.6A1.46,1.46,0,0,0,1879.083,623.247Z" transform="translate(-1807.936 -588.974)" fill="#4e68a7"/>
    <path id="Path_13842" data-name="Path 13842" d="M1951.287,1225.571a6.919,6.919,0,0,0,2.206.975,2.661,2.661,0,0,0,.655.094.576.576,0,0,1,.6.361,3.33,3.33,0,0,1,.4,1.39,5.037,5.037,0,0,1-1.852-.863A8.551,8.551,0,0,1,1951.287,1225.571Z" transform="translate(-1875.982 -1137.786)" fill="#c8c9ca"/>
    <path id="Path_13843" data-name="Path 13843" d="M1672.941,766.863q0,.546-.006,1.092c0,.113,0,.218.13.272a9.072,9.072,0,0,1,1.754,1.111,17.109,17.109,0,0,0,1.609,1.4c-.7-.279-1.39-.564-2.089-.836-.412-.161-.832-.3-1.248-.452-.116-.042-.219-.075-.217-.242.008-.744,0-1.489,0-2.234C1672.88,766.934,1672.92,766.9,1672.941,766.863Z" transform="translate(-1623.639 -722.028)" fill="#4e68a7"/>
    <path id="Path_13844" data-name="Path 13844" d="M1713.439,1347.013a4.6,4.6,0,0,1-.53-2.076,8.821,8.821,0,0,1,1.633-.048,2.289,2.289,0,0,0-.077,2.907l.1-.254c.014.109.057.25-.034.312s-.206-.039-.3-.092A3.019,3.019,0,0,1,1713.439,1347.013Z" transform="translate(-1659.924 -1245.919)" fill="#4e68a7"/>
    <path id="Path_13845" data-name="Path 13845" d="M1615.573,1054.4a2.011,2.011,0,0,1,.79.052c.4.1.416.138.149.443a5.948,5.948,0,0,0-1.06,1.639,1.4,1.4,0,0,0-.13.676c-.136-.061-.145-.066-.194-.209a2.614,2.614,0,0,1,.245-2.295C1615.437,1054.6,1615.507,1054.5,1615.573,1054.4Z" transform="translate(-1571.156 -982.621)" fill="#4e68a7"/>
    <path id="Path_13846" data-name="Path 13846" d="M1761.906,1347.619a2.617,2.617,0,0,1-1.271-2.062c.321,0,.642-.01.964-.011.088,0,.193-.007.167.134a2.44,2.44,0,0,0,.4,1.532,6.106,6.106,0,0,0,.441.667c.094-.243-.039-.476.1-.665-.032.264.093.537-.049.793Z" transform="translate(-1703.182 -1246.526)" fill="#4e68a7"/>
    <path id="Path_13847" data-name="Path 13847" d="M1640.11,771.846a7.1,7.1,0,0,0,1.225-.069c.174-.047.263.03.256.23-.013.333-.017.667,0,1,.012.219-.1.211-.239.167a4.687,4.687,0,0,1-1.01-.42.674.674,0,0,0-.3-.12C1640.292,772.391,1640.183,772.117,1640.11,771.846Z" transform="translate(-1593.879 -726.47)" fill="#4e68a7"/>
    <path id="Path_13848" data-name="Path 13848" d="M1955.025,1357.437a2.789,2.789,0,0,1-.532-1.7c-.006-.2-.1-.235-.264-.233-.3,0-.595,0-.892,0a2.287,2.287,0,0,1,.85-.057c.453-.01.906,0,1.436,0a1.819,1.819,0,0,0-.341,1.321,1.892,1.892,0,0,0,.3.9c.085.13.109.028.156-.015.031.153.007.242-.178.164A2.934,2.934,0,0,1,1955.025,1357.437Z" transform="translate(-1877.839 -1255.486)" fill="#4e68a7"/>
    <path id="Path_13849" data-name="Path 13849" d="M1914.159,1351.238h.967a2.817,2.817,0,0,0,.028,2.344A2.775,2.775,0,0,1,1914.159,1351.238Z" transform="translate(-1842.328 -1251.686)" fill="#4f69a8"/>
    <path id="Path_13850" data-name="Path 13850" d="M1621.609,750.379a5.712,5.712,0,0,0,1.317.556c.067.1.222.026.284.175l-.805.394C1622.208,751.082,1621.805,750.8,1621.609,750.379Z" transform="translate(-1577.173 -707.088)" fill="#c5c8ca"/>
    <path id="Path_13851" data-name="Path 13851" d="M2225.784,546.437l-1.713-1.489,2.728-1.42C2226.45,544.528,2226.124,545.463,2225.784,546.437Z" transform="translate(-2123.224 -519.605)" fill="#d68f16"/>
    <path id="Path_13852" data-name="Path 13852" d="M1800.023,1587.711c.17.548.305,1.014.46,1.474.06.178.047.257-.158.214a10.669,10.669,0,0,1-1.065-.115Z" transform="translate(-1738.191 -1466.018)" fill="#d79017"/>
    <path id="Path_13853" data-name="Path 13853" d="M1719.51,1587.959c-.229,0-.515-.1-.811-.145-.165-.023-.168-.118-.143-.235.131-.628.268-1.256.4-1.884.028-.138.087-.151.209-.116.159.045.325.066.488.1a1.208,1.208,0,0,1,.757,1.952A.916.916,0,0,1,1719.51,1587.959Z" transform="translate(-1665.033 -1464.07)" fill="#d68f16"/>
    <path id="Path_13854" data-name="Path 13854" d="M1725.828,1559.228a1.9,1.9,0,0,1-.768-.176c-.233-.179.021-.479.051-.726.041-.35.134-.694.207-1.04.027-.13.063-.208.242-.165a2.592,2.592,0,0,1,.9.316.869.869,0,0,1,.363.932.9.9,0,0,1-.666.821A2.634,2.634,0,0,1,1725.828,1559.228Z" transform="translate(-1670.849 -1438.282)" fill="#d68f16"/>
    <path id="Path_13855" data-name="Path 13855" d="M2282.456,1424.578a1.214,1.214,0,0,1-.43.934c-.533.556-.533.557-1.06.013-.309-.319-.611-.647-.928-.959-.124-.122-.124-.2.007-.309.213-.178.4-.388.622-.552a.924.924,0,0,1,1.065-.031A1.247,1.247,0,0,1,2282.456,1424.578Z" transform="translate(-2173.867 -1317.2)" fill="#d68f16"/>
    <path id="Path_13856" data-name="Path 13856" d="M2260.663,1403.879a1.087,1.087,0,0,1,.91.634.809.809,0,0,1-.109.93c-.517.714-.576.72-1.179.1q-.359-.371-.712-.746c-.054-.058-.173-.12-.072-.214A1.8,1.8,0,0,1,2260.663,1403.879Z" transform="translate(-2155.301 -1299.399)" fill="#d68f16"/>
    <path id="Path_13857" data-name="Path 13857" d="M1562.671,1509.888a1.376,1.376,0,0,1-1.414-1.482,4.59,4.59,0,0,1,1.606-3.226,1.324,1.324,0,0,1,1.637-.178,1.42,1.42,0,0,1,.69,1.507,5,5,0,0,1-1.355,2.8A1.6,1.6,0,0,1,1562.671,1509.888Z" transform="translate(-1522.469 -1390.868)" fill="#d68f16"/>
    <path id="Path_13858" data-name="Path 13858" d="M1484.094,1459.41a2.385,2.385,0,0,1-.2.876,5.13,5.13,0,0,1-1.677,2.2,1.444,1.444,0,0,1-2.044-.1,1.364,1.364,0,0,1-.292-1.373,4.693,4.693,0,0,1,2-2.776,1.386,1.386,0,0,1,2.145.713A3.2,3.2,0,0,1,1484.094,1459.41Z" transform="translate(-1448.651 -1348.435)" fill="#d68f16"/>
    <path id="Path_13859" data-name="Path 13859" d="M1981.7,766.714c-.29.519-.28.534.146.983a3.4,3.4,0,0,0,1.808.957,3.99,3.99,0,0,0-.384,3.034c.079-.29.154-.565.228-.841a2.377,2.377,0,0,1,2.6-1.409.421.421,0,0,1,.3.133c.059.14-.025.238-.111.323a3.873,3.873,0,0,0-1.07,3.37.589.589,0,0,1,0,.191,2.361,2.361,0,0,1,2.627-2.059c.167.076.149.231.156.374a2.818,2.818,0,0,1-.568,1.713,8.435,8.435,0,0,1-1.519,1.633c-1.164,1.033-2.418,1.967-3.508,3.082a8.75,8.75,0,0,0-2.043,3.02,6.47,6.47,0,0,0-.342,2.889,8.527,8.527,0,0,0,2.357,4.976c.613.69,1.247,1.362,1.821,2.086a6.649,6.649,0,0,1,1.5,3.336,5.843,5.843,0,0,1,0,1.565,3.01,3.01,0,0,1-3.342,2.442,10.4,10.4,0,0,1-2.51-.495,2.551,2.551,0,0,1-1.087-.624,13.06,13.06,0,0,1-1.424-4.214c-.31-1.594-.485-3.21-.8-4.8a13.793,13.793,0,0,0-.594-2.118,2.944,2.944,0,0,0-.511-.969,1.582,1.582,0,0,1-.367-1.361c.064-.452.047-.91.123-1.36.057-.345.1-.384.429-.292a3.76,3.76,0,0,0,4.2-1.96,3.158,3.158,0,0,0,.069-2.406,4.875,4.875,0,0,0-.755-1.353,1.466,1.466,0,0,1-.514.8c-.087.071-.187.158-.3.111s-.047-.178-.057-.271a1.934,1.934,0,0,0-.023-.4,4.784,4.784,0,0,0-1.092-2.4,1.667,1.667,0,0,1-2.33,1.2,1.488,1.488,0,0,1-.271-1.009,4.907,4.907,0,0,1,.344-2.322,2.032,2.032,0,0,1,2.291-1.26,4.471,4.471,0,0,1,2.619,1.391,12.81,12.81,0,0,1-.006-3.761,3.172,3.172,0,0,1-1.573.214.491.491,0,0,1-.4-.2,4.847,4.847,0,0,1,.114-1.763c.066-.286-.039-.281-.24-.238a1.829,1.829,0,0,1,1.748-.97,3.385,3.385,0,0,0,.392.027A3.616,3.616,0,0,0,1981.7,766.714Z" transform="translate(-1897.049 -720.939)" fill="#fff"/>
    <path id="Path_13860" data-name="Path 13860" d="M1689.471,1078.156c-.062-.211.093-.37.135-.557a2.043,2.043,0,0,0-1.011-2.261c-.047-.026-.092-.054-.227-.134.42,0,.744-.009,1.069,0,.206.009.3-.044.3-.275-.013-.735-.011-1.47,0-2.2,0-.21-.078-.262-.274-.265-.595-.01-.595-.017-.595-.6v-7.65c0-.446,0-.446.415-.326.053.016.111.016.162.036.279.106.344.072.31-.27a2.272,2.272,0,0,1,.6-1.716,4.444,4.444,0,0,1,4.679-1.469,2.007,2.007,0,0,1,1.329.882.339.339,0,0,0,.463.157,15.37,15.37,0,0,0,4.72-2.552,30.968,30.968,0,0,0,2.631-2.3c.064-.06.137-.112.205-.167l.73,1.208a19.254,19.254,0,0,0-4.962,2.959,17.733,17.733,0,0,0-4.433,4.848,5.769,5.769,0,0,0-.775,2.114,3.005,3.005,0,0,0,1.492,3.11,3.237,3.237,0,0,0,.491.281.558.558,0,0,1,.382.605,11.106,11.106,0,0,1-.963,4.563,3.321,3.321,0,0,1-2.241,1.984,3.673,3.673,0,0,1-1.3.034A14.5,14.5,0,0,0,1689.471,1078.156Z" transform="translate(-1637.681 -984.536)" fill="#fff"/>
    <path id="Path_13861" data-name="Path 13861" d="M2008.08,798.593a2.473,2.473,0,0,0-2.674.958c-.068.1-.136.2-.2.3a2.8,2.8,0,0,1,1.364-1.644,3.878,3.878,0,0,1,1.587-.546,4.167,4.167,0,0,0,.988,0,3.388,3.388,0,0,1,1.517.631,3.062,3.062,0,0,1,1.1,2.051,4.088,4.088,0,0,1-1.4,3.536,30.006,30.006,0,0,1-2.615,2.324,15.565,15.565,0,0,0-3.341,3.512,5.35,5.35,0,0,0-.851,2.829,7.019,7.019,0,0,0,1.188,3.919,30.2,30.2,0,0,0,2.324,2.915,9.962,9.962,0,0,1,2.382,4.217,5.062,5.062,0,0,1-.113,3.167,3.5,3.5,0,0,1-2.706,2.131,7.084,7.084,0,0,1-5.558-1.046,6.914,6.914,0,0,1-2.344-2.973,1.927,1.927,0,0,1-.255-.643c.107-.008.157.068.2.145a6.213,6.213,0,0,0,1.713,1.868.819.819,0,0,1,.14.141,5.462,5.462,0,0,0,2.44.914,6.584,6.584,0,0,0,1.99.091,2.85,2.85,0,0,0,2.393-2.645,6.668,6.668,0,0,0-1.844-4.92c-.792-.917-1.646-1.781-2.362-2.763a7.758,7.758,0,0,1-1.536-5.2,6.677,6.677,0,0,1,1.578-3.751,23.7,23.7,0,0,1,3.43-3.256,12.873,12.873,0,0,0,2.437-2.409,2.454,2.454,0,0,0,.509-2c-.149-.131-.1-.329-.166-.491a1.967,1.967,0,0,0-1.017-1.165A.85.85,0,0,1,2008.08,798.593Z" transform="translate(-1918.75 -749.942)" fill="#4e68a7"/>
    <path id="Path_13862" data-name="Path 13862" d="M1965.74,901.165a5.328,5.328,0,0,1-1.869-1.883c-.059-.092-.124-.181-.187-.271A20.625,20.625,0,0,1,1962,892.6a23.837,23.837,0,0,0-.872-4.2,5.221,5.221,0,0,0-.925-1.722.351.351,0,0,1-.112-.266c.061-.764.116-1.529.173-2.3a3.647,3.647,0,0,0,4.889-3.528c.13.189,0,.413.08.61a1.112,1.112,0,0,0,.728-1.029c.17.027.209.189.282.292a3.753,3.753,0,0,1,.765,3.132,3.234,3.234,0,0,1-1.5,2,3.679,3.679,0,0,1-2.849.6.7.7,0,0,1-.188-.064c-.2-.107-.265-.057-.281.173-.047.663-.122,1.324-.138,1.989a.42.42,0,0,0,.077.305,7.446,7.446,0,0,1,1.336,3.195c.27,1.177.41,2.375.6,3.565a18.276,18.276,0,0,0,1.452,5.368C1965.6,900.87,1965.726,900.99,1965.74,901.165Z" transform="translate(-1883.962 -824.72)" fill="#c8c9ca"/>
    <path id="Path_13863" data-name="Path 13863" d="M1698.163,905.384a49.028,49.028,0,0,0-4.222,2.923,7.807,7.807,0,0,1-1.245.772c-.157-.01-.153-.138-.172-.243a1.9,1.9,0,0,1-.012-.333q0-4.224,0-8.448c0-.067,0-.133,0-.2.019-.381.116-.468.5-.418a12.576,12.576,0,0,1,2.436.561c.229.078.408.185.391.463a1.719,1.719,0,0,1-1.439,1.457c-.084.017-.178-.005-.25.062a2.546,2.546,0,0,0,1.811,1.328c.17.045.35.06.525.088.17.058.353-.02.547.056-.115.243-.358.283-.555.379-.269.131-.29.164-.1.4a2.671,2.671,0,0,0,1.471.923C1697.988,905.188,1698.164,905.173,1698.163,905.384Z" transform="translate(-1641.436 -842.176)" fill="#fff"/>
    <path id="Path_13864" data-name="Path 13864" d="M1678.544,882.637c.043-.274-.072-.4-.343-.488a17.905,17.905,0,0,0-2.487-.575c-.31-.055-.314.119-.314.345q.006,4.055,0,8.109c0,.267,0,.534,0,.8,0,.108-.026.226.077.31a5.155,5.155,0,0,1-1.562.646c-.4.075-.4.062-.4-.337q0-5.174,0-10.349c0-.49.008-.979.012-1.468a13.188,13.188,0,0,1,3.808.975c.041.016.084.028.126.041a2.041,2.041,0,0,1,1.215,1.636C1678.695,882.411,1678.748,882.58,1678.544,882.637Z" transform="translate(-1624.219 -824.238)" fill="#c8c9ca"/>
    <path id="Path_13865" data-name="Path 13865" d="M1959.868,796.844a2.674,2.674,0,0,0,1.823-.046c.26-.078.277,0,.232.227a9.254,9.254,0,0,0-.06,2.682c.032.358.057.717.092,1.148a4.448,4.448,0,0,0-2.348-1.486,2.083,2.083,0,0,0-2.789,1.732,5.247,5.247,0,0,0,.047,2.692,2.673,2.673,0,0,1-1.927-1.936,4.947,4.947,0,0,1,.041-3.019,2,2,0,0,1,2.638-1.424,4.25,4.25,0,0,1,2.4,1.527C1959.98,798.2,1959.835,797.525,1959.868,796.844Z" transform="translate(-1879.095 -749.134)" fill="#c8c9ca"/>
    <path id="Path_13866" data-name="Path 13866" d="M1733.229,921.847c-.054-.125-.17-.112-.278-.138a2.717,2.717,0,0,1-1.653-1.077c-.14-.2-.158-.306.115-.383a5.468,5.468,0,0,0,.663-.285c-.2-.094-.379.013-.517-.105a5.858,5.858,0,0,0,3.149-.681,3.9,3.9,0,0,0,1.617-1.449c.1-.174.2-.169.352-.088a1.232,1.232,0,0,1,.386.361,8.271,8.271,0,0,1,.711,1.241c0,.092-.067.132-.139.169C1736.139,920.175,1734.687,921.016,1733.229,921.847Z" transform="translate(-1676.501 -858.64)" fill="#c8c9ca"/>
    <path id="Path_13867" data-name="Path 13867" d="M1641.195,675.6a2,2,0,0,1,1.467-1.185,2.28,2.28,0,0,1,2.8,2.394,4.249,4.249,0,0,1-.945,2.3,13.109,13.109,0,0,1-1.307,1.389,4.153,4.153,0,0,0,.071-1.234c-.044-.322-.193-.374-.453-.393a2.23,2.23,0,0,1-1.891-2.01c.168.028.168.19.231.3a1.46,1.46,0,0,0,1.509.7,1.386,1.386,0,0,0,1.187-1.068,1.4,1.4,0,0,0-1.221-1.638,1.6,1.6,0,0,0-1.075.274C1641.459,675.5,1641.365,675.639,1641.195,675.6Z" transform="translate(-1594.694 -638.177)" fill="#4e68a7"/>
    <path id="Path_13868" data-name="Path 13868" d="M1641.021,682.386a1.981,1.981,0,0,1,1.349-.542,1.46,1.46,0,1,1-.2,2.906,1.555,1.555,0,0,1-1.4-1.1A1.909,1.909,0,0,1,1641.021,682.386Z" transform="translate(-1594.521 -644.968)" fill="#c8c9ca"/>
    <path id="Path_13869" data-name="Path 13869" d="M1628.263,798.579c-.649-.113-1.275-.039-1.882-.195a.782.782,0,0,1-.619-.874.822.822,0,0,1,1.075-.706,10.008,10.008,0,0,1,2.467,1.275c.1.067.248.153.22.269-.034.138-.219.144-.341.15A4.926,4.926,0,0,0,1628.263,798.579Z" transform="translate(-1580.931 -749.127)" fill="#4e68a7"/>
    <path id="Path_13870" data-name="Path 13870" d="M1627.438,823.92a9.333,9.333,0,0,1,2.524.8c.059.03.13.061.126.138-.006.129-.128.151-.215.178a7.3,7.3,0,0,1-1.883.35,2.417,2.417,0,0,1-.825.04.837.837,0,0,1-.6-.808A.773.773,0,0,1,1627.438,823.92Z" transform="translate(-1581.663 -773.743)" fill="#4e68a7"/>
    <path id="Path_13871" data-name="Path 13871" d="M1711.706,892.475a1.481,1.481,0,0,0-.4-1.368,3.9,3.9,0,0,0-.686-.622,2.329,2.329,0,0,1,1.987,1.408,1.416,1.416,0,0,1-.871,1.917,3,3,0,0,1-1.636.068c0-.127.121-.076.181-.113a1.637,1.637,0,0,1,.25-.087A1.649,1.649,0,0,0,1711.706,892.475Z" transform="translate(-1657.381 -834.075)" fill="#4e68a7"/>
    <path id="Path_13872" data-name="Path 13872" d="M1662.54,1090.975c.112.254.084.358-.239.293a2.071,2.071,0,0,0-.628-.149,2.451,2.451,0,0,1-1.124-1.578c-.146-.717-.018-.861.678-.7a3.317,3.317,0,0,1,.344.118c.209.073.3.156.248.435a2.089,2.089,0,0,0,.645,1.745C1662.56,1091.107,1662.5,1091.021,1662.54,1090.975Z" transform="translate(-1612.419 -1013.806)" fill="#4e68a7"/>
    <path id="Path_13873" data-name="Path 13873" d="M1956.124,699.433c-.087.334-.255.431-.582.3a8.47,8.47,0,0,1-1.574-.693,1.2,1.2,0,0,1-.542-.566c-.1-.265.014-.426.295-.429.366,0,.733.009,1.1,0,.184-.007.241.056.264.235A1.193,1.193,0,0,0,1956.124,699.433Z" transform="translate(-1877.89 -659.652)" fill="#fefefe"/>
    <path id="Path_13874" data-name="Path 13874" d="M1633.224,848.9a5.246,5.246,0,0,1,1.653.314c.077.028.2.022.2.139,0,.082-.094.121-.165.15a7.141,7.141,0,0,1-1.79.474.527.527,0,0,1-.588-.537c-.028-.331.206-.54.56-.539Z" transform="translate(-1587.07 -796.385)" fill="#4e68a7"/>
    <path id="Path_13875" data-name="Path 13875" d="M2003.661,1357.365a1.6,1.6,0,0,1-1.228-1.328c-.061-.435-.22-.524-.582-.487a5.746,5.746,0,0,1,1.28-.047c.073,0,.135.036.11.122a2.109,2.109,0,0,0,.415,1.708C2003.662,1357.34,2003.66,1357.354,2003.661,1357.365Z" transform="translate(-1921.812 -1255.539)" fill="#4e68a7"/>
    <path id="Path_13876" data-name="Path 13876" d="M1655.8,1100.479q0-5.724,0-11.447c0-.086-.023-.18.053-.252,0,.757.012,1.513.013,2.27q0,4.525,0,9.049C1655.866,1100.226,1655.918,1100.367,1655.8,1100.479Z" transform="translate(-1608.162 -1013.803)" fill="#5d75af"/>
    <path id="Path_13877" data-name="Path 13877" d="M1655.827,897.539c-.133-.086-.081-.221-.081-.335q0-5.382,0-10.765c0-.107-.037-.224.054-.317,0,1.169.01,2.337.011,3.505q0,3.756,0,7.512C1655.812,897.272,1655.822,897.406,1655.827,897.539Z" transform="translate(-1608.105 -830.121)" fill="#5d75b0"/>
    <path id="Path_13878" data-name="Path 13878" d="M1981.834,698.393c-.037-.2.072-.281.3-.237.032.006.067,0,.1.006.221.034.618-.068.629.08.018.242-.259.462-.436.669-.094.109-.247.073-.369.008C1981.868,698.818,1981.84,698.632,1981.834,698.393Z" transform="translate(-1903.662 -659.744)" fill="#f7f8fb"/>
    <path id="Path_13879" data-name="Path 13879" d="M1702.984,1299.1a5.965,5.965,0,0,1,1.857,0Z" transform="translate(-1650.929 -1204.367)" fill="#637db5"/>
    <path id="Path_13880" data-name="Path 13880" d="M1666.585,1022.972a4.173,4.173,0,0,1,1.524,0Z" transform="translate(-1617.938 -954.092)" fill="#5b75ab"/>
    <path id="Path_13881" data-name="Path 13881" d="M2102.845,797.662a1.788,1.788,0,0,1-.988,0Z" transform="translate(-2012.454 -749.942)" fill="#607cb3"/>
    <path id="Path_13882" data-name="Path 13882" d="M1969.151,1310.544a1.175,1.175,0,0,1,.788,0Z" transform="translate(-1892.173 -1214.741)" fill="#5b7ab2"/>
    <path id="Path_13883" data-name="Path 13883" d="M1906.234,648.392a.67.67,0,0,1,0-.586Q1906.233,648.1,1906.234,648.392Z" transform="translate(-1835.086 -614.119)" fill="#647eb5"/>
    <path id="Path_13884" data-name="Path 13884" d="M1725.742,1592.386a.62.62,0,0,1-.96.617c-.116-.055-.066-.121-.053-.186.062-.314.13-.627.2-.94.015-.073.007-.145.127-.149A.66.66,0,0,1,1725.742,1592.386Z" transform="translate(-1670.618 -1469.658)" fill="#003980"/>
    <path id="Path_13885" data-name="Path 13885" d="M1731.682,1564.461c-.243-.013-.445-.042-.326-.362a2.971,2.971,0,0,0,.094-.388c.073-.327.125-.343.426-.18.268.145.238.372.2.608A.37.37,0,0,1,1731.682,1564.461Z" transform="translate(-1676.612 -1444.01)" fill="#003a7f"/>
    <path id="Path_13886" data-name="Path 13886" d="M2288.129,1428.958a.952.952,0,0,1,.723.564.929.929,0,0,1-.4.689c-.1.058-.141,0-.194-.058a6.022,6.022,0,0,0-.538-.544c-.273-.216-.192-.362.041-.526A.544.544,0,0,1,2288.129,1428.958Z" transform="translate(-2180.759 -1322.128)" fill="#003980"/>
    <path id="Path_13887" data-name="Path 13887" d="M2268.1,1409.829a.626.626,0,0,1-.305.461c-.135.081-.182-.112-.271-.178a.78.78,0,0,1-.207-.215c-.068-.114-.311-.154-.2-.34a.53.53,0,0,1,.679-.145A.656.656,0,0,1,2268.1,1409.829Z" transform="translate(-2162.215 -1304.352)" fill="#003a7f"/>
    <path id="Path_13888" data-name="Path 13888" d="M1566.393,1513.214a4.54,4.54,0,0,1,1.444-2.805.887.887,0,0,1,1.027-.141.852.852,0,0,1,.493.9,4.2,4.2,0,0,1-1.4,2.823.861.861,0,0,1-1.045.166A.954.954,0,0,1,1566.393,1513.214Z" transform="translate(-1527.127 -1395.732)" fill="#003980"/>
    <path id="Path_13889" data-name="Path 13889" d="M1485.223,1466.047a1.028,1.028,0,0,1,.059-.37,4.54,4.54,0,0,1,1.753-2.363.882.882,0,0,1,1.089-.007.923.923,0,0,1,.337,1.04,2.51,2.51,0,0,1-.088.32,4.85,4.85,0,0,1-1.44,2.009,1.533,1.533,0,0,1-.617.319A.9.9,0,0,1,1485.223,1466.047Z" transform="translate(-1453.557 -1353.094)" fill="#003980"/>
    <path id="Path_13890" data-name="Path 13890" d="M2088.7,807.619a1.991,1.991,0,0,1,1.483,1.857,2.61,2.61,0,0,0-1.607.439,2.158,2.158,0,0,0-.952,1.461,3.3,3.3,0,0,1-.1.323,3.988,3.988,0,0,1,1.016-3.834C2088.61,807.8,2088.7,807.734,2088.7,807.619Z" transform="translate(-1999.365 -758.968)" fill="#c8c9ca"/>
  </g>
</svg>
