<svg id="Group_1122" data-name="Group 1122" xmlns="http://www.w3.org/2000/svg" width="135.858" height="137.629" viewBox="0 0 135.858 137.629">
  <path id="Path_13891" data-name="Path 13891" d="M1204.621,899.84c-.539,1.617-2.3,5.575-6.533,5.575-4.813,0-6.493-5.214-6.574-5.428l-.138-.5s4.149.346,6.432.346,6.186-.223,6.824-.346Z" transform="translate(-1129.957 -767.786)" fill="#231f20" fill-rule="evenodd"/>
  <path id="Path_13892" data-name="Path 13892" d="M1263.263,888.653l.993.132c-1.178,3.076-3.3,6.524-7.461,6.524a7.442,7.442,0,0,1-6.877-3.9l-.694-.427A63.243,63.243,0,0,0,1263.263,888.653Z" transform="translate(-1175.964 -759.17)" fill="#231f20" fill-rule="evenodd"/>
  <path id="Path_13893" data-name="Path 13893" d="M1127.37,888.653l-.994.132c1.179,3.076,3.3,6.524,7.462,6.524a8.159,8.159,0,0,0,7.1-3.9l.475-.427A63.244,63.244,0,0,1,1127.37,888.653Z" transform="translate(-1078.262 -759.17)" fill="#231f20" fill-rule="evenodd"/>
  <path id="Path_13894" data-name="Path 13894" d="M1206.332,901.933a1.739,1.739,0,0,1-1.873.9.964.964,0,0,0-.967.919.924.924,0,0,0,1.032.85c1.422,0,2.506-1.988,2.812-2.827,0,0,.84-.037,1.086-.061,0,0-1.507,4.488-5.414,4.488s-5.51-4.44-5.51-4.44,3.295.2,5.182.2S1205.768,901.958,1206.332,901.933Z" transform="translate(-1134.825 -769.558)" fill="#fff000" fill-rule="evenodd"/>
  <path id="Path_13895" data-name="Path 13895" d="M1270.694,893.136a50.293,50.293,0,0,1-8.657,1.766s.134.442,1.068.394a1.572,1.572,0,0,0,.537-.13.606.606,0,0,1,.623.7c-.036.325-.315.737-1.264.737a3.855,3.855,0,0,1-2.618-1.5,7.917,7.917,0,0,1-1.159.162,6.91,6.91,0,0,0,5.424,2.558C1268.609,897.82,1270.071,894.282,1270.694,893.136Z" transform="translate(-1183.917 -762.735)" fill="#fff000" fill-rule="evenodd"/>
  <path id="Path_13896" data-name="Path 13896" d="M1279.527,898.857a2.933,2.933,0,0,0-.517-1.669,48.54,48.54,0,0,1-5.293.914c-.018.068-.034.137-.046.208a1.311,1.311,0,0,0,.923.208,1.561,1.561,0,0,0,.537-.13.606.606,0,0,1,.624.7c-.036.325-.315.737-1.263.737a2.293,2.293,0,0,1-.755-.141,2.959,2.959,0,0,0,.635,1.147,7.17,7.17,0,0,0,1.766.217,5.5,5.5,0,0,0,3.093-.9A2.929,2.929,0,0,0,1279.527,898.857Z" transform="translate(-1195.407 -765.958)" fill="#fd0" fill-rule="evenodd"/>
  <path id="Path_13897" data-name="Path 13897" d="M1279.62,898.9a2.89,2.89,0,0,0-.518-1.658,48.949,48.949,0,0,1-5.207.9c-.022.079-.04.16-.055.241a1.4,1.4,0,0,0,.888.18,1.582,1.582,0,0,0,.537-.13.606.606,0,0,1,.624.7c-.037.325-.315.737-1.264.737a2.265,2.265,0,0,1-.708-.124,2.924,2.924,0,0,0,.66,1.149,7.172,7.172,0,0,0,1.695.2,5.515,5.515,0,0,0,3.026-.852A2.9,2.9,0,0,0,1279.62,898.9Z" transform="translate(-1195.541 -766.001)" fill="#ffdf00" fill-rule="evenodd"/>
  <path id="Path_13898" data-name="Path 13898" d="M1279.725,898.934a2.862,2.862,0,0,0-.521-1.649,48.365,48.365,0,0,1-5.123.884,2.755,2.755,0,0,0-.06.271,1.454,1.454,0,0,0,.852.157,1.576,1.576,0,0,0,.537-.131.606.606,0,0,1,.623.7c-.036.325-.314.737-1.263.737a2.192,2.192,0,0,1-.662-.111,2.883,2.883,0,0,0,.685,1.151,7.179,7.179,0,0,0,1.623.182,5.53,5.53,0,0,0,2.958-.809A2.866,2.866,0,0,0,1279.725,898.934Z" transform="translate(-1195.685 -766.035)" fill="#ffe100" fill-rule="evenodd"/>
  <path id="Path_13899" data-name="Path 13899" d="M1133.784,893.136a50.227,50.227,0,0,0,8.656,1.766s-.134.442-1.066.394a1.578,1.578,0,0,1-.538-.13.6.6,0,0,0-.622.7c.033.325.313.737,1.262.737a3.85,3.85,0,0,0,2.616-1.5,7.963,7.963,0,0,0,1.162.162,6.913,6.913,0,0,1-5.426,2.558C1135.868,897.82,1134.406,894.282,1133.784,893.136Z" transform="translate(-1084.154 -762.735)" fill="#fff000" fill-rule="evenodd"/>
  <path id="Path_13900" data-name="Path 13900" d="M1000.426,696.092c13.649,0,28.772-8.379,39.378-20.458a9.212,9.212,0,0,1,7.708-3.78,10.527,10.527,0,0,1,10.029,11.864c-.526,5.584-8.507,18.168-22.156,25.926a69.536,69.536,0,0,1-69.918,0c-13.649-7.758-21.631-20.342-22.157-25.926a10.527,10.527,0,0,1,10.028-11.864,9.213,9.213,0,0,1,7.71,3.78C971.654,687.713,986.777,696.092,1000.426,696.092Z" transform="translate(-932.622 -586.748)" fill="#fff000" fill-rule="evenodd"/>
  <path id="Path_13901" data-name="Path 13901" d="M998.518,694.674h0a45.527,45.527,0,0,1-20.666-5.55,66.738,66.738,0,0,1-19.079-15.075,11.553,11.553,0,0,0-2.453-2.291,8.707,8.707,0,0,0-4.889-1.323c-.244,0-.481.011-.708.034a10.029,10.029,0,0,0-8.888,10.12c0,.393.018.784.054,1.176.286,3.035,2.87,8.234,7.445,13.587A54.9,54.9,0,0,0,963.8,707.309a71.73,71.73,0,0,0,19.19,7.571,68.181,68.181,0,0,0,31.053,0,71.723,71.723,0,0,0,19.191-7.571,54.95,54.95,0,0,0,14.468-11.958c4.575-5.353,7.157-10.552,7.443-13.587.038-.392.055-.783.055-1.176a10.029,10.029,0,0,0-8.888-10.12c-.227-.022-.464-.034-.709-.034a8.706,8.706,0,0,0-4.888,1.323,11.533,11.533,0,0,0-2.452,2.291,66.755,66.755,0,0,1-19.079,15.075,45.527,45.527,0,0,1-20.667,5.55Zm0-.982a44.551,44.551,0,0,0,20.214-5.439,65.742,65.742,0,0,0,18.8-14.85,12.3,12.3,0,0,1,2.655-2.468,9.675,9.675,0,0,1,5.422-1.482c.25,0,.518.015.8.04a11.014,11.014,0,0,1,9.778,11.094c0,.4-.02.822-.062,1.267-.3,3.207-2.967,8.625-7.674,14.133a55.955,55.955,0,0,1-14.728,12.173,72.8,72.8,0,0,1-19.451,7.675,69.183,69.183,0,0,1-31.5,0,72.788,72.788,0,0,1-19.451-7.675,55.91,55.91,0,0,1-14.728-12.171c-4.707-5.509-7.372-10.926-7.675-14.134q-.063-.668-.062-1.267a11.015,11.015,0,0,1,9.777-11.094c.282-.026.55-.04.8-.04a9.67,9.67,0,0,1,5.422,1.482,12.28,12.28,0,0,1,2.656,2.468,65.729,65.729,0,0,0,18.8,14.85A44.547,44.547,0,0,0,998.518,693.692Z" transform="translate(-930.714 -584.839)" fill="#231f20" fill-rule="evenodd"/>
  <path id="Path_13902" data-name="Path 13902" d="M966.433,683.993l-.159-.181a7.225,7.225,0,0,0-6.13-2.957,8.574,8.574,0,0,0-5.982,2.823A8.778,8.778,0,0,0,952,690.65c.444,4.7,7.911,16.9,21.208,24.46a67.647,67.647,0,0,0,68.048,0c13.3-7.56,20.767-19.756,21.209-24.46a8.776,8.776,0,0,0-2.165-6.973,8.569,8.569,0,0,0-5.98-2.823,7.226,7.226,0,0,0-6.13,2.957l-.16.181c-11.427,13.014-27.061,21.1-40.8,21.1S977.86,697.006,966.433,683.993Z" transform="translate(-939.539 -593.906)" fill="#e02e22" fill-rule="evenodd"/>
  <path id="Path_13903" data-name="Path 13903" d="M1436.785,575.11a11.858,11.858,0,1,1,11.857,11.857A11.858,11.858,0,0,1,1436.785,575.11Z" transform="translate(-1325.133 -500.376)" fill="#fff000" fill-rule="evenodd"/>
  <path id="Path_13904" data-name="Path 13904" d="M1435.371,573.2h0a11.365,11.365,0,1,0,3.329-8.038,11.33,11.33,0,0,0-3.329,8.038Zm-.982,0a12.347,12.347,0,1,1,3.617,8.732A12.308,12.308,0,0,1,1434.389,573.2Z" transform="translate(-1323.228 -498.467)" fill="#231f20" fill-rule="evenodd"/>
  <path id="Path_13905" data-name="Path 13905" d="M893.719,575.206a11.858,11.858,0,1,1,11.858,11.858A11.858,11.858,0,0,1,893.719,575.206Z" transform="translate(-893.228 -500.453)" fill="#fff000" fill-rule="evenodd"/>
  <path id="Path_13906" data-name="Path 13906" d="M892.3,573.3h0a11.367,11.367,0,1,0,3.33-8.037,11.328,11.328,0,0,0-3.33,8.037Zm-.982,0a12.348,12.348,0,1,1,3.617,8.732A12.307,12.307,0,0,1,891.321,573.3Z" transform="translate(-891.321 -498.544)" fill="#231f20" fill-rule="evenodd"/>
  <path id="Path_13907" data-name="Path 13907" d="M1472.58,396.925l.067-3.175a3.08,3.08,0,0,0,3.894-.394,2.973,2.973,0,0,0,.73-2.174,4.03,4.03,0,0,0-1.179-2.607c-3.993-3.892-7.522-7.782-7.522-7.782a3.257,3.257,0,0,0-1.265-1.144,2.571,2.571,0,0,0-3.543.991,7.692,7.692,0,0,0-.8,5.318l3.746,5.091A60.506,60.506,0,0,0,1472.58,396.925Z" transform="translate(-1345.824 -354.084)" fill="#231f20" fill-rule="evenodd"/>
  <path id="Path_13908" data-name="Path 13908" d="M1120.521,290.864a60.207,60.207,0,0,1,14.8-3.4Z" transform="translate(-1073.606 -281.043)" fill="#231f20" fill-rule="evenodd"/>
  <path id="Path_13909" data-name="Path 13909" d="M1116.714,272.37a60.146,60.146,0,0,1,14.8-3.4l.883-.5c-3.24-2.546-6.452-4.278-9.652-4.278-2.009,0-6.092,1.362-7.009,8.563Z" transform="translate(-1069.798 -262.536)" fill="#231f20" fill-rule="evenodd"/>
  <path id="Path_13910" data-name="Path 13910" d="M1263.758,272.37a60.154,60.154,0,0,0-14.8-3.4l-.883-.5c3.239-2.546,6.452-4.278,9.652-4.278,2.008,0,6.092,1.362,7.008,8.563Z" transform="translate(-1175.052 -262.536)" fill="#231f20" fill-rule="evenodd"/>
  <path id="Path_13911" data-name="Path 13911" d="M1203.73,283.611c.957-.049,3.167-.1,4.05-.1s3.323.117,3.858.156Z" transform="translate(-1139.782 -277.897)" fill="#231f20" fill-rule="evenodd"/>
  <path id="Path_13912" data-name="Path 13912" d="M1196.6,262.271c2.368-4.539,4.537-6.193,5.737-6.193,1.5,0,3.259,2.389,4.637,5.463l.291.692-1.2-.1a35.113,35.113,0,0,0-3.956-.171c-.884,0-2.8,0-3.952.1Z" transform="translate(-1134.112 -256.078)" fill="#231f20" fill-rule="evenodd"/>
  <path id="Path_13913" data-name="Path 13913" d="M1129.166,802.558l-2.12,7.91-3.952-9.537-2.461-.661-3,11.185,2.668.716,2.136-7.974,4.015,9.622,2.4.643,3-11.185Z" transform="translate(-1071.311 -688.878)" fill="#fff000" fill-rule="evenodd"/>
  <rect id="Rectangle_1526" data-name="Rectangle 1526" width="11.578" height="3.043" transform="matrix(0.052, -0.999, 0.999, 0.052, 63.421, 126.495)" fill="#fff000"/>
  <path id="Path_13914" data-name="Path 13914" d="M1232.3,812.7l.213,1.526,3.243-.458,1.4,9.944,3.013-.424-1.4-9.942,3.193-.45-.213-1.523Z" transform="translate(-1162.508 -697.711)" fill="#fff000" fill-rule="evenodd"/>
  <path id="Path_13915" data-name="Path 13915" d="M1341.365,774.573h0l-3.924,2.265,5.807,10.061,3.9-2.251c4.052-2.339,4.426-5.87,2.839-8.691-1.92-3.357-5.069-3.434-8.618-1.385Zm5.921,3.057c1.473,2.581,1.176,4.456-1.095,5.769l-1.078.621-4.257-7.371,1.164-.672C1344.738,774.408,1346.271,775.8,1347.286,777.631Z" transform="translate(-1246.124 -667.35)" fill="#fff000" fill-rule="evenodd"/>
  <path id="Path_13916" data-name="Path 13916" d="M1297.357,808.009l-1.155-3.555,3.431-1.115-.482-1.48-3.428,1.115-.988-3.036,3.525-1.145-.476-1.463-6.434,2.091,3.578,11.01,7.1-2.3-.481-1.48Z" transform="translate(-1209.467 -686.541)" fill="#fff000" fill-rule="evenodd"/>
  <path id="Path_13917" data-name="Path 13917" d="M1061.828,772.363l-3.429,6.185c-1.034,1.865-2.1,3.046-3.845,2.038-1.731-.958-1.331-2.391-.271-4.3l3.437-6.2-2.769-1.534-3.629,6.547c-2,3.612.522,5.838,2.479,6.921,2.106,1.169,5.166,2.038,7.151-1.543l3.645-6.577Z" transform="translate(-1017.988 -663.651)" fill="#fff000" fill-rule="evenodd"/>
  <path id="Path_13918" data-name="Path 13918" d="M1095.916,442.9v54.212l25.925,16.666,25.925-16.666.032-54.127a31.748,31.748,0,0,0-3.908-3.179h-44.217A41.862,41.862,0,0,0,1095.916,442.9Z" transform="translate(-1054.037 -402.202)" fill="#fff000" fill-rule="evenodd"/>
  <path id="Path_13919" data-name="Path 13919" d="M1094.5,454.922v53.946l25.433,16.348,25.434-16.348.033-53.861h.981l-.032,54.127v.267l-.227.146L1120.2,526.211l-.265.17-.265-.17-25.924-16.664-.227-.146V454.922Z" transform="translate(-1052.128 -414.221)" fill="#231f20" fill-rule="evenodd"/>
  <path id="Path_13920" data-name="Path 13920" d="M1332.874,441.729c-.233-.21-.057-.053-.305-.277h0a28.3,28.3,0,0,0-3.528-2.85l.51-.837a28.887,28.887,0,0,1,3.678,2.958h0l.3.273Z" transform="translate(-1239.442 -400.575)" fill="#231f20" fill-rule="evenodd"/>
  <rect id="Rectangle_1527" data-name="Rectangle 1527" width="44.217" height="0.982" transform="translate(45.635 37.118)" fill="#231f20"/>
  <path id="Path_13921" data-name="Path 13921" d="M1098.554,438.649c-.53.371-1.277.96-1.96,1.522-.8.659-1.523,1.288-1.717,1.5l-.721-.663c.217-.237.98-.9,1.817-1.592.727-.6,1.5-1.21,2.018-1.572Z" transform="translate(-1052.637 -400.638)" fill="#231f20" fill-rule="evenodd"/>
  <path id="Path_13922" data-name="Path 13922" d="M1155.677,561.785h0v-2.015a2.213,2.213,0,0,0-1.866-.834c-1.325,0-2.11.392-2.11.737,0,.54,1.178,2.112,3.976,2.112Zm-10.458-17.841h0l2.014-3.5,1.569,3.5h2.6a7.525,7.525,0,0,0-2.208,5.173v1.62a8.259,8.259,0,0,1-.345,1.817s2.254,1.722,2.6,2.013c.147.123.3.194.2.491-.18.508-1.7,1.185-1.866,1.325-.344.294-.436.488-.336.785s.385.345.974.147,1.817-.833,2.849-1.275a6.063,6.063,0,0,1,2.4-.345v-1.964H1151.8v-6.283l-.689-1.1,1.72-3.045,1.718,3.062-.687,1.08v3.289h1.989v-3.289l-.687-1.08,1.717-3.045,1.717,3.045-.686,1.08v3.289h1.988v-3.289l-.686-1.08,1.718-3.045,1.719,3.045-.689,1.08.022,6.281h-3.9v2.886a6.543,6.543,0,0,1,1.72,3.842,1.964,1.964,0,0,1-.737,1.622,4.242,4.242,0,0,1,.1,2.062,6.032,6.032,0,0,1-1.13,2.11v14.972c0,1.019-2.357.922-2.357.048V566.6c-1.326-1.473-4.958-2.6-4.958-2.6a11.645,11.645,0,0,0-2.16,3.634,1.556,1.556,0,0,0,1.816-.394,1.215,1.215,0,0,1,1.426-.246c.392.246.491.344.342.934a10.855,10.855,0,0,0-.391,2.25c0,.688.785.541,1.374.591,1.177.1,1.375,1.423,1.276,2.16a28.079,28.079,0,0,0-.442,3.29,16.547,16.547,0,0,0,.148,2.5,6.808,6.808,0,0,1,.245,1.815c-.067.933-.638,1.082-1.226.493s-8.789-9.33-8.789-9.33c-.54,1.767,1.718,4.81,2.456,5.746s.686,1.619.048,2.258-1.866.981-2.111,1.57.589,2.358,2.308,4.566-1.964,3.684-4.173,4.125-2.21-1.081-2.062-1.916a7.512,7.512,0,0,0,.1-2.062,7.226,7.226,0,0,0-1.67-3c-.933-1.225-.933-2.355-.539-5.2a27.033,27.033,0,0,0,.295-4.665s-.983.049-2.406,0-2.6-.878-2.7-4.315-.181-11.636-.41-12.487-1.145-1.014-1.538-1.111a.479.479,0,0,1-.028-.886c1.023-.51,2.254-1.766,1.8-2.552s-2.258-.622-3.469-.033a11.381,11.381,0,0,0-2.816,2.226c-.327.359-.588.359-.556-.032a17.978,17.978,0,0,0-.392-2.914,12.31,12.31,0,0,0-.95-2.225c-.2-.327,0-.458.328-.327s1.047.425,1.735.622a1.4,1.4,0,0,0,1.669-.786c.327-.654.949-2.061,1.276-2.684s.852-.492,1.277-.392a7.852,7.852,0,0,1,1.21.523c.393.164.72.131.851-.065a3.019,3.019,0,0,0,.524-.754c.229-.491.523-.262.556-.065,1.173,7.04,4.223,7.365,4.223,7.365a32.654,32.654,0,0,1-1.8,3.5,4.5,4.5,0,0,0-.425,1.57,50.483,50.483,0,0,0,.491,6.843c.327,1.7,1.374,1.048,1.7.523s1.342-2.684,1.342-2.684a3.213,3.213,0,0,0,.262-1.08c0-.491-.851-1.572-1.048-1.9a3.872,3.872,0,0,1-.916-2.618c0-1.636,1.472-2.783,2-3.208a1.382,1.382,0,0,0,.459-1.375,20.131,20.131,0,0,0-2.226-4.943c-.655-1.014-1.932-2.946-1.932-2.946h2.651l1.7-3.535,1.867,3.551,1.931.016Zm-.429,10.738h0a11.578,11.578,0,0,0,1.233-2.914h-2.492a12.15,12.15,0,0,0,1.258,2.914Zm-2.6-7.211h0c.108.736.651,1.019,1.068.8s.332-.822.037-1.288-.9-.988-1.085-.908-.082.981-.021,1.4Zm4.963-1.4c-.181-.08-.826.442-1.121.908s-.381,1.068.037,1.288.942-.065,1.069-.8C1147.209,547.043,1147.347,546.159,1147.151,546.073Z" transform="translate(-1077.515 -482.183)" fill="#e02e22" fill-rule="evenodd"/>
  <rect id="Rectangle_1528" data-name="Rectangle 1528" width="47.828" height="3.262" transform="translate(43.91 54.224)" fill="#e02e22"/>
  <rect id="Rectangle_1529" data-name="Rectangle 1529" width="47.828" height="12.994" transform="translate(43.91 39.554)" fill="#e02e22"/>
  <path id="Path_13923" data-name="Path 13923" d="M1168.867,469.413v-2.219h-3.475v-1.43h2.835v-6.285h-2.6l-.883-1.718-.884,1.718h-2.6v6.285h2.835v1.43h-6.8v-1.43h2.833v-6.285h-2.6l-.884-1.718-.883,1.718h-2.6v6.285h2.834v1.43h-6.938v-1.43h2.834v-6.285h-2.6l-.884-1.718-.884,1.718h-2.6v6.285h2.834v1.43l-5.485.015-5.466-1.277,1.1,3.481Z" transform="translate(-1086.543 -416.478)" fill="#fff000" fill-rule="evenodd"/>
  <path id="Path_13924" data-name="Path 13924" d="M1146.011,472.952l3.665.9,1.966-5.518v-1.391Z" transform="translate(-1093.878 -423.78)" fill="#fff000" fill-rule="evenodd"/>
  <path id="Path_13925" data-name="Path 13925" d="M1135.652,272.681c-5.678.5-9.172,1.711-13.787,3.259a10,10,0,0,1,1.607-4.332c-.064,1.027.773,2.12,2.442,2.12s2.6-.962,2.6-1.54a1.317,1.317,0,0,0-1.249-1.411c-.9,0-1.09.642-1.027.9s-.128.321-.385.386-.962-.322-.706-1.219c.281-.988,1.476-1.525,2.886-1.525C1128.03,269.317,1131.388,269.183,1135.652,272.681Z" transform="translate(-1074.675 -266.607)" fill="#fff000" fill-rule="evenodd"/>
  <path id="Path_13926" data-name="Path 13926" d="M1269.366,276.115a54.469,54.469,0,0,0-13.943-3.26c2.613-1.821,5.054-3.368,7.737-3.368,1.41,0,2.6.537,2.886,1.523.256.9-.45,1.283-.706,1.219s-.448-.129-.385-.385-.129-.9-1.026-.9a1.317,1.317,0,0,0-1.25,1.412c0,.577.929,1.54,2.6,1.54s2.507-1.094,2.442-2.12A10.021,10.021,0,0,1,1269.366,276.115Z" transform="translate(-1180.894 -266.742)" fill="#fff000" fill-rule="evenodd"/>
  <path id="Path_13927" data-name="Path 13927" d="M1204.566,265.391c-.153.243-.287.425-.45.7.938-.049,3.1-.1,3.969-.1s3.258.116,3.782.154c-.847-1.959-2.443-4.664-3.558-4.664-.22,0-.707-.115-1.622.941,0,0-.142.465.439.376.737-.113,1.017.649.962,1.027a2.3,2.3,0,0,1-2.181,1.732A3.344,3.344,0,0,1,1204.566,265.391Z" transform="translate(-1140.09 -260.371)" fill="#fff000" fill-rule="evenodd"/>
  <path id="Path_13928" data-name="Path 13928" d="M923.251,391.049,927,385.959a7.7,7.7,0,0,0-.8-5.318,2.575,2.575,0,0,0-3.546-.991,3.278,3.278,0,0,0-1.265,1.144s-3.595,3.973-7.572,7.882a4.271,4.271,0,0,0-1.227,2.506,3.086,3.086,0,0,0,.778,2.208,3.146,3.146,0,0,0,3.945.36l.065,3.175A60.105,60.105,0,0,0,923.251,391.049Z" transform="translate(-908.23 -354.084)" fill="#231f20" fill-rule="evenodd"/>
  <path id="Path_13929" data-name="Path 13929" d="M979.385,309.424c21.342,0,33.5,20.041,36.137,23.561,4.714,6.285,10.473,11.381,17.152,9.689,9.82-2.487,9.3-17.036,9.3-17.036-2.355-1.7-6.4-3.848-13.748-14.272-7.2-10.212-23.5-25.364-48.836-25.364s-41.636,15.152-48.837,25.364c-7.35,10.424-11.391,12.569-13.748,14.272,0,0-.524,14.549,9.3,17.036,6.68,1.692,12.438-3.4,17.151-9.689C945.889,329.465,958.044,309.424,979.385,309.424Z" transform="translate(-911.581 -279.877)" fill="#fff000" fill-rule="evenodd"/>
  <path id="Path_13930" data-name="Path 13930" d="M977.475,308.011h0c-19.336,0-31.075,16.729-34.893,22.172-.338.48-.613.872-.852,1.192a32.821,32.821,0,0,1-7.965,7.954,11.967,11.967,0,0,1-9.7,1.917c-10.208-2.586-9.669-17.483-9.668-17.526l.007-.24.2-.143c.268-.194.536-.379.825-.578,2.415-1.666,6.294-4.342,12.807-13.579a62.39,62.39,0,0,1,21.814-18.954,60.128,60.128,0,0,1,54.848,0,62.374,62.374,0,0,1,21.814,18.954c6.512,9.234,10.391,11.912,12.806,13.578.29.2.558.385.826.58l.2.143.007.24c0,.043.539,14.94-9.667,17.526a11.964,11.964,0,0,1-9.7-1.917,32.824,32.824,0,0,1-7.965-7.954c-.24-.32-.515-.712-.852-1.192-3.82-5.443-15.559-22.172-34.894-22.172Zm0-.982c19.844,0,31.8,17.044,35.695,22.59.353.5.64.911.834,1.169a31.867,31.867,0,0,0,7.712,7.718,11.04,11.04,0,0,0,8.93,1.789c8.718-2.209,8.943-14.44,8.926-16.307-.188-.132-.393-.275-.61-.424-2.47-1.705-6.441-4.444-13.05-13.82a61.4,61.4,0,0,0-21.461-18.647,59.169,59.169,0,0,0-53.952,0,61.381,61.381,0,0,0-21.461,18.647c-6.612,9.378-10.581,12.117-13.052,13.821-.217.149-.422.292-.609.424-.016,1.868.209,14.1,8.928,16.307a11.039,11.039,0,0,0,8.93-1.789,31.865,31.865,0,0,0,7.712-7.718c.193-.258.48-.667.832-1.169C945.671,324.073,957.631,307.029,977.475,307.029Z" transform="translate(-909.671 -277.972)" fill="#231f20" fill-rule="evenodd"/>
  <path id="Path_13931" data-name="Path 13931" d="M986.93,314.882c20.575,0,32.819,17.453,36.844,23.187.325.466.608.866.8,1.131,5.444,7.258,10.408,10.2,15.175,8.991,6.9-1.747,7.742-11.235,7.838-14.1l0-.108-.087-.061c-2.426-1.673-6.486-4.472-13.286-14.117-4.064-5.762-19.482-24.562-47.293-24.562s-43.229,18.8-47.292,24.562c-6.753,9.577-10.991,12.5-13.268,14.074l-.088.061,0,.108c.1,2.878.955,12.4,7.82,14.143,4.769,1.208,9.732-1.733,15.175-8.991.2-.265.48-.666.805-1.13C954.11,332.335,966.355,314.882,986.93,314.882Z" transform="translate(-919.126 -287.226)" fill="#e02e22" fill-rule="evenodd"/>
  <path id="Path_13932" data-name="Path 13932" d="M972.848,430.467l-2.147,2.56,4.028,8.324-8.643-2.824-1.85,2.2,8.87,7.443,1.34-1.6-6.262-5.276,8.4,2.729.881-1.051-4-8.022,6.3,5.283,1.957-2.332Z" transform="translate(-949.31 -394.771)" fill="#fff000" fill-rule="evenodd"/>
  <path id="Path_13933" data-name="Path 13933" d="M1030.564,396.278h0l-1.974,2.116,5.546,11.03,1.354-1.451-1.506-2.92,2.684-2.879,3.03,1.287,2.234-2.4-11.367-4.787Zm4.68,5.256-2.008,2.153-2.058-3.977Z" transform="translate(-1000.492 -367.58)" fill="#fff000" fill-rule="evenodd"/>
  <path id="Path_13934" data-name="Path 13934" d="M1075.294,339.352l4.339,6.944-9.669-3.614-2.161,1.351,6.136,9.819,2.343-1.463-4.374-7,9.775,3.625,2.1-1.316-6.135-9.819Z" transform="translate(-1031.678 -321.135)" fill="#fff000" fill-rule="evenodd"/>
  <path id="Path_13935" data-name="Path 13935" d="M1270.219,332.157l1.217-3.534,3.409,1.174.509-1.471-3.411-1.173,1.038-3.019,3.5,1.207.5-1.455-6.4-2.2-3.769,10.947,7.054,2.429.505-1.47Z" transform="translate(-1189.958 -308.254)" fill="#fff000" fill-rule="evenodd"/>
  <path id="Path_13936" data-name="Path 13936" d="M1359.486,369.274l-1.043,1.132,2.435,2.191-6.719,7.463,2.262,2.036,6.72-7.462,2.4,2.158,1.028-1.143Z" transform="translate(-1259.419 -346.104)" fill="#fff000" fill-rule="evenodd"/>
  <path id="Path_13937" data-name="Path 13937" d="M1384.156,420.072l2.863-2.4,2.318,2.762,1.192-1-2.318-2.762,2.445-2.052,2.383,2.84,1.177-.99-4.348-5.183L1381,418.729l4.793,5.714,1.191-1Z" transform="translate(-1280.766 -379.515)" fill="#fff000" fill-rule="evenodd"/>
  <path id="Path_13938" data-name="Path 13938" d="M1420.9,458.625h0a3.375,3.375,0,0,0,3.747-.858c1.634-1.473,1.085-3.493-.621-5.385l-3.155-3.5-8.6,7.747,2.036,2.262,3.418-3.077,1.007,1.118-2.177,4.875,2.585,2.08,1.763-5.26Zm1.541-5.706a1.829,1.829,0,0,1-.113,2.793,1.982,1.982,0,0,1-2.967-.331l-.522-.578,2.925-2.634Z" transform="translate(-1305.63 -409.414)" fill="#fff000" fill-rule="evenodd"/>
  <path id="Path_13939" data-name="Path 13939" d="M1211.407,316.428l-.081,4.729-4.549-.079.083-4.73-3.044-.052-.2,11.576,3.042.054.092-5.294,4.549.08L1211.2,328l3.044.054.2-11.578Z" transform="translate(-1139.691 -303.97)" fill="#fff000" fill-rule="evenodd"/>
  <path id="Path_13940" data-name="Path 13940" d="M1311.042,357.522c2.159,1.3,4.519,1.089,5.616-.74.807-1.277.815-2.332-.147-4.22-.259-.547-.576-.933-.793-1.417-.421-.8-.815-1.449-.442-2.068.4-.662,1.328-.71,2.177-.2a3.381,3.381,0,0,1,1.439,2.039l1.4-.607a5.557,5.557,0,0,0-2.5-3.034c-2.477-1.487-4.5-1.095-5.333.3a3.484,3.484,0,0,0,.023,3.775s.4.694.641,1.149c.552.939,1.2,2.111.749,2.859a1.646,1.646,0,0,1-2.445.549,3.774,3.774,0,0,1-1.719-2.483l-1.536.663A5.926,5.926,0,0,0,1311.042,357.522Z" transform="translate(-1222.844 -327.856)" fill="#fff000" fill-rule="evenodd"/>
  <path id="Path_13941" data-name="Path 13941" d="M1146.2,319.222c-3.792.808-6.274,3.589-5.455,7.361.466,2.035,2.291,5.8,8.043,4.575a6.025,6.025,0,0,0,3.3-1.744l-1.059-1.209a3.861,3.861,0,0,1-2.307,1.361c-2.779.59-4.438-1.67-4.85-3.615-.612-2.875,1.065-4.872,2.976-5.278a4.14,4.14,0,0,1,2.691.282l.016,0,.353-1.476A5.931,5.931,0,0,0,1146.2,319.222Z" transform="translate(-1089.565 -306.157)" fill="#fff000" fill-rule="evenodd"/>
  <path id="Path_13942" data-name="Path 13942" d="M1467.357,390.085c-.159-.687-.384-3.62.729-5.167,1.029-1.427,1.965-.944,2.467-.72a1.92,1.92,0,0,1,1.04,1.408,2.476,2.476,0,0,1-.434,1.661,6.269,6.269,0,0,1-2.307,1.522,31.934,31.934,0,0,0,6.406,8.02l-.014,2.716C1469.283,393.776,1467.357,390.085,1467.357,390.085Z" transform="translate(-1349.342 -357.764)" fill="#fff000" fill-rule="evenodd"/>
  <path id="Path_13943" data-name="Path 13943" d="M1482.474,398.951a30.07,30.07,0,0,0,5.83,7.01c.622.582,2.171,1.067,3.046.085a2.134,2.134,0,0,0,.517-1.543,3.111,3.111,0,0,0-.91-1.927c-.748-.641-3.968-3.893-6.275-6.447a4.854,4.854,0,0,1-.458,1.244A4.139,4.139,0,0,1,1482.474,398.951Z" transform="translate(-1361.47 -367.462)" fill="#fff000" fill-rule="evenodd"/>
  <path id="Path_13944" data-name="Path 13944" d="M940.1,399.361l-.015-2.564a32.049,32.049,0,0,0,6.411-8.008,6.26,6.26,0,0,1-2.307-1.522,2.471,2.471,0,0,1-.435-1.661,1.93,1.93,0,0,1,1.039-1.408c.5-.224,1.44-.706,2.468.72,1.114,1.547.822,4.46.664,5.147C947.919,390.065,945.89,393.6,940.1,399.361Z" transform="translate(-930.1 -357.765)" fill="#fff000" fill-rule="evenodd"/>
  <path id="Path_13945" data-name="Path 13945" d="M927.226,398.951a29.945,29.945,0,0,1-5.83,7.01c-.621.582-2.17,1.067-3.045.085a2.128,2.128,0,0,1-.517-1.543,3.1,3.1,0,0,1,.91-1.927c.747-.641,3.967-3.893,6.274-6.447a4.871,4.871,0,0,0,.458,1.244A4.138,4.138,0,0,0,927.226,398.951Z" transform="translate(-912.404 -367.462)" fill="#fff000" fill-rule="evenodd"/>
  <path id="Path_13946" data-name="Path 13946" d="M904.62,584.281a9.646,9.646,0,1,1,9.646,9.645A9.646,9.646,0,0,1,904.62,584.281Z" transform="translate(-901.898 -509.429)" fill="#e02e22" fill-rule="evenodd"/>
  <path id="Path_13947" data-name="Path 13947" d="M920.066,596.225a8.86,8.86,0,0,0,6.258-8.377,7.91,7.91,0,0,0-.168-1.443c-.068-.374-.348-.419-.477-.161a8.231,8.231,0,0,1-2.165,2.746,7.892,7.892,0,0,1-5.151,1.859c-.255.006-.387.4-.387.769s.232,3.122,1.128,4.146c.232.267.463.622.962.46Zm-2.29.355c-.062,0-.124,0-.186,0a9.884,9.884,0,0,1-4.41-1.192c-1.077-.6-1.481-3.36-1.481-4.77a14.422,14.422,0,0,1,2.174-7.816,1.263,1.263,0,0,1,1.462-.465c.5.134.69.235,1.261.406.31.1.93.224,1.395.325s.962.2.664,1.064a17.2,17.2,0,0,0-1.41,5.422,16.163,16.163,0,0,0,.705,5.82c.328.886.323,1.221-.175,1.2Zm-6.607-10.412c.43.239.5-.033.565-.3a14.811,14.811,0,0,1,1.727-3.552,1.329,1.329,0,0,0,.172-.959c0-.2-.106-.527-.106-.734,0-.372-.232-.365-.383-.3a7.037,7.037,0,0,0-3.034,3.006,1.706,1.706,0,0,0-.051,1.176c.166.326.679,1.421,1.109,1.658Zm-.232,7.313h0a8.191,8.191,0,0,1-2.081-5.633,8.761,8.761,0,0,1,.373-2.537s.2-.366.4-.054c.142.224.334.451.506.755s1.117,1.021,1.03,1.586a20.8,20.8,0,0,0,.067,5.444c.1.466-.047.69-.3.44Zm3.815-13.9a1.077,1.077,0,0,0-.529.906c0,.266.231.871,1.266,1.195a13.712,13.712,0,0,0,3.685.8c1.192,0,2.981-.386,2.981-1.521a.825.825,0,0,0-.4-.792,7.649,7.649,0,0,0-4.163-1.055,8.984,8.984,0,0,0-2.838.472Zm8.071,1.272c.166.133.584.476.584.476A7.6,7.6,0,0,1,925.433,584c.552,1.319-1.149,3.3-1.646,3.762a6.652,6.652,0,0,1-4.452,2.181,1.02,1.02,0,0,1-1.293-.984,15.888,15.888,0,0,1,1.66-5.347,2.09,2.09,0,0,1,.63-.6,4.473,4.473,0,0,0,2.053-1.063A1.924,1.924,0,0,0,922.823,580.856Z" transform="translate(-905.266 -512.99)" fill="#fff000" fill-rule="evenodd"/>
  <path id="Path_13948" data-name="Path 13948" d="M1467.409,584.281a9.646,9.646,0,1,0-9.646,9.645A9.645,9.645,0,0,0,1467.409,584.281Z" transform="translate(-1334.146 -509.429)" fill="#e02e22" fill-rule="evenodd"/>
  <path id="Path_13949" data-name="Path 13949" d="M1452.785,587.848a8.861,8.861,0,0,0,6.257,8.377c.5.162.731-.193.963-.46.9-1.023,1.128-3.779,1.128-4.146s-.133-.764-.387-.769a7.889,7.889,0,0,1-5.15-1.859,8.214,8.214,0,0,1-2.166-2.746c-.13-.258-.41-.213-.476.161a7.822,7.822,0,0,0-.169,1.443Zm8.374,7.527a16.2,16.2,0,0,0,.7-5.82,17.271,17.271,0,0,0-1.408-5.422c-.3-.865.2-.963.662-1.064s1.083-.23,1.4-.325c.57-.171.762-.272,1.26-.406a1.265,1.265,0,0,1,1.463.465,14.424,14.424,0,0,1,2.174,7.816c0,1.411-.4,4.167-1.482,4.77a9.878,9.878,0,0,1-4.409,1.192c-.062,0-.123,0-.186,0-.5.017-.5-.318-.174-1.2Zm6.217-9.505c.066.264.135.536.565.3a4.967,4.967,0,0,0,1.109-1.658,1.7,1.7,0,0,0-.051-1.176,7.039,7.039,0,0,0-3.034-3.006c-.15-.069-.381-.076-.381.3,0,.207-.1.533-.107.734a1.332,1.332,0,0,0,.172.959,14.77,14.77,0,0,1,1.727,3.552Zm.5,7.171h0a20.867,20.867,0,0,0,.066-5.444c-.087-.565.855-1.282,1.03-1.586s.365-.531.507-.755c.2-.312.4.055.4.055a8.717,8.717,0,0,1,.373,2.537,8.186,8.186,0,0,1-2.082,5.633c-.252.25-.4.026-.3-.44Zm-2.99-12.55a1.078,1.078,0,0,0-.528-.906,9,9,0,0,0-2.839-.471,7.653,7.653,0,0,0-4.163,1.055.828.828,0,0,0-.4.792c0,1.135,1.789,1.521,2.981,1.521a13.713,13.713,0,0,0,3.685-.8c1.035-.324,1.265-.929,1.265-1.195Zm-8.16,1.461a4.46,4.46,0,0,0,2.05,1.063,2.092,2.092,0,0,1,.632.6,15.944,15.944,0,0,1,1.661,5.347,1.022,1.022,0,0,1-1.294.984,6.646,6.646,0,0,1-4.45-2.181c-.5-.464-2.2-2.443-1.647-3.762a7.575,7.575,0,0,1,2.026-2.668s.417-.343.583-.476A1.92,1.92,0,0,0,1456.725,581.952Z" transform="translate(-1337.858 -512.99)" fill="#fff000" fill-rule="evenodd"/>
  <path id="Path_13950" data-name="Path 13950" d="M1448.418,583.841h0a9.6,9.6,0,1,0,2.811-6.785,9.566,9.566,0,0,0-2.811,6.785Zm-.1,0a9.693,9.693,0,1,1,2.84,6.856A9.661,9.661,0,0,1,1448.32,583.841Z" transform="translate(-1334.307 -509.04)" fill="#ffe500" fill-rule="evenodd"/>
</svg>
