<svg xmlns="http://www.w3.org/2000/svg" xmlns:xlink="http://www.w3.org/1999/xlink" width="388.273" height="247.492" viewBox="0 0 388.273 247.492">
  <defs>
    <linearGradient id="linear-gradient" x1="-27.471" y1="-14.158" x2="-26.727" y2="-13.45" gradientUnits="objectBoundingBox">
      <stop offset="0" stop-color="#eb6989"/>
      <stop offset="1" stop-color="#ac398d"/>
    </linearGradient>
    <linearGradient id="linear-gradient-2" x1="5.04" y1="-3.085" x2="6.016" y2="-3.085" gradientUnits="objectBoundingBox">
      <stop offset="0" stop-color="#672985"/>
      <stop offset="0.223" stop-color="#6a2983"/>
      <stop offset="0.395" stop-color="#732a7e"/>
      <stop offset="0.549" stop-color="#842d76"/>
      <stop offset="0.693" stop-color="#9b306b"/>
      <stop offset="0.83" stop-color="#b9355c"/>
      <stop offset="0.96" stop-color="#dd3b4a"/>
      <stop offset="1" stop-color="#ea3d44"/>
    </linearGradient>
  </defs>
  <g id="Group_1136" data-name="Group 1136" transform="translate(-1895.68 -1922.601)">
    <path id="Path_13975" data-name="Path 13975" d="M211.3,156.728c-39.306,32.675-44.465,30.534-84.171,38.955C49.9,212.059-65.342,88.244,46.511,64.732c95.484-20.071,83.752-53.7,148.317-64.142C230.494-5.178,363.54,30.17,211.3,156.728Z" transform="translate(1933.302 1922.601) rotate(11)" opacity="0.43" fill="url(#linear-gradient)"/>
    <path id="BG1" d="M3038.634-39.36c0-43.606,96.825-74.1,151.1-83.207,60.627-10.176,148.5,20.47,148.5,64.075s-82.5,102.338-148.5,93.835C3128.417,27.443,3038.634,4.245,3038.634-39.36Z" transform="translate(-1089.695 2102.809)" fill="#464495"/>
    <path id="Path_13976" data-name="Path 13976" d="M2970.981,102.761l70.579,50.074c.85-.12,1.7-.232,2.561-.344l-72.049-51.116Q2971.524,102.066,2970.981,102.761Zm3.3-4.118,75.04,53.238c.891-.092,1.788-.175,2.687-.254l-76.6-54.349C2975.024,97.73,2974.652,98.187,2974.277,98.643Zm28.346-50.926,164.652,116.816c1.012,0,2.028,0,3.025-.014L3003.09,45.888Zm-24.965,46.866,79.863,56.661c.954-.049,1.911-.092,2.874-.121L2978.8,93.234C2978.422,93.68,2978.04,94.131,2977.659,94.583Zm6.856-8.051,91.866,65.175c1.227.131,2.463.291,3.705.469l-94.434-67C2985.277,85.626,2984.9,86.073,2984.515,86.532Zm15.167-27.986L3148.033,163.8c1.133.085,2.263.168,3.381.239L3000.206,56.758C3000.033,57.354,2999.863,57.95,2999.683,58.546Zm-6.041,15.087,120.852,85.741c1.371.252,2.759.527,4.117.761L2994.465,72.058C2994.2,72.587,2993.919,73.109,2993.642,73.633Zm7.567-20.462,156.715,111.186c1.072.04,2.164.1,3.221.126L3001.688,51.351C3001.529,51.957,3001.37,52.562,3001.208,53.171Zm-5.248,15.651,130.444,92.547c1.274.189,2.532.359,3.792.531L2996.664,67.161C2996.438,67.716,2996.2,68.269,2995.961,68.821Zm2-5.041,139.607,99.047c1.2.134,2.366.24,3.549.358L2998.556,62.045C2998.361,62.624,2998.163,63.2,2997.956,63.78Zm-16.87,26.777,85.328,60.538c1.054.019,2.11.045,3.175.092l-87.354-61.975Zm-24.464,40.763,38.622,27.4c1.008.019,2.021.015,3.039,0l-41.418-29.385C2956.755,130,2956.676,130.661,2956.622,131.32Zm.586,6.873,27.393,19.435c1.3.253,2.612.468,3.931.628l-31.815-22.572A18.308,18.308,0,0,0,2957.208,138.193Zm16.18,15.9c.132.06.266.106.4.165l-13.062-9.268C2963.414,148.338,2967.513,151.41,2973.388,154.089Zm14.492-71.627,100.4,71.231c.716.163,1.428.306,2.148.486.8.2,1.579.369,2.373.562L2988.946,81.059C2988.6,81.528,2988.251,82,2987.88,82.461Zm45.884-72.931c-.778.153-1.558.326-2.339.5l198.615,140.912c.554-.327,1.094-.664,1.631-1Zm-74.108,111.025,52.2,37.035c.842-.112,1.69-.234,2.54-.358l-53.983-38.3C2960.146,119.475,2959.9,120.016,2959.656,120.556Zm5.163-9.251,61.906,43.921,2.452-.42-63.384-44.969C2965.461,110.325,2965.14,110.816,2964.82,111.305Zm-2.75,4.506,57.3,40.655c.819-.133,1.643-.272,2.467-.41l-58.889-41.78C2962.645,114.789,2962.358,115.3,2962.069,115.812Zm-4.33,9.843,46.2,32.779q1.351-.1,2.709-.237L2958.3,123.9C2958.095,124.484,2957.914,125.07,2957.739,125.655Zm10.069-18.688,66.269,47.016q1.236-.2,2.484-.4l-67.7-48.034C2968.505,106.023,2968.152,106.494,2967.808,106.967Zm23.152-28.778L3101.8,156.826c1.454.319,2.894.616,4.333.915L2991.9,76.7C2991.594,77.2,2991.283,77.694,2990.96,78.189Zm261.981,41.638L3117.805,23.952q-3.263-1.252-6.585-2.512L3252.6,121.747C3252.741,121.119,3252.83,120.468,3252.941,119.827Zm.5-12.558L3151.861,35.2q-2.544-.7-4.994-1.383l106.688,75.692C3253.522,108.763,3253.509,108.027,3253.445,107.269Zm.121,6.543L3136.479,30.741c-2.019-.639-3.954-1.285-5.784-1.943l122.77,87.1C3253.521,115.214,3253.538,114.511,3253.566,113.812ZM3004.029,42.256l172.084,122.09c.952-.042,1.883-.1,2.822-.158L3004.518,40.444C3004.354,41.046,3004.189,41.647,3004.029,42.256Zm245.64,88.164L3082.834,12.055c-1.531-.4-3.073-.765-4.619-1.118L3248.84,131.992C3249.114,131.467,3249.417,130.957,3249.668,130.42Zm-2.583,4.626L3069.828,9.287c-1.272-.208-2.55-.391-3.833-.56l180.1,127.778C3246.435,136.024,3246.771,135.54,3247.086,135.046Zm-30.657-77.711,20.782,14.745A87.933,87.933,0,0,0,3216.429,57.335Zm35.956,42.723-85.74-60.83q-2.5-.692-4.961-1.36l91.153,64.671C3252.7,101.719,3252.554,100.893,3252.385,100.058Zm-6.952-17.846L3199.8,49.834q-3.153-1.225-6.363-2.355l54.084,38.371Q3246.549,83.984,3245.433,82.212Zm4.81,9.87-68.156-48.355q-2.659-.824-5.312-1.609l74.357,52.755C3250.86,93.926,3250.566,92.995,3250.243,92.081Zm1.393,33.277L3098.8,16.926q-2.833-.975-5.708-1.89l157.929,112.046C3251.23,126.51,3251.451,125.943,3251.635,125.358ZM3009.427,26.714l190.247,134.974c.8-.152,1.585-.314,2.369-.479l-191.8-136.076C3009.959,25.648,3009.693,26.18,3009.427,26.714Zm2.676-4.559,194.514,138c.751-.188,1.5-.374,2.237-.573L3013.143,20.732C3012.783,21.2,3012.438,21.671,3012.1,22.155Zm3.372-4.066,197.651,140.228c.7-.222,1.42-.432,2.1-.666L3016.8,16.866C3016.342,17.263,3015.9,17.667,3015.475,18.088Zm-9.937,18.782,178.916,126.935c.9-.08,1.756-.194,2.639-.287l-181-128.414C3005.906,35.689,3005.718,36.275,3005.538,36.87Zm1.752-5.215,185,131.252c.849-.117,1.67-.255,2.5-.384L3007.951,29.964C3007.724,30.52,3007.5,31.085,3007.291,31.655ZM3025,11.928l199.843,141.783c.6-.292,1.219-.576,1.806-.879L3027,11.187C3026.3,11.413,3025.648,11.67,3025,11.928Zm215.352,131.253L3049.552,7.816c-.961.024-1.924.056-2.891.109l192.4,136.5C3239.512,144.025,3239.917,143.6,3240.349,143.181ZM3019.7,14.63l199.5,141.538c.653-.257,1.337-.492,1.974-.761l-199.81-141.76C3020.8,13.966,3020.231,14.284,3019.7,14.63Zm216.54,132.1L3041.248,8.383c-.858.1-1.718.208-2.58.33l196.125,139.146C3235.3,147.494,3235.758,147.1,3236.242,146.727Zm7.729-7.433L3058.951,8.027q-1.636-.111-3.285-.171L3242.83,140.644C3243.226,140.2,3243.6,139.747,3243.971,139.293Z" transform="translate(-969.613 1959.714)" fill="url(#linear-gradient-2)"/>
    <g id="Group_942" data-name="Group 942" transform="translate(1956.308 2007.845)">
      <g id="Group_840" data-name="Group 840" transform="translate(41.52 57.272)">
        <path id="Path_13965" data-name="Path 13965" d="M826.09,1706.152l1.122,8.16-6.951.956,3.77,27.427-8.331,1.145-3.77-27.427-6.9.949-1.122-8.161Z" transform="translate(-803.907 -1700.851)" fill="#66bc99"/>
        <path id="Path_13966" data-name="Path 13966" d="M934.737,1735.386l-8.369.823-3.508-35.653,8.369-.823Z" transform="translate(-891.096 -1696.146)" fill="#66bc99"/>
        <path id="Path_13967" data-name="Path 13967" d="M1019.713,1708.4a14.411,14.411,0,0,1-.828,5.835,15.03,15.03,0,0,1-2.95,4.934,15.637,15.637,0,0,1-4.6,3.517,15.1,15.1,0,0,1-5.788,1.586l.334,5.693-8.395.493-2.1-35.714,8.395-.494a14.869,14.869,0,0,1,5.936.92,16.015,16.015,0,0,1,4.985,2.979,15.034,15.034,0,0,1,3.508,4.554A14.405,14.405,0,0,1,1019.713,1708.4Zm-14.653,7.648a6.72,6.72,0,0,0,2.572-.764,7.169,7.169,0,0,0,2.025-1.589,6.764,6.764,0,0,0,1.291-2.207,6.69,6.69,0,0,0-.3-5.176,6.776,6.776,0,0,0-1.54-2.041,7.18,7.18,0,0,0-2.2-1.341,6.738,6.738,0,0,0-2.644-.457Z" transform="translate(-944.253 -1692.115)" fill="#66bc99"/>
        <path id="Path_13968" data-name="Path 13968" d="M1133.1,1723.519a13.214,13.214,0,0,1-3.463-.426,11.8,11.8,0,0,1-3.275-1.4,12.041,12.041,0,0,1-5.785-10.271l8.409-.091a3.527,3.527,0,0,0,.671,2.259,4.642,4.642,0,0,0,1.156,1.085,3.822,3.822,0,0,0,1.947.613,4.483,4.483,0,0,0,2.036-.413,3.313,3.313,0,0,0,1.111-.743,3.974,3.974,0,0,0,.638-.86,2.3,2.3,0,0,0,.265-.807,5.294,5.294,0,0,0,.043-.634,5.362,5.362,0,0,0-.057-.633,2.554,2.554,0,0,0-.282-.825,3.337,3.337,0,0,0-.656-.846,4.308,4.308,0,0,0-1.128-.743,11.067,11.067,0,0,0-1.174-.426q-.625-.187-1.323-.424-1.249-.376-2.6-.849a14.6,14.6,0,0,1-2.7-1.287,10.422,10.422,0,0,1-2.965-2.648,10.484,10.484,0,0,1-2.144-7.264,9.946,9.946,0,0,1,1.078-3.79,10.749,10.749,0,0,1,5.172-4.857,11.031,11.031,0,0,1,3.523-.891,11.886,11.886,0,0,1,3.835.3,11.3,11.3,0,0,1,3.434,1.352,10.826,10.826,0,0,1,2.671,2.261,9.892,9.892,0,0,1,1.739,2.979,10.191,10.191,0,0,1,.631,3.454l-8.366.091a1.675,1.675,0,0,0-.738-1.552,5.05,5.05,0,0,0-1.275-.571,3.412,3.412,0,0,1-.473-.068,2.46,2.46,0,0,0-.846.009,3.03,3.03,0,0,0-.966.352,1.926,1.926,0,0,0-.787.862,2.139,2.139,0,0,0-.131,1.635,2.328,2.328,0,0,0,1.009,1.329,11.066,11.066,0,0,0,1.55.69q.849.308,1.8.59.848.235,1.72.517t1.767.663a11.677,11.677,0,0,1,5.166,4.234,11.5,11.5,0,0,1,.136,12.526,11.673,11.673,0,0,1-5.073,4.345,12.026,12.026,0,0,1-2.62.881A13.713,13.713,0,0,1,1133.1,1723.519Z" transform="translate(-1036.016 -1686.299)" fill="#66bc99"/>
        <path id="Path_13969" data-name="Path 13969" d="M1264.847,1689.3l-.274,8.233-7.012-.234-.922,27.67-8.4-.28.922-27.67-6.962-.232.274-8.232Z" transform="translate(-1125.157 -1687.949)" fill="#66bc99"/>
        <path id="Path_13970" data-name="Path 13970" d="M1376.65,1703.932l-14.982-1.166-.42,5.394,12.154.946-.639,8.212-12.155-.946-.439,5.637,14.982,1.166-.639,8.213-23.366-1.818,2.771-35.62,23.37,1.77Z" transform="translate(-1205.017 -1691.907)" fill="#66bc99"/>
        <path id="Path_13971" data-name="Path 13971" d="M1483.987,1732.639q-.654.015-1.3-.018t-1.345-.072l-1.137,8.945-8.342-1.06,4.489-35.346,8.342,1.06a16.7,16.7,0,0,1,5.684,1.85,16.254,16.254,0,0,1,4.4,3.454,13.274,13.274,0,0,1,2.681,4.561,11.452,11.452,0,0,1,.516,5.217,11.635,11.635,0,0,1-1.905,5.131,12.906,12.906,0,0,1-3.992,3.786l6.39,13.667-9.823-1.247Zm-1.6-8.311a8.9,8.9,0,0,0,2.6-.136,7.756,7.756,0,0,0,2.261-.818,5.241,5.241,0,0,0,1.631-1.39,3.781,3.781,0,0,0,.76-1.844,3.648,3.648,0,0,0-.279-1.952,5.368,5.368,0,0,0-1.235-1.729,7.75,7.75,0,0,0-1.984-1.358,8.978,8.978,0,0,0-2.484-.782Z" transform="translate(-1293.497 -1700.071)" fill="#66bc99"/>
      </g>
      <g id="Group_841" data-name="Group 841" transform="translate(0 1.805)">
        <path id="Path_13972" data-name="Path 13972" d="M670.323,1518.807l1.712,8.057-6.863,1.458,5.754,27.081-8.226,1.748-5.754-27.081-6.814,1.448-1.712-8.057Z" transform="translate(-648.42 -1508.065)" fill="#fff"/>
        <path id="Path_13973" data-name="Path 13973" d="M783.375,1533.769q-.626.192-1.259.333t-1.315.292l1.312,8.921-8.32,1.223-5.182-35.251,8.32-1.223a16.708,16.708,0,0,1,5.972.254,16.25,16.25,0,0,1,5.168,2.143,13.278,13.278,0,0,1,3.809,3.671,11.465,11.465,0,0,1,1.9,4.886,11.646,11.646,0,0,1-.456,5.455,12.9,12.9,0,0,1-2.827,4.72l9.83,11.445-9.8,1.44ZM779.6,1526.2a8.9,8.9,0,0,0,2.468-.831,7.743,7.743,0,0,0,1.957-1.4,5.24,5.24,0,0,0,1.2-1.777,3.781,3.781,0,0,0,.237-1.981,3.646,3.646,0,0,0-.793-1.8,5.369,5.369,0,0,0-1.655-1.333,7.782,7.782,0,0,0-2.276-.774,8.961,8.961,0,0,0-2.6-.085Z" transform="translate(-736.515 -1500.077)" fill="#fff"/>
        <path id="Path_13974" data-name="Path 13974" d="M916.681,1526.437l-8.366.857-3.649-35.639,8.366-.857Z" transform="translate(-836.24 -1487.536)" fill="#fff"/>
        <path id="Path_13975-2" data-name="Path 13975" d="M991.335,1518.66a19.044,19.044,0,0,1-6.957-.873,17.611,17.611,0,0,1-6.272-3.552,18.149,18.149,0,0,1-4.3-5.575,17.944,17.944,0,0,1-.83-13.72,17.619,17.619,0,0,1,3.6-6,17.849,17.849,0,0,1,5.821-4.307,18.863,18.863,0,0,1,6.8-1.73,18.669,18.669,0,0,1,6.934.9,17.931,17.931,0,0,1,6.273,3.576l-5.56,6.147a9.554,9.554,0,0,0-3.406-1.918,10.361,10.361,0,0,0-3.768-.48,10.141,10.141,0,0,0-3.658.93,9.592,9.592,0,0,0-3.125,2.313,10.141,10.141,0,0,0-1.944,3.292,9.372,9.372,0,0,0-.521,3.742,9.185,9.185,0,0,0,.968,3.628,10.214,10.214,0,0,0,2.326,3.009,9.566,9.566,0,0,0,3.381,1.919,10.13,10.13,0,0,0,3.743.482,10.334,10.334,0,0,0,3.682-.931,9.532,9.532,0,0,0,3.15-2.315l6.264,5.48a17.685,17.685,0,0,1-5.773,4.281A18.977,18.977,0,0,1,991.335,1518.66Z" transform="translate(-885.587 -1481.721)" fill="#fff"/>
        <path id="Path_13976-2" data-name="Path 13976" d="M1150.53,1478.581l-18.648,18.052,18.869,17.772-12.141.075-11.812-11.187.069,11.259-8.409.052-.22-35.825,8.409-.052.07,11.308,11.723-11.38Z" transform="translate(-992.781 -1478.581)" fill="#fff"/>
        <path id="Path_13977" data-name="Path 13977" d="M1267.1,1516.016a13.232,13.232,0,0,1-3.435-.615,11.827,11.827,0,0,1-3.193-1.58,12.039,12.039,0,0,1-5.212-10.573l8.4.37a3.528,3.528,0,0,0,.547,2.293,4.635,4.635,0,0,0,1.094,1.146,3.819,3.819,0,0,0,1.911.719,4.487,4.487,0,0,0,2.055-.3,3.32,3.32,0,0,0,1.151-.681,4.01,4.01,0,0,0,.684-.823,2.312,2.312,0,0,0,.309-.792,5.421,5.421,0,0,0,.078-.631,5.352,5.352,0,0,0-.022-.635,2.545,2.545,0,0,0-.237-.84,3.325,3.325,0,0,0-.609-.881,4.309,4.309,0,0,0-1.085-.8,11.073,11.073,0,0,0-1.149-.49q-.613-.222-1.3-.5-1.226-.444-2.547-.991a14.6,14.6,0,0,1-2.626-1.433,10.411,10.411,0,0,1-2.815-2.807,10.483,10.483,0,0,1-1.743-7.37,9.945,9.945,0,0,1,1.285-3.725,10.738,10.738,0,0,1,5.431-4.566,11.016,11.016,0,0,1,3.567-.7,11.9,11.9,0,0,1,3.813.509,11.3,11.3,0,0,1,3.355,1.539,10.814,10.814,0,0,1,2.543,2.405,9.887,9.887,0,0,1,1.573,3.069,10.2,10.2,0,0,1,.441,3.484l-8.359-.368a1.676,1.676,0,0,0-.652-1.59,5.053,5.053,0,0,0-1.242-.64,3.436,3.436,0,0,1-.469-.093,2.442,2.442,0,0,0-.845-.037,3.029,3.029,0,0,0-.984.3,1.93,1.93,0,0,0-.833.818,2.144,2.144,0,0,0-.221,1.624,2.33,2.33,0,0,0,.936,1.383,11.1,11.1,0,0,0,1.51.774q.83.354,1.763.687.834.282,1.69.611t1.727.759a11.679,11.679,0,0,1,4.926,4.51,11.5,11.5,0,0,1-.551,12.515,11.671,11.671,0,0,1-5.3,4.06,11.991,11.991,0,0,1-2.665.737A13.7,13.7,0,0,1,1267.1,1516.016Z" transform="translate(-1093.202 -1478.748)" fill="#fff"/>
        <path id="Path_13978" data-name="Path 13978" d="M1403.09,1487.334l-.723,8.205-6.989-.617-2.432,27.578-8.377-.739,2.432-27.578-6.94-.612.724-8.206Z" transform="translate(-1184.69 -1483.555)" fill="#fff"/>
        <path id="Path_13979" data-name="Path 13979" d="M1509.8,1508.429l-14.9-1.983-.714,5.363,12.085,1.609-1.087,8.165-12.085-1.609-.746,5.6,14.9,1.983-1.088,8.166-23.231-3.093,4.715-35.415,23.238,3.044Z" transform="translate(-1260.096 -1492.242)" fill="#fff"/>
        <path id="Path_13980" data-name="Path 13980" d="M1615.41,1543.221q-.654-.02-1.3-.089t-1.339-.146l-1.626,8.869-8.271-1.516,6.423-35.046,8.271,1.516a16.7,16.7,0,0,1,5.573,2.159,16.248,16.248,0,0,1,4.205,3.691,13.276,13.276,0,0,1,2.427,4.7,11.454,11.454,0,0,1,.229,5.237,11.639,11.639,0,0,1-2.184,5.019,12.9,12.9,0,0,1-4.194,3.561l5.63,14-9.74-1.785Zm-1.144-8.386a8.9,8.9,0,0,0,2.6.006,7.738,7.738,0,0,0,2.3-.693,5.233,5.233,0,0,0,1.705-1.3,3.782,3.782,0,0,0,.861-1.8,3.656,3.656,0,0,0-.172-1.964,5.383,5.383,0,0,0-1.138-1.794,7.789,7.789,0,0,0-1.907-1.465,8.969,8.969,0,0,0-2.437-.917Z" transform="translate(-1348.005 -1505.489)" fill="#fff"/>
      </g>
      <g id="Group_842" data-name="Group 842" transform="translate(1.354)">
        <path id="Path_13981" data-name="Path 13981" d="M675.392,1512.048l1.712,8.058-6.863,1.458,5.754,27.081-8.226,1.748-5.754-27.081-6.814,1.448-1.712-8.057Z" transform="translate(-653.489 -1501.306)" fill="#66bc99"/>
        <path id="Path_13982" data-name="Path 13982" d="M788.445,1527.01q-.627.192-1.259.333t-1.315.292l1.312,8.921-8.32,1.223-5.182-35.251,8.32-1.223a16.709,16.709,0,0,1,5.972.254,16.257,16.257,0,0,1,5.169,2.143,13.282,13.282,0,0,1,3.809,3.672,11.466,11.466,0,0,1,1.9,4.886,11.643,11.643,0,0,1-.456,5.455,12.9,12.9,0,0,1-2.826,4.72l9.83,11.444-9.8,1.44Zm-3.779-7.573a8.917,8.917,0,0,0,2.468-.831,7.721,7.721,0,0,0,1.957-1.4,5.238,5.238,0,0,0,1.2-1.777,3.776,3.776,0,0,0,.237-1.981,3.652,3.652,0,0,0-.794-1.8,5.371,5.371,0,0,0-1.654-1.333,7.772,7.772,0,0,0-2.277-.774,8.949,8.949,0,0,0-2.6-.085Z" transform="translate(-741.585 -1493.318)" fill="#66bc99"/>
        <path id="Path_13983" data-name="Path 13983" d="M921.75,1519.679l-8.366.857-3.649-35.639,8.366-.857Z" transform="translate(-841.309 -1480.777)" fill="#66bc99"/>
        <path id="Path_13984" data-name="Path 13984" d="M996.4,1511.9a19.023,19.023,0,0,1-6.957-.873,17.615,17.615,0,0,1-6.272-3.552,18.148,18.148,0,0,1-4.3-5.575,17.943,17.943,0,0,1-.83-13.72,17.618,17.618,0,0,1,3.6-6,17.862,17.862,0,0,1,5.821-4.308,18.871,18.871,0,0,1,6.8-1.73,18.673,18.673,0,0,1,6.934.9,17.93,17.93,0,0,1,6.273,3.576l-5.56,6.148a9.549,9.549,0,0,0-3.406-1.918,10.357,10.357,0,0,0-3.768-.48,10.155,10.155,0,0,0-3.658.929,9.6,9.6,0,0,0-3.125,2.313,10.144,10.144,0,0,0-1.944,3.292,9.367,9.367,0,0,0-.521,3.743,9.191,9.191,0,0,0,.967,3.628,10.224,10.224,0,0,0,2.326,3.009,9.57,9.57,0,0,0,3.381,1.92,10.131,10.131,0,0,0,3.743.482,10.333,10.333,0,0,0,3.682-.931,9.534,9.534,0,0,0,3.15-2.315l6.264,5.481a17.683,17.683,0,0,1-5.773,4.281A18.97,18.97,0,0,1,996.4,1511.9Z" transform="translate(-890.656 -1474.962)" fill="#66bc99"/>
        <path id="Path_13985" data-name="Path 13985" d="M1155.6,1471.822l-18.649,18.052,18.869,17.773-12.141.074-11.812-11.187.069,11.259-8.409.052-.22-35.824,8.409-.052.069,11.308,11.724-11.38Z" transform="translate(-997.851 -1471.822)" fill="#66bc99"/>
        <path id="Path_13986" data-name="Path 13986" d="M1272.141,1509.256a13.247,13.247,0,0,1-3.435-.615,11.818,11.818,0,0,1-3.193-1.58,12.036,12.036,0,0,1-5.213-10.573l8.4.37a3.531,3.531,0,0,0,.547,2.293,4.641,4.641,0,0,0,1.1,1.146,3.811,3.811,0,0,0,1.911.718,4.475,4.475,0,0,0,2.055-.3,3.313,3.313,0,0,0,1.151-.681,4,4,0,0,0,.684-.824,2.322,2.322,0,0,0,.309-.791,5.273,5.273,0,0,0,.078-.631,5.393,5.393,0,0,0-.022-.635,2.552,2.552,0,0,0-.237-.84,3.324,3.324,0,0,0-.609-.881,4.3,4.3,0,0,0-1.085-.8,10.946,10.946,0,0,0-1.149-.49q-.614-.221-1.3-.5-1.226-.444-2.547-.99a14.608,14.608,0,0,1-2.626-1.433,10.417,10.417,0,0,1-2.815-2.807,10.483,10.483,0,0,1-1.743-7.371,9.956,9.956,0,0,1,1.285-3.725,10.75,10.75,0,0,1,5.431-4.566,11.034,11.034,0,0,1,3.567-.7,11.887,11.887,0,0,1,3.812.509,11.293,11.293,0,0,1,3.355,1.538,10.824,10.824,0,0,1,2.543,2.4,9.879,9.879,0,0,1,1.573,3.07,10.2,10.2,0,0,1,.441,3.483l-8.358-.368a1.676,1.676,0,0,0-.652-1.59,5.069,5.069,0,0,0-1.242-.64,3.44,3.44,0,0,1-.469-.094,2.467,2.467,0,0,0-.845-.038,3.031,3.031,0,0,0-.985.3,1.928,1.928,0,0,0-.833.817,2.144,2.144,0,0,0-.221,1.625,2.33,2.33,0,0,0,.935,1.383,10.979,10.979,0,0,0,1.51.773q.831.355,1.763.688.834.282,1.69.611t1.728.759a11.681,11.681,0,0,1,4.927,4.51,11.5,11.5,0,0,1-.551,12.515,11.675,11.675,0,0,1-5.3,4.06,12.045,12.045,0,0,1-2.664.737A13.754,13.754,0,0,1,1272.141,1509.256Z" transform="translate(-1098.253 -1471.988)" fill="#66bc99"/>
        <path id="Path_13987" data-name="Path 13987" d="M1408.159,1480.575l-.723,8.205-6.989-.616-2.432,27.578-8.377-.739,2.432-27.578-6.939-.612.724-8.206Z" transform="translate(-1189.759 -1476.796)" fill="#66bc99"/>
        <path id="Path_13988" data-name="Path 13988" d="M1514.875,1501.67l-14.9-1.983-.714,5.363,12.084,1.608-1.087,8.165-12.084-1.609-.746,5.6,14.9,1.983-1.087,8.165-23.231-3.093,4.714-35.415,23.238,3.044Z" transform="translate(-1265.166 -1485.483)" fill="#66bc99"/>
        <path id="Path_13989" data-name="Path 13989" d="M1620.479,1536.463q-.655-.02-1.3-.089t-1.339-.146l-1.625,8.869-8.272-1.516,6.423-35.046,8.272,1.516a16.7,16.7,0,0,1,5.573,2.159,16.26,16.26,0,0,1,4.206,3.691,13.272,13.272,0,0,1,2.427,4.7,11.465,11.465,0,0,1,.229,5.237,11.646,11.646,0,0,1-2.184,5.019,12.9,12.9,0,0,1-4.194,3.561l5.63,14-9.74-1.785Zm-1.145-8.386a8.9,8.9,0,0,0,2.6.006,7.732,7.732,0,0,0,2.3-.693,5.237,5.237,0,0,0,1.705-1.3,3.779,3.779,0,0,0,.861-1.8,3.648,3.648,0,0,0-.172-1.964,5.37,5.37,0,0,0-1.138-1.794,7.794,7.794,0,0,0-1.907-1.465,8.945,8.945,0,0,0-2.437-.917Z" transform="translate(-1353.074 -1498.731)" fill="#66bc99"/>
      </g>
      <g id="Group_843" data-name="Group 843" transform="translate(43.325 54.114)">
        <path id="Path_13990" data-name="Path 13990" d="M832.848,1694.326l1.122,8.161-6.951.955,3.77,27.427-8.331,1.145-3.77-27.427-6.9.949-1.121-8.16Z" transform="translate(-810.665 -1689.025)" fill="#fff"/>
        <path id="Path_13991" data-name="Path 13991" d="M941.5,1723.559l-8.369.823-3.508-35.653,8.369-.823Z" transform="translate(-897.854 -1684.319)" fill="#fff"/>
        <path id="Path_13992" data-name="Path 13992" d="M1026.471,1696.572a14.41,14.41,0,0,1-.828,5.835,15.03,15.03,0,0,1-2.95,4.933,15.636,15.636,0,0,1-4.6,3.518,15.1,15.1,0,0,1-5.789,1.585l.335,5.693-8.395.493-2.1-35.714,8.395-.494a14.865,14.865,0,0,1,5.936.92,16.009,16.009,0,0,1,4.985,2.979,15.015,15.015,0,0,1,3.507,4.554A14.4,14.4,0,0,1,1026.471,1696.572Zm-14.653,7.648a6.714,6.714,0,0,0,2.572-.764,7.171,7.171,0,0,0,2.025-1.589,6.773,6.773,0,0,0,1.291-2.208,6.691,6.691,0,0,0-.3-5.175,6.774,6.774,0,0,0-1.54-2.041,7.176,7.176,0,0,0-2.2-1.341,6.738,6.738,0,0,0-2.644-.458Z" transform="translate(-951.011 -1680.289)" fill="#fff"/>
        <path id="Path_13993" data-name="Path 13993" d="M1139.857,1711.693a13.243,13.243,0,0,1-3.463-.425,11.83,11.83,0,0,1-3.275-1.4,12.041,12.041,0,0,1-5.784-10.271l8.409-.092a3.528,3.528,0,0,0,.672,2.259,4.644,4.644,0,0,0,1.156,1.084,3.819,3.819,0,0,0,1.948.613,4.487,4.487,0,0,0,2.036-.413,3.316,3.316,0,0,0,1.111-.743,3.988,3.988,0,0,0,.638-.86,2.3,2.3,0,0,0,.265-.807,4.038,4.038,0,0,0-.014-1.267,2.551,2.551,0,0,0-.283-.826,3.336,3.336,0,0,0-.656-.846,4.321,4.321,0,0,0-1.128-.743,11.111,11.111,0,0,0-1.174-.426q-.625-.187-1.323-.424-1.248-.376-2.6-.849a14.6,14.6,0,0,1-2.7-1.287,10.426,10.426,0,0,1-2.964-2.649,10.482,10.482,0,0,1-2.144-7.264,9.935,9.935,0,0,1,1.079-3.79,10.746,10.746,0,0,1,5.172-4.857,11.008,11.008,0,0,1,3.523-.891,11.887,11.887,0,0,1,3.835.3,11.3,11.3,0,0,1,3.434,1.352,10.826,10.826,0,0,1,2.672,2.262,9.883,9.883,0,0,1,1.739,2.979,10.192,10.192,0,0,1,.632,3.454l-8.366.091a1.676,1.676,0,0,0-.739-1.552,5.052,5.052,0,0,0-1.275-.571,3.479,3.479,0,0,1-.474-.068,2.452,2.452,0,0,0-.846.009,3.037,3.037,0,0,0-.966.351,1.928,1.928,0,0,0-.787.862,2.143,2.143,0,0,0-.131,1.635,2.33,2.33,0,0,0,1.01,1.329,11.046,11.046,0,0,0,1.55.69q.849.308,1.8.59.848.235,1.721.518t1.767.663a11.679,11.679,0,0,1,5.166,4.233,11.5,11.5,0,0,1,.136,12.526,11.672,11.672,0,0,1-5.073,4.345,12.024,12.024,0,0,1-2.62.882A13.768,13.768,0,0,1,1139.857,1711.693Z" transform="translate(-1042.774 -1674.474)" fill="#fff"/>
        <path id="Path_13994" data-name="Path 13994" d="M1271.605,1677.471l-.274,8.233-7.012-.234-.922,27.67-8.4-.28.922-27.67-6.962-.232.274-8.232Z" transform="translate(-1131.915 -1676.124)" fill="#fff"/>
        <path id="Path_13995" data-name="Path 13995" d="M1383.408,1692.106l-14.982-1.166-.42,5.394,12.155.946-.639,8.212-12.154-.946-.438,5.637,14.982,1.166-.639,8.212-23.366-1.818,2.772-35.62,23.369,1.769Z" transform="translate(-1211.776 -1680.081)" fill="#fff"/>
        <path id="Path_13996" data-name="Path 13996" d="M1490.745,1720.813q-.655.016-1.3-.018t-1.345-.072l-1.136,8.945-8.343-1.06,4.49-35.346,8.342,1.059a16.7,16.7,0,0,1,5.684,1.851,16.252,16.252,0,0,1,4.4,3.454,13.273,13.273,0,0,1,2.681,4.56,11.461,11.461,0,0,1,.516,5.217,11.64,11.64,0,0,1-1.906,5.131,12.912,12.912,0,0,1-3.992,3.786l6.39,13.667-9.823-1.248Zm-1.6-8.311a8.931,8.931,0,0,0,2.6-.136,7.733,7.733,0,0,0,2.261-.819,5.233,5.233,0,0,0,1.631-1.389,3.777,3.777,0,0,0,.761-1.844,3.649,3.649,0,0,0-.279-1.952,5.369,5.369,0,0,0-1.235-1.729,7.746,7.746,0,0,0-1.984-1.357,8.97,8.97,0,0,0-2.484-.783Z" transform="translate(-1300.254 -1688.245)" fill="#fff"/>
      </g>
    </g>
  </g>
</svg>
