<svg id="clock-circular-outline" xmlns="http://www.w3.org/2000/svg" width="23.654" height="23.654" viewBox="0 0 23.654 23.654">
  <g id="Group_1105" data-name="Group 1105" transform="translate(0)">
    <path id="Path_14099" data-name="Path 14099" d="M11.827,0A11.827,11.827,0,1,0,23.654,11.827,11.841,11.841,0,0,0,11.827,0Zm0,21.138a9.311,9.311,0,1,1,9.311-9.311A9.321,9.321,0,0,1,11.827,21.138Z" fill="#0cebb3"/>
    <path id="Path_14100" data-name="Path 14100" d="M51.329,24.195H46.014V17.8a.974.974,0,0,0-1.948,0v7.365a.974.974,0,0,0,.974.974h6.289a.974.974,0,0,0,0-1.948Z" transform="translate(-33.338 -12.733)" fill="#0cebb3"/>
  </g>
</svg>
