<svg xmlns="http://www.w3.org/2000/svg" width="44.25" height="44.25" viewBox="0 0 44.25 44.25">
  <g id="facebook_v" transform="translate(-166.603 -818.867)">
    <circle id="Ellipse_263" data-name="Ellipse 263" cx="22.125" cy="22.125" r="22.125" transform="translate(166.603 818.867)" fill="#4e287b"/>
    <path id="Path_14103" data-name="Path 14103" d="M207.079,866.554V854.686h-3.208v-4.319h3.208s0-1.215,0-1.62c-.016-1.509-.08-3.859,1.842-5.748a6.964,6.964,0,0,1,5.336-1.81c.583,0,2.334,0,2.334,0v4.431a7.164,7.164,0,0,0-3.335.206,3.055,3.055,0,0,0-1.477,2.911v1.63h4.811v4.319h-4.811v11.868" transform="translate(-21.503 -12.878)" fill="#fff"/>
  </g>
</svg>
