<svg xmlns="http://www.w3.org/2000/svg" width="396.109" height="86.969" viewBox="0 0 396.109 86.969">
  <g id="Group_606" data-name="Group 606" transform="translate(-129 333)">
    <path id="Path_11215" data-name="Path 11215" d="M131.021-268.5c.438.761,383.454,1.96,383.454,1.96l10.634-8.355V-333H141.533L129-324.645" transform="translate(0 0)" fill="#2d68ff"/>
    <path id="Path_11200" data-name="Path 11200" d="M176.5-189.5v29.243l25.825-24.686Z" transform="translate(-29.46 -89.002)" fill="#fff"/>
    <rect id="Rectangle_1516" data-name="Rectangle 1516" width="380.539" height="52.41" transform="translate(131.089 -321.797)" fill="#fff"/>
    <g id="Group_780" data-name="Group 780" transform="translate(129.041 -324.766)">
      <g id="Group_779" data-name="Group 779" transform="translate(0 0)">
        <path id="Path_11201" data-name="Path 11201" d="M145.324-232.584v-20.471H129.108v-58.265H514.543v58.265H170.966ZM134.1-257.843h16.216V-242.8l18.848-15.047H509.933V-306.53H134.1Z" transform="translate(-129.108 311.319)" fill="#2d68ff"/>
      </g>
    </g>
    <g id="Group_781" data-name="Group 781" transform="translate(383.072 -308.09)">
      <path id="Path_11202" data-name="Path 11202" d="M807.5-240.966a10.893,10.893,0,0,1-2.651-.329,9.446,9.446,0,0,1-2.5-1.022,8.9,8.9,0,0,1-3.2-3.134A8.074,8.074,0,0,1,798-249.657h6.445a2.382,2.382,0,0,0,.5,1.61,3.462,3.462,0,0,0,.877.779,3.075,3.075,0,0,0,1.487.45,3.661,3.661,0,0,0,1.563-.277,2.562,2.562,0,0,0,.858-.52,2.867,2.867,0,0,0,.5-.606,1.561,1.561,0,0,0,.209-.572,3.5,3.5,0,0,0,.038-.45,3.516,3.516,0,0,0-.038-.45,1.724,1.724,0,0,0-.209-.589,2.4,2.4,0,0,0-.5-.606,3.3,3.3,0,0,0-.858-.537,8.759,8.759,0,0,0-.9-.312q-.478-.138-1.01-.312-.953-.276-1.983-.623a11.564,11.564,0,0,1-2.06-.935,7.793,7.793,0,0,1-2.25-1.9,7.338,7.338,0,0,1-1.316-2.458,6.973,6.973,0,0,1-.267-2.718,6.685,6.685,0,0,1,.858-2.684,7.744,7.744,0,0,1,1.717-2.043,8.336,8.336,0,0,1,2.287-1.368,9.02,9.02,0,0,1,2.708-.606,9.824,9.824,0,0,1,2.937.242,9.07,9.07,0,0,1,2.621.987,8.144,8.144,0,0,1,2.028,1.627,6.907,6.907,0,0,1,1.308,2.13,6.769,6.769,0,0,1,.455,2.458h-6.412a1.163,1.163,0,0,0-.553-1.108,4.034,4.034,0,0,0-.973-.415,2.863,2.863,0,0,1-.362-.052,2.028,2.028,0,0,0-.648,0,2.448,2.448,0,0,0-.744.242,1.419,1.419,0,0,0-.61.606,1.422,1.422,0,0,0-.115,1.16,1.673,1.673,0,0,0,.763.952,8.867,8.867,0,0,0,1.182.5q.647.226,1.373.433.647.174,1.315.381t1.348.485a8.816,8.816,0,0,1,3.924,3.047,7.555,7.555,0,0,1,1.422,4.466,7.5,7.5,0,0,1-1.422,4.432,8.815,8.815,0,0,1-3.924,3.047,9.741,9.741,0,0,1-2.015.606A11.343,11.343,0,0,1,807.5-240.966Z" transform="translate(-798 267.409)" fill="#2d68ff" stroke="#2d68ff" stroke-miterlimit="10" stroke-width="1"/>
      <path id="Path_11203" data-name="Path 11203" d="M875.033-240.62h-6.445v-25.449h6.445Z" transform="translate(-841.78 266.578)" fill="#2d68ff" stroke="#2d68ff" stroke-miterlimit="10" stroke-width="1"/>
      <path id="Path_11204" data-name="Path 11204" d="M922.119-240.564l-1.106-3.082H912.2l-1.144,3.082h-6.826l9.534-25.414h6.1l9.038,25.414Zm-7.7-8.933h4.538l-2.212-6.164Z" transform="translate(-863.888 266.521)" fill="#2d68ff" stroke="#2d68ff" stroke-miterlimit="10" stroke-width="1"/>
      <path id="Path_11205" data-name="Path 11205" d="M996.732-266.069a14.744,14.744,0,0,1,5.446,1,14.558,14.558,0,0,1,4.455,2.718,12.771,12.771,0,0,1,3.009,4.034,11.376,11.376,0,0,1,1.1,4.951,11.371,11.371,0,0,1-1.1,4.951,12.76,12.76,0,0,1-3.009,4.034,14.542,14.542,0,0,1-4.455,2.718,14.728,14.728,0,0,1-5.446,1,14.729,14.729,0,0,1-5.446-1,14.306,14.306,0,0,1-4.437-2.718,12.89,12.89,0,0,1-2.989-4.034,11.367,11.367,0,0,1-1.1-4.951,11.373,11.373,0,0,1,1.1-4.951,12.9,12.9,0,0,1,2.989-4.034,14.322,14.322,0,0,1,4.437-2.718A14.745,14.745,0,0,1,996.732-266.069Zm.019,19.563a7.98,7.98,0,0,0,2.936-.537,7.709,7.709,0,0,0,2.4-1.471,6.928,6.928,0,0,0,1.621-2.182,6.14,6.14,0,0,0,.592-2.666,6.143,6.143,0,0,0-.592-2.666,6.936,6.936,0,0,0-1.621-2.182,7.73,7.73,0,0,0-2.4-1.471,8,8,0,0,0-2.936-.537,8,8,0,0,0-2.937.537,7.724,7.724,0,0,0-2.4,1.471,6.939,6.939,0,0,0-1.621,2.182,6.137,6.137,0,0,0-.591,2.666,6.134,6.134,0,0,0,.591,2.666,6.93,6.93,0,0,0,1.621,2.182,7.7,7.7,0,0,0,2.4,1.471A7.976,7.976,0,0,0,996.751-246.506Z" transform="translate(-912.59 266.578)" fill="#2d68ff" stroke="#2d68ff" stroke-miterlimit="10" stroke-width="1"/>
      <path id="Path_11206" data-name="Path 11206" d="M1078.452-247.38a3.417,3.417,0,0,1,2.383.883,2.775,2.775,0,0,1,.972,2.129,2.775,2.775,0,0,1-.972,2.129,3.417,3.417,0,0,1-2.383.883,3.367,3.367,0,0,1-2.346-.883,2.773,2.773,0,0,1-.972-2.129,2.773,2.773,0,0,1,.972-2.129A3.367,3.367,0,0,1,1078.452-247.38Zm-3.2-2.735v-17.139h6.445v17.139Z" transform="translate(-969.884 267.313)" fill="#2d68ff" stroke="#2d68ff" stroke-miterlimit="10" stroke-width="1"/>
    </g>
    <g id="Group_782" data-name="Group 782" transform="translate(155.817 -307.82)">
      <path id="Path_11207" data-name="Path 11207" d="M216.506-260.573H206.057v3.843h8.275v5.852h-8.275v9.868h-6.445v-25.414h16.894Z" transform="translate(-199.612 266.528)" fill="#2d68ff" stroke="#2d68ff" stroke-miterlimit="10" stroke-width="1"/>
      <path id="Path_11208" data-name="Path 11208" d="M273.633-266.516a14.738,14.738,0,0,1,5.445,1,14.561,14.561,0,0,1,4.456,2.718,12.755,12.755,0,0,1,3.009,4.034,11.368,11.368,0,0,1,1.1,4.951,11.367,11.367,0,0,1-1.1,4.951,12.749,12.749,0,0,1-3.009,4.034,14.545,14.545,0,0,1-4.456,2.718,14.734,14.734,0,0,1-5.445,1,14.738,14.738,0,0,1-5.446-1,14.31,14.31,0,0,1-4.437-2.718,12.888,12.888,0,0,1-2.99-4.034,11.368,11.368,0,0,1-1.1-4.951,11.37,11.37,0,0,1,1.1-4.951,12.894,12.894,0,0,1,2.99-4.034,14.325,14.325,0,0,1,4.437-2.718A14.741,14.741,0,0,1,273.633-266.516Zm.019,19.563a7.986,7.986,0,0,0,2.936-.537,7.7,7.7,0,0,0,2.4-1.471,6.945,6.945,0,0,0,1.621-2.181,6.148,6.148,0,0,0,.591-2.666,6.149,6.149,0,0,0-.591-2.666,6.943,6.943,0,0,0-1.621-2.182,7.721,7.721,0,0,0-2.4-1.472,8,8,0,0,0-2.936-.537,8,8,0,0,0-2.937.537,7.728,7.728,0,0,0-2.4,1.472,6.932,6.932,0,0,0-1.62,2.182,6.136,6.136,0,0,0-.591,2.666,6.135,6.135,0,0,0,.591,2.666,6.935,6.935,0,0,0,1.62,2.181,7.706,7.706,0,0,0,2.4,1.471A7.991,7.991,0,0,0,273.653-246.953Z" transform="translate(-236.853 266.585)" fill="#2d68ff" stroke="#2d68ff" stroke-miterlimit="10" stroke-width="1"/>
      <path id="Path_11209" data-name="Path 11209" d="M360.991-266.516a14.737,14.737,0,0,1,5.446,1,14.565,14.565,0,0,1,4.456,2.718,12.762,12.762,0,0,1,3.009,4.034,11.373,11.373,0,0,1,1.1,4.951,11.371,11.371,0,0,1-1.1,4.951,12.756,12.756,0,0,1-3.009,4.034,14.549,14.549,0,0,1-4.456,2.718,14.733,14.733,0,0,1-5.446,1,14.734,14.734,0,0,1-5.446-1,14.31,14.31,0,0,1-4.437-2.718,12.88,12.88,0,0,1-2.989-4.034,11.365,11.365,0,0,1-1.1-4.951,11.367,11.367,0,0,1,1.1-4.951,12.885,12.885,0,0,1,2.989-4.034,14.325,14.325,0,0,1,4.437-2.718A14.738,14.738,0,0,1,360.991-266.516Zm.019,19.563a7.988,7.988,0,0,0,2.936-.537,7.708,7.708,0,0,0,2.4-1.471,6.949,6.949,0,0,0,1.62-2.181,6.141,6.141,0,0,0,.591-2.666,6.142,6.142,0,0,0-.591-2.666,6.946,6.946,0,0,0-1.62-2.182,7.73,7.73,0,0,0-2.4-1.472,8,8,0,0,0-2.936-.537,8,8,0,0,0-2.937.537,7.722,7.722,0,0,0-2.4,1.472,6.931,6.931,0,0,0-1.621,2.182,6.136,6.136,0,0,0-.591,2.666,6.135,6.135,0,0,0,.591,2.666,6.934,6.934,0,0,0,1.621,2.181,7.7,7.7,0,0,0,2.4,1.471A7.986,7.986,0,0,0,361.01-246.953Z" transform="translate(-291.034 266.585)" fill="#2d68ff" stroke="#2d68ff" stroke-miterlimit="10" stroke-width="1"/>
      <path id="Path_11210" data-name="Path 11210" d="M453.641-266.7v5.852h-5.377v19.666h-6.445v-19.666H436.48V-266.7Z" transform="translate(-346.523 266.698)" fill="#2d68ff" stroke="#2d68ff" stroke-miterlimit="10" stroke-width="1"/>
      <path id="Path_11211" data-name="Path 11211" d="M517.514-256.484a9.325,9.325,0,0,1,2.822,2.926,7.1,7.1,0,0,1,1.029,3.722,7.076,7.076,0,0,1-.839,3.376,8.838,8.838,0,0,1-2.307,2.753,11.367,11.367,0,0,1-3.413,1.853,12.6,12.6,0,0,1-4.156.675h-8.2V-266.7l7.436.035a9.871,9.871,0,0,1,3.318.554,9.279,9.279,0,0,1,2.745,1.506,7.087,7.087,0,0,1,1.849,2.216,5.735,5.735,0,0,1,.667,2.718A5.694,5.694,0,0,1,517.514-256.484Zm-8.618-4.363v2.354h1.03a2.876,2.876,0,0,0,1.525-.421q.572-.386.572-.773,0-.351-.572-.756a2.664,2.664,0,0,0-1.563-.4Zm1.754,13.815a5.789,5.789,0,0,0,1.621-.226,5.14,5.14,0,0,0,1.373-.61,3.239,3.239,0,0,0,.935-.889,1.861,1.861,0,0,0,.343-1.062,1.947,1.947,0,0,0-.343-1.08,3.144,3.144,0,0,0-.935-.905,5.145,5.145,0,0,0-1.373-.61,5.8,5.8,0,0,0-1.621-.227H508.9v5.609Z" transform="translate(-387.439 266.698)" fill="#2d68ff" stroke="#2d68ff" stroke-miterlimit="10" stroke-width="1"/>
      <path id="Path_11212" data-name="Path 11212" d="M584.9-241.01l-1.105-3.082h-8.809l-1.144,3.082h-6.825l9.533-25.414h6.1l9.038,25.414Zm-7.7-8.933h4.538l-2.212-6.163Z" transform="translate(-427.484 266.528)" fill="#2d68ff" stroke="#2d68ff" stroke-miterlimit="10" stroke-width="1"/>
      <path id="Path_11213" data-name="Path 11213" d="M667.223-241.067H650.558v-25.449H657v19.6h10.22Z" transform="translate(-479.298 266.585)" fill="#2d68ff" stroke="#2d68ff" stroke-miterlimit="10" stroke-width="1"/>
      <path id="Path_11214" data-name="Path 11214" d="M731.587-241.067H714.922v-25.449h6.445v19.6h10.22Z" transform="translate(-519.218 266.585)" fill="#2d68ff" stroke="#2d68ff" stroke-miterlimit="10" stroke-width="1"/>
    </g>
    <path id="Path_11216" data-name="Path 11216" d="M134.5-303.5" transform="translate(-3.411 -18.297)" fill="#2d68ff" stroke="#000" stroke-miterlimit="10" stroke-width="1"/>
  </g>
</svg>
