<svg xmlns="http://www.w3.org/2000/svg" width="193" height="42.375" viewBox="0 0 193 42.375">
  <defs>
    <style>
      .cls-1, .cls-3, .cls-4 {
        fill: #2d68ff;
      }

      .cls-2 {
        fill: #fff;
      }

      .cls-3 {
        stroke: #2d68ff;
      }

      .cls-3, .cls-4 {
        stroke-miterlimit: 10;
      }

      .cls-4 {
        stroke: #000;
      }
    </style>
  </defs>
  <g id="Group_1009" data-name="Group 1009" transform="translate(-129 333)">
    <path id="Path_11215" data-name="Path 11215" class="cls-1" d="M129.985-301.573c.214.371,186.834.955,186.834.955L322-304.688V-333H135.106L129-328.929" transform="translate(0 0)"/>
    <path id="Path_11200" data-name="Path 11200" class="cls-2" d="M176.5-189.5v14.248l12.583-12.028Z" transform="translate(-38.71 -116.946)"/>
    <rect id="Rectangle_1516" data-name="Rectangle 1516" class="cls-2" width="185.413" height="25.536" transform="translate(130.018 -327.541)"/>
    <g id="Group_780" data-name="Group 780" transform="translate(129.02 -328.988)">
      <g id="Group_779" data-name="Group 779" transform="translate(0 0)">
        <path id="Path_11201" data-name="Path 11201" class="cls-1" d="M137.009-272.956v-9.974h-7.9v-28.389h187.8v28.389H149.5Zm-5.47-12.307h7.9v7.332l9.184-7.332H314.661v-23.722H131.539Z" transform="translate(-129.108 311.319)"/>
      </g>
    </g>
    <g id="Group_781" data-name="Group 781" transform="translate(252.794 -320.863)">
      <path id="Path_11202" data-name="Path 11202" class="cls-3" d="M802.627-254.525a5.309,5.309,0,0,1-1.292-.16,4.6,4.6,0,0,1-1.217-.5,4.335,4.335,0,0,1-1.561-1.527,3.934,3.934,0,0,1-.557-2.05h3.14a1.161,1.161,0,0,0,.241.785,1.684,1.684,0,0,0,.427.38,1.5,1.5,0,0,0,.725.219,1.784,1.784,0,0,0,.762-.135,1.249,1.249,0,0,0,.418-.253,1.4,1.4,0,0,0,.242-.3.759.759,0,0,0,.1-.279,1.7,1.7,0,0,0,.018-.219,1.71,1.71,0,0,0-.018-.219.838.838,0,0,0-.1-.287,1.166,1.166,0,0,0-.242-.3,1.61,1.61,0,0,0-.418-.261,4.271,4.271,0,0,0-.437-.152q-.233-.067-.492-.152-.464-.135-.966-.3a5.638,5.638,0,0,1-1-.455,3.8,3.8,0,0,1-1.1-.928,3.573,3.573,0,0,1-.641-1.2,3.4,3.4,0,0,1-.13-1.324,3.256,3.256,0,0,1,.418-1.308,3.774,3.774,0,0,1,.836-1,4.061,4.061,0,0,1,1.114-.666,4.4,4.4,0,0,1,1.319-.3,4.788,4.788,0,0,1,1.431.118,4.42,4.42,0,0,1,1.277.481,3.967,3.967,0,0,1,.988.793,3.366,3.366,0,0,1,.637,1.038,3.3,3.3,0,0,1,.222,1.2h-3.124a.567.567,0,0,0-.269-.54,1.967,1.967,0,0,0-.474-.2,1.4,1.4,0,0,1-.176-.025.988.988,0,0,0-.316,0,1.193,1.193,0,0,0-.362.118.692.692,0,0,0-.3.3.693.693,0,0,0-.056.565.815.815,0,0,0,.372.464,4.327,4.327,0,0,0,.576.245q.315.11.669.211.315.085.641.186t.657.236a4.3,4.3,0,0,1,1.912,1.485,3.681,3.681,0,0,1,.693,2.176,3.655,3.655,0,0,1-.693,2.159,4.3,4.3,0,0,1-1.912,1.485,4.749,4.749,0,0,1-.982.3A5.525,5.525,0,0,1,802.627-254.525Z" transform="translate(-798 267.409)"/>
      <path id="Path_11203" data-name="Path 11203" class="cls-3" d="M871.728-253.669h-3.14v-12.4h3.14Z" transform="translate(-855.526 266.317)"/>
      <path id="Path_11204" data-name="Path 11204" class="cls-3" d="M912.948-253.6l-.539-1.5h-4.292l-.557,1.5h-3.326l4.645-12.383h2.973l4.4,12.383Zm-3.753-4.352h2.211l-1.078-3Z" transform="translate(-884.576 266.243)"/>
      <path id="Path_11205" data-name="Path 11205" class="cls-3" d="M989.566-266.069a7.184,7.184,0,0,1,2.653.489,7.094,7.094,0,0,1,2.171,1.324,6.225,6.225,0,0,1,1.466,1.965,5.542,5.542,0,0,1,.538,2.413,5.539,5.539,0,0,1-.538,2.412,6.219,6.219,0,0,1-1.466,1.966,7.086,7.086,0,0,1-2.171,1.324,7.176,7.176,0,0,1-2.653.489,7.177,7.177,0,0,1-2.653-.489,6.971,6.971,0,0,1-2.162-1.324,6.281,6.281,0,0,1-1.456-1.966,5.538,5.538,0,0,1-.538-2.412,5.541,5.541,0,0,1,.538-2.413,6.287,6.287,0,0,1,1.456-1.965,6.978,6.978,0,0,1,2.162-1.324A7.185,7.185,0,0,1,989.566-266.069Zm.009,9.532a3.888,3.888,0,0,0,1.431-.261,3.758,3.758,0,0,0,1.171-.717,3.374,3.374,0,0,0,.79-1.063,2.992,2.992,0,0,0,.288-1.3,2.993,2.993,0,0,0-.288-1.3,3.379,3.379,0,0,0-.79-1.063,3.767,3.767,0,0,0-1.171-.717,3.9,3.9,0,0,0-1.431-.261,3.9,3.9,0,0,0-1.431.261,3.765,3.765,0,0,0-1.171.717,3.381,3.381,0,0,0-.79,1.063,2.99,2.99,0,0,0-.288,1.3,2.988,2.988,0,0,0,.288,1.3,3.376,3.376,0,0,0,.79,1.063,3.756,3.756,0,0,0,1.171.717A3.887,3.887,0,0,0,989.575-256.537Z" transform="translate(-948.568 266.317)"/>
      <path id="Path_11206" data-name="Path 11206" class="cls-3" d="M1076.75-257.57a1.665,1.665,0,0,1,1.161.43,1.352,1.352,0,0,1,.474,1.038,1.352,1.352,0,0,1-.474,1.037,1.665,1.665,0,0,1-1.161.43,1.64,1.64,0,0,1-1.143-.43,1.351,1.351,0,0,1-.474-1.037,1.351,1.351,0,0,1,.474-1.038A1.64,1.64,0,0,1,1076.75-257.57Zm-1.561-1.333v-8.351h3.14v8.351Z" transform="translate(-1023.852 267.283)"/>
    </g>
    <g id="Group_782" data-name="Group 782" transform="translate(142.066 -320.731)">
      <path id="Path_11207" data-name="Path 11207" class="cls-3" d="M207.843-263.573h-5.091v1.873h4.032v2.851h-4.032v4.808h-3.14v-12.383h8.231Z" transform="translate(-199.612 266.475)"/>
      <path id="Path_11208" data-name="Path 11208" class="cls-3" d="M266.467-266.516a7.181,7.181,0,0,1,2.653.489,7.1,7.1,0,0,1,2.171,1.324,6.216,6.216,0,0,1,1.466,1.966,5.539,5.539,0,0,1,.538,2.412,5.538,5.538,0,0,1-.538,2.412,6.212,6.212,0,0,1-1.466,1.966,7.087,7.087,0,0,1-2.171,1.324,7.179,7.179,0,0,1-2.653.489,7.181,7.181,0,0,1-2.654-.489,6.972,6.972,0,0,1-2.162-1.324,6.279,6.279,0,0,1-1.457-1.966,5.539,5.539,0,0,1-.538-2.412,5.541,5.541,0,0,1,.538-2.412,6.283,6.283,0,0,1,1.457-1.966,6.982,6.982,0,0,1,2.162-1.324A7.183,7.183,0,0,1,266.467-266.516Zm.009,9.532a3.891,3.891,0,0,0,1.431-.261,3.754,3.754,0,0,0,1.171-.717,3.383,3.383,0,0,0,.79-1.063,3,3,0,0,0,.288-1.3,3,3,0,0,0-.288-1.3,3.383,3.383,0,0,0-.79-1.063,3.763,3.763,0,0,0-1.171-.717,3.9,3.9,0,0,0-1.431-.261,3.9,3.9,0,0,0-1.431.261,3.766,3.766,0,0,0-1.17.717,3.378,3.378,0,0,0-.79,1.063,2.99,2.99,0,0,0-.288,1.3,2.99,2.99,0,0,0,.288,1.3,3.379,3.379,0,0,0,.79,1.063,3.757,3.757,0,0,0,1.17.717A3.894,3.894,0,0,0,266.476-256.984Z" transform="translate(-248.546 266.55)"/>
      <path id="Path_11209" data-name="Path 11209" class="cls-3" d="M353.825-266.516a7.181,7.181,0,0,1,2.653.489,7.1,7.1,0,0,1,2.171,1.324,6.219,6.219,0,0,1,1.466,1.966,5.542,5.542,0,0,1,.538,2.412,5.54,5.54,0,0,1-.538,2.412,6.215,6.215,0,0,1-1.466,1.966,7.088,7.088,0,0,1-2.171,1.324,7.179,7.179,0,0,1-2.653.489,7.179,7.179,0,0,1-2.653-.489,6.972,6.972,0,0,1-2.162-1.324,6.275,6.275,0,0,1-1.456-1.966,5.538,5.538,0,0,1-.538-2.412,5.539,5.539,0,0,1,.538-2.412,6.28,6.28,0,0,1,1.456-1.966,6.982,6.982,0,0,1,2.162-1.324A7.181,7.181,0,0,1,353.825-266.516Zm.01,9.532a3.893,3.893,0,0,0,1.431-.261,3.757,3.757,0,0,0,1.171-.717,3.386,3.386,0,0,0,.79-1.063,2.993,2.993,0,0,0,.288-1.3,2.993,2.993,0,0,0-.288-1.3,3.386,3.386,0,0,0-.79-1.063,3.767,3.767,0,0,0-1.171-.717,3.9,3.9,0,0,0-1.431-.261,3.9,3.9,0,0,0-1.431.261,3.763,3.763,0,0,0-1.17.717,3.377,3.377,0,0,0-.79,1.063,2.989,2.989,0,0,0-.288,1.3,2.989,2.989,0,0,0,.288,1.3,3.378,3.378,0,0,0,.79,1.063,3.753,3.753,0,0,0,1.17.717A3.891,3.891,0,0,0,353.834-256.984Z" transform="translate(-319.739 266.55)"/>
      <path id="Path_11210" data-name="Path 11210" class="cls-3" d="M444.841-266.7v2.851h-2.62v9.582h-3.14v-9.582h-2.6V-266.7Z" transform="translate(-392.649 266.698)"/>
      <path id="Path_11211" data-name="Path 11211" class="cls-3" d="M509.79-261.721a4.543,4.543,0,0,1,1.375,1.426,3.46,3.46,0,0,1,.5,1.814,3.448,3.448,0,0,1-.409,1.645,4.305,4.305,0,0,1-1.124,1.341,5.539,5.539,0,0,1-1.663.9,6.139,6.139,0,0,1-2.025.329h-3.995V-266.7l3.623.017a4.809,4.809,0,0,1,1.617.27,4.52,4.52,0,0,1,1.338.734,3.452,3.452,0,0,1,.9,1.08,2.794,2.794,0,0,1,.325,1.324A2.775,2.775,0,0,1,509.79-261.721Zm-4.2-2.126v1.147h.5a1.4,1.4,0,0,0,.743-.205q.279-.188.279-.377,0-.171-.279-.368a1.3,1.3,0,0,0-.762-.2Zm.855,6.731a2.822,2.822,0,0,0,.79-.11,2.505,2.505,0,0,0,.669-.3,1.578,1.578,0,0,0,.455-.433.907.907,0,0,0,.167-.518.949.949,0,0,0-.167-.526,1.533,1.533,0,0,0-.455-.441,2.509,2.509,0,0,0-.669-.3,2.828,2.828,0,0,0-.79-.11h-.855v2.733Z" transform="translate(-446.413 266.698)"/>
      <path id="Path_11212" data-name="Path 11212" class="cls-3" d="M575.73-254.041l-.539-1.5H570.9l-.558,1.5h-3.326l4.645-12.383h2.973l4.4,12.383Zm-3.753-4.352h2.211l-1.078-3Z" transform="translate(-499.03 266.475)"/>
      <path id="Path_11213" data-name="Path 11213" class="cls-3" d="M658.678-254.116h-8.12v-12.4h3.14v9.549h4.98Z" transform="translate(-567.114 266.55)"/>
      <path id="Path_11214" data-name="Path 11214" class="cls-3" d="M723.042-254.116h-8.12v-12.4h3.14v9.549h4.98Z" transform="translate(-619.567 266.55)"/>
    </g>
    <path id="Path_11216" data-name="Path 11216" class="cls-4" d="M134.5-303.5" transform="translate(-4.482 -24.041)"/>
  </g>
</svg>
