<svg xmlns="http://www.w3.org/2000/svg" width="238.698" height="52.408" viewBox="0 0 238.698 52.408">
  <g id="Group_1003" data-name="Group 1003" transform="translate(-129 333)">
    <path id="Path_11215" data-name="Path 11215" d="M130.218-294.131c.264.459,231.072,1.181,231.072,1.181l6.408-5.035V-333H136.552L129-327.965" transform="translate(0 0)" fill="#2d68ff"/>
    <path id="Path_11200" data-name="Path 11200" d="M176.5-189.5v17.622l15.562-14.876Z" transform="translate(-36.629 -110.659)" fill="#fff"/>
    <rect id="Rectangle_1516" data-name="Rectangle 1516" width="229.315" height="31.582" transform="translate(130.259 -326.249)" fill="#fff"/>
    <g id="Group_780" data-name="Group 780" transform="translate(129.025 -328.038)">
      <g id="Group_779" data-name="Group 779" transform="translate(0 0)">
        <path id="Path_11201" data-name="Path 11201" d="M138.88-263.873v-12.336h-9.772v-35.111H361.373v35.111H154.332Zm-6.765-15.221h9.772v9.068l11.358-9.068H358.6v-29.339H132.115Z" transform="translate(-129.108 311.319)" fill="#2d68ff"/>
      </g>
    </g>
    <g id="Group_781" data-name="Group 781" transform="translate(282.105 -317.989)">
      <path id="Path_11202" data-name="Path 11202" d="M803.722-251.474a6.564,6.564,0,0,1-1.6-.2,5.694,5.694,0,0,1-1.505-.616,5.361,5.361,0,0,1-1.93-1.888,4.865,4.865,0,0,1-.689-2.535h3.884a1.435,1.435,0,0,0,.3.97,2.082,2.082,0,0,0,.529.469,1.853,1.853,0,0,0,.9.271,2.206,2.206,0,0,0,.942-.167,1.544,1.544,0,0,0,.517-.313,1.728,1.728,0,0,0,.3-.365.939.939,0,0,0,.126-.344,2.1,2.1,0,0,0,.023-.271,2.108,2.108,0,0,0-.023-.271,1.037,1.037,0,0,0-.126-.355,1.442,1.442,0,0,0-.3-.365,1.99,1.99,0,0,0-.517-.323,5.282,5.282,0,0,0-.54-.188q-.288-.083-.609-.188-.574-.166-1.2-.375a6.972,6.972,0,0,1-1.241-.563,4.7,4.7,0,0,1-1.356-1.148,4.418,4.418,0,0,1-.793-1.481,4.2,4.2,0,0,1-.161-1.638,4.027,4.027,0,0,1,.517-1.617,4.671,4.671,0,0,1,1.035-1.231,5.023,5.023,0,0,1,1.378-.824,5.437,5.437,0,0,1,1.632-.365,5.922,5.922,0,0,1,1.77.146,5.467,5.467,0,0,1,1.579.595,4.91,4.91,0,0,1,1.222.981,4.164,4.164,0,0,1,.788,1.283,4.081,4.081,0,0,1,.274,1.481h-3.864a.7.7,0,0,0-.333-.668,2.433,2.433,0,0,0-.586-.25,1.726,1.726,0,0,1-.218-.031,1.222,1.222,0,0,0-.391,0,1.476,1.476,0,0,0-.448.146.855.855,0,0,0-.368.365.857.857,0,0,0-.069.7,1.007,1.007,0,0,0,.46.574,5.351,5.351,0,0,0,.712.3q.39.136.828.261.39.1.792.23t.812.292a5.312,5.312,0,0,1,2.365,1.836,4.552,4.552,0,0,1,.857,2.691,4.52,4.52,0,0,1-.857,2.671,5.312,5.312,0,0,1-2.365,1.836,5.871,5.871,0,0,1-1.214.365A6.831,6.831,0,0,1,803.722-251.474Z" transform="translate(-798 267.409)" fill="#2d68ff" stroke="#2d68ff" stroke-miterlimit="10" stroke-width="1"/>
      <path id="Path_11203" data-name="Path 11203" d="M872.472-250.733h-3.884v-15.336h3.884Z" transform="translate(-852.433 266.376)" fill="#2d68ff" stroke="#2d68ff" stroke-miterlimit="10" stroke-width="1"/>
      <path id="Path_11204" data-name="Path 11204" d="M915.012-250.663l-.666-1.857h-5.308l-.69,1.857h-4.113l5.745-15.315h3.677l5.447,15.315Zm-4.642-5.383H913.1l-1.333-3.714Z" transform="translate(-879.922 266.305)" fill="#2d68ff" stroke="#2d68ff" stroke-miterlimit="10" stroke-width="1"/>
      <path id="Path_11205" data-name="Path 11205" d="M991.178-266.069a8.885,8.885,0,0,1,3.282.605,8.774,8.774,0,0,1,2.685,1.638,7.7,7.7,0,0,1,1.813,2.431,6.854,6.854,0,0,1,.666,2.984,6.851,6.851,0,0,1-.666,2.984A7.69,7.69,0,0,1,997.145-253a8.764,8.764,0,0,1-2.685,1.638,8.876,8.876,0,0,1-3.282.605,8.876,8.876,0,0,1-3.282-.605A8.622,8.622,0,0,1,985.223-253a7.769,7.769,0,0,1-1.8-2.431,6.851,6.851,0,0,1-.665-2.984,6.854,6.854,0,0,1,.665-2.984,7.776,7.776,0,0,1,1.8-2.431,8.631,8.631,0,0,1,2.674-1.638A8.884,8.884,0,0,1,991.178-266.069Zm.012,11.789a4.808,4.808,0,0,0,1.769-.323,4.646,4.646,0,0,0,1.448-.887,4.176,4.176,0,0,0,.977-1.315,3.7,3.7,0,0,0,.356-1.606,3.7,3.7,0,0,0-.356-1.607,4.182,4.182,0,0,0-.977-1.315,4.658,4.658,0,0,0-1.448-.887,4.819,4.819,0,0,0-1.769-.323,4.817,4.817,0,0,0-1.769.323,4.654,4.654,0,0,0-1.448.887,4.18,4.18,0,0,0-.977,1.315,3.7,3.7,0,0,0-.356,1.607,3.7,3.7,0,0,0,.356,1.606,4.175,4.175,0,0,0,.977,1.315,4.642,4.642,0,0,0,1.448.887A4.806,4.806,0,0,0,991.19-254.281Z" transform="translate(-940.473 266.376)" fill="#2d68ff" stroke="#2d68ff" stroke-miterlimit="10" stroke-width="1"/>
      <path id="Path_11206" data-name="Path 11206" d="M1077.133-255.278a2.059,2.059,0,0,1,1.436.532,1.672,1.672,0,0,1,.586,1.283,1.672,1.672,0,0,1-.586,1.283,2.059,2.059,0,0,1-1.436.532,2.029,2.029,0,0,1-1.413-.532,1.671,1.671,0,0,1-.586-1.283,1.671,1.671,0,0,1,.586-1.283A2.029,2.029,0,0,1,1077.133-255.278Zm-1.93-1.648v-10.328h3.884v10.328Z" transform="translate(-1011.71 267.289)" fill="#2d68ff" stroke="#2d68ff" stroke-miterlimit="10" stroke-width="1"/>
    </g>
    <g id="Group_782" data-name="Group 782" transform="translate(145.16 -317.826)">
      <path id="Path_11207" data-name="Path 11207" d="M209.792-262.9h-6.3v2.316h4.987v3.526H203.5v5.946h-3.884v-15.315h10.18Z" transform="translate(-199.612 266.487)" fill="#2d68ff" stroke="#2d68ff" stroke-miterlimit="10" stroke-width="1"/>
      <path id="Path_11208" data-name="Path 11208" d="M268.079-266.516a8.883,8.883,0,0,1,3.282.605,8.776,8.776,0,0,1,2.685,1.638,7.687,7.687,0,0,1,1.813,2.431,6.85,6.85,0,0,1,.665,2.984,6.849,6.849,0,0,1-.665,2.984,7.682,7.682,0,0,1-1.813,2.431,8.764,8.764,0,0,1-2.685,1.638,8.879,8.879,0,0,1-3.282.605,8.881,8.881,0,0,1-3.282-.605,8.622,8.622,0,0,1-2.674-1.638,7.765,7.765,0,0,1-1.8-2.431,6.851,6.851,0,0,1-.665-2.984,6.852,6.852,0,0,1,.665-2.984,7.77,7.77,0,0,1,1.8-2.431,8.634,8.634,0,0,1,2.674-1.638A8.885,8.885,0,0,1,268.079-266.516Zm.012,11.789a4.813,4.813,0,0,0,1.769-.323,4.641,4.641,0,0,0,1.448-.887,4.185,4.185,0,0,0,.977-1.314,3.7,3.7,0,0,0,.356-1.607,3.7,3.7,0,0,0-.356-1.606,4.184,4.184,0,0,0-.977-1.315,4.653,4.653,0,0,0-1.448-.887,4.82,4.82,0,0,0-1.769-.323,4.823,4.823,0,0,0-1.77.323,4.657,4.657,0,0,0-1.447.887,4.178,4.178,0,0,0-.977,1.315,3.7,3.7,0,0,0-.356,1.606,3.7,3.7,0,0,0,.356,1.607,4.179,4.179,0,0,0,.977,1.314,4.645,4.645,0,0,0,1.447.887A4.815,4.815,0,0,0,268.091-254.727Z" transform="translate(-245.915 266.558)" fill="#2d68ff" stroke="#2d68ff" stroke-miterlimit="10" stroke-width="1"/>
      <path id="Path_11209" data-name="Path 11209" d="M355.437-266.516a8.882,8.882,0,0,1,3.282.605,8.779,8.779,0,0,1,2.685,1.638,7.691,7.691,0,0,1,1.813,2.431,6.853,6.853,0,0,1,.666,2.984,6.852,6.852,0,0,1-.666,2.984,7.687,7.687,0,0,1-1.813,2.431,8.767,8.767,0,0,1-2.685,1.638,8.879,8.879,0,0,1-3.282.605,8.879,8.879,0,0,1-3.282-.605,8.622,8.622,0,0,1-2.674-1.638,7.761,7.761,0,0,1-1.8-2.431,6.849,6.849,0,0,1-.665-2.984,6.85,6.85,0,0,1,.665-2.984,7.766,7.766,0,0,1,1.8-2.431,8.634,8.634,0,0,1,2.674-1.638A8.883,8.883,0,0,1,355.437-266.516Zm.012,11.789a4.814,4.814,0,0,0,1.769-.323,4.646,4.646,0,0,0,1.448-.887,4.187,4.187,0,0,0,.977-1.314,3.7,3.7,0,0,0,.356-1.607,3.7,3.7,0,0,0-.356-1.606,4.186,4.186,0,0,0-.977-1.315,4.658,4.658,0,0,0-1.448-.887,4.822,4.822,0,0,0-1.769-.323,4.82,4.82,0,0,0-1.77.323,4.653,4.653,0,0,0-1.448.887,4.177,4.177,0,0,0-.977,1.315,3.7,3.7,0,0,0-.356,1.606,3.7,3.7,0,0,0,.356,1.607,4.178,4.178,0,0,0,.977,1.314,4.641,4.641,0,0,0,1.448.887A4.813,4.813,0,0,0,355.449-254.727Z" transform="translate(-313.281 266.558)" fill="#2d68ff" stroke="#2d68ff" stroke-miterlimit="10" stroke-width="1"/>
      <path id="Path_11210" data-name="Path 11210" d="M446.821-266.7v3.526h-3.24v11.851H439.7v-11.851H436.48V-266.7Z" transform="translate(-382.271 266.698)" fill="#2d68ff" stroke="#2d68ff" stroke-miterlimit="10" stroke-width="1"/>
      <path id="Path_11211" data-name="Path 11211" d="M511.528-260.543a5.619,5.619,0,0,1,1.7,1.763,4.279,4.279,0,0,1,.62,2.243,4.264,4.264,0,0,1-.505,2.034,5.323,5.323,0,0,1-1.39,1.659,6.849,6.849,0,0,1-2.057,1.116,7.592,7.592,0,0,1-2.5.407h-4.941V-266.7l4.481.021a5.948,5.948,0,0,1,2,.334,5.591,5.591,0,0,1,1.654.908A4.269,4.269,0,0,1,511.7-264.1a3.456,3.456,0,0,1,.4,1.638A3.431,3.431,0,0,1,511.528-260.543Zm-5.194-2.629v1.419h.62a1.733,1.733,0,0,0,.919-.254q.345-.233.345-.466,0-.212-.345-.455a1.605,1.605,0,0,0-.942-.244Zm1.057,8.325a3.49,3.49,0,0,0,.977-.136,3.1,3.1,0,0,0,.827-.367,1.951,1.951,0,0,0,.563-.536,1.121,1.121,0,0,0,.207-.64,1.173,1.173,0,0,0-.207-.651,1.9,1.9,0,0,0-.563-.546,3.1,3.1,0,0,0-.827-.367,3.5,3.5,0,0,0-.977-.137h-1.057v3.38Z" transform="translate(-433.144 266.698)" fill="#2d68ff" stroke="#2d68ff" stroke-miterlimit="10" stroke-width="1"/>
      <path id="Path_11212" data-name="Path 11212" d="M577.793-251.109l-.666-1.857h-5.309l-.69,1.857h-4.113l5.745-15.315h3.677l5.446,15.315Zm-4.642-5.383h2.735l-1.333-3.714Z" transform="translate(-482.933 266.487)" fill="#2d68ff" stroke="#2d68ff" stroke-miterlimit="10" stroke-width="1"/>
      <path id="Path_11213" data-name="Path 11213" d="M660.6-251.18H650.558v-15.336h3.883v11.809H660.6Z" transform="translate(-547.356 266.558)" fill="#2d68ff" stroke="#2d68ff" stroke-miterlimit="10" stroke-width="1"/>
      <path id="Path_11214" data-name="Path 11214" d="M724.964-251.18H714.922v-15.336h3.884v11.809h6.159Z" transform="translate(-596.99 266.558)" fill="#2d68ff" stroke="#2d68ff" stroke-miterlimit="10" stroke-width="1"/>
    </g>
    <path id="Path_11216" data-name="Path 11216" d="M134.5-303.5" transform="translate(-4.241 -22.749)" fill="#2d68ff" stroke="#000" stroke-miterlimit="10" stroke-width="1"/>
  </g>
</svg>
