<svg xmlns="http://www.w3.org/2000/svg" width="115.625" height="61.916" viewBox="0 0 115.625 61.916">
  <g id="Group_882" data-name="Group 882" transform="translate(-8214 166.619)">
    <g id="Group_818" data-name="Group 818" transform="translate(8214 -165.141)">
      <g id="Group_756" data-name="Group 756" transform="translate(0 0)">
        <path id="Path_11176" data-name="Path 11176" d="M398.894,398.636l-13.686-.036.059-22.861,5.293.014-.046,17.6,8.393.022Z" transform="translate(-385.208 -375.511)" fill="#66bc99"/>
        <path id="Path_11177" data-name="Path 11177" d="M458.757,398.914l-.9-2.77-7.235-.019-.947,2.766-5.606-.014,7.889-22.81,5.011.013,7.363,22.849Zm-6.306-8.041,3.727.01-1.8-5.541Z" transform="translate(-426.624 -375.741)" fill="#66bc99"/>
        <path id="Path_11178" data-name="Path 11178" d="M539.487,375.93l-.014,5.256-4.416-.011-.046,17.667-5.293-.014.046-17.667-4.385-.011.014-5.256Z" transform="translate(-483.837 -375.62)" fill="#66bc99"/>
        <path id="Path_11179" data-name="Path 11179" d="M604.589,381.746l-9.458-.025-.009,3.452,7.673.02-.014,5.257-7.673-.02-.009,3.608,9.458.025-.013,5.256-14.752-.038.059-22.8,14.752.007Z" transform="translate(-529.159 -376.033)" fill="#66bc99"/>
        <path id="Path_11180" data-name="Path 11180" d="M663.893,398.723a8.214,8.214,0,0,1-2.176-.3,7.386,7.386,0,0,1-2.049-.923,7.661,7.661,0,0,1-2.624-2.822,7.779,7.779,0,0,1-.929-3.781l5.293.014a2.272,2.272,0,0,0,.4,1.447,2.938,2.938,0,0,0,.718.7,2.372,2.372,0,0,0,1.22.407,2.783,2.783,0,0,0,1.285-.245,2.087,2.087,0,0,0,.706-.464,2.551,2.551,0,0,0,.409-.543,1.491,1.491,0,0,0,.174-.513,2.628,2.628,0,0,0,0-.808,1.648,1.648,0,0,0-.171-.53,2.11,2.11,0,0,0-.406-.545,2.687,2.687,0,0,0-.7-.484,6.8,6.8,0,0,0-.735-.282q-.392-.125-.829-.282-.783-.25-1.627-.564a9.1,9.1,0,0,1-1.689-.844,6.578,6.578,0,0,1-1.843-1.716,6.752,6.752,0,0,1-1.288-4.653,6.41,6.41,0,0,1,.711-2.409,6.855,6.855,0,0,1,1.414-1.831,6.759,6.759,0,0,1,1.883-1.224,6.869,6.869,0,0,1,2.225-.539,7.4,7.4,0,0,1,2.411.224,7.062,7.062,0,0,1,2.15.892,6.845,6.845,0,0,1,1.662,1.466,6.337,6.337,0,0,1,1.069,1.916,6.583,6.583,0,0,1,.368,2.209l-5.266-.014a1.075,1.075,0,0,0-.452-1,3.155,3.155,0,0,0-.8-.376,2.068,2.068,0,0,1-.3-.047,1.529,1.529,0,0,0-.532,0,1.9,1.9,0,0,0-.611.216,1.218,1.218,0,0,0-.5.543,1.382,1.382,0,0,0-.1,1.042,1.485,1.485,0,0,0,.624.857,6.9,6.9,0,0,0,.97.453q.532.2,1.126.392.532.157,1.079.345t1.107.438a7.374,7.374,0,0,1,3.215,2.746,7.425,7.425,0,0,1-.02,7.994,7.375,7.375,0,0,1-3.229,2.729,7.515,7.515,0,0,1-1.656.54A8.525,8.525,0,0,1,663.893,398.723Z" transform="translate(-575.826 -374.969)" fill="#66bc99"/>
        <path id="Path_11181" data-name="Path 11181" d="M737.837,376.445l-.014,5.257-4.416-.011-.046,17.667-5.293-.014.046-17.667-4.385-.011.013-5.257Z" transform="translate(-623.402 -375.982)" fill="#66bc99"/>
      </g>
    </g>
    <g id="Group_819" data-name="Group 819" transform="translate(8215.19 -166.619)">
      <g id="Group_758" data-name="Group 758" transform="translate(0 0)">
        <path id="Path_11182" data-name="Path 11182" d="M402.908,393.646l-13.686-.036.059-22.861,5.293.014-.046,17.6,8.393.022Z" transform="translate(-389.222 -370.521)" fill="#fff"/>
        <path id="Path_11183" data-name="Path 11183" d="M462.77,393.924l-.9-2.77-7.235-.019-.947,2.766-5.606-.015,7.889-22.81,5.011.013,7.363,22.849Zm-6.306-8.041,3.727.01-1.8-5.541Z" transform="translate(-430.637 -370.751)" fill="#fff"/>
        <path id="Path_11184" data-name="Path 11184" d="M543.5,370.941l-.014,5.256-4.416-.012-.046,17.667-5.293-.014.046-17.667-4.385-.012.014-5.256Z" transform="translate(-487.851 -370.63)" fill="#fff"/>
        <path id="Path_11185" data-name="Path 11185" d="M608.6,376.755l-9.458-.025-.009,3.453,7.673.02-.014,5.256-7.673-.02-.01,3.608,9.458.025-.014,5.256-14.751-.039.059-22.8,14.752.007Z" transform="translate(-533.173 -371.043)" fill="#fff"/>
        <path id="Path_11186" data-name="Path 11186" d="M667.905,393.733a8.234,8.234,0,0,1-2.176-.3,7.386,7.386,0,0,1-2.049-.923,7.658,7.658,0,0,1-2.623-2.821,7.774,7.774,0,0,1-.93-3.782l5.293.014a2.276,2.276,0,0,0,.4,1.447,2.947,2.947,0,0,0,.718.7,2.378,2.378,0,0,0,1.221.408,2.787,2.787,0,0,0,1.284-.245,2.09,2.09,0,0,0,.706-.465,2.554,2.554,0,0,0,.409-.543,1.5,1.5,0,0,0,.173-.513,3.381,3.381,0,0,0,.032-.4,3.333,3.333,0,0,0-.03-.4,1.646,1.646,0,0,0-.171-.529,2.127,2.127,0,0,0-.406-.545,2.715,2.715,0,0,0-.7-.484,6.92,6.92,0,0,0-.735-.282q-.392-.125-.829-.282-.782-.25-1.627-.564a9.107,9.107,0,0,1-1.689-.844,6.586,6.586,0,0,1-1.843-1.715A6.759,6.759,0,0,1,661.045,376a6.415,6.415,0,0,1,.711-2.409,6.866,6.866,0,0,1,1.414-1.831,6.765,6.765,0,0,1,1.882-1.224,6.878,6.878,0,0,1,2.225-.538,7.386,7.386,0,0,1,2.411.224,7.06,7.06,0,0,1,2.15.892,6.83,6.83,0,0,1,1.662,1.466,6.329,6.329,0,0,1,1.07,1.916,6.588,6.588,0,0,1,.368,2.209l-5.266-.014a1.074,1.074,0,0,0-.451-1,3.154,3.154,0,0,0-.8-.375,2.185,2.185,0,0,1-.3-.047,1.537,1.537,0,0,0-.533,0,1.9,1.9,0,0,0-.611.216,1.223,1.223,0,0,0-.5.543,1.384,1.384,0,0,0-.1,1.042,1.485,1.485,0,0,0,.624.857,6.944,6.944,0,0,0,.97.453q.531.2,1.126.392.532.158,1.078.345t1.106.438A7.375,7.375,0,0,1,674.5,382.3a7.424,7.424,0,0,1-.021,7.993,7.377,7.377,0,0,1-3.23,2.729,7.5,7.5,0,0,1-1.657.54A8.515,8.515,0,0,1,667.905,393.733Z" transform="translate(-579.839 -369.979)" fill="#fff"/>
        <path id="Path_11187" data-name="Path 11187" d="M741.849,371.456l-.014,5.257-4.416-.012-.046,17.667-5.293-.014.046-17.667-4.385-.012.014-5.256Z" transform="translate(-627.414 -370.992)" fill="#fff"/>
      </g>
    </g>
    <g id="Group_816" data-name="Group 816" transform="matrix(1, 0.017, -0.017, 1, 8216.628, -138.206)">
      <path id="Path_11188" data-name="Path 11188" d="M9.86.281,12,2.217q.134-.984.821-.994l.344,0,3.2,11.748-.089.656-.344,0-.42-1.96-.343,0-.09.656,1.647,5.546.343,0A183.891,183.891,0,0,1,23.454,0L24.4.643,25.471.3l1.927.956-.045.328q-1.03.014-1.209,1.327l.344,0,.3.323.343,0L27.7,1.58l.688-.009L28.34,1.9l-.389.332.3.323-.045.328Q24.587,10.5,20.6,24.7l-.687.009,1.4-5.259q-.688.009-2.909,6.262a4.644,4.644,0,0,1-2.539,1.017l-.089.656-.343,0q.088-.656-1.285-.638l.312-2.3q.2-1.486-4.64-16.314l-.343,0A144.342,144.342,0,0,0,4.93,23.93l-.3-.323q-2.14.606-2.284,1.669l-.687.009a9,9,0,0,1-.108-4.256l-.343,0-.4,2.953-.687.009L0,22.359Q1.213,13.441,7.067.646ZM3.935,8.55l-.045.328.3.323L3.8,9.534l-.089.656.343,0,.522-1.317-.3-.323Zm12.341,5.073q.889-.012,1.017,2.607l-.044.328-.343,0Z" transform="translate(0 4.263)" fill="#ffd337"/>
      <path id="Path_11189" data-name="Path 11189" d="M22.486,0l1.507,1.078Q22.869,4,20.986,3.912l-9.025.508-.13.657,1.682.093,2.108-.221.273.362.341.015L18.686,5.1l.679.049-.064.328-8.09.9-1.2,4.255.341.015,9.434-.841.256.343-.065.328-.68-.049-.045.329,2.3.47-.065.328q-1,1.844-10.266,3.106l-3.471.162.279.324L5.8,19.339l-.344,0,.6-2.956-.341-.014L4.43,20.937Q14.894,19.486,19.1,19.7l1.617.421-.109.656-.682-.029.256.343-.194.985q-1.158,1.25-4.345,1.1l-.065.329,2.725.136-.15.657L1.864,26.752l-.341-.014q-1.611-.325-1.518-1l.008-.058.194-.985L1.64,21.129l-.276-.343.684.01L1.7,22.438l.339.034q.425-1.643,1.024-1.594l-.274-.363.686-3.265L2.8,17.2,2.114,18.83l.426-.314.341.015L2.472,20.5l-.339-.034.192-.966-.341-.015-.129.657-.341-.015.13-.657,1.844-5.555-.34-.015,1-1.594-.276-.343.065-.328,1.5-5.55.276.343.341.015.13-.657,0-1.657.944-2.941L7.33.205l.338.034.276.344L8.35.269,8.688.3l.279.324L9.372.313l1.02.063ZM3.339,14.575l-.474,2.3.341.015.471-2.28Zm11.279.271.344,0-.085.328-6.306.683L8.3,15.49l.063-.309L11.489,15l-.064.329Z" transform="translate(25.347 3.875)" fill="#ffd337"/>
      <path id="Path_11190" data-name="Path 11190" d="M5.274,1.764,6.3,1.75l.12,1.636a1.056,1.056,0,0,0,1.165-1l.343,0,.6.647L7.919,5l.344,0-.389.333L7.83,5.66l.3.323-.045.328-.344,0,.3.323L8,6.968,6.179,17.8l-.044.328.344,0,1.477-3.3.687-.009L5.39,21.087l.687-.009,5.64-11.213-.687.009L9.075,14.159l-.687.009.045-.328,3.119-5.283.344,0-.089.656,2.837-.694q1.309.464,1.241.966l.388-.333,1.03-.014.3,7.857.344,0Q18.149,15.52,25.664,0l.344,0,.21.98.344,0,.089-.656.343,0q2.546-.034,2.615.947l-.089.656-.821.993-.045.329.687-.009L30,.929l.686-.009.6.647-.045.328L19.912,27.768l-1.076.343.089-.656-.388.333-.344,0-.3-.323q-.179,1.312-1.209,1.326-2.717-.194-2.615-.947l.343,0a2.829,2.829,0,0,0-1.062-2.278l-.392-7.2q-.589.028-5.372,9.244L5.648,29.272l-.343,0L5.14,27.969Q11.522,19.6,12.377,15.1q-1.028.882-5.8,9.9-.424.006-1.91,3.957L1.57,29,1.4,27.692l-.388.333-.343,0A2.822,2.822,0,0,0,0,25.419l.178-1.313,1.241.966L1.49,19.5l.388-.333-.3-.324.388-.333-.343,0,.388-.333.625-4.594L3.2,11.946l-.344,0,.388-.333,1.16-8.532-.3-.323.045-.328Zm20.168-.119Q18.318,16.789,18.07,18.623l-.045.328.343,0,7.76-17.31ZM19.984,22.2,18.9,25.162l-.09.656.344,0,1.133-3.291.045-.328Zm3.132-7.9-1.089,2.963-.044.328.344,0,1.089-2.962.044-.328Z" transform="translate(46.86 1.34)" fill="#ffd337"/>
      <path id="Path_11191" data-name="Path 11191" d="M13.848,0q.819.644,5.691.578l-.065.328-2.4.033L17,1.267q4.3-.059,5.108,1.9l-.129.657-1.717.023-.065.329,2.34.3-.065.328-2.061.028-.065.328q1.031-.014.9.643A18.485,18.485,0,0,0,9.737,10.209l-.065.328a14.231,14.231,0,0,1,9.5,7.405l-.065.328q-1.831,4.264-8.083,7.971L8.88,26.6l-.065.328.687-.009q-.162.888-6.573,2.054l.13-.657,1.717-.023.086-.329a4.216,4.216,0,0,1-3.669-2.243Q-.24,24.987.049,22.863q.026-.192.075-.406l1.16-.671.9.643.687-.009q9.9-1.579,10.807-6.042-3.794-1.913-5.108-1.9l-.065.328-3.2-1.267.279.323-.11.657Q1.6,11.571,1.921,9.987l3.312-4.63L7.21,4.02l-.13.657ZM5.335,27.3l-.065.328,1.374-.019,1.783-.351.044-.328-.344,0ZM7.955,8.923l-.065.328,6.554-3.692,2.878-.693.13-.657-.687.009A27.162,27.162,0,0,0,7.955,8.923Zm.07,13.428.344,0,.817-.666-.343,0Zm1.523,2.6-.045.328.343,0,1.569-1Zm4.661-2.684-1.7,1.661.344,0,1.7-1.661Z" transform="translate(73.963 2.853)" fill="#ffd337"/>
      <path id="Path_11192" data-name="Path 11192" d="M5.167,24.089l-.044.328-.389.333-.044.328.388-.333.687-.009.763,1.955.21.98-1.165,1,.687-.009.6.647-.089.656L1.481,31.018l-.3-.324.089-.656q1.374-.019,1.463-.675l.044-.328-2.061.028.268-1.969.388-.333.045-.328-.343,0L0,26.779l.045-.328Q1.388,24.14,5.167,24.089ZM7.011,0,11.3,1.5l-.053.386a57.936,57.936,0,0,0-3.51,12.166l-.055.405a20.94,20.94,0,0,0,.573,6.62l-.524,1.182q-.93.012-.9-1.529l-.384.005-.1.772-1.516.02-.48-1.958-.419.41-.384.005Q1.19,18.035,1.825,13.364l.1-.772L3.746,4.726l.384-.005.043,2.35-.747.01-.108.792.64.781.384-.005L5.729,3.929l-.436.391-.364,0,.157-1.158.856-.8-.16,1.178.384-.005.215-1.583-.666-.742ZM2.636,10.213l-.267,1.968.1,1.945.385-.005.16-1.177L3,10.208Zm0,5.472q.63,3.517,1.4,3.507Zm.9-6.64-.212,1.564.363-.005L3.9,9.04Zm.8-5.868.363,0,.174,1.539-.748.01Z" transform="translate(95.087)" fill="#ffd337"/>
    </g>
    <g id="Group_817" data-name="Group 817" transform="matrix(1, 0.017, -0.017, 1, 8215.853, -139.828)">
      <path id="Path_11188-2" data-name="Path 11188" d="M9.86.281,12,2.217q.134-.984.821-.994l.344,0,3.2,11.748-.089.656-.344,0-.42-1.96-.343,0-.09.656,1.647,5.546.343,0A183.891,183.891,0,0,1,23.454,0L24.4.643,25.471.3l1.927.956-.045.328q-1.03.014-1.209,1.327l.344,0,.3.323.343,0L27.7,1.58l.688-.009L28.34,1.9l-.389.332.3.323-.045.328Q24.587,10.5,20.6,24.7l-.687.009,1.4-5.259q-.688.009-2.909,6.262a4.644,4.644,0,0,1-2.539,1.017l-.089.656-.343,0q.088-.656-1.285-.638l.312-2.3q.2-1.486-4.64-16.314l-.343,0A144.342,144.342,0,0,0,4.93,23.93l-.3-.323q-2.14.606-2.284,1.669l-.687.009a9,9,0,0,1-.108-4.256l-.343,0-.4,2.953-.687.009L0,22.359Q1.213,13.441,7.067.646ZM3.935,8.55l-.045.328.3.323L3.8,9.534l-.089.656.343,0,.522-1.317-.3-.323Zm12.341,5.073q.889-.012,1.017,2.607l-.044.328-.343,0Z" transform="translate(0 4.263)" fill="#0cebb3"/>
      <path id="Path_11189-2" data-name="Path 11189" d="M22.486,0l1.507,1.078Q22.869,4,20.986,3.912l-9.025.508-.13.657,1.682.093,2.108-.221.273.362.341.015L18.686,5.1l.679.049-.064.328-8.09.9-1.2,4.255.341.015,9.434-.841.256.343-.065.328-.68-.049-.045.329,2.3.47-.065.328q-1,1.844-10.266,3.106l-3.471.162.279.324L5.8,19.339l-.344,0,.6-2.956-.341-.014L4.43,20.937Q14.894,19.486,19.1,19.7l1.617.421-.109.656-.682-.029.256.343-.194.985q-1.158,1.25-4.345,1.1l-.065.329,2.725.136-.15.657L1.864,26.752l-.341-.014q-1.611-.325-1.518-1l.008-.058.194-.985L1.64,21.129l-.276-.343.684.01L1.7,22.438l.339.034q.425-1.643,1.024-1.594l-.274-.363.686-3.265L2.8,17.2,2.114,18.83l.426-.314.341.015L2.472,20.5l-.339-.034.192-.966-.341-.015-.129.657-.341-.015.13-.657,1.844-5.555-.34-.015,1-1.594-.276-.343.065-.328,1.5-5.55.276.343.341.015.13-.657,0-1.657.944-2.941L7.33.205l.338.034.276.344L8.35.269,8.688.3l.279.324L9.372.313l1.02.063ZM3.339,14.575l-.474,2.3.341.015.471-2.28Zm11.279.271.344,0-.085.328-6.306.683L8.3,15.49l.063-.309L11.489,15l-.064.329Z" transform="translate(25.347 3.875)" fill="#0cebb3"/>
      <path id="Path_11190-2" data-name="Path 11190" d="M5.274,1.764,6.3,1.75l.12,1.636a1.056,1.056,0,0,0,1.165-1l.343,0,.6.647L7.919,5l.344,0-.389.333L7.83,5.66l.3.323-.045.328-.344,0,.3.323L8,6.968,6.179,17.8l-.044.328.344,0,1.477-3.3.687-.009L5.39,21.087l.687-.009,5.64-11.213-.687.009L9.075,14.159l-.687.009.045-.328,3.119-5.283.344,0-.089.656,2.837-.694q1.309.464,1.241.966l.388-.333,1.03-.014.3,7.857.344,0Q18.149,15.52,25.664,0l.344,0,.21.98.344,0,.089-.656.343,0q2.546-.034,2.615.947l-.089.656-.821.993-.045.329.687-.009L30,.929l.686-.009.6.647-.045.328L19.912,27.768l-1.076.343.089-.656-.388.333-.344,0-.3-.323q-.179,1.312-1.209,1.326-2.717-.194-2.615-.947l.343,0a2.829,2.829,0,0,0-1.062-2.278l-.392-7.2q-.589.028-5.372,9.244L5.648,29.272l-.343,0L5.14,27.969Q11.522,19.6,12.377,15.1q-1.028.882-5.8,9.9-.424.006-1.91,3.957L1.57,29,1.4,27.692l-.388.333-.343,0A2.822,2.822,0,0,0,0,25.419l.178-1.313,1.241.966L1.49,19.5l.388-.333-.3-.324.388-.333-.343,0,.388-.333.625-4.594L3.2,11.946l-.344,0,.388-.333,1.16-8.532-.3-.323.045-.328Zm20.168-.119Q18.318,16.789,18.07,18.623l-.045.328.343,0,7.76-17.31ZM19.984,22.2,18.9,25.162l-.09.656.344,0,1.133-3.291.045-.328Zm3.132-7.9-1.089,2.963-.044.328.344,0,1.089-2.962.044-.328Z" transform="translate(46.86 1.34)" fill="#0cebb3"/>
      <path id="Path_11191-2" data-name="Path 11191" d="M13.848,0q.819.644,5.691.578l-.065.328-2.4.033L17,1.267q4.3-.059,5.108,1.9l-.129.657-1.717.023-.065.329,2.34.3-.065.328-2.061.028-.065.328q1.031-.014.9.643A18.485,18.485,0,0,0,9.737,10.209l-.065.328a14.231,14.231,0,0,1,9.5,7.405l-.065.328q-1.831,4.264-8.083,7.971L8.88,26.6l-.065.328.687-.009q-.162.888-6.573,2.054l.13-.657,1.717-.023.086-.329a4.216,4.216,0,0,1-3.669-2.243Q-.24,24.987.049,22.863q.026-.192.075-.406l1.16-.671.9.643.687-.009q9.9-1.579,10.807-6.042-3.794-1.913-5.108-1.9l-.065.328-3.2-1.267.279.323-.11.657Q1.6,11.571,1.921,9.987l3.312-4.63L7.21,4.02l-.13.657ZM5.335,27.3l-.065.328,1.374-.019,1.783-.351.044-.328-.344,0ZM7.955,8.923l-.065.328,6.554-3.692,2.878-.693.13-.657-.687.009A27.162,27.162,0,0,0,7.955,8.923Zm.07,13.428.344,0,.817-.666-.343,0Zm1.523,2.6-.045.328.343,0,1.569-1Zm4.661-2.684-1.7,1.661.344,0,1.7-1.661Z" transform="translate(73.963 2.853)" fill="#0cebb3"/>
      <path id="Path_11192-2" data-name="Path 11192" d="M5.167,24.089l-.044.328-.389.333-.044.328.388-.333.687-.009.763,1.955.21.98-1.165,1,.687-.009.6.647-.089.656L1.481,31.018l-.3-.324.089-.656q1.374-.019,1.463-.675l.044-.328-2.061.028.268-1.969.388-.333.045-.328-.343,0L0,26.779l.045-.328Q1.388,24.14,5.167,24.089ZM7.011,0,11.3,1.5l-.053.386a57.936,57.936,0,0,0-3.51,12.166l-.055.405a20.94,20.94,0,0,0,.573,6.62l-.524,1.182q-.93.012-.9-1.529l-.384.005-.1.772-1.516.02-.48-1.958-.419.41-.384.005Q1.19,18.035,1.825,13.364l.1-.772L3.746,4.726l.384-.005.043,2.35-.747.01-.108.792.64.781.384-.005L5.729,3.929l-.436.391-.364,0,.157-1.158.856-.8-.16,1.178.384-.005.215-1.583-.666-.742ZM2.636,10.213l-.267,1.968.1,1.945.385-.005.16-1.177L3,10.208Zm0,5.472q.63,3.517,1.4,3.507Zm.9-6.64-.212,1.564.363-.005L3.9,9.04Zm.8-5.868.363,0,.174,1.539-.748.01Z" transform="translate(95.087)" fill="#0cebb3"/>
    </g>
  </g>
</svg>
