<svg xmlns="http://www.w3.org/2000/svg" width="44.25" height="44.25" viewBox="0 0 44.25 44.25">
  <path id="linkn_v" d="M188.728,1057.723a22.125,22.125,0,1,0,22.125,22.125A22.125,22.125,0,0,0,188.728,1057.723Zm4.387,24.16a5.1,5.1,0,0,1-.854,1.667,5.185,5.185,0,0,1-.434.495L186,1089.879a5.147,5.147,0,0,1-7.3-.021,5.21,5.21,0,0,1,.062-7.318l4.283-4.292a.1.1,0,0,1,.165.086q-.035.188-.058.379a6.126,6.126,0,0,0,.3,2.737l.016.043a.9.9,0,0,1-.21.942l-2.339,2.344a2.056,2.056,0,0,0,.029,2.929,2.071,2.071,0,0,0,2.889-.051l5.8-5.812a2.024,2.024,0,0,0,.415-.6,2.059,2.059,0,0,0-.415-2.3,2.032,2.032,0,0,0-.434-.332.5.5,0,0,1-.249-.368.48.48,0,0,1,.137-.406l1.248-1.25a.935.935,0,0,1,1.288-.037q.1.094.2.194a5.144,5.144,0,0,1,.781,1.005,5.053,5.053,0,0,1,.294.575,5.122,5.122,0,0,1,.23.64A5.188,5.188,0,0,1,193.115,1081.883Zm5.633-4.775-4.324,4.333a.1.1,0,0,1-.165-.087c.023-.126.042-.252.058-.379a6.128,6.128,0,0,0-.3-2.737L194,1078.2a.9.9,0,0,1,.21-.942l2.338-2.344a2.057,2.057,0,0,0-.027-2.929,2.071,2.071,0,0,0-2.89.05l-5.8,5.812a2.032,2.032,0,0,0-.415.6,2.053,2.053,0,0,0,.849,2.634.5.5,0,0,1,.249.367.48.48,0,0,1-.137.406l-1.247,1.251a.936.936,0,0,1-1.288.037q-.105-.095-.2-.195a5.164,5.164,0,0,1,0-7.3l5.781-5.794a5.183,5.183,0,0,1,7.3-.062,5.176,5.176,0,0,1,.021,7.32Z" transform="translate(-166.603 -1057.723)" fill="#4e287b"/>
</svg>
