<svg xmlns="http://www.w3.org/2000/svg" width="44.25" height="44.25" viewBox="0 0 44.25 44.25">
  <g id="mail_v" transform="translate(-863 -735.547)">
    <circle id="Ellipse_261" data-name="Ellipse 261" cx="22.125" cy="22.125" r="22.125" transform="translate(863 735.547)" fill="#4e287b"/>
    <path id="Path_14104" data-name="Path 14104" d="M214.673,1211.727,203.88,1222.52a.981.981,0,0,1-1.357,0l-10.794-10.793a1.644,1.644,0,0,1,1.6-1.282H213.07a1.645,1.645,0,0,1,1.6,1.282m-13.119,11.762-4.171-4.171-5.689,5.689a1.644,1.644,0,0,0,1.638,1.52H213.07a1.644,1.644,0,0,0,1.639-1.52l-5.689-5.688-4.171,4.17a2.329,2.329,0,0,1-3.295,0m8.435-5.14,4.726,4.726v-9.451Zm-13.575,0-4.726-4.726v9.452Z" transform="translate(681.924 -460.814)" fill="#fff"/>
  </g>
</svg>
