<svg xmlns="http://www.w3.org/2000/svg" width="43.113" height="38.007" viewBox="0 0 43.113 38.007">
  <g id="message_v" transform="translate(-183.749 -1460)">
    <path id="Path_14108" data-name="Path 14108" d="M223.535,1461H187.076a2.327,2.327,0,0,0-2.327,2.327v22.5a2.327,2.327,0,0,0,2.327,2.327h2.391l4.2,7.757,4.2-7.757h25.664a2.327,2.327,0,0,0,2.327-2.327v-22.5A2.327,2.327,0,0,0,223.535,1461Zm.776,23.272a2.327,2.327,0,0,1-2.327,2.327h-25.2l-3.067,5.311-3.066-5.311h-2.029a2.327,2.327,0,0,1-2.327-2.327v-19.393a2.327,2.327,0,0,1,2.327-2.327h33.356a2.327,2.327,0,0,1,2.327,2.327v19.393Z" fill="#4e287b" stroke="#4e287b" stroke-miterlimit="10" stroke-width="2"/>
  </g>
</svg>
