<svg xmlns="http://www.w3.org/2000/svg" width="44.25" height="44.25" viewBox="0 0 44.25 44.25">
  <g id="printer_v" transform="translate(-863 -786.068)">
    <circle id="Ellipse_262" data-name="Ellipse 262" cx="22.125" cy="22.125" r="22.125" transform="translate(863 786.068)" fill="#4e287b"/>
    <path id="Path_14105" data-name="Path 14105" d="M208.8,1320.72a1.867,1.867,0,0,1,1.676,2v7.141h-15.3v-7.141a1.867,1.867,0,0,1,1.676-2Zm-15.359,9.969h18.45a2.985,2.985,0,0,1,2.681,3.2v3.1a2.986,2.986,0,0,1-2.681,3.2h-.93l-.371-1.089h.994v-4.6H194.068v4.6h.995l.392-1.15a2.645,2.645,0,0,1,2.17-1.832h10.4a2.645,2.645,0,0,1,2.17,1.832l1.62,4.756c.343,1.008-.072,1.832-.922,1.832H194.757c-.85,0-1.265-.824-.922-1.832l.857-2.517h-1.251a2.986,2.986,0,0,1-2.681-3.2v-3.1A2.985,2.985,0,0,1,193.442,1330.688Zm1.741,12.273H210.47l-1.5-4.406a1.345,1.345,0,0,0-.941-.844h-10.4a1.346,1.346,0,0,0-.941.844Zm-1.153-10.592h2.29v-.668h-2.29Zm0,1.334h2.29v-.667h-2.29Z" transform="translate(682.458 -524.441)" fill="#fff"/>
  </g>
</svg>
