<svg xmlns="http://www.w3.org/2000/svg" width="36.888" height="36.888" viewBox="0 0 36.888 36.888">
  <g id="rel_play" transform="translate(0 -0.002)" opacity="0.601">
    <g id="_x33_56._Play" transform="translate(0 0.002)">
      <g id="Group_603" data-name="Group 603">
        <path id="Path_10559" data-name="Path 10559" d="M34.414,9.225a18.44,18.44,0,1,0-6.75,25.19A18.44,18.44,0,0,0,34.414,9.225Zm-8.594,22a14.752,14.752,0,1,1,5.4-20.151A14.751,14.751,0,0,1,25.82,31.221ZM25.083,17.7l-9.656-5.632c-.88-.514-1.59-.1-1.585.915l.049,11.178c0,1.018.723,1.432,1.605.922l9.582-5.532A.979.979,0,0,0,25.083,17.7Z" transform="translate(0 -0.002)" fill="#fff"/>
      </g>
    </g>
  </g>
</svg>
