<svg id="rel_symbol2" xmlns="http://www.w3.org/2000/svg" width="45.625" height="45.625" viewBox="0 0 45.625 45.625">
  <ellipse id="Ellipse_260" data-name="Ellipse 260" cx="22.812" cy="22.812" rx="22.812" ry="22.812" transform="translate(0 0)" fill="#fff"/>
  <g id="Group_813" data-name="Group 813" transform="translate(0.781 0.781)">
    <path id="Path_13733" data-name="Path 13733" d="M1191.079,312.4a21.114,21.114,0,0,1-.472,2.807,22.109,22.109,0,0,1-17.094,16.549,19.653,19.653,0,0,1-2.109.318c-.042.023-.093-.008-.135.02h-4.318c-.035-.026-.077,0-.113-.018a21.926,21.926,0,0,1-11.784-4.942,21.916,21.916,0,0,1-7.259-11.258,21.14,21.14,0,0,1-.632-3.38,22.131,22.131,0,0,1,1.777-11.366,21.645,21.645,0,0,1,3.063-4.968,21.985,21.985,0,0,1,10.3-7.056,21.43,21.43,0,0,1,3.887-.88,22.07,22.07,0,0,1,24.752,18.486c.057.366.1.734.142,1.1.018.035-.008.078.018.112v4.362C1191.072,312.321,1191.1,312.364,1191.079,312.4Z" transform="translate(-1147.035 -288.029)" fill="#d68f16"/>
    <path id="Path_13734" data-name="Path 13734" d="M1931.965,1714.423c.041-.035.088-.022.135-.02a.031.031,0,0,0,0,.02Z" transform="translate(-1907.73 -1670.36)" fill="#e6b465"/>
    <path id="Path_13735" data-name="Path 13735" d="M2573.5,928.889a.142.142,0,0,1-.018-.112.028.028,0,0,1,.018,0Z" transform="translate(-2529.436 -908.993)" fill="#f3d6a9"/>
    <path id="Path_13736" data-name="Path 13736" d="M2573.405,1073.818c0-.039-.014-.08.019-.113v.11A.04.04,0,0,1,2573.405,1073.818Z" transform="translate(-2529.361 -1049.447)" fill="#eabe79"/>
    <path id="Path_13737" data-name="Path 13737" d="M1788.438,1714.456a.127.127,0,0,1,.113.018h-.11A.088.088,0,0,1,1788.438,1714.456Z" transform="translate(-1768.635 -1670.41)" fill="#ebbe79"/>
    <path id="Path_13738" data-name="Path 13738" d="M1171,333.335a21.343,21.343,0,1,1,21.314,21.349A21.34,21.34,0,0,1,1171,333.335Z" transform="translate(-1170.256 -311.259)" fill="#003980"/>
    <path id="Path_13739" data-name="Path 13739" d="M1384.755,510.6a15.211,15.211,0,1,1-15.211,15.213A15.216,15.216,0,0,1,1384.755,510.6Z" transform="translate(-1362.674 -503.732)" fill="#d68f16"/>
    <path id="Path_13740" data-name="Path 13740" d="M1223.542,1082.8a.526.526,0,0,1,.56-.565,1.094,1.094,0,0,1,.318.021c.249.061.5.027.754.064a.785.785,0,0,1,.376.142.506.506,0,0,1,.174.531c.032-.006.052-.01.072-.015a.488.488,0,0,1,.569.224.85.85,0,0,1,.125.315c.049.293.128.578.2.865a.748.748,0,0,1,0,.36.49.49,0,0,1-.461.388.114.114,0,0,0,.01.036.51.51,0,0,1-.108.732c-.063.054-1.013.625-1.09.652-.3.107-.481.036-.707-.28a.514.514,0,0,1-.786.118,8.978,8.978,0,0,1-.871-.755c-.259-.255-.245-.5,0-.812a.5.5,0,0,1-.351-.286.617.617,0,0,1,.008-.483c.129-.322.267-.64.4-.958a.7.7,0,0,1,.081-.13C1223,1082.721,1223.2,1082.676,1223.542,1082.8Z" transform="translate(-1219.957 -1057.716)" fill="#fff"/>
    <path id="Path_13741" data-name="Path 13741" d="M2366.856,1083.035c-.021-.39.107-.57.472-.655a1.054,1.054,0,0,1,.261-.035,4.036,4.036,0,0,0,.667-.059,1.183,1.183,0,0,1,.264-.006.529.529,0,0,1,.531.563.626.626,0,0,1,.355-.077.515.515,0,0,1,.381.272,7.4,7.4,0,0,1,.487,1.147.5.5,0,0,1-.36.68s0,.009,0,.011a.538.538,0,0,1-.022.824.909.909,0,0,1-.1.091,6.473,6.473,0,0,0-.606.526.945.945,0,0,1-.195.142.526.526,0,0,1-.746-.142c-.017-.007-.017.009-.021.017a.5.5,0,0,1-.653.268,1.212,1.212,0,0,1-.342-.173,3.618,3.618,0,0,0-.507-.3,1.082,1.082,0,0,1-.35-.262.493.493,0,0,1-.054-.619c.021-.037.066-.067-.022-.084a.5.5,0,0,1-.425-.51.963.963,0,0,1,.045-.336,5.743,5.743,0,0,0,.173-.747.93.93,0,0,1,.041-.136A.535.535,0,0,1,2366.856,1083.035Z" transform="translate(-2328.245 -1057.753)" fill="#fff"/>
    <path id="Path_13742" data-name="Path 13742" d="M2367.357,789.574a2.041,2.041,0,1,1,2.051-2.025A2.046,2.046,0,0,1,2367.357,789.574Z" transform="translate(-2327.707 -770.133)" fill="#fff"/>
    <path id="Path_13743" data-name="Path 13743" d="M1228.966,789.574a2.041,2.041,0,1,1,2.043-2.017A2.036,2.036,0,0,1,1228.966,789.574Z" transform="translate(-1224.464 -770.133)" fill="#fff"/>
    <path id="Path_13744" data-name="Path 13744" d="M1531.061,384.166c.039.009.041.047.054.074.2.423.4.845.6,1.271.041.089.076.089.152.05.189-.1.381-.186.576-.271.076-.033.086-.064.05-.137-.2-.422-.4-.846-.6-1.268-.031-.064-.034-.1.041-.131.349-.16.7-.324,1.042-.491.066-.032.091-.019.121.045q.875,1.862,1.755,3.721c.034.072.009.09-.048.117q-.522.243-1.041.493c-.066.032-.089.02-.12-.045-.218-.471-.443-.94-.661-1.411-.034-.073-.063-.1-.144-.054-.195.1-.395.192-.595.281-.067.03-.074.056-.042.121.224.468.443.939.668,1.408.036.075.035.108-.048.146-.343.155-.683.318-1.022.481-.065.031-.1.029-.131-.044q-.873-1.863-1.752-3.723c-.018-.038-.049-.071.018-.1.365-.169.728-.342,1.092-.513Z" transform="translate(-1518.066 -380.307)" fill="#d68f16"/>
    <path id="Path_13745" data-name="Path 13745" d="M1408.99,487.765a2.305,2.305,0,0,1-2.265-1.866,2.189,2.189,0,0,1,1.461-2.5,2.374,2.374,0,0,1,1.374.033c.051.014.048.037.038.08q-.085.358-.163.717c-.012.057-.033.075-.1.063-.2-.039-.4-.072-.6-.1a.867.867,0,0,0-.891,1.131,1.992,1.992,0,0,0,1.157,1.25.878.878,0,0,0,1.181-.807,1.677,1.677,0,0,0-.121-.62c-.022-.066-.022-.094.057-.113.249-.06.495-.13.741-.2.039-.011.069-.023.084.029a2.2,2.2,0,0,1,.076,1.359,2.161,2.161,0,0,1-1.7,1.5A2.834,2.834,0,0,1,1408.99,487.765Z" transform="translate(-1398.665 -477.285)" fill="#d68f16"/>
    <path id="Path_13746" data-name="Path 13746" d="M1692.954,351.171l1.071-.216c.05-.01.1-.022.15-.032.2-.038.2-.038.238.155s.073.374.115.559c.019.082,0,.118-.088.135-.56.109-1.12.224-1.679.336-.3.06-.6.114-.893.182-.087.02-.1-.015-.11-.079q-.121-.608-.245-1.216-.281-1.4-.565-2.8c-.015-.074,0-.1.072-.118q1.286-.256,2.572-.518c.067-.014.088,0,.1.065.042.234.089.467.141.7.015.068,0,.09-.065.1-.413.08-.825.164-1.238.245-.083.016-.133.031-.1.142.051.183.08.372.114.559.01.055.025.073.086.06.4-.083.8-.16,1.194-.244.077-.016.1,0,.113.076.038.224.081.447.135.667.022.089,0,.111-.083.127-.388.074-.774.157-1.163.231-.079.015-.089.042-.073.115.052.232.1.466.143.7C1692.906,351.152,1692.91,351.191,1692.954,351.171Z" transform="translate(-1674.15 -345.719)" fill="#d68f16"/>
    <path id="Path_13747" data-name="Path 13747" d="M2062.638,401.554l-.063-.03q-1.18-.6-2.361-1.191c-.061-.03-.076-.052-.042-.12q.932-1.834,1.858-3.672c.032-.063.055-.073.119-.04q1.169.595,2.341,1.182c.06.03.076.053.041.119-.112.21-.217.423-.321.637-.029.059-.052.067-.113.036-.384-.2-.771-.388-1.154-.586-.069-.036-.094-.028-.126.042-.083.179-.173.355-.266.529-.029.054-.023.075.033.1.357.177.71.364,1.069.536.094.045.089.082.048.159-.105.2-.205.4-.3.6-.032.066-.058.081-.128.044-.354-.184-.712-.36-1.066-.544-.07-.036-.1-.023-.129.045q-.152.316-.317.626c-.034.064-.024.088.04.12.39.193.776.394,1.166.585.076.037.082.064.043.136-.109.2-.21.41-.314.615C2062.68,401.51,2062.675,401.547,2062.638,401.554Z" transform="translate(-2031.962 -393.135)" fill="#d68f16"/>
    <path id="Path_13748" data-name="Path 13748" d="M1948.4,363.006a1.759,1.759,0,0,1-1.365-.681,2.056,2.056,0,0,1-.27-.644c-.015-.048,0-.062.045-.078.255-.1.509-.2.761-.312.054-.023.068-.007.084.042.046.139.093.277.146.413a.436.436,0,0,0,.323.271.345.345,0,0,0,.36-.13.341.341,0,0,0-.011-.392,1.451,1.451,0,0,0-.3-.269,3.384,3.384,0,0,1-.626-.534,1.319,1.319,0,0,1,.205-1.807,1.567,1.567,0,0,1,2.519.945c.035.19.035.19-.149.252-.208.07-.417.137-.624.21-.055.019-.076.016-.087-.048-.022-.13-.051-.259-.085-.386a.439.439,0,0,0-.339-.338.243.243,0,0,0-.283.115.231.231,0,0,0,.006.321,2.266,2.266,0,0,0,.4.33,2.368,2.368,0,0,1,.6.587,1.393,1.393,0,0,1-.71,2.03,1.66,1.66,0,0,1-.329.083C1948.587,363,1948.506,363,1948.4,363.006Z" transform="translate(-1922.067 -356.361)" fill="#d68f16"/>
    <path id="Path_13749" data-name="Path 13749" d="M2159.853,489.639l-1.7,5.019-.363-.314c-.208-.181-.413-.364-.623-.541a.121.121,0,0,1-.039-.159c.094-.265.179-.533.273-.8a.1.1,0,0,0-.034-.131q-.256-.217-.506-.441a.083.083,0,0,0-.114-.008c-.251.136-.5.267-.755.4a.112.112,0,0,1-.152-.019c-.226-.2-.458-.4-.7-.609l4.691-2.423Z" transform="translate(-2124.016 -483.394)" fill="#d68f16"/>
    <path id="Path_13750" data-name="Path 13750" d="M1835.675,345.2q.023-1.035.045-2.069c0-.06.014-.082.079-.081q.589.016,1.178.024c.066,0,.077.026.076.085-.024,1.049-.044,2.1-.072,3.148,0,.114.027.138.135.138.415,0,.829.015,1.244.019.078,0,.089.029.087.1-.009.249-.015.5-.016.748,0,.074-.023.091-.095.09q-1.31-.03-2.619-.052c-.084,0-.085-.038-.083-.1q.023-1.023.044-2.047Z" transform="translate(-1814.372 -341.351)" fill="#d68f16"/>
    <path id="Path_13751" data-name="Path 13751" d="M2174.307,1432.33a.835.835,0,0,1-.716-.369q-.4-.54-.794-1.082c-.043-.059-.083-.121-.131-.177s-.025-.071.019-.1c.176-.126.352-.252.523-.384.056-.043.082-.041.125.018.3.41.6.817.9,1.225a.231.231,0,0,0,.4.028c.1-.1.107-.163.016-.288-.3-.414-.605-.83-.913-1.24-.052-.069-.042-.1.023-.142.115-.078.226-.163.338-.246.039-.029.065-.043.1.009.327.451.66.9.984,1.352a.7.7,0,0,1,.033.808A1.171,1.171,0,0,1,2174.307,1432.33Z" transform="translate(-2140.977 -1394.301)" fill="#d68f16"/>
    <path id="Path_13752" data-name="Path 13752" d="M2048.177,1512.121a1.22,1.22,0,0,1,.671-1.106,1.142,1.142,0,0,1,1.229.065c.161.1.161.1.061.261-.055.087-.113.172-.165.26-.027.045-.049.051-.095.023a2.475,2.475,0,0,0-.278-.154.444.444,0,0,0-.644.435,1.146,1.146,0,0,0,.254.678.45.45,0,0,0,.489.2.5.5,0,0,0,.37-.445c0-.015,0-.029,0-.044.012-.222.012-.221.234-.2l.285.022c.035,0,.076,0,.073.057a1.291,1.291,0,0,1-.239.785,1.207,1.207,0,0,1-1.246.445,1.221,1.221,0,0,1-.954-.918A1.092,1.092,0,0,1,2048.177,1512.121Z" transform="translate(-2020.353 -1473.111)" fill="#d68f16"/>
    <path id="Path_13753" data-name="Path 13753" d="M1393.543,1386.463c-.023.021-.045.04-.065.061-.185.194-.372.386-.554.582-.042.045-.066.058-.117.007-.156-.156-.316-.307-.478-.456-.042-.038-.043-.06,0-.1q.8-.831,1.588-1.666c.042-.044.064-.048.11,0q.515.5,1.036.988c.052.049.046.076,0,.121-.089.087-.176.177-.257.272-.052.06-.084.068-.144.006-.141-.145-.292-.278-.436-.421-.044-.043-.069-.048-.109,0-.055.068-.163.131-.163.2s.108.126.17.187c.09.087.18.173.272.257.037.033.044.056.005.094-.1.1-.2.2-.3.312-.04.045-.064.037-.1,0-.131-.129-.265-.254-.4-.38Z" transform="translate(-1384.724 -1350.989)" fill="#d68f16"/>
    <path id="Path_13754" data-name="Path 13754" d="M1771.344,1542.717l.952,2.952c-.274-.02-.533-.04-.793-.056-.058,0-.071-.04-.085-.083-.042-.132-.087-.264-.127-.4-.013-.044-.029-.069-.079-.072-.1,0-.2-.012-.3-.023-.05-.006-.062.024-.078.059-.058.126-.121.25-.178.377a.09.09,0,0,1-.108.063c-.185-.018-.37-.029-.57-.043Z" transform="translate(-1750.75 -1503.978)" fill="#d68f16"/>
    <path id="Path_13755" data-name="Path 13755" d="M1696.566,1542.773a6.609,6.609,0,0,1-.763-.146c-.133-.024-.265-.055-.4-.082-.051-.01-.069-.026-.056-.088q.241-1.126.474-2.254c.011-.053.027-.071.088-.057.346.078.7.137,1.039.226a.716.716,0,0,1,.361,1.207c-.035.031-.031.053-.011.091A.745.745,0,0,1,1696.566,1542.773Z" transform="translate(-1678.416 -1501.482)" fill="#d68f16"/>
    <path id="Path_13756" data-name="Path 13756" d="M2236.885,1385.551a.718.718,0,0,1,.745.563c.01.047.023.073.082.076a.733.733,0,0,1,.611,1.037,1.075,1.075,0,0,1-.239.326c-.234.227-.47.453-.7.683-.047.046-.072.052-.121,0q-.793-.824-1.593-1.643c-.041-.042-.049-.066,0-.111.248-.234.49-.475.738-.709A.757.757,0,0,1,2236.885,1385.551Z" transform="translate(-2202.025 -1351.665)" fill="#d68f16"/>
    <path id="Path_13757" data-name="Path 13757" d="M1924.547,1550.847c-.023-.053.012-.067.057-.074.228-.035.456-.068.683-.107.065-.011.053.032.058.064q.065.4.128.8c.046.292.093.585.135.878.011.076.051.083.113.073.206-.034.412-.063.617-.1.065-.012.093,0,.1.067.019.141.043.282.066.423.008.052.007.086-.064.1q-.727.107-1.453.225c-.054.009-.078.007-.088-.055q-.173-1.123-.351-2.244C1924.549,1550.881,1924.549,1550.866,1924.547,1550.847Z" transform="translate(-1900.535 -1511.681)" fill="#d68f16"/>
    <path id="Path_13758" data-name="Path 13758" d="M1859.277,1558.7c-.017-.37-.031-.741-.051-1.111,0-.071.013-.1.087-.1.213,0,.426-.013.638-.024.064,0,.087.011.089.082.019.554.046,1.107.064,1.661,0,.094.034.116.122.11.205-.013.411-.015.616-.026.061,0,.083.013.084.076,0,.143.007.286.018.429.005.07-.021.086-.086.088-.488.017-.976.035-1.463.058-.082,0-.068-.047-.07-.09q-.026-.578-.049-1.155Z" transform="translate(-1837.237 -1518.269)" fill="#d68f16"/>
    <path id="Path_13759" data-name="Path 13759" d="M1631.764,1518.5c0-.015-.027-.017-.05-.025-.086-.03-.172-.063-.259-.088-.057-.017-.064-.04-.043-.094.05-.129.093-.261.137-.393.016-.048.032-.068.092-.046.46.166.923.326,1.385.487.049.017.074.031.05.092-.052.132-.1.268-.141.4-.017.052-.04.057-.087.038-.074-.03-.154-.047-.226-.081s-.1-.008-.122.061c-.184.531-.372,1.061-.554,1.593-.027.079-.053.1-.135.066-.19-.074-.384-.142-.578-.2-.076-.024-.085-.051-.059-.122.19-.533.376-1.067.564-1.6C1631.744,1518.568,1631.75,1518.547,1631.764,1518.5Z" transform="translate(-1616.212 -1479.877)" fill="#d68f16"/>
    <path id="Path_13760" data-name="Path 13760" d="M2121.462,1485.24c0,.036-.032.042-.053.053-.428.24-.857.478-1.284.719-.048.027-.073.027-.1-.026q-.56-1.008-1.125-2.014c-.03-.053-.019-.074.03-.1.2-.107.391-.215.584-.328.066-.039.079,0,.1.046.271.486.543.971.812,1.459.04.073.07.087.146.04.178-.109.364-.2.544-.309.053-.031.079-.026.108.031.067.13.142.256.213.384Z" transform="translate(-2088.876 -1446.617)" fill="#d68f16"/>
    <path id="Path_13761" data-name="Path 13761" d="M1544.754,1491.96a1.346,1.346,0,0,1-1.049,1.328,1.2,1.2,0,0,1-1.381-.861,1.359,1.359,0,0,1,.954-1.633A1.2,1.2,0,0,1,1544.754,1491.96Z" transform="translate(-1530.078 -1453.628)" fill="#d68f16"/>
    <path id="Path_13762" data-name="Path 13762" d="M1462.4,1444.225a1.352,1.352,0,0,1,1.294-1.336,1.208,1.208,0,0,1,1.2,1.188,1.356,1.356,0,0,1-1.29,1.352A1.207,1.207,0,0,1,1462.4,1444.225Z" transform="translate(-1452.664 -1407.233)" fill="#d68f16"/>
    <path id="Path_13763" data-name="Path 13763" d="M1384.6,540.314a14.748,14.748,0,1,1,14.736,14.75A14.745,14.745,0,0,1,1384.6,540.314Z" transform="translate(-1377.263 -518.231)" fill="#fdfdfc"/>
    <path id="Path_13764" data-name="Path 13764" d="M1270.988,1090.287a.251.251,0,0,1,.219-.282.794.794,0,0,1,.382,0c.252.059.511.026.765.066a.75.75,0,0,1,.148.038.261.261,0,0,1,.18.366,2.089,2.089,0,0,1-.555.755c-.044.045-.219-.045-.229-.112-.019-.123-.034-.247-.055-.369,0-.027.01-.075-.042-.076s-.036.041-.045.066c-.041.117-.083.234-.116.354-.028.1-.121.059-.179.091s-.062-.025-.079-.051a2.532,2.532,0,0,1-.368-.7A.792.792,0,0,1,1270.988,1090.287Z" transform="translate(-1267.161 -1065.222)" fill="#e4001b"/>
    <path id="Path_13765" data-name="Path 13765" d="M1314.257,1114.435a.228.228,0,0,0-.055,0c-.173.044-.245-.069-.311-.2a.053.053,0,0,1,.009-.067,2.513,2.513,0,0,1,.57-.591c.249-.167.423-.108.526.174a1.041,1.041,0,0,1,.066.277,4.808,4.808,0,0,0,.156.649.876.876,0,0,1,.019.2.274.274,0,0,1-.325.306,2.264,2.264,0,0,1-.835-.284c-.059-.029-.039-.164.028-.2.117-.06.237-.115.354-.175.028-.015.084-.014.07-.067s-.056-.022-.086-.024C1314.382,1114.433,1314.319,1114.435,1314.257,1114.435Z" transform="translate(-1308.732 -1088.003)" fill="#e4001b"/>
    <path id="Path_13766" data-name="Path 13766" d="M1230.6,1107.444h-.044c-.306-.021-.41-.17-.322-.464a.436.436,0,0,1,.025-.072c.132-.265.233-.543.349-.815.156-.363.388-.392.649-.1a3.134,3.134,0,0,1,.388.6c.024.044.007.064-.017.1a.265.265,0,0,1-.357.119,1.3,1.3,0,0,0-.237-.043c-.023,0-.053-.018-.067.015s.012.046.033.061c.109.08.215.166.33.238.073.045.05.1.052.163s-.053.059-.092.071A2.746,2.746,0,0,1,1230.6,1107.444Z" transform="translate(-1227.632 -1080.547)" fill="#e4001b"/>
    <path id="Path_13767" data-name="Path 13767" d="M1294.231,1167.406c.014-.147.025-.29.041-.432,0-.037,0-.094.051-.1s.126-.061.191.017c.094.112.2.213.3.318.019.02.038.054.072.033s.009-.052,0-.078c-.042-.132-.08-.267-.128-.4s.081-.165.124-.245c.032-.059.084,0,.123.011a2.737,2.737,0,0,1,.481.213,1.435,1.435,0,0,1,.13.082c.286.206.293.426,0,.613-.272.171-.556.324-.825.5a.35.35,0,0,1-.06.028c-.258.107-.4.03-.469-.243A2.274,2.274,0,0,1,1294.231,1167.406Z" transform="translate(-1289.686 -1139.377)" fill="#e4001b"/>
    <path id="Path_13768" data-name="Path 13768" d="M1238.369,1163.872a2.508,2.508,0,0,1-.113.679c-.1.28-.282.336-.529.17a.221.221,0,0,1-.027-.019c-.242-.223-.49-.44-.745-.648a.5.5,0,0,1-.085-.1.271.271,0,0,1,.071-.426,1.823,1.823,0,0,1,.676-.242l.033,0a.217.217,0,0,1,.284.172c.01.035-.013.054-.025.078-.067.13-.136.259-.2.388-.011.021-.035.043-.005.067s.047,0,.067-.015a2.976,2.976,0,0,0,.319-.233c.088-.082.165-.051.248-.013S1238.343,1163.833,1238.369,1163.872Z" transform="translate(-1234.025 -1136.252)" fill="#e4001b"/>
    <path id="Path_13769" data-name="Path 13769" d="M1278.85,1138.809a.458.458,0,0,1,.463-.467.466.466,0,0,1,.468.466.474.474,0,0,1-.461.465A.467.467,0,0,1,1278.85,1138.809Z" transform="translate(-1274.78 -1112.089)" fill="#e4001b"/>
    <path id="Path_13770" data-name="Path 13770" d="M2405.745,1090.121a2.158,2.158,0,0,0,.492-.053.965.965,0,0,1,.306,0,.276.276,0,0,1,.242.367,1.876,1.876,0,0,1-.264.587c-.024.041-.056.078-.077.12a.156.156,0,0,1-.224.092.117.117,0,0,1-.083-.084l-.113-.344c-.009-.026-.008-.065-.047-.063s-.036.04-.04.067c-.016.116-.04.232-.045.348s-.113.107-.177.15-.077-.022-.1-.049a2.706,2.706,0,0,1-.44-.547c-.188-.33-.095-.517.279-.576A2.261,2.261,0,0,1,2405.745,1090.121Z" transform="translate(-2366.235 -1065.293)" fill="#e4001b"/>
    <path id="Path_13771" data-name="Path 13771" d="M2374.666,1114.456c-.055,0-.11,0-.165,0-.033,0-.083-.021-.1.024s.043.051.071.066c.114.059.227.119.346.167.078.031.054.092.066.145s-.036.067-.068.082a2.5,2.5,0,0,1-.742.259c-.26.035-.4-.1-.382-.357a.538.538,0,0,1,.017-.108c.083-.3.137-.606.211-.907.085-.344.3-.409.588-.195a2.889,2.889,0,0,1,.52.55c.028.036.014.058,0,.1C2374.968,1114.466,2374.828,1114.482,2374.666,1114.456Z" transform="translate(-2335.82 -1088.024)" fill="#e4001b"/>
    <path id="Path_13772" data-name="Path 13772" d="M2455.98,1107.5a3.026,3.026,0,0,1-.733-.135c-.075-.022-.089-.161-.023-.211.114-.086.231-.169.345-.254.019-.014.051-.023.033-.058s-.043-.021-.068-.017c-.126.022-.254.038-.378.068a.109.109,0,0,1-.134-.052c-.118-.159-.121-.157-.025-.328a2.158,2.158,0,0,1,.376-.525q.325-.309.55.08a.167.167,0,0,1,.011.019c.133.312.266.624.4.937a.486.486,0,0,1,.032.15.26.26,0,0,1-.231.306C2456.074,1107.489,2456.016,1107.493,2455.98,1107.5Z" transform="translate(-2414.549 -1080.598)" fill="#e4001b"/>
    <path id="Path_13773" data-name="Path 13773" d="M2387.087,1167.94a1.1,1.1,0,0,1-.043.389.269.269,0,0,1-.373.2,1.092,1.092,0,0,1-.348-.184,2.46,2.46,0,0,0-.4-.242,1.12,1.12,0,0,1-.319-.212.278.278,0,0,1,0-.441,1.181,1.181,0,0,1,.327-.219c.1-.048.2-.092.3-.132.2-.081.2-.078.332.1.026.034.015.059,0,.09-.045.139-.09.278-.134.418-.007.023-.024.052,0,.071s.053-.008.072-.028c.1-.105.211-.205.3-.319.065-.079.128-.019.19-.019s.041.059.05.094a.572.572,0,0,1,.015.1A2.307,2.307,0,0,1,2387.087,1167.94Z" transform="translate(-2347.254 -1139.907)" fill="#e4001b"/>
    <path id="Path_13774" data-name="Path 13774" d="M2443.714,1163.27a.582.582,0,0,1,0-.077c0-.047-.04-.111.028-.136s.143-.084.23-.007a3.494,3.494,0,0,0,.319.234c.025.018.051.059.085.031s0-.067-.017-.1c-.061-.121-.122-.242-.191-.358s.055-.159.075-.241c.016-.063.076-.033.113-.026a2.657,2.657,0,0,1,.612.169,1.084,1.084,0,0,1,.146.076c.193.125.236.3.077.46a6.9,6.9,0,0,1-.9.783c-.181.13-.341.066-.438-.137A1.787,1.787,0,0,1,2443.714,1163.27Z" transform="translate(-2403.665 -1135.58)" fill="#e4001b"/>
    <path id="Path_13775" data-name="Path 13775" d="M2423.212,1138.339a.463.463,0,0,1,.466.467.472.472,0,0,1-.472.465.466.466,0,0,1-.458-.465A.456.456,0,0,1,2423.212,1138.339Z" transform="translate(-2383.361 -1112.085)" fill="#e4001b"/>
    <path id="Path_13776" data-name="Path 13776" d="M2405.751,806.3c-.082-.177-.163-.352-.246-.527a.052.052,0,0,1,.023-.08,14.954,14.954,0,0,1,1.292-.813,1.619,1.619,0,0,1,.45-.135.134.134,0,0,1,.114.02,1.82,1.82,0,0,1,.36.369c.019.026.047.049-.01.072A13.767,13.767,0,0,0,2405.751,806.3Z" transform="translate(-2366.641 -788.789)" fill="#e4001b"/>
    <path id="Path_13777" data-name="Path 13777" d="M2416.262,825.7c-.051.008-.056-.018-.066-.043-.034-.089-.069-.177-.107-.264-.016-.037-.013-.057.023-.079a14.346,14.346,0,0,1,1.9-1.058c.092-.038.136-.024.171.068.15.4.2.337-.159.621a4.062,4.062,0,0,1-1.382.65C2416.508,825.632,2416.377,825.666,2416.262,825.7Z" transform="translate(-2376.897 -807.679)" fill="#e4001b"/>
    <path id="Path_13778" data-name="Path 13778" d="M2425.015,844.987a2.465,2.465,0,0,1,0,.442.862.862,0,0,1-.408.6,3,3,0,0,1-.983.422c-.119.034-.242.058-.36.1-.059.019-.076,0-.094-.049-.058-.15-.115-.3-.181-.447-.032-.071-.016-.09.057-.109a6,6,0,0,0,1.419-.545A2.533,2.533,0,0,0,2425.015,844.987Z" transform="translate(-2383.579 -827.791)" fill="#e4001b"/>
    <path id="Path_13779" data-name="Path 13779" d="M2390.767,837.857c.1-.025.149.037.2.139.258.537.457,1.1.691,1.647.036.085-.022.12-.064.165-.137.142-.139.141-.26-.012a3.165,3.165,0,0,1-.729-1.79C2390.592,837.852,2390.595,837.852,2390.767,837.857Z" transform="translate(-2352.203 -820.876)" fill="#e4001b"/>
    <path id="Path_13780" data-name="Path 13780" d="M2374.529,840.549c-.031.021-.053,0-.076-.006a1.791,1.791,0,0,1-1.056-1.9c.015-.089.062-.1.128-.115.221-.051.216-.052.234.171a3.318,3.318,0,0,0,.689,1.731C2374.477,840.466,2374.519,840.5,2374.529,840.549Z" transform="translate(-2335.511 -821.502)" fill="#e4001b"/>
    <path id="Path_13781" data-name="Path 13781" d="M2387.135,801.631c-.12.078-.24.155-.36.233a.071.071,0,0,1-.081.009,1.388,1.388,0,0,0-1.1-.051l-.056.011c.188-.184.322-.4.59-.436A1.213,1.213,0,0,1,2387.135,801.631Z" transform="translate(-2347.3 -785.533)" fill="#e4001b"/>
    <path id="Path_13782" data-name="Path 13782" d="M2377.509,818.006c-.2.13-.371.244-.544.36a.137.137,0,0,1-.094.016,2.3,2.3,0,0,0-.7.047c.061-.191.1-.363.329-.424a1.591,1.591,0,0,1,.831-.06C2377.38,817.957,2377.43,817.978,2377.509,818.006Z" transform="translate(-2338.218 -801.55)" fill="#e4001b"/>
    <path id="Path_13783" data-name="Path 13783" d="M2415.925,793.738a1.811,1.811,0,0,1,1.324.149,2.154,2.154,0,0,0-.467.17.057.057,0,0,1-.07,0,1.388,1.388,0,0,0-.755-.3C2415.95,793.755,2415.944,793.749,2415.925,793.738Z" transform="translate(-2376.748 -778.064)" fill="#e4001c"/>
    <path id="Path_13784" data-name="Path 13784" d="M2423.425,895.523c-.25.442-.364.489-.855.4C2422.762,895.609,2423.122,895.654,2423.425,895.523Z" transform="translate(-2383.188 -876.767)" fill="#e4001c"/>
    <path id="Path_13785" data-name="Path 13785" d="M2450.527,889.309a.613.613,0,0,1-.556.508,1.4,1.4,0,0,0,.194-.344.069.069,0,0,1,.045-.043Z" transform="translate(-2409.743 -870.744)" fill="#e4001c"/>
    <path id="Path_13786" data-name="Path 13786" d="M2473,881.675c0-.174.1-.257.252-.331A1.368,1.368,0,0,1,2473,881.675Z" transform="translate(-2432.06 -863.025)" fill="#e50d20"/>
    <path id="Path_13787" data-name="Path 13787" d="M1245.859,804.7a1.624,1.624,0,0,1,.6.189c.416.225.792.513,1.192.764a.052.052,0,0,1,.022.08c-.076.158-.151.317-.22.478-.029.068-.058.031-.09.011-.231-.141-.461-.284-.693-.423a7.681,7.681,0,0,0-1.205-.626c-.037-.014-.071-.025-.035-.074a1.858,1.858,0,0,1,.377-.382A.08.08,0,0,1,1245.859,804.7Z" transform="translate(-1242.379 -788.745)" fill="#e4001b"/>
    <path id="Path_13788" data-name="Path 13788" d="M1237.211,823.931c.057.022.122.045.186.073a11.385,11.385,0,0,1,1.4.773c.122.074.241.153.365.223.058.033.066.064.038.122-.045.091-.048.229-.127.269s-.194-.031-.291-.06a4.793,4.793,0,0,1-1.428-.627c-.03-.021-.059-.043-.088-.065-.3-.233-.318-.341-.117-.668C1237.161,823.951,1237.167,823.922,1237.211,823.931Z" transform="translate(-1234.237 -807.383)" fill="#e4001b"/>
    <path id="Path_13789" data-name="Path 13789" d="M1234.994,845.241a4.584,4.584,0,0,0,1.962.943c.081.022.1.04.062.12-.068.146-.124.3-.183.446-.016.04-.028.057-.078.044a6.013,6.013,0,0,1-1.052-.342,1.512,1.512,0,0,1-.571-.436A1.062,1.062,0,0,1,1234.994,845.241Z" transform="translate(-1232.267 -828.037)" fill="#e4001b"/>
    <path id="Path_13790" data-name="Path 13790" d="M1300.685,838.122a3.261,3.261,0,0,1-.814,1.921c-.011.013-.026.031-.039.031-.076,0-.232-.211-.2-.28.232-.564.44-1.139.71-1.688.016-.033.017-.087.068-.09a1.191,1.191,0,0,1,.263,0C1300.708,838.024,1300.677,838.089,1300.685,838.122Z" transform="translate(-1294.914 -821.029)" fill="#e4001b"/>
    <path id="Path_13791" data-name="Path 13791" d="M1312.366,840.443a3.693,3.693,0,0,0,.678-1.217,2.936,2.936,0,0,0,.142-.8c0-.071.019-.085.088-.072.255.046.255.044.282.29A1.791,1.791,0,0,1,1312.366,840.443Z" transform="translate(-1307.261 -821.361)" fill="#e4001b"/>
    <path id="Path_13792" data-name="Path 13792" d="M1286.925,801.483a1.333,1.333,0,0,1,.9-.245c.314.009.486.219.685.43a.3.3,0,0,1-.168-.024,1.312,1.312,0,0,0-.951.081.093.093,0,0,1-.109-.013C1287.165,801.638,1287.051,801.565,1286.925,801.483Z" transform="translate(-1282.606 -785.391)" fill="#e4001b"/>
    <path id="Path_13793" data-name="Path 13793" d="M1305.042,817.933a1.213,1.213,0,0,1,.814-.058c.036.008.07.024.106.029a.464.464,0,0,1,.409.446,2.279,2.279,0,0,0-.719-.044.122.122,0,0,1-.082-.024Z" transform="translate(-1300.163 -801.474)" fill="#e4001b"/>
    <path id="Path_13794" data-name="Path 13794" d="M1266.009,793.936a1.714,1.714,0,0,1,1.3-.151.624.624,0,0,1-.221.047,1.268,1.268,0,0,0-.531.247.093.093,0,0,1-.117.011A1.85,1.85,0,0,0,1266.009,793.936Z" transform="translate(-1262.336 -778.108)" fill="#e4001b"/>
    <path id="Path_13795" data-name="Path 13795" d="M1274.434,895.978c.211.055.411.1.6.161.108.036.156.16.265.22C1274.814,896.458,1274.674,896.41,1274.434,895.978Z" transform="translate(-1270.5 -877.208)" fill="#e4001c"/>
    <path id="Path_13796" data-name="Path 13796" d="M1257.02,890.062a.605.605,0,0,1-.54-.5C1256.777,889.637,1256.866,889.719,1257.02,890.062Z" transform="translate(-1253.101 -870.991)" fill="#e4001c"/>
    <path id="Path_13797" data-name="Path 13797" d="M1243.719,882.284a1.771,1.771,0,0,1-.235-.3A.273.273,0,0,1,1243.719,882.284Z" transform="translate(-1240.506 -863.643)" fill="#e50e20"/>
    <path id="Path_13798" data-name="Path 13798" d="M1543.757,395.963c0,.027-.024.032-.043.041-.235.111-.471.219-.7.334-.078.039-.078-.024-.1-.061-.219-.463-.439-.926-.654-1.391-.041-.088-.074-.107-.167-.06-.318.158-.64.306-.963.454-.069.032-.08.06-.046.129.225.469.444.94.669,1.409.035.072.028.1-.05.137-.218.1-.432.2-.646.3-.06.029-.086.021-.115-.041q-.784-1.67-1.573-3.337c-.029-.06-.024-.083.039-.111.22-.1.439-.2.655-.31.071-.036.1-.022.128.046.2.425.4.848.595,1.273.034.074.062.088.137.052q.484-.235.973-.459c.076-.035.093-.064.054-.145-.2-.418-.4-.841-.6-1.26-.036-.074-.029-.1.047-.137.217-.1.431-.2.646-.3.057-.028.084-.026.115.039q.786,1.675,1.577,3.348C1543.742,395.928,1543.749,395.945,1543.757,395.963Z" transform="translate(-1527.238 -389.282)" fill="#fff"/>
    <path id="Path_13799" data-name="Path 13799" d="M1413.823,492.259a1.961,1.961,0,0,1,1.565-1.935,2.08,2.08,0,0,1,.818.035c.052.012.072.033.053.092a2.26,2.26,0,0,0-.07.3c-.011.066-.036.074-.1.061a1.775,1.775,0,0,0-.709-.047,1.068,1.068,0,0,0-.833,1.319,2.132,2.132,0,0,0,1.271,1.455,1.077,1.077,0,0,0,1.484-.834,1.16,1.16,0,0,0-.043-.628c-.028-.079-.01-.108.07-.123a2.143,2.143,0,0,0,.286-.077c.067-.023.089-.012.111.062a1.813,1.813,0,0,1-1.026,2.186,2.011,2.011,0,0,1-2.744-1.142A1.88,1.88,0,0,1,1413.823,492.259Z" transform="translate(-1405.586 -484.054)" fill="#fff"/>
    <path id="Path_13800" data-name="Path 13800" d="M1701.883,357.842c.014.068-.035.066-.079.075-.391.079-.781.162-1.173.236-.081.015-.089.039-.074.113.078.372.152.746.224,1.12.014.072.045.074.107.062.43-.089.861-.172,1.291-.263.07-.015.091,0,.1.065a1.675,1.675,0,0,0,.054.269c.024.075,0,.1-.069.11q-.614.122-1.227.246c-.312.063-.625.123-.936.19-.08.017-.1-.007-.115-.079q-.357-1.781-.72-3.562c-.017-.086-.017-.129.095-.15.7-.135,1.407-.281,2.109-.426.074-.015.105,0,.115.079a2.429,2.429,0,0,0,.051.247c.016.067.009.1-.076.117-.421.08-.839.172-1.259.252-.081.015-.083.048-.07.109.068.334.137.667.2,1,.016.083.063.071.117.06.38-.077.761-.153,1.14-.234.087-.019.135-.008.145.092S1701.866,357.753,1701.883,357.842Z" transform="translate(-1682.208 -353.75)" fill="#fff"/>
    <path id="Path_13801" data-name="Path 13801" d="M2071.941,406.7c-.034-.007-.039.023-.049.045-.161.317-.319.634-.483.949-.037.071.01.08.052.1.353.178.7.359,1.06.532.084.041.095.077.046.153a1.3,1.3,0,0,0-.109.215c-.029.072-.063.079-.131.044-.348-.18-.7-.352-1.047-.534-.081-.042-.115-.032-.155.05q-.243.5-.5.99c-.035.068-.027.1.042.13.39.193.778.392,1.168.586.06.03.08.055.041.12-.06.1-.088.257-.172.294s-.2-.08-.308-.131c-.579-.291-1.156-.585-1.736-.874-.07-.035-.075-.06-.041-.128q.831-1.635,1.654-3.274c.04-.079.071-.075.138-.041q.964.491,1.931.976c.072.036.09.065.047.137-.059.1-.086.25-.167.285s-.2-.078-.3-.128c-.305-.151-.608-.306-.912-.46Z" transform="translate(-2041.116 -402.266)" fill="#fff"/>
    <path id="Path_13802" data-name="Path 13802" d="M1957.107,365.737a1.347,1.347,0,0,1,1.334,1.019c.017.074,0,.106-.068.126a2.583,2.583,0,0,0-.3.1c-.073.03-.09,0-.1-.061a.955.955,0,0,0-.131-.358.622.622,0,0,0-.646-.274.5.5,0,0,0-.255.775,2.776,2.776,0,0,0,.5.415,3.25,3.25,0,0,1,.358.309,1.174,1.174,0,0,1-.406,1.863,1.547,1.547,0,0,1-1.783-.493,1.451,1.451,0,0,1-.163-.347c-.02-.058-.013-.094.051-.117.114-.041.225-.086.336-.136.056-.025.082-.021.1.044a1.566,1.566,0,0,0,.106.264.64.64,0,0,0,.69.338.542.542,0,0,0,.293-.9,2.645,2.645,0,0,0-.449-.37c-.107-.078-.21-.159-.31-.246a1.1,1.1,0,0,1,.141-1.744A1.255,1.255,0,0,1,1957.107,365.737Z" transform="translate(-1930.473 -363.338)" fill="#fff"/>
    <path id="Path_13803" data-name="Path 13803" d="M2171.52,503.9l-1.424,4.2c-.228-.2-.446-.389-.666-.577-.041-.035-.028-.066-.015-.106.094-.273.187-.546.28-.82.015-.045.031-.083-.019-.125q-.369-.313-.731-.635a.1.1,0,0,0-.134-.013c-.251.136-.5.266-.755.4a.1.1,0,0,1-.133-.015c-.11-.1-.224-.2-.352-.31l3.923-2.029Z" transform="translate(-2136.062 -497.213)" fill="#fff"/>
    <path id="Path_13804" data-name="Path 13804" d="M1842.842,352.1c.014-.609.03-1.218.041-1.827,0-.085.028-.1.108-.1.238.011.477.016.715.02.056,0,.076.015.075.075-.015.661-.026,1.321-.04,1.982-.008.4-.017.807-.031,1.211,0,.077.026.091.094.092.422.008.844.023,1.266.029.086,0,.117.022.107.111a2.077,2.077,0,0,0-.011.3c0,.072-.021.092-.094.09-.679-.017-1.358-.029-2.037-.045-.233-.005-.234-.008-.229-.239q.019-.848.04-1.7Z" transform="translate(-1821.323 -348.252)" fill="#fff"/>
    <path id="Path_13805" data-name="Path 13805" d="M2182.333,1438.3a.7.7,0,0,1-.254.558.906.906,0,0,1-.744.281.582.582,0,0,1-.392-.242c-.292-.391-.577-.786-.868-1.177-.037-.05-.023-.072.019-.1.09-.063.179-.127.265-.2.051-.041.076-.038.117.018.266.369.535.735.8,1.1a.386.386,0,0,0,.643.043.338.338,0,0,0,.032-.492c-.264-.361-.529-.721-.792-1.082-.027-.036-.09-.08-.063-.115a.662.662,0,0,1,.181-.139c.026-.016.042.021.057.04q.449.612.9,1.225A.48.48,0,0,1,2182.333,1438.3Z" transform="translate(-2148.16 -1401.286)" fill="#fff"/>
    <path id="Path_13806" data-name="Path 13806" d="M2053.948,1517.108a1.268,1.268,0,0,0,.362.8.567.567,0,0,0,.643.154.629.629,0,0,0,.423-.566c.013-.176.131-.078.2-.088.1-.015.062.065.056.113a1.016,1.016,0,0,1-1.012.889,1.106,1.106,0,0,1-1.09-.839,1.093,1.093,0,0,1,.915-1.391.986.986,0,0,1,.67.16c.043.026.045.051.016.086a.241.241,0,0,0-.036.055c-.035.082-.077.093-.158.043a.661.661,0,0,0-.456-.125A.63.63,0,0,0,2053.948,1517.108Z" transform="translate(-2025.505 -1478.255)" fill="#fff"/>
    <path id="Path_13807" data-name="Path 13807" d="M1401.182,1393.855c-.016-.015-.036-.03-.054-.047-.128-.121-.258-.24-.382-.365-.053-.054-.084-.057-.137,0-.176.192-.362.375-.536.568-.061.068-.1.06-.153,0a3.056,3.056,0,0,0-.223-.212c-.038-.034-.043-.056-.005-.1q.689-.719,1.375-1.441c.034-.036.055-.046.1-.006q.408.394.821.782c.039.037.042.062,0,.1a.333.333,0,0,0-.061.064c-.04.055-.07.053-.119,0-.145-.145-.3-.283-.444-.428-.043-.042-.068-.047-.111,0-.116.128-.236.251-.358.373-.044.044-.043.072,0,.114.133.121.263.246.391.371.022.022.079.041.044.084A1.4,1.4,0,0,1,1401.182,1393.855Z" transform="translate(-1391.865 -1358.138)" fill="#fff"/>
    <path id="Path_13808" data-name="Path 13808" d="M1780.388,1557.586l.625,1.934c.034.1.066.209.1.313.016.048.007.068-.047.064-.128-.011-.256-.02-.384-.029-.052,0-.062-.04-.075-.081-.041-.133-.086-.264-.127-.4a.088.088,0,0,0-.091-.074c-.161-.009-.322-.022-.482-.039a.093.093,0,0,0-.107.067c-.054.12-.116.237-.168.358a.1.1,0,0,1-.133.073c-.192-.029-.193-.025-.1-.2q.448-.918.9-1.835A.345.345,0,0,1,1780.388,1557.586Z" transform="translate(-1759.818 -1518.388)" fill="#fff"/>
    <path id="Path_13809" data-name="Path 13809" d="M1703.06,1547.626a.579.579,0,0,1,.007.916.694.694,0,0,1-.6.1c-.269-.056-.536-.117-.806-.17-.065-.013-.075-.034-.063-.094q.206-.961.406-1.923c.014-.069.031-.08.1-.064.282.065.567.115.847.184a.562.562,0,0,1,.445.695A.5.5,0,0,1,1703.06,1547.626Z" transform="translate(-1684.473 -1507.529)" fill="#fff"/>
    <path id="Path_13810" data-name="Path 13810" d="M2244.916,1391.5a.579.579,0,0,1,.6.944c-.186.223-.413.406-.616.613-.134.136-.136.134-.271-.006-.424-.437-.846-.876-1.273-1.311-.062-.064-.055-.1.005-.152.186-.172.363-.353.546-.528a.646.646,0,0,1,.551-.216.534.534,0,0,1,.456.624A.1.1,0,0,0,2244.916,1391.5Z" transform="translate(-2209.463 -1356.788)" fill="#fff"/>
    <path id="Path_13811" data-name="Path 13811" d="M1930.972,1556.684c.054-.009.057.025.063.066.072.463.146.925.219,1.388.016.1.033.2.045.3.008.064.033.075.095.064.209-.038.419-.065.628-.1.079-.015.1.014.111.084.022.159.025.161-.142.189-.343.057-.687.11-1.029.167-.063.01-.093,0-.1-.073-.1-.647-.2-1.294-.3-1.941-.005-.035-.022-.072.038-.081C1930.72,1556.728,1930.846,1556.705,1930.972,1556.684Z" transform="translate(-1906.358 -1517.512)" fill="#fff"/>
    <path id="Path_13812" data-name="Path 13812" d="M1865.058,1563.238c.223-.006.221-.006.23.212.021.517.045,1.034.064,1.551,0,.068.024.087.09.083.213-.012.426-.016.638-.031.067,0,.089.005.091.077.006.188.01.187-.177.194-.33.013-.66.026-.99.044-.083,0-.122,0-.125-.1-.014-.447-.037-.894-.056-1.341-.008-.191-.011-.382-.024-.572-.006-.084.015-.124.1-.114C1864.955,1563.242,1865.007,1563.238,1865.058,1563.238Z" transform="translate(-1842.637 -1523.863)" fill="#fff"/>
    <path id="Path_13813" data-name="Path 13813" d="M1637.945,1527c-.138-.048-.271-.09-.4-.142-.049-.02-.009-.065,0-.095q.241-.694.486-1.386c.028-.079.051-.161.083-.238.023-.055.012-.079-.043-.1-.08-.024-.159-.056-.239-.08-.053-.016-.068-.039-.051-.1.048-.159.046-.159.2-.1.331.116.661.235.994.345.083.027.071.068.044.118s-.008.161-.125.107l-.01,0c-.1-.023-.207-.119-.283-.075s-.076.173-.109.266q-.246.7-.492,1.4C1637.995,1526.948,1638,1527,1637.945,1527Z" transform="translate(-1622.378 -1486.544)" fill="#fff"/>
    <path id="Path_13814" data-name="Path 13814" d="M2126.448,1490.527c.04.005.044.044.059.07.24.427.478.856.719,1.283.048.085.074.219.155.237s.166-.074.249-.12c.125-.069.25-.137.372-.211.055-.033.083-.033.118.029.089.161.092.159-.072.25-.294.164-.589.326-.881.493-.067.038-.1.043-.141-.035-.312-.567-.629-1.132-.946-1.7-.032-.056-.032-.084.031-.115.1-.048.192-.106.287-.16Z" transform="translate(-2095.831 -1453.4)" fill="#fff"/>
    <path id="Path_13815" data-name="Path 13815" d="M1549.708,1497.16a1.183,1.183,0,0,1-1.07,1.179,1.055,1.055,0,0,1-.99-1.5,1.112,1.112,0,0,1,1.031-.727A1.043,1.043,0,0,1,1549.708,1497.16Z" transform="translate(-1535.19 -1458.815)" fill="#fff"/>
    <path id="Path_13816" data-name="Path 13816" d="M1468.555,1450.469a1.039,1.039,0,0,1-1.043-1.029,1.193,1.193,0,0,1,1.12-1.178,1.047,1.047,0,0,1,1.055,1.031A1.19,1.19,0,0,1,1468.555,1450.469Z" transform="translate(-1457.618 -1412.44)" fill="#fff"/>
    <path id="Path_13817" data-name="Path 13817" d="M1606.571,639.7a.726.726,0,0,1-.633-.564.281.281,0,0,1,0-.054c.048,0,.057.039.079.065a.416.416,0,0,0,.44.154.405.405,0,0,0,.319-.339.417.417,0,0,0-.176-.422.37.37,0,0,0-.225-.073c-.039,0-.091.015-.106-.045l.077-.049c-.148,0-.271,0-.393,0-.07,0-.087-.021-.084-.087.006-.132,0-.264.005-.4.061-.051.139-.035.209-.048a2.5,2.5,0,0,0,.329-.078.236.236,0,0,0,.165-.115.213.213,0,0,0,.012-.087c0-1.222,0-2.444,0-3.665-.026-.053-.061-.023-.093-.01a.614.614,0,0,0-.22.195c-.017.019-.03.042-.048.06s-.034.057-.069.039-.026-.051-.021-.08a1.3,1.3,0,0,1,.146-.5c.08-.132.032-.147-.086-.167s-.218,0-.326-.018a1.408,1.408,0,0,0-.417.3c-.048-.062-.022-.126,0-.187a1.834,1.834,0,0,1,.346-.568c.077-.092.073-.1-.039-.132-.074-.022-.155,0-.224-.04a.845.845,0,0,0-.448.171c-.071.046-.058,0-.053-.043a1.01,1.01,0,0,1,.629-.72.152.152,0,0,0,.087-.062.438.438,0,0,1,.3-.209,2.14,2.14,0,0,1,.606-.094c.1,0,.2-.031.3-.024.153,0,.306,0,.458,0a4.033,4.033,0,0,0,1.15-.363,26.208,26.208,0,0,0,2.653-1.406c.4-.231.786-.472,1.18-.717-.229-.041-.458-.022-.683-.053a3.975,3.975,0,0,1-.5-.086.281.281,0,0,1-.127-.062c-.07-.086-.1-.193-.164-.285a1.581,1.581,0,0,0-.115-.161c-.086-.1-.124-.1-.2.007a1.639,1.639,0,0,1-.821.563,1.99,1.99,0,0,1-.737.09,1,1,0,0,1-.688-.317c-.044-.049-.1-.1-.084-.179a1.654,1.654,0,0,1,.292,0,.7.7,0,0,0,.286-.066.463.463,0,0,0,.126-.735.838.838,0,0,0-.538-.29c-.235-.072-.462-.168-.7-.224-.15-.035-.3-.066-.453-.091-.04-.007-.08-.018-.112.021a.312.312,0,0,0-.015.152q0,1.781,0,3.562c0,.044,0,.088,0,.132-.006.109-.036.141-.144.126a1.092,1.092,0,0,1-.4-.064.3.3,0,0,1-.025-.182q0-1.773,0-3.546a.468.468,0,0,0-.345-.438c-.038-.012-.074-.029-.111-.044s-.094-.015-.14-.026a.521.521,0,0,1-.446-.586.273.273,0,0,0-.069-.207.986.986,0,0,1-.113-.175.355.355,0,0,1,.05-.437c.056-.063.132-.125.151-.2s-.074-.142-.12-.207a.653.653,0,0,1,.268-.851,1.239,1.239,0,0,1,.4-.116.144.144,0,0,1,.135.022,1.762,1.762,0,0,0,.262.112c.067.024.085-.006.082-.068s0-.139,0-.209-.026-.11-.111-.1a.627.627,0,0,1-.345-.018,1.469,1.469,0,0,1-.594-.2l.264-.111c.052-.069.143-.078.2-.131-.01-.028-.04-.031-.055-.05a1.992,1.992,0,0,1-.9-1.545,2.255,2.255,0,0,1,.484-1.723,1.243,1.243,0,0,1,.529-.4,2.012,2.012,0,0,1,1.916.4,2.292,2.292,0,0,1,.437.5.265.265,0,0,1,.082.115,1.831,1.831,0,0,1-.175,1.935,3.3,3.3,0,0,1-1.088,1.008.214.214,0,0,0-.068.055.167.167,0,0,0-.019.107c0,.18,0,.36,0,.54a.149.149,0,0,0,.118.169c.2.067.4.146.6.225a2.8,2.8,0,0,1,.425.205,6.782,6.782,0,0,0,.724.357,4.548,4.548,0,0,1,1.239.847,1.843,1.843,0,0,1,.6.966,1.261,1.261,0,0,1-.008.546c-.023.1-.019.1.083.084a.779.779,0,0,0,.674-.585,1.316,1.316,0,0,0-.023-.948.137.137,0,0,1,.018-.153,5.916,5.916,0,0,0,.618-1.1c.1-.2.183-.417.262-.63.032-.086.059-.174.086-.261s0-.128-.088-.153a2.154,2.154,0,0,1-.751-.382.915.915,0,0,1-.353-.66c0-.053-.031-.132.066-.147a.56.56,0,0,0,.5.281,2.415,2.415,0,0,0,.3,0,1.749,1.749,0,0,0,.855-.336,1.059,1.059,0,0,0,.14-1.459.5.5,0,0,0-.584-.114c-.078.034-.144.086-.218.127-.023.013-.055.055-.081,0a1.215,1.215,0,0,1,1.055-.708.11.11,0,0,1,.053-.007c.295.014.588-.032.883-.022.1,0,.1-.007.057-.1a.737.737,0,0,1-.068-.2.989.989,0,0,1,0-.183,1.331,1.331,0,0,1,.384-.736.632.632,0,0,1,.2-.138c.07-.04.1-.03.1.061a.975.975,0,0,0,.361.726,3.06,3.06,0,0,0,1.153.593,8.74,8.74,0,0,0,1.425.309.241.241,0,0,1,.227.16.853.853,0,0,0,.44.442.849.849,0,0,1,.379.356.111.111,0,0,1,.006.121,1.017,1.017,0,0,1-.2.339c-.035.048-.088.015-.133,0-.118-.033-.126-.033-.119.084a.357.357,0,0,1-.126.3,2.623,2.623,0,0,0-.454.618.92.92,0,0,1-.051.085c-.027.037-.043.107-.1.09s-.015-.079-.016-.12a.244.244,0,0,0-.224-.264c-.46-.1-.7.174-.86.528a.3.3,0,0,0,.192.39.6.6,0,0,0,.325.03,2.541,2.541,0,0,0,.258-.054c.087-.022.106.026.092.1-.023.122-.026.247-.043.369a.623.623,0,0,0,.007.206,4.105,4.105,0,0,0,.042.57.212.212,0,0,1,0,.044c0,.029,0,.064-.03.077s-.054-.016-.072-.037a1.357,1.357,0,0,0-.37-.292,1.32,1.32,0,0,0-.545-.163.6.6,0,0,0-.61.4,1.548,1.548,0,0,0,0,1.161.889.889,0,0,0,.565.519.708.708,0,0,0,.412,0,.418.418,0,0,0,.3-.292c.009-.033.006-.081.053-.086s.058.029.077.056a1.452,1.452,0,0,1,.31.741,1.028,1.028,0,0,1-.25.786,1.307,1.307,0,0,1-1.286.433c-.054-.017-.073-.007-.078.048-.019.212-.037.424-.041.636a.174.174,0,0,0,.045.11,2.411,2.411,0,0,1,.4.968c.124.533.181,1.078.276,1.617a5.053,5.053,0,0,0,.42,1.4.325.325,0,0,1,.023.062,2.184,2.184,0,0,0,1.913,1.558,2.4,2.4,0,0,0,.786-.044,1.124,1.124,0,0,0,.9-.891,1.877,1.877,0,0,0-.065-.946,3.507,3.507,0,0,0-.74-1.238,7.576,7.576,0,0,1-.842-1.085,2.39,2.39,0,0,1-.316-1.02,1.951,1.951,0,0,1,.484-1.419,7.474,7.474,0,0,1,1.026-.977,6.2,6.2,0,0,0,.859-.8,1.321,1.321,0,0,0,.328-.674.984.984,0,0,0-.806-1.171c-.018,0-.036-.009-.054-.01-.094,0-.188,0-.283,0a1.187,1.187,0,0,0-.9.542.45.45,0,0,0-.07.172c-.017.056-.029.114-.044.171-.009.036-.009.094-.057.093s-.039-.056-.046-.09a1.251,1.251,0,0,1,.086-.794c.018-.04.038-.08.059-.118a1.784,1.784,0,0,1,1.016-.759.6.6,0,0,1,.224-.037,2.248,2.248,0,0,1,.936.017,1.592,1.592,0,0,1,1.016.744c.015.025.032.048.048.073a.684.684,0,0,1,.148.327,1.972,1.972,0,0,1,0,1.222,1.948,1.948,0,0,1-.417.667,7.1,7.1,0,0,1-1.064.886,8.606,8.606,0,0,0-1,.808,2.921,2.921,0,0,0-.675.938,2.2,2.2,0,0,1,1.885-.688,1.586,1.586,0,0,1,1.317.843.9.9,0,0,1,.138.629,1.692,1.692,0,0,1-.558,1.124.147.147,0,0,1-.082.051,2.339,2.339,0,0,1-.484.312c-.015-.046.022-.065.047-.089a.975.975,0,0,0,.289-1.081.954.954,0,0,0-.84-.678,1,1,0,0,0-1.1.835.657.657,0,0,0,.12.542c.21.328.473.617.7.935a3.318,3.318,0,0,1,.624,1.441,2.114,2.114,0,0,1-.009.765,1.446,1.446,0,0,1-.9,1.051,2.707,2.707,0,0,1-.962.209,4.082,4.082,0,0,1-1.772-.31,2.869,2.869,0,0,1-.9-.587,2.934,2.934,0,0,0,.378.86,3.958,3.958,0,0,0,.7.79.048.048,0,0,1,.012.018,1.845,1.845,0,0,0,1.646.331c.126-.031.249-.078.382-.11a6.69,6.69,0,0,0-.55.761.537.537,0,0,1-.064.161,4.717,4.717,0,0,0-.61,1.961,6.445,6.445,0,0,0-.039.911c.01.2.024.4.017.594a1.8,1.8,0,0,1-.062.479.415.415,0,0,1-.436.331.9.9,0,0,0-.207.028.487.487,0,0,0-.373.392c-.012.054,0,.121-.072.15a.588.588,0,0,1-.184-.481c0-.09-.025-.118-.109-.111a2.232,2.232,0,0,0-.293.01.7.7,0,0,0-.631.407c-.032.069-.03.152-.081.214l-.008.065c-.013.02-.007.069-.054.034a.248.248,0,0,1-.082-.127.752.752,0,0,1,.032-.6c-.233,0-.453-.015-.674.007a1.4,1.4,0,0,0-.7.244.508.508,0,0,0-.148.342c-.006.059-.02.053-.048.013a.855.855,0,0,1-.074-.731c-.078-.034-.178.021-.254-.042a.028.028,0,0,1-.007-.016.95.95,0,0,1,.069-.5,1,1,0,0,1,.657-.575,3.072,3.072,0,0,1,.766-.143c.073-.006.146-.018.219-.024h.243c.136,0,.27-.03.406-.023a.134.134,0,0,0,.123-.062,3.226,3.226,0,0,0,.664-1.867,1.443,1.443,0,0,0-.348-.9.23.23,0,0,0-.2-.087,2.275,2.275,0,0,1-.707-.085,1.152,1.152,0,0,1-.916-.931c-.019-.1-.092-.112-.169-.123a2.7,2.7,0,0,0-.811.005,2.742,2.742,0,0,0-1.42.575,1.02,1.02,0,0,0-.307.369.618.618,0,0,0,.108.7,1.29,1.29,0,0,0,.355.275.2.2,0,0,1,.085.068,3.393,3.393,0,0,0,.8.268,4.275,4.275,0,0,0-.515.13.189.189,0,0,1-.1.062,4.035,4.035,0,0,0-.412.181,1.639,1.639,0,0,0-.831,1.121q-.061.251-.125.5a1.144,1.144,0,0,1-.906.9c-.1.022-.194.041-.289.067a.585.585,0,0,0-.467.5.508.508,0,0,0-.012.131c0,.029,0,.066-.03.078s-.06-.02-.079-.045a1.121,1.121,0,0,1-.245-.58c-.008-.092-.039-.122-.127-.114a1.858,1.858,0,0,1-.2,0,.864.864,0,0,0-.842.525.238.238,0,0,1-.051.084.606.606,0,0,0-.047.22c-.016.026,0,.058-.02.091a.154.154,0,0,1-.1-.1.739.739,0,0,1,0-.761c.041-.065.022-.083-.046-.081a2.476,2.476,0,0,0-.382.013,1.856,1.856,0,0,0-.557.087c-.093.035-.166.1-.261.133a.514.514,0,0,0-.157.41c0,.04,0,.079,0,.119-.067-.006-.072-.065-.09-.11a.833.833,0,0,1,.064-.858.908.908,0,0,0-.258-.012c-.087,0-.127-.033-.132-.12a.92.92,0,0,1,.738-1.061c.119-.022.239-.037.359-.048h.571a4.31,4.31,0,0,1,.472.026,1.676,1.676,0,0,0,1.257-.516,2.889,2.889,0,0,0,.87-1.749c.016-.109.019-.219.026-.328a.212.212,0,0,0-.132-.226,1.323,1.323,0,0,1-.3-.223,1.17,1.17,0,0,1-.094-1.562,2.6,2.6,0,0,1,.71-.6,11.228,11.228,0,0,1,1.432-.7,10.753,10.753,0,0,0,1.446-.7,1.948,1.948,0,0,0,.519-.436.862.862,0,0,0-.379-1.365,1.232,1.232,0,0,0-.2-.057c-.059-.011-.088,0-.055.068a1.318,1.318,0,0,1,.11.345.7.7,0,0,1-.354.793,1.513,1.513,0,0,1-.84.161c-.094-.067-.121-.18-.182-.268-.031-.045-.058-.093-.086-.14-.132-.225-.265-.449-.4-.674-.066-.114-.074-.115-.164-.023a8.237,8.237,0,0,1-1.057.946,5.1,5.1,0,0,1-1.452.772c-.143.045-.145.046-.236-.078a.684.684,0,0,0-.394-.248,1.46,1.46,0,0,0-1.38.313.883.883,0,0,0-.34.712c-.015.084-.059.078-.1.025a.736.736,0,0,1-.2-.511c.008-.132,0-.146-.13-.185-.219-.067-.27-.021-.218.2a.68.68,0,0,0,.259.409.211.211,0,0,1,.1.114.919.919,0,0,1,.008.176q0,1.232,0,2.464c0,.148-.008.18.158.176.086,0,.127.044.127.129,0,.231,0,.462,0,.693,0,.105-.037.136-.141.143-.072.005-.145,0-.22,0a.709.709,0,0,1,.324.745.753.753,0,0,1-.639.573A.263.263,0,0,1,1606.571,639.7Z" transform="translate(-1590.885 -609.114)" fill="#003980"/>
    <path id="Path_13818" data-name="Path 13818" d="M1670.547,1025.766a2.152,2.152,0,0,0,.637-.086.708.708,0,0,0,.519-.927,1.466,1.466,0,0,0-.146-.359.274.274,0,0,1,.205.008.915.915,0,0,1,.741.911.945.945,0,0,1-.365.711,4.952,4.952,0,0,1-1.319.756,18.977,18.977,0,0,0-1.819.85,2.523,2.523,0,0,0-.832.689,1.129,1.129,0,0,0,.376,1.7.292.292,0,0,1,.175.314,3.068,3.068,0,0,1-.652,1.782,2.094,2.094,0,0,1-1.018.734,1.809,1.809,0,0,1-.717.049c-.08-.007-.161-.01-.241-.014a4.5,4.5,0,0,0-.612,0,3.144,3.144,0,0,0-.462.081.817.817,0,0,0-.575.694,2.459,2.459,0,0,0-.025.305c0,.075.024.094.094.092.11,0,.219,0,.347,0a.829.829,0,0,0-.046,1.012c-.026.032-.027.034-.059.012a.834.834,0,0,1-.377-.627.881.881,0,0,1,.015-.327.28.28,0,0,0-.026-.17,1.217,1.217,0,0,1-.059-.657.9.9,0,0,1,.244-.434.375.375,0,0,1,.186-.164,1.7,1.7,0,0,1,.655-.206,4.25,4.25,0,0,1,1.064.005,1.041,1.041,0,0,0,.752-.135,1.307,1.307,0,0,0,.387-.444,2.9,2.9,0,0,0,.3-.974,3.31,3.31,0,0,0,.047-.592.167.167,0,0,0-.1-.165,1.5,1.5,0,0,1-.321-.211,1.026,1.026,0,0,1-.313-1.138,2.863,2.863,0,0,1,.592-1.047,7.292,7.292,0,0,1,2.43-1.913A.736.736,0,0,1,1670.547,1025.766Z" transform="translate(-1648.315 -1001.641)" fill="#4e68a7"/>
    <path id="Path_13819" data-name="Path 13819" d="M1656.48,1038.384a2.514,2.514,0,0,0-.491.13,1.414,1.414,0,0,0-.35.216.806.806,0,0,1-.494-.413.6.6,0,0,1-.056-.219.8.8,0,0,0,.555-.164.672.672,0,0,0-.035-1.085c-.032-.023-.066-.043-.128-.082.139,0,.25,0,.36,0,.061,0,.084-.018.083-.082q-.005-.368,0-.737c0-.061-.015-.081-.079-.082-.2,0-.2-.006-.2-.209v-2.651c.08-.047.151.011.224.025s.077-.017.062-.072a.9.9,0,0,1,.359-.735,1.488,1.488,0,0,1,1.37-.317.721.721,0,0,1,.469.32c.031.051.06.045.107.031a4.546,4.546,0,0,0,1.277-.627,7.545,7.545,0,0,0,1.327-1.152c.065-.071.087-.055.127.017.14.249.285.495.429.742a.208.208,0,0,1-.075.106,7.461,7.461,0,0,1-1.756,1.314,3.324,3.324,0,0,1-.653.262.138.138,0,0,1-.167-.042.977.977,0,0,0-.926-.344,1.4,1.4,0,0,0-.8.3.92.92,0,0,0-.409.807c.006.088-.048.094-.115.084-.18-.026-.18-.025-.18.16q0,1.217,0,2.433c0,.15,0,.15.149.158.113.006.135.025.136.14q0,.341,0,.682c0,.115-.023.137-.135.14a1.368,1.368,0,0,1-.247,0c-.005,0-.006,0,0,0A.671.671,0,0,1,1656.48,1038.384Z" transform="translate(-1639.403 -1007.514)" fill="#c8c9ca"/>
    <path id="Path_13820" data-name="Path 13820" d="M1606.171,871.882a.494.494,0,0,1,.484.44.246.246,0,0,0-.007.1q0,1.781,0,3.563c0,.035-.016.073.016.1.127.012.254.019.38.039.089.014.122,0,.121-.1q0-1.89,0-3.781c0-.04-.021-.088.023-.121a.268.268,0,0,1,.034.19q0,1.8,0,3.6c0,.2.023.22.223.152a3.477,3.477,0,0,0,.34-.154,3.561,3.561,0,0,0,.674-.434,11.38,11.38,0,0,1,1.162-.8c.4-.232.808-.464,1.219-.683.1-.052.2-.1.292-.154a1.784,1.784,0,0,0,.605.129c.253.027.509.037.79.056-.172.107-.324.2-.477.3-.955.586-1.922,1.151-2.93,1.644a6.552,6.552,0,0,1-1.467.571c-.06.013-.122.021-.182.032a3.156,3.156,0,0,0-.5,0,4.546,4.546,0,0,0-.865.115c-.126.04-.255.081-.3.228-.008.025-.024.03-.047.037a1.05,1.05,0,0,0-.656.646c-.009.019-.006.044-.029.057a1.249,1.249,0,0,1,.112-.621.473.473,0,0,1,.409-.307c.047,0,.06-.032.077-.065a1.113,1.113,0,0,1,.448-.458.138.138,0,0,0,.078-.14q0-2.031,0-4.063C1606.194,871.957,1606.2,871.915,1606.171,871.882Z" transform="translate(-1590.928 -853.856)" fill="#4e68a7"/>
    <path id="Path_13821" data-name="Path 13821" d="M1997.981,988.2a2.909,2.909,0,0,1-.855-1,2.369,2.369,0,0,1-.253-.63c-.007-.03-.009-.062-.014-.095a3.671,3.671,0,0,0,2.858.922,2.334,2.334,0,0,0,.837-.214,1.481,1.481,0,0,0,.882-1.541,3.527,3.527,0,0,0-.842-1.922,7.488,7.488,0,0,1-.507-.678.666.666,0,0,1-.118-.552.675.675,0,0,1,.78-.439,1.049,1.049,0,0,1,.75.559c.023.043.056.089.027.144a.7.7,0,0,0-.845.26.534.534,0,0,0,.036.653c.188.306.43.573.642.862a3.49,3.49,0,0,1,.666,1.4,1.861,1.861,0,0,1-.108,1.231,1.466,1.466,0,0,1-.822.708,2.829,2.829,0,0,1-.92.181,3.945,3.945,0,0,1-1.989-.432,2.649,2.649,0,0,1-.688-.512,1.329,1.329,0,0,0,.105.4A4.138,4.138,0,0,0,1997.981,988.2Z" transform="translate(-1970.622 -960.605)" fill="#c8c9ca"/>
    <path id="Path_13822" data-name="Path 13822" d="M1979.2,1214.091a.692.692,0,0,1,.7-.643.438.438,0,0,1,.1-.007c.077-.012.1.024.11.1a.543.543,0,0,0,.292.439.468.468,0,0,1,.1.07c.048-.018.029-.063.034-.095a.52.52,0,0,1,.55-.492c.4,0,.486-.231.518-.518a7.009,7.009,0,0,0,.006-.88,5.628,5.628,0,0,1,.412-2.4,3.875,3.875,0,0,1,.329-.619.051.051,0,0,0,.053.044,2.219,2.219,0,0,0,.684-.036,3.391,3.391,0,0,0,.481-.152c-.124.147-.243.3-.356.449a4.67,4.67,0,0,0-.838,1.854,5.574,5.574,0,0,0-.114.933,5.031,5.031,0,0,0-.014.614,4.835,4.835,0,0,1,.015.559,1.925,1.925,0,0,1-.06.476.385.385,0,0,1-.391.3.628.628,0,0,0-.5.186.5.5,0,0,0-.13.283c-.017.149-.03.155-.158.078a.565.565,0,0,1-.3-.468c0-.062-.024-.08-.084-.082a.706.706,0,0,0-.8.7c-.007.091-.047.075-.1.044a.633.633,0,0,1-.3-.5.389.389,0,0,1-.007-.184c.009-.025,0-.057-.031-.058C1979.334,1214.09,1979.267,1214.043,1979.2,1214.091Z" transform="translate(-1953.506 -1180.47)" fill="#c8c9ca"/>
    <path id="Path_13823" data-name="Path 13823" d="M1911.776,1180.535a6.583,6.583,0,0,0-.87.138,1.007,1.007,0,0,0-.768.674,3.448,3.448,0,0,0-.066.408.729.729,0,0,1-.05-.731,1.085,1.085,0,0,1,.705-.617,2.977,2.977,0,0,1,1.106-.138.482.482,0,0,0,.557-.359,2,2,0,0,0,.11-1.089.259.259,0,0,1-.043-.123,1.356,1.356,0,0,0-.089-.271.249.249,0,0,0-.225-.157,1.6,1.6,0,0,1-.918-.379,4.279,4.279,0,0,1-.789-.815,1.517,1.517,0,0,1-.259-.364,1.855,1.855,0,0,1-.1-.181c-.019-.033-.048-.068-.018-.111a1.909,1.909,0,0,1,.648-.037c.091.007.18.025.271.035a.094.094,0,0,1,.094.088,1.126,1.126,0,0,0,.956.968,2.233,2.233,0,0,0,.673.067.2.2,0,0,1,.18.079,1.558,1.558,0,0,1,.358,1.223,3.659,3.659,0,0,1-.646,1.586.179.179,0,0,1-.171.092c-.128,0-.255.01-.383.015A.885.885,0,0,0,1911.776,1180.535Z" transform="translate(-1886.393 -1148.944)" fill="#4e68a7"/>
    <path id="Path_13824" data-name="Path 13824" d="M1782.189,1259.154a.617.617,0,0,1,.508-.524c.081-.022.165-.033.247-.051a1.116,1.116,0,0,0,.9-.871c.05-.2.1-.4.151-.595a1.654,1.654,0,0,1,1-1.148c.114-.049.232-.088.348-.131.032.1.128.127.2.17a2.741,2.741,0,0,0,.852.309.1.1,0,0,1,.071.034,4.889,4.889,0,0,0-.871.275,1.694,1.694,0,0,0-.983,1.188,6.784,6.784,0,0,1-.2.739,1.049,1.049,0,0,1-.76.649c-.134.037-.271.061-.4.1a.6.6,0,0,0-.421.688.426.426,0,0,1,0,.069,1.009,1.009,0,0,1-.654-.64C1782.195,1259.33,1782.172,1259.241,1782.189,1259.154Z" transform="translate(-1762.563 -1225.953)" fill="#c8c9ca"/>
    <path id="Path_13825" data-name="Path 13825" d="M1736.687,733.514c-.091.113-.029.231,0,.34a1.06,1.06,0,0,0,.569.623,1.962,1.962,0,0,0,.507.206c.1.023.106.068.083.156a5.049,5.049,0,0,1-.266.718,5.938,5.938,0,0,1-.6,1.145.491.491,0,0,0-.073.473,1.194,1.194,0,0,1-.273,1.182.835.835,0,0,1-.536.22c-.055.007-.068-.011-.052-.069a1.37,1.37,0,0,0-.365-1.343,4.885,4.885,0,0,0-1.32-1.008c-.034-.019-.076-.028-.1-.066.279.074.555.159.84.208a10.131,10.131,0,0,0,1.08.119.191.191,0,0,0,.172-.07,3.8,3.8,0,0,0,.738-1.4c.022-.071-.026-.072-.062-.089a1.025,1.025,0,0,1-.542-1.151.594.594,0,0,1,.162-.284Z" transform="translate(-1716.134 -719.674)" fill="#4e68a7"/>
    <path id="Path_13826" data-name="Path 13826" d="M2077.717,803.147a2.311,2.311,0,0,0-1.064.167,2.2,2.2,0,0,0-.856.618c-.009.01-.02.018-.051.047a2.5,2.5,0,0,1,.341-.638,5.357,5.357,0,0,1,1.191-1.116,11.748,11.748,0,0,0,1.115-.876,1.9,1.9,0,0,0,.636-1.066,2.162,2.162,0,0,0-.157-1.215c-.011-.027-.021-.054-.031-.081a1.357,1.357,0,0,1,.611.608,2.181,2.181,0,0,1,.232.839,1.691,1.691,0,0,1-.119.836,1.89,1.89,0,0,1-.327.5,7.943,7.943,0,0,1-1.252,1.044c-.127.1-.257.192-.394.295C2077.634,803.142,2077.687,803.113,2077.717,803.147Z" transform="translate(-2047.072 -783.211)" fill="#c8c9ca"/>
    <path id="Path_13827" data-name="Path 13827" d="M1673.268,670.111a3.336,3.336,0,0,0,1.151-1.034,1.817,1.817,0,0,0,.166-1.96l-.041-.089a1.276,1.276,0,0,1,.405.327,1.889,1.889,0,0,1,.474,1.066,1.7,1.7,0,0,1-.235,1.1,3.265,3.265,0,0,1-1.182,1.168.209.209,0,0,0-.119.239c-.055.012-.09-.026-.126-.054a2.112,2.112,0,0,0-.418-.263.124.124,0,0,1-.084-.137C1673.268,670.353,1673.25,670.232,1673.268,670.111Z" transform="translate(-1657.011 -655.327)" fill="#c8c9ca"/>
    <path id="Path_13828" data-name="Path 13828" d="M1982.909,711.766a.94.94,0,0,1-.527.043.341.341,0,0,1-.231-.519,1.857,1.857,0,0,1,.144-.22.679.679,0,0,1,.8-.229.213.213,0,0,1,.164.21c0,.055,0,.109,0,.165a1.064,1.064,0,0,0,.142-.225,2.317,2.317,0,0,1,.413-.553.373.373,0,0,0,.13-.346c-.015-.123,0-.134.11-.078s.175.03.227-.08a1.927,1.927,0,0,1,.142-.22,3.274,3.274,0,0,0,.323.205.8.8,0,0,1,.3.308.108.108,0,0,1,0,.14,1.249,1.249,0,0,0-.082.129.611.611,0,0,1-.121.181c-.063.045-.134-.025-.2-.042-.047-.012-.061,0-.06.044a.27.27,0,0,0,0,.033.359.359,0,0,1-.152.381.1.1,0,0,0-.047.094c-.027.039-.065.023-.1.019a1,1,0,0,1-.453-.157c-.063-.042-.105-.038-.145.026a.49.49,0,0,1-.059.079c-.073.077-.107.156-.02.247a.05.05,0,0,1,.008.061.135.135,0,0,1-.1.016.54.54,0,0,0-.482.174C1982.989,711.692,1982.949,711.73,1982.909,711.766Z" transform="translate(-1956.316 -696.693)" fill="#c8c9ca"/>
    <path id="Path_13829" data-name="Path 13829" d="M1632.218,1074.278a.8.8,0,0,1,.448.02c.073.025.06.065.026.116a1.351,1.351,0,0,0-.181.619,1.4,1.4,0,0,1,.252-.27c.059-.041.12-.089.2-.06a.361.361,0,0,0-.007.12q0,1.809,0,3.618a.266.266,0,0,1-.009.119.943.943,0,0,1-.475.171.768.768,0,0,1-.25.024c0-.114,0-.228-.005-.341,0-.066.025-.078.083-.079.2,0,.2-.006.2-.21q0-1.458,0-2.916a.316.316,0,0,0-.056-.193,1.245,1.245,0,0,1-.187-.635C1632.259,1074.345,1632.289,1074.289,1632.218,1074.278Z" transform="translate(-1617.238 -1049.98)" fill="#4e68a7"/>
    <path id="Path_13830" data-name="Path 13830" d="M1856.466,1177.93a3.652,3.652,0,0,0,.313.545c.023.036.045.074.067.111a3.717,3.717,0,0,0-.835.331,1.838,1.838,0,0,0-.545.436.787.787,0,0,0-.17.585,1.167,1.167,0,0,1-.513-.381.655.655,0,0,1,.014-.806,1.76,1.76,0,0,1,.667-.524A2.332,2.332,0,0,1,1856.466,1177.93Z" transform="translate(-1832.804 -1150.454)" fill="#c8c9ca"/>
    <path id="Path_13831" data-name="Path 13831" d="M2164.556,962.849a2.259,2.259,0,0,0,.436-.562,1.435,1.435,0,0,0,.066-1.242,1.279,1.279,0,0,1,.733,1,1.542,1.542,0,0,1-.46,1.3,2.146,2.146,0,0,1-.67.49.353.353,0,0,1-.151.045A.931.931,0,0,0,2164.556,962.849Z" transform="translate(-2133.095 -940.266)" fill="#c8c9ca"/>
    <path id="Path_13832" data-name="Path 13832" d="M2099.14,969.454a.982.982,0,0,0-.805-.677.693.693,0,0,0-.752.413.8.8,0,0,1,.186-.46.981.981,0,0,1,.821-.416.993.993,0,0,1,.935.583,1.013,1.013,0,0,1-.1,1.087c-.06.085-.147.141-.211.221-.05.053-.123.053-.193.082A.974.974,0,0,0,2099.14,969.454Z" transform="translate(-2068.234 -947.31)" fill="#4e68a7"/>
    <path id="Path_13833" data-name="Path 13833" d="M1592.789,637.787a2.794,2.794,0,0,0-.417.317,2.054,2.054,0,0,0-.549,1.137,2.4,2.4,0,0,0,.17,1.371,1.842,1.842,0,0,0,.622.766c.028.02.068.029.08.069a.573.573,0,0,1-.377-.134.419.419,0,0,1-.058-.049,2.1,2.1,0,0,1-.726-.779,1.883,1.883,0,0,1,.835-2.544A1.129,1.129,0,0,1,1592.789,637.787Z" transform="translate(-1577.608 -626.988)" fill="#4e68a7"/>
    <path id="Path_13834" data-name="Path 13834" d="M1732.157,1346.3a.864.864,0,0,1,.879-.635.163.163,0,0,1,.046.108.772.772,0,0,0,.314.492c.026.02.069.032.059.08a.868.868,0,0,0-.7.826c0,.031.016.071-.02.09s-.063-.01-.089-.027a.93.93,0,0,1-.419-.768C1732.219,1346.409,1732.249,1346.331,1732.157,1346.3Z" transform="translate(-1714.091 -1313.014)" fill="#c8c9ca"/>
    <path id="Path_13835" data-name="Path 13835" d="M2028.342,741.324c-.121-.164-.121-.164,0-.332s.113-.155.277-.065a1.18,1.18,0,0,0,1.519-.393,1.018,1.018,0,0,1-.7,1.081.317.317,0,0,1-.233.072,1.7,1.7,0,0,1-.229,0,1.165,1.165,0,0,1-.484-.194A.317.317,0,0,1,2028.342,741.324Z" transform="translate(-2001.044 -726.563)" fill="#e4001b"/>
    <path id="Path_13836" data-name="Path 13836" d="M1931.167,1356.172a.977.977,0,0,1,.684-.266c.109-.017.219,0,.328-.008.054,0,.069.03.076.073.015.083.022.167.039.249a.625.625,0,0,0,.087.224c.02.03.044.06.027.1a2.087,2.087,0,0,0-.409.117.6.6,0,0,0-.348.544.9.9,0,0,1-.363-.658A1.486,1.486,0,0,0,1931.167,1356.172Z" transform="translate(-1906.957 -1322.927)" fill="#c8c9ca"/>
    <path id="Path_13837" data-name="Path 13837" d="M1686.44,1345.772a.94.94,0,0,1,.62-.237c.065-.007.132,0,.2,0a.183.183,0,0,1,.047.13,1.183,1.183,0,0,0,.119.472.084.084,0,0,1,.009.083.761.761,0,0,0-.383.222.554.554,0,0,0-.124.409c0,.04,0,.08,0,.133a.726.726,0,0,1-.377-.414.924.924,0,0,1-.047-.547A.28.28,0,0,0,1686.44,1345.772Z" transform="translate(-1669.786 -1312.88)" fill="#c8c9ca"/>
    <path id="Path_13838" data-name="Path 13838" d="M1838.519,681.206c.047.016.07-.024.1-.045a.6.6,0,0,1,1,.366,1.128,1.128,0,0,1-.89,1.419.833.833,0,0,1-.323.043,1.342,1.342,0,0,0,.509-.218.992.992,0,0,0,.363-.955.663.663,0,0,0-.711-.524c-.027,0-.064.02-.08-.012S1838.5,681.226,1838.519,681.206Z" transform="translate(-1817.061 -668.868)" fill="#4e68a7"/>
    <path id="Path_13839" data-name="Path 13839" d="M1634.715,1237.225c.023.026.054.016.083.017a.455.455,0,0,1,.464.407.472.472,0,0,1-.3.473.454.454,0,0,1-.554-.212.3.3,0,0,0-.019-.026A.667.667,0,0,1,1634.715,1237.225Z" transform="translate(-1619.334 -1207.918)" fill="#4e68a7"/>
    <path id="Path_13840" data-name="Path 13840" d="M2047.935,761.531a1.371,1.371,0,0,0,.482-.042c.055.094.159.073.236.078a1.136,1.136,0,0,0,.966-.32.577.577,0,0,0,.13-.206.207.207,0,0,1,.027.163c-.008.057-.05.123.015.175a2.088,2.088,0,0,0-.937.467,2.148,2.148,0,0,0-.274.324.1.1,0,0,1-.094,0,1.05,1.05,0,0,1-.592-.385C2047.8,761.67,2047.812,761.622,2047.935,761.531Z" transform="translate(-2020.021 -746.437)" fill="#c8c9ca"/>
    <path id="Path_13841" data-name="Path 13841" d="M1877.158,621.114a1.093,1.093,0,0,0,.136.283c.044.056-.024.048-.053.048q-.384,0-.768,0c-.088,0-.175,0-.263-.005.153-.041.312,0,.475-.024a.555.555,0,0,1,.091-.662,2.168,2.168,0,0,1,.894-.685.2.2,0,0,1,.042-.008,1.432,1.432,0,0,0-.5.66c-.023.064-.04.131-.06.2A.476.476,0,0,0,1877.158,621.114Z" transform="translate(-1853.698 -609.812)" fill="#4e68a7"/>
    <path id="Path_13842" data-name="Path 13842" d="M1951.287,1225.571a2.283,2.283,0,0,0,.728.322.873.873,0,0,0,.216.031.189.189,0,0,1,.2.119,1.1,1.1,0,0,1,.134.458,1.662,1.662,0,0,1-.611-.285A2.82,2.82,0,0,1,1951.287,1225.571Z" transform="translate(-1926.455 -1196.624)" fill="#c8c9ca"/>
    <path id="Path_13843" data-name="Path 13843" d="M1672.9,766.863c0,.12,0,.24,0,.36,0,.037,0,.072.043.09a2.987,2.987,0,0,1,.578.366,5.639,5.639,0,0,0,.531.46c-.23-.092-.458-.186-.689-.276-.136-.053-.274-.1-.411-.149-.038-.014-.072-.025-.072-.08,0-.245,0-.491,0-.737C1672.876,766.886,1672.89,766.875,1672.9,766.863Z" transform="translate(-1656.639 -752.079)" fill="#4e68a7"/>
    <path id="Path_13844" data-name="Path 13844" d="M1713.084,1345.58a1.514,1.514,0,0,1-.175-.684,2.91,2.91,0,0,1,.538-.016.755.755,0,0,0-.026.958l.034-.084c0,.036.019.082-.011.1s-.068-.013-.1-.03A1,1,0,0,1,1713.084,1345.58Z" transform="translate(-1695.438 -1312.244)" fill="#4e68a7"/>
    <path id="Path_13845" data-name="Path 13845" d="M1615.17,1054.383a.663.663,0,0,1,.26.017c.131.033.137.045.049.146a1.962,1.962,0,0,0-.349.541.459.459,0,0,0-.043.223c-.045-.02-.048-.022-.064-.069a.862.862,0,0,1,.081-.757C1615.125,1054.45,1615.148,1054.417,1615.17,1054.383Z" transform="translate(-1600.523 -1030.716)" fill="#4e68a7"/>
    <path id="Path_13846" data-name="Path 13846" d="M1761.054,1346.229a.864.864,0,0,1-.419-.68l.318,0c.029,0,.064,0,.055.044a.8.8,0,0,0,.131.505,1.984,1.984,0,0,0,.145.22c.031-.08-.013-.157.032-.219-.011.087.031.177-.016.262Z" transform="translate(-1741.69 -1312.894)" fill="#4e68a7"/>
    <path id="Path_13847" data-name="Path 13847" d="M1640.064,771.791a2.339,2.339,0,0,0,.4-.023c.057-.016.087.01.084.076,0,.11-.006.22,0,.33,0,.072-.034.07-.079.055a1.552,1.552,0,0,1-.333-.138.222.222,0,0,0-.1-.04C1640.124,771.97,1640.088,771.88,1640.064,771.791Z" transform="translate(-1624.819 -756.828)" fill="#4e68a7"/>
    <path id="Path_13848" data-name="Path 13848" d="M1953.893,1356.092a.921.921,0,0,1-.176-.561c0-.067-.032-.078-.087-.077-.1,0-.2,0-.294,0a.753.753,0,0,1,.28-.019c.149,0,.3,0,.474,0a.6.6,0,0,0-.113.436.621.621,0,0,0,.1.3c.028.043.036.009.051,0,.01.051,0,.08-.059.054A.957.957,0,0,1,1953.893,1356.092Z" transform="translate(-1928.442 -1322.474)" fill="#4e68a7"/>
    <path id="Path_13849" data-name="Path 13849" d="M1914.157,1351.238h.319a.928.928,0,0,0,.009.773A.915.915,0,0,1,1914.157,1351.238Z" transform="translate(-1890.472 -1318.411)" fill="#4f69a8"/>
    <path id="Path_13850" data-name="Path 13850" d="M1621.609,750.379a1.884,1.884,0,0,0,.434.183c.022.032.073.008.094.058l-.266.13C1621.807,750.611,1621.674,750.519,1621.609,750.379Z" transform="translate(-1606.957 -736.104)" fill="#c5c8ca"/>
    <path id="Path_13851" data-name="Path 13851" d="M2224.636,544.487l-.565-.491.9-.468Z" transform="translate(-2190.817 -535.639)" fill="#d68f16"/>
    <path id="Path_13852" data-name="Path 13852" d="M1799.512,1587.711c.056.181.1.334.152.486.02.058.016.085-.052.07a3.5,3.5,0,0,1-.351-.038Z" transform="translate(-1779.123 -1547.583)" fill="#d79017"/>
    <path id="Path_13853" data-name="Path 13853" d="M1718.863,1586.353c-.076,0-.17-.034-.267-.048-.054-.008-.055-.039-.047-.078.043-.207.089-.414.13-.621.009-.046.029-.05.069-.038s.107.022.161.033a.4.4,0,0,1,.25.644A.3.3,0,0,1,1718.863,1586.353Z" transform="translate(-1700.9 -1545.501)" fill="#d68f16"/>
    <path id="Path_13854" data-name="Path 13854" d="M1725.248,1557.808a.626.626,0,0,1-.253-.058c-.077-.059.007-.158.017-.239.014-.115.044-.229.068-.343.009-.043.021-.069.08-.054a.852.852,0,0,1,.3.1.286.286,0,0,1,.12.307.3.3,0,0,1-.22.271A.884.884,0,0,1,1725.248,1557.808Z" transform="translate(-1707.119 -1517.927)" fill="#d68f16"/>
    <path id="Path_13855" data-name="Path 13855" d="M2280.773,1423.869a.4.4,0,0,1-.142.308c-.176.183-.176.184-.349,0-.1-.105-.2-.213-.306-.316-.041-.04-.041-.065,0-.1.07-.059.132-.128.205-.182a.3.3,0,0,1,.351-.01A.412.412,0,0,1,2280.773,1423.869Z" transform="translate(-2244.967 -1388.462)" fill="#d68f16"/>
    <path id="Path_13856" data-name="Path 13856" d="M2259.858,1403.879a.359.359,0,0,1,.3.209.267.267,0,0,1-.036.307c-.17.235-.19.237-.389.032q-.118-.122-.235-.246c-.018-.019-.057-.039-.024-.071C2259.585,1404.005,2259.687,1403.884,2259.858,1403.879Z" transform="translate(-2225.115 -1369.427)" fill="#d68f16"/>
    <path id="Path_13857" data-name="Path 13857" d="M1561.721,1506.476a.454.454,0,0,1-.466-.489,1.514,1.514,0,0,1,.53-1.064.436.436,0,0,1,.54-.059.468.468,0,0,1,.228.5,1.649,1.649,0,0,1-.447.924A.527.527,0,0,1,1561.721,1506.476Z" transform="translate(-1548.465 -1467.229)" fill="#d68f16"/>
    <path id="Path_13858" data-name="Path 13858" d="M1481.223,1458.452a.789.789,0,0,1-.067.289,1.692,1.692,0,0,1-.553.725.476.476,0,0,1-.674-.032.45.45,0,0,1-.1-.453,1.546,1.546,0,0,1,.659-.916.457.457,0,0,1,.707.235A1.032,1.032,0,0,1,1481.223,1458.452Z" transform="translate(-1469.536 -1421.859)" fill="#d68f16"/>
    <path id="Path_13859" data-name="Path 13859" d="M1976.9,766.008c-.1.171-.092.176.048.324a1.119,1.119,0,0,0,.6.316,1.316,1.316,0,0,0-.127,1l.075-.277a.784.784,0,0,1,.857-.465.138.138,0,0,1,.1.044c.02.046-.008.079-.036.107a1.277,1.277,0,0,0-.353,1.111.191.191,0,0,1,0,.063.779.779,0,0,1,.866-.679c.055.025.049.076.052.123a.929.929,0,0,1-.187.565,2.781,2.781,0,0,1-.5.538c-.384.341-.8.649-1.157,1.016a2.887,2.887,0,0,0-.674,1,2.133,2.133,0,0,0-.113.953,2.812,2.812,0,0,0,.777,1.641c.2.228.411.449.6.688a2.193,2.193,0,0,1,.494,1.1,1.928,1.928,0,0,1,0,.516.992.992,0,0,1-1.1.805,3.431,3.431,0,0,1-.828-.163.842.842,0,0,1-.358-.206,4.305,4.305,0,0,1-.47-1.39c-.1-.526-.16-1.059-.262-1.584a4.525,4.525,0,0,0-.2-.7.968.968,0,0,0-.168-.32.522.522,0,0,1-.121-.449c.021-.149.016-.3.041-.449.019-.114.034-.127.142-.1a1.24,1.24,0,0,0,1.383-.646,1.04,1.04,0,0,0,.023-.793,1.609,1.609,0,0,0-.249-.446.483.483,0,0,1-.17.265c-.029.023-.062.052-.1.037s-.016-.059-.019-.089a.636.636,0,0,0-.007-.131,1.579,1.579,0,0,0-.36-.792.55.55,0,0,1-.768.395.49.49,0,0,1-.089-.333,1.618,1.618,0,0,1,.114-.766.67.67,0,0,1,.755-.415,1.474,1.474,0,0,1,.864.459,4.227,4.227,0,0,1,0-1.24,1.045,1.045,0,0,1-.519.07.162.162,0,0,1-.133-.067,1.6,1.6,0,0,1,.037-.581c.022-.094-.013-.093-.079-.079a.6.6,0,0,1,.577-.32,1.1,1.1,0,0,0,.129.009A1.191,1.191,0,0,0,1976.9,766.008Z" transform="translate(-1948.982 -750.914)" fill="#fff"/>
    <path id="Path_13860" data-name="Path 13860" d="M1688.732,1063.634c-.021-.069.031-.122.044-.184a.673.673,0,0,0-.333-.746l-.075-.044c.138,0,.245,0,.353,0,.068,0,.1-.015.1-.091,0-.242,0-.485,0-.727,0-.069-.026-.086-.09-.087-.2,0-.2-.006-.2-.2v-2.522c0-.147,0-.147.137-.108.017.005.036.005.053.012.092.035.113.023.1-.089a.749.749,0,0,1,.2-.566,1.465,1.465,0,0,1,1.543-.484.662.662,0,0,1,.438.291.112.112,0,0,0,.153.052,5.066,5.066,0,0,0,1.556-.841,10.234,10.234,0,0,0,.867-.758c.021-.02.045-.037.068-.055l.241.4a6.342,6.342,0,0,0-1.636.976,5.846,5.846,0,0,0-1.462,1.6,1.9,1.9,0,0,0-.255.7.991.991,0,0,0,.492,1.026,1.079,1.079,0,0,0,.162.093.184.184,0,0,1,.126.2,3.661,3.661,0,0,1-.318,1.5,1.1,1.1,0,0,1-.739.655,1.217,1.217,0,0,1-.427.011A4.78,4.78,0,0,0,1688.732,1063.634Z" transform="translate(-1671.654 -1032.764)" fill="#fff"/>
    <path id="Path_13861" data-name="Path 13861" d="M2001.641,797.967a.815.815,0,0,0-.882.316l-.067.1a.925.925,0,0,1,.45-.542,1.277,1.277,0,0,1,.523-.18,1.379,1.379,0,0,0,.326,0,1.116,1.116,0,0,1,.5.208,1.009,1.009,0,0,1,.364.676,1.348,1.348,0,0,1-.462,1.166,9.875,9.875,0,0,1-.862.766,5.133,5.133,0,0,0-1.1,1.158,1.763,1.763,0,0,0-.281.933,2.315,2.315,0,0,0,.392,1.292,9.977,9.977,0,0,0,.766.961,3.285,3.285,0,0,1,.785,1.39,1.669,1.669,0,0,1-.037,1.044,1.152,1.152,0,0,1-.892.7,2.336,2.336,0,0,1-1.833-.345,2.281,2.281,0,0,1-.773-.98.64.64,0,0,1-.084-.212c.036,0,.052.023.067.048a2.048,2.048,0,0,0,.565.616.261.261,0,0,1,.046.047,1.8,1.8,0,0,0,.8.3,2.173,2.173,0,0,0,.656.03.94.94,0,0,0,.789-.872,2.2,2.2,0,0,0-.608-1.622c-.261-.3-.543-.587-.779-.911a2.559,2.559,0,0,1-.506-1.714,2.2,2.2,0,0,1,.52-1.237,7.808,7.808,0,0,1,1.131-1.074,4.245,4.245,0,0,0,.8-.794.809.809,0,0,0,.168-.66c-.049-.043-.034-.108-.055-.162a.649.649,0,0,0-.335-.384A.28.28,0,0,1,2001.641,797.967Z" transform="translate(-1972.185 -781.925)" fill="#4e68a7"/>
    <path id="Path_13862" data-name="Path 13862" d="M1961.954,887.089a1.759,1.759,0,0,1-.616-.621c-.02-.03-.041-.059-.062-.089a6.789,6.789,0,0,1-.555-2.115,7.887,7.887,0,0,0-.288-1.385,1.726,1.726,0,0,0-.305-.568.116.116,0,0,1-.037-.088c.02-.252.038-.5.057-.758a1.2,1.2,0,0,0,1.612-1.163c.043.062,0,.136.026.2a.367.367,0,0,0,.24-.339c.056.009.069.063.093.1a1.237,1.237,0,0,1,.252,1.033,1.066,1.066,0,0,1-.493.66,1.213,1.213,0,0,1-.94.2.23.23,0,0,1-.062-.021c-.065-.035-.087-.019-.093.057-.015.219-.04.436-.046.656a.138.138,0,0,0,.025.1,2.455,2.455,0,0,1,.44,1.053c.089.388.135.783.2,1.176a6.03,6.03,0,0,0,.479,1.77C1961.906,886.992,1961.949,887.031,1961.954,887.089Z" transform="translate(-1934.988 -861.882)" fill="#c8c9ca"/>
    <path id="Path_13863" data-name="Path 13863" d="M1694.375,901.389a16.164,16.164,0,0,0-1.392.964,2.579,2.579,0,0,1-.411.254c-.052,0-.051-.046-.057-.08a.624.624,0,0,1,0-.11v-2.786c0-.022,0-.044,0-.066.006-.126.038-.154.167-.138a4.149,4.149,0,0,1,.8.185c.075.026.134.061.129.153a.567.567,0,0,1-.474.48c-.028.005-.059,0-.082.02a.839.839,0,0,0,.6.438c.056.015.115.02.173.029s.116-.006.18.018c-.038.08-.118.093-.183.125-.089.043-.1.054-.032.133a.882.882,0,0,0,.485.3C1694.317,901.324,1694.375,901.319,1694.375,901.389Z" transform="translate(-1675.669 -880.546)" fill="#fff"/>
    <path id="Path_13864" data-name="Path 13864" d="M1675.173,880.622c.014-.09-.024-.132-.113-.161a5.916,5.916,0,0,0-.82-.19c-.1-.018-.1.039-.1.114q0,1.337,0,2.674c0,.088,0,.176,0,.264,0,.036-.009.075.025.1a1.7,1.7,0,0,1-.515.213c-.132.025-.133.021-.133-.111q0-1.706,0-3.413c0-.161,0-.323,0-.484a4.355,4.355,0,0,1,1.256.321l.041.014a.673.673,0,0,1,.4.54C1675.223,880.548,1675.241,880.6,1675.173,880.622Z" transform="translate(-1657.26 -861.365)" fill="#c8c9ca"/>
    <path id="Path_13865" data-name="Path 13865" d="M1956.418,796.794a.883.883,0,0,0,.6-.015c.086-.026.091,0,.076.075a3.054,3.054,0,0,0-.02.884c.011.118.019.236.031.379a1.467,1.467,0,0,0-.774-.49.687.687,0,0,0-.92.571,1.732,1.732,0,0,0,.016.888.881.881,0,0,1-.635-.638,1.63,1.63,0,0,1,.014-1,.66.66,0,0,1,.87-.47,1.4,1.4,0,0,1,.791.5C1956.455,797.24,1956.408,797.019,1956.418,796.794Z" transform="translate(-1929.784 -781.062)" fill="#c8c9ca"/>
    <path id="Path_13866" data-name="Path 13866" d="M1731.868,918.992c-.018-.041-.056-.037-.092-.046a.9.9,0,0,1-.545-.355c-.046-.066-.052-.1.038-.126a1.794,1.794,0,0,0,.219-.094c-.065-.031-.125,0-.17-.035a1.93,1.93,0,0,0,1.038-.224,1.283,1.283,0,0,0,.533-.478c.033-.057.067-.056.116-.029a.409.409,0,0,1,.127.119,2.733,2.733,0,0,1,.234.409c0,.031-.022.044-.046.056C1732.827,918.441,1732.348,918.718,1731.868,918.992Z" transform="translate(-1713.162 -898.149)" fill="#c8c9ca"/>
    <path id="Path_13867" data-name="Path 13867" d="M1641.024,674.76a.66.66,0,0,1,.484-.391.752.752,0,0,1,.924.789,1.4,1.4,0,0,1-.312.76,4.3,4.3,0,0,1-.431.458,1.357,1.357,0,0,0,.023-.407c-.015-.106-.063-.123-.149-.13a.735.735,0,0,1-.624-.663c.055.009.056.063.076.1a.481.481,0,0,0,.5.23.456.456,0,0,0,.391-.352.462.462,0,0,0-.4-.54.528.528,0,0,0-.354.09C1641.111,674.729,1641.08,674.775,1641.024,674.76Z" transform="translate(-1625.691 -662.422)" fill="#4e68a7"/>
    <path id="Path_13868" data-name="Path 13868" d="M1640.838,682.021a.653.653,0,0,1,.445-.179.481.481,0,1,1-.066.958.513.513,0,0,1-.462-.362A.63.63,0,0,1,1640.838,682.021Z" transform="translate(-1625.505 -669.683)" fill="#c8c9ca"/>
    <path id="Path_13869" data-name="Path 13869" d="M1626.582,797.361c-.214-.037-.421-.013-.621-.064a.258.258,0,0,1-.2-.288.271.271,0,0,1,.354-.233,3.3,3.3,0,0,1,.814.421c.032.022.082.05.073.089s-.072.047-.112.05A1.624,1.624,0,0,0,1626.582,797.361Z" transform="translate(-1610.975 -781.054)" fill="#4e68a7"/>
    <path id="Path_13870" data-name="Path 13870" d="M1626.852,823.92a3.08,3.08,0,0,1,.832.265c.02.01.043.02.042.046,0,.043-.042.05-.071.059a2.41,2.41,0,0,1-.621.116.8.8,0,0,1-.272.013.276.276,0,0,1-.2-.267A.255.255,0,0,1,1626.852,823.92Z" transform="translate(-1611.758 -807.374)" fill="#4e68a7"/>
    <path id="Path_13871" data-name="Path 13871" d="M1710.631,891.141a.489.489,0,0,0-.131-.451,1.278,1.278,0,0,0-.226-.205.768.768,0,0,1,.655.464.467.467,0,0,1-.287.632.991.991,0,0,1-.54.022c0-.042.04-.025.06-.037a.539.539,0,0,1,.083-.029A.545.545,0,0,0,1710.631,891.141Z" transform="translate(-1692.718 -871.884)" fill="#4e68a7"/>
    <path id="Path_13872" data-name="Path 13872" d="M1661.17,1089.506c.037.084.028.118-.079.1a.686.686,0,0,0-.207-.049.808.808,0,0,1-.371-.52c-.048-.236-.006-.284.224-.23a1.082,1.082,0,0,1,.114.039c.069.024.1.051.082.144a.689.689,0,0,0,.213.576C1661.177,1089.55,1661.157,1089.521,1661.17,1089.506Z" transform="translate(-1644.643 -1064.06)" fill="#4e68a7"/>
    <path id="Path_13873" data-name="Path 13873" d="M1954.292,698.5c-.029.11-.084.142-.192.1a2.787,2.787,0,0,1-.519-.228.4.4,0,0,1-.179-.187c-.032-.088,0-.141.1-.141.121,0,.242,0,.362,0,.061,0,.079.018.087.078A.393.393,0,0,0,1954.292,698.5Z" transform="translate(-1928.495 -685.384)" fill="#fefefe"/>
    <path id="Path_13874" data-name="Path 13874" d="M1632.758,848.9a1.726,1.726,0,0,1,.545.1c.026.009.066.007.064.046s-.031.04-.054.049a2.361,2.361,0,0,1-.59.156.174.174,0,0,1-.194-.177c-.009-.109.068-.178.185-.178Z" transform="translate(-1617.539 -831.585)" fill="#4e68a7"/>
    <path id="Path_13875" data-name="Path 13875" d="M2002.448,1356.107a.526.526,0,0,1-.4-.438c-.02-.143-.073-.173-.192-.161a1.894,1.894,0,0,1,.422-.016c.024,0,.045.012.036.04a.7.7,0,0,0,.137.563A.028.028,0,0,1,2002.448,1356.107Z" transform="translate(-1975.458 -1322.531)" fill="#4e68a7"/>
    <path id="Path_13876" data-name="Path 13876" d="M1655.8,1092.638q0-1.887,0-3.775c0-.029-.008-.059.017-.083,0,.25,0,.5,0,.748q0,1.492,0,2.984C1655.821,1092.554,1655.839,1092.6,1655.8,1092.638Z" transform="translate(-1640.091 -1064.057)" fill="#5d75af"/>
    <path id="Path_13877" data-name="Path 13877" d="M1655.767,889.887c-.044-.028-.026-.073-.026-.11q0-1.775,0-3.55c0-.035-.012-.074.018-.1,0,.385,0,.771,0,1.156q0,1.239,0,2.477C1655.762,889.8,1655.765,889.843,1655.767,889.887Z" transform="translate(-1640.031 -867.656)" fill="#5d75b0"/>
    <path id="Path_13878" data-name="Path 13878" d="M1981.829,698.227c-.012-.065.024-.093.1-.078.011,0,.022,0,.033,0,.073.011.2-.022.207.027.006.08-.085.152-.144.221-.031.036-.082.024-.121,0C1981.84,698.367,1981.831,698.305,1981.829,698.227Z" transform="translate(-1956.053 -685.482)" fill="#f7f8fb"/>
    <path id="Path_13879" data-name="Path 13879" d="M1702.984,1299.054a1.967,1.967,0,0,1,.612,0Z" transform="translate(-1685.819 -1267.815)" fill="#637db5"/>
    <path id="Path_13880" data-name="Path 13880" d="M1666.585,1022.924a1.377,1.377,0,0,1,.5,0Z" transform="translate(-1650.544 -1000.211)" fill="#5b75ab"/>
    <path id="Path_13881" data-name="Path 13881" d="M2102.183,797.661a.59.59,0,0,1-.326,0Z" transform="translate(-2072.377 -781.925)" fill="#607cb3"/>
    <path id="Path_13882" data-name="Path 13882" d="M1969.151,1310.5a.387.387,0,0,1,.26,0Z" transform="translate(-1943.768 -1278.908)" fill="#5b7ab2"/>
    <path id="Path_13883" data-name="Path 13883" d="M1906.188,648a.221.221,0,0,1,0-.193Q1906.188,647.9,1906.188,648Z" transform="translate(-1882.728 -636.698)" fill="#647eb5"/>
    <path id="Path_13884" data-name="Path 13884" d="M1725.049,1591.945a.2.2,0,0,1-.316.2c-.038-.018-.022-.04-.018-.061.02-.1.043-.207.065-.31.005-.024,0-.048.042-.049A.217.217,0,0,1,1725.049,1591.945Z" transform="translate(-1706.872 -1551.476)" fill="#003980"/>
    <path id="Path_13885" data-name="Path 13885" d="M1731.44,1563.77c-.08,0-.147-.014-.108-.12a.967.967,0,0,0,.031-.128c.024-.108.041-.113.14-.059s.078.123.064.2A.122.122,0,0,1,1731.44,1563.77Z" transform="translate(-1713.281 -1524.052)" fill="#003a7f"/>
    <path id="Path_13886" data-name="Path 13886" d="M2287.74,1428.957a.314.314,0,0,1,.238.186.306.306,0,0,1-.131.227c-.033.019-.047,0-.064-.019a1.969,1.969,0,0,0-.177-.179c-.09-.071-.063-.12.013-.173A.18.18,0,0,1,2287.74,1428.957Z" transform="translate(-2252.336 -1393.73)" fill="#003980"/>
    <path id="Path_13887" data-name="Path 13887" d="M2267.423,1409.505a.207.207,0,0,1-.1.152c-.045.026-.06-.037-.09-.059a.26.26,0,0,1-.068-.071c-.022-.038-.1-.051-.064-.112a.175.175,0,0,1,.224-.048A.216.216,0,0,1,2267.423,1409.505Z" transform="translate(-2232.508 -1374.724)" fill="#003a7f"/>
    <path id="Path_13888" data-name="Path 13888" d="M1566.393,1511.17a1.5,1.5,0,0,1,.476-.925.293.293,0,0,1,.339-.046.281.281,0,0,1,.162.3,1.385,1.385,0,0,1-.463.931.284.284,0,0,1-.345.055A.314.314,0,0,1,1566.393,1511.17Z" transform="translate(-1553.445 -1472.431)" fill="#003980"/>
    <path id="Path_13889" data-name="Path 13889" d="M1485.223,1464.086a.338.338,0,0,1,.019-.122,1.5,1.5,0,0,1,.578-.779.291.291,0,0,1,.359,0,.3.3,0,0,1,.111.343.842.842,0,0,1-.029.105,1.6,1.6,0,0,1-.475.662.505.505,0,0,1-.2.105A.3.3,0,0,1,1485.223,1464.086Z" transform="translate(-1474.781 -1426.841)" fill="#003980"/>
    <path id="Path_13890" data-name="Path 13890" d="M2087.838,807.619a.657.657,0,0,1,.489.612.861.861,0,0,0-.53.145.712.712,0,0,0-.314.482.963.963,0,0,1-.032.107,1.315,1.315,0,0,1,.335-1.264C2087.81,807.677,2087.839,807.657,2087.838,807.619Z" transform="translate(-2058.382 -791.577)" fill="#c8c9ca"/>
  </g>
</svg>
