<svg id="rel_symbol1" xmlns="http://www.w3.org/2000/svg" width="44.799" height="45.383" viewBox="0 0 44.799 45.383">
  <path id="Path_13891" data-name="Path 13891" d="M1195.743,899.6a2.415,2.415,0,0,1-2.154,1.838c-1.587,0-2.141-1.719-2.168-1.79l-.045-.165s1.368.114,2.121.114,2.04-.073,2.25-.114Z" transform="translate(-1171.123 -856.058)" fill="#231f20" fill-rule="evenodd"/>
  <path id="Path_13892" data-name="Path 13892" d="M1253.853,888.653l.328.044a2.787,2.787,0,0,1-2.46,2.151,2.454,2.454,0,0,1-2.267-1.288l-.229-.141A20.85,20.85,0,0,0,1253.853,888.653Z" transform="translate(-1225.067 -845.957)" fill="#231f20" fill-rule="evenodd"/>
  <path id="Path_13893" data-name="Path 13893" d="M1126.7,888.653l-.328.044a2.787,2.787,0,0,0,2.46,2.151,2.69,2.69,0,0,0,2.34-1.288l.157-.141A20.852,20.852,0,0,1,1126.7,888.653Z" transform="translate(-1110.511 -845.957)" fill="#231f20" fill-rule="evenodd"/>
  <path id="Path_13894" data-name="Path 13894" d="M1200.41,901.787a.573.573,0,0,1-.618.3.318.318,0,0,0-.319.3.3.3,0,0,0,.34.28c.469,0,.826-.656.927-.932,0,0,.277-.012.358-.02,0,0-.5,1.48-1.785,1.48s-1.817-1.464-1.817-1.464,1.087.067,1.709.067S1200.224,901.8,1200.41,901.787Z" transform="translate(-1176.831 -858.137)" fill="#fff000" fill-rule="evenodd"/>
  <path id="Path_13895" data-name="Path 13895" d="M1263.006,893.136a16.585,16.585,0,0,1-2.855.582s.044.146.352.13a.52.52,0,0,0,.177-.043.2.2,0,0,1,.206.229c-.012.107-.1.243-.417.243a1.271,1.271,0,0,1-.863-.494,2.605,2.605,0,0,1-.382.054,2.158,2.158,0,0,0,3.782-.7Z" transform="translate(-1234.392 -850.137)" fill="#fff000" fill-rule="evenodd"/>
  <path id="Path_13896" data-name="Path 13896" d="M1275.6,897.738a.967.967,0,0,0-.171-.55,16.014,16.014,0,0,1-1.745.3c-.006.022-.011.045-.015.069a.433.433,0,0,0,.3.069.515.515,0,0,0,.177-.043.2.2,0,0,1,.206.229c-.012.107-.1.243-.417.243a.757.757,0,0,1-.249-.047.975.975,0,0,0,.209.378,2.366,2.366,0,0,0,.582.071,1.813,1.813,0,0,0,1.02-.3A.965.965,0,0,0,1275.6,897.738Z" transform="translate(-1247.864 -853.916)" fill="#fd0" fill-rule="evenodd"/>
  <path id="Path_13897" data-name="Path 13897" d="M1275.746,897.789a.954.954,0,0,0-.171-.547,16.119,16.119,0,0,1-1.717.3c-.007.026-.013.053-.018.08a.461.461,0,0,0,.293.06.518.518,0,0,0,.177-.043.2.2,0,0,1,.206.229c-.012.107-.1.243-.417.243a.75.75,0,0,1-.234-.041.963.963,0,0,0,.218.379,2.361,2.361,0,0,0,.559.065,1.818,1.818,0,0,0,1-.281A.956.956,0,0,0,1275.746,897.789Z" transform="translate(-1248.021 -853.966)" fill="#ffdf00" fill-rule="evenodd"/>
  <path id="Path_13898" data-name="Path 13898" d="M1275.9,897.829a.944.944,0,0,0-.172-.544,15.957,15.957,0,0,1-1.689.291.877.877,0,0,0-.02.089.48.48,0,0,0,.281.052.52.52,0,0,0,.177-.043.2.2,0,0,1,.206.229c-.012.107-.1.243-.417.243a.723.723,0,0,1-.218-.036.95.95,0,0,0,.226.38,2.371,2.371,0,0,0,.535.06,1.823,1.823,0,0,0,.975-.267A.945.945,0,0,0,1275.9,897.829Z" transform="translate(-1248.19 -854.006)" fill="#ffe100" fill-rule="evenodd"/>
  <path id="Path_13899" data-name="Path 13899" d="M1133.784,893.136a16.567,16.567,0,0,0,2.854.582s-.044.146-.352.13a.523.523,0,0,1-.177-.043.2.2,0,0,0-.2.229c.011.107.1.243.416.243a1.27,1.27,0,0,0,.863-.494,2.625,2.625,0,0,0,.383.054,2.159,2.159,0,0,1-3.782-.7Z" transform="translate(-1117.419 -850.137)" fill="#fff000" fill-rule="evenodd"/>
  <path id="Path_13900" data-name="Path 13900" d="M962.105,679.846c4.5,0,9.487-2.763,12.984-6.746a3.038,3.038,0,0,1,2.542-1.247,3.471,3.471,0,0,1,3.307,3.912c-.173,1.841-2.805,5.991-7.306,8.549a22.929,22.929,0,0,1-23.055,0c-4.5-2.558-7.133-6.708-7.306-8.549a3.471,3.471,0,0,1,3.307-3.912,3.038,3.038,0,0,1,2.542,1.247C952.618,677.083,957.6,679.846,962.105,679.846Z" transform="translate(-939.747 -643.791)" fill="#fff000" fill-rule="evenodd"/>
  <path id="Path_13901" data-name="Path 13901" d="M959.868,677.77h0a15.012,15.012,0,0,1-6.815-1.83,22.006,22.006,0,0,1-6.291-4.971,3.81,3.81,0,0,0-.809-.755,2.871,2.871,0,0,0-1.612-.436c-.08,0-.159,0-.233.011a3.307,3.307,0,0,0-2.931,3.337c0,.13.006.259.018.388a9.751,9.751,0,0,0,2.455,4.48,18.1,18.1,0,0,0,4.771,3.943,23.651,23.651,0,0,0,6.328,2.5,22.483,22.483,0,0,0,10.24,0,23.649,23.649,0,0,0,6.328-2.5,18.119,18.119,0,0,0,4.771-3.943,9.748,9.748,0,0,0,2.454-4.48c.013-.129.018-.258.018-.388a3.307,3.307,0,0,0-2.931-3.337q-.113-.011-.234-.011a2.871,2.871,0,0,0-1.612.436,3.805,3.805,0,0,0-.809.755,22.012,22.012,0,0,1-6.291,4.971,15.012,15.012,0,0,1-6.815,1.83Zm0-.324a14.69,14.69,0,0,0,6.666-1.794,21.676,21.676,0,0,0,6.2-4.9,4.05,4.05,0,0,1,.875-.814,3.19,3.19,0,0,1,1.788-.489c.083,0,.171,0,.264.013a3.632,3.632,0,0,1,3.224,3.658q0,.2-.021.418a10.054,10.054,0,0,1-2.53,4.66,18.454,18.454,0,0,1-4.857,4.014,24,24,0,0,1-6.414,2.531,22.81,22.81,0,0,1-10.387,0,24,24,0,0,1-6.414-2.531A18.437,18.437,0,0,1,943.4,678.2a10.06,10.06,0,0,1-2.531-4.661q-.021-.22-.021-.418a3.632,3.632,0,0,1,3.224-3.658c.093-.009.181-.013.264-.013a3.188,3.188,0,0,1,1.788.489,4.048,4.048,0,0,1,.876.814,21.672,21.672,0,0,0,6.2,4.9A14.689,14.689,0,0,0,959.868,677.446Z" transform="translate(-937.51 -641.553)" fill="#231f20" fill-rule="evenodd"/>
  <path id="Path_13902" data-name="Path 13902" d="M956.725,681.889l-.052-.06a2.383,2.383,0,0,0-2.021-.975,2.827,2.827,0,0,0-1.973.931,2.9,2.9,0,0,0-.714,2.3c.146,1.551,2.609,5.573,6.993,8.065a22.306,22.306,0,0,0,22.438,0c4.385-2.493,6.848-6.514,6.994-8.065a2.894,2.894,0,0,0-.714-2.3,2.825,2.825,0,0,0-1.972-.931,2.383,2.383,0,0,0-2.022.975l-.053.06c-3.768,4.291-8.923,6.957-13.453,6.957S960.493,686.18,956.725,681.889Z" transform="translate(-947.857 -652.183)" fill="#e02e22" fill-rule="evenodd"/>
  <path id="Path_13903" data-name="Path 13903" d="M1436.785,567.162a3.91,3.91,0,1,1,3.91,3.91A3.91,3.91,0,0,1,1436.785,567.162Z" transform="translate(-1399.968 -542.519)" fill="#fff000" fill-rule="evenodd"/>
  <path id="Path_13904" data-name="Path 13904" d="M1434.713,564.924h0a3.748,3.748,0,1,0,1.1-2.651,3.736,3.736,0,0,0-1.1,2.651Zm-.324,0a4.071,4.071,0,1,1,1.193,2.879A4.059,4.059,0,0,1,1434.389,564.924Z" transform="translate(-1397.734 -540.281)" fill="#231f20" fill-rule="evenodd"/>
  <path id="Path_13905" data-name="Path 13905" d="M893.719,567.259a3.91,3.91,0,1,1,3.91,3.91A3.91,3.91,0,0,1,893.719,567.259Z" transform="translate(-893.557 -542.609)" fill="#fff000" fill-rule="evenodd"/>
  <path id="Path_13906" data-name="Path 13906" d="M891.645,565.021h0a3.748,3.748,0,1,0,1.1-2.65,3.735,3.735,0,0,0-1.1,2.65Zm-.324,0a4.072,4.072,0,1,1,1.193,2.879A4.058,4.058,0,0,1,891.321,565.021Z" transform="translate(-891.321 -540.371)" fill="#231f20" fill-rule="evenodd"/>
  <path id="Path_13907" data-name="Path 13907" d="M1466.026,385.117l.022-1.047a1.015,1.015,0,0,0,1.284-.13.98.98,0,0,0,.241-.717,1.33,1.33,0,0,0-.389-.86c-1.317-1.283-2.48-2.566-2.48-2.566a1.076,1.076,0,0,0-.417-.377.848.848,0,0,0-1.168.327,2.536,2.536,0,0,0-.264,1.754l1.235,1.679A19.939,19.939,0,0,0,1466.026,385.117Z" transform="translate(-1424.229 -370.991)" fill="#231f20" fill-rule="evenodd"/>
  <path id="Path_13908" data-name="Path 13908" d="M1120.521,288.588a19.854,19.854,0,0,1,4.88-1.12Z" transform="translate(-1105.051 -285.349)" fill="#231f20" fill-rule="evenodd"/>
  <path id="Path_13909" data-name="Path 13909" d="M1116.057,266.893a19.83,19.83,0,0,1,4.88-1.12l.291-.164a5.415,5.415,0,0,0-3.183-1.411c-.662,0-2.009.449-2.311,2.824Z" transform="translate(-1100.587 -263.65)" fill="#231f20" fill-rule="evenodd"/>
  <path id="Path_13910" data-name="Path 13910" d="M1253.248,266.893a19.834,19.834,0,0,0-4.88-1.12l-.291-.164a5.414,5.414,0,0,1,3.183-1.411c.662,0,2.009.449,2.311,2.824Z" transform="translate(-1223.997 -263.65)" fill="#231f20" fill-rule="evenodd"/>
  <path id="Path_13911" data-name="Path 13911" d="M1203.73,283.545c.316-.016,1.044-.032,1.336-.032s1.1.039,1.272.052Z" transform="translate(-1182.644 -281.661)" fill="#231f20" fill-rule="evenodd"/>
  <path id="Path_13912" data-name="Path 13912" d="M1196.6,258.12c.781-1.5,1.5-2.042,1.892-2.042.5,0,1.075.788,1.529,1.8l.1.228-.4-.033a11.572,11.572,0,0,0-1.3-.056c-.291,0-.923,0-1.3.032Z" transform="translate(-1175.995 -256.078)" fill="#231f20" fill-rule="evenodd"/>
  <path id="Path_13913" data-name="Path 13913" d="M1121.438,801.024l-.7,2.608-1.3-3.145-.811-.218-.988,3.688.88.236.7-2.629,1.324,3.173.79.212.988-3.688Z" transform="translate(-1102.361 -763.539)" fill="#fff000" fill-rule="evenodd"/>
  <rect id="Rectangle_1526" data-name="Rectangle 1526" width="3.818" height="1.004" transform="matrix(0.052, -0.999, 0.999, 0.052, 20.913, 41.711)" fill="#fff000"/>
  <path id="Path_13914" data-name="Path 13914" d="M1232.3,811.813l.07.5,1.069-.151.461,3.279.994-.14-.461-3.278,1.053-.148-.07-.5Z" transform="translate(-1209.29 -773.895)" fill="#fff000" fill-rule="evenodd"/>
  <path id="Path_13915" data-name="Path 13915" d="M1338.735,773.654h0l-1.294.747,1.915,3.318,1.285-.742a2,2,0,0,0,.936-2.866c-.633-1.107-1.672-1.132-2.842-.457Zm1.953,1.008c.486.851.388,1.469-.361,1.9l-.355.2-1.4-2.431.384-.222A1.121,1.121,0,0,1,1340.688,774.662Z" transform="translate(-1307.33 -738.297)" fill="#fff000" fill-rule="evenodd"/>
  <path id="Path_13916" data-name="Path 13916" d="M1293.33,800.852l-.381-1.172,1.131-.368-.159-.488-1.13.368-.326-1,1.162-.377-.157-.482-2.122.689,1.179,3.631,2.34-.76-.159-.488Z" transform="translate(-1264.349 -760.799)" fill="#fff000" fill-rule="evenodd"/>
  <path id="Path_13917" data-name="Path 13917" d="M1054.3,769.807l-1.131,2.04c-.341.615-.693,1-1.268.672-.571-.316-.439-.788-.089-1.419l1.133-2.044-.913-.506-1.2,2.159a1.571,1.571,0,0,0,.818,2.282,1.542,1.542,0,0,0,2.358-.509l1.2-2.169Z" transform="translate(-1039.839 -733.96)" fill="#fff000" fill-rule="evenodd"/>
  <path id="Path_13918" data-name="Path 13918" d="M1095.916,440.831v17.876l8.548,5.5,8.549-5.5.01-17.848a10.461,10.461,0,0,0-1.288-1.048h-14.58A13.789,13.789,0,0,0,1095.916,440.831Z" transform="translate(-1082.107 -427.41)" fill="#fff000" fill-rule="evenodd"/>
  <path id="Path_13919" data-name="Path 13919" d="M1093.839,454.922v17.788l8.387,5.391,8.387-5.391.011-17.76h.324l-.011,17.848v.088l-.075.048-8.548,5.495-.087.056-.087-.056-8.548-5.495-.075-.048V454.922Z" transform="translate(-1079.868 -441.501)" fill="#231f20" fill-rule="evenodd"/>
  <path id="Path_13920" data-name="Path 13920" d="M1330.3,439.072l-.1-.091h0a9.336,9.336,0,0,0-1.163-.94l.168-.276a9.509,9.509,0,0,1,1.213.975h0l.1.09Z" transform="translate(-1299.495 -425.502)" fill="#231f20" fill-rule="evenodd"/>
  <rect id="Rectangle_1527" data-name="Rectangle 1527" width="14.58" height="0.324" transform="translate(15.048 12.239)" fill="#231f20"/>
  <path id="Path_13921" data-name="Path 13921" d="M1095.606,438.11c-.175.122-.421.316-.646.5-.264.217-.5.425-.566.495l-.238-.219c.071-.078.323-.3.6-.525.24-.2.5-.4.665-.518Z" transform="translate(-1080.465 -425.576)" fill="#231f20" fill-rule="evenodd"/>
  <path id="Path_13922" data-name="Path 13922" d="M1135.408,547.436h0v-.664a.729.729,0,0,0-.615-.275c-.437,0-.7.129-.7.243,0,.178.389.7,1.311.7Zm-3.448-5.883h0l.664-1.155.517,1.155H1134a2.481,2.481,0,0,0-.728,1.706v.534a2.722,2.722,0,0,1-.114.6s.743.568.858.664c.049.04.1.064.065.162-.059.167-.562.391-.615.437-.113.1-.144.161-.111.259s.127.114.321.049.6-.275.939-.42a2,2,0,0,1,.793-.114v-.648h-1.279v-2.072l-.227-.362.567-1,.567,1.01-.227.356v1.085h.656v-1.085l-.227-.356.566-1,.566,1-.226.356v1.085h.656v-1.085l-.226-.356.566-1,.567,1-.227.356.007,2.071H1136.2v.952a2.157,2.157,0,0,1,.567,1.267.647.647,0,0,1-.243.535,1.4,1.4,0,0,1,.032.68,1.987,1.987,0,0,1-.373.7v4.937c0,.336-.777.3-.777.016v-4.839a4.743,4.743,0,0,0-1.635-.858,3.842,3.842,0,0,0-.712,1.2.513.513,0,0,0,.6-.13.4.4,0,0,1,.47-.081c.129.081.162.114.113.308a3.582,3.582,0,0,0-.129.742c0,.227.259.178.453.195.388.032.453.469.421.712a9.243,9.243,0,0,0-.146,1.085,5.484,5.484,0,0,0,.049.826,2.238,2.238,0,0,1,.081.6c-.022.308-.21.357-.4.163s-2.9-3.077-2.9-3.077c-.178.583.567,1.586.81,1.895s.226.534.016.744-.615.324-.7.518.194.778.761,1.506-.648,1.215-1.376,1.36-.729-.356-.68-.632a2.471,2.471,0,0,0,.032-.68,2.383,2.383,0,0,0-.551-.988c-.308-.4-.308-.777-.178-1.716a8.915,8.915,0,0,0,.1-1.538s-.324.016-.794,0-.858-.289-.89-1.423-.059-3.837-.135-4.117-.378-.335-.507-.367a.158.158,0,0,1-.009-.292c.337-.168.743-.582.592-.841s-.745-.205-1.144-.011a3.752,3.752,0,0,0-.928.734c-.108.119-.194.119-.183-.01a5.9,5.9,0,0,0-.129-.961,4.047,4.047,0,0,0-.313-.734c-.065-.108,0-.151.108-.108s.345.14.572.2a.462.462,0,0,0,.551-.259c.108-.216.313-.68.421-.885s.281-.162.421-.129a2.587,2.587,0,0,1,.4.173c.13.054.237.043.281-.021a1,1,0,0,0,.173-.249c.075-.162.172-.086.183-.021.387,2.321,1.392,2.429,1.392,2.429a10.771,10.771,0,0,1-.594,1.155,1.488,1.488,0,0,0-.14.518,16.673,16.673,0,0,0,.162,2.256c.108.561.453.346.561.173s.443-.885.443-.885a1.059,1.059,0,0,0,.086-.356c0-.162-.281-.518-.345-.626a1.276,1.276,0,0,1-.3-.863,1.484,1.484,0,0,1,.658-1.058.456.456,0,0,0,.151-.453,6.636,6.636,0,0,0-.734-1.63c-.216-.334-.637-.971-.637-.971h.874l.561-1.166.615,1.171.637.005Zm-.142,3.541h0a3.813,3.813,0,0,0,.407-.961h-.822a4.016,4.016,0,0,0,.415.961Zm-.858-2.378h0c.036.243.215.336.352.263s.109-.271.012-.425-.3-.326-.358-.3-.027.324-.007.461Zm1.636-.461c-.06-.026-.272.146-.37.3s-.126.352.012.425.311-.021.352-.263C1132.616,542.575,1132.661,542.284,1132.6,542.255Z" transform="translate(-1109.635 -521.188)" fill="#e02e22" fill-rule="evenodd"/>
  <rect id="Rectangle_1528" data-name="Rectangle 1528" width="15.771" height="1.076" transform="translate(14.479 17.88)" fill="#e02e22"/>
  <rect id="Rectangle_1529" data-name="Rectangle 1529" width="15.771" height="4.285" transform="translate(14.479 13.043)" fill="#e02e22"/>
  <path id="Path_13923" data-name="Path 13923" d="M1147.366,461.6v-.732h-1.146V460.4h.935v-2.073h-.858l-.291-.566-.292.566h-.858V460.4h.935v.472h-2.244V460.4h.934v-2.073h-.858l-.292-.566-.291.566h-.858V460.4h.935v.472h-2.288V460.4h.935v-2.073h-.858l-.291-.566-.292.566h-.858V460.4h.935v.472l-1.809.005-1.8-.421.364,1.148Z" transform="translate(-1120.22 -444.148)" fill="#fff000" fill-rule="evenodd"/>
  <path id="Path_13924" data-name="Path 13924" d="M1146.012,468.924l1.209.3.648-1.82v-.459Z" transform="translate(-1128.821 -452.71)" fill="#fff000" fill-rule="evenodd"/>
  <path id="Path_13925" data-name="Path 13925" d="M1126.411,270.426a17.563,17.563,0,0,0-4.546,1.075,3.3,3.3,0,0,1,.53-1.428c-.021.339.255.7.805.7s.856-.317.856-.508a.434.434,0,0,0-.412-.465c-.3,0-.359.212-.339.3s-.042.106-.127.127-.317-.106-.233-.4c.093-.326.487-.5.952-.5A4.124,4.124,0,0,1,1126.411,270.426Z" transform="translate(-1106.304 -268.423)" fill="#fff000" fill-rule="evenodd"/>
  <path id="Path_13926" data-name="Path 13926" d="M1260.021,271.673a17.961,17.961,0,0,0-4.6-1.075,4.7,4.7,0,0,1,2.551-1.111c.465,0,.859.177.951.5.085.3-.148.423-.233.4s-.148-.043-.127-.127-.043-.3-.339-.3a.434.434,0,0,0-.412.466c0,.19.306.508.856.508s.827-.361.805-.7A3.3,3.3,0,0,1,1260.021,271.673Z" transform="translate(-1230.848 -268.582)" fill="#fff000" fill-rule="evenodd"/>
  <path id="Path_13927" data-name="Path 13927" d="M1204.265,262.767c-.05.08-.094.14-.148.229.309-.016,1.023-.032,1.309-.032s1.074.038,1.247.051c-.279-.646-.806-1.538-1.173-1.538-.073,0-.233-.038-.535.31,0,0-.047.153.145.124.243-.037.335.214.317.339a.759.759,0,0,1-.719.571A1.1,1.1,0,0,1,1204.265,262.767Z" transform="translate(-1183.004 -261.112)" fill="#fff000" fill-rule="evenodd"/>
  <path id="Path_13928" data-name="Path 13928" d="M916.1,383.18l1.236-1.679a2.54,2.54,0,0,0-.264-1.754.849.849,0,0,0-1.169-.327,1.082,1.082,0,0,0-.417.377s-1.185,1.31-2.5,2.6a1.409,1.409,0,0,0-.4.826,1.018,1.018,0,0,0,.257.728,1.037,1.037,0,0,0,1.3.119l.021,1.047A19.83,19.83,0,0,0,916.1,383.18Z" transform="translate(-911.148 -370.991)" fill="#231f20" fill-rule="evenodd"/>
  <path id="Path_13929" data-name="Path 13929" d="M937.435,293.725c7.038,0,11.045,6.608,11.916,7.769,1.554,2.072,3.453,3.753,5.656,3.195,3.238-.82,3.065-5.618,3.065-5.618-.777-.562-2.109-1.269-4.533-4.706a19.685,19.685,0,0,0-32.207,0c-2.424,3.437-3.756,4.144-4.533,4.706,0,0-.173,4.8,3.065,5.618,2.2.558,4.1-1.122,5.656-3.195C926.389,300.334,930.4,293.725,937.435,293.725Z" transform="translate(-915.077 -283.982)" fill="#fff000" fill-rule="evenodd"/>
  <path id="Path_13930" data-name="Path 13930" d="M935.194,291.654h0c-6.376,0-10.247,5.516-11.506,7.311-.111.158-.2.288-.281.393a10.821,10.821,0,0,1-2.626,2.623,3.946,3.946,0,0,1-3.2.632c-3.366-.853-3.188-5.765-3.188-5.779l0-.079.065-.047c.088-.064.177-.125.272-.191a15.537,15.537,0,0,0,4.223-4.478,20.573,20.573,0,0,1,7.193-6.25,19.827,19.827,0,0,1,18.086,0,20.57,20.57,0,0,1,7.193,6.25,15.543,15.543,0,0,0,4.223,4.477c.1.066.184.127.272.191l.066.047,0,.079c0,.014.178,4.926-3.188,5.779a3.945,3.945,0,0,1-3.2-.632,10.823,10.823,0,0,1-2.626-2.623c-.079-.106-.17-.235-.281-.393-1.26-1.795-5.13-7.311-11.506-7.311Zm0-.324c6.544,0,10.487,5.62,11.77,7.449.116.165.211.3.275.385a10.509,10.509,0,0,0,2.543,2.545,3.64,3.64,0,0,0,2.945.59c2.875-.728,2.949-4.761,2.943-5.377l-.2-.14a15.83,15.83,0,0,1-4.3-4.557,20.242,20.242,0,0,0-7.077-6.149,19.511,19.511,0,0,0-17.79,0,20.241,20.241,0,0,0-7.077,6.149,15.822,15.822,0,0,1-4.3,4.557l-.2.14c-.005.616.069,4.649,2.944,5.377a3.64,3.64,0,0,0,2.945-.59,10.509,10.509,0,0,0,2.543-2.545c.064-.085.158-.22.274-.385C924.707,296.951,928.651,291.33,935.194,291.33Z" transform="translate(-912.836 -281.749)" fill="#231f20" fill-rule="evenodd"/>
  <path id="Path_13931" data-name="Path 13931" d="M946.28,301.719c6.784,0,10.822,5.755,12.149,7.646.107.154.2.286.265.373,1.8,2.393,3.432,3.363,5,2.965,2.274-.576,2.553-3.7,2.584-4.65v-.035l-.029-.02a16.2,16.2,0,0,1-4.381-4.655,19.062,19.062,0,0,0-31.189,0,16.393,16.393,0,0,1-4.375,4.641l-.029.02v.035c.033.949.315,4.09,2.579,4.664,1.573.4,3.209-.571,5-2.965.065-.087.158-.22.266-.373C935.458,307.474,939.5,301.719,946.28,301.719Z" transform="translate(-923.922 -292.6)" fill="#e02e22" fill-rule="evenodd"/>
  <path id="Path_13932" data-name="Path 13932" d="M967.075,430.466l-.708.844,1.328,2.745-2.85-.931-.61.727,2.925,2.454.442-.526-2.065-1.74,2.77.9.291-.347-1.319-2.645,2.077,1.742.645-.769Z" transform="translate(-959.314 -418.696)" fill="#fff000" fill-rule="evenodd"/>
  <path id="Path_13933" data-name="Path 13933" d="M1029.241,396.278h0l-.651.7,1.829,3.637.446-.479-.5-.963.885-.949,1,.424.737-.79-3.748-1.579Zm1.543,1.733-.662.71-.679-1.312Z" transform="translate(-1019.325 -386.815)" fill="#fff000" fill-rule="evenodd"/>
  <path id="Path_13934" data-name="Path 13934" d="M1070.273,338.365l1.431,2.29-3.188-1.192-.713.445,2.024,3.238.773-.482-1.443-2.308,3.223,1.2.694-.434-2.023-3.238Z" transform="translate(-1055.891 -332.358)" fill="#fff000" fill-rule="evenodd"/>
  <path id="Path_13935" data-name="Path 13935" d="M1267.941,325.137l.4-1.165,1.124.387.168-.485-1.125-.387.342-1,1.155.4.165-.48-2.109-.726-1.243,3.61,2.326.8.167-.485Z" transform="translate(-1241.475 -317.255)" fill="#fff000" fill-rule="evenodd"/>
  <path id="Path_13936" data-name="Path 13936" d="M1355.915,369.275l-.344.373.8.723-2.216,2.461.746.671,2.216-2.46.791.712.339-.377Z" transform="translate(-1322.918 -361.634)" fill="#fff000" fill-rule="evenodd"/>
  <path id="Path_13937" data-name="Path 13937" d="M1382.04,414.183l.944-.792.764.911.393-.33-.764-.911.806-.677.786.936.388-.326-1.434-1.709L1381,413.74l1.581,1.884.393-.329Z" transform="translate(-1347.948 -400.809)" fill="#fff000" fill-rule="evenodd"/>
  <path id="Path_13938" data-name="Path 13938" d="M1415.109,452.093h0a1.113,1.113,0,0,0,1.235-.283c.539-.486.358-1.152-.2-1.776l-1.04-1.155-2.837,2.555.671.746,1.127-1.015.332.369-.718,1.608.852.686.582-1.734Zm.508-1.881a.6.6,0,0,1-.037.921.654.654,0,0,1-.979-.109l-.172-.191.964-.868Z" transform="translate(-1377.101 -435.866)" fill="#fff000" fill-rule="evenodd"/>
  <path id="Path_13939" data-name="Path 13939" d="M1206.184,316.34l-.027,1.559-1.5-.026.027-1.56-1-.017-.066,3.817,1,.018.03-1.746,1.5.026-.031,1.745,1,.018.067-3.818Z" transform="translate(-1182.537 -312.232)" fill="#fff000" fill-rule="evenodd"/>
  <path id="Path_13940" data-name="Path 13940" d="M1309.116,350.02a1.284,1.284,0,0,0,1.852-.244,1.217,1.217,0,0,0-.048-1.392c-.085-.18-.19-.308-.262-.467-.139-.264-.269-.478-.146-.682s.438-.234.718-.066a1.115,1.115,0,0,1,.474.672l.462-.2a1.832,1.832,0,0,0-.826-1c-.817-.49-1.482-.361-1.759.1a1.15,1.15,0,0,0,.008,1.245s.134.229.212.379c.182.31.4.7.247.943a.543.543,0,0,1-.806.181,1.245,1.245,0,0,1-.567-.819l-.506.219A1.954,1.954,0,0,0,1309.116,350.02Z" transform="translate(-1280.033 -340.238)" fill="#fff000" fill-rule="evenodd"/>
  <path id="Path_13941" data-name="Path 13941" d="M1142.438,319.1a2.024,2.024,0,0,0-1.8,2.427,2.286,2.286,0,0,0,3.741.934l-.349-.4a1.272,1.272,0,0,1-.761.449,1.5,1.5,0,1,1,.269-2.84h.005l.116-.487A1.955,1.955,0,0,0,1142.438,319.1Z" transform="translate(-1123.763 -314.796)" fill="#fff000" fill-rule="evenodd"/>
  <path id="Path_13942" data-name="Path 13942" d="M1467.268,385.963a2.642,2.642,0,0,1,.24-1.7c.339-.47.648-.311.814-.238a.633.633,0,0,1,.343.464.817.817,0,0,1-.143.548,2.068,2.068,0,0,1-.761.5,10.532,10.532,0,0,0,2.112,2.645l0,.9A14.089,14.089,0,0,1,1467.268,385.963Z" transform="translate(-1428.353 -375.306)" fill="#fff000" fill-rule="evenodd"/>
  <path id="Path_13943" data-name="Path 13943" d="M1482.474,397.06a9.913,9.913,0,0,0,1.922,2.312.746.746,0,0,0,1,.028.7.7,0,0,0,.17-.509,1.025,1.025,0,0,0-.3-.635c-.247-.211-1.308-1.284-2.069-2.126a1.6,1.6,0,0,1-.151.41A1.365,1.365,0,0,1,1482.474,397.06Z" transform="translate(-1442.573 -386.676)" fill="#fff000" fill-rule="evenodd"/>
  <path id="Path_13944" data-name="Path 13944" d="M940.086,389.023l-.005-.846a10.57,10.57,0,0,0,2.114-2.641,2.063,2.063,0,0,1-.761-.5.814.814,0,0,1-.144-.548.636.636,0,0,1,.343-.464c.166-.074.475-.233.814.238a2.589,2.589,0,0,1,.219,1.7A16.845,16.845,0,0,1,940.086,389.023Z" transform="translate(-936.79 -375.306)" fill="#fff000" fill-rule="evenodd"/>
  <path id="Path_13945" data-name="Path 13945" d="M920.929,397.06a9.871,9.871,0,0,1-1.922,2.312.745.745,0,0,1-1,.028.7.7,0,0,1-.17-.509,1.022,1.022,0,0,1,.3-.635c.246-.211,1.308-1.284,2.069-2.126a1.6,1.6,0,0,0,.151.41A1.365,1.365,0,0,0,920.929,397.06Z" transform="translate(-916.041 -386.676)" fill="#fff000" fill-rule="evenodd"/>
  <path id="Path_13946" data-name="Path 13946" d="M904.62,577.816A3.181,3.181,0,1,1,907.8,581,3.181,3.181,0,0,1,904.62,577.816Z" transform="translate(-903.722 -553.134)" fill="#e02e22" fill-rule="evenodd"/>
  <path id="Path_13947" data-name="Path 13947" d="M912.552,584.755a2.921,2.921,0,0,0,2.063-2.762,2.608,2.608,0,0,0-.055-.476c-.022-.123-.115-.138-.157-.053a2.713,2.713,0,0,1-.714.906,2.6,2.6,0,0,1-1.7.613c-.084,0-.128.133-.128.254a2.908,2.908,0,0,0,.372,1.367c.077.088.153.205.317.152Zm-.755.117c-.021,0-.041,0-.061,0a3.26,3.26,0,0,1-1.454-.393c-.355-.2-.488-1.108-.488-1.573a4.755,4.755,0,0,1,.717-2.577.417.417,0,0,1,.482-.154c.164.044.228.078.416.134.1.032.307.074.46.107s.317.066.219.351a5.67,5.67,0,0,0-.465,1.788,5.331,5.331,0,0,0,.233,1.919c.108.292.107.4-.058.4Zm-2.179-3.433c.142.079.165-.011.186-.1a4.877,4.877,0,0,1,.569-1.171.438.438,0,0,0,.057-.316c0-.067-.035-.174-.035-.242,0-.123-.077-.12-.126-.1a2.32,2.32,0,0,0-1,.991.563.563,0,0,0-.017.388c.055.107.224.468.366.547Zm-.076,2.411h0a2.7,2.7,0,0,1-.686-1.858,2.886,2.886,0,0,1,.123-.837s.067-.121.133-.018c.047.074.11.149.167.249s.368.337.339.523a6.866,6.866,0,0,0,.022,1.8c.033.154-.015.227-.1.145Zm1.258-4.582a.355.355,0,0,0-.174.3c0,.088.076.287.417.394a4.521,4.521,0,0,0,1.215.263c.393,0,.983-.127.983-.5a.272.272,0,0,0-.133-.261,2.523,2.523,0,0,0-1.373-.348,2.962,2.962,0,0,0-.936.156Zm2.661.419.193.157a2.506,2.506,0,0,1,.668.88c.182.435-.379,1.088-.543,1.24a2.194,2.194,0,0,1-1.468.719.336.336,0,0,1-.426-.325,5.239,5.239,0,0,1,.547-1.763.69.69,0,0,1,.208-.2,1.473,1.473,0,0,0,.677-.35A.634.634,0,0,0,913.461,579.688Z" transform="translate(-907.672 -557.309)" fill="#fff000" fill-rule="evenodd"/>
  <path id="Path_13948" data-name="Path 13948" d="M1454.479,577.816A3.181,3.181,0,1,0,1451.3,581,3.18,3.18,0,0,0,1454.479,577.816Z" transform="translate(-1410.536 -553.134)" fill="#e02e22" fill-rule="evenodd"/>
  <path id="Path_13949" data-name="Path 13949" d="M1452.785,581.993a2.922,2.922,0,0,0,2.063,2.762c.165.053.241-.064.317-.152a2.9,2.9,0,0,0,.372-1.367c0-.12-.044-.252-.127-.254a2.6,2.6,0,0,1-1.7-.613,2.709,2.709,0,0,1-.714-.906c-.043-.085-.135-.07-.157.053a2.568,2.568,0,0,0-.056.476Zm2.761,2.482a5.348,5.348,0,0,0,.232-1.919,5.7,5.7,0,0,0-.464-1.788c-.1-.285.065-.318.218-.351s.357-.076.46-.107c.188-.056.251-.09.416-.134a.417.417,0,0,1,.482.154,4.757,4.757,0,0,1,.717,2.577c0,.465-.133,1.374-.489,1.573a3.258,3.258,0,0,1-1.454.393c-.02,0-.041,0-.061,0-.164.006-.166-.1-.057-.4Zm2.05-3.134c.022.087.045.177.186.1a1.64,1.64,0,0,0,.366-.547.559.559,0,0,0-.017-.388,2.32,2.32,0,0,0-1-.991c-.049-.023-.125-.025-.125.1,0,.068-.034.176-.035.242a.44.44,0,0,0,.057.316,4.872,4.872,0,0,1,.569,1.171Zm.164,2.365h0a6.873,6.873,0,0,0,.022-1.8c-.029-.186.282-.423.34-.523s.12-.175.167-.249c.065-.1.133.018.133.018a2.875,2.875,0,0,1,.123.836,2.7,2.7,0,0,1-.687,1.858c-.083.082-.131.008-.1-.145Zm-.986-4.138a.355.355,0,0,0-.174-.3,2.966,2.966,0,0,0-.936-.155,2.524,2.524,0,0,0-1.373.348.273.273,0,0,0-.132.261c0,.375.59.5.983.5a4.524,4.524,0,0,0,1.215-.263c.341-.107.417-.306.417-.394Zm-2.691.482a1.47,1.47,0,0,0,.676.35.69.69,0,0,1,.208.2,5.261,5.261,0,0,1,.548,1.763.337.337,0,0,1-.427.325,2.191,2.191,0,0,1-1.467-.719c-.164-.153-.725-.806-.543-1.24a2.5,2.5,0,0,1,.668-.88l.192-.157A.633.633,0,0,0,1454.084,580.049Z" transform="translate(-1414.888 -557.309)" fill="#fff000" fill-rule="evenodd"/>
  <path id="Path_13950" data-name="Path 13950" d="M1448.352,577.343h0a3.165,3.165,0,1,0,.927-2.237,3.155,3.155,0,0,0-.927,2.237Zm-.032,0a3.2,3.2,0,1,1,.937,2.261A3.186,3.186,0,0,1,1448.32,577.343Z" transform="translate(-1410.725 -552.678)" fill="#ffe500" fill-rule="evenodd"/>
</svg>
