<svg id="related_star_logo" xmlns="http://www.w3.org/2000/svg" xmlns:xlink="http://www.w3.org/1999/xlink" width="177.057" height="19.81" viewBox="0 0 177.057 19.81">
  <defs>
    <linearGradient id="linear-gradient" x1="0.091" y1="0.5" x2="0.955" y2="0.5" gradientUnits="objectBoundingBox">
      <stop offset="0" stop-color="#f17874"/>
      <stop offset="1" stop-color="#ffe800"/>
    </linearGradient>
    <linearGradient id="linear-gradient-2" x1="-0.061" y1="0.5" x2="0.81" y2="0.5" xlink:href="#linear-gradient"/>
    <linearGradient id="linear-gradient-3" x1="0.168" y1="0.5" x2="1.168" y2="0.5" xlink:href="#linear-gradient"/>
    <linearGradient id="linear-gradient-4" x1="0.178" y1="0.5" x2="1.061" y2="0.5" xlink:href="#linear-gradient"/>
    <linearGradient id="linear-gradient-5" x1="0.035" y1="0.5" x2="0.946" y2="0.5" xlink:href="#linear-gradient"/>
    <linearGradient id="linear-gradient-7" x1="0.178" y1="0.5" x2="1.061" y2="0.5" xlink:href="#linear-gradient"/>
    <linearGradient id="linear-gradient-9" x1="0.028" y1="0.5" x2="0.905" y2="0.5" xlink:href="#linear-gradient"/>
    <linearGradient id="linear-gradient-10" x1="0.127" y1="0.5" x2="0.886" y2="0.5" xlink:href="#linear-gradient"/>
  </defs>
  <g id="Group_790" data-name="Group 790" transform="translate(0 0)">
    <g id="Group_788" data-name="Group 788" transform="translate(0.653 0.916)">
      <path id="Path_11219" data-name="Path 11219" d="M1909.254-563.084a5.984,5.984,0,0,1-1.688-.235,4.309,4.309,0,0,1-1.445-.73,4.083,4.083,0,0,1-1.479-2.239,5.585,5.585,0,0,1,.1-3.006h4.268a1.582,1.582,0,0,0,0,1.15,1.548,1.548,0,0,0,.421.557,1.5,1.5,0,0,0,.893.322,2.646,2.646,0,0,0,1.092-.2,2.447,2.447,0,0,0,.675-.371,3.1,3.1,0,0,0,.452-.433,1.64,1.64,0,0,0,.256-.408,3.292,3.292,0,0,0,.118-.322,2.864,2.864,0,0,0,.067-.321,1.113,1.113,0,0,0-.018-.421,1.164,1.164,0,0,0-.2-.433,1.454,1.454,0,0,0-.458-.384,4.194,4.194,0,0,0-.53-.223q-.288-.1-.605-.223-.575-.2-1.186-.445a5.2,5.2,0,0,1-1.172-.668,3.471,3.471,0,0,1-1.1-1.361,4.138,4.138,0,0,1-.368-1.756,5.59,5.59,0,0,1,.38-1.942,6.858,6.858,0,0,1,1.118-1.918,8.321,8.321,0,0,1,1.555-1.46,7.926,7.926,0,0,1,1.8-.977,6.754,6.754,0,0,1,1.917-.433,5.589,5.589,0,0,1,1.9.173,4.2,4.2,0,0,1,1.533.705,3.6,3.6,0,0,1,1.01,1.163,3.714,3.714,0,0,1,.43,1.521,5.043,5.043,0,0,1-.2,1.757h-4.247q.163-.569-.139-.792a1.831,1.831,0,0,0-.559-.3,1.53,1.53,0,0,1-.229-.037,1.24,1.24,0,0,0-.429,0,1.986,1.986,0,0,0-.542.173,1.485,1.485,0,0,0-.528.433,1.3,1.3,0,0,0-.313.829.83.83,0,0,0,.31.68,4,4,0,0,0,.68.359q.383.161.821.309.393.124.792.272a8.07,8.07,0,0,1,.794.346,3.926,3.926,0,0,1,1.974,2.177,5.031,5.031,0,0,1,.027,3.191,7.671,7.671,0,0,1-1.85,3.167,8.872,8.872,0,0,1-3.223,2.177,7.759,7.759,0,0,1-1.458.433A7.562,7.562,0,0,1,1909.254-563.084Z" transform="translate(-1904.482 581.978)" fill="url(#linear-gradient)"/>
      <path id="Path_11220" data-name="Path 11220" d="M1997.264-580.607l-1.2,4.181H1992.5l-4.03,14.053h-4.268l4.03-14.053H1984.7l1.2-4.181Z" transform="translate(-1965.948 580.921)" fill="url(#linear-gradient-2)"/>
      <path id="Path_11221" data-name="Path 11221" d="M2043.805-562.123l-.1-2.2h-5.835l-1.389,2.2h-4.521l11.522-18.16h4.041l.779,18.16Zm-3.272-6.383h3.006l-.2-4.4Z" transform="translate(-2002.766 580.671)" fill="url(#linear-gradient-3)"/>
      <path id="Path_11222" data-name="Path 11222" d="M2126.817-566.574q-.343.05-.678.074l-.7.05-1.312,4.577h-4.268l5.186-18.085h4.268a7.217,7.217,0,0,1,2.817.568,5.6,5.6,0,0,1,2.02,1.458,4.618,4.618,0,0,1,1.032,2.125,5.415,5.415,0,0,1-.15,2.594,7.773,7.773,0,0,1-1.407,2.706,10,10,0,0,1-2.388,2.162l2.236,6.473h-5.026Zm-.168-4.082a5.253,5.253,0,0,0,1.368-.235,5.493,5.493,0,0,0,1.245-.557,4.083,4.083,0,0,0,.963-.8,2.574,2.574,0,0,0,.545-.977,1.664,1.664,0,0,0,.011-.965,1.818,1.818,0,0,0-.505-.792,2.748,2.748,0,0,0-.927-.557,3.892,3.892,0,0,0-1.234-.235Z" transform="translate(-2070.539 580.421)" fill="url(#linear-gradient-4)"/>
    </g>
    <g id="Group_789" data-name="Group 789">
      <path id="Path_11223" data-name="Path 11223" d="M1906.4-567.084a5.984,5.984,0,0,1-1.688-.235,4.313,4.313,0,0,1-1.445-.73,4.082,4.082,0,0,1-1.479-2.239,5.587,5.587,0,0,1,.1-3.006h4.269a1.585,1.585,0,0,0,0,1.15,1.546,1.546,0,0,0,.422.557,1.5,1.5,0,0,0,.893.322,2.645,2.645,0,0,0,1.092-.2,2.45,2.45,0,0,0,.675-.371,3.126,3.126,0,0,0,.452-.433,1.639,1.639,0,0,0,.256-.408,3.28,3.28,0,0,0,.118-.322,2.859,2.859,0,0,0,.067-.321,1.118,1.118,0,0,0-.018-.421,1.175,1.175,0,0,0-.2-.433,1.454,1.454,0,0,0-.458-.384,4.205,4.205,0,0,0-.53-.223q-.287-.1-.605-.223-.575-.2-1.186-.445a5.2,5.2,0,0,1-1.172-.668,3.47,3.47,0,0,1-1.1-1.361,4.145,4.145,0,0,1-.368-1.756,5.587,5.587,0,0,1,.38-1.942,6.87,6.87,0,0,1,1.119-1.917,8.315,8.315,0,0,1,1.555-1.46,7.934,7.934,0,0,1,1.8-.977,6.756,6.756,0,0,1,1.917-.433,5.586,5.586,0,0,1,1.895.173,4.2,4.2,0,0,1,1.534.705,3.6,3.6,0,0,1,1.01,1.163,3.712,3.712,0,0,1,.43,1.522,5.05,5.05,0,0,1-.2,1.757h-4.247q.163-.569-.14-.792a1.827,1.827,0,0,0-.559-.3,1.527,1.527,0,0,1-.229-.037,1.244,1.244,0,0,0-.429,0,1.985,1.985,0,0,0-.542.173,1.487,1.487,0,0,0-.528.433,1.3,1.3,0,0,0-.313.829.83.83,0,0,0,.31.68,3.986,3.986,0,0,0,.68.359q.383.161.821.309.393.124.792.272a8.066,8.066,0,0,1,.794.346,3.925,3.925,0,0,1,1.974,2.177,5.034,5.034,0,0,1,.026,3.191,7.67,7.67,0,0,1-1.85,3.167,8.873,8.873,0,0,1-3.223,2.177,7.764,7.764,0,0,1-1.459.433A7.559,7.559,0,0,1,1906.4-567.084Z" transform="translate(-1901.63 585.978)" fill="#fff"/>
      <path id="Path_11224" data-name="Path 11224" d="M1994.41-584.607l-1.2,4.181h-3.561l-4.03,14.053h-4.268l4.03-14.053h-3.536l1.2-4.181Z" transform="translate(-1963.095 584.921)" fill="#fff"/>
      <path id="Path_11225" data-name="Path 11225" d="M2040.952-566.123l-.1-2.2h-5.834l-1.389,2.2h-4.521l11.522-18.16h4.041l.779,18.16Zm-3.272-6.383h3.005l-.2-4.4Z" transform="translate(-1999.913 584.671)" fill="#fff"/>
      <path id="Path_11226" data-name="Path 11226" d="M2123.964-570.574c-.228.033-.455.058-.678.074l-.7.049-1.312,4.577h-4.268l5.186-18.086h4.268a7.215,7.215,0,0,1,2.817.568,5.586,5.586,0,0,1,2.019,1.458,4.621,4.621,0,0,1,1.033,2.125,5.415,5.415,0,0,1-.151,2.594,7.772,7.772,0,0,1-1.408,2.706,10,10,0,0,1-2.387,2.162l2.235,6.473H2125.6Zm-.167-4.082a5.247,5.247,0,0,0,1.368-.235,5.49,5.49,0,0,0,1.246-.557,4.084,4.084,0,0,0,.963-.8,2.577,2.577,0,0,0,.545-.977,1.667,1.667,0,0,0,.011-.965,1.822,1.822,0,0,0-.506-.792,2.752,2.752,0,0,0-.926-.557,3.9,3.9,0,0,0-1.234-.235Z" transform="translate(-2067.686 584.421)" fill="#fff"/>
    </g>
  </g>
  <path id="Path_11227" data-name="Path 11227" d="M2216.577-549.612l-12.167-.025,1.2-4.181,12.166.025Z" transform="translate(-2135.071 561.183)" fill="url(#linear-gradient-5)"/>
  <g id="Group_793" data-name="Group 793" transform="translate(87.36 0.314)">
    <g id="Group_791" data-name="Group 791" transform="translate(0.653 0.916)">
      <path id="Path_11228" data-name="Path 11228" d="M2299.014-580.607l-1.2,4.181h-3.561l-4.029,14.053h-4.269l4.03-14.053h-3.536l1.2-4.181Z" transform="translate(-2285.955 580.607)" fill="url(#linear-gradient-2)"/>
      <path id="Path_11229" data-name="Path 11229" d="M2346.069-566.574q-.343.05-.677.074l-.7.05-1.312,4.577h-4.268l5.186-18.085h4.268a7.221,7.221,0,0,1,2.818.568,5.6,5.6,0,0,1,2.019,1.458,4.613,4.613,0,0,1,1.032,2.125,5.415,5.415,0,0,1-.15,2.594,7.781,7.781,0,0,1-1.407,2.706,10,10,0,0,1-2.388,2.162l2.236,6.473H2347.7Zm-.168-4.082a5.239,5.239,0,0,0,1.368-.235,5.489,5.489,0,0,0,1.246-.557,4.06,4.06,0,0,0,.962-.8,2.575,2.575,0,0,0,.546-.977,1.666,1.666,0,0,0,.011-.965,1.81,1.81,0,0,0-.5-.792,2.748,2.748,0,0,0-.927-.557,3.888,3.888,0,0,0-1.233-.235Z" transform="translate(-2326.941 580.107)" fill="url(#linear-gradient-7)"/>
      <path id="Path_11230" data-name="Path 11230" d="M2424.192-562.123l-.1-2.2h-5.834l-1.389,2.2h-4.521l11.521-18.16h4.041l.778,18.16Zm-3.271-6.383h3.006l-.2-4.4Z" transform="translate(-2383.402 580.357)" fill="url(#linear-gradient-3)"/>
      <path id="Path_11231" data-name="Path 11231" d="M2511.555-562.315a8.252,8.252,0,0,1-3.31-.656,6,6,0,0,1-2.5-1.992,6.5,6.5,0,0,1-1.16-2.956,8.423,8.423,0,0,1,.3-3.476,11.5,11.5,0,0,1,1.7-3.5,13.543,13.543,0,0,1,2.848-2.932,13.166,13.166,0,0,1,3.656-2,11.147,11.147,0,0,1,3.689-.668,8.067,8.067,0,0,1,3.294.668,6.1,6.1,0,0,1,2.494,2l-3.85,2.944a3.25,3.25,0,0,0-1.358-1.076,4.482,4.482,0,0,0-1.792-.359,6,6,0,0,0-1.985.359,7.072,7.072,0,0,0-1.963,1.076,7.8,7.8,0,0,0-1.547,1.608,6.168,6.168,0,0,0-.918,1.88,4.442,4.442,0,0,0-.157,1.868,3.656,3.656,0,0,0,.629,1.6,3.259,3.259,0,0,0,1.345,1.076,4.38,4.38,0,0,0,1.779.359,6.1,6.1,0,0,0,2-.359,7.011,7.011,0,0,0,1.976-1.076l2.154,2.969a13.018,13.018,0,0,1-3.627,1.992A11.175,11.175,0,0,1,2511.555-562.315Z" transform="translate(-2454.467 580.524)" fill="url(#linear-gradient-9)"/>
      <path id="Path_11232" data-name="Path 11232" d="M2602.033-580.391l-12.133,9.1,6.918,9.08h-6.162l-4.322-5.715-1.639,5.715h-4.268l5.214-18.184h4.268l-1.646,5.74,7.632-5.74Z" transform="translate(-2512.99 580.44)" fill="url(#linear-gradient-10)"/>
    </g>
    <g id="Group_792" data-name="Group 792" transform="translate(0)">
      <path id="Path_11233" data-name="Path 11233" d="M2296.161-584.607l-1.2,4.181H2291.4l-4.03,14.053H2283.1l4.03-14.053H2283.6l1.2-4.181Z" transform="translate(-2283.102 584.607)" fill="#fff"/>
      <path id="Path_11234" data-name="Path 11234" d="M2343.216-570.574q-.344.05-.678.074l-.7.049-1.312,4.577h-4.268l5.186-18.086h4.268a7.22,7.22,0,0,1,2.818.568,5.6,5.6,0,0,1,2.019,1.458,4.615,4.615,0,0,1,1.032,2.125,5.412,5.412,0,0,1-.15,2.594,7.773,7.773,0,0,1-1.407,2.706,9.994,9.994,0,0,1-2.388,2.162l2.236,6.473h-5.026Zm-.168-4.082a5.236,5.236,0,0,0,1.368-.235,5.479,5.479,0,0,0,1.246-.557,4.063,4.063,0,0,0,.963-.8,2.574,2.574,0,0,0,.545-.977,1.667,1.667,0,0,0,.011-.965,1.816,1.816,0,0,0-.5-.792,2.755,2.755,0,0,0-.927-.557,3.892,3.892,0,0,0-1.233-.235Z" transform="translate(-2324.087 584.107)" fill="#fff"/>
      <path id="Path_11235" data-name="Path 11235" d="M2421.339-566.123l-.1-2.2H2415.4l-1.389,2.2h-4.521l11.521-18.16h4.041l.779,18.16Zm-3.271-6.383h3.006l-.2-4.4Z" transform="translate(-2380.549 584.357)" fill="#fff"/>
      <path id="Path_11236" data-name="Path 11236" d="M2508.7-566.315a8.25,8.25,0,0,1-3.311-.656,6,6,0,0,1-2.5-1.992,6.5,6.5,0,0,1-1.16-2.957,8.431,8.431,0,0,1,.3-3.476,11.513,11.513,0,0,1,1.7-3.5,13.556,13.556,0,0,1,2.849-2.932,13.172,13.172,0,0,1,3.657-2,11.141,11.141,0,0,1,3.689-.668,8.066,8.066,0,0,1,3.294.668,6.1,6.1,0,0,1,2.494,2l-3.85,2.944a3.252,3.252,0,0,0-1.358-1.076,4.482,4.482,0,0,0-1.792-.359,6,6,0,0,0-1.984.359,7.073,7.073,0,0,0-1.963,1.076,7.8,7.8,0,0,0-1.548,1.608,6.165,6.165,0,0,0-.918,1.88,4.434,4.434,0,0,0-.157,1.868,3.655,3.655,0,0,0,.629,1.6,3.262,3.262,0,0,0,1.345,1.076,4.382,4.382,0,0,0,1.779.359,6.1,6.1,0,0,0,2-.359,7.017,7.017,0,0,0,1.976-1.076l2.155,2.969a13.025,13.025,0,0,1-3.627,1.992A11.176,11.176,0,0,1,2508.7-566.315Z" transform="translate(-2451.615 584.524)" fill="#fff"/>
      <path id="Path_11237" data-name="Path 11237" d="M2599.18-584.391l-12.132,9.1,6.918,9.08H2587.8l-4.322-5.715-1.638,5.715h-4.269l5.214-18.184h4.268l-1.646,5.74,7.632-5.74Z" transform="translate(-2510.137 584.441)" fill="#fff"/>
    </g>
  </g>
</svg>
