<svg id="related_siaomates_logo" xmlns="http://www.w3.org/2000/svg" width="158.955" height="20.178" viewBox="0 0 158.955 20.178">
  <g id="Group_767" data-name="Group 767" transform="translate(0 0.184)">
    <path id="Path_11125" data-name="Path 11125" d="M126.16,300.68a6.249,6.249,0,0,1-1.686-.219,4.9,4.9,0,0,1-1.506-.7,4.653,4.653,0,0,1-1.721-2.159,5.389,5.389,0,0,1-.258-2.908l4.191-.019a1.551,1.551,0,0,0,.137,1.113,1.784,1.784,0,0,0,.48.537,1.656,1.656,0,0,0,.915.307,2.471,2.471,0,0,0,1.049-.2,2.072,2.072,0,0,0,.618-.362,2.5,2.5,0,0,0,.392-.421,1.343,1.343,0,0,0,.2-.4,2.874,2.874,0,0,0,.077-.312,2.581,2.581,0,0,0,.027-.311,1.1,1.1,0,0,0-.068-.407,1.3,1.3,0,0,0-.252-.418,1.687,1.687,0,0,0-.5-.369,4.667,4.667,0,0,0-.547-.213q-.295-.094-.621-.213-.589-.189-1.218-.426a5.911,5.911,0,0,1-1.231-.641,4,4,0,0,1-1.244-1.311,4.32,4.32,0,0,1-.572-1.7,5.092,5.092,0,0,1,.14-1.88,5.731,5.731,0,0,1,.869-1.86,6.8,6.8,0,0,1,1.352-1.419,6.734,6.734,0,0,1,1.646-.954,6.243,6.243,0,0,1,1.831-.427,5.748,5.748,0,0,1,1.882.159,4.742,4.742,0,0,1,1.59.675,4.17,4.17,0,0,1,1.131,1.12,3.956,3.956,0,0,1,.6,1.47,4.719,4.719,0,0,1,.012,1.7l-4.171.019a.7.7,0,0,0-.231-.765,2.087,2.087,0,0,0-.584-.285,1.6,1.6,0,0,1-.23-.035,1.235,1.235,0,0,0-.422,0,1.781,1.781,0,0,0-.511.17,1.22,1.22,0,0,0-.467.421,1.129,1.129,0,0,0-.209.8.918.918,0,0,0,.386.657,4.587,4.587,0,0,0,.711.344q.4.154.843.3.4.118.811.26t.821.331a4.53,4.53,0,0,1,2.2,2.1,4.924,4.924,0,0,1,.409,3.087A6.4,6.4,0,0,1,131.805,298a7.4,7.4,0,0,1-2.9,2.12,7.018,7.018,0,0,1-1.381.425A7.262,7.262,0,0,1,126.16,300.68Z" transform="translate(-120.9 -281.029)" fill="#66bc99"/>
    <path id="Path_11126" data-name="Path 11126" d="M194.94,301.264l-4.191.019,2.941-17.614,4.191-.019Z" transform="translate(-175.041 -282.015)" fill="#66bc99"/>
    <path id="Path_11127" data-name="Path 11127" d="M237.673,301.062l-.363-2.129-5.729.026-1.1,2.136-4.44.02,9.137-17.617,3.969-.018,2.941,17.563ZM233.7,294.9l2.951-.013-.727-4.259Z" transform="translate(-202.396 -281.882)" fill="#66bc99"/>
    <path id="Path_11128" data-name="Path 11128" d="M325.108,283.022a8.242,8.242,0,0,1,3.426.679,7.406,7.406,0,0,1,2.584,1.868,7.019,7.019,0,0,1,1.491,2.783,7.785,7.785,0,0,1,.147,3.423,9.5,9.5,0,0,1-1.291,3.43,11.265,11.265,0,0,1-2.423,2.8,11.769,11.769,0,0,1-3.212,1.894,9.978,9.978,0,0,1-3.658.711,8.228,8.228,0,0,1-3.426-.679,7.28,7.28,0,0,1-2.572-1.868,7.1,7.1,0,0,1-1.478-2.783,7.781,7.781,0,0,1-.146-3.424,9.5,9.5,0,0,1,1.29-3.43,11.371,11.371,0,0,1,2.41-2.8,11.6,11.6,0,0,1,3.2-1.895A9.99,9.99,0,0,1,325.108,283.022Zm-2.248,13.539a5.405,5.405,0,0,0,1.972-.38,6.25,6.25,0,0,0,1.732-1.025,6.127,6.127,0,0,0,1.306-1.515,5.139,5.139,0,0,0,.693-1.847,4.214,4.214,0,0,0-.076-1.843,3.821,3.821,0,0,0-.8-1.5,3.921,3.921,0,0,0-1.393-1.012,4.47,4.47,0,0,0-1.847-.363,5.415,5.415,0,0,0-1.972.38,6.25,6.25,0,0,0-1.732,1.025,6.122,6.122,0,0,0-1.306,1.515,5.126,5.126,0,0,0-.693,1.847,4.2,4.2,0,0,0,.076,1.844,3.816,3.816,0,0,0,.8,1.5,3.921,3.921,0,0,0,1.392,1.011A4.466,4.466,0,0,0,322.86,296.561Z" transform="translate(-270.905 -281.527)" fill="#66bc99"/>
    <path id="Path_11129" data-name="Path 11129" d="M134.932,294.676a6.25,6.25,0,0,1-1.686-.219,4.9,4.9,0,0,1-1.506-.7,4.653,4.653,0,0,1-1.721-2.159,5.384,5.384,0,0,1-.258-2.908l4.191-.019a1.549,1.549,0,0,0,.137,1.113,1.78,1.78,0,0,0,.48.537,1.654,1.654,0,0,0,.915.307,2.476,2.476,0,0,0,1.049-.2,2.083,2.083,0,0,0,.618-.362,2.535,2.535,0,0,0,.392-.421,1.352,1.352,0,0,0,.2-.4,2.816,2.816,0,0,0,.077-.312,2.614,2.614,0,0,0,.027-.311,1.1,1.1,0,0,0-.069-.407,1.289,1.289,0,0,0-.252-.418,1.68,1.68,0,0,0-.5-.369,4.709,4.709,0,0,0-.547-.213q-.295-.094-.621-.213-.589-.189-1.218-.426a5.915,5.915,0,0,1-1.231-.641,4,4,0,0,1-1.243-1.312,4.319,4.319,0,0,1-.572-1.7,5.1,5.1,0,0,1,.141-1.88,5.726,5.726,0,0,1,.868-1.86,6.816,6.816,0,0,1,1.352-1.419,6.725,6.725,0,0,1,1.646-.953,6.24,6.24,0,0,1,1.831-.428,5.746,5.746,0,0,1,1.882.159,4.737,4.737,0,0,1,1.59.675,4.168,4.168,0,0,1,1.131,1.12,3.95,3.95,0,0,1,.6,1.47,4.719,4.719,0,0,1,.012,1.7l-4.17.019a.7.7,0,0,0-.232-.765,2.09,2.09,0,0,0-.584-.284,1.617,1.617,0,0,1-.23-.035,1.239,1.239,0,0,0-.422,0,1.779,1.779,0,0,0-.512.17,1.221,1.221,0,0,0-.467.421,1.13,1.13,0,0,0-.209.8.918.918,0,0,0,.386.657,4.564,4.564,0,0,0,.711.344q.4.154.843.3.4.118.811.26t.821.331a4.531,4.531,0,0,1,2.2,2.1,4.926,4.926,0,0,1,.408,3.087,6.4,6.4,0,0,1-1.437,3.072,7.394,7.394,0,0,1-2.9,2.12,7,7,0,0,1-1.381.425A7.263,7.263,0,0,1,134.932,294.676Z" transform="translate(-127.699 -276.376)" fill="#fff"/>
    <path id="Path_11130" data-name="Path 11130" d="M203.713,295.261l-4.191.019,2.941-17.613,4.191-.019Z" transform="translate(-181.841 -277.362)" fill="#fff"/>
    <path id="Path_11131" data-name="Path 11131" d="M246.445,295.058l-.363-2.129-5.729.026-1.1,2.136-4.44.02,9.137-17.617,3.968-.018,2.941,17.563Zm-3.978-6.16,2.952-.013-.727-4.259Z" transform="translate(-209.196 -277.228)" fill="#fff"/>
    <path id="Path_11132" data-name="Path 11132" d="M333.88,277.019a8.237,8.237,0,0,1,3.426.678,7.408,7.408,0,0,1,2.584,1.869,7.015,7.015,0,0,1,1.491,2.783,7.785,7.785,0,0,1,.147,3.423,9.5,9.5,0,0,1-1.291,3.43,11.258,11.258,0,0,1-2.423,2.8A11.769,11.769,0,0,1,334.6,293.9a9.985,9.985,0,0,1-3.658.711,8.235,8.235,0,0,1-3.426-.679,7.279,7.279,0,0,1-2.572-1.868,7.1,7.1,0,0,1-1.478-2.783,7.779,7.779,0,0,1-.146-3.424,9.5,9.5,0,0,1,1.29-3.43,11.369,11.369,0,0,1,2.411-2.8,11.591,11.591,0,0,1,3.2-1.894A9.989,9.989,0,0,1,333.88,277.019Zm-2.248,13.539a5.4,5.4,0,0,0,1.972-.38,6.253,6.253,0,0,0,1.733-1.025,6.123,6.123,0,0,0,1.306-1.515,5.14,5.14,0,0,0,.693-1.847,4.212,4.212,0,0,0-.076-1.843,3.821,3.821,0,0,0-.8-1.5,3.925,3.925,0,0,0-1.393-1.012,4.472,4.472,0,0,0-1.848-.363,5.417,5.417,0,0,0-1.972.38,6.248,6.248,0,0,0-1.733,1.025,6.128,6.128,0,0,0-1.306,1.515,5.12,5.12,0,0,0-.693,1.847,4.2,4.2,0,0,0,.076,1.844,3.818,3.818,0,0,0,.8,1.5,3.921,3.921,0,0,0,1.393,1.011A4.46,4.46,0,0,0,331.632,290.558Z" transform="translate(-277.705 -276.874)" fill="#fff"/>
  </g>
  <g id="Group_768" data-name="Group 768" transform="translate(71.778)">
    <path id="Path_11133" data-name="Path 11133" d="M456.686,281.563l4.315.055-2.177,17.574-4.191-.053.877-7.173-3.853,7.135-4.191-.053-1.3-7.488-1.873,7.448-4.216-.054,4.409-17.545,4.315.055,1.963,11.041Z" transform="translate(-440.075 -280.092)" fill="#66bc99"/>
    <path id="Path_11134" data-name="Path 11134" d="M546.327,300.608,546,298.472l-5.729-.073-1.136,2.117-4.439-.057L544.135,283l3.968.05,2.639,17.611Zm-3.871-6.228,2.951.038-.653-4.271Z" transform="translate(-513.417 -281.328)" fill="#66bc99"/>
    <path id="Path_11135" data-name="Path 11135" d="M642.442,283.551l-.746,4.038-3.5-.045-2.506,13.57-4.191-.053,2.506-13.57-3.472-.044.746-4.038Z" transform="translate(-587.704 -281.643)" fill="#66bc99"/>
    <path id="Path_11136" data-name="Path 11136" d="M700.945,288.854l-7.49-.1-.49,2.652,6.076.077-.746,4.037-6.076-.077-.512,2.772,7.49.1-.746,4.038-11.681-.149,3.235-17.512,11.685.125Z" transform="translate(-631.292 -282.637)" fill="#66bc99"/>
    <path id="Path_11137" data-name="Path 11137" d="M765.264,302.386a6.244,6.244,0,0,1-1.682-.249,4.895,4.895,0,0,1-1.494-.726,4.657,4.657,0,0,1-1.684-2.189,5.385,5.385,0,0,1-.208-2.912l4.191.053a1.551,1.551,0,0,0,.117,1.115,1.782,1.782,0,0,0,.471.545,1.653,1.653,0,0,0,.91.323,2.475,2.475,0,0,0,1.052-.178,2.085,2.085,0,0,0,.624-.351,2.539,2.539,0,0,0,.4-.414,1.35,1.35,0,0,0,.209-.392,2.77,2.77,0,0,0,.082-.31,2.6,2.6,0,0,0,.033-.311,1.114,1.114,0,0,0-.062-.408,1.293,1.293,0,0,0-.245-.422,1.7,1.7,0,0,0-.49-.377,4.713,4.713,0,0,0-.543-.222q-.293-.1-.618-.223-.585-.2-1.21-.446a5.955,5.955,0,0,1-1.22-.662,4,4,0,0,1-1.22-1.332,4.319,4.319,0,0,1-.542-1.707,5.086,5.086,0,0,1,.173-1.878,5.722,5.722,0,0,1,.9-1.845,6.81,6.81,0,0,1,1.376-1.395,6.733,6.733,0,0,1,1.662-.925,6.248,6.248,0,0,1,1.838-.4,5.743,5.743,0,0,1,1.879.192,4.743,4.743,0,0,1,1.578.7,4.176,4.176,0,0,1,1.112,1.139,3.961,3.961,0,0,1,.579,1.48,4.726,4.726,0,0,1-.017,1.7l-4.17-.053a.7.7,0,0,0-.218-.769,2.072,2.072,0,0,0-.579-.294,1.693,1.693,0,0,1-.229-.039,1.232,1.232,0,0,0-.422-.006,1.786,1.786,0,0,0-.515.161,1.221,1.221,0,0,0-.474.413,1.131,1.131,0,0,0-.222.8.917.917,0,0,0,.375.663,4.572,4.572,0,0,0,.705.356q.392.161.838.31.4.125.806.274t.815.345a4.533,4.533,0,0,1,2.163,2.135,4.923,4.923,0,0,1,.355,3.093,6.4,6.4,0,0,1-1.489,3.047,7.392,7.392,0,0,1-2.94,2.07,7.007,7.007,0,0,1-1.388.4A7.3,7.3,0,0,1,765.264,302.386Z" transform="translate(-688.122 -282.208)" fill="#66bc99"/>
    <path id="Path_11138" data-name="Path 11138" d="M465.561,275.711l4.315.055L467.7,293.34l-4.191-.053.877-7.173-3.853,7.135-4.191-.053-1.3-7.488-1.873,7.448-4.216-.054,4.409-17.545,4.315.055,1.963,11.041Z" transform="translate(-446.954 -275.556)" fill="#fff"/>
    <path id="Path_11139" data-name="Path 11139" d="M555.2,294.756l-.327-2.136-5.729-.073-1.137,2.117-4.44-.057,9.439-17.457,3.968.05,2.639,17.611Zm-3.871-6.228,2.951.038-.653-4.271Z" transform="translate(-520.295 -276.792)" fill="#fff"/>
    <path id="Path_11140" data-name="Path 11140" d="M651.316,277.7l-.746,4.038-3.5-.044-2.507,13.57-4.191-.053,2.507-13.57-3.472-.044.746-4.038Z" transform="translate(-594.582 -277.108)" fill="#fff"/>
    <path id="Path_11141" data-name="Path 11141" d="M709.82,283l-7.49-.1-.49,2.652,6.076.077-.746,4.038-6.076-.077-.512,2.772,7.49.1-.746,4.038-11.681-.149,3.235-17.512,11.685.125Z" transform="translate(-638.172 -278.101)" fill="#fff"/>
    <path id="Path_11142" data-name="Path 11142" d="M774.139,296.534a6.251,6.251,0,0,1-1.682-.249,4.9,4.9,0,0,1-1.494-.725,4.658,4.658,0,0,1-1.684-2.189,5.388,5.388,0,0,1-.208-2.912l4.191.053a1.552,1.552,0,0,0,.117,1.115,1.78,1.78,0,0,0,.471.545,1.65,1.65,0,0,0,.91.323,2.473,2.473,0,0,0,1.052-.178,2.082,2.082,0,0,0,.624-.351,2.541,2.541,0,0,0,.4-.414,1.35,1.35,0,0,0,.209-.392,2.8,2.8,0,0,0,.082-.31,2.582,2.582,0,0,0,.033-.311,1.106,1.106,0,0,0-.061-.408,1.293,1.293,0,0,0-.245-.422,1.692,1.692,0,0,0-.49-.378,4.708,4.708,0,0,0-.543-.222q-.293-.1-.617-.223-.585-.2-1.21-.446a5.953,5.953,0,0,1-1.22-.662,4.012,4.012,0,0,1-1.22-1.333,4.323,4.323,0,0,1-.542-1.707,5.093,5.093,0,0,1,.173-1.878,5.73,5.73,0,0,1,.9-1.845,6.817,6.817,0,0,1,1.377-1.4,6.731,6.731,0,0,1,1.662-.925,6.242,6.242,0,0,1,1.838-.4,5.748,5.748,0,0,1,1.879.192,4.742,4.742,0,0,1,1.578.7,4.164,4.164,0,0,1,1.112,1.139,3.961,3.961,0,0,1,.58,1.48,4.728,4.728,0,0,1-.018,1.7l-4.17-.053a.7.7,0,0,0-.219-.769,2.071,2.071,0,0,0-.579-.295,1.632,1.632,0,0,1-.229-.039,1.231,1.231,0,0,0-.422-.005,1.784,1.784,0,0,0-.514.161,1.218,1.218,0,0,0-.474.413,1.131,1.131,0,0,0-.222.8.917.917,0,0,0,.375.663,4.546,4.546,0,0,0,.7.356q.392.161.838.31.4.126.806.274t.815.346a4.533,4.533,0,0,1,2.163,2.135,4.925,4.925,0,0,1,.355,3.094,6.4,6.4,0,0,1-1.489,3.047,7.39,7.39,0,0,1-2.94,2.07,6.967,6.967,0,0,1-1.388.4A7.3,7.3,0,0,1,774.139,296.534Z" transform="translate(-695.001 -277.672)" fill="#fff"/>
  </g>
</svg>
