<svg xmlns="http://www.w3.org/2000/svg" width="231.464" height="19.81" viewBox="0 0 231.464 19.81">
  <g id="related_con_logo" transform="translate(-22.761 -235.805)">
    <g id="Group_918" data-name="Group 918" transform="translate(22.761 237.607)">
      <g id="Group_742" data-name="Group 742" transform="translate(0 0)">
        <path id="Path_11144" data-name="Path 11144" d="M7.61,17.332a8.627,8.627,0,0,1-3.276-.623,6.837,6.837,0,0,1-2.643-1.9A7.013,7.013,0,0,1,.232,12,7.846,7.846,0,0,1,.127,8.682,9.592,9.592,0,0,1,1.369,5.345a10.9,10.9,0,0,1,2.42-2.8A10.993,10.993,0,0,1,7.1.639,10.268,10.268,0,0,1,10.587,0a8.454,8.454,0,0,1,3.261.635,6.961,6.961,0,0,1,2.641,1.909L13.1,5.351a3.715,3.715,0,0,0-1.436-1.025,4.693,4.693,0,0,0-1.774-.341,5.525,5.525,0,0,0-1.878.343A5.916,5.916,0,0,0,6.24,5.355,6.279,6.279,0,0,0,4.927,6.888,5.133,5.133,0,0,0,4.254,8.68a4.135,4.135,0,0,0,.062,1.78,3.947,3.947,0,0,0,.79,1.52,3.714,3.714,0,0,0,1.424,1.025,4.587,4.587,0,0,0,1.761.341A5.623,5.623,0,0,0,10.182,13a5.865,5.865,0,0,0,1.787-1.027l2.422,2.828a10.886,10.886,0,0,1-3.28,1.9A10.315,10.315,0,0,1,7.61,17.332Z" transform="translate(0 0.431)" fill="#66bc99"/>
        <path id="Path_11145" data-name="Path 11145" d="M10.558,0a8.113,8.113,0,0,1,3.371.682,7.293,7.293,0,0,1,2.537,1.85,6.916,6.916,0,0,1,1.456,2.746,7.66,7.66,0,0,1,.131,3.372,9.352,9.352,0,0,1-1.284,3.373,11.1,11.1,0,0,1-2.4,2.748,11.6,11.6,0,0,1-3.17,1.852,9.831,9.831,0,0,1-3.6.685,8.109,8.109,0,0,1-3.371-.682A7.169,7.169,0,0,1,1.7,14.777,7,7,0,0,1,.257,12.03a7.673,7.673,0,0,1-.13-3.372A9.366,9.366,0,0,1,1.41,5.286,11.213,11.213,0,0,1,3.795,2.538,11.419,11.419,0,0,1,6.953.686,9.834,9.834,0,0,1,10.558,0ZM8.291,13.323a5.324,5.324,0,0,0,1.943-.367,6.156,6.156,0,0,0,1.71-1,6.026,6.026,0,0,0,1.292-1.486,5.056,5.056,0,0,0,.689-1.816,4.144,4.144,0,0,0-.068-1.816,3.757,3.757,0,0,0-.784-1.485,3.87,3.87,0,0,0-1.367-1,4.4,4.4,0,0,0-1.818-.365,5.321,5.321,0,0,0-1.943.367,6.152,6.152,0,0,0-1.71,1A6.023,6.023,0,0,0,4.943,6.841a5.05,5.05,0,0,0-.689,1.816,4.143,4.143,0,0,0,.068,1.816,3.755,3.755,0,0,0,.784,1.485,3.866,3.866,0,0,0,1.367,1A4.4,4.4,0,0,0,8.291,13.323Z" transform="translate(17.756 0.446)" fill="#66bc99"/>
        <path id="Path_11146" data-name="Path 11146" d="M13.292,0,17.42,0,14.458,17.309l-4.469,0L5.854,7.221,4.128,17.314,0,17.316,2.953.055l4.494,0,4.114,10.066Z" transform="translate(38.011 0.456)" fill="#66bc99"/>
        <path id="Path_11147" data-name="Path 11147" d="M11.768,4,0,3.985.682,0,12.45.017Z" transform="translate(58.325 7.104)" fill="#66bc99"/>
        <path id="Path_11148" data-name="Path 11148" d="M16.129,0l4.249,0L18.464,17.331l-4.128,0,.771-7.074-3.7,7.075-4.127,0L5.9,9.981,4.152,17.338,0,17.34,4.113.008l4.25,0,2.076,10.845Z" transform="translate(75.301 0.411)" fill="#66bc99"/>
        <path id="Path_11149" data-name="Path 11149" d="M13.783,3.985l-7.376,0L5.959,6.606l5.983,0-.682,3.985-5.983,0-.468,2.735,7.376,0L11.5,17.308,0,17.314,2.957.029,14.464,0Z" transform="translate(97.184 0.426)" fill="#66bc99"/>
        <path id="Path_11150" data-name="Path 11150" d="M13.292,0l4.127,0L14.458,17.309l-4.47,0L5.854,7.221,4.127,17.314,0,17.315,2.953.055l4.494,0,4.115,10.066Z" transform="translate(113.254 0.417)" fill="#66bc99"/>
        <path id="Path_11151" data-name="Path 11151" d="M11.672,0,10.99,3.985l-3.443,0L5.255,17.381l-4.128,0L3.419,3.989,0,3.991.682.006Z" transform="translate(134.009 0.339)" fill="#66bc99"/>
        <path id="Path_11152" data-name="Path 11152" d="M11.454,17.308l-.349-2.1-5.642,0-1.092,2.1L0,17.313,9.067,0l3.908,0L15.8,17.305ZM7.562,11.226l2.906,0-.7-4.2Z" transform="translate(145.712 0.403)" fill="#66bc99"/>
        <path id="Path_11153" data-name="Path 11153" d="M11.672,0,10.99,3.985l-3.443,0L5.255,17.381l-4.127,0L3.419,3.989,0,3.991.682.006Z" transform="translate(166.76 0.322)" fill="#66bc99"/>
        <path id="Path_11154" data-name="Path 11154" d="M10.558,0a8.108,8.108,0,0,1,3.37.682,7.291,7.291,0,0,1,2.537,1.85,6.913,6.913,0,0,1,1.456,2.746,7.658,7.658,0,0,1,.131,3.371,9.35,9.35,0,0,1-1.284,3.373,11.1,11.1,0,0,1-2.4,2.748,11.6,11.6,0,0,1-3.17,1.852,9.825,9.825,0,0,1-3.6.685,8.107,8.107,0,0,1-3.37-.682A7.167,7.167,0,0,1,1.7,14.777,6.994,6.994,0,0,1,.257,12.03a7.67,7.67,0,0,1-.13-3.372A9.364,9.364,0,0,1,1.41,5.286,11.211,11.211,0,0,1,3.795,2.538,11.412,11.412,0,0,1,6.953.686,9.828,9.828,0,0,1,10.558,0ZM8.291,13.323a5.315,5.315,0,0,0,1.943-.366,6.155,6.155,0,0,0,1.71-1,6.028,6.028,0,0,0,1.292-1.486,5.054,5.054,0,0,0,.69-1.816,4.142,4.142,0,0,0-.068-1.816,3.755,3.755,0,0,0-.784-1.485,3.871,3.871,0,0,0-1.367-1,4.406,4.406,0,0,0-1.818-.365,5.332,5.332,0,0,0-1.943.367,6.163,6.163,0,0,0-1.71,1A6.016,6.016,0,0,0,4.943,6.841a5.048,5.048,0,0,0-.689,1.816,4.14,4.14,0,0,0,.068,1.816,3.761,3.761,0,0,0,.784,1.485,3.87,3.87,0,0,0,1.367,1A4.4,4.4,0,0,0,8.291,13.323Z" transform="translate(179.797 0.364)" fill="#66bc99"/>
        <path id="Path_11155" data-name="Path 11155" d="M6.189,12.757q-.326.048-.647.071t-.668.048l-.747,4.362L0,17.239,2.949,0,7.077,0A7.561,7.561,0,0,1,9.866.54a6.368,6.368,0,0,1,2.119,1.388,5.011,5.011,0,0,1,1.392,4.5A6.45,6.45,0,0,1,12.325,9a8.064,8.064,0,0,1-2.062,2.062l2.9,6.167-4.86,0ZM5.56,8.867a4.847,4.847,0,0,0,1.3-.225A4.665,4.665,0,0,0,8,8.111a3.291,3.291,0,0,0,.84-.766,2.132,2.132,0,0,0,.416-.932,1.6,1.6,0,0,0-.1-.919,2.039,2.039,0,0,0-.579-.755,3.114,3.114,0,0,0-.959-.53,4.071,4.071,0,0,0-1.22-.223Z" transform="translate(200.052 0.45)" fill="#66bc99"/>
        <path id="Path_11156" data-name="Path 11156" d="M5.16,18.008A6.137,6.137,0,0,1,3.5,17.785a4.825,4.825,0,0,1-1.481-.695A4.588,4.588,0,0,1,.334,14.958a5.307,5.307,0,0,1-.243-2.865l4.128,0a1.527,1.527,0,0,0,.13,1.1,1.75,1.75,0,0,0,.471.53,1.625,1.625,0,0,0,.9.306,2.443,2.443,0,0,0,1.034-.189,2.05,2.05,0,0,0,.61-.354,2.481,2.481,0,0,0,.388-.413,1.329,1.329,0,0,0,.2-.389,2.676,2.676,0,0,0,.076-.306,2.49,2.49,0,0,0,.028-.307,1.086,1.086,0,0,0-.066-.4,1.281,1.281,0,0,0-.247-.412,1.664,1.664,0,0,0-.487-.365,4.545,4.545,0,0,0-.538-.212q-.289-.094-.611-.212-.578-.188-1.2-.424A5.829,5.829,0,0,1,3.7,9.4a3.942,3.942,0,0,1-1.219-1.3,4.259,4.259,0,0,1-.556-1.674,5.014,5.014,0,0,1,.146-1.851,5.63,5.63,0,0,1,.862-1.828A6.718,6.718,0,0,1,4.272,1.362,6.617,6.617,0,0,1,5.9.43,6.134,6.134,0,0,1,7.7.017,5.648,5.648,0,0,1,9.553.181a4.666,4.666,0,0,1,1.563.671,4.107,4.107,0,0,1,1.11,1.108,3.89,3.89,0,0,1,.589,1.45,4.649,4.649,0,0,1,.005,1.673l-4.106,0a.689.689,0,0,0-.225-.754,2.039,2.039,0,0,0-.574-.282,1.618,1.618,0,0,1-.226-.035,1.224,1.224,0,0,0-.415,0,1.724,1.724,0,0,0-.5.165,1.2,1.2,0,0,0-.462.413,1.112,1.112,0,0,0-.208.79.9.9,0,0,0,.377.648,4.507,4.507,0,0,0,.7.341q.388.154.829.294.395.118.8.259t.807.329a4.466,4.466,0,0,1,2.158,2.074,4.853,4.853,0,0,1,.39,3.042,6.3,6.3,0,0,1-1.427,3.018,7.277,7.277,0,0,1-2.868,2.077,6.9,6.9,0,0,1-1.361.413A7.135,7.135,0,0,1,5.16,18.008Z" transform="translate(217.573 0)" fill="#66bc99"/>
      </g>
    </g>
    <g id="Group_744" data-name="Group 744" transform="translate(23.759 235.805)">
      <path id="Path_11157" data-name="Path 11157" d="M7.61,17.332a8.632,8.632,0,0,1-3.276-.623,6.84,6.84,0,0,1-2.642-1.9A7.012,7.012,0,0,1,.232,12a7.849,7.849,0,0,1-.1-3.313A9.587,9.587,0,0,1,1.37,5.345a10.894,10.894,0,0,1,2.42-2.8A11,11,0,0,1,7.1.639,10.27,10.27,0,0,1,10.587,0a8.446,8.446,0,0,1,3.261.635,6.953,6.953,0,0,1,2.641,1.909L13.1,5.351a3.714,3.714,0,0,0-1.436-1.025,4.692,4.692,0,0,0-1.773-.341,5.523,5.523,0,0,0-1.878.343A5.913,5.913,0,0,0,6.24,5.355,6.274,6.274,0,0,0,4.927,6.888,5.132,5.132,0,0,0,4.254,8.68a4.143,4.143,0,0,0,.062,1.78,3.952,3.952,0,0,0,.79,1.52,3.714,3.714,0,0,0,1.424,1.025,4.585,4.585,0,0,0,1.761.341A5.623,5.623,0,0,0,10.182,13a5.855,5.855,0,0,0,1.787-1.027l2.422,2.829a10.886,10.886,0,0,1-3.28,1.9A10.322,10.322,0,0,1,7.61,17.332Z" transform="translate(0 0.431)" fill="#fff"/>
      <path id="Path_11158" data-name="Path 11158" d="M10.558,0a8.11,8.11,0,0,1,3.37.682,7.29,7.29,0,0,1,2.537,1.85,6.919,6.919,0,0,1,1.457,2.746,7.663,7.663,0,0,1,.131,3.372,9.351,9.351,0,0,1-1.284,3.373,11.106,11.106,0,0,1-2.4,2.748A11.6,11.6,0,0,1,11.2,16.623a9.817,9.817,0,0,1-3.6.685,8.108,8.108,0,0,1-3.371-.682A7.165,7.165,0,0,1,1.7,14.777,7,7,0,0,1,.256,12.03a7.669,7.669,0,0,1-.13-3.372A9.361,9.361,0,0,1,1.41,5.286,11.219,11.219,0,0,1,3.795,2.538,11.421,11.421,0,0,1,6.953.686,9.84,9.84,0,0,1,10.558,0ZM8.291,13.323a5.321,5.321,0,0,0,1.943-.367,6.164,6.164,0,0,0,1.71-1,6.021,6.021,0,0,0,1.292-1.486,5.055,5.055,0,0,0,.689-1.816,4.146,4.146,0,0,0-.068-1.816,3.761,3.761,0,0,0-.783-1.485,3.879,3.879,0,0,0-1.367-1,4.4,4.4,0,0,0-1.818-.365,5.322,5.322,0,0,0-1.943.367,6.147,6.147,0,0,0-1.71,1A6.022,6.022,0,0,0,4.943,6.841a5.044,5.044,0,0,0-.689,1.816,4.135,4.135,0,0,0,.068,1.816,3.751,3.751,0,0,0,.784,1.485,3.863,3.863,0,0,0,1.367,1A4.393,4.393,0,0,0,8.291,13.323Z" transform="translate(17.756 0.446)" fill="#fff"/>
      <path id="Path_11159" data-name="Path 11159" d="M13.292,0l4.127,0L14.458,17.308l-4.469,0L5.854,7.221,4.127,17.314,0,17.315,2.953.055l4.494,0,4.114,10.066Z" transform="translate(38.012 0.456)" fill="#fff"/>
      <path id="Path_11160" data-name="Path 11160" d="M11.768,4,0,3.985.682,0,12.45.017Z" transform="translate(58.325 7.104)" fill="#fff"/>
      <path id="Path_11161" data-name="Path 11161" d="M16.13,0l4.249,0L18.464,17.331l-4.127,0,.771-7.074-3.7,7.075-4.128,0L5.9,9.981,4.152,17.338,0,17.34,4.113.008l4.25,0,2.076,10.845Z" transform="translate(75.301 0.411)" fill="#fff"/>
      <path id="Path_11162" data-name="Path 11162" d="M13.782,3.985l-7.376,0L5.959,6.606l5.984,0-.682,3.985-5.984,0-.468,2.735,7.376,0L11.5,17.308,0,17.314,2.957.029,14.464,0Z" transform="translate(97.184 0.426)" fill="#fff"/>
      <path id="Path_11163" data-name="Path 11163" d="M13.292,0l4.127,0L14.458,17.308l-4.469,0L5.854,7.221,4.127,17.314,0,17.315,2.953.054l4.494,0,4.114,10.066Z" transform="translate(113.254 0.417)" fill="#fff"/>
      <path id="Path_11164" data-name="Path 11164" d="M11.673,0l-.682,3.985-3.444,0L5.256,17.381l-4.128,0L3.42,3.989H0L.682.005Z" transform="translate(134.009 0.339)" fill="#fff"/>
      <path id="Path_11165" data-name="Path 11165" d="M11.454,17.308l-.349-2.1-5.642,0-1.092,2.1L0,17.313,9.067,0l3.908,0L15.8,17.306ZM7.562,11.226h2.906l-.7-4.2Z" transform="translate(145.712 0.403)" fill="#fff"/>
      <path id="Path_11166" data-name="Path 11166" d="M11.672,0,10.99,3.985l-3.443,0L5.256,17.381l-4.128,0L3.42,3.989,0,3.991.682.005Z" transform="translate(166.76 0.323)" fill="#fff"/>
      <path id="Path_11167" data-name="Path 11167" d="M10.558,0a8.108,8.108,0,0,1,3.37.682,7.292,7.292,0,0,1,2.537,1.85,6.916,6.916,0,0,1,1.457,2.746,7.663,7.663,0,0,1,.131,3.372,9.352,9.352,0,0,1-1.284,3.373,11.1,11.1,0,0,1-2.4,2.748A11.591,11.591,0,0,1,11.2,16.623a9.824,9.824,0,0,1-3.6.685,8.108,8.108,0,0,1-3.371-.682A7.174,7.174,0,0,1,1.7,14.777,7,7,0,0,1,.256,12.03a7.675,7.675,0,0,1-.13-3.372A9.368,9.368,0,0,1,1.41,5.286,11.221,11.221,0,0,1,3.795,2.538,11.424,11.424,0,0,1,6.953.686,9.831,9.831,0,0,1,10.558,0ZM8.291,13.323a5.322,5.322,0,0,0,1.943-.367,6.15,6.15,0,0,0,1.71-1,6.039,6.039,0,0,0,1.292-1.486,5.053,5.053,0,0,0,.689-1.816,4.142,4.142,0,0,0-.068-1.816,3.757,3.757,0,0,0-.784-1.485,3.868,3.868,0,0,0-1.367-1,4.395,4.395,0,0,0-1.818-.365,5.318,5.318,0,0,0-1.943.367,6.163,6.163,0,0,0-1.71,1A6.027,6.027,0,0,0,4.943,6.841a5.047,5.047,0,0,0-.689,1.816,4.138,4.138,0,0,0,.068,1.816,3.758,3.758,0,0,0,.784,1.485,3.867,3.867,0,0,0,1.367,1A4.4,4.4,0,0,0,8.291,13.323Z" transform="translate(179.797 0.364)" fill="#fff"/>
      <path id="Path_11168" data-name="Path 11168" d="M6.188,12.756q-.326.048-.647.071l-.667.048-.746,4.362L0,17.239,2.949,0,7.077,0A7.55,7.55,0,0,1,9.866.54a6.361,6.361,0,0,1,2.119,1.388,5.011,5.011,0,0,1,1.392,4.5A6.446,6.446,0,0,1,12.325,9a8.066,8.066,0,0,1-2.062,2.061l2.9,6.167-4.86,0ZM5.56,8.866a4.847,4.847,0,0,0,1.3-.225A4.679,4.679,0,0,0,8,8.111a3.287,3.287,0,0,0,.84-.767,2.127,2.127,0,0,0,.416-.932,1.594,1.594,0,0,0-.1-.919,2.04,2.04,0,0,0-.579-.754,3.115,3.115,0,0,0-.959-.53,4.068,4.068,0,0,0-1.22-.223Z" transform="translate(200.052 0.45)" fill="#fff"/>
      <path id="Path_11169" data-name="Path 11169" d="M5.16,18.008A6.153,6.153,0,0,1,3.5,17.785,4.822,4.822,0,0,1,2.02,17.09,4.585,4.585,0,0,1,.334,14.958a5.306,5.306,0,0,1-.242-2.865l4.127,0a1.528,1.528,0,0,0,.13,1.1,1.756,1.756,0,0,0,.471.53,1.622,1.622,0,0,0,.9.306,2.443,2.443,0,0,0,1.034-.189,2.055,2.055,0,0,0,.61-.354,2.466,2.466,0,0,0,.388-.413,1.339,1.339,0,0,0,.2-.389,2.8,2.8,0,0,0,.076-.306,2.5,2.5,0,0,0,.028-.307,1.086,1.086,0,0,0-.066-.4,1.271,1.271,0,0,0-.246-.412,1.662,1.662,0,0,0-.487-.365,4.632,4.632,0,0,0-.538-.212q-.29-.093-.611-.212-.579-.188-1.2-.424A5.865,5.865,0,0,1,3.7,9.4a3.959,3.959,0,0,1-1.22-1.3,4.262,4.262,0,0,1-.556-1.674,5.011,5.011,0,0,1,.146-1.851,5.628,5.628,0,0,1,.862-1.828A6.727,6.727,0,0,1,4.272,1.362,6.617,6.617,0,0,1,5.9.43,6.135,6.135,0,0,1,7.7.017,5.647,5.647,0,0,1,9.553.181a4.668,4.668,0,0,1,1.563.671,4.112,4.112,0,0,1,1.11,1.108,3.9,3.9,0,0,1,.589,1.45,4.653,4.653,0,0,1,.005,1.674l-4.106,0a.688.688,0,0,0-.225-.754,2.044,2.044,0,0,0-.574-.282,1.633,1.633,0,0,1-.226-.035,1.218,1.218,0,0,0-.415,0,1.737,1.737,0,0,0-.5.165,1.2,1.2,0,0,0-.462.413,1.112,1.112,0,0,0-.208.79.9.9,0,0,0,.377.649,4.539,4.539,0,0,0,.7.341q.389.153.829.294.394.118.8.259t.807.329a4.464,4.464,0,0,1,2.158,2.074,4.849,4.849,0,0,1,.39,3.042,6.3,6.3,0,0,1-1.427,3.019,7.282,7.282,0,0,1-2.868,2.076,6.92,6.92,0,0,1-1.361.413A7.174,7.174,0,0,1,5.16,18.008Z" transform="translate(217.573 0)" fill="#fff"/>
    </g>
    <g id="Group_929" data-name="Group 929" transform="translate(22.761 237.607)">
      <g id="Group_742-2" data-name="Group 742" transform="translate(0 0)">
        <path id="Path_11144-2" data-name="Path 11144" d="M7.61,17.332a8.627,8.627,0,0,1-3.276-.623,6.837,6.837,0,0,1-2.643-1.9A7.013,7.013,0,0,1,.232,12,7.846,7.846,0,0,1,.127,8.682,9.592,9.592,0,0,1,1.369,5.345a10.9,10.9,0,0,1,2.42-2.8A10.993,10.993,0,0,1,7.1.639,10.268,10.268,0,0,1,10.587,0a8.454,8.454,0,0,1,3.261.635,6.961,6.961,0,0,1,2.641,1.909L13.1,5.351a3.715,3.715,0,0,0-1.436-1.025,4.693,4.693,0,0,0-1.774-.341,5.525,5.525,0,0,0-1.878.343A5.916,5.916,0,0,0,6.24,5.355,6.279,6.279,0,0,0,4.927,6.888,5.133,5.133,0,0,0,4.254,8.68a4.135,4.135,0,0,0,.062,1.78,3.947,3.947,0,0,0,.79,1.52,3.714,3.714,0,0,0,1.424,1.025,4.587,4.587,0,0,0,1.761.341A5.623,5.623,0,0,0,10.182,13a5.865,5.865,0,0,0,1.787-1.027l2.422,2.828a10.886,10.886,0,0,1-3.28,1.9A10.315,10.315,0,0,1,7.61,17.332Z" transform="translate(0 0.431)" fill="#66bc99"/>
        <path id="Path_11145-2" data-name="Path 11145" d="M10.558,0a8.113,8.113,0,0,1,3.371.682,7.293,7.293,0,0,1,2.537,1.85,6.916,6.916,0,0,1,1.456,2.746,7.66,7.66,0,0,1,.131,3.372,9.352,9.352,0,0,1-1.284,3.373,11.1,11.1,0,0,1-2.4,2.748,11.6,11.6,0,0,1-3.17,1.852,9.831,9.831,0,0,1-3.6.685,8.109,8.109,0,0,1-3.371-.682A7.169,7.169,0,0,1,1.7,14.777,7,7,0,0,1,.257,12.03a7.673,7.673,0,0,1-.13-3.372A9.366,9.366,0,0,1,1.41,5.286,11.213,11.213,0,0,1,3.795,2.538,11.419,11.419,0,0,1,6.953.686,9.834,9.834,0,0,1,10.558,0ZM8.291,13.323a5.324,5.324,0,0,0,1.943-.367,6.156,6.156,0,0,0,1.71-1,6.026,6.026,0,0,0,1.292-1.486,5.056,5.056,0,0,0,.689-1.816,4.144,4.144,0,0,0-.068-1.816,3.757,3.757,0,0,0-.784-1.485,3.87,3.87,0,0,0-1.367-1,4.4,4.4,0,0,0-1.818-.365,5.321,5.321,0,0,0-1.943.367,6.152,6.152,0,0,0-1.71,1A6.023,6.023,0,0,0,4.943,6.841a5.05,5.05,0,0,0-.689,1.816,4.143,4.143,0,0,0,.068,1.816,3.755,3.755,0,0,0,.784,1.485,3.866,3.866,0,0,0,1.367,1A4.4,4.4,0,0,0,8.291,13.323Z" transform="translate(17.756 0.446)" fill="#66bc99"/>
        <path id="Path_11146-2" data-name="Path 11146" d="M13.292,0,17.42,0,14.458,17.309l-4.469,0L5.854,7.221,4.128,17.314,0,17.316,2.953.055l4.494,0,4.114,10.066Z" transform="translate(38.011 0.456)" fill="#66bc99"/>
        <path id="Path_11147-2" data-name="Path 11147" d="M11.768,4,0,3.985.682,0,12.45.017Z" transform="translate(58.325 7.104)" fill="#66bc99"/>
        <path id="Path_11148-2" data-name="Path 11148" d="M16.129,0l4.249,0L18.464,17.331l-4.128,0,.771-7.074-3.7,7.075-4.127,0L5.9,9.981,4.152,17.338,0,17.34,4.113.008l4.25,0,2.076,10.845Z" transform="translate(75.301 0.411)" fill="#66bc99"/>
        <path id="Path_11149-2" data-name="Path 11149" d="M13.783,3.985l-7.376,0L5.959,6.606l5.983,0-.682,3.985-5.983,0-.468,2.735,7.376,0L11.5,17.308,0,17.314,2.957.029,14.464,0Z" transform="translate(97.184 0.426)" fill="#66bc99"/>
        <path id="Path_11150-2" data-name="Path 11150" d="M13.292,0l4.127,0L14.458,17.309l-4.47,0L5.854,7.221,4.127,17.314,0,17.315,2.953.055l4.494,0,4.115,10.066Z" transform="translate(113.254 0.417)" fill="#66bc99"/>
        <path id="Path_11151-2" data-name="Path 11151" d="M11.672,0,10.99,3.985l-3.443,0L5.255,17.381l-4.128,0L3.419,3.989,0,3.991.682.006Z" transform="translate(134.009 0.339)" fill="#66bc99"/>
        <path id="Path_11152-2" data-name="Path 11152" d="M11.454,17.308l-.349-2.1-5.642,0-1.092,2.1L0,17.313,9.067,0l3.908,0L15.8,17.305ZM7.562,11.226l2.906,0-.7-4.2Z" transform="translate(145.712 0.403)" fill="#66bc99"/>
        <path id="Path_11153-2" data-name="Path 11153" d="M11.672,0,10.99,3.985l-3.443,0L5.255,17.381l-4.127,0L3.419,3.989,0,3.991.682.006Z" transform="translate(166.76 0.322)" fill="#66bc99"/>
        <path id="Path_11154-2" data-name="Path 11154" d="M10.558,0a8.108,8.108,0,0,1,3.37.682,7.291,7.291,0,0,1,2.537,1.85,6.913,6.913,0,0,1,1.456,2.746,7.658,7.658,0,0,1,.131,3.371,9.35,9.35,0,0,1-1.284,3.373,11.1,11.1,0,0,1-2.4,2.748,11.6,11.6,0,0,1-3.17,1.852,9.825,9.825,0,0,1-3.6.685,8.107,8.107,0,0,1-3.37-.682A7.167,7.167,0,0,1,1.7,14.777,6.994,6.994,0,0,1,.257,12.03a7.67,7.67,0,0,1-.13-3.372A9.364,9.364,0,0,1,1.41,5.286,11.211,11.211,0,0,1,3.795,2.538,11.412,11.412,0,0,1,6.953.686,9.828,9.828,0,0,1,10.558,0ZM8.291,13.323a5.315,5.315,0,0,0,1.943-.366,6.155,6.155,0,0,0,1.71-1,6.028,6.028,0,0,0,1.292-1.486,5.054,5.054,0,0,0,.69-1.816,4.142,4.142,0,0,0-.068-1.816,3.755,3.755,0,0,0-.784-1.485,3.871,3.871,0,0,0-1.367-1,4.406,4.406,0,0,0-1.818-.365,5.332,5.332,0,0,0-1.943.367,6.163,6.163,0,0,0-1.71,1A6.016,6.016,0,0,0,4.943,6.841a5.048,5.048,0,0,0-.689,1.816,4.14,4.14,0,0,0,.068,1.816,3.761,3.761,0,0,0,.784,1.485,3.87,3.87,0,0,0,1.367,1A4.4,4.4,0,0,0,8.291,13.323Z" transform="translate(179.797 0.364)" fill="#66bc99"/>
        <path id="Path_11155-2" data-name="Path 11155" d="M6.189,12.757q-.326.048-.647.071t-.668.048l-.747,4.362L0,17.239,2.949,0,7.077,0A7.561,7.561,0,0,1,9.866.54a6.368,6.368,0,0,1,2.119,1.388,5.011,5.011,0,0,1,1.392,4.5A6.45,6.45,0,0,1,12.325,9a8.064,8.064,0,0,1-2.062,2.062l2.9,6.167-4.86,0ZM5.56,8.867a4.847,4.847,0,0,0,1.3-.225A4.665,4.665,0,0,0,8,8.111a3.291,3.291,0,0,0,.84-.766,2.132,2.132,0,0,0,.416-.932,1.6,1.6,0,0,0-.1-.919,2.039,2.039,0,0,0-.579-.755,3.114,3.114,0,0,0-.959-.53,4.071,4.071,0,0,0-1.22-.223Z" transform="translate(200.052 0.45)" fill="#66bc99"/>
        <path id="Path_11156-2" data-name="Path 11156" d="M5.16,18.008A6.137,6.137,0,0,1,3.5,17.785a4.825,4.825,0,0,1-1.481-.695A4.588,4.588,0,0,1,.334,14.958a5.307,5.307,0,0,1-.243-2.865l4.128,0a1.527,1.527,0,0,0,.13,1.1,1.75,1.75,0,0,0,.471.53,1.625,1.625,0,0,0,.9.306,2.443,2.443,0,0,0,1.034-.189,2.05,2.05,0,0,0,.61-.354,2.481,2.481,0,0,0,.388-.413,1.329,1.329,0,0,0,.2-.389,2.676,2.676,0,0,0,.076-.306,2.49,2.49,0,0,0,.028-.307,1.086,1.086,0,0,0-.066-.4,1.281,1.281,0,0,0-.247-.412,1.664,1.664,0,0,0-.487-.365,4.545,4.545,0,0,0-.538-.212q-.289-.094-.611-.212-.578-.188-1.2-.424A5.829,5.829,0,0,1,3.7,9.4a3.942,3.942,0,0,1-1.219-1.3,4.259,4.259,0,0,1-.556-1.674,5.014,5.014,0,0,1,.146-1.851,5.63,5.63,0,0,1,.862-1.828A6.718,6.718,0,0,1,4.272,1.362,6.617,6.617,0,0,1,5.9.43,6.134,6.134,0,0,1,7.7.017,5.648,5.648,0,0,1,9.553.181a4.666,4.666,0,0,1,1.563.671,4.107,4.107,0,0,1,1.11,1.108,3.89,3.89,0,0,1,.589,1.45,4.649,4.649,0,0,1,.005,1.673l-4.106,0a.689.689,0,0,0-.225-.754,2.039,2.039,0,0,0-.574-.282,1.618,1.618,0,0,1-.226-.035,1.224,1.224,0,0,0-.415,0,1.724,1.724,0,0,0-.5.165,1.2,1.2,0,0,0-.462.413,1.112,1.112,0,0,0-.208.79.9.9,0,0,0,.377.648,4.507,4.507,0,0,0,.7.341q.388.154.829.294.395.118.8.259t.807.329a4.466,4.466,0,0,1,2.158,2.074,4.853,4.853,0,0,1,.39,3.042,6.3,6.3,0,0,1-1.427,3.018,7.277,7.277,0,0,1-2.868,2.077,6.9,6.9,0,0,1-1.361.413A7.135,7.135,0,0,1,5.16,18.008Z" transform="translate(217.573 0)" fill="#66bc99"/>
      </g>
    </g>
    <g id="Group_930" data-name="Group 930" transform="translate(23.759 235.805)">
      <path id="Path_11157-2" data-name="Path 11157" d="M7.61,17.332a8.632,8.632,0,0,1-3.276-.623,6.84,6.84,0,0,1-2.642-1.9A7.012,7.012,0,0,1,.232,12a7.849,7.849,0,0,1-.1-3.313A9.587,9.587,0,0,1,1.37,5.345a10.894,10.894,0,0,1,2.42-2.8A11,11,0,0,1,7.1.639,10.27,10.27,0,0,1,10.587,0a8.446,8.446,0,0,1,3.261.635,6.953,6.953,0,0,1,2.641,1.909L13.1,5.351a3.714,3.714,0,0,0-1.436-1.025,4.692,4.692,0,0,0-1.773-.341,5.523,5.523,0,0,0-1.878.343A5.913,5.913,0,0,0,6.24,5.355,6.274,6.274,0,0,0,4.927,6.888,5.132,5.132,0,0,0,4.254,8.68a4.143,4.143,0,0,0,.062,1.78,3.952,3.952,0,0,0,.79,1.52,3.714,3.714,0,0,0,1.424,1.025,4.585,4.585,0,0,0,1.761.341A5.623,5.623,0,0,0,10.182,13a5.855,5.855,0,0,0,1.787-1.027l2.422,2.829a10.886,10.886,0,0,1-3.28,1.9A10.322,10.322,0,0,1,7.61,17.332Z" transform="translate(0 0.431)" fill="#fff"/>
      <path id="Path_11158-2" data-name="Path 11158" d="M10.558,0a8.11,8.11,0,0,1,3.37.682,7.29,7.29,0,0,1,2.537,1.85,6.919,6.919,0,0,1,1.457,2.746,7.663,7.663,0,0,1,.131,3.372,9.351,9.351,0,0,1-1.284,3.373,11.106,11.106,0,0,1-2.4,2.748A11.6,11.6,0,0,1,11.2,16.623a9.817,9.817,0,0,1-3.6.685,8.108,8.108,0,0,1-3.371-.682A7.165,7.165,0,0,1,1.7,14.777,7,7,0,0,1,.256,12.03a7.669,7.669,0,0,1-.13-3.372A9.361,9.361,0,0,1,1.41,5.286,11.219,11.219,0,0,1,3.795,2.538,11.421,11.421,0,0,1,6.953.686,9.84,9.84,0,0,1,10.558,0ZM8.291,13.323a5.321,5.321,0,0,0,1.943-.367,6.164,6.164,0,0,0,1.71-1,6.021,6.021,0,0,0,1.292-1.486,5.055,5.055,0,0,0,.689-1.816,4.146,4.146,0,0,0-.068-1.816,3.761,3.761,0,0,0-.783-1.485,3.879,3.879,0,0,0-1.367-1,4.4,4.4,0,0,0-1.818-.365,5.322,5.322,0,0,0-1.943.367,6.147,6.147,0,0,0-1.71,1A6.022,6.022,0,0,0,4.943,6.841a5.044,5.044,0,0,0-.689,1.816,4.135,4.135,0,0,0,.068,1.816,3.751,3.751,0,0,0,.784,1.485,3.863,3.863,0,0,0,1.367,1A4.393,4.393,0,0,0,8.291,13.323Z" transform="translate(17.756 0.446)" fill="#fff"/>
      <path id="Path_11159-2" data-name="Path 11159" d="M13.292,0l4.127,0L14.458,17.308l-4.469,0L5.854,7.221,4.127,17.314,0,17.315,2.953.055l4.494,0,4.114,10.066Z" transform="translate(38.012 0.456)" fill="#fff"/>
      <path id="Path_11160-2" data-name="Path 11160" d="M11.768,4,0,3.985.682,0,12.45.017Z" transform="translate(58.325 7.104)" fill="#fff"/>
      <path id="Path_11161-2" data-name="Path 11161" d="M16.13,0l4.249,0L18.464,17.331l-4.127,0,.771-7.074-3.7,7.075-4.128,0L5.9,9.981,4.152,17.338,0,17.34,4.113.008l4.25,0,2.076,10.845Z" transform="translate(75.301 0.411)" fill="#fff"/>
      <path id="Path_11162-2" data-name="Path 11162" d="M13.782,3.985l-7.376,0L5.959,6.606l5.984,0-.682,3.985-5.984,0-.468,2.735,7.376,0L11.5,17.308,0,17.314,2.957.029,14.464,0Z" transform="translate(97.184 0.426)" fill="#fff"/>
      <path id="Path_11163-2" data-name="Path 11163" d="M13.292,0l4.127,0L14.458,17.308l-4.469,0L5.854,7.221,4.127,17.314,0,17.315,2.953.054l4.494,0,4.114,10.066Z" transform="translate(113.254 0.417)" fill="#fff"/>
      <path id="Path_11164-2" data-name="Path 11164" d="M11.673,0l-.682,3.985-3.444,0L5.256,17.381l-4.128,0L3.42,3.989H0L.682.005Z" transform="translate(134.009 0.339)" fill="#fff"/>
      <path id="Path_11165-2" data-name="Path 11165" d="M11.454,17.308l-.349-2.1-5.642,0-1.092,2.1L0,17.313,9.067,0l3.908,0L15.8,17.306ZM7.562,11.226h2.906l-.7-4.2Z" transform="translate(145.712 0.403)" fill="#fff"/>
      <path id="Path_11166-2" data-name="Path 11166" d="M11.672,0,10.99,3.985l-3.443,0L5.256,17.381l-4.128,0L3.42,3.989,0,3.991.682.005Z" transform="translate(166.76 0.323)" fill="#fff"/>
      <path id="Path_11167-2" data-name="Path 11167" d="M10.558,0a8.108,8.108,0,0,1,3.37.682,7.292,7.292,0,0,1,2.537,1.85,6.916,6.916,0,0,1,1.457,2.746,7.663,7.663,0,0,1,.131,3.372,9.352,9.352,0,0,1-1.284,3.373,11.1,11.1,0,0,1-2.4,2.748A11.591,11.591,0,0,1,11.2,16.623a9.824,9.824,0,0,1-3.6.685,8.108,8.108,0,0,1-3.371-.682A7.174,7.174,0,0,1,1.7,14.777,7,7,0,0,1,.256,12.03a7.675,7.675,0,0,1-.13-3.372A9.368,9.368,0,0,1,1.41,5.286,11.221,11.221,0,0,1,3.795,2.538,11.424,11.424,0,0,1,6.953.686,9.831,9.831,0,0,1,10.558,0ZM8.291,13.323a5.322,5.322,0,0,0,1.943-.367,6.15,6.15,0,0,0,1.71-1,6.039,6.039,0,0,0,1.292-1.486,5.053,5.053,0,0,0,.689-1.816,4.142,4.142,0,0,0-.068-1.816,3.757,3.757,0,0,0-.784-1.485,3.868,3.868,0,0,0-1.367-1,4.395,4.395,0,0,0-1.818-.365,5.318,5.318,0,0,0-1.943.367,6.163,6.163,0,0,0-1.71,1A6.027,6.027,0,0,0,4.943,6.841a5.047,5.047,0,0,0-.689,1.816,4.138,4.138,0,0,0,.068,1.816,3.758,3.758,0,0,0,.784,1.485,3.867,3.867,0,0,0,1.367,1A4.4,4.4,0,0,0,8.291,13.323Z" transform="translate(179.797 0.364)" fill="#fff"/>
      <path id="Path_11168-2" data-name="Path 11168" d="M6.188,12.756q-.326.048-.647.071l-.667.048-.746,4.362L0,17.239,2.949,0,7.077,0A7.55,7.55,0,0,1,9.866.54a6.361,6.361,0,0,1,2.119,1.388,5.011,5.011,0,0,1,1.392,4.5A6.446,6.446,0,0,1,12.325,9a8.066,8.066,0,0,1-2.062,2.061l2.9,6.167-4.86,0ZM5.56,8.866a4.847,4.847,0,0,0,1.3-.225A4.679,4.679,0,0,0,8,8.111a3.287,3.287,0,0,0,.84-.767,2.127,2.127,0,0,0,.416-.932,1.594,1.594,0,0,0-.1-.919,2.04,2.04,0,0,0-.579-.754,3.115,3.115,0,0,0-.959-.53,4.068,4.068,0,0,0-1.22-.223Z" transform="translate(200.052 0.45)" fill="#fff"/>
      <path id="Path_11169-2" data-name="Path 11169" d="M5.16,18.008A6.153,6.153,0,0,1,3.5,17.785,4.822,4.822,0,0,1,2.02,17.09,4.585,4.585,0,0,1,.334,14.958a5.306,5.306,0,0,1-.242-2.865l4.127,0a1.528,1.528,0,0,0,.13,1.1,1.756,1.756,0,0,0,.471.53,1.622,1.622,0,0,0,.9.306,2.443,2.443,0,0,0,1.034-.189,2.055,2.055,0,0,0,.61-.354,2.466,2.466,0,0,0,.388-.413,1.339,1.339,0,0,0,.2-.389,2.8,2.8,0,0,0,.076-.306,2.5,2.5,0,0,0,.028-.307,1.086,1.086,0,0,0-.066-.4,1.271,1.271,0,0,0-.246-.412,1.662,1.662,0,0,0-.487-.365,4.632,4.632,0,0,0-.538-.212q-.29-.093-.611-.212-.579-.188-1.2-.424A5.865,5.865,0,0,1,3.7,9.4a3.959,3.959,0,0,1-1.22-1.3,4.262,4.262,0,0,1-.556-1.674,5.011,5.011,0,0,1,.146-1.851,5.628,5.628,0,0,1,.862-1.828A6.727,6.727,0,0,1,4.272,1.362,6.617,6.617,0,0,1,5.9.43,6.135,6.135,0,0,1,7.7.017,5.647,5.647,0,0,1,9.553.181a4.668,4.668,0,0,1,1.563.671,4.112,4.112,0,0,1,1.11,1.108,3.9,3.9,0,0,1,.589,1.45,4.653,4.653,0,0,1,.005,1.674l-4.106,0a.688.688,0,0,0-.225-.754,2.044,2.044,0,0,0-.574-.282,1.633,1.633,0,0,1-.226-.035,1.218,1.218,0,0,0-.415,0,1.737,1.737,0,0,0-.5.165,1.2,1.2,0,0,0-.462.413,1.112,1.112,0,0,0-.208.79.9.9,0,0,0,.377.649,4.539,4.539,0,0,0,.7.341q.389.153.829.294.394.118.8.259t.807.329a4.464,4.464,0,0,1,2.158,2.074,4.849,4.849,0,0,1,.39,3.042,6.3,6.3,0,0,1-1.427,3.019,7.282,7.282,0,0,1-2.868,2.076,6.92,6.92,0,0,1-1.361.413A7.174,7.174,0,0,1,5.16,18.008Z" transform="translate(217.573 0)" fill="#fff"/>
    </g>
  </g>
</svg>
