<svg xmlns="http://www.w3.org/2000/svg" width="166.538" height="24.108" viewBox="0 0 166.538 24.108">
  <g id="related_latest_logo" transform="translate(-55 -63.869)">
    <g id="Group_820" data-name="Group 820" transform="translate(55 63.869)">
      <g id="Group_818" data-name="Group 818" transform="translate(0 4.841)">
        <g id="Group_756" data-name="Group 756" transform="translate(0 0)">
          <path id="Path_11176" data-name="Path 11176" d="M395.078,392.251l-9.87-.026.043-16.486,3.817.01-.033,12.7,6.053.016Z" transform="translate(-385.208 -375.574)" fill="#66bc99"/>
          <path id="Path_11177" data-name="Path 11177" d="M454.661,392.543l-.65-2-5.217-.014-.683,1.994-4.043-.01,5.689-16.449,3.614.009,5.31,16.477Zm-4.547-5.8,2.688.007-1.3-4Z" transform="translate(-431.488 -375.832)" fill="#66bc99"/>
          <path id="Path_11178" data-name="Path 11178" d="M535.553,375.92l-.01,3.791-3.184-.008-.033,12.74-3.817-.01.033-12.74-3.162-.008.01-3.791Z" transform="translate(-495.422 -375.696)" fill="#66bc99"/>
          <path id="Path_11179" data-name="Path 11179" d="M600.463,380.278l-6.821-.018-.007,2.49,5.533.014-.01,3.791-5.533-.015-.007,2.6,6.821.018-.01,3.791-10.638-.028.043-16.441,10.638.005Z" transform="translate(-546.068 -376.159)" fill="#66bc99"/>
          <path id="Path_11180" data-name="Path 11180" d="M661.724,392.1a5.925,5.925,0,0,1-1.569-.217,5.326,5.326,0,0,1-1.477-.666,5.524,5.524,0,0,1-1.892-2.035,5.61,5.61,0,0,1-.67-2.727l3.817.01a1.639,1.639,0,0,0,.291,1.044,2.12,2.12,0,0,0,.518.506,1.711,1.711,0,0,0,.88.294,2.007,2.007,0,0,0,.927-.177,1.5,1.5,0,0,0,.509-.335,1.84,1.84,0,0,0,.295-.392,1.075,1.075,0,0,0,.125-.37,2.6,2.6,0,0,0,.023-.292,2.571,2.571,0,0,0-.022-.292,1.19,1.19,0,0,0-.123-.382,1.524,1.524,0,0,0-.293-.393,1.936,1.936,0,0,0-.507-.349,4.907,4.907,0,0,0-.53-.2q-.282-.09-.6-.2-.565-.18-1.173-.407a6.562,6.562,0,0,1-1.218-.609,4.743,4.743,0,0,1-1.329-1.237,4.87,4.87,0,0,1-.929-3.356,4.625,4.625,0,0,1,.513-1.737,4.944,4.944,0,0,1,1.02-1.321,4.875,4.875,0,0,1,1.358-.882,4.954,4.954,0,0,1,1.6-.389,5.338,5.338,0,0,1,1.739.162,5.093,5.093,0,0,1,1.55.643,4.936,4.936,0,0,1,1.2,1.057,4.57,4.57,0,0,1,.771,1.382,4.746,4.746,0,0,1,.265,1.593l-3.8-.01a.775.775,0,0,0-.326-.719,2.275,2.275,0,0,0-.575-.271,1.49,1.49,0,0,1-.215-.034,1.1,1.1,0,0,0-.384,0,1.37,1.37,0,0,0-.441.156.878.878,0,0,0-.362.392,1,1,0,0,0-.07.751,1.071,1.071,0,0,0,.45.618,4.976,4.976,0,0,0,.7.327q.383.147.812.283.384.113.778.249t.8.316a5.317,5.317,0,0,1,2.318,1.98,5.354,5.354,0,0,1-.015,5.765,5.318,5.318,0,0,1-2.329,1.968,5.418,5.418,0,0,1-1.195.389A6.146,6.146,0,0,1,661.724,392.1Z" transform="translate(-598.216 -374.969)" fill="#66bc99"/>
          <path id="Path_11181" data-name="Path 11181" d="M733.9,376.435l-.01,3.791-3.185-.008-.033,12.74-3.817-.01.033-12.74-3.162-.008.01-3.791Z" transform="translate(-651.38 -376.101)" fill="#66bc99"/>
        </g>
      </g>
      <g id="Group_819" data-name="Group 819" transform="translate(0.858 3.775)">
        <g id="Group_758" data-name="Group 758" transform="translate(0 0)">
          <path id="Path_11182" data-name="Path 11182" d="M399.092,387.261l-9.87-.026.043-16.486,3.817.01-.033,12.7,6.053.016Z" transform="translate(-389.222 -370.584)" fill="#fff"/>
          <path id="Path_11183" data-name="Path 11183" d="M458.674,387.552l-.65-2-5.217-.013-.683,1.994-4.043-.011,5.689-16.449,3.614.009,5.31,16.477Zm-4.547-5.8,2.688.007-1.3-4Z" transform="translate(-435.502 -370.842)" fill="#fff"/>
          <path id="Path_11184" data-name="Path 11184" d="M539.567,370.931l-.01,3.791-3.184-.008-.033,12.74-3.817-.01.033-12.74-3.162-.008.01-3.791Z" transform="translate(-499.436 -370.706)" fill="#fff"/>
          <path id="Path_11185" data-name="Path 11185" d="M604.476,375.287l-6.82-.018-.007,2.49,5.534.014-.01,3.791-5.533-.014-.007,2.6,6.821.018-.01,3.791-10.637-.028.043-16.441,10.638.005Z" transform="translate(-550.082 -371.168)" fill="#fff"/>
          <path id="Path_11186" data-name="Path 11186" d="M665.736,387.109a5.937,5.937,0,0,1-1.569-.217,5.325,5.325,0,0,1-1.478-.666,5.522,5.522,0,0,1-1.892-2.035,5.607,5.607,0,0,1-.671-2.727l3.817.01a1.641,1.641,0,0,0,.291,1.044,2.125,2.125,0,0,0,.518.506,1.715,1.715,0,0,0,.88.294,2.009,2.009,0,0,0,.926-.177,1.507,1.507,0,0,0,.509-.335,1.84,1.84,0,0,0,.295-.392,1.077,1.077,0,0,0,.125-.37,2.441,2.441,0,0,0,.023-.291,2.391,2.391,0,0,0-.022-.292,1.186,1.186,0,0,0-.123-.382,1.535,1.535,0,0,0-.293-.393,1.957,1.957,0,0,0-.507-.349,4.992,4.992,0,0,0-.53-.2q-.283-.09-.6-.2-.564-.18-1.173-.407a6.567,6.567,0,0,1-1.218-.609,4.75,4.75,0,0,1-1.329-1.237,4.874,4.874,0,0,1-.928-3.356,4.626,4.626,0,0,1,.512-1.737,4.953,4.953,0,0,1,1.02-1.321,4.878,4.878,0,0,1,1.357-.883,4.96,4.96,0,0,1,1.6-.388,5.326,5.326,0,0,1,1.739.162,5.093,5.093,0,0,1,1.55.643,4.927,4.927,0,0,1,1.2,1.057,4.564,4.564,0,0,1,.771,1.382,4.752,4.752,0,0,1,.265,1.593l-3.8-.01a.775.775,0,0,0-.325-.719,2.275,2.275,0,0,0-.575-.271,1.573,1.573,0,0,1-.214-.034,1.108,1.108,0,0,0-.384,0,1.367,1.367,0,0,0-.441.156.882.882,0,0,0-.362.392,1,1,0,0,0-.07.751,1.071,1.071,0,0,0,.45.618,5,5,0,0,0,.7.327q.383.147.812.283.383.114.778.249t.8.316a5.318,5.318,0,0,1,2.319,1.98,5.354,5.354,0,0,1-.015,5.764,5.319,5.319,0,0,1-2.329,1.968,5.407,5.407,0,0,1-1.195.389A6.141,6.141,0,0,1,665.736,387.109Z" transform="translate(-602.228 -369.979)" fill="#fff"/>
          <path id="Path_11187" data-name="Path 11187" d="M737.915,371.445l-.01,3.791-3.185-.009-.033,12.74-3.817-.01.033-12.74-3.162-.009.01-3.791Z" transform="translate(-655.392 -371.111)" fill="#fff"/>
        </g>
      </g>
      <g id="Group_816" data-name="Group 816" transform="translate(89.816 1.159)">
        <path id="Path_11188" data-name="Path 11188" d="M809.851,366.9l1.541,1.4q.1-.71.592-.717l.248,0,2.31,8.472-.064.473-.248,0-.3-1.413-.248,0-.065.473,1.188,4,.247,0a132.606,132.606,0,0,1,4.6-12.887l.679.464.776-.247,1.39.69-.032.236q-.743.01-.872.957l.248,0,.215.233.248,0,.409-1.187.5-.007-.032.237-.28.24.216.233-.032.237a104.176,104.176,0,0,0-5.485,15.733l-.5.007,1.011-3.793q-.5.007-2.1,4.516a3.349,3.349,0,0,1-1.831.734l-.064.473-.247,0q.064-.473-.927-.46l.225-1.656q.146-1.072-3.346-11.765l-.248,0a104.1,104.1,0,0,0-3.278,11.382l-.216-.233q-1.543.437-1.647,1.2l-.5.007a6.492,6.492,0,0,1-.078-3.069l-.248,0-.29,2.129-.5.007-.087-1.18q.875-6.431,5.1-15.658Zm-4.273,5.963-.032.237.215.233-.28.24-.064.473.247,0,.377-.95-.216-.233Zm8.9,3.659q.641-.009.733,1.88l-.032.237-.247,0Z" transform="translate(-802.74 -363.625)" fill="#ffd337"/>
        <path id="Path_11189" data-name="Path 11189" d="M904.482,365.391l1.087.777q-.811,2.109-2.169,2.044l-6.508.366-.093.474,1.213.067,1.52-.159.2.261.246.011,1.768-.163.49.035-.046.237-5.834.649-.868,3.068.246.01,6.8-.606.184.247-.047.237-.49-.035-.032.237,1.656.339-.047.237q-.719,1.33-7.4,2.24l-2.5.117.2.233-1.6,3.023-.248,0,.436-2.132-.246-.01-.928,3.291a65.927,65.927,0,0,1,10.581-.893l1.166.3-.079.473-.492-.021.184.248-.14.71q-.835.9-3.133.793l-.047.237,1.965.1-.108.474-11.747,1.771-.246-.01q-1.162-.235-1.095-.722l.006-.042.14-.71,1.033-2.57-.2-.247.493.007-.248,1.184.244.025q.306-1.185.738-1.149l-.2-.262.495-2.355-.49-.035-.494,1.174.307-.227.246.01-.3,1.421-.244-.025.139-.7-.246-.011-.093.474-.246-.01.094-.474,1.33-4.006-.245-.01.723-1.149-.2-.247.047-.237,1.082-4,.2.247.246.01.094-.474,0-1.195.681-2.121.14-.711.244.025.2.248.293-.226.244.024.2.233.293-.226.735.045ZM890.674,375.9l-.342,1.658.246.011.34-1.644Zm8.133.2.248,0-.061.237-4.547.492-.2-.261.045-.223,2.257-.128-.046.237Z" transform="translate(-869.987 -362.597)" fill="#ffd337"/>
        <path id="Path_11190" data-name="Path 11190" d="M964.656,358.109l.743-.01.087,1.18a.762.762,0,0,0,.84-.72l.247,0,.431.467-.441,1.423.248,0-.28.24-.032.237.216.233-.032.237-.248,0,.216.233-.032.237-1.31,7.813-.032.236.248,0,1.065-2.376.5-.007-2.346,4.519.5-.007,4.067-8.086-.5.007-1.409,3.09-.5.007.032-.237,2.249-3.81.248,0-.064.473,2.046-.5q.944.334.895.7l.28-.24.743-.01.219,5.666.248,0q.144-1.058,5.564-12.247l.248,0,.151.707.248,0,.064-.473.247,0q1.836-.025,1.885.683l-.064.473-.592.716-.033.237.5-.007.473-1.66.495-.007.431.467-.032.237-8.167,18.658-.776.247.064-.473-.28.24-.248,0-.215-.233q-.129.946-.872.956-1.959-.14-1.886-.683l.247,0a2.04,2.04,0,0,0-.766-1.643l-.283-5.193q-.425.02-3.874,6.666l-1.4,1.2-.247,0-.119-.943q4.6-6.036,5.219-9.282-.741.636-4.186,7.143-.306,0-1.378,2.853l-2.229.03-.119-.943-.28.24-.247,0a2.035,2.035,0,0,0-.486-1.883l.128-.947.895.7.052-4.016.28-.24-.216-.233.28-.24-.247,0,.28-.24.451-3.313.409-1.187-.248,0,.28-.24.837-6.152-.216-.233.032-.237Zm14.544-.085q-5.137,10.921-5.316,12.243l-.032.237.248,0,5.6-12.483Zm-3.936,14.823-.785,2.136-.065.473.248,0,.817-2.373.032-.236Zm2.259-5.7-.785,2.137-.032.237.248,0,.785-2.136.032-.237Z" transform="translate(-927.061 -355.871)" fill="#ffd337"/>
        <path id="Path_11191" data-name="Path 11191" d="M1062.289,361.941q.591.464,4.1.417l-.047.237-1.734.024-.047.237q3.1-.042,3.683,1.367l-.093.474-1.239.017-.047.237,1.687.214-.047.237-1.487.02-.047.237q.743-.01.65.464a13.331,13.331,0,0,0-8.3,3.183l-.047.237a10.262,10.262,0,0,1,6.853,5.34l-.047.237q-1.32,3.075-5.829,5.748l-1.548.257-.047.237.5-.007q-.117.641-4.74,1.482l.093-.474,1.239-.017.062-.237a3.04,3.04,0,0,1-2.646-1.617,1.789,1.789,0,0,1-.825-2.059q.019-.139.054-.293l.837-.484.65.463.5-.007q7.137-1.138,7.793-4.357a10.544,10.544,0,0,0-3.684-1.367l-.047.237-2.3-.913.2.233-.079.474q-2.794-2.13-2.566-3.272l2.388-3.339,1.426-.964-.094.474Zm-6.139,19.688-.047.237.991-.013,1.286-.253.032-.237-.248,0Zm1.889-13.253-.047.237,4.726-2.662,2.075-.5.094-.474-.5.007A19.586,19.586,0,0,0,1058.039,368.376Zm.05,9.683.248,0,.589-.48-.248,0Zm1.1,1.875-.032.237.248,0,1.131-.724Zm3.361-1.935-1.225,1.2.248,0,1.225-1.2Z" transform="translate(-998.965 -359.884)" fill="#ffd337"/>
        <path id="Path_11192" data-name="Path 11192" d="M1127.3,369.688l-.032.236-.28.24-.032.237.28-.24.5-.007.55,1.41.151.707-.84.72.5-.007.431.466-.064.473-3.813.76-.215-.233.064-.473q.99-.013,1.055-.487l.032-.237-1.486.02.193-1.42.279-.24.032-.237-.248,0-.776.246.032-.236Q1124.578,369.724,1127.3,369.688Zm1.329-17.372,3.1,1.083-.038.278a41.777,41.777,0,0,0-2.531,8.774l-.04.292a15.1,15.1,0,0,0,.413,4.774l-.378.853q-.671.009-.65-1.1l-.277,0-.076.557-1.093.015-.346-1.412-.3.3-.277,0q-1.7-1.408-1.241-4.776l.075-.557,1.31-5.672.277,0,.031,1.695-.539.007-.078.571.462.563.277,0,1-3.4-.315.282-.262,0,.113-.835.617-.578-.116.849.277,0,.155-1.142-.48-.535Zm-3.155,7.365-.193,1.42.071,1.4.277,0,.115-.849-.008-1.973Zm0,3.946q.454,2.536,1.008,2.529Zm.651-4.788-.153,1.128.262,0,.153-1.127Zm.575-4.232.262,0,.126,1.11-.539.007Z" transform="translate(-1055.007 -352.316)" fill="#ffd337"/>
      </g>
      <g id="Group_817" data-name="Group 817" transform="translate(89.236)">
        <path id="Path_11188-2" data-name="Path 11188" d="M809.851,366.9l1.541,1.4q.1-.71.592-.717l.248,0,2.31,8.472-.064.473-.248,0-.3-1.413-.248,0-.065.473,1.188,4,.247,0a132.606,132.606,0,0,1,4.6-12.887l.679.464.776-.247,1.39.69-.032.236q-.743.01-.872.957l.248,0,.215.233.248,0,.409-1.187.5-.007-.032.237-.28.24.216.233-.032.237a104.176,104.176,0,0,0-5.485,15.733l-.5.007,1.011-3.793q-.5.007-2.1,4.516a3.349,3.349,0,0,1-1.831.734l-.064.473-.247,0q.064-.473-.927-.46l.225-1.656q.146-1.072-3.346-11.765l-.248,0a104.1,104.1,0,0,0-3.278,11.382l-.216-.233q-1.543.437-1.647,1.2l-.5.007a6.492,6.492,0,0,1-.078-3.069l-.248,0-.29,2.129-.5.007-.087-1.18q.875-6.431,5.1-15.658Zm-4.273,5.963-.032.237.215.233-.28.24-.064.473.247,0,.377-.95-.216-.233Zm8.9,3.659q.641-.009.733,1.88l-.032.237-.247,0Z" transform="translate(-802.74 -363.625)" fill="#0cebb3"/>
        <path id="Path_11189-2" data-name="Path 11189" d="M904.482,365.391l1.087.777q-.811,2.109-2.169,2.044l-6.508.366-.093.474,1.213.067,1.52-.159.2.261.246.011,1.768-.163.49.035-.046.237-5.834.649-.868,3.068.246.01,6.8-.606.184.247-.047.237-.49-.035-.032.237,1.656.339-.047.237q-.719,1.33-7.4,2.24l-2.5.117.2.233-1.6,3.023-.248,0,.436-2.132-.246-.01-.928,3.291a65.927,65.927,0,0,1,10.581-.893l1.166.3-.079.473-.492-.021.184.248-.14.71q-.835.9-3.133.793l-.047.237,1.965.1-.108.474-11.747,1.771-.246-.01q-1.162-.235-1.095-.722l.006-.042.14-.71,1.033-2.57-.2-.247.493.007-.248,1.184.244.025q.306-1.185.738-1.149l-.2-.262.495-2.355-.49-.035-.494,1.174.307-.227.246.01-.3,1.421-.244-.025.139-.7-.246-.011-.093.474-.246-.01.094-.474,1.33-4.006-.245-.01.723-1.149-.2-.247.047-.237,1.082-4,.2.247.246.01.094-.474,0-1.195.681-2.121.14-.711.244.025.2.248.293-.226.244.024.2.233.293-.226.735.045ZM890.674,375.9l-.342,1.658.246.011.34-1.644Zm8.133.2.248,0-.061.237-4.547.492-.2-.261.045-.223,2.257-.128-.046.237Z" transform="translate(-869.987 -362.597)" fill="#0cebb3"/>
        <path id="Path_11190-2" data-name="Path 11190" d="M964.656,358.109l.743-.01.087,1.18a.762.762,0,0,0,.84-.72l.247,0,.431.467-.441,1.423.248,0-.28.24-.032.237.216.233-.032.237-.248,0,.216.233-.032.237-1.31,7.813-.032.236.248,0,1.065-2.376.5-.007-2.346,4.519.5-.007,4.067-8.086-.5.007-1.409,3.09-.5.007.032-.237,2.249-3.81.248,0-.064.473,2.046-.5q.944.334.895.7l.28-.24.743-.01.219,5.666.248,0q.144-1.058,5.564-12.247l.248,0,.151.707.248,0,.064-.473.247,0q1.836-.025,1.885.683l-.064.473-.592.716-.033.237.5-.007.473-1.66.495-.007.431.467-.032.237-8.167,18.658-.776.247.064-.473-.28.24-.248,0-.215-.233q-.129.946-.872.956-1.959-.14-1.886-.683l.247,0a2.04,2.04,0,0,0-.766-1.643l-.283-5.193q-.425.02-3.874,6.666l-1.4,1.2-.247,0-.119-.943q4.6-6.036,5.219-9.282-.741.636-4.186,7.143-.306,0-1.378,2.853l-2.229.03-.119-.943-.28.24-.247,0a2.035,2.035,0,0,0-.486-1.883l.128-.947.895.7.052-4.016.28-.24-.216-.233.28-.24-.247,0,.28-.24.451-3.313.409-1.187-.248,0,.28-.24.837-6.152-.216-.233.032-.237Zm14.544-.085q-5.137,10.921-5.316,12.243l-.032.237.248,0,5.6-12.483Zm-3.936,14.823-.785,2.136-.065.473.248,0,.817-2.373.032-.236Zm2.259-5.7-.785,2.137-.032.237.248,0,.785-2.136.032-.237Z" transform="translate(-927.061 -355.871)" fill="#0cebb3"/>
        <path id="Path_11191-2" data-name="Path 11191" d="M1062.289,361.941q.591.464,4.1.417l-.047.237-1.734.024-.047.237q3.1-.042,3.683,1.367l-.093.474-1.239.017-.047.237,1.687.214-.047.237-1.487.02-.047.237q.743-.01.65.464a13.331,13.331,0,0,0-8.3,3.183l-.047.237a10.262,10.262,0,0,1,6.853,5.34l-.047.237q-1.32,3.075-5.829,5.748l-1.548.257-.047.237.5-.007q-.117.641-4.74,1.482l.093-.474,1.239-.017.062-.237a3.04,3.04,0,0,1-2.646-1.617,1.789,1.789,0,0,1-.825-2.059q.019-.139.054-.293l.837-.484.65.463.5-.007q7.137-1.138,7.793-4.357a10.544,10.544,0,0,0-3.684-1.367l-.047.237-2.3-.913.2.233-.079.474q-2.794-2.13-2.566-3.272l2.388-3.339,1.426-.964-.094.474Zm-6.139,19.688-.047.237.991-.013,1.286-.253.032-.237-.248,0Zm1.889-13.253-.047.237,4.726-2.662,2.075-.5.094-.474-.5.007A19.586,19.586,0,0,0,1058.039,368.376Zm.05,9.683.248,0,.589-.48-.248,0Zm1.1,1.875-.032.237.248,0,1.131-.724Zm3.361-1.935-1.225,1.2.248,0,1.225-1.2Z" transform="translate(-998.965 -359.884)" fill="#0cebb3"/>
        <path id="Path_11192-2" data-name="Path 11192" d="M1127.3,369.688l-.032.236-.28.24-.032.237.28-.24.5-.007.55,1.41.151.707-.84.72.5-.007.431.466-.064.473-3.813.76-.215-.233.064-.473q.99-.013,1.055-.487l.032-.237-1.486.02.193-1.42.279-.24.032-.237-.248,0-.776.246.032-.236Q1124.578,369.724,1127.3,369.688Zm1.329-17.372,3.1,1.083-.038.278a41.777,41.777,0,0,0-2.531,8.774l-.04.292a15.1,15.1,0,0,0,.413,4.774l-.378.853q-.671.009-.65-1.1l-.277,0-.076.557-1.093.015-.346-1.412-.3.3-.277,0q-1.7-1.408-1.241-4.776l.075-.557,1.31-5.672.277,0,.031,1.695-.539.007-.078.571.462.563.277,0,1-3.4-.315.282-.262,0,.113-.835.617-.578-.116.849.277,0,.155-1.142-.48-.535Zm-3.155,7.365-.193,1.42.071,1.4.277,0,.115-.849-.008-1.973Zm0,3.946q.454,2.536,1.008,2.529Zm.651-4.788-.153,1.128.262,0,.153-1.127Zm.575-4.232.262,0,.126,1.11-.539.007Z" transform="translate(-1055.007 -352.316)" fill="#0cebb3"/>
      </g>
    </g>
  </g>
</svg>
