<svg xmlns="http://www.w3.org/2000/svg" width="249.541" height="19.7" viewBox="0 0 249.541 19.7">
  <g id="related_trickster_logo" transform="translate(-28 -235.805)">
    <g id="Group_811" data-name="Group 811" transform="translate(28 235.805)">
      <g id="Group_810" data-name="Group 810" transform="translate(0 0)">
        <g id="Group_809" data-name="Group 809">
          <path id="Path_13697" data-name="Path 13697" d="M1798.488,380.851v4.111h-3.5v13.815h-4.2V384.962h-3.476v-4.111Z" transform="translate(-1787.314 -379.417)" fill="#fff"/>
          <path id="Path_13698" data-name="Path 13698" d="M1861.427,394.658q-.323.049-.646.073l-.67.048v4.5h-4.2V381.5h4.2a8.337,8.337,0,0,1,2.93.559,8.113,8.113,0,0,1,2.4,1.433,6.623,6.623,0,0,1,1.614,2.089,5.716,5.716,0,0,1,.583,2.55,5.811,5.811,0,0,1-.621,2.66,6.443,6.443,0,0,1-1.738,2.125l4.022,6.363h-4.941Zm-1.316-4.013a4.441,4.441,0,0,0,1.279-.231,3.859,3.859,0,0,0,1.068-.547,2.619,2.619,0,0,0,.72-.791,1.883,1.883,0,0,0,.261-.961,1.821,1.821,0,0,0-.261-.949,2.692,2.692,0,0,0-.72-.778,3.885,3.885,0,0,0-1.068-.547,4.473,4.473,0,0,0-1.279-.231Z" transform="translate(-1840.47 -379.92)" fill="#fff"/>
          <path id="Path_13699" data-name="Path 13699" d="M1938.746,398.945h-4.2V381.068h4.2Z" transform="translate(-1901.402 -379.585)" fill="#fff"/>
          <path id="Path_13700" data-name="Path 13700" d="M1978.845,398.837a9.5,9.5,0,0,1-3.439-.645,8.789,8.789,0,0,1-3.017-1.958,9.057,9.057,0,0,1-1.974-2.906,8.953,8.953,0,0,1,0-6.859,8.787,8.787,0,0,1,1.974-2.882,8.914,8.914,0,0,1,3.029-1.97,9.407,9.407,0,0,1,3.439-.657,9.309,9.309,0,0,1,3.426.657,8.947,8.947,0,0,1,3.017,1.97l-2.955,2.894a4.767,4.767,0,0,0-1.639-1.058,5.167,5.167,0,0,0-1.862-.353,5.068,5.068,0,0,0-1.85.353,4.788,4.788,0,0,0-1.626,1.058,5.062,5.062,0,0,0-1.068,1.581,4.679,4.679,0,0,0-.372,1.849,4.59,4.59,0,0,0,.372,1.836,5.1,5.1,0,0,0,1.068,1.569,4.777,4.777,0,0,0,1.626,1.058,5.059,5.059,0,0,0,1.85.353,5.158,5.158,0,0,0,1.862-.353,4.756,4.756,0,0,0,1.639-1.058l2.955,2.919a8.821,8.821,0,0,1-3,1.958A9.47,9.47,0,0,1,1978.845,398.837Z" transform="translate(-1928.663 -379.501)" fill="#fff"/>
          <path id="Path_13701" data-name="Path 13701" d="M2071.542,381.068l-9.361,8.95,9.361,8.926h-6.058l-5.86-5.618v5.618h-4.2V381.068h4.2v5.643l5.885-5.643Z" transform="translate(-1995.066 -379.585)" fill="#fff"/>
          <path id="Path_13702" data-name="Path 13702" d="M2142.009,398.055a6.611,6.611,0,0,1-1.725-.231,5.9,5.9,0,0,1-1.626-.717,6.009,6.009,0,0,1-2.831-5.156h4.2a1.758,1.758,0,0,0,.323,1.131,2.313,2.313,0,0,0,.571.547,1.9,1.9,0,0,0,.968.316,2.239,2.239,0,0,0,1.018-.195,1.662,1.662,0,0,0,.559-.365,2.014,2.014,0,0,0,.323-.426,1.155,1.155,0,0,0,.136-.4,1.982,1.982,0,0,0,0-.632,1.28,1.28,0,0,0-.136-.414,1.678,1.678,0,0,0-.323-.426,2.158,2.158,0,0,0-.559-.377,5.579,5.579,0,0,0-.584-.219q-.311-.1-.658-.219-.621-.195-1.292-.438a7.265,7.265,0,0,1-1.341-.657,5.2,5.2,0,0,1-1.465-1.338,5.225,5.225,0,0,1-1.03-3.636,4.957,4.957,0,0,1,.559-1.885,5.36,5.36,0,0,1,2.607-2.4,5.5,5.5,0,0,1,1.763-.426,5.933,5.933,0,0,1,1.912.17,5.634,5.634,0,0,1,1.706.693,5.406,5.406,0,0,1,1.321,1.143,4.947,4.947,0,0,1,.852,1.5,5.085,5.085,0,0,1,.3,1.727h-4.175a.836.836,0,0,0-.36-.778,2.516,2.516,0,0,0-.633-.292,1.7,1.7,0,0,1-.236-.036,1.227,1.227,0,0,0-.422,0,1.512,1.512,0,0,0-.484.17.96.96,0,0,0-.4.426,1.069,1.069,0,0,0-.074.815,1.164,1.164,0,0,0,.5.669,5.516,5.516,0,0,0,.77.353q.422.159.894.3.421.122.856.267t.878.341a5.826,5.826,0,0,1,2.555,2.14,5.739,5.739,0,0,1,0,6.251,5.827,5.827,0,0,1-2.555,2.14,6.007,6.007,0,0,1-1.312.426A6.834,6.834,0,0,1,2142.009,398.055Z" transform="translate(-2057.365 -378.355)" fill="#fff"/>
          <path id="Path_13703" data-name="Path 13703" d="M2217.475,380.851v4.111h-3.5v13.815h-4.2V384.962H2206.3v-4.111Z" transform="translate(-2111.974 -379.417)" fill="#fff"/>
          <path id="Path_13704" data-name="Path 13704" d="M2285.384,385.286h-7.5v2.7h6.083V392.1h-6.083v2.821h7.5v4.11h-11.695V381.2l11.695-.025Z" transform="translate(-2164.189 -379.668)" fill="#fff"/>
          <path id="Path_13705" data-name="Path 13705" d="M2351.77,394.658q-.323.049-.646.073l-.671.048v4.5h-4.2V381.5h4.2a8.34,8.34,0,0,1,2.93.559,8.117,8.117,0,0,1,2.4,1.433,6.624,6.624,0,0,1,1.614,2.089,5.721,5.721,0,0,1,.583,2.55,5.809,5.809,0,0,1-.62,2.66,6.435,6.435,0,0,1-1.738,2.125l4.023,6.363H2354.7Zm-1.316-4.013a4.436,4.436,0,0,0,1.279-.231,3.856,3.856,0,0,0,1.068-.547,2.611,2.611,0,0,0,.72-.791,1.887,1.887,0,0,0,.261-.961,1.825,1.825,0,0,0-.261-.949,2.684,2.684,0,0,0-.72-.778,3.882,3.882,0,0,0-1.068-.547,4.468,4.468,0,0,0-1.279-.231Z" transform="translate(-2220.42 -379.92)" fill="#fff"/>
          <path id="Path_13713" data-name="Path 13713" d="M1802.488,375.851v4.111h-3.5v13.815h-4.2V379.962h-3.476v-4.111Z" transform="translate(-1790.413 -375.542)" fill="#66bc99"/>
          <path id="Path_13714" data-name="Path 13714" d="M1865.427,389.658q-.323.049-.646.073l-.67.048v4.5h-4.2V376.5h4.2a8.338,8.338,0,0,1,2.93.559,8.114,8.114,0,0,1,2.4,1.433,6.625,6.625,0,0,1,1.614,2.089,5.718,5.718,0,0,1,.583,2.55,5.811,5.811,0,0,1-.621,2.66,6.443,6.443,0,0,1-1.738,2.125l4.022,6.363h-4.941Zm-1.316-4.013a4.441,4.441,0,0,0,1.279-.231,3.859,3.859,0,0,0,1.068-.547,2.619,2.619,0,0,0,.72-.791,1.884,1.884,0,0,0,.26-.961,1.822,1.822,0,0,0-.26-.949,2.692,2.692,0,0,0-.72-.778,3.882,3.882,0,0,0-1.068-.547,4.47,4.47,0,0,0-1.279-.231Z" transform="translate(-1843.569 -376.045)" fill="#66bc99"/>
          <path id="Path_13715" data-name="Path 13715" d="M1942.746,393.945h-4.2V376.068h4.2Z" transform="translate(-1904.501 -375.71)" fill="#66bc99"/>
          <path id="Path_13716" data-name="Path 13716" d="M1982.845,393.837a9.5,9.5,0,0,1-3.439-.645,8.788,8.788,0,0,1-3.017-1.958,9.056,9.056,0,0,1-1.974-2.906,8.953,8.953,0,0,1,0-6.859,8.787,8.787,0,0,1,1.974-2.882,8.913,8.913,0,0,1,3.029-1.97,9.408,9.408,0,0,1,3.439-.657,9.31,9.31,0,0,1,3.426.657,8.948,8.948,0,0,1,3.017,1.97l-2.955,2.894a4.767,4.767,0,0,0-1.639-1.058,5.168,5.168,0,0,0-1.862-.353,5.068,5.068,0,0,0-1.85.353,4.787,4.787,0,0,0-1.626,1.058,5.061,5.061,0,0,0-1.068,1.581,4.679,4.679,0,0,0-.372,1.849,4.59,4.59,0,0,0,.372,1.836,5.1,5.1,0,0,0,1.068,1.569,4.778,4.778,0,0,0,1.626,1.058,5.058,5.058,0,0,0,1.85.353,5.158,5.158,0,0,0,1.862-.353,4.757,4.757,0,0,0,1.639-1.058l2.955,2.919a8.82,8.82,0,0,1-3,1.958A9.47,9.47,0,0,1,1982.845,393.837Z" transform="translate(-1931.763 -375.627)" fill="#66bc99"/>
          <path id="Path_13717" data-name="Path 13717" d="M2075.542,376.068l-9.361,8.95,9.361,8.926h-6.058l-5.86-5.618v5.618h-4.2V376.068h4.2v5.643l5.885-5.643Z" transform="translate(-1998.165 -375.71)" fill="#66bc99"/>
          <path id="Path_13718" data-name="Path 13718" d="M2146.009,393.055a6.61,6.61,0,0,1-1.725-.231,5.9,5.9,0,0,1-1.626-.717,6.009,6.009,0,0,1-2.831-5.156h4.2a1.758,1.758,0,0,0,.323,1.131,2.313,2.313,0,0,0,.571.547,1.9,1.9,0,0,0,.968.316,2.238,2.238,0,0,0,1.018-.195,1.661,1.661,0,0,0,.559-.365,2.023,2.023,0,0,0,.323-.426,1.156,1.156,0,0,0,.136-.4,1.982,1.982,0,0,0,0-.632,1.28,1.28,0,0,0-.136-.414,1.683,1.683,0,0,0-.323-.426,2.157,2.157,0,0,0-.559-.377,5.579,5.579,0,0,0-.584-.219q-.311-.1-.658-.219-.621-.195-1.291-.438a7.264,7.264,0,0,1-1.341-.657,5.2,5.2,0,0,1-1.465-1.338,5.225,5.225,0,0,1-1.03-3.636,4.957,4.957,0,0,1,.559-1.885,5.36,5.36,0,0,1,2.607-2.4,5.5,5.5,0,0,1,1.763-.426,5.932,5.932,0,0,1,1.912.17,5.636,5.636,0,0,1,1.706.693,5.406,5.406,0,0,1,1.321,1.143,4.941,4.941,0,0,1,.851,1.5,5.079,5.079,0,0,1,.3,1.727h-4.175a.836.836,0,0,0-.36-.778,2.517,2.517,0,0,0-.633-.292,1.7,1.7,0,0,1-.236-.036,1.226,1.226,0,0,0-.422,0,1.513,1.513,0,0,0-.484.17.962.962,0,0,0-.4.426,1.069,1.069,0,0,0-.074.815,1.164,1.164,0,0,0,.5.669,5.523,5.523,0,0,0,.77.353q.422.159.894.3.421.122.856.267t.878.341a5.825,5.825,0,0,1,2.555,2.14,5.739,5.739,0,0,1,0,6.251,5.828,5.828,0,0,1-2.555,2.14,6.011,6.011,0,0,1-1.312.426A6.834,6.834,0,0,1,2146.009,393.055Z" transform="translate(-2060.464 -374.48)" fill="#66bc99"/>
          <path id="Path_13719" data-name="Path 13719" d="M2221.475,375.851v4.111h-3.5v13.815h-4.2V379.962H2210.3v-4.111Z" transform="translate(-2115.073 -375.542)" fill="#66bc99"/>
          <path id="Path_13720" data-name="Path 13720" d="M2289.384,380.286h-7.5v2.7h6.083V387.1h-6.083v2.821h7.5v4.111h-11.695V376.2l11.695-.025Z" transform="translate(-2167.289 -375.794)" fill="#66bc99"/>
          <path id="Path_13721" data-name="Path 13721" d="M2355.77,389.658q-.323.049-.646.073l-.671.048v4.5h-4.2V376.5h4.2a8.341,8.341,0,0,1,2.93.559,8.118,8.118,0,0,1,2.4,1.433,6.624,6.624,0,0,1,1.614,2.089,5.721,5.721,0,0,1,.583,2.55,5.809,5.809,0,0,1-.62,2.66,6.435,6.435,0,0,1-1.738,2.125l4.023,6.363H2358.7Zm-1.316-4.013a4.437,4.437,0,0,0,1.279-.231,3.857,3.857,0,0,0,1.068-.547,2.615,2.615,0,0,0,.72-.791,1.887,1.887,0,0,0,.261-.961,1.825,1.825,0,0,0-.261-.949,2.687,2.687,0,0,0-.72-.778,3.88,3.88,0,0,0-1.068-.547,4.466,4.466,0,0,0-1.279-.231Z" transform="translate(-2223.52 -376.045)" fill="#66bc99"/>
        </g>
      </g>
    </g>
    <g id="Group_808" data-name="Group 808" transform="translate(175.36 235.805)">
      <g id="Group_807" data-name="Group 807" transform="translate(0 0)">
        <g id="Group_806" data-name="Group 806">
          <path id="Path_13706" data-name="Path 13706" d="M2462.647,380.851v4.111h-3.5v13.815h-4.2V384.962h-3.476v-4.111Z" transform="translate(-2451.474 -379.417)" fill="#66bc99"/>
          <path id="Path_13707" data-name="Path 13707" d="M2524.268,398.945h-4.2V381.068h4.2Z" transform="translate(-2504.628 -379.585)" fill="#66bc99"/>
          <path id="Path_13708" data-name="Path 13708" d="M2572.489,388.691a7.193,7.193,0,0,1-.583,2.882,7.5,7.5,0,0,1-1.614,2.371,7.8,7.8,0,0,1-2.4,1.617,7.545,7.545,0,0,1-2.93.62v2.845h-4.2V381.175h4.2a7.423,7.423,0,0,1,2.93.632,7.991,7.991,0,0,1,2.4,1.63,7.5,7.5,0,0,1,1.614,2.372A7.191,7.191,0,0,1,2572.489,388.691Zm-7.524,3.381a3.355,3.355,0,0,0,1.3-.305,3.581,3.581,0,0,0,1.055-.732,3.372,3.372,0,0,0,.707-1.062,3.339,3.339,0,0,0,0-2.587,3.378,3.378,0,0,0-.707-1.062,3.589,3.589,0,0,0-1.055-.732,3.367,3.367,0,0,0-1.3-.305Z" transform="translate(-2536.163 -379.668)" fill="#66bc99"/>
          <path id="Path_13709" data-name="Path 13709" d="M2637.647,398.055a6.612,6.612,0,0,1-1.726-.231,5.9,5.9,0,0,1-1.626-.717,6.009,6.009,0,0,1-2.831-5.156h4.2a1.764,1.764,0,0,0,.323,1.131,2.317,2.317,0,0,0,.571.547,1.908,1.908,0,0,0,.969.316,2.239,2.239,0,0,0,1.018-.195,1.659,1.659,0,0,0,.559-.365,2,2,0,0,0,.323-.426,1.153,1.153,0,0,0,.137-.4,2.06,2.06,0,0,0,0-.632,1.277,1.277,0,0,0-.137-.414,1.666,1.666,0,0,0-.323-.426,2.153,2.153,0,0,0-.559-.377,5.57,5.57,0,0,0-.583-.219c-.208-.065-.427-.138-.658-.219q-.621-.195-1.291-.438a7.238,7.238,0,0,1-1.341-.657,5.182,5.182,0,0,1-1.465-1.338,5.231,5.231,0,0,1-1.031-3.636,4.957,4.957,0,0,1,.559-1.885,5.361,5.361,0,0,1,2.607-2.4,5.5,5.5,0,0,1,1.763-.426,5.934,5.934,0,0,1,1.912.17,5.639,5.639,0,0,1,1.706.693,5.4,5.4,0,0,1,1.321,1.143,4.932,4.932,0,0,1,.852,1.5,5.079,5.079,0,0,1,.3,1.727h-4.175a.837.837,0,0,0-.36-.778,2.525,2.525,0,0,0-.634-.292,1.724,1.724,0,0,1-.236-.036,1.229,1.229,0,0,0-.422,0,1.513,1.513,0,0,0-.484.17.965.965,0,0,0-.4.426,1.071,1.071,0,0,0-.075.815,1.164,1.164,0,0,0,.5.669,5.509,5.509,0,0,0,.77.353q.422.159.894.3.422.122.856.267t.878.341a5.827,5.827,0,0,1,2.555,2.14,5.74,5.74,0,0,1,0,6.251,5.829,5.829,0,0,1-2.555,2.14,6.011,6.011,0,0,1-1.312.426A6.833,6.833,0,0,1,2637.647,398.055Z" transform="translate(-2590.942 -378.355)" fill="#66bc99"/>
          <path id="Path_13710" data-name="Path 13710" d="M2713.112,380.851v4.111h-3.5v13.815h-4.2V384.962h-3.476v-4.111Z" transform="translate(-2645.551 -379.417)" fill="#66bc99"/>
          <path id="Path_13711" data-name="Path 13711" d="M2781.02,385.286h-7.5v2.7h6.083V392.1h-6.083v2.821h7.5v4.11h-11.695V381.2l11.695-.025Z" transform="translate(-2697.766 -379.668)" fill="#66bc99"/>
          <path id="Path_13712" data-name="Path 13712" d="M2847.408,394.658q-.323.049-.646.073l-.67.048v4.5h-4.2V381.5h4.2a8.335,8.335,0,0,1,2.93.559,8.109,8.109,0,0,1,2.4,1.433,6.626,6.626,0,0,1,1.614,2.089,5.721,5.721,0,0,1,.583,2.55,5.807,5.807,0,0,1-.621,2.66,6.437,6.437,0,0,1-1.738,2.125l4.022,6.363h-4.941Zm-1.316-4.013a4.444,4.444,0,0,0,1.279-.231,3.855,3.855,0,0,0,1.067-.547,2.615,2.615,0,0,0,.72-.791,1.885,1.885,0,0,0,.261-.961,1.822,1.822,0,0,0-.261-.949,2.688,2.688,0,0,0-.72-.778,3.881,3.881,0,0,0-1.067-.547,4.476,4.476,0,0,0-1.279-.231Z" transform="translate(-2753.999 -379.92)" fill="#66bc99"/>
          <path id="Path_13722" data-name="Path 13722" d="M2466.647,375.851v4.111h-3.5v13.815h-4.2V379.962h-3.476v-4.111Z" transform="translate(-2454.574 -375.542)" fill="#fff"/>
          <path id="Path_13723" data-name="Path 13723" d="M2528.268,393.945h-4.2V376.068h4.2Z" transform="translate(-2507.728 -375.71)" fill="#fff"/>
          <path id="Path_13724" data-name="Path 13724" d="M2576.489,383.691a7.189,7.189,0,0,1-.584,2.882,7.5,7.5,0,0,1-1.614,2.371,7.8,7.8,0,0,1-2.4,1.617,7.545,7.545,0,0,1-2.93.62v2.845h-4.2V376.175h4.2a7.423,7.423,0,0,1,2.93.632,7.993,7.993,0,0,1,2.4,1.63,7.5,7.5,0,0,1,1.614,2.372A7.187,7.187,0,0,1,2576.489,383.691Zm-7.524,3.381a3.353,3.353,0,0,0,1.3-.305,3.578,3.578,0,0,0,1.056-.732,3.371,3.371,0,0,0,.707-1.062,3.339,3.339,0,0,0,0-2.587,3.377,3.377,0,0,0-.707-1.062,3.587,3.587,0,0,0-1.056-.732,3.364,3.364,0,0,0-1.3-.305Z" transform="translate(-2539.262 -375.794)" fill="#fff"/>
          <path id="Path_13725" data-name="Path 13725" d="M2641.647,393.055a6.61,6.61,0,0,1-1.726-.231,5.9,5.9,0,0,1-1.626-.717,6.009,6.009,0,0,1-2.831-5.156h4.2a1.762,1.762,0,0,0,.323,1.131,2.317,2.317,0,0,0,.571.547,1.908,1.908,0,0,0,.969.316,2.238,2.238,0,0,0,1.018-.195,1.658,1.658,0,0,0,.559-.365,2,2,0,0,0,.323-.426,1.153,1.153,0,0,0,.137-.4,2.06,2.06,0,0,0,0-.632,1.277,1.277,0,0,0-.137-.414,1.665,1.665,0,0,0-.323-.426,2.153,2.153,0,0,0-.559-.377,5.57,5.57,0,0,0-.583-.219c-.208-.065-.427-.138-.658-.219q-.621-.195-1.291-.438a7.238,7.238,0,0,1-1.341-.657,5.182,5.182,0,0,1-1.465-1.338,5.231,5.231,0,0,1-1.031-3.636,4.957,4.957,0,0,1,.559-1.885,5.36,5.36,0,0,1,2.607-2.4,5.5,5.5,0,0,1,1.763-.426,5.933,5.933,0,0,1,1.912.17,5.641,5.641,0,0,1,1.706.693,5.4,5.4,0,0,1,1.321,1.143,4.931,4.931,0,0,1,.852,1.5,5.078,5.078,0,0,1,.3,1.727h-4.174a.837.837,0,0,0-.36-.778,2.526,2.526,0,0,0-.634-.292,1.722,1.722,0,0,1-.236-.036,1.227,1.227,0,0,0-.422,0,1.513,1.513,0,0,0-.484.17.965.965,0,0,0-.4.426,1.071,1.071,0,0,0-.075.815,1.164,1.164,0,0,0,.5.669,5.516,5.516,0,0,0,.77.353q.422.159.894.3.422.122.856.267t.878.341a5.827,5.827,0,0,1,2.555,2.14,5.74,5.74,0,0,1,0,6.251,5.829,5.829,0,0,1-2.555,2.14,6.011,6.011,0,0,1-1.312.426A6.833,6.833,0,0,1,2641.647,393.055Z" transform="translate(-2594.042 -374.48)" fill="#fff"/>
          <path id="Path_13726" data-name="Path 13726" d="M2717.112,375.851v4.111h-3.5v13.815h-4.2V379.962h-3.476v-4.111Z" transform="translate(-2648.65 -375.542)" fill="#fff"/>
          <path id="Path_13727" data-name="Path 13727" d="M2785.02,380.286h-7.5v2.7h6.083V387.1h-6.083v2.821h7.5v4.111h-11.695V376.2l11.695-.025Z" transform="translate(-2700.866 -375.794)" fill="#fff"/>
          <path id="Path_13728" data-name="Path 13728" d="M2851.408,389.658q-.323.049-.646.073l-.67.048v4.5h-4.2V376.5h4.2a8.336,8.336,0,0,1,2.93.559,8.11,8.11,0,0,1,2.4,1.433,6.625,6.625,0,0,1,1.614,2.089,5.721,5.721,0,0,1,.583,2.55,5.807,5.807,0,0,1-.621,2.66,6.437,6.437,0,0,1-1.738,2.125l4.022,6.363h-4.941Zm-1.316-4.013a4.445,4.445,0,0,0,1.279-.231,3.856,3.856,0,0,0,1.067-.547,2.616,2.616,0,0,0,.72-.791,1.885,1.885,0,0,0,.261-.961,1.823,1.823,0,0,0-.261-.949,2.688,2.688,0,0,0-.72-.778,3.879,3.879,0,0,0-1.067-.547,4.474,4.474,0,0,0-1.279-.231Z" transform="translate(-2757.098 -376.045)" fill="#fff"/>
        </g>
      </g>
    </g>
  </g>
</svg>
