<svg xmlns="http://www.w3.org/2000/svg" width="24.343" height="24.343" viewBox="0 0 24.343 24.343">
  <path id="Path_10992" data-name="Path 10992" d="M23.8,21.157l-5.018-5.018A10.019,10.019,0,0,0,20.6,10.3a10.117,10.117,0,0,0-.812-4A10.086,10.086,0,0,0,14.3.815a10.264,10.264,0,0,0-8,0A10.086,10.086,0,0,0,.812,6.3a10.264,10.264,0,0,0,0,8A10.088,10.088,0,0,0,6.3,19.789a10.121,10.121,0,0,0,4,.812,10.019,10.019,0,0,0,5.837-1.814l5.018,5a1.738,1.738,0,0,0,1.316.556A1.872,1.872,0,0,0,23.8,21.157Zm-8.873-6.225a6.311,6.311,0,0,1-4.63,1.924,6.312,6.312,0,0,1-4.63-1.924A6.311,6.311,0,0,1,3.745,10.3a6.312,6.312,0,0,1,1.924-4.63A6.311,6.311,0,0,1,10.3,3.748a6.313,6.313,0,0,1,4.63,1.924,6.311,6.311,0,0,1,1.924,4.63A6.312,6.312,0,0,1,14.929,14.932Z" transform="translate(0 -0.003)" fill="#2d68ff"/>
</svg>
