<svg id="magnifying-glass" xmlns="http://www.w3.org/2000/svg" width="25" height="25" viewBox="0 0 25 25">
  <path id="Path_10992" data-name="Path 10992" d="M24.444,21.728l-5.153-5.153a10.289,10.289,0,0,0,1.863-5.995,10.39,10.39,0,0,0-.834-4.109A10.358,10.358,0,0,0,14.686.837a10.541,10.541,0,0,0-8.218,0A10.358,10.358,0,0,0,.834,6.471a10.541,10.541,0,0,0,0,8.218,10.361,10.361,0,0,0,5.634,5.634,10.394,10.394,0,0,0,4.109.834,10.29,10.29,0,0,0,5.995-1.863l5.153,5.138A1.785,1.785,0,0,0,23.077,25a1.923,1.923,0,0,0,1.367-3.275Zm-9.112-6.393a6.482,6.482,0,0,1-4.755,1.976,6.482,6.482,0,0,1-4.755-1.976A6.481,6.481,0,0,1,3.846,10.58,6.482,6.482,0,0,1,5.822,5.825a6.481,6.481,0,0,1,4.755-1.976,6.483,6.483,0,0,1,4.755,1.976,6.481,6.481,0,0,1,1.976,4.755A6.482,6.482,0,0,1,15.332,15.335Z" transform="translate(0 -0.003)" fill="#fff"/>
</svg>
