<svg xmlns="http://www.w3.org/2000/svg" width="44.25" height="44.25" viewBox="0 0 44.25 44.25">
  <g id="twitter_v" transform="translate(-863 -634.507)">
    <circle id="twitter" cx="22.125" cy="22.125" r="22.125" transform="translate(863 634.507)" fill="#4e287b"/>
    <path id="Path_14107" data-name="Path 14107" d="M214.311,968.733a10.1,10.1,0,0,1-2.905.815,4.8,4.8,0,0,0,2.211-2.863,8.806,8.806,0,0,1-3.3,1.248h0a5.189,5.189,0,0,0-8.818,4.758,14.674,14.674,0,0,1-10.7-5.439,5.252,5.252,0,0,0,1.545,6.916,4.03,4.03,0,0,1-2.268-.652,5.146,5.146,0,0,0,4.124,5.159,4.981,4.981,0,0,1-2.338.1,5.222,5.222,0,0,0,4.847,3.614,10.389,10.389,0,0,1-7.653,2.126,13.829,13.829,0,0,0,6.564,2.291s6.951.861,11.862-4.273a14.641,14.641,0,0,0,4.249-10.943h0c0-.031,0-.061,0-.092C213.921,969.8,214.311,968.733,214.311,968.733Z" transform="translate(683.439 -319.951)" fill="#fff"/>
  </g>
</svg>
