<svg xmlns="http://www.w3.org/2000/svg" width="33.15" height="26.645" viewBox="0 0 33.15 26.645">
  <path id="Path_13951" data-name="Path 13951" d="M60.36,119.712a19.455,19.455,0,0,0,29.79-16.234q0-.4-.016-.79c.388-.3,2.786-2.2,3.374-3.427a15.878,15.878,0,0,1-3.854.99h-.012l.01-.006c.176-.116,2.631-1.77,2.964-3.741A23.785,23.785,0,0,1,89.31,97.87c-.319.1-.654.208-1,.3a6.828,6.828,0,0,0-11.784,4.6A6.654,6.654,0,0,0,76.7,104.3a20.61,20.61,0,0,1-13.981-6.993s-3.256,4.4,1.94,8.92a7.057,7.057,0,0,1-2.942-.868,6.407,6.407,0,0,0,5.384,6.69,6.3,6.3,0,0,1-3.005.125,6.69,6.69,0,0,0,6.261,4.707,13.17,13.17,0,0,1-10,2.828Z" transform="translate(-60.358 -96.041)" fill="#fff"/>
</svg>
