<svg xmlns="http://www.w3.org/2000/svg" width="374.859" height="54.265" viewBox="0 0 374.859 54.265">
  <g id="Group_1012" data-name="Group 1012" transform="translate(-1896 -667.869)">
    <g id="Group_602" data-name="Group 602" transform="translate(1896 678.766)">
      <g id="Group_756" data-name="Group 756" transform="translate(0 0)">
        <path id="Path_11176" data-name="Path 11176" d="M407.424,412.9l-22.216-.058.1-37.108,8.591.023-.074,28.576,13.624.035Z" transform="translate(-385.208 -375.368)" fill="#66bc99"/>
        <path id="Path_11177" data-name="Path 11177" d="M467.911,413.153l-1.463-4.5-11.743-.031-1.537,4.489-9.1-.023,12.805-37.024,8.134.021,11.952,37.088ZM457.675,400.1l6.049.016-2.925-8.995Z" transform="translate(-415.752 -375.539)" fill="#66bc99"/>
        <path id="Path_11178" data-name="Path 11178" d="M548.279,375.953l-.022,8.532-7.168-.018-.075,28.676-8.591-.022.074-28.677-7.117-.018.023-8.532Z" transform="translate(-457.948 -375.449)" fill="#66bc99"/>
        <path id="Path_11179" data-name="Path 11179" d="M613.81,385.026l-15.352-.04-.015,5.6,12.455.032-.022,8.533-12.455-.033-.015,5.857,15.352.04-.022,8.532-23.945-.062.1-37.007,23.945.012Z" transform="translate(-491.373 -375.754)" fill="#66bc99"/>
        <path id="Path_11180" data-name="Path 11180" d="M668.74,413.526a13.335,13.335,0,0,1-3.532-.489,11.991,11.991,0,0,1-3.326-1.5,12.436,12.436,0,0,1-4.259-4.58,12.627,12.627,0,0,1-1.508-6.138l8.591.022a3.689,3.689,0,0,0,.655,2.35,4.768,4.768,0,0,0,1.166,1.139,3.851,3.851,0,0,0,1.981.661,4.517,4.517,0,0,0,2.086-.4,3.387,3.387,0,0,0,1.145-.754,4.139,4.139,0,0,0,.663-.882,2.42,2.42,0,0,0,.282-.833,4.267,4.267,0,0,0,0-1.312,2.678,2.678,0,0,0-.278-.86,3.426,3.426,0,0,0-.659-.885,4.359,4.359,0,0,0-1.141-.786,11.045,11.045,0,0,0-1.193-.458q-.636-.2-1.346-.458-1.271-.406-2.641-.915a14.769,14.769,0,0,1-2.742-1.371A10.675,10.675,0,0,1,659.7,392.3a10.96,10.96,0,0,1-2.09-7.553,10.405,10.405,0,0,1,1.154-3.91,11.126,11.126,0,0,1,2.3-2.973,10.971,10.971,0,0,1,3.056-1.986,11.147,11.147,0,0,1,3.611-.875,12.013,12.013,0,0,1,3.913.364,11.465,11.465,0,0,1,3.49,1.448,11.111,11.111,0,0,1,2.7,2.38,10.286,10.286,0,0,1,1.735,3.11,10.684,10.684,0,0,1,.6,3.586l-8.547-.022a1.744,1.744,0,0,0-.733-1.617,5.122,5.122,0,0,0-1.294-.61,3.351,3.351,0,0,1-.483-.077,2.483,2.483,0,0,0-.864,0,3.082,3.082,0,0,0-.993.351,1.977,1.977,0,0,0-.815.881,2.243,2.243,0,0,0-.157,1.691,2.411,2.411,0,0,0,1.013,1.391,11.2,11.2,0,0,0,1.574.736q.863.331,1.828.636.864.255,1.751.56t1.8.712a11.969,11.969,0,0,1,5.218,4.457,12.051,12.051,0,0,1-.033,12.975,11.971,11.971,0,0,1-5.242,4.429,12.2,12.2,0,0,1-2.689.876A13.834,13.834,0,0,1,668.74,413.526Z" transform="translate(-525.79 -374.969)" fill="#66bc99"/>
        <path id="Path_11181" data-name="Path 11181" d="M746.628,376.468,746.606,385l-7.168-.018-.074,28.677-8.591-.023.075-28.676-7.117-.018.022-8.533Z" transform="translate(-560.878 -375.716)" fill="#66bc99"/>
      </g>
    </g>
    <g id="Group_603" data-name="Group 603" transform="translate(1897.931 676.366)">
      <g id="Group_758" data-name="Group 758" transform="translate(0 0)">
        <path id="Path_11182" data-name="Path 11182" d="M411.438,407.915l-22.216-.058.1-37.108,8.592.023-.074,28.576,13.624.035Z" transform="translate(-389.222 -370.379)" fill="#fff"/>
        <path id="Path_11183" data-name="Path 11183" d="M471.924,408.162l-1.462-4.5-11.744-.03-1.537,4.489-9.1-.024,12.805-37.024,8.134.021,11.951,37.089ZM461.688,395.11l6.05.016-2.926-8.995Z" transform="translate(-419.766 -370.548)" fill="#fff"/>
        <path id="Path_11184" data-name="Path 11184" d="M552.292,370.964l-.022,8.532-7.168-.019-.075,28.677-8.591-.022.075-28.676-7.117-.019.022-8.532Z" transform="translate(-461.962 -370.459)" fill="#fff"/>
        <path id="Path_11185" data-name="Path 11185" d="M617.824,380.035,602.472,380l-.015,5.6,12.455.032-.023,8.532-12.455-.032-.016,5.857,15.353.04-.022,8.532-23.944-.063.1-37.007,23.945.012Z" transform="translate(-495.387 -370.764)" fill="#fff"/>
        <path id="Path_11186" data-name="Path 11186" d="M672.753,408.536a13.363,13.363,0,0,1-3.532-.488,11.989,11.989,0,0,1-3.326-1.5,12.429,12.429,0,0,1-4.258-4.58,12.619,12.619,0,0,1-1.51-6.138l8.591.023a3.694,3.694,0,0,0,.655,2.349,4.784,4.784,0,0,0,1.166,1.139,3.859,3.859,0,0,0,1.982.661,4.524,4.524,0,0,0,2.085-.4,3.393,3.393,0,0,0,1.146-.755,4.143,4.143,0,0,0,.663-.882,2.425,2.425,0,0,0,.281-.832,5.494,5.494,0,0,0,.053-.656,5.4,5.4,0,0,0-.049-.657,2.669,2.669,0,0,0-.277-.859,3.452,3.452,0,0,0-.658-.885,4.407,4.407,0,0,0-1.142-.786,11.232,11.232,0,0,0-1.194-.457q-.636-.2-1.346-.458-1.27-.406-2.641-.915a14.78,14.78,0,0,1-2.742-1.371,10.691,10.691,0,0,1-2.992-2.784,10.97,10.97,0,0,1-2.09-7.553,10.411,10.411,0,0,1,1.154-3.91,11.146,11.146,0,0,1,2.3-2.973,10.981,10.981,0,0,1,3.055-1.987,11.164,11.164,0,0,1,3.612-.874,11.989,11.989,0,0,1,3.914.364,11.459,11.459,0,0,1,3.49,1.448,11.089,11.089,0,0,1,2.7,2.38,10.274,10.274,0,0,1,1.736,3.11,10.7,10.7,0,0,1,.6,3.586l-8.548-.022a1.744,1.744,0,0,0-.732-1.617,5.119,5.119,0,0,0-1.3-.61,3.542,3.542,0,0,1-.483-.077,2.5,2.5,0,0,0-.864,0,3.077,3.077,0,0,0-.992.351,1.985,1.985,0,0,0-.816.881,2.247,2.247,0,0,0-.157,1.691,2.41,2.41,0,0,0,1.013,1.391,11.265,11.265,0,0,0,1.574.736q.863.332,1.828.636.863.256,1.75.56t1.8.711a11.971,11.971,0,0,1,5.219,4.457,12.051,12.051,0,0,1-.034,12.974,11.974,11.974,0,0,1-5.242,4.43,12.171,12.171,0,0,1-2.689.876A13.818,13.818,0,0,1,672.753,408.536Z" transform="translate(-529.803 -369.979)" fill="#fff"/>
        <path id="Path_11187" data-name="Path 11187" d="M750.64,371.479l-.023,8.533-7.168-.019-.074,28.677-8.591-.022.074-28.677-7.117-.019.023-8.532Z" transform="translate(-564.891 -370.726)" fill="#fff"/>
      </g>
    </g>
    <g id="Group_604" data-name="Group 604" transform="translate(2098.166 670.479)">
      <path id="Path_11188" data-name="Path 11188" d="M818.745,367.155l3.469,3.143q.217-1.6,1.332-1.614l.558-.007,5.2,19.069-.145,1.066-.558.008-.681-3.181-.557.007-.146,1.065,2.673,9,.557-.008A298.516,298.516,0,0,1,840.81,366.7l1.529,1.043,1.746-.555,3.128,1.552-.073.532q-1.672.023-1.963,2.154l.559-.008.484.524.557-.008.92-2.671,1.116-.015-.072.534-.631.54.486.525-.073.533q-5.874,12.37-12.347,35.413l-1.115.015,2.275-8.537q-1.116.015-4.722,10.165a7.539,7.539,0,0,1-4.121,1.651l-.145,1.066-.557.007q.143-1.065-2.086-1.035l.507-3.728q.328-2.412-7.532-26.481l-.557.008a234.317,234.317,0,0,0-7.38,25.619l-.486-.525q-3.474.984-3.708,2.708l-1.115.015q-.844-1.99-.175-6.909l-.557.007-.652,4.793-1.115.015-.2-2.656q1.969-14.475,11.472-35.244Zm-9.617,13.422-.073.533.485.525-.629.54-.145,1.065.557-.007.848-2.138-.486-.525Zm20.032,8.235q1.443-.019,1.65,4.231l-.072.533-.557.007Z" transform="translate(-802.74 -359.78)" fill="#ffd337"/>
      <path id="Path_11189" data-name="Path 11189" d="M924.766,365.391l2.447,1.75q-1.825,4.748-4.882,4.6l-14.649.824-.21,1.066,2.73.151,3.421-.359.443.588.553.024,3.979-.367,1.1.079-.1.533-13.132,1.46-1.954,6.907.553.024,15.313-1.364.415.557-.1.533-1.1-.079-.073.534,3.727.763-.105.533q-1.618,2.993-16.663,5.042l-5.635.264.453.525-3.611,6.8-.558.007.981-4.8-.553-.024-2.089,7.408q16.986-2.356,23.816-2.011l2.624.684-.177,1.065-1.107-.048.415.558-.316,1.6q-1.88,2.029-7.052,1.785l-.105.534,4.423.221-.244,1.066-26.441,3.986-.553-.023q-2.614-.528-2.464-1.625l.013-.094.315-1.6,2.326-5.786-.448-.557,1.111.016-.559,2.666.55.055q.689-2.666,1.662-2.587l-.445-.589,1.113-5.3-1.1-.079-1.112,2.642.691-.51.554.024-.664,3.2-.55-.055.312-1.567-.554-.024-.21,1.066-.554-.024.211-1.066,2.993-9.016-.552-.024L895,385.372l-.448-.557.105-.533,2.436-9.008.448.557.553.024.211-1.066.006-2.69,1.533-4.775.316-1.6.549.055.448.558.659-.509.549.055.452.525.659-.508,1.655.1Zm-31.08,23.658-.77,3.731.553.024.765-3.7Zm18.307.44.558-.008-.138.533-10.235,1.108-.444-.588.1-.5,5.08-.287-.1.534Z" transform="translate(-847.122 -359.101)" fill="#ffd337"/>
      <path id="Path_11190" data-name="Path 11190" d="M969.414,359.7l1.673-.023.2,2.656a1.714,1.714,0,0,0,1.89-1.621l.557-.008.971,1.051-.993,3.2.558-.008-.631.54-.072.534.486.525-.073.533-.558.008.486.525-.073.533-2.949,17.585-.072.532.558-.008,2.4-5.349,1.115-.015-5.28,10.173,1.116-.015,9.154-18.2-1.115.015-3.172,6.955-1.115.015.072-.532,5.062-8.575.557-.007-.145,1.065,4.606-1.126q2.124.753,2.014,1.568l.63-.54,1.673-.023.492,12.753.558-.007q.324-2.381,12.523-27.566l.558-.008.34,1.59.558-.008.145-1.065.557-.008q4.133-.056,4.244,1.537l-.145,1.066-1.332,1.612-.073.534,1.116-.015,1.065-3.736,1.114-.015.971,1.05-.073.533-18.382,42-1.746.556.145-1.065-.629.54-.559.008-.484-.525q-.291,2.13-1.963,2.153-4.41-.315-4.244-1.538l.557-.008a4.592,4.592,0,0,0-1.723-3.7l-.637-11.688q-.955.045-8.719,15l-3.15,2.7-.557.008-.268-2.123q10.36-13.587,11.748-20.894-1.669,1.431-9.422,16.077-.689.009-3.1,6.422l-5.018.068-.269-2.123-.63.54-.557.008q.392-2.882-1.094-4.238l.289-2.131,2.014,1.567.116-9.039.63-.54-.485-.525.63-.54-.557.008.63-.54,1.015-7.457.92-2.671-.558.008.63-.541,1.883-13.848-.486-.524.073-.533Zm32.736-.192q-11.563,24.581-11.966,27.557l-.073.533.557-.007,12.6-28.1Zm-8.859,33.364-1.766,4.809-.146,1.065.558-.007,1.84-5.342.073-.532Zm5.084-12.829-1.767,4.809-.072.532.558-.008,1.767-4.809.072-.533Z" transform="translate(-884.79 -354.662)" fill="#ffd337"/>
      <path id="Path_11191" data-name="Path 11191" d="M1074.781,361.941q1.33,1.045,9.237.938l-.106.533-3.9.053-.105.533q6.987-.1,8.291,3.077l-.21,1.066-2.788.038-.105.534,3.8.481-.105.533-3.346.045-.105.533q1.673-.022,1.463,1.043-9.94.135-18.688,7.165l-.105.533a23.1,23.1,0,0,1,15.425,12.02l-.106.533q-2.972,6.921-13.12,12.938l-3.484.578-.105.533,1.116-.015q-.263,1.442-10.669,3.335l.21-1.066,2.788-.037.139-.534q-3.577.048-5.956-3.641-2.326-1.188-1.858-4.635.043-.312.122-.659l1.883-1.089,1.463,1.043,1.115-.015q16.065-2.562,17.541-9.807-6.159-3.106-8.292-3.077l-.105.533-5.187-2.056.452.525-.178,1.066q-6.29-4.794-5.775-7.365l5.376-7.516,3.21-2.171-.21,1.067Zm-13.819,44.314-.105.533,2.231-.03,2.894-.57.072-.533-.558.007Zm4.253-29.831-.105.533,10.638-5.992,4.671-1.126.212-1.067-1.115.015Q1070.263,372.041,1065.215,376.425Zm.113,21.8.558-.008,1.326-1.081-.557.008Zm2.472,4.22-.073.533.557-.008,2.547-1.629Zm7.565-4.356-2.757,2.7.558-.008,2.757-2.7Z" transform="translate(-932.246 -357.311)" fill="#ffd337"/>
      <path id="Path_11192" data-name="Path 11192" d="M1131.964,391.418l-.072.532-.631.54-.072.533.63-.54,1.115-.015,1.238,3.173.34,1.591-1.891,1.621,1.116-.015.97,1.05-.145,1.065-8.582,1.712-.485-.525.144-1.066q2.23-.03,2.375-1.1l.072-.533-3.346.046.435-3.2.629-.541.073-.533-.557.008-1.746.555.072-.532Q1125.83,391.5,1131.964,391.418Zm2.993-39.1,6.97,2.439-.086.626q-4.67,12.2-5.7,19.748l-.09.658q-.516,3.792.93,10.746l-.851,1.919q-1.51.02-1.464-2.482l-.623.008-.17,1.253-2.461.033-.779-3.179-.68.665-.623.009q-3.825-3.169-2.794-10.751l.169-1.254,2.949-12.768.623-.009.07,3.814-1.213.016-.175,1.285,1.039,1.268.623-.009,2.253-7.661-.708.635-.59.008.255-1.88,1.389-1.3-.26,1.912.624-.009.35-2.57-1.081-1.2Zm-7.1,16.578-.434,3.2.16,3.157.624-.009.259-1.911-.019-4.44Zm.005,8.881q1.022,5.709,2.27,5.692ZM1129.326,367l-.345,2.538.589-.008.345-2.538Zm1.3-9.525.589-.008.283,2.5-1.214.016Z" transform="translate(-969.233 -352.316)" fill="#ffd337"/>
    </g>
    <g id="Group_605" data-name="Group 605" transform="translate(2096.861 667.869)">
      <path id="Path_11188-2" data-name="Path 11188" d="M818.745,367.155l3.469,3.143q.217-1.6,1.332-1.614l.558-.007,5.2,19.069-.145,1.066-.558.008-.681-3.181-.557.007-.146,1.065,2.673,9,.557-.008A298.516,298.516,0,0,1,840.81,366.7l1.529,1.043,1.746-.555,3.128,1.552-.073.532q-1.672.023-1.963,2.154l.559-.008.484.524.557-.008.92-2.671,1.116-.015-.072.534-.631.54.486.525-.073.533q-5.874,12.37-12.347,35.413l-1.115.015,2.275-8.537q-1.116.015-4.722,10.165a7.539,7.539,0,0,1-4.121,1.651l-.145,1.066-.557.007q.143-1.065-2.086-1.035l.507-3.728q.328-2.412-7.532-26.481l-.557.008a234.317,234.317,0,0,0-7.38,25.619l-.486-.525q-3.474.984-3.708,2.708l-1.115.015q-.844-1.99-.175-6.909l-.557.007-.652,4.793-1.115.015-.2-2.656q1.969-14.475,11.472-35.244Zm-9.617,13.422-.073.533.485.525-.629.54-.145,1.065.557-.007.848-2.138-.486-.525Zm20.032,8.235q1.443-.019,1.65,4.231l-.072.533-.557.007Z" transform="translate(-802.74 -359.78)" fill="#0cebb3"/>
      <path id="Path_11189-2" data-name="Path 11189" d="M924.766,365.391l2.447,1.75q-1.825,4.748-4.882,4.6l-14.649.824-.21,1.066,2.73.151,3.421-.359.443.588.553.024,3.979-.367,1.1.079-.1.533-13.132,1.46-1.954,6.907.553.024,15.313-1.364.415.557-.1.533-1.1-.079-.073.534,3.727.763-.105.533q-1.618,2.993-16.663,5.042l-5.635.264.453.525-3.611,6.8-.558.007.981-4.8-.553-.024-2.089,7.408q16.986-2.356,23.816-2.011l2.624.684-.177,1.065-1.107-.048.415.558-.316,1.6q-1.88,2.029-7.052,1.785l-.105.534,4.423.221-.244,1.066-26.441,3.986-.553-.023q-2.614-.528-2.464-1.625l.013-.094.315-1.6,2.326-5.786-.448-.557,1.111.016-.559,2.666.55.055q.689-2.666,1.662-2.587l-.445-.589,1.113-5.3-1.1-.079-1.112,2.642.691-.51.554.024-.664,3.2-.55-.055.312-1.567-.554-.024-.21,1.066-.554-.024.211-1.066,2.993-9.016-.552-.024L895,385.372l-.448-.557.105-.533,2.436-9.008.448.557.553.024.211-1.066.006-2.69,1.533-4.775.316-1.6.549.055.448.558.659-.509.549.055.452.525.659-.508,1.655.1Zm-31.08,23.658-.77,3.731.553.024.765-3.7Zm18.307.44.558-.008-.138.533-10.235,1.108-.444-.588.1-.5,5.08-.287-.1.534Z" transform="translate(-847.122 -359.101)" fill="#0cebb3"/>
      <path id="Path_11190-2" data-name="Path 11190" d="M969.414,359.7l1.673-.023.2,2.656a1.714,1.714,0,0,0,1.89-1.621l.557-.008.971,1.051-.993,3.2.558-.008-.631.54-.072.534.486.525-.073.533-.558.008.486.525-.073.533-2.949,17.585-.072.532.558-.008,2.4-5.349,1.115-.015-5.28,10.173,1.116-.015,9.154-18.2-1.115.015-3.172,6.955-1.115.015.072-.532,5.062-8.575.557-.007-.145,1.065,4.606-1.126q2.124.753,2.014,1.568l.63-.54,1.673-.023.492,12.753.558-.007q.324-2.381,12.523-27.566l.558-.008.34,1.59.558-.008.145-1.065.557-.008q4.133-.056,4.244,1.537l-.145,1.066-1.332,1.612-.073.534,1.116-.015,1.065-3.736,1.114-.015.971,1.05-.073.533-18.382,42-1.746.556.145-1.065-.629.54-.559.008-.484-.525q-.291,2.13-1.963,2.153-4.41-.315-4.244-1.538l.557-.008a4.592,4.592,0,0,0-1.723-3.7l-.637-11.688q-.955.045-8.719,15l-3.15,2.7-.557.008-.268-2.123q10.36-13.587,11.748-20.894-1.669,1.431-9.422,16.077-.689.009-3.1,6.422l-5.018.068-.269-2.123-.63.54-.557.008q.392-2.882-1.094-4.238l.289-2.131,2.014,1.567.116-9.039.63-.54-.485-.525.63-.54-.557.008.63-.54,1.015-7.457.92-2.671-.558.008.63-.541,1.883-13.848-.486-.524.073-.533Zm32.736-.192q-11.563,24.581-11.966,27.557l-.073.533.557-.007,12.6-28.1Zm-8.859,33.364-1.766,4.809-.146,1.065.558-.007,1.84-5.342.073-.532Zm5.084-12.829-1.767,4.809-.072.532.558-.008,1.767-4.809.072-.533Z" transform="translate(-884.79 -354.662)" fill="#0cebb3"/>
      <path id="Path_11191-2" data-name="Path 11191" d="M1074.781,361.941q1.33,1.045,9.237.938l-.106.533-3.9.053-.105.533q6.987-.1,8.291,3.077l-.21,1.066-2.788.038-.105.534,3.8.481-.105.533-3.346.045-.105.533q1.673-.022,1.463,1.043-9.94.135-18.688,7.165l-.105.533a23.1,23.1,0,0,1,15.425,12.02l-.106.533q-2.972,6.921-13.12,12.938l-3.484.578-.105.533,1.116-.015q-.263,1.442-10.669,3.335l.21-1.066,2.788-.037.139-.534q-3.577.048-5.956-3.641-2.326-1.188-1.858-4.635.043-.312.122-.659l1.883-1.089,1.463,1.043,1.115-.015q16.065-2.562,17.541-9.807-6.159-3.106-8.292-3.077l-.105.533-5.187-2.056.452.525-.178,1.066q-6.29-4.794-5.775-7.365l5.376-7.516,3.21-2.171-.21,1.067Zm-13.819,44.314-.105.533,2.231-.03,2.894-.57.072-.533-.558.007Zm4.253-29.831-.105.533,10.638-5.992,4.671-1.126.212-1.067-1.115.015Q1070.263,372.041,1065.215,376.425Zm.113,21.8.558-.008,1.326-1.081-.557.008Zm2.472,4.22-.073.533.557-.008,2.547-1.629Zm7.565-4.356-2.757,2.7.558-.008,2.757-2.7Z" transform="translate(-932.246 -357.311)" fill="#0cebb3"/>
      <path id="Path_11192-2" data-name="Path 11192" d="M1131.964,391.418l-.072.532-.631.54-.072.533.63-.54,1.115-.015,1.238,3.173.34,1.591-1.891,1.621,1.116-.015.97,1.05-.145,1.065-8.582,1.712-.485-.525.144-1.066q2.23-.03,2.375-1.1l.072-.533-3.346.046.435-3.2.629-.541.073-.533-.557.008-1.746.555.072-.532Q1125.83,391.5,1131.964,391.418Zm2.993-39.1,6.97,2.439-.086.626q-4.67,12.2-5.7,19.748l-.09.658q-.516,3.792.93,10.746l-.851,1.919q-1.51.02-1.464-2.482l-.623.008-.17,1.253-2.461.033-.779-3.179-.68.665-.623.009q-3.825-3.169-2.794-10.751l.169-1.254,2.949-12.768.623-.009.07,3.814-1.213.016-.175,1.285,1.039,1.268.623-.009,2.253-7.661-.708.635-.59.008.255-1.88,1.389-1.3-.26,1.912.624-.009.35-2.57-1.081-1.2Zm-7.1,16.578-.434,3.2.16,3.157.624-.009.259-1.911-.019-4.44Zm.005,8.881q1.022,5.709,2.27,5.692ZM1129.326,367l-.345,2.538.589-.008.345-2.538Zm1.3-9.525.589-.008.283,2.5-1.214.016Z" transform="translate(-969.233 -352.316)" fill="#0cebb3"/>
    </g>
  </g>
</svg>
