<svg xmlns="http://www.w3.org/2000/svg" width="399.438" height="96.295" viewBox="0 0 399.438 96.295">
  <g id="Group_881" data-name="Group 881" transform="translate(-7.044 -1008.452)">
    <g id="Group_804" data-name="Group 804" transform="translate(-27.465 543.78) rotate(-2)">
      <g id="Group_801" data-name="Group 801" transform="translate(19.022 497.296)">
        <path id="Path_11143" data-name="Path 11143" d="M169.375,585.917c.409.2-8.249,33.946-8.042,33.921-.694,7.671,38.3-16.146,38.355-16.261Z" transform="translate(-105.971 -554.751)" fill="#17bae2"/>
        <rect id="Rectangle_1515" data-name="Rectangle 1515" width="396" height="52.231" rx="26.116" transform="translate(0)" fill="#17bae2"/>
      </g>
    </g>
    <g id="Group_803" data-name="Group 803" transform="translate(-37.58 541.97) rotate(-3)">
      <g id="Group_801-2" data-name="Group 801" transform="translate(19.022 497.296)">
        <path id="Path_11143-2" data-name="Path 11143" d="M169.375,585.917c.409.2-8.249,33.946-8.042,33.921-.694,7.671,38.3-16.146,38.355-16.261Z" transform="translate(-105.971 -551.401)" fill="#0cebb3"/>
        <rect id="Rectangle_1515-2" data-name="Rectangle 1515" width="396" height="55.581" rx="27.791" transform="translate(0)" fill="#0cebb3"/>
      </g>
    </g>
    <g id="Group_802" data-name="Group 802" transform="matrix(0.998, -0.07, 0.07, 0.998, -46.621, 541.317)">
      <g id="Group_801-3" data-name="Group 801">
        <path id="Path_11143-3" data-name="Path 11143" d="M169.375,585.917c.409.2-8.249,33.946-8.042,33.921-.694,7.671,38.3-16.146,38.355-16.261Z" transform="translate(-86.949 -54.149)" fill="#ffd337"/>
        <rect id="Rectangle_1515-3" data-name="Rectangle 1515" width="396" height="55.537" rx="27.768" transform="translate(19.022 497.296)" fill="#ffd337"/>
      </g>
    </g>
    <g id="Group_743" data-name="Group 743" transform="matrix(0.998, -0.07, 0.07, 0.998, 22.313, 1050.733)">
      <g id="Group_742" data-name="Group 742" transform="translate(0 0)">
        <path id="Path_11144" data-name="Path 11144" d="M62.457,566.426a13.644,13.644,0,0,1-5.18-.985,10.813,10.813,0,0,1-4.179-3,11.091,11.091,0,0,1-2.308-4.455,12.407,12.407,0,0,1-.166-5.239,15.169,15.169,0,0,1,1.965-5.277,17.928,17.928,0,0,1,9.055-7.443,16.237,16.237,0,0,1,5.522-1.01,13.369,13.369,0,0,1,5.157,1A11.008,11.008,0,0,1,76.5,543.04l-5.355,4.44a5.875,5.875,0,0,0-2.271-1.621,7.422,7.422,0,0,0-2.8-.539,8.736,8.736,0,0,0-2.969.542,9.355,9.355,0,0,0-2.807,1.624,9.929,9.929,0,0,0-2.076,2.425,8.116,8.116,0,0,0-1.064,2.834,6.539,6.539,0,0,0,.1,2.815,6.241,6.241,0,0,0,1.249,2.4,5.874,5.874,0,0,0,2.252,1.621,7.255,7.255,0,0,0,2.784.54,8.893,8.893,0,0,0,2.99-.542,9.276,9.276,0,0,0,2.826-1.624l3.831,4.473a17.214,17.214,0,0,1-5.187,3A16.312,16.312,0,0,1,62.457,566.426Z" transform="translate(-50.424 -538.336)" fill="#66bc99"/>
        <path id="Path_11145" data-name="Path 11145" d="M139.306,539.079a12.829,12.829,0,0,1,5.33,1.079,11.533,11.533,0,0,1,4.012,2.925,10.937,10.937,0,0,1,2.3,4.342,12.113,12.113,0,0,1,.207,5.332,14.789,14.789,0,0,1-2.031,5.334,17.555,17.555,0,0,1-3.79,4.346,18.351,18.351,0,0,1-5.014,2.929,15.546,15.546,0,0,1-5.7,1.084,12.823,12.823,0,0,1-5.331-1.078,11.337,11.337,0,0,1-3.993-2.925,11.064,11.064,0,0,1-2.284-4.343,12.134,12.134,0,0,1-.206-5.333,14.812,14.812,0,0,1,2.03-5.333,17.733,17.733,0,0,1,3.771-4.346,18.058,18.058,0,0,1,4.994-2.929A15.551,15.551,0,0,1,139.306,539.079Zm-3.586,21.069a8.418,8.418,0,0,0,3.073-.58,9.735,9.735,0,0,0,2.7-1.586,9.529,9.529,0,0,0,2.043-2.35,8,8,0,0,0,1.09-2.872,6.553,6.553,0,0,0-.108-2.871,5.941,5.941,0,0,0-1.239-2.348,6.12,6.12,0,0,0-2.162-1.583,6.964,6.964,0,0,0-2.875-.577,8.413,8.413,0,0,0-3.073.58,9.728,9.728,0,0,0-2.7,1.585,9.525,9.525,0,0,0-2.043,2.35,7.985,7.985,0,0,0-1.09,2.871,6.552,6.552,0,0,0,.108,2.871,5.938,5.938,0,0,0,1.24,2.349,6.113,6.113,0,0,0,2.162,1.584A6.952,6.952,0,0,0,135.721,560.148Z" transform="translate(-94.531 -538.374)" fill="#66bc99"/>
        <path id="Path_11146" data-name="Path 11146" d="M225.977,539.122l6.527,0-4.683,27.371-7.068,0-6.538-15.956L211.484,566.5l-6.527,0,4.67-27.3,7.107,0,6.507,15.918Z" transform="translate(-144.846 -538.398)" fill="#66bc99"/>
        <path id="Path_11147" data-name="Path 11147" d="M306.151,572.475l-18.609-.028,1.078-6.3,18.609.028Z" transform="translate(-195.307 -554.912)" fill="#66bc99"/>
        <path id="Path_11148" data-name="Path 11148" d="M382.063,538.939l6.72,0-3.028,27.407-6.527,0,1.219-11.187-5.854,11.189-6.527,0-2.18-11.633-2.763,11.635-6.566,0,6.505-27.409,6.72,0,3.283,17.15Z" transform="translate(-237.476 -538.286)" fill="#66bc99"/>
        <path id="Path_11149" data-name="Path 11149" d="M467.314,545.3l-11.664.005-.708,4.139,9.462,0-1.078,6.3-9.462,0-.74,4.325,11.664-.005-1.078,6.3-18.191.009,4.677-27.334,18.2-.046Z" transform="translate(-291.834 -538.325)" fill="#66bc99"/>
        <path id="Path_11150" data-name="Path 11150" d="M531.872,538.963l6.527,0-4.682,27.371-7.068,0-6.538-15.956-2.731,15.96-6.527,0,4.67-27.3,7.106,0,6.507,15.918Z" transform="translate(-331.754 -538.301)" fill="#66bc99"/>
        <path id="Path_11151" data-name="Path 11151" d="M613.688,538.643l-1.078,6.3-5.445,0-3.624,21.181-6.527,0,3.624-21.181-5.407,0,1.078-6.3Z" transform="translate(-383.311 -538.107)" fill="#66bc99"/>
        <path id="Path_11152" data-name="Path 11152" d="M660.92,566.274l-.552-3.318-8.922,0-1.727,3.32-6.913,0,14.338-27.376,6.18,0L667.8,566.27Zm-6.156-9.617,4.6,0-1.1-6.637Z" transform="translate(-412.381 -538.267)" fill="#66bc99"/>
        <path id="Path_11153" data-name="Path 11153" d="M746.834,538.577l-1.078,6.3-5.445,0-3.624,21.181-6.527,0,3.624-21.18-5.407,0,1.078-6.3Z" transform="translate(-464.666 -538.067)" fill="#66bc99"/>
        <path id="Path_11154" data-name="Path 11154" d="M798.072,538.746a12.823,12.823,0,0,1,5.33,1.079,11.531,11.531,0,0,1,4.012,2.925,10.932,10.932,0,0,1,2.3,4.343,12.111,12.111,0,0,1,.207,5.331,14.786,14.786,0,0,1-2.031,5.334,17.547,17.547,0,0,1-3.79,4.346,18.35,18.35,0,0,1-5.014,2.929,15.536,15.536,0,0,1-5.7,1.084,12.82,12.82,0,0,1-5.33-1.078,11.335,11.335,0,0,1-3.993-2.924,11.06,11.06,0,0,1-2.284-4.343,12.129,12.129,0,0,1-.206-5.332,14.808,14.808,0,0,1,2.03-5.333,17.728,17.728,0,0,1,3.771-4.346,18.047,18.047,0,0,1,4.995-2.929A15.542,15.542,0,0,1,798.072,538.746Zm-3.586,21.069a8.4,8.4,0,0,0,3.073-.58,9.733,9.733,0,0,0,2.7-1.586,9.532,9.532,0,0,0,2.043-2.35,7.993,7.993,0,0,0,1.09-2.872,6.551,6.551,0,0,0-.108-2.871,5.938,5.938,0,0,0-1.239-2.348,6.121,6.121,0,0,0-2.162-1.583,6.968,6.968,0,0,0-2.875-.578,8.431,8.431,0,0,0-3.073.58,9.746,9.746,0,0,0-2.7,1.586,9.515,9.515,0,0,0-2.043,2.35,7.984,7.984,0,0,0-1.09,2.871,6.546,6.546,0,0,0,.108,2.871,5.946,5.946,0,0,0,1.24,2.348,6.12,6.12,0,0,0,2.162,1.584A6.958,6.958,0,0,0,794.487,559.815Z" transform="translate(-497.05 -538.17)" fill="#66bc99"/>
        <path id="Path_11155" data-name="Path 11155" d="M873.509,559.268q-.515.076-1.023.112t-1.056.075l-1.181,6.9-6.527,0,4.664-27.259,6.527,0a11.957,11.957,0,0,1,4.411.854,10.072,10.072,0,0,1,3.351,2.2,7.924,7.924,0,0,1,2.2,7.111,10.2,10.2,0,0,1-1.663,4.078,12.752,12.752,0,0,1-3.261,3.26l4.588,9.753-7.686,0Zm-.994-6.151a7.664,7.664,0,0,0,2.05-.355,7.377,7.377,0,0,0,1.8-.84,5.2,5.2,0,0,0,1.328-1.212,3.37,3.37,0,0,0,.658-1.473,2.522,2.522,0,0,0-.157-1.454,3.225,3.225,0,0,0-.916-1.193,4.924,4.924,0,0,0-1.517-.838,6.437,6.437,0,0,0-1.929-.353Z" transform="translate(-547.365 -538.384)" fill="#66bc99"/>
        <path id="Path_11156" data-name="Path 11156" d="M943.114,565.744a9.7,9.7,0,0,1-2.623-.352,7.63,7.63,0,0,1-2.341-1.1,7.256,7.256,0,0,1-2.667-3.373,8.392,8.392,0,0,1-.384-4.53l6.527,0a2.414,2.414,0,0,0,.206,1.734,2.769,2.769,0,0,0,.745.838,2.57,2.57,0,0,0,1.423.484,3.863,3.863,0,0,0,1.635-.3,3.241,3.241,0,0,0,.964-.56,3.921,3.921,0,0,0,.614-.653,2.1,2.1,0,0,0,.318-.615,4.224,4.224,0,0,0,.121-.484,3.941,3.941,0,0,0,.045-.485,1.719,1.719,0,0,0-.1-.634,2.026,2.026,0,0,0-.39-.652,2.632,2.632,0,0,0-.771-.577,7.2,7.2,0,0,0-.85-.335q-.458-.148-.966-.335-.915-.3-1.894-.67a9.218,9.218,0,0,1-1.913-1.006,6.234,6.234,0,0,1-1.928-2.049,6.736,6.736,0,0,1-.879-2.647,7.927,7.927,0,0,1,.23-2.927,8.9,8.9,0,0,1,1.363-2.891,10.626,10.626,0,0,1,2.115-2.2,10.464,10.464,0,0,1,2.569-1.474,9.7,9.7,0,0,1,2.854-.654,8.931,8.931,0,0,1,2.929.259,7.38,7.38,0,0,1,2.472,1.061,6.5,6.5,0,0,1,1.755,1.752,6.151,6.151,0,0,1,.932,2.293,7.353,7.353,0,0,1,.008,2.646l-6.494,0a1.089,1.089,0,0,0-.356-1.193,3.225,3.225,0,0,0-.908-.447,2.553,2.553,0,0,1-.357-.056,1.936,1.936,0,0,0-.657,0,2.725,2.725,0,0,0-.8.261,1.9,1.9,0,0,0-.73.652,1.759,1.759,0,0,0-.329,1.249,1.426,1.426,0,0,0,.6,1.025,7.129,7.129,0,0,0,1.105.54q.614.243,1.31.466.624.186,1.261.41t1.276.521a7.063,7.063,0,0,1,3.413,3.279,7.674,7.674,0,0,1,.617,4.811,9.965,9.965,0,0,1-2.257,4.773,11.509,11.509,0,0,1-4.535,3.284,10.906,10.906,0,0,1-2.152.653A11.281,11.281,0,0,1,943.114,565.744Z" transform="translate(-590.889 -537.266)" fill="#66bc99"/>
      </g>
    </g>
    <g id="Group_745" data-name="Group 745" transform="matrix(0.998, -0.07, 0.07, 0.998, 23.687, 1047.78)">
      <g id="Group_744" data-name="Group 744" transform="translate(0 0)">
        <path id="Path_11157" data-name="Path 11157" d="M66.509,559.1a13.651,13.651,0,0,1-5.18-.985,10.817,10.817,0,0,1-4.178-3,11.088,11.088,0,0,1-2.309-4.455,12.412,12.412,0,0,1-.166-5.239,15.161,15.161,0,0,1,1.965-5.277A17.924,17.924,0,0,1,65.7,532.7a16.24,16.24,0,0,1,5.522-1.01,13.355,13.355,0,0,1,5.157,1,11,11,0,0,1,4.176,3.018L75.2,540.153a5.873,5.873,0,0,0-2.271-1.621,7.42,7.42,0,0,0-2.8-.539,8.734,8.734,0,0,0-2.969.542,9.351,9.351,0,0,0-2.807,1.624,9.921,9.921,0,0,0-2.076,2.425,8.115,8.115,0,0,0-1.064,2.834,6.551,6.551,0,0,0,.1,2.815,6.249,6.249,0,0,0,1.249,2.4,5.873,5.873,0,0,0,2.252,1.621,7.25,7.25,0,0,0,2.784.539,8.891,8.891,0,0,0,2.99-.542,9.258,9.258,0,0,0,2.826-1.624l3.831,4.473a17.215,17.215,0,0,1-5.187,3A16.323,16.323,0,0,1,66.509,559.1Z" transform="translate(-54.476 -531.009)" fill="#fff"/>
        <path id="Path_11158" data-name="Path 11158" d="M143.358,531.752a12.825,12.825,0,0,1,5.33,1.079,11.529,11.529,0,0,1,4.012,2.925A10.942,10.942,0,0,1,155,540.1a12.118,12.118,0,0,1,.207,5.332,14.788,14.788,0,0,1-2.031,5.334,17.563,17.563,0,0,1-3.79,4.346,18.346,18.346,0,0,1-5.014,2.929,15.526,15.526,0,0,1-5.7,1.084,12.822,12.822,0,0,1-5.331-1.078,11.33,11.33,0,0,1-3.993-2.925,11.065,11.065,0,0,1-2.284-4.343,12.127,12.127,0,0,1-.205-5.332,14.8,14.8,0,0,1,2.03-5.333,17.742,17.742,0,0,1,3.771-4.345,18.061,18.061,0,0,1,4.995-2.93A15.561,15.561,0,0,1,143.358,531.752Zm-3.586,21.069a8.414,8.414,0,0,0,3.073-.58,9.746,9.746,0,0,0,2.7-1.586,9.521,9.521,0,0,0,2.043-2.35,7.994,7.994,0,0,0,1.09-2.871,6.557,6.557,0,0,0-.108-2.871,5.947,5.947,0,0,0-1.239-2.349,6.135,6.135,0,0,0-2.162-1.583,6.959,6.959,0,0,0-2.875-.577,8.415,8.415,0,0,0-3.073.58,9.719,9.719,0,0,0-2.7,1.586,9.523,9.523,0,0,0-2.044,2.35,7.976,7.976,0,0,0-1.09,2.872,6.538,6.538,0,0,0,.108,2.871,5.932,5.932,0,0,0,1.24,2.348,6.11,6.11,0,0,0,2.162,1.584A6.945,6.945,0,0,0,139.773,552.821Z" transform="translate(-98.583 -531.047)" fill="#fff"/>
        <path id="Path_11159" data-name="Path 11159" d="M230.03,531.8l6.527,0-4.683,27.371-7.068,0-6.538-15.956-2.731,15.96-6.527,0,4.67-27.3,7.106,0,6.507,15.919Z" transform="translate(-148.899 -531.072)" fill="#fff"/>
        <path id="Path_11160" data-name="Path 11160" d="M310.2,565.148l-18.609-.028,1.078-6.3,18.609.028Z" transform="translate(-199.359 -547.585)" fill="#fff"/>
        <path id="Path_11161" data-name="Path 11161" d="M386.115,531.613l6.72,0-3.028,27.407-6.527,0,1.219-11.187-5.853,11.189-6.527,0-2.18-11.632-2.763,11.635-6.566,0,6.5-27.409,6.72,0,3.283,17.15Z" transform="translate(-241.528 -530.959)" fill="#fff"/>
        <path id="Path_11162" data-name="Path 11162" d="M471.367,537.974l-11.664.005L459,542.119l9.462,0-1.078,6.3-9.462,0-.74,4.325,11.664-.005-1.078,6.3-18.19.009,4.676-27.334,18.2-.046Z" transform="translate(-295.887 -530.998)" fill="#fff"/>
        <path id="Path_11163" data-name="Path 11163" d="M535.924,531.637l6.527,0-4.683,27.371-7.068,0-6.538-15.956-2.731,15.96-6.527,0,4.67-27.3,7.107,0,6.507,15.918Z" transform="translate(-335.806 -530.975)" fill="#fff"/>
        <path id="Path_11164" data-name="Path 11164" d="M617.74,531.317l-1.078,6.3-5.446,0L607.592,558.8l-6.527,0,3.624-21.18-5.408,0,1.078-6.3Z" transform="translate(-387.362 -530.781)" fill="#fff"/>
        <path id="Path_11165" data-name="Path 11165" d="M664.972,558.947l-.552-3.318-8.922,0-1.726,3.32-6.913,0L661.2,531.58l6.18,0,4.471,27.367Zm-6.155-9.617,4.6,0-1.1-6.637Z" transform="translate(-416.433 -530.94)" fill="#fff"/>
        <path id="Path_11166" data-name="Path 11166" d="M750.886,531.251l-1.079,6.3-5.445,0-3.623,21.181-6.527,0,3.624-21.181-5.408,0,1.078-6.3Z" transform="translate(-468.717 -530.741)" fill="#fff"/>
        <path id="Path_11167" data-name="Path 11167" d="M802.124,531.419a12.822,12.822,0,0,1,5.33,1.079,11.531,11.531,0,0,1,4.012,2.925,10.938,10.938,0,0,1,2.3,4.343,12.119,12.119,0,0,1,.206,5.332,14.788,14.788,0,0,1-2.031,5.333,17.546,17.546,0,0,1-3.79,4.346,18.33,18.33,0,0,1-5.014,2.929,15.536,15.536,0,0,1-5.7,1.084,12.822,12.822,0,0,1-5.33-1.078,11.346,11.346,0,0,1-3.993-2.925,11.067,11.067,0,0,1-2.284-4.343,12.136,12.136,0,0,1-.206-5.333,14.815,14.815,0,0,1,2.03-5.333,17.745,17.745,0,0,1,3.771-4.346,18.066,18.066,0,0,1,4.995-2.929A15.547,15.547,0,0,1,802.124,531.419Zm-3.586,21.069a8.416,8.416,0,0,0,3.073-.58,9.726,9.726,0,0,0,2.7-1.586,9.55,9.55,0,0,0,2.043-2.35,7.991,7.991,0,0,0,1.09-2.872,6.551,6.551,0,0,0-.108-2.871,5.941,5.941,0,0,0-1.239-2.348,6.117,6.117,0,0,0-2.162-1.583,6.95,6.95,0,0,0-2.875-.577,8.411,8.411,0,0,0-3.072.58,9.746,9.746,0,0,0-2.7,1.586,9.532,9.532,0,0,0-2.044,2.35,7.98,7.98,0,0,0-1.09,2.871,6.543,6.543,0,0,0,.108,2.872,5.943,5.943,0,0,0,1.24,2.349,6.115,6.115,0,0,0,2.162,1.584A6.955,6.955,0,0,0,798.539,552.488Z" transform="translate(-501.102 -530.843)" fill="#fff"/>
        <path id="Path_11168" data-name="Path 11168" d="M877.562,551.942q-.515.076-1.023.112t-1.055.076l-1.18,6.9-6.527,0,4.664-27.259,6.527,0a11.938,11.938,0,0,1,4.41.854,10.06,10.06,0,0,1,3.351,2.2,7.925,7.925,0,0,1,2.2,7.111,10.194,10.194,0,0,1-1.663,4.078,12.755,12.755,0,0,1-3.261,3.26l4.587,9.753-7.686,0Zm-.994-6.151a7.665,7.665,0,0,0,2.05-.356,7.4,7.4,0,0,0,1.8-.839,5.2,5.2,0,0,0,1.328-1.213,3.363,3.363,0,0,0,.658-1.473,2.521,2.521,0,0,0-.157-1.454,3.225,3.225,0,0,0-.916-1.193,4.924,4.924,0,0,0-1.517-.838,6.431,6.431,0,0,0-1.929-.353Z" transform="translate(-551.418 -531.057)" fill="#fff"/>
        <path id="Path_11169" data-name="Path 11169" d="M947.167,558.417a9.733,9.733,0,0,1-2.624-.353,7.626,7.626,0,0,1-2.341-1.1,7.251,7.251,0,0,1-2.667-3.373,8.39,8.39,0,0,1-.383-4.53l6.527,0a2.416,2.416,0,0,0,.205,1.734,2.777,2.777,0,0,0,.745.838,2.566,2.566,0,0,0,1.423.484,3.863,3.863,0,0,0,1.635-.3,3.248,3.248,0,0,0,.965-.56,3.9,3.9,0,0,0,.613-.653,2.118,2.118,0,0,0,.318-.615,4.419,4.419,0,0,0,.121-.485,3.97,3.97,0,0,0,.045-.485,1.717,1.717,0,0,0-.1-.634,2.009,2.009,0,0,0-.39-.652,2.629,2.629,0,0,0-.77-.578,7.322,7.322,0,0,0-.85-.335q-.458-.148-.966-.335-.915-.3-1.894-.67a9.274,9.274,0,0,1-1.913-1.005,6.26,6.26,0,0,1-1.929-2.05,6.739,6.739,0,0,1-.879-2.647,7.925,7.925,0,0,1,.23-2.927,8.9,8.9,0,0,1,1.363-2.891,10.639,10.639,0,0,1,2.114-2.2,10.465,10.465,0,0,1,2.569-1.474,9.7,9.7,0,0,1,2.854-.654,8.93,8.93,0,0,1,2.929.259,7.382,7.382,0,0,1,2.472,1.061,6.5,6.5,0,0,1,1.755,1.752,6.165,6.165,0,0,1,.932,2.293,7.357,7.357,0,0,1,.008,2.647l-6.494,0a1.088,1.088,0,0,0-.356-1.193,3.232,3.232,0,0,0-.908-.447,2.585,2.585,0,0,1-.357-.056,1.926,1.926,0,0,0-.657,0,2.746,2.746,0,0,0-.8.261,1.9,1.9,0,0,0-.73.653,1.759,1.759,0,0,0-.329,1.249,1.427,1.427,0,0,0,.6,1.026,7.178,7.178,0,0,0,1.106.54q.614.242,1.311.465.624.186,1.26.41t1.276.521a7.06,7.06,0,0,1,3.413,3.28,7.668,7.668,0,0,1,.617,4.81,9.97,9.97,0,0,1-2.257,4.773,11.516,11.516,0,0,1-4.535,3.283,10.938,10.938,0,0,1-2.153.654A11.344,11.344,0,0,1,947.167,558.417Z" transform="translate(-594.941 -529.939)" fill="#fff"/>
      </g>
    </g>
  </g>
</svg>
