<svg xmlns="http://www.w3.org/2000/svg" width="287.277" height="41.587" viewBox="0 0 287.277 41.587">
  <g id="Group_941" data-name="Group 941" transform="translate(-1896 -667.869)">
    <g id="Group_602" data-name="Group 602" transform="translate(1896 676.22)">
      <g id="Group_756" data-name="Group 756" transform="translate(0 0)">
        <path id="Path_11176" data-name="Path 11176" d="M402.233,404.221l-17.025-.044.074-28.438,6.584.017-.057,21.9,10.441.027Z" transform="translate(-385.208 -375.455)" fill="#66bc99"/>
        <path id="Path_11177" data-name="Path 11177" d="M462.34,404.488l-1.121-3.446-9-.024-1.178,3.44-6.974-.018,9.814-28.374,6.233.016,9.16,28.423Zm-7.844-10,4.636.012L456.89,387.6Z" transform="translate(-422.368 -375.662)" fill="#66bc99"/>
        <path id="Path_11178" data-name="Path 11178" d="M542.929,375.939l-.017,6.539-5.493-.014-.057,21.976-6.584-.017.057-21.977-5.454-.014.017-6.539Z" transform="translate(-473.703 -375.553)" fill="#66bc99"/>
        <path id="Path_11179" data-name="Path 11179" d="M608.2,383.03,596.433,383l-.011,4.295,9.545.025-.017,6.539-9.545-.025-.012,4.488,11.765.031-.017,6.539-18.35-.048.073-28.36,18.35.009Z" transform="translate(-514.368 -375.924)" fill="#66bc99"/>
        <path id="Path_11180" data-name="Path 11180" d="M665.79,404.517a10.22,10.22,0,0,1-2.707-.375,9.189,9.189,0,0,1-2.549-1.148,9.53,9.53,0,0,1-3.264-3.51,9.677,9.677,0,0,1-1.156-4.7l6.584.017a2.827,2.827,0,0,0,.5,1.8,3.654,3.654,0,0,0,.894.873,2.951,2.951,0,0,0,1.518.507,3.462,3.462,0,0,0,1.6-.305,2.6,2.6,0,0,0,.878-.578,3.172,3.172,0,0,0,.508-.676,1.855,1.855,0,0,0,.216-.638,3.269,3.269,0,0,0,0-1.006,2.052,2.052,0,0,0-.213-.659,2.625,2.625,0,0,0-.505-.678,3.341,3.341,0,0,0-.875-.6,8.461,8.461,0,0,0-.914-.351q-.487-.156-1.032-.351-.974-.311-2.024-.7a11.323,11.323,0,0,1-2.1-1.05,8.182,8.182,0,0,1-2.293-2.134,8.4,8.4,0,0,1-1.6-5.789,7.975,7.975,0,0,1,.884-3,8.527,8.527,0,0,1,1.759-2.278,8.408,8.408,0,0,1,2.342-1.522,8.544,8.544,0,0,1,2.768-.67,9.206,9.206,0,0,1,3,.279,8.785,8.785,0,0,1,2.674,1.11,8.514,8.514,0,0,1,2.068,1.824,7.883,7.883,0,0,1,1.33,2.383,8.189,8.189,0,0,1,.458,2.748l-6.55-.017a1.337,1.337,0,0,0-.562-1.239,3.927,3.927,0,0,0-.992-.467,2.571,2.571,0,0,1-.37-.059,1.9,1.9,0,0,0-.662,0,2.362,2.362,0,0,0-.761.269,1.515,1.515,0,0,0-.625.675,1.719,1.719,0,0,0-.12,1.3,1.847,1.847,0,0,0,.776,1.066,8.579,8.579,0,0,0,1.206.564q.661.254,1.4.488.662.2,1.342.429t1.377.545a9.172,9.172,0,0,1,4,3.415,9.236,9.236,0,0,1-.025,9.944,9.174,9.174,0,0,1-4.017,3.394,9.348,9.348,0,0,1-2.061.672A10.6,10.6,0,0,1,665.79,404.517Z" transform="translate(-556.239 -374.969)" fill="#66bc99"/>
        <path id="Path_11181" data-name="Path 11181" d="M741.278,376.454l-.017,6.539-5.494-.014-.057,21.977-6.584-.017.057-21.976-5.454-.014.017-6.539Z" transform="translate(-598.927 -375.878)" fill="#66bc99"/>
      </g>
    </g>
    <g id="Group_603" data-name="Group 603" transform="translate(1897.48 674.381)">
      <g id="Group_758" data-name="Group 758" transform="translate(0 0)">
        <path id="Path_11182" data-name="Path 11182" d="M406.247,399.231l-17.025-.044.073-28.438,6.584.017-.057,21.9,10.441.027Z" transform="translate(-389.222 -370.465)" fill="#fff"/>
        <path id="Path_11183" data-name="Path 11183" d="M466.353,399.5l-1.121-3.446-9-.023-1.178,3.44-6.974-.018,9.814-28.374,6.234.016,9.159,28.423Zm-7.844-10,4.637.012-2.242-6.893Z" transform="translate(-426.381 -370.672)" fill="#fff"/>
        <path id="Path_11184" data-name="Path 11184" d="M546.942,370.95l-.017,6.539-5.493-.014-.057,21.977-6.584-.017.057-21.976-5.454-.014.017-6.539Z" transform="translate(-477.717 -370.563)" fill="#fff"/>
        <path id="Path_11185" data-name="Path 11185" d="M612.212,378.039l-11.765-.031-.011,4.295,9.545.025-.017,6.539-9.545-.025-.012,4.488,11.766.031-.017,6.539-18.349-.048.073-28.361,18.35.009Z" transform="translate(-518.382 -370.934)" fill="#fff"/>
        <path id="Path_11186" data-name="Path 11186" d="M669.8,399.528a10.241,10.241,0,0,1-2.706-.374,9.188,9.188,0,0,1-2.549-1.148,9.525,9.525,0,0,1-3.263-3.51,9.671,9.671,0,0,1-1.157-4.7l6.584.017a2.831,2.831,0,0,0,.5,1.8,3.665,3.665,0,0,0,.894.873,2.958,2.958,0,0,0,1.519.507,3.467,3.467,0,0,0,1.6-.305,2.6,2.6,0,0,0,.878-.578,3.175,3.175,0,0,0,.508-.676,1.859,1.859,0,0,0,.216-.638,4.206,4.206,0,0,0,.04-.5,4.145,4.145,0,0,0-.038-.5,2.047,2.047,0,0,0-.212-.658,2.646,2.646,0,0,0-.5-.678,3.378,3.378,0,0,0-.875-.6,8.611,8.611,0,0,0-.915-.351q-.488-.155-1.031-.351-.973-.311-2.024-.7a11.327,11.327,0,0,1-2.1-1.05,8.193,8.193,0,0,1-2.293-2.134,8.407,8.407,0,0,1-1.6-5.788,7.978,7.978,0,0,1,.884-3,8.542,8.542,0,0,1,1.759-2.278,8.415,8.415,0,0,1,2.341-1.523,8.556,8.556,0,0,1,2.768-.669,9.188,9.188,0,0,1,3,.279,8.782,8.782,0,0,1,2.674,1.11,8.5,8.5,0,0,1,2.067,1.824,7.873,7.873,0,0,1,1.331,2.383,8.2,8.2,0,0,1,.458,2.748L672,378.331a1.337,1.337,0,0,0-.561-1.239,3.923,3.923,0,0,0-.993-.467,2.714,2.714,0,0,1-.37-.059,1.912,1.912,0,0,0-.662,0,2.358,2.358,0,0,0-.76.269,1.522,1.522,0,0,0-.625.675,1.722,1.722,0,0,0-.12,1.3,1.847,1.847,0,0,0,.776,1.066,8.636,8.636,0,0,0,1.207.564q.661.254,1.4.487.661.2,1.341.429t1.376.545a9.174,9.174,0,0,1,4,3.416,9.235,9.235,0,0,1-.026,9.943,9.176,9.176,0,0,1-4.017,3.395,9.327,9.327,0,0,1-2.061.672A10.592,10.592,0,0,1,669.8,399.528Z" transform="translate(-560.252 -369.979)" fill="#fff"/>
        <path id="Path_11187" data-name="Path 11187" d="M745.29,371.465,745.273,378l-5.493-.015-.057,21.977-6.584-.017.057-21.977-5.455-.015.017-6.539Z" transform="translate(-602.939 -370.888)" fill="#fff"/>
      </g>
    </g>
    <g id="Group_604" data-name="Group 604" transform="translate(2050.932 669.869)">
      <path id="Path_11188" data-name="Path 11188" d="M815.006,367.048l2.659,2.409q.167-1.224,1.021-1.237l.427-.005,3.985,14.614-.111.817-.428.006-.522-2.438-.427.006-.112.816,2.049,6.9.427-.006a228.752,228.752,0,0,1,7.941-22.23l1.172.8,1.338-.425,2.4,1.19-.056.408q-1.282.018-1.5,1.651l.428-.006.371.4.427-.006.7-2.047.855-.011-.055.409-.483.414.372.4-.056.408q-4.5,9.48-9.462,27.139l-.855.011,1.743-6.542q-.855.012-3.619,7.79a5.777,5.777,0,0,1-3.158,1.265l-.111.817-.427.006q.11-.816-1.6-.793l.388-2.857q.252-1.849-5.772-20.294l-.427.006a179.564,179.564,0,0,0-5.655,19.634l-.372-.4q-2.662.754-2.841,2.076l-.854.011q-.647-1.525-.134-5.294l-.427.006-.5,3.673-.855.011-.15-2.035q1.509-11.093,8.792-27.01Zm-7.37,10.286-.056.408.372.4-.482.414-.111.816.427-.005.65-1.639-.372-.4Zm15.351,6.311q1.106-.015,1.265,3.242l-.055.409-.427.005Z" transform="translate(-802.74 -361.396)" fill="#ffd337"/>
      <path id="Path_11189" data-name="Path 11189" d="M916.238,365.391l1.875,1.341q-1.4,3.639-3.742,3.526l-11.226.632-.161.817,2.092.115,2.622-.275.34.451.424.018,3.05-.281.845.06-.08.408-10.064,1.119-1.5,5.293.424.018,11.735-1.046.318.427-.08.409-.845-.061-.056.409,2.857.585-.081.409q-1.24,2.294-12.77,3.864l-4.318.2.347.4-2.767,5.214-.428.006.752-3.677-.424-.018-1.6,5.678q13.017-1.806,18.251-1.541l2.011.524-.136.816-.848-.037.318.427-.242,1.225q-1.44,1.555-5.4,1.368l-.081.409,3.39.17-.187.817-20.263,3.055-.424-.018q-2-.4-1.889-1.245l.01-.072.242-1.225,1.782-4.434-.344-.427.851.012-.428,2.043.421.042q.528-2.043,1.274-1.982l-.341-.451.853-4.062-.845-.06-.852,2.025.53-.391.424.018-.509,2.452-.421-.042.239-1.2-.424-.019-.161.817-.424-.018.162-.817,2.294-6.91-.423-.018,1.248-1.982-.343-.427.081-.409,1.867-6.9.344.427.424.018.161-.817,0-2.061,1.175-3.659.242-1.226.421.042.343.427.5-.39.421.042.346.4.5-.39,1.269.078Zm-23.819,18.13-.59,2.859.424.018.586-2.836Zm14.03.337.428-.006-.106.408-7.844.849-.34-.451.078-.384,3.893-.22-.08.409Z" transform="translate(-856.735 -360.571)" fill="#ffd337"/>
      <path id="Path_11190" data-name="Path 11190" d="M967.414,359.031l1.282-.017.15,2.035a1.314,1.314,0,0,0,1.449-1.242l.427-.006.744.805-.761,2.455.428-.006-.483.414-.055.409.372.4-.056.408-.428.006.372.4-.056.408-2.26,13.476-.055.408.428-.006,1.837-4.1.855-.011-4.046,7.8.855-.011,7.015-13.948-.855.011-2.431,5.33-.855.011.055-.408,3.879-6.572.427-.005-.111.816,3.53-.863q1.628.577,1.543,1.2l.483-.414,1.282-.017.377,9.773.428-.006q.248-1.825,9.6-21.125l.428-.006.261,1.219.428-.006.111-.816.427-.006q3.168-.043,3.252,1.178l-.111.817-1.021,1.235-.056.409.855-.011.817-2.863.854-.011.744.8-.056.409L985.623,391.38l-1.338.426.111-.816-.482.414-.428.006-.371-.4q-.223,1.633-1.5,1.65-3.38-.242-3.253-1.178l.427-.006a3.519,3.519,0,0,0-1.321-2.834l-.488-8.957q-.732.034-6.682,11.5l-2.414,2.07-.427.006-.206-1.627q7.939-10.413,9-16.012-1.279,1.1-7.221,12.321-.528.007-2.376,4.922l-3.846.052-.206-1.627-.483.414-.427.006a3.51,3.51,0,0,0-.838-3.248l.222-1.633,1.543,1.2.089-6.927.483-.414-.372-.4.482-.414-.427.006.483-.414.778-5.715.7-2.047-.428.006.483-.414,1.443-10.613-.372-.4.056-.408Zm25.088-.147q-8.861,18.838-9.17,21.119l-.056.408.427-.006,9.653-21.533Zm-6.789,25.569-1.354,3.685-.112.816.428-.006,1.41-4.094.056-.408Zm3.9-9.832-1.355,3.686-.055.408.428-.006,1.354-3.685.055-.408Z" transform="translate(-902.561 -355.17)" fill="#ffd337"/>
      <path id="Path_11191" data-name="Path 11191" d="M1069.529,361.941q1.019.8,7.079.719l-.081.408-2.991.041-.081.409q5.354-.073,6.354,2.358l-.161.817-2.136.029-.081.409,2.911.369-.081.408-2.564.035-.081.408q1.282-.017,1.121.8a23,23,0,0,0-14.322,5.491l-.081.408a17.7,17.7,0,0,1,11.821,9.212l-.081.408q-2.277,5.3-10.055,9.915l-2.67.443-.081.408.855-.011q-.2,1.1-8.176,2.556l.161-.817,2.136-.029.107-.409a5.244,5.244,0,0,1-4.564-2.79q-1.783-.911-1.424-3.552.033-.239.094-.5l1.443-.834,1.121.8.854-.011q12.312-1.964,13.443-7.516-4.72-2.38-6.354-2.358l-.081.408-3.975-1.576.347.4-.137.817q-4.82-3.674-4.426-5.644l4.12-5.76,2.46-1.663-.161.818Zm-10.59,33.961-.081.408,1.71-.023,2.218-.437.055-.409-.428.006Zm3.259-22.861-.081.408,8.152-4.592,3.579-.863.162-.817-.855.011A33.788,33.788,0,0,0,1062.2,373.041Zm.087,16.7.428-.006,1.016-.828-.427.006Zm1.895,3.234-.056.408.427-.006,1.952-1.249Zm5.8-3.338-2.113,2.066.428-.006,2.113-2.066Z" transform="translate(-960.296 -358.393)" fill="#ffd337"/>
      <path id="Path_11192" data-name="Path 11192" d="M1130,382.282l-.055.408-.483.414-.055.408.483-.414.855-.011.949,2.431.261,1.219-1.449,1.242.855-.011.744.8-.111.816-6.577,1.312-.371-.4.111-.817q1.709-.023,1.82-.839l.055-.408-2.564.035.334-2.449.482-.414.056-.408-.427.006-1.338.425.056-.408Q1125.3,382.345,1130,382.282Zm2.293-29.966,5.341,1.869-.066.48a72.065,72.065,0,0,0-4.366,15.134l-.069.5a26.047,26.047,0,0,0,.713,8.235l-.652,1.471q-1.157.016-1.122-1.9l-.477.006-.13.96-1.886.025-.6-2.436-.521.51-.477.007q-2.932-2.429-2.141-8.239l.13-.961,2.26-9.785.477-.007.053,2.923-.93.012-.134.985.8.972.477-.007,1.726-5.871-.543.486-.452.006.2-1.441,1.064-1-.2,1.465.478-.007.268-1.969-.829-.923Zm-5.442,12.7-.332,2.449.122,2.419.478-.007.2-1.465-.014-3.4Zm0,6.806q.783,4.375,1.74,4.362Zm1.123-8.26-.264,1.945.452-.006.264-1.945Zm.993-7.3.452-.006.217,1.915-.93.012Z" transform="translate(-1005.294 -352.316)" fill="#ffd337"/>
    </g>
    <g id="Group_605" data-name="Group 605" transform="translate(2049.932 667.869)">
      <path id="Path_11188-2" data-name="Path 11188" d="M815.006,367.048l2.659,2.409q.167-1.224,1.021-1.237l.427-.005,3.985,14.614-.111.817-.428.006-.522-2.438-.427.006-.112.816,2.049,6.9.427-.006a228.752,228.752,0,0,1,7.941-22.23l1.172.8,1.338-.425,2.4,1.19-.056.408q-1.282.018-1.5,1.651l.428-.006.371.4.427-.006.7-2.047.855-.011-.055.409-.483.414.372.4-.056.408q-4.5,9.48-9.462,27.139l-.855.011,1.743-6.542q-.855.012-3.619,7.79a5.777,5.777,0,0,1-3.158,1.265l-.111.817-.427.006q.11-.816-1.6-.793l.388-2.857q.252-1.849-5.772-20.294l-.427.006a179.564,179.564,0,0,0-5.655,19.634l-.372-.4q-2.662.754-2.841,2.076l-.854.011q-.647-1.525-.134-5.294l-.427.006-.5,3.673-.855.011-.15-2.035q1.509-11.093,8.792-27.01Zm-7.37,10.286-.056.408.372.4-.482.414-.111.816.427-.005.65-1.639-.372-.4Zm15.351,6.311q1.106-.015,1.265,3.242l-.055.409-.427.005Z" transform="translate(-802.74 -361.396)" fill="#0cebb3"/>
      <path id="Path_11189-2" data-name="Path 11189" d="M916.238,365.391l1.875,1.341q-1.4,3.639-3.742,3.526l-11.226.632-.161.817,2.092.115,2.622-.275.34.451.424.018,3.05-.281.845.06-.08.408-10.064,1.119-1.5,5.293.424.018,11.735-1.046.318.427-.08.409-.845-.061-.056.409,2.857.585-.081.409q-1.24,2.294-12.77,3.864l-4.318.2.347.4-2.767,5.214-.428.006.752-3.677-.424-.018-1.6,5.678q13.017-1.806,18.251-1.541l2.011.524-.136.816-.848-.037.318.427-.242,1.225q-1.44,1.555-5.4,1.368l-.081.409,3.39.17-.187.817-20.263,3.055-.424-.018q-2-.4-1.889-1.245l.01-.072.242-1.225,1.782-4.434-.344-.427.851.012-.428,2.043.421.042q.528-2.043,1.274-1.982l-.341-.451.853-4.062-.845-.06-.852,2.025.53-.391.424.018-.509,2.452-.421-.042.239-1.2-.424-.019-.161.817-.424-.018.162-.817,2.294-6.91-.423-.018,1.248-1.982-.343-.427.081-.409,1.867-6.9.344.427.424.018.161-.817,0-2.061,1.175-3.659.242-1.226.421.042.343.427.5-.39.421.042.346.4.5-.39,1.269.078Zm-23.819,18.13-.59,2.859.424.018.586-2.836Zm14.03.337.428-.006-.106.408-7.844.849-.34-.451.078-.384,3.893-.22-.08.409Z" transform="translate(-856.735 -360.571)" fill="#0cebb3"/>
      <path id="Path_11190-2" data-name="Path 11190" d="M967.414,359.031l1.282-.017.15,2.035a1.314,1.314,0,0,0,1.449-1.242l.427-.006.744.805-.761,2.455.428-.006-.483.414-.055.409.372.4-.056.408-.428.006.372.4-.056.408-2.26,13.476-.055.408.428-.006,1.837-4.1.855-.011-4.046,7.8.855-.011,7.015-13.948-.855.011-2.431,5.33-.855.011.055-.408,3.879-6.572.427-.005-.111.816,3.53-.863q1.628.577,1.543,1.2l.483-.414,1.282-.017.377,9.773.428-.006q.248-1.825,9.6-21.125l.428-.006.261,1.219.428-.006.111-.816.427-.006q3.168-.043,3.252,1.178l-.111.817-1.021,1.235-.056.409.855-.011.817-2.863.854-.011.744.8-.056.409L985.623,391.38l-1.338.426.111-.816-.482.414-.428.006-.371-.4q-.223,1.633-1.5,1.65-3.38-.242-3.253-1.178l.427-.006a3.519,3.519,0,0,0-1.321-2.834l-.488-8.957q-.732.034-6.682,11.5l-2.414,2.07-.427.006-.206-1.627q7.939-10.413,9-16.012-1.279,1.1-7.221,12.321-.528.007-2.376,4.922l-3.846.052-.206-1.627-.483.414-.427.006a3.51,3.51,0,0,0-.838-3.248l.222-1.633,1.543,1.2.089-6.927.483-.414-.372-.4.482-.414-.427.006.483-.414.778-5.715.7-2.047-.428.006.483-.414,1.443-10.613-.372-.4.056-.408Zm25.088-.147q-8.861,18.838-9.17,21.119l-.056.408.427-.006,9.653-21.533Zm-6.789,25.569-1.354,3.685-.112.816.428-.006,1.41-4.094.056-.408Zm3.9-9.832-1.355,3.686-.055.408.428-.006,1.354-3.685.055-.408Z" transform="translate(-902.561 -355.17)" fill="#0cebb3"/>
      <path id="Path_11191-2" data-name="Path 11191" d="M1069.529,361.941q1.019.8,7.079.719l-.081.408-2.991.041-.081.409q5.354-.073,6.354,2.358l-.161.817-2.136.029-.081.409,2.911.369-.081.408-2.564.035-.081.408q1.282-.017,1.121.8a23,23,0,0,0-14.322,5.491l-.081.408a17.7,17.7,0,0,1,11.821,9.212l-.081.408q-2.277,5.3-10.055,9.915l-2.67.443-.081.408.855-.011q-.2,1.1-8.176,2.556l.161-.817,2.136-.029.107-.409a5.244,5.244,0,0,1-4.564-2.79q-1.783-.911-1.424-3.552.033-.239.094-.5l1.443-.834,1.121.8.854-.011q12.312-1.964,13.443-7.516-4.72-2.38-6.354-2.358l-.081.408-3.975-1.576.347.4-.137.817q-4.82-3.674-4.426-5.644l4.12-5.76,2.46-1.663-.161.818Zm-10.59,33.961-.081.408,1.71-.023,2.218-.437.055-.409-.428.006Zm3.259-22.861-.081.408,8.152-4.592,3.579-.863.162-.817-.855.011A33.788,33.788,0,0,0,1062.2,373.041Zm.087,16.7.428-.006,1.016-.828-.427.006Zm1.895,3.234-.056.408.427-.006,1.952-1.249Zm5.8-3.338-2.113,2.066.428-.006,2.113-2.066Z" transform="translate(-960.296 -358.393)" fill="#0cebb3"/>
      <path id="Path_11192-2" data-name="Path 11192" d="M1130,382.282l-.055.408-.483.414-.055.408.483-.414.855-.011.949,2.431.261,1.219-1.449,1.242.855-.011.744.8-.111.816-6.577,1.312-.371-.4.111-.817q1.709-.023,1.82-.839l.055-.408-2.564.035.334-2.449.482-.414.056-.408-.427.006-1.338.425.056-.408Q1125.3,382.345,1130,382.282Zm2.293-29.966,5.341,1.869-.066.48a72.065,72.065,0,0,0-4.366,15.134l-.069.5a26.047,26.047,0,0,0,.713,8.235l-.652,1.471q-1.157.016-1.122-1.9l-.477.006-.13.96-1.886.025-.6-2.436-.521.51-.477.007q-2.932-2.429-2.141-8.239l.13-.961,2.26-9.785.477-.007.053,2.923-.93.012-.134.985.8.972.477-.007,1.726-5.871-.543.486-.452.006.2-1.441,1.064-1-.2,1.465.478-.007.268-1.969-.829-.923Zm-5.442,12.7-.332,2.449.122,2.419.478-.007.2-1.465-.014-3.4Zm0,6.806q.783,4.375,1.74,4.362Zm1.123-8.26-.264,1.945.452-.006.264-1.945Zm.993-7.3.452-.006.217,1.915-.93.012Z" transform="translate(-1005.294 -352.316)" fill="#0cebb3"/>
    </g>
  </g>
</svg>
