<svg xmlns="http://www.w3.org/2000/svg" width="547.904" height="404.114" viewBox="0 0 547.904 404.114">
  <path id="Path_11217" data-name="Path 11217" d="M906.028,499.266c-.014.288-.01.582-.043.863-.11.892.127,2.2-.485,2.5-.374.189-.847.551-1-.787-.152-1.3-.685-.557-1.031-.822-.92-.708-1.906.411-2.854.262-.243-.038-.63.945-.84,1.644a4.581,4.581,0,0,0-.042,1.8c.409,1.495,1.006,2.419,1.813,2.43a3.693,3.693,0,0,0,1.226-.049c1.481-.472,2.832.594,4.255.8.6,2.069,1.575-.469,2.383.53.651.8,1.657.475,2.545-.629.845-1.046,1.141,1.3,1.776,1.673a3.357,3.357,0,0,1-.155.766,3.059,3.059,0,0,1-1,.883c-1.212.4-2.425.638-3.637,1.029-.334.108-.665.571-1,.807a10.686,10.686,0,0,1-1.528.953c-.657.3-1.149,1.985-.717,2.935.743,1.635.436,2.305-.312,3.229a2.014,2.014,0,0,0-.267.941c.013.274.2.647.328.629a19.715,19.715,0,0,1,2.771-.458,7.408,7.408,0,0,1,2.276.682c.272.1.519.469.794.519.572.1,1.248-1.606,1.718.667.19.912,1.133.7,1.72,1.09a1.538,1.538,0,0,1,.194.883,1.12,1.12,0,0,1-.381.685,6.056,6.056,0,0,1-3.463,1.069c-1.627-.1-3.27.053-4.906.1-.351.012-.732-.192-1.045.128-.392.4-1.006.4-1.048,1.883-.007.25.555.437.858.623s.4.463.013.868a2.311,2.311,0,0,0-.329,2.069c.245.685.592,1.655,1.145.559.185-.367.523-.469.609-.88.388-1.836.978-2.055,1.627-1.839.365.12,1.03.449,1.018.6-.139,1.876-.716.787-1.106,1.1-.112.093-.247.011-.345.146a1.552,1.552,0,0,0-.2.65,1.742,1.742,0,0,0,.08.693c1.265.079,2.243,2.133,3.568,1.944.905-.128,1.863-.621,2.71.539.24.326.764-.557,1.152-.62.174-.029.334.583.5.9-.155.248-.3.635-.465.72-.684.358-1.373.577-2.056.941-2.646,1.407-5.234.88-7.845,1.1a.794.794,0,0,0-.686.28c-1.364,1.868-2.748,1.221-4.13,1.641-1.838.559-3.671.626-5.52,1.684a12.04,12.04,0,0,1-3.985,1.09,4.583,4.583,0,0,0-2.591.865c-1.359,1.163-2.7.332-4.028.148-1.29-.177-2.547.758-3.808,1.285a4.861,4.861,0,0,1-4.59.064c-.492-.25-1.04-.05-1.556-.143-.9-.16-1.887.632-2.695-.676a.429.429,0,0,0-.685-.015c-1.71,1.606-3.363.647-5.04.906a3.349,3.349,0,0,0-1.884.973,9.517,9.517,0,0,1-1.7.994,1.6,1.6,0,0,0-.295.863c0,.274.174.682.3.694.972.111,1.976.568,2.776-1.97.06-.2.323-.262.422-.125a3.663,3.663,0,0,0,4.176,1.483c.164-.032.318.478.476.74-.123.2-.242.4-.367.589-.184.274-.37.536-.556.8.131.344.232.871.4.994a3.19,3.19,0,0,0,1.455.723c.908.082.925,0,1.276-2.369.134-.9.464-1.428.583-.682.282,1.751,1.214,1.145,1.545,2.655.07.321.52.137.794.052.514-.157,1.027-.434,1.541-.6.075-.026.152.268.228.414-.1.128-.209.332-.315.364a6.566,6.566,0,0,1-.7.108c-.048.012-.144.23-.14.256.032.189.076.507.13.5a11.269,11.269,0,0,0,2.621-.242c.164-.047-.011-1.842.624-1.559.386.172.814.006,1.223,0s.978-.423,1.2.073c.692,1.571,1.552.766,2.343.626a4.71,4.71,0,0,0,1.86-1.233,2.854,2.854,0,0,0,.414-1.323,1.208,1.208,0,0,0-.413-.836c-.274-.143-.585.026-.869-.05-.194-.053-.368-.3-.551-.458a2.348,2.348,0,0,1,.666-.373,6.653,6.653,0,0,1,1.4-.038c.163.012.439.12.45.318.2,3.7,1.671,2.046,2.516,2.914.705.729,1.653-.032,2.473-.143.783-.1,1.624.717,2.448-.667.165-.28.483-.2.685-.035,1.974,1.6,4.127.478,6.2.49.715,0,.019-.571-.024-.9a1.872,1.872,0,0,1,.056-.554c.349-.079.761-.405,1.034-.108,1.284,1.4,2.743,1.093,4.092.553,4.016-1.609,7.915-.577,11.875-1.043.729-.084,1.432.527,2.163.586.27.02.648-1.3.835-.041a1.833,1.833,0,0,1-1.013,1.938,4.64,4.64,0,0,1-.877.037,16.069,16.069,0,0,1-3.152.056c-2.424-.411-4.887,1.011-7.323,1.174-.334.023-.864.723-1.02,1.422-.314,1.408-.686,2.063-1.274,2.112-.719,2.614-1.679,1.452-2.547,1.7a.386.386,0,0,1-.458-.3c-.508-3.339-1.969-1.833-2.954-2.635a2.154,2.154,0,0,0-3.236.373.916.916,0,0,1-.866.2c-.527-.052-.753.531-.795,1.8a8.068,8.068,0,0,1-.238,1.62c-.273,1.081-.746,1.172-1,.2-.114-.443-.166-.991-.253-1.48-.5-2.8-.5-2.815-1.852-1.973a1.3,1.3,0,0,0-.281.664c.069.656.239,1.451-.179,1.693-.193.114-.571-.5-.614-.994-.131-1.5-.585-1.457-1.049-1.32a9.68,9.68,0,0,0-2.408.938c-1.81,1.093-3.489-.379-5.263.143-.573.166-1.144.487-1.717.673-.406.131-.851.417-1.21.184-2.507-1.608-5.19-.256-7.776-.487-.314-.029-.743.793-1.026,1.46-.248.586-.027,1.871.3,1.877a7.257,7.257,0,0,0,3.151-.157c2.185-.936,2.563-1.1,4.744-.09.274.125.643.276.861-.062.612-.944,1.054-.737,1.619-.1.319.361.881-.449,1.332-.563a.628.628,0,0,1,.758.373,3.8,3.8,0,0,1-.467,2.55c-.213.23-.455.221-.68.379-1.756,1.23-3.485.982-5.213.991a5.746,5.746,0,0,0-4.317,1.443c-.163.149-.381.443-.492.312-1.125-1.3-2.3-.414-3.528.1-1.334.559-2.682.038-4.03.291-1.669.315-3.344,1.046-5.013,1.384a18.811,18.811,0,0,0-2.445.382,47.824,47.824,0,0,1-6.615,1.221,5.826,5.826,0,0,0-1.527.871,6.46,6.46,0,0,1-1.528.875c-.561.128-1.021.04-1.133,2.019-.045.807-.468.682-.675.082-.1-.3-.164-.685-.244-1.032-.1-.452.257-1.711-.263-1.358-.351.239-.854.5-.839,1.964.008.831-.1,1.638.381,1.9a8.291,8.291,0,0,1,2.015,1.585c.254.265.453,1.652.573,1.545.567-.522.36-1.536.25-2.463A1.356,1.356,0,0,1,848,574.4a6.991,6.991,0,0,1,1.227-.082c.539-.02.15.816.185,1.312s.145,1.751.625.178c.611-2,1.623-1.53,2.02.7.049.277.127.516.192.772a5.877,5.877,0,0,0,.146-.772c.05-.816.185-1.335.561-1.431a1.346,1.346,0,0,0,.841-.478c.814-1.072,1.121-1,1.456.586.348,1.641.361,1.69,1.07.417.453-.813.989-1.119,1.245-.256.658,2.214,1.379,1.693,2.188.076.4-.79.629-.44.884.2.51,1.279,1.037,2.028,1.939,1.081.425-.446.995.327,1.511.411a2.811,2.811,0,0,0,1.182-.169c.165-.047.385-.516.487-.4,1.218,1.422,2.626.283,3.918.644a5.676,5.676,0,0,1,1.453.822c.116.079.2.382.3.583a3.69,3.69,0,0,1-.409.88,1.088,1.088,0,0,1-.688.26,7.524,7.524,0,0,1-1.4.044,15.351,15.351,0,0,0-5.915,1.017c-.642.2-1.237.1-1.7-1.21-.286-.807-.747-.973-1.355-.533-1.246.9-1.427.88-2.931,3.188a1.1,1.1,0,0,1-.841.49c-1.211.169-2.408-.23-3.642.927-.369.347-.819.137-1.217.029-.42-.116-.484-1.026-.22-2.078.142-.565.224-1.206.333-1.815-.213-.114-.428-.382-.641-.309a2.723,2.723,0,0,0-1.177.755,2.77,2.77,0,0,0-.56,1.39,4.028,4.028,0,0,0,.407,1.422,2.864,2.864,0,0,0,.266.481c.254.469.507.941.761,1.41a6.6,6.6,0,0,1-1.218,1.4c-.458.257-.932.09-1.4.126-.376.029-.555.62-.533,1.428.083,2.981,1.26,4.866,2.228,3.168.759-1.332,1.217-.676,1.891-.589,1.3.166,2.627.839,3.983-.6.055-.058.112-.157.165-.16q4.383-.144,8.764-.277c.741,1.209,1.648.848,2.508.72,1.15-.172,2.306-.635,3.46-.915,1.1-.265,2.152.137,3.3-.813.817-.679,1.745-.257,2.618-.213.522.026,1.1-.364,1.178-1.55.146-2.392.749-2.011,1.3-1.97.836.064,1.773-.706,2.4,1.247.151.475.637.347.977.341,1.926-.026,3.855-.075,5.784-.175.4-.021.8-.353,1.2-.431a5.8,5.8,0,0,1,1.683-.143,4.448,4.448,0,0,1,1.325.478c.343.151.677.364,1.015.551-.351.565-.691,1.448-1.054,1.626a4.9,4.9,0,0,1-2.258.455c-.894-.017-1.744.163-2.5,1.813-.72,1.562-1.687,1.5-2.123.571-1.034-2.215-2.3-1.049-3.459-1.177-.66-.076-1.369.507-2.054.865a1.543,1.543,0,0,0-.6.705c-.772,1.629-.861,1.673-1.425.458-.183-.4-.365-1.029-.583-1.055a3.292,3.292,0,0,0-2.271.166c-.479.286-.849.807-1.26-.015-.14-.28-.454-.186-.682-.064-1.595.877-3.148.484-4.715.568-.672.035-1.325-.443-1.995-.346a11.915,11.915,0,0,0-2.584.941.955.955,0,0,0-.184.516,1.264,1.264,0,0,0,.17.653,2.485,2.485,0,0,0,.973.463c1.884.263,3.8.169,5.644.843a9.342,9.342,0,0,0,2.868.664.515.515,0,0,1,.475.306c1.33,2.833,3.115.694,4.658,1.172.124.038.322-.417.452-.729.359-.854.642-1,1.074-.39.456.641,1.055.729,1.571,1.172s.766,1.113.137,2.366a2.388,2.388,0,0,0-.058.938c1.029,1.731,1.9,3.719,3.536,2.775,1.482-.851,3.031-.282,4.55-.315.165,0,.413.021.468.271.54,2.463,1.224,1.486,1.977.044a.827.827,0,0,1,.673-.408c.689-.157,1.369.259,2.069-.816.169-.262.567.085.758.452s.208,1.375.415,1.641c.181.23.553-.4.782-.253.56.353,1.04,1.288,1.707.8.125,1.935,1.016,1.256,1.413,2.261.071.178.156.321.234.481a1.862,1.862,0,0,1-.317.373c-.6.352-1.149.851-1.791.3-.447-.382-1.122.621-1.681.656-2.574.155-5.145.21-7.714.245a1.833,1.833,0,0,0-1.873.988,1.474,1.474,0,0,1-1.878.8c-.194-.041-.487-.781-.463-1.195.094-1.678-.223-1.85-.8-2.276a6.849,6.849,0,0,0-3.971-1.588c-1-.006-1.95-.921-2.926-1.4a1.178,1.178,0,0,0-.685-.114,4.779,4.779,0,0,1-4.16-1.416c-.348-.329-.887.242-1.335.484-.627.335-1.247.83-1.874,1.11-.544.245-.922-.111-.769-1.786.129-1.4-.21-1.6-.684-1.617-.8-.026-1.6.256-2.361-.6-.32-.358-.971.706-1.465,1.183-.768.746-.883.626-.983-1.253-.143-2.71-.378-2.972-1.592-3.6-.715-.37-1.345-1.157-2.142-.146a1.4,1.4,0,0,0-.3,1.894,2.569,2.569,0,0,1-.108,2.177c-.368.831-.653.673-.879-.087-.189-.638-.74-1.072-.142-2.305a3.821,3.821,0,0,0,.387-1.428c0-.542-.178-1.46-.322-1.465a37.877,37.877,0,0,0-5.079.119c-.289.029-.617.839-.907,1.361-.65,1.174-1.157,1.533-1.454.166-.38-1.754-.969-1.352-1.566-1.513-1.387-.373-2.769.927-4.152,1.221-1.51.32-3,2.1-4.52,1.684-.315-.087-.684.449-1.02.475a19.77,19.77,0,0,1-2.728.026c-.278-.012-.554-.519-.809-.367-3.014,1.818-5.927.562-8.9,1.078-.059.009-.117,0-.175.005-1.036.056-1.019.07-1.525,2.74-.181.956-.437,1.886-.929.962-.058-.108-.408.4-.522.784-.253.851-.549.976-.649.189-.134-1.052-.415-1.107-.776-1.093a25.172,25.172,0,0,0-2.806.134c-.217.032-.572.58-.649,1.046-.256,1.553-.354,2.11-.842.5-.209-.694-.926-.679-1.409-.5-1.139.405-2.276,1.157-3.416,1.629-.222.091-.664-.457-.651-.711.109-2.113-.5-1.848-1.011-1.754a7.082,7.082,0,0,0-1.895.623,1.626,1.626,0,0,1-2.325-.466,1.864,1.864,0,0,0-1.436-.842c-5.664.1-11.333.294-17,.455-.523.015-.972.323-1.5,1.011-.847,1.107-1.782,1.842-2.728.737-1.742-2.031-3.7-2.008-5.69-.991-.432.219-.506-.07-.777-.6a.94.94,0,0,0-1.411-.411,9.634,9.634,0,0,0-.66,2.474c.226.259.45.528.678.775.25.271.489.65.758.76.682.277.582,2.116.982,2.935-.366.227-.734.42-1.1.691-.617.46-1.227,1.026-1.848,1.443-.28.192-.614.347-.859.154a7.81,7.81,0,0,1-2.415-2.317,1.523,1.523,0,0,0-1.585-.935c-3.33.085-6.662.2-9.991.265a2.432,2.432,0,0,1-1.845-.522,1.65,1.65,0,0,0-2.232-.058c-2.122,1.818-3.971.128-5.915-.387-.052-.012-.088-.175-.141-.2-.423-.222-1.027-.72-1.171.583a3.73,3.73,0,0,0,.838,2.48,2.969,2.969,0,0,0,2.784-.038c1.365-.851,2.576.146,3.867,0,.235-.029.492-.128.693.05a7.362,7.362,0,0,1,.856,1.136c-.307.3-.621.813-.92.851-1.618.2-3.232.315-4.845.391-.213.009-.42-.609-.613-.5-1.455.778-2.761-.029-4.1-.691-.629-.312-1.383.078-2.062.5-.975.6-.884.722-.943,3.267-.024,1.011-.146,1.384.352,1.408,3.175.143,6.341.466,9.522.5,1.135.012,2.291.711,3.455-.816,1.6,1.641,3.442.1,5.117.8a7.218,7.218,0,0,0,1.571.25,7.968,7.968,0,0,0,1.525.286c.164,0,.4-.469.519-.86.149-.478-.464-1.609.287-1.679.632-.058,1.441-.446,1.475,1.673.027,1.644.348,1.682.855,1.714,2.532.172,5.064.361,7.588.647,1.021.117,2.013.638,3.036.7.788.05,1.58.35,2.416-.755.39-.516.9-.274,1.257.65.2.516.586.58.879.885.852.889,1.961-2.066,2.712.277,1.025.137,2.048.335,3.078.394.987.055,1.992-.146,2.976-.032a21.493,21.493,0,0,1,3.556.767c.407.117.774.871,1.107-.688.042-.2.532-.067.779.114a5.684,5.684,0,0,0,3.661,1.27c5.38-.25,10.753-.364,16.126-.475a5.24,5.24,0,0,1,1.666.522c.165.058.343.32.488.2,2.007-1.687,3.947-.679,5.916-.944a12.732,12.732,0,0,0,4.65-1.748c.79-.464,4.355-.053,4.992.591a3.3,3.3,0,0,1,.277.382,5.429,5.429,0,0,1-.3.469c-.488.6-.983,1.151-1.466,1.775-.739.956-1.426,1.2-2.167.46s-1.518-.641-2.352.434a3.526,3.526,0,0,1-3.634,1.087c-1.208-.446-2.449.216-3.624,1.128a3.194,3.194,0,0,1-1.892.714,17.964,17.964,0,0,1-3.853.073c-1.111-.172-2.22.892-3.36.291s-2.436-.07-3.662-.032c-1.168.032-2.338.068-3.506.1s-2.335.029-3.506.117c-.744.055-1.471-.216-2.246.781-.343.44-.968.664-1.1-.976a.618.618,0,0,0-.4-.525c-1.708-.28-3.42-.518-5.13-.758-.432-.058-.651.1-.451,1.405a4.662,4.662,0,0,1-.593,1.9c-.1.169-.592-.457-.622-.912-.209-3.2-1.12-3.369-2.25-3.2a3.886,3.886,0,0,1-3.062-.518c-.519-.364-1.252.2-1.92-.052-2.3-.886-4.71-.481-7.043-.895a48.853,48.853,0,0,0-8.3-.5c-.276,0-.54-.277-.8-.449-.8-.519-.959-.356-1.322,1.693a2.891,2.891,0,0,0,.12,1.3,7.258,7.258,0,0,0,2.144.9c.961.172,1.959-.274,2.867.726.394.434.928.184,1.029-1.571.016-.291.325-.571.5-.857a6.019,6.019,0,0,1,.282,1.542c-.372,1.559-.044,1.7.438,1.771,1.421.219,2.843.449,4.256.761.326.073.609.6.933.743.768.341,1.549.565,2.323.863a14.976,14.976,0,0,1,1.974.836c.255.14.466.6.7.909a17.809,17.809,0,0,1-.608,1.938.954.954,0,0,1-.651.571c-.711.14-1.513-.513-1.784,2.349a1.553,1.553,0,0,1-.932,1.119,7.154,7.154,0,0,1-3.3-.05c-1.863-.682-3.676-1.378-5.611.947-.425.513-.836.373-1.333-.563a3.15,3.15,0,0,0-2.671-1.53,13.992,13.992,0,0,0-3.676.055c-1.683.149-3.251-.737-4.86-1.358-1.452-.559-3.016-.116-4.533-.076a.652.652,0,0,0-.492.434c-.985,2.293-1.922,1.591-2.68.2a3.66,3.66,0,0,0-3.124-2.212c-1.368-.14-2.779.486-4.1-.635-.58-.493-1.35-.417-1.988,1.183-.167.42-.79.5-.925.125-.744-2.1-1.467-.676-2.223.475-.236.358-.5.769-.752.839-1.446.391-2.875-.609-4.338,1.005-1.217-1.291-2.6-.592-3.9-.792-.178-.029-.3-.659-.475-.854-.53-.577-1.049-1.439-1.624-1.541-2.166-.388-4.351-.539-6.533-.732-.493-.044-1.033-.358-1.379,1.341-.054.268-.547.338-.776.155-.4-.318-.854-1.545-1.114-1.244a7.383,7.383,0,0,0-1.491,3.159c-.285,1.384-.267,2.183-.793.766-.155-.419-.515-.352-.77-.568-.194-.163-.54-.425-.53-.641.123-2.372-.591-1.836-1.138-1.88-1.2-.093-2.4.175-3.577-.627-.829-.565-1.844.035-2.777.146-.153.02-.407.405-.451.274-.761-2.253-1.934-.959-2.92-1.233-1.065-.294-2.135-.536-3.207-.764a2.069,2.069,0,0,0-.875.023c-.857.189-1.093.834-1.086,3.086,0,.481.246,1.046-.15,1.183-.2.073-.588-.292-.578-.42.276-3.87-.892-2.964-1.751-2.865-.914.1-1.8-.242-2.77.752-.684.7-1.489.364-2.141-.638a24.119,24.119,0,0,0-1.879-2.48,6.112,6.112,0,0,0-1.09-.886c-.324-.253-.981.676-.888-.924a2.373,2.373,0,0,1,.977-1.562c.986-.356,1.836-2.565,2.888-2,.156.084.428-.469.613-.837.385-.763.714-1.364.905.2.037.3.261.661.371.586.979-.656,1.926.714,2.831-.216a2.393,2.393,0,0,1,3.1-.6c1.864,1.029,3.791.35,5.682.533.694.067,1.405-.093,2.1-.023.448.046.874.417,1.322.475a4.829,4.829,0,0,0,1.336-.163c.809-.134,1.618-.283,2.428-.425.9,3.368,2.616,1.093,3.891,2.165,1.209,1.02,2.761.2,4.166.075.206-.02.555-.615.631-1.087.179-1.119-.125-1.466-.537-1.443a7.038,7.038,0,0,1-4.138-1.544.745.745,0,0,0-.521-.044,5.024,5.024,0,0,1-4.673-1.492c-.335-.347-.808-.02-1.212-.07-1.954-.242-3.976.717-5.891-.3-.338-.181-.778.251-1.16.536-1.637,1.227-3.154.772-4.758.323-2.881-.8-5.859-.606-8.8-.807-.717-.047-.757,1.65-1.061,2.64-.127.411-.193.924-.285,1.39-.091-.484-.214-.938-.262-1.46a14.1,14.1,0,0,0-.255-3.048c-.375-.559-.995-.239-1.512-.294-2.12-.227-4.318.134-6.334-.886-1.379-.7-2.9.309-4.174-1.326a.614.614,0,0,0-1.025.075c-.716,1.076-1.17.828-1.683-.417-.223-.542-.741-.452-1.135-.454-1.516-.009-3.041.128-4.554.084-2.188-.061-4.38-.1-6.46-1.448-.372-.239-.811-.05-1.219-.038q-5.346.153-10.693.309c-.632.018-1.288.288-1.714-1.174-.085-.291-.5-.073-.754.087-.531.335-1.2.912-1.393-.46-.3-2.107-.97-1.81-1.652-1.737-1.2.128-2.413-.429-3.606,1.483-.27.431-.684.332-1.026.361a21.488,21.488,0,0,1-2.454.076A2.891,2.891,0,0,0,633,617.388c-.6.88-1.317,1.163-1.9.143-.45-.8-.926-.679-1.471-.2a6.943,6.943,0,0,1-1.853,1.329c-.445.172-1.082.262-1.308-.347-.53-1.437-1.206-1.2-1.891-1.189-.58.009-1.125.1-1.562-1.078-.209-.562-.722-.548-1.111-.553-1.516-.015-3.04.1-4.556.09a2.372,2.372,0,0,1-1.844-.521c-.985-.9-2.029.169-2.963,1.8-.447.781-.854,1.754-1.325,2.392-.751,1.011-1.542,1.83-2.065-.358-.027-.114-.078-.277-.118-.265-1.475.341-2.762-2.226-4.376-.189a3.292,3.292,0,0,0-1.124,1.946c-.187.977-.492.936-.684.341-.457-1.407-.932-1.366-1.666-.481-.619.749-1.36-.323-2.054.895-.28.489-.654.629-.984.929-.062-.755-.09-1.547-.2-2.247a1.738,1.738,0,0,0-.4-.982c-.267-.164-.575-.056-.867-.05-2.863.081-5.723.081-8.591.288a24.5,24.5,0,0,0-3.809.933c-.682.169-1.362-1.09-2.065.816-.127.344-.891.085-.923-.259-.18-1.987-.935-1.238-1.408-1.518a18.055,18.055,0,0,0-3.464-1.381c-.474-.166-.724.294-.851,1.641-.159,1.682-.526,2.153-1.093,1.816a.777.777,0,0,1-.3-.312c-.875-1.667-1.789-1.527-2.881-.035-.854,1.168-1.19.708-1.666-1.169-.493-1.944-.493-1.944-1.457-.8a.736.736,0,0,0-.159.21c-.285.688-.855.492-.9,1.938-.052,1.612.559,1.524.9,2a.686.686,0,0,0,1.027.026,3.492,3.492,0,0,1,4.745-.119.753.753,0,0,0,.7.015c.733-.207,1.467-.46,2.2-.7.139,2.311,1.143,1.087,1.645,2.031.409.77.9.344.95-1.372.033-1.233.225-1.845.771-1.862.516-.015.748.42.641,1.725s.123,1.708.635,1.737a5.877,5.877,0,0,1,4.912,3.057.586.586,0,0,0,.666.2,2.134,2.134,0,0,1,2.272,1.195c.3.452.755.422,1.15.428,1.282.014,2.575-.151,3.855-.073a31.272,31.272,0,0,1,6.874.784,18.128,18.128,0,0,0,2.866.676c.267.032.516.432.754.737,1.276,1.649,1.263,2.229-.083,4.389a4.45,4.45,0,0,0-.6,1c-.52,1.495-.931,1.629-1.33.079-.088-.344-.368-.688-.514-.56-1.38,1.2-2.763-.338-4.148,1.341-.2.236-.7-.1-.741-.469-.2-1.824-.831-.976-1.292-1.122-.538-.169-.931.224-.929,1.874a15.373,15.373,0,0,1-.113,1.719c-.025.218-.178.577-.236.554a.758.758,0,0,1-.388-.484,3.855,3.855,0,0,1-.172-1.133,13.925,13.925,0,0,0,.086-2.148c-.238-.4-.658-.16-.981-.341a4,4,0,0,1-1.414-1.063c-.538-.7-1.039-.851-1.638.006-.433.623-.792.382-1.074-.434a7.566,7.566,0,0,0-.334-.9c-.424-.822-.8-2.005-1.306-2.314a2.026,2.026,0,0,0-2.1.006c-1.474.825-2.919,2.124-4.408,2.9-.788.411-1.318.749-1.683-1.078-.083-.42-.37-.53-.544-.845-.867-1.568-1.107-1.4-1.7,1.157a10.932,10.932,0,0,1-.407,1.2,6.2,6.2,0,0,1-.271-1.218c-.041-.956.342-2.637-.616-1.029-1.217,2.049-2.495,3.517-3.944,1.871-.48-.548-1.337.484-2.016.915-1.4.886-2.3.14-3.184-2.054-.832-2.054-1.791-3.567-3.26-2.521a8.342,8.342,0,0,1-3.272,1.18,5.784,5.784,0,0,0-2.416.845c-.785.565-1.7,1.676-2.451.2a42.529,42.529,0,0,0-6.363-.6c-1.275.055-2.251-.886-3.142-2.64-.191-.373-.444-.741-.689-.749a8.24,8.24,0,0,0-3.327.184c-.528.2-1.031.332-1.429-.134-1.179-1.375-2.643,0-3.812-1.42-.116-.142-.431.367-.6.729a3.207,3.207,0,0,0-.028,1.061c.237,2.211.742,3.438,1.81,3.278.67-.1,1.311.591,1.984.688.4.058.784,1.25,1.291-.551.258-.918,1.291.021,1.4,1.58.126,1.819.652,2.232,1.159,2.255a2.75,2.75,0,0,1,1.9,1.346,1.245,1.245,0,0,0,.812.4,30,30,0,0,1,3.2.859c.282.111.539.833.7,1.463a4.848,4.848,0,0,1-.186,1.562c-.039.16-.387.215-.438.035-.423-1.495-.952.828-1.446.119-.35-.5-.857-.448-1.3-.559-.248-.061-.353.1-.346.947.024,3.08-.005,3.112-1.2,3.995-.281.207-.58.16-.865.35a1.184,1.184,0,0,0-.369.705,1.682,1.682,0,0,0,.211.869c.178.262.567.274.578.545.122,3.007,1.109,2.529,1.969,3.028,1.173.679,2.382.452,3.564.729a3.128,3.128,0,0,1,1.993,1.71c.7,1.361,1.472,1.641,2.348,1.614.121,0,.3.4.31.685a2.439,2.439,0,0,1-.233,1.073,2.133,2.133,0,0,1-.985.758,9.447,9.447,0,0,0-2.764.769c-.774.4-1.7-.344-2.386-1.268a3.886,3.886,0,0,0-3.749-1.856c-1.009.1-2.053.658-2.916-1.314-.443-1.014-1.377-.749-2.087-1.076-.537-.248-.911.592-1.253,1.489-.492,1.288-.881,1.387-1.276.079-.427-1.411-.881-2.829-1.8-2.311-1.3-2.646-3.212-2.165-4.639-4.182-.095-.134-.216-.2-.283-.394a2.569,2.569,0,0,1-.215-.97c.039-.35.248-.871.379-.9.51-.122,1.057-.335,1.521-.053a3.231,3.231,0,0,0,3.744-.114,1.93,1.93,0,0,1,1.557-.283c.5.131,1.088.991.581-1.349.222-.292.622-.9.641-.834.574,2.122,1.786.519,2.5,1.9.1.2.58-.72.885-1.119-.234-.455-.56-1.44-.685-1.279-.761.988-1.139.009-1.7-.743-.478-.641-1.249-.146-1.89-.151-.6-2.579-1.925-1.215-2.818-2.343-.6-.758-1.406-.7-2.13-.909a8.85,8.85,0,0,1-2.938-2.818c-.475-.95-1.33-.186-1.631-2.124-.107-.679-.7.128-1.251,1.437a3.994,3.994,0,0,1-1.07,1.623c-1.72,1.177-3.436,2.092-5.075.5-.786-.766-1.611-2.124-2.442.7-.07.236-.369.344-.5.207-.784-.839-1.835-.245-2.426-2.159-.122-.4-.511-.77-.622-.572a4.717,4.717,0,0,0-.58,1.88c.289,2.014-.472,2.451-.875,3.375-.044.1-.464-.437-.448-.594.224-2.227-.333-4.817.867-6.653a2.1,2.1,0,0,0-.184-1.99,1.924,1.924,0,0,1-.819-1.093,3.915,3.915,0,0,1,.126-3.229,11.016,11.016,0,0,0,.62-2.081c-.309-.457-.6-1.323-.932-1.3-1.084.073-1.895-.956-2.816-1.982-.91-1.011-2.235-.186-3.381-.1-.4.029-.927.729-1.172.344-.678-1.06-1.446-.676-2.184-.615a6.176,6.176,0,0,1-4.85-1.481.364.364,0,0,0-.334-.116c-1.375.437-2.708-.041-4.07.148-.225.029-.539.527-.685,1.014-.327,1.1-.7,1.821-1.2,1.539a1.521,1.521,0,0,1-.532-1.038c.153-1.909-.306-2.273-.879-2.652-.9-.6-1.774-1.375-2.659-2.075-.052-.041-.115-.108-.164-.067-1.463,1.256-2.781-.315-4.208.015-1.465.338-2.961-.531-4.374.367-1.753,1.113-3.462-.169-5.18,1.638a.428.428,0,0,1-.686,0c-.98-1.428-2.146-.478-3.219-.664-.387-.067-.809-.221-1.049,1.163-.055.314-.478.7-.613.539-1.234-1.451-2.609.694-3.873.172-.415-.172-.844.248-1.132-1.113a1.023,1.023,0,0,0-1.473-.8c-1.2.42-2.413.72-3.576-.344-.638-.585-1.5-.32-2.252.038-2.045.982-2.6,1.052-4.747.09-.5-.224-1.05.027-1.57-.049-1.537-.216-3.075-.446-4.6-.772-.254-.055-.454-.664-.7-.938s-.492-.592-.757-.624c-.357-.041-.763,1.477-1.093.311-.616-2.177-1.943-2.7-2.171-5.764-.07-.938-.177-1.853-.219-2.807-.13-2.952-.092-2.733,1.039-3.919.837-.877,1.578-2.445,2.513-2.722a4.262,4.262,0,0,0,.128-1.311c-.361-.915-.783-1.684-1.178-2.521-.191-.408-.541-.845-.521-1.276.084-1.795-.565-1.276-.864-1.85-.5-.959-.814-.134-1.217.644a4.093,4.093,0,0,1-.964,1.245c-.337.289-.59.213-.846-.641a18.793,18.793,0,0,0-1.109-3.684c-.683-1.209-1.334-1.7-2.1-1.366-1.417.609-2.275-1.746-3.42-2.544-.361-.251-.026-.875-.058-1.221-.129-1.39-.493-1.579-1-.653-.2.364-.356.883-.563,1.195a1.147,1.147,0,0,1-.633.519,4.517,4.517,0,0,1-.125-1.093c-.013-.417.047-.869.044-1.291-.021-2.25-.142-2.492-1.1-1.888-.627.394-1.1.455-1.349-1.259-.2-1.338-.926-1.941-.734-3.9.157-1.605-.73-1.935-.588-3.914a27.174,27.174,0,0,0-.542-5.021c-.849-.018-.629-1.344-.427-2.635a6.139,6.139,0,0,0-.791-4.371,3.185,3.185,0,0,1-.313-3.255,2.6,2.6,0,0,0-.072-1.131,8.347,8.347,0,0,1-.353-3.882,2.73,2.73,0,0,0-.12-1.113c-.711-.592-.916-1.661-.491-3.471-.649-1.171-.421-2.987-.351-4.692.069-1.664.354-3.611-.769-3.6-.154,0-.394-1.078-.356-1.632a5.7,5.7,0,0,0-.877-4.019,1.263,1.263,0,0,1,.067-1.731,1.515,1.515,0,0,0,.2-1.62c-.165-.484-.3-1.285-.514-1.361-.97-.349-.873-1.454-.484-3.442.413-2.1-.648-3.278-.559-5.33-.671-.487-.47-1.9-.412-3.147.263-5.764.51-11.528.81-17.293.079-1.524-.255-.953-.57-.883a20.2,20.2,0,0,1-2.18.332c-.1.012-.183-.224-.274-.344a3.326,3.326,0,0,1,.222-.708c.735-1.035,1.461-2.329,2.274-1.058.432.676.6-.053.687-1.084.194-2.389.018-4.832.624-7.177.182-.7-.314-1.778-.726-1.614-.22.085-.46.65-.646.583s-.4-.568-.455-1.026a3.717,3.717,0,0,1,.189-1.466c.267-.583.635-.874.91-1.443a8.351,8.351,0,0,0,.322-1.468c-.2-.166-.424-.592-.6-.452a3.615,3.615,0,0,1-2.763.895c-.887-.108-1.085-.6-1.015-2.8.06-1.871.135-3.751.264-5.619.142-2.069,1.064-3.357,1.2-5.511.018-.271.392-.594.609-.74s.511.079.69-.2c.643-1.009,1.25-2.165,1.871-3.264.592,1.6,1.306-.624,1.955-.28a4,4,0,0,0,.469-1.483,5.751,5.751,0,0,0-.038-1.629,23.789,23.789,0,0,1-.575-2.861c-.053-.976.3-2.2.239-3.173a8.358,8.358,0,0,0-.659-2.011c-.179-.6-.307-1.3-.458-1.953.357-.321.792-1.081,1.058-.874.665.516.693-.37.731-1.492.112-3.41.139-9.689,1.093-12.782a6.045,6.045,0,0,0,.173-2.8c-.409-2.993.259-5.916.818-8.576.28-1.335.422-2.655.661-3.934a18.987,18.987,0,0,0-.452-9.2,19.075,19.075,0,0,1-.579-7.618c.212-1.664.18-3.447.264-5.176.122-2.515.144-2.381,1.212-3.611a10.729,10.729,0,0,0,1.183-2.667c.625-1.664,1.146-3.453,2.21-3.508.444-.021,1-1.02,1.392-1.885.477-1.046.837-2.422,1.247-3.655-.566-.8-1.168-.029-1.772.108-.88.2-1.746-.51-2.617-.834-.539-.2-.423-1.256-.5-2.25a3.175,3.175,0,0,1,.566-2.419c.926-1.413,1.848-2.879,2.813-4.065.757-.933,1.263-1.481.589-3.561a17.3,17.3,0,0,1,.062-3.759c.053-1.553.262-3.153-.293-4.339a2.446,2.446,0,0,1,.241-2.151,7.542,7.542,0,0,1,1.072-1.658,4.133,4.133,0,0,0,.891-3.331c-.032-.56-.182-1.358-.357-1.448-.342-.175-.763-.5-1.018,1a11.674,11.674,0,0,1-.848,2.792c-.4.88-.915.571-1.188-.443a3.006,3.006,0,0,1,.326-2.188c.476-1.192,1.351-1.626,1.275-3.958-.007-.239.685-.763,1.032-1.259a1.516,1.516,0,0,0,.063-1.632c-.4-.667-1.173-.393-1.013-2.494.01-.128-.473-.612-.559-.431-.728,1.53-1.443,1.55-2.205.932-.111-.09-.319.49-.48.531a2.042,2.042,0,0,1-.8-.085l.532-.994q-.824-1.788-1.646-3.578c-.974,1.311-1.556-.694-2.34-.988a.893.893,0,0,1-.483-.292c-.675-.933-1.419-.761-2.171-.084-.307.274-.478.46-.715-.233-.483-1.41-.93-3.188-1.968-2.247-.638-1.812-1.439-1.684-2.339-.507-.078.1-.22-.044-.311-.157-.337-.423.251-2.885-.642-1.991-.7.7-.766-.734-1-1.387-.4-1.107-.847-1.547-1.48-1.451-.891.137-1.747-.533-2.667.064-.089.058-.2-.177-.294-.277.128-.184.253-.388.387-.542.152-.175.31-.309.465-.461a1.786,1.786,0,0,0-.264-.431,2.171,2.171,0,0,1-1.579-2.436c.232-.315.541-1.014.687-.883,1.229,1.119,2.619,1.134,3.793,2.739a3.741,3.741,0,0,0,2.846,1.815c.655-.017.931,1.107,1.477,1.227a2.192,2.192,0,0,1,1.582,1.026c.615,1.046,1.131,2.165,1.989.81,1,2.594,2.816.344,3.864,2.926a3.149,3.149,0,0,0,1.639,1.752c1.289.58,1.5.082,1.677-3.15.008-.146,0-.294.022-.431a21.722,21.722,0,0,1,.431-3.118c.177-.586.715,1.032.579,3.232-.187,3.057.705,4.147,1.32,5.72.369.942.857.2.956-1.364.091-1.439.117-2.882.212-4.322.132-2.019.344-2.783,1.139-2.646,1.083.187,1.463-1.55,1.9-3.363.059-.242.026-.594.079-.854,1.226-6.018.519-5.167,3.139-4.421.513.149.587.064.6-1s.3-2.323-.33-2.888a5.946,5.946,0,0,1-.136-1.889c.017-1.142.1-2.3.15-3.456.161-3.584.167-3.689-1.211-3.884-.751-.108-1.208-1.67-1.192-2.623.034-2.019-.418-4.528.7-6.254a3.5,3.5,0,0,0,.232-1.136c.143-1.606-.073-3.52.856-4.406-.113-2.839,1.165-4.835,1.127-7.65a2.656,2.656,0,0,1,.225-1.113c.676-.472.55-1.746.644-2.833.15-1.716-.143-3.756.84-4.91a4.958,4.958,0,0,0,.148-1.629c-.129-2.542.84-4.127,1.191-6.263a3.445,3.445,0,0,1,1.365-1.917,6.718,6.718,0,0,0,2.425-2.681,4.2,4.2,0,0,1,2.6-2.521c1.106-.341,1.775-1.693,2.312-3.791.359-1.4.9-2.223,1.33-1.591,1.1,1.6,2.248-.469,3.367-.37.943.084,1.87-1.83,2.975-1.122.85.545,1.921-.425,2.891-.589q3.572-.6,7.142-1.063c.507-.061.682-.469.83-1.737.315-2.687.5-2.827,1.458-2.3a3.142,3.142,0,0,0,1.506.431c1.75.006,3.506-.108,5.256-.1.328,0,.872.1.923.536.3,2.573,1.208,1.74,1.961,1.97,3.186.967,6.507-.029,9.676.746,2.875.7,5.816-.224,8.646.534a22.77,22.77,0,0,0,7.426.486c1.435-.093,2.892-.726,4.334-.915,1.406-.184,2.818.35,4.2-.283,1.413-.647,2.8-.306,4.162-.976,1.713-.842,3.38-.233,5.039-1,3.2-1.484,6.278-.382,9.426-1.128.71-.169,1.166,1.463,1.961.4.67-.9,1.313-.087,1.976.248.554.28,1.24-.568,1.865-.688a14.013,14.013,0,0,1,7.922.758c2.227.883,4.493.277,6.729.51,2.411.248,4.818.551,7.24.626,2.387.073,4.845-.685,7.168-.006,2.175.638,4.391.108,6.545.595,1.359.309,2.691.874,4.089.65.321-.05.488.166.566-1.274.088-1.6,1.224-1.941,1.716-.656a.843.843,0,0,1-.225,1.1,5.225,5.225,0,0,0-.551,1.128c.235.169.461.461.705.481.637.053,1.284-.023,1.926-.026s.924-.478.583-2.034a5.612,5.612,0,0,1,.079-1.139c.172.149.409.166.506.466.655,2.02.663,2.145,1.614.935.926-1.174,1.851-.877,2.751-1.32,1.014-.5,1.964-.306,2.942-.58.1-.029.2.163.3.254a3.976,3.976,0,0,1-.349.565c-.546.6-1.112,1.093-1.64,1.8a9.172,9.172,0,0,0-.682,1.626c.287.318.564.927.865.9,1.206-.1,2.386.256,3.644-.769.631-.516,1.4-1.428,2.12-.291.685,1.075,1.505-1.4,2.352-.542a1.756,1.756,0,0,0,2.187.37c.8-.466,1.417-.5,2.046.533.245.4.649.338.99.344.932.017,1.872-.105,2.8-.053,3,.166,6.052-.181,8.976.737,3.437,1.081,6.95.111,10.41.373.438.035.908-.44,1.363-.638a.92.92,0,0,1,.684-.14,8.875,8.875,0,0,0,7.2-.221c.693-.321,1.5-.571,2.08-.015.936.9,1.909.638,2.88.618,4.965-.1,9.964-.752,14.891-.3,7.237.662,14.521.233,21.794.117,4.955,1.69,10.091.137,15.128.385.614.032,1.271-.67,1.883-.63a4.711,4.711,0,0,1,2.462.819c1.287.9,2.588,1.11,3.871-.662.782-1.078,1.175.335,1.739.528.816.28.788.516.976-1.926a2.086,2.086,0,0,1,.153-.72c.15-.044.407-.032.434.163.307,2.206.708.947,1.1-.116.11-.294.2-.632.3-.953.029.4.087.787.08,1.189-.087,4.546-.086,4.471,1.822,4.523,1.375.038,2.813-.688,4.091.685a.392.392,0,0,0,.52,0c1.629-1.026,3.141.355,4.744-.093.686-.192,1.366.248,2-1.329.2-.5.663-.422,1-.5,1.095-.23,2.179.423,3.291-.889.136-.16.548.35.537.533-.142,2.366.562,1.856,1.117,1.941,1.133.172,2.349-.693,3.394.67.147.193.445-.16.668-.329.742-.568,1.473-1.288,1.915.857.078.382.52.306.8.3a24.529,24.529,0,0,0,4.909-.207,13.383,13.383,0,0,0,3.413-1.868,1.274,1.274,0,0,0,.194-.644c-.032-.332-.13-.848-.225-.851a2.553,2.553,0,0,0-1.026.292c-.284.125-.572.463-.847.472-.19.006-.362-.388-.542-.6.17-.571.469-1.667.491-1.64.86,1.107,2.226-1.81,2.857,1.367.116.589.683.594,1.057.728.1.038.391-.545.38-.65-.27-2.541.476-1.845.949-1.886.583-.052,1.206-.242,1.718.158.156.122.017,1.844.667,1.53a3.172,3.172,0,0,1,1.4-.084c.409-.012.818-.02,1.228-.038a9.066,9.066,0,0,0,1.4-.087c.159-.029.334-.294.481-.53a1.973,1.973,0,0,0,.221-.694c.014-.111-.12-.423-.2-.426-.814-.035-1.633.006-2.445-.064-.1-.009-.252-.542-.232-.81s.243-.761.342-.74c1.214.251,2.6-1.25,3.612,1.276.188.472.916.079,1.3-.44a2.767,2.767,0,0,1,2.577-1.157c.521-.041.9.064.868,1.711-.006.321.4.845.621.8,1.8-.335,3.56.761,5.391-.918a.621.621,0,0,1,.867-.044c1.181,1.1,2.481.638,3.736.76a.6.6,0,0,1,.394.516,2.279,2.279,0,0,1-.207,1.029c-.717.466-.521,2.191-.849,3.217-.368,1.157-.181,2.1.488,2.157.311.026.59.568.882.886.192.21.442.767.563.606,1.4-1.883,2.528.641,3.868.131s2.685-.134,4.031-.236c.684-.052,1.356.274,2.073-.723.326-.455.823-.312,1.206-.14a7.129,7.129,0,0,0,6.5-.155.557.557,0,0,1,.668.1c.8.877,1.6.918,2.5-.151.283-.338.686-.1,1.012.052,1.6.729,3.189,1.9,4.865,1.271,4.421-1.664,8.737-.8,13.1-1.122,4.39-.327,8.77-.367,13.146-.385a35.215,35.215,0,0,1,4.262.676c.678.082,1.362.254,1.99-1.346.333-.845,1.023-.659,1.023.256,0,2.541.713,1.845,1.288,1.842,1.225-.006,2.483-.355,3.672-.009,1.009.3,1.985.9,3.04.685.631-.131,1.232.079,1.9-.685a.847.847,0,0,1,1.456.245c.553,1.367,1.226,1.037,1.9,1.174.785.163,1.549.568,2.333.749.533.125.984.117,1.1-1.932.177-3.048.328-.032.5-.023.925.044,1.649.8,1.862,3.177.825-.024,1.444,1.99,2.4.7.525-.705.872-.475,1.03.962.068.621.372,1,.491,1.6.306,1.536.69,2.582,1.535,2.235.315-.128.631.423.96.519.261.076.676.175.788-.169.264-.81.4-1.521.717-.4.126.44.292.807.436,1.215.409,1.151.07,1.218-.344,1.341-.873.259-1.765.894-2.613.825s-1.692.921-2.508.216c-.3-.262-.693-.006-1.042-.038-.58-.053-1.047.093-1.068,2.054a6.294,6.294,0,0,1-.426,1.865,3.7,3.7,0,0,0-.289,2.276,7.092,7.092,0,0,1-.439,1.541c-.144-.294-.293-.574-.426-.891-.029-.07.019-.318-.006-.411-.167-.583-.337-1.641-.519-1.6-.277.064-.575.86-.841,1.413-.072.151-.028.621-.1.822-.1.292-.28.676-.385.639s-.2-.5-.254-.822c-.316-1.871-.571-2.037-1.178-.7a15.589,15.589,0,0,1-.751,1.719c-.272.423-.865.6-.872.831-.054,1.655.544.9.88.927,1.046.064,2.172-.522,3.138.044,2.021,1.186,4.136.4,6.2.554a2.229,2.229,0,0,0,1.2-.5,3.844,3.844,0,0,0,.632-.807c-.139-.405-.263-.854-.421-1.21-.315-.708-.683-1.3-.958-2.089a4.456,4.456,0,0,1,.164-1.469c.067-.268.307-.539.422-.472a3.959,3.959,0,0,1,1.084.918c.779.953.522-.058.465-1.18-.049-.965.362-1.172.628-.959.579.461.823,3.089.314,4.054-.478.906-.642,1.116-.134,2.034.257.466.243,2.168.473,2.259a3.955,3.955,0,0,0,2.262.029c.566-.111,1.138-.63,1.705-.784a1.481,1.481,0,0,0,1.331-1.012c.241-.516.646-.551.975-.813.383-.306.765-.635,1.149-.93.251-.192.5-.341.756-.51a16.581,16.581,0,0,1-.095,2c-.111.647-.209,1.07.149,1.09,1.022.058,2.032.02,2.9-2.127.1-.239.537-.149.546-.02.127,1.85.913,1.466,1.355,1.824.6.484,1.388-.046,2.1-.218.4-.1.837-.653,1.192-.484,1.895.9,3.871-.239,5.8-.222a2.885,2.885,0,0,0,.526-.017c.474-.079.828.472.845,1.521.019,1.162-.4,1.947-.842,1.877-.776-.128-1.212.874-1.572,2.445a.2.2,0,0,1-.319.082,1.306,1.306,0,0,1-.123-.662c.342-1.495.074-1.448-.45-1.848-1.23-.929-2.47-.055-3.708.248-1.27.314-2.514-.758-3.817.83-.209.257-.528-.239-.8-.306a8.729,8.729,0,0,0-1.7-.268c-.1,0-.311.516-.323.784a1.752,1.752,0,0,0,.261.784c.226.449.9-.769.765.976-.147,1.915-.6,1.02-1.01.877a4.02,4.02,0,0,0-1.4-.012c-1.847.026-3.705.286-5.5-.609-.355-.178-1.182-1.026-1.273.965-.054,1.183.746.51,1.162.664,4.432,1.626,9.035.245,13.548.443a2.722,2.722,0,0,0,2.244-.708c.724-.664,1.667-.813,2.164,1.183.262,1.049.692,1.154,1.185,1.136,4.267-.157,8.526-.073,12.8-.5a14.493,14.493,0,0,1,4.447.723c1.833.385,3.733-.052,5.6-.023.795.012,1.66-.609,2.344.682a.312.312,0,0,0,.511.044c1.624-1.556,3-.017,4.445.7a2.118,2.118,0,0,0,1.047.029c1.811-.047,3.622-.084,5.434-.157a10.745,10.745,0,0,1,5.2,1.434c.162.082.367.227.506.058,1.19-1.454,2.228-.585,3.351-.143,1.171.46,2.441.038,3.667.015a5.885,5.885,0,0,1,1.4.058c.1.02.24.574.214.839s-.249.723-.359.711c-1.2-.131-2.472.824-3.586-.481-.14-.166-.362-.286-.5-.12-1.229,1.521-2.428.621-3.638.886-.424.093-.679.419-.7,1.533-.04,1.708-.362,2.754-1.109,2.9-.1.017-.3.545-.289.65.341,2.433-.419,1.865-.867,1.9s-1.269.035-1.285-.318c-.165-3.576-1.357-1.921-2.138-2.093a11.481,11.481,0,0,0-2.624.029c-.475.009-.944-.1-1.051,1.647a1.411,1.411,0,0,1-.5.921,3.446,3.446,0,0,1-1.228.1c-.517.012-.954.122-1.192-1.5-.224-1.53-.763-1.23-1.176.352a5.118,5.118,0,0,0-.1.84c-.118,1.582-.585,1.267-.965,1.233-.51-.05-.349-.743-.276-1.725.09-1.23-.557-1.81-.853-1.475-1.135,1.285-2.2.475-3.295.775-.177.05-.413-.14-.518.084-.672,1.431-1.152,1.448-1.429-.533a20.554,20.554,0,0,0-2.38.2,3.472,3.472,0,0,0-.2,1.279c.248,1.186.546,2.308.868,3.372a1.4,1.4,0,0,0,.538.816c2.174,1.133,4.449.822,6.709.673.177-.011.373-.55.565-.822.118-.166.326-.484.359-.4,1.244,3.059,2.9,2.142,4.527,1.6.215-.07.4,1.026.658,1.125,1.433.563,2.72,2.384,4.3,1.731.252-.1.743.315.734.51-.113,2.638.706,1.792,1.276,2.005,1.491.557,3.01.845,4.506,1.372,1.572.551,3.255.07,4.889.041.058,0,.144.038.172-.038.808-2.194,1.431-.831,2.074.02.674.9,1.3,1.979,2.193,1.687.2-.064.4.367.6.6.248.291.488.932.734.865,1.842-.5,3.428,1.367,5.171,1.725,1.128.233,2.307-.382,3.4.682.534.522,1.267.367,1.693-1.579.083-.382.347-.571.528-.848a5.855,5.855,0,0,1,.272,1.556c-.21,1.055-.214,1.571.271,1.748,1.381.507,2.754,1.09,4.135,1.591.655.236,1.277-.05,1.771-1.568.284-.874.577-1.131.811-.116.551,2.4,1.67,1.649,2.554,1.769.456.061.983-.23,1.224.618.548,1.926,1.378,1.743,2.227,1.661a2.219,2.219,0,0,1,1.22.041c.243.119.423.732.632,1.122-.221.455-.448,1.259-.662,1.3-.82.175-1.738.635-2.431.008-1.165-1.052-2.393-.382-3.583-.58-.269-.044-.562.227-.843.353.293.163.584.341.88.477.111.053.241-.038.347.035a.668.668,0,0,1,.221.4,1.642,1.642,0,0,1-.215.694,2.246,2.246,0,0,1-.831.6c-.811.224-1.622.361-2.432.519-.093.017-.251.017-.263-.085-.216-1.938-.982-1.428-1.432-1.017-1.571,1.425-3,.982-4.358-.262-.56-.51-1.015-.705-1.643-.105-.394.373-1.054.472-1.277-.079-.887-2.189-2.091-.729-3.127-1.067-.072-.023-.177.28-.267.431.094.12.18.3.282.344.168.067.379-.088.513.084a4.548,4.548,0,0,1,.362,1c-.142.21-.309.638-.422.595a6.423,6.423,0,0,1-1.276-.77c-.285-.2-.577-1.166-.83.137a2.556,2.556,0,0,0,.565,1.334c.819.738,1.682,1.256,2.505,1.979a7.435,7.435,0,0,1,1.141,1.518,2.392,2.392,0,0,1-.05.909c-.462.67-.942,1.253-1.418,1.857-.155.2-.427.317-.456.553-.463,3.844-1.588,1.967-2.309,1.923-1.109-.067-2.16-1.072-3.239-1.655-.432-.233-.477-.169-.359,1.031.072.737.15,1.661-.213,1.638-.618-.038-1.431,1.189-1.828-.947a.639.639,0,0,0-.917-.454,4.937,4.937,0,0,0-1.631,1.644c-.5.813-.825,1.4-1.01-.356-.027-.248-.339-.519-.429-.379-1.088,1.711-1.976-.245-2.991-.017-2.383.533-4.762.778-7.143,1.125-.335.047-.579.324-.619,1.236-.041.953-.21,1.921.39,2.259,1.3.732,2.568,1.652,3.961,1.606.4-.015,1.025-.638,1,1.253-.029,1.993-.369,2.9-1.215,3.031-.586.09-1.168.017-1.753.073-.285.026-.723-.079-.838.3-.712,2.343-1.363,1.358-2.151.933a16.281,16.281,0,0,0-3.692-1.055c-.614-.169-1.216-.464-1.833-.577a1.431,1.431,0,0,0-1.18.175,2.207,2.207,0,0,1-3.038-.035c-.428-.364-1-.86-1.354.988-.039.2-.494.364-.571.143-.917-2.637-2.117-.793-3.225-.294a3.411,3.411,0,0,0-.159.874,1.983,1.983,0,0,0,.07.361c.543,4.61.55,4.505,2.563,4.712a7.937,7.937,0,0,0,2.671-.116c2.17-.513,4.238.39,6.323.976.306.084.512-.105.778-.23a1.487,1.487,0,0,1,1.215-.026c.188.079.408.641.432,1.1a2.15,2.15,0,0,1-.453,1.163c-.335.248-.694.157-1.041.282-.147.056-.294.3-.441.463.152.125.3.326.457.356a8.7,8.7,0,0,0,.875,0c2.529.207,5.064.359,7.584.682.661.084,1.283.711,1.923,1.09-.752.484-1.548,1.46-2.242,1.291a2.973,2.973,0,0,0-1.456.262c-.1.026-.2.428-.3.656.112.291.275.889.327.822.832-1.029,1.514.242,2.279.166.186-.02.362.294.543.458-.223.128-.446.265-.669.382a7.929,7.929,0,0,0-1.7.906,3.753,3.753,0,0,1-2.588.976,47.075,47.075,0,0,0-5.434.175,10.379,10.379,0,0,0-2.584.941c-.083.032-.162.3-.243.455.095.114.186.332.285.321.484-.05.861.233,1.223,1.034a1.127,1.127,0,0,0,1.1.633c.929.061,1.868-.026,2.8-.052.292-.006.608-.157.87.023a4.524,4.524,0,0,1,1.023,1.186c.073.111-1.187,1.76-1.431,1.673-1.012-.364-2.024-.79-3.061.653a1.836,1.836,0,0,0-.348.819,1.7,1.7,0,0,0,.229.862c.229.35.485.848.741.807.664-.108,1.082.591,1.414,1.752.188.658.4.813.684.044.35-.962.648-.956,1.058-.318,1.316,2.052,2.977,1.9,4.493,2.649.594.294,1.222.09,1.824.694.461.463,1.133-.076,1.711-.213.216-.052.577-.5.628-.318.6,2.133,1.8-.335,2.489,1.276.117.277.628-.4.949-.705.158-.149.369-.728.435-.638a10.007,10.007,0,0,1,.728,1.378,3.933,3.933,0,0,1-.506,1.008c-.781.6-1.675,1.83-2.333,1.454-1.086-.621-2.162,1.023-3.185.346-.124-1.507-.331-1.874-.949-1.748-.171.032-.4.131-.5-.082-.522-1.081-1.2-.644-1.82-.644a1.615,1.615,0,0,0-1.557,1.929c.146,1.795.8,1.611,1.379,1.48,1.149-.259,2.3-.618,3.45-.935.081.446-.288,1.611.294,1.262.168-.1.475-.359.482-.306.168,1.363,1.161-.181,1.141,1.76-.529.481-1.239,1.7-1.552,1.306-1-1.273-1.806-.183-2.574,1.37-.884,1.783-1.832,1.1-2.742,1.611-.514.289-1.049-.014-1.575.131a1.244,1.244,0,0,0-.95.833c-.572,2.7-1.587,2.27-2.136,1.652-.969-1.093-2-.423-2.923-.227-1.833.391-3.679,1.148-5.522,1.685a7.654,7.654,0,0,0-3.742,2.112c-1.213,1.265-2.627.962-3.953,1.39a5.908,5.908,0,0,0-1.707.767,2.42,2.42,0,0,0-.588,1.361c-.245,3.371-1.423,3.144-2.287,3.978-.37.356-.816.146-1.219.081-.633-.1-1.026.347-1.028,2.148a2.718,2.718,0,0,1-.23,1.087,4.058,4.058,0,0,1-1.909.259,1.558,1.558,0,0,1-.914-1.288c-.186-1.573-.663-1.233-1.1-1.1a14.747,14.747,0,0,0-1.356.807,8.633,8.633,0,0,1-1.378.388c.083,1.442.867.956.982,1.614.328,1.891.982,1.434,1.584,1.416,2.013-.055,4.025.236,6.044-1.824.209-.213.464-.038.7-.087,1.561-.327,3.124-.664,4.686-1,.116-.026.264.056.346-.1,1.15-2.122,2.387-1.259,3.58-1.842,1.648-.807,3.269-.242,4.858-1.058,1.9-.976,3.713-.5,5.568-.906a3.517,3.517,0,0,0,1.689-1.069c.462-.484.972-2.442.978.533a1.466,1.466,0,0,0,.8,1.209c.6.1,1.133.251,1.491,1.454.052.178.249.323.293.23.868-1.839,1.506.347,2.286.087.225-.076.453.32.679.5a4.321,4.321,0,0,1-.557,1.111c-.418.329-1.009,1.984-1.189-.33-.009-.113-.075-.271-.117-.262-.512.085-1.043-.026-1.533.358-.863.673-1.964-.052-2.516,2.652-.3,1.445-.521,1.09-.639.189-.167-1.279-.491-1.53-1.008-1.489-1.463.117-2.922.117-4.381.155-.539.015-1.1-.117-1.131,1.938,0,.169-.345.65-.408.554-.978-1.477-1.833.117-2.725,1.311a1.872,1.872,0,0,1-1,.65,33.808,33.808,0,0,0-3.283,1.052c-.64.289-1.14,1.131-1.349,3.039-.3,2.751-.986,4.546-2.27,4.858-.543.131-1.108,1.244-1.637,2.037a3.663,3.663,0,0,0,.011,1.4c.507,1.331,1.2,1.734,1.985,1.655.854-.084,1.781-.449,2.22,1.856a.8.8,0,0,0,.389.574c.222.1.5.253.689.006,1.043-1.387,1.954.364,2.98-.3a18.193,18.193,0,0,1,3.246-1.442c.1-.041.242.087.286.268.617,2.509,1.957,1.964,2.842,3.424.612,1.014,1.416.667,2.09-.959.1-.242.364-.362.469-.219a2.279,2.279,0,0,1,.077,1.055c-.606,1.879-.218,2.159.452,2.2.178.009.327.481.49.74a9.431,9.431,0,0,1-.565,1.6c-.179.288-.452.183-.684.239-1.387.332-2.773.609-4.16,1.008-.639.184-1.281.518-1.488,2.579a1.346,1.346,0,0,1-.532.857c-.286.154-.588-.053-.873.113a1.493,1.493,0,0,0-.69.93c-.226,1.134.031,2.13.425,2.329a8.324,8.324,0,0,0,2.837.9c1.157.131,2.339-.108,3.5-.026a4.859,4.859,0,0,1,1.638.691,11.378,11.378,0,0,1,.985.621,5.855,5.855,0,0,1-1.155,1.049c-.462.219-.941,0-1.4.277a2.711,2.711,0,0,0-.849,1.428,4.2,4.2,0,0,0,.1,1.795c1.389.819,2.762,2.23,4.308-.274a.628.628,0,0,1,.958-.242,12.139,12.139,0,0,1,2.463,2.876c.448.778.868,1.029,1.4,1,.877-.047,1.752-.055,2.628-.085.807-.029,1.638-.253,2.327.8.559.851,1.2-.207,1.786-.012a.8.8,0,0,1,.393.49,4.212,4.212,0,0,1-.3,1.434c-.5.338-1.051.734-1.52.556a8.078,8.078,0,0,0-2.733-.676c-.659-.008-1.495.222-1.686,1.69a3.28,3.28,0,0,0,1.109,2.99c.248.254.55.248.793.522a1.874,1.874,0,0,1,.536,1.081,2.469,2.469,0,0,1-.713,2.253,2.165,2.165,0,0,1-1.574.125c-1.74-.452-3.448,1.154-5.167,1.955a1.325,1.325,0,0,0-.6.863c-.475,2.626-1.5,2.191-2.059,1.929-.824-.391-1.041.632-1.353,1.877a2.7,2.7,0,0,0-.008,1.1c.078.187.311.134.451-.012a3.875,3.875,0,0,0,.435-.842c.5-1.055.929-.332.925.556-.012,2.905.849,2.518,1.538,2.177s1.311.087,1.966.067c.1,0,.184.221.276.341-.121.338-.248.947-.363.967-.863.151-1.808.679-2.56.114-.628-.475-1.109-.408-1.618.443-.556.927-.968.69-1.414,0-.157-.245-.377-.271-.57-.393a17.469,17.469,0,0,0-.128,2.09,1.124,1.124,0,0,0,.45.833,1.724,1.724,0,0,0,.871.026,27.028,27.028,0,0,1,3.5-.058,6.975,6.975,0,0,1,2.495.869,2.273,2.273,0,0,1,.466,1.431c-.1.7-.429,1.7-.674,1.8a15.052,15.052,0,0,1-3.809,1.052c-1.875.213-3.738.146-5.611.277-.14.012-.306.641-.46.982.118.213.224.583.357.612.674.14,1.409-.257,1.964.869ZM518.757,629.7c.014,2.876.377,4.117,1.473,4.225a6.5,6.5,0,0,1,3.085,1.53c.628.472,1.362.921,2.114.076.107-.119.215-.228.323-.344-.081-.329-.131-.9-.247-.956a6.464,6.464,0,0,1-2.672-1.906c-.161-.2-.576.766-.8.647-.594-.311-1.7,1.545-1.655-1.795,0-.254-.34-.466-.534-.635-.357-.306-.723-.562-1.086-.842-.088-.49-.153-1.02-.268-1.463-.418-1.617-.525-1.65-1.389-.673-.509.577-1.068,1.058-1.348-.292-.244-1.177-.6-1.206-.967-.527a5.914,5.914,0,0,0-.5,2.151c-.04,1.087.274,1.74.74,1.757a10.578,10.578,0,0,1,1.742,0C517.973,630.9,518,630.93,518.757,629.7Zm160.7-30.587a8,8,0,0,0,.015,1.224c.367.187.847.638,1.122.224,1.126-1.693,2.084-.784,3.078-.167.16.1.321.329.48.277a3.1,3.1,0,0,0,.725-.562c-.21-.373-.393-.965-.635-1.072-.524-.236-1.193.4-1.4-1.451-.029-.262-.471-.455-.624-.224-.7,1.029-1.654-.061-2.2,2.209-.015.061-.366-.294-.56-.455-.069-.548.725-1.585-.05-1.693a2.186,2.186,0,0,0-2.4.807c-1.085-1.472-2.378-.391-3.561-.67-.633-.149-1.447.732-1.743-1.411-.031-.219-.306-.233-.473-.233-1.4.023-2.8,0-4.207.137-.691.064-1.358,1.011-2-.557-.322-.781-1.219-.245-1.857-.07a4.719,4.719,0,0,0-.4,1.676,3.051,3.051,0,0,0,.15,1.244c1.417-.1,2.738.833,4.115,1.055,2.11.341,4.264-.142,6.372.592,1.349.469,2.706.545,3.857,2.27.428.641.573.023.707-1.026C678.308,598.592,678.327,598.6,679.461,599.116Zm-4.791,7.049c-.408.012-.825-.151-1.223.079-.485.28-1.592-1.232-1.184,2.247a1.926,1.926,0,0,1-.38.9,9.965,9.965,0,0,1-1.506,1.2,7.371,7.371,0,0,1-4.332,1.029c-.1,0-.214.192-.322.294a2.436,2.436,0,0,0,.312.51c.1.085.23.021.347.017q5.69-.166,11.379-.335c.291-.009.635.178.866-.16.94-1.376,1.883-.912,2.756-.7a5.179,5.179,0,0,0,3.165-.175c.916-.347,1.825.437,2.764-.854.187-.256.524.216.783.411.44.332.683.79.117,1.862-.267.51-.239.994.108,1.014a10.507,10.507,0,0,1,3.279.289c.436.172.727.443,1.066-.472.3-.807.476-.44.69.082.146.359.346.717.551.775,1.12.323,2.246.571,3.373.807a9.156,9.156,0,0,1,2,.6c1.477.676,3.12-.265,4.581.935a.132.132,0,0,0,.173-.009c.888-.743,1.965-.956,2.619-2.375.909-1.973,1.661-1.1,2.428-.982,1.171.186,2.289,1.055,3.457,1.338a6.987,6.987,0,0,0,2.8-.1c.186-.029.451-.758.56-1.285a2.045,2.045,0,0,0-.294-1.139c-.521-.4-1.078-1.032-1.614-.839-2.5.9-4.793-2.323-7.361.026-.09.084-.212-.087-.314-.172-1.2-.979-2.436-.74-3.723.341-.434.364-.872.891-1.361-.251-.331-.772-1.184-.23-1.807-.2a3.272,3.272,0,0,0-.127,1.023c.076.274.306.236.428.461.226.419.421.935.63,1.41a2.991,2.991,0,0,1-1.022.189c-.144-.021-.277-.431-.38-.737-.759-2.264-2.3-1.886-2.908-4.774-.093-.44-.637-.28-.98-.277-1.34.009-2.686.117-4.025.088a8.245,8.245,0,0,1-2.528-.519c-.928-.324-2.119-1.67-3.056,1.372a9.443,9.443,0,0,1-2.752-.047c-.266-.076-.317-1.612-.852-1.4-.748.288-1.5.446-2.248.661-.424-1.97-1.081-1.678-1.84-.67-.081.108-.355-.248-.375-.51-.084-1.14-.44-1.043-.788-1.035C675.954,606.125,675.312,606.148,674.67,606.165ZM428.785,432.427c.458-3.22-.609-5.327-1.028-8.072a2.93,2.93,0,0,0-.137-.682,3.988,3.988,0,0,0-1.515,1.008,4.866,4.866,0,0,0-.541,2.1c-.066,2.168-.917,4.328-.349,6.516a3.275,3.275,0,0,1-.164,1.189,29.817,29.817,0,0,0-.907,6.554c-.21,2.267-.012,4.637-.591,6.808.617,3.229-.43,7.093.144,10.4a8.006,8.006,0,0,1-.215,2.891,3.692,3.692,0,0,0,.259,3.168.527.527,0,0,0,.582.355,3.625,3.625,0,0,0,.21-1.116c.122-2.3.221-4.6.327-6.907.214-4.61.327-5.228,1.767-10.325a8.518,8.518,0,0,0,.182-1.652c.08-1.437.184-2.891.191-4.313.008-1.489.3-2.839.795-3.264C428.784,436.238,428.662,434.493,428.785,432.427ZM747.757,621.31v.009c-1.225.038-2.451.079-3.676.108-.5.012-.566.845-.61,1.76-.047.95,0,1.626.477,1.687,1.6.2,3.186.486,4.78.708.907.128,1.837-.294,2.7.662.407.452,1.054.247,1.539-.184.537-.478,1.1-1.116,1.483-.277.582,1.27,1.078-.982,1.651-.364,1.587,1.714,3.424.312,5.126.664.757.157,1.011-1.332,1.293-2.646a1.5,1.5,0,0,0-.132-.775,11.157,11.157,0,0,0-2.849-.8c-2.881-.134-5.8.489-8.635-.58C749.9,620.9,748.807,621.278,747.757,621.31Zm-15.05-3.887c1.052-.029,2.1-.026,3.155-.114a.86.86,0,0,0,.81-.548,22.205,22.205,0,0,0,.923-3.445c.146-.8-.144-1.387-.477-1.148-.5.361-1,1.349-1.472,1.361s-.882-1.1-1.365-1.259-1.029.323-1.544.388c-.178.023-.343-.361-.513-.562.124-.432.23-1.145.375-1.241a5.24,5.24,0,0,1,1.209-.385,1.523,1.523,0,0,0,.83-.577,6.579,6.579,0,0,0,.357-1.425c-.186-.093-.383-.364-.558-.251-.661.425-1.45,1.743-1.468-1.288,0-.265-.211-.638-.345-.653a2.624,2.624,0,0,0-1.744.111c-.351.212-.657,1.288-.983,1.976.231.49.46.991.7,1.466a4.4,4.4,0,0,1,.4.7,4.145,4.145,0,0,1,.345,1.489c-.125.728-.425,1.76-.675,1.874-.635.3-1.3-.1-1.923.265-.644.379-1.319-2.279-1.91.7-.141-.143-.365-.178-.412-.443-.537-3.048-1.876,1.052-2.558-.953-.062-.177-.6.636-.911,1.035a1.35,1.35,0,0,0-.259.62,1.8,1.8,0,0,0,.107.81c2.367.554,4.732,1.122,7.109,1.545A14.319,14.319,0,0,0,732.706,617.423Zm-75.146-3.855a6.521,6.521,0,0,0,1.312-.061,6.226,6.226,0,0,0,1.245-.554c-.39-.1-.781-.2-1.167-.318a.5.5,0,0,1-.309-.262c-.879-1.8-2.024-1.329-3.115-1.332a15.166,15.166,0,0,1-1.747-.021c-.128-.014-.31-.385-.319-.667a2.451,2.451,0,0,1,.224-1.076,2.476,2.476,0,0,1,1.16-.775c1.054-.14,2.12.271,3.152-.288.759-.414,1.567-1.192,2.215-.627.746.656,1.475-.784,2.161-.152.17.155.374.14.562.2a12.914,12.914,0,0,0-.226-1.457c-.344-1.195-.757-1.929-1.461-.854-.152.233-.409-.03-.62-.038-1.672-.067-3.345-.128-5.017-.192-1.474,2.18-3.075,1.454-4.6,2.538-.585.417-1.15.274-1.481,1.984-.056.286-.427.6-.55.461-.507-.589-1.164-1.5-1.438.4-.232,1.611.729,1.62,1.133,2.413.106.21.338.046.513.058C651.887,613.148,654.591,613.349,657.56,613.568Zm203.581-59.595c.067-1.416.16-2.427-.461-2.483-.467-.041-.793-1.043-1.419-.332-.317.355-1.173.522-1.069-1.7.071-1.53-.39-1.515-.808-1.081-.66.688-1.262,1.573-2.012,1.646a36.842,36.842,0,0,0-4.506.971c-.058.011-.134-.021-.172.058a1.943,1.943,0,0,0-.225.624,1.8,1.8,0,0,0,.054.737,5.116,5.116,0,0,0,2.589,2.416c1.626.635,3.266.883,4.878-1.754.167-.271.579-.405.592-.306.361,2.78,1.611.486,2.23,1.751C860.845,554.585,861.085,554.07,861.141,553.973Zm-102.62-285.26a21.726,21.726,0,0,0,2.611-.113,1.643,1.643,0,0,0,.969-.822c.556-.889,1.075-1.944,1.6-2.967a2.014,2.014,0,0,0,.115-.749c-.01-.225-.095-.539-.174-.568-.222-.087-.491-.256-.684-.026-1.041,1.25-2.062.655-3.092.918a18.475,18.475,0,0,0-2.392.982c-.277,2.1-1.617,1.282-1.6,2.8.017,1.314,1.041.361,1.607.554A3.117,3.117,0,0,0,758.521,268.713ZM725,604.773l0-.259a9.558,9.558,0,0,0-2.054.752c-.238.142-.439,1-.657,1.524.194.359.36.921.586,1.043,1.076.574,2.114,1.524,3.295,1.157a3.2,3.2,0,0,0,1.182-2.564,2.478,2.478,0,0,0-.806-1.626C726.073,604.536,725.525,604.758,725,604.773ZM534.8,630.1c-.7-.685-.352-2.652-1.15-2.6-.44.026-.852-.545-1.293-.595-.711-.081-1.086-.991-1.292-2.486-.57,1.542-1.258,1.527-1.965,1.571-.223.015-.466.539-.7.83a6.428,6.428,0,0,0,.559,1.2c.235.288.523.521.792.463,1.015-.219,1.893.466,2.756,1.381a5.227,5.227,0,0,0,1.407,1.066C534.071,631.012,534.292,630.6,534.8,630.1ZM904.266,485.563a18.715,18.715,0,0,0,2.145-1.119,2.9,2.9,0,0,0,.323-1.332,1.739,1.739,0,0,0-.35-1.04c-.2-.187-.456-.017-.684-.07-1.835-.411-3.654,1.067-5.477,1.947-.165.082-.315.627-.474.953.168.239.323.647.506.673a.963.963,0,0,0,1.022-.274c.772-1.011,1.466-2.02,2.1.006C903.492,485.692,903.911,485.482,904.266,485.563ZM477.5,598.067c.543-1.168,1.261-.1,2.017.006.608.085,1.141-.475,1.684-1.1a1.462,1.462,0,0,0,.168-.676c-.042-.323-.137-.737-.254-.807-.733-.425-1.74,1.784-2.28-.746-.017-.079-.426.28-.6.609-.416.778-.693,1.635-1.035-.12-.211-1.078-.88-.874-1.371.1a4.4,4.4,0,0,0-.28,1.017,9.562,9.562,0,0,0,.992,1.708C476.712,598.274,476.988,598.082,477.5,598.067Zm287.385,24.476v-.006a2.533,2.533,0,0,0-.694.032c-.336.1-.825,0-.979.478-.364,1.122.279,1.53.348,2.393.112,1.4.514,1.489,1,1.425.522-.067,1.04,0,1.562-.082.16-.026.33-.364.494-.562-.155-.1-.308-.222-.465-.312-.355-.2-.448-.659-.167-1.46.173-.5.357-.968.537-1.448a3.34,3.34,0,0,0-.774-.466A2.986,2.986,0,0,0,764.881,622.543Zm102.544-70.712c-.061-.151-.113-.437-.185-.449a4.625,4.625,0,0,0-1.044-.009c-.666.064-1.4-.478-1.786,1.909-.1.6-.366.726-.439-.169a2.787,2.787,0,0,0-.234-1.023c-.158-.248-.382-.268-.577-.388a7.8,7.8,0,0,0-.192,1.577,3.32,3.32,0,0,0,.487,1.507c1.1,1.189,2.984-.1,3.867-2.544C867.36,552.131,867.385,551.989,867.425,551.831ZM717.911,613.565c.224.6.366,1.425.572,1.463a10.261,10.261,0,0,0,2.589.047c.114-.006.3-.463.363-.79.19-1.055.357-2.139.481-3.234a2.176,2.176,0,0,0-.17-.953c-.771.4-.663-1.522-1.022-2.177-.122-.222-.295-.283-.445-.417a5.045,5.045,0,0,0-.04,1c.233,1.043.481,2.072.765,3.025.267.895-.071,1.521-.282,1.579a4.037,4.037,0,0,1-1.659-.073c-.22-.032-.424-.309-.643-.286C718.3,612.763,718.158,613.154,717.911,613.565ZM437.584,334.048c.021.027-.26-.446-.3-.341a15.425,15.425,0,0,0-1.043,2.987c-.35,1.789-.545,3.724-.786,5.607a.767.767,0,0,0,.213.49c.528.324,1.446-.915,1.534-2.139C437.347,338.591,437.442,336.525,437.584,334.048ZM739.541,617.213V617.2a4.513,4.513,0,0,0,1.027-.064,1.447,1.447,0,0,0,.227-.714c-.279-1.818-1.154-2.876-2-2.629-.5.146-.532.933-.575,1.8-.046.924-.01,1.682.465,1.644C738.97,617.219,739.255,617.222,739.541,617.213Z" transform="translate(-408.629 -255.643)" fill="#273d81"/>
</svg>
