<svg xmlns="http://www.w3.org/2000/svg" width="67.795" height="67.794" viewBox="0 0 67.795 67.794">
  <g id="play-button" transform="translate(0 -0.002)" opacity="0.601">
    <g id="_x33_56._Play" transform="translate(0 0.002)">
      <g id="Group_603" data-name="Group 603">
        <path id="Path_10559" data-name="Path 10559" d="M63.247,16.953a33.891,33.891,0,1,0-12.406,46.3A33.889,33.889,0,0,0,63.247,16.953ZM47.453,57.377a27.112,27.112,0,1,1,9.924-37.035A27.11,27.11,0,0,1,47.453,57.377ZM46.1,32.521,28.351,22.171c-1.617-.944-2.922-.189-2.913,1.681L25.53,44.4c.008,1.87,1.329,2.632,2.951,1.695L46.091,35.923C47.711,34.988,47.715,33.465,46.1,32.521Z" transform="translate(0 -0.002)" fill="#fff"/>
      </g>
    </g>
  </g>
</svg>
