<svg xmlns="http://www.w3.org/2000/svg" xmlns:xlink="http://www.w3.org/1999/xlink" width="565.8" height="265.703" viewBox="0 0 565.8 265.703">
  <defs>
    <linearGradient id="linear-gradient" x1="-27.471" y1="-14.158" x2="-26.727" y2="-13.45" gradientUnits="objectBoundingBox">
      <stop offset="0" stop-color="#eb6989"/>
      <stop offset="1" stop-color="#ac398d"/>
    </linearGradient>
    <linearGradient id="linear-gradient-2" x1="5.04" y1="-3.085" x2="6.016" y2="-3.085" gradientUnits="objectBoundingBox">
      <stop offset="0" stop-color="#672985"/>
      <stop offset="0.223" stop-color="#6a2983"/>
      <stop offset="0.395" stop-color="#732a7e"/>
      <stop offset="0.549" stop-color="#842d76"/>
      <stop offset="0.693" stop-color="#9b306b"/>
      <stop offset="0.83" stop-color="#b9355c"/>
      <stop offset="0.96" stop-color="#dd3b4a"/>
      <stop offset="1" stop-color="#ea3d44"/>
    </linearGradient>
    <linearGradient id="linear-gradient-3" x1="-30.221" y1="-16.383" x2="-29.317" y2="-15.758" xlink:href="#linear-gradient"/>
  </defs>
  <g id="Group_944" data-name="Group 944" transform="translate(46.923 -2922.449)">
    <path id="Path_13732" data-name="Path 13732" d="M3159.364,60.693c-31.41,33.385-35.533,31.2-67.262,39.8C3030.392,117.226,2938.3-9.278,3027.68-33.3c76.3-20.507,66.928-54.864,118.523-65.535C3174.7-104.73,3281.022-68.614,3159.364,60.693Z" transform="translate(-3037.436 3033.018)" opacity="0.43" fill="url(#linear-gradient)"/>
    <path id="BG1" d="M3038.633,16.289c0-72.1,160.094-122.512,249.833-137.575,100.241-16.826,245.525,33.845,245.525,105.943s-136.4,169.207-245.525,155.149C3187.084,126.744,3038.633,88.388,3038.633,16.289Z" transform="translate(-3015.114 3046.977)" fill="#464495"/>
    <path id="Path_13730" data-name="Path 13730" d="M2970.8,101.6l69.713,49.46c.838-.118,1.684-.23,2.528-.34l-71.164-50.488Q2971.341,100.909,2970.8,101.6Zm3.257-4.067,74.118,52.585c.88-.091,1.766-.173,2.654-.251L2975.169,96.18C2974.8,96.626,2974.43,97.077,2974.061,97.528Zm28-50.3,162.63,115.382c1,0,2,0,2.989-.013L3002.52,45.42C3002.367,46.021,3002.214,46.621,3002.059,47.227ZM2977.4,93.518l78.883,55.965c.942-.048,1.888-.091,2.839-.119L2978.53,92.185C2978.155,92.626,2977.778,93.072,2977.4,93.518Zm6.772-7.952,90.737,64.375c1.212.13,2.433.288,3.66.463L2985.3,84.228C2984.925,84.671,2984.556,85.112,2984.174,85.566Zm14.98-27.642,146.53,103.959c1.119.084,2.234.166,3.339.236L2999.671,56.157C2999.5,56.745,2999.333,57.334,2999.154,57.924Zm-5.967,14.9,119.369,84.689c1.354.249,2.725.521,4.066.751L2994,71.269C2993.742,71.792,2993.462,72.308,2993.187,72.825Zm7.474-20.211,154.792,109.821c1.06.04,2.137.1,3.182.124l-157.5-111.742C3000.978,51.415,3000.822,52.013,3000.661,52.614Zm-5.184,15.458,128.844,91.411c1.258.186,2.5.355,3.745.524L2996.173,66.432C2995.949,66.981,2995.715,67.527,2995.478,68.073Zm1.971-4.98,137.893,97.831c1.181.132,2.338.237,3.506.353l-140.806-99.9C2997.848,61.951,2997.654,62.523,2997.449,63.093Zm-16.663,26.448,84.281,59.795c1.041.019,2.084.044,3.135.091l-86.281-61.214ZM2956.622,129.8l38.147,27.065c1,.019,2,.015,3,0l-40.91-29.024C2956.753,128.5,2956.676,129.153,2956.622,129.8Zm.578,6.789,27.058,19.2c1.287.25,2.58.462,3.882.621l-31.424-22.295A18.121,18.121,0,0,0,2957.2,136.592Zm15.982,15.7c.131.059.263.1.394.163l-12.9-9.154C2963.331,146.613,2967.38,149.647,2973.182,152.293ZM2987.5,81.545l99.167,70.356c.707.161,1.41.3,2.122.48.789.2,1.56.364,2.344.555L2988.55,80.159C2988.2,80.623,2987.863,81.088,2987.5,81.545ZM3032.818,9.51c-.768.151-1.54.322-2.311.494l196.177,139.182c.548-.323,1.081-.656,1.611-.991Zm-73.2,109.662,51.56,36.58c.832-.111,1.669-.231,2.508-.353l-53.32-37.829C2960.1,118.1,2959.859,118.639,2959.619,119.172Zm5.1-9.137,61.146,43.382,2.422-.415-62.606-44.417C2965.353,109.067,2965.035,109.551,2964.719,110.035ZM2962,114.486l56.6,40.156c.808-.132,1.623-.269,2.437-.405l-58.166-41.267C2962.571,113.475,2962.288,113.981,2962,114.486Zm-4.277,9.723,45.635,32.376q1.333-.1,2.676-.234l-47.753-33.88C2958.076,123.052,2957.9,123.631,2957.725,124.209Zm9.946-18.459,65.456,46.439q1.22-.2,2.453-.393l-66.874-47.445C2968.36,104.817,2968.01,105.282,2967.671,105.75Zm22.868-28.425L3100.017,155c1.436.315,2.858.609,4.28.9L2991.467,75.85C2991.165,76.345,2990.857,76.837,2990.539,77.325ZM3249.3,118.452l-133.476-94.7q-3.224-1.237-6.5-2.481l139.646,99.076C3249.106,119.728,3249.194,119.085,3249.3,118.452Zm.5-12.4L3149.464,34.862q-2.512-.687-4.932-1.366l105.378,74.763C3249.878,107.524,3249.865,106.8,3249.8,106.048Zm.12,6.462L3134.27,30.46c-1.994-.632-3.9-1.269-5.713-1.919l121.262,86.032C3249.877,113.9,3249.893,113.2,3249.921,112.511ZM3003.447,41.833l169.972,120.591c.94-.042,1.86-.1,2.787-.156L3003.93,40.043C3003.768,40.638,3003.605,41.231,3003.447,41.833Zm242.625,87.082L3081.284,12c-1.512-.392-3.035-.756-4.562-1.1l168.53,119.568C3245.524,129.949,3245.822,129.445,3246.071,128.915Zm-2.551,4.57L3068.439,9.269c-1.257-.205-2.52-.387-3.786-.553l177.892,126.21C3242.878,134.45,3243.209,133.972,3243.52,133.484ZM3213.24,56.727l20.528,14.564A86.845,86.845,0,0,0,3213.24,56.727Zm35.515,42.2-84.687-60.083q-2.473-.684-4.9-1.343l90.035,63.877C3249.068,100.566,3248.922,99.751,3248.754,98.925ZM3241.887,81.3l-45.075-31.98q-3.114-1.21-6.286-2.326l53.42,37.9Q3242.99,83.049,3241.887,81.3Zm4.751,9.749-67.32-47.761q-2.626-.814-5.247-1.589L3247.516,93.8C3247.248,92.869,3246.958,91.949,3246.638,91.047Zm1.375,32.868-150.958-107.1q-2.8-.963-5.639-1.867l155.99,110.671C3247.613,125.052,3247.831,124.493,3248.013,123.915ZM3008.78,26.482,3196.691,159.8c.789-.151,1.566-.31,2.34-.473L3009.586,24.92C3009.3,25.429,3009.042,25.955,3008.78,26.482Zm2.643-4.5,192.126,136.308c.741-.185,1.484-.369,2.209-.566L3012.449,20.574C3012.093,21.031,3011.753,21.5,3011.422,21.979Zm3.331-4.016,195.224,138.506c.693-.22,1.4-.427,2.079-.658l-196-139.055C3015.61,17.147,3015.17,17.546,3014.753,17.962Zm-9.815,18.551,176.719,125.377c.886-.079,1.735-.192,2.607-.284L3005.487,34.769C3005.3,35.347,3005.115,35.925,3004.938,36.513Zm1.731-5.151L3189.4,161c.838-.115,1.65-.251,2.473-.379L3007.322,29.692C3007.1,30.241,3006.88,30.8,3006.669,31.362Zm17.49-19.484,197.39,140.042c.6-.288,1.2-.568,1.784-.868l-197.2-139.907C3025.446,11.369,3024.8,11.623,3024.158,11.878Zm212.708,129.642L3048.411,7.816c-.949.023-1.9.056-2.855.107L3235.594,142.75C3236.04,142.353,3236.44,141.928,3236.866,141.519ZM3018.928,14.547l197.048,139.8c.645-.254,1.32-.486,1.949-.751L3020.568,13.576C3020.008,13.89,3019.45,14.2,3018.928,14.547ZM3232.81,145.021,3040.209,8.376c-.847.1-1.7.206-2.548.326l193.717,137.437C3231.877,145.779,3232.331,145.393,3232.81,145.021Zm7.634-7.342L3057.7,8.024q-1.616-.109-3.245-.169l184.867,131.158C3239.708,138.577,3240.073,138.127,3240.444,137.679Z" transform="translate(-2749.622 2926.21)" fill="url(#linear-gradient-2)"/>
    <path id="Path_13731" data-name="Path 13731" d="M3770.188,22.173c-6.283,27.638-9.166,27.764-23.384,42.293-27.653,28.256-116.385-10.323-76.265-51.136,34.249-34.84,18.486-50.218,42.646-72.073C3726.531-70.815,3794.523-84.877,3770.188,22.173Z" transform="translate(-3350.582 3101.135)" opacity="0.43" fill="url(#linear-gradient-3)"/>
    <g id="Group_812" data-name="Group 812" transform="translate(-1)">
      <g id="Group_811" data-name="Group 811" transform="translate(-5813 100)">
        <g id="Group_810" data-name="Group 810">
          <g id="Group_809" data-name="Group 809">
            <path id="Path_13697" data-name="Path 13697" d="M1803.082,380.851v5.8h-4.94v19.5h-5.922v-19.5h-4.906v-5.8Z" transform="translate(4050.686 2472.877)" fill="#fff"/>
            <path id="Path_13698" data-name="Path 13698" d="M1863.693,400.069q-.456.069-.911.1t-.946.068v6.35h-5.922V381.5h5.922a11.764,11.764,0,0,1,4.135.788,11.448,11.448,0,0,1,3.381,2.023,9.347,9.347,0,0,1,2.278,2.948,8.067,8.067,0,0,1,.823,3.6,8.2,8.2,0,0,1-.876,3.753,9.092,9.092,0,0,1-2.453,3l5.677,8.98h-6.973Zm-1.857-5.664a6.268,6.268,0,0,0,1.8-.326,5.446,5.446,0,0,0,1.507-.772,3.7,3.7,0,0,0,1.016-1.116,2.659,2.659,0,0,0,.368-1.356,2.571,2.571,0,0,0-.368-1.339,3.8,3.8,0,0,0-1.016-1.1,5.481,5.481,0,0,0-1.507-.772,6.312,6.312,0,0,0-1.8-.326Z" transform="translate(4003.881 2472.434)" fill="#fff"/>
            <path id="Path_13699" data-name="Path 13699" d="M1940.472,406.3h-5.922V381.068h5.922Z" transform="translate(3950.228 2472.729)" fill="#fff"/>
            <path id="Path_13700" data-name="Path 13700" d="M1982.592,406.188a13.409,13.409,0,0,1-4.853-.91,12.4,12.4,0,0,1-4.258-2.763,12.779,12.779,0,0,1-2.785-4.1,12.635,12.635,0,0,1,0-9.679,12.4,12.4,0,0,1,2.785-4.067,12.578,12.578,0,0,1,4.275-2.78,13.276,13.276,0,0,1,4.853-.927,13.138,13.138,0,0,1,4.835.927,12.626,12.626,0,0,1,4.258,2.78l-4.17,4.085a6.727,6.727,0,0,0-2.313-1.493,7.291,7.291,0,0,0-2.628-.5,7.152,7.152,0,0,0-2.611.5,6.757,6.757,0,0,0-2.295,1.493,7.141,7.141,0,0,0-1.507,2.231,6.6,6.6,0,0,0-.526,2.609,6.477,6.477,0,0,0,.526,2.592,7.193,7.193,0,0,0,1.507,2.214,6.741,6.741,0,0,0,2.295,1.493,7.138,7.138,0,0,0,2.611.5,7.277,7.277,0,0,0,2.628-.5,6.712,6.712,0,0,0,2.313-1.493l4.17,4.119a12.446,12.446,0,0,1-4.24,2.763A13.364,13.364,0,0,1,1982.592,406.188Z" transform="translate(3926.224 2472.802)" fill="#fff"/>
            <path id="Path_13701" data-name="Path 13701" d="M2078.168,381.068l-13.21,12.631,13.21,12.6h-8.55l-8.27-7.928V406.3h-5.922V381.068h5.922v7.963l8.3-7.963Z" transform="translate(3867.755 2472.729)" fill="#fff"/>
            <path id="Path_13702" data-name="Path 13702" d="M2144.552,405.693a9.327,9.327,0,0,1-2.435-.326,8.324,8.324,0,0,1-2.3-1.013,8.479,8.479,0,0,1-3.995-7.277h5.922a2.481,2.481,0,0,0,.456,1.6,3.265,3.265,0,0,0,.806.772,2.686,2.686,0,0,0,1.366.446,3.158,3.158,0,0,0,1.437-.275,2.343,2.343,0,0,0,.788-.515,2.839,2.839,0,0,0,.456-.6,1.626,1.626,0,0,0,.192-.566,2.811,2.811,0,0,0,0-.892,1.8,1.8,0,0,0-.192-.584,2.365,2.365,0,0,0-.456-.6,3.04,3.04,0,0,0-.788-.532,7.856,7.856,0,0,0-.823-.309q-.438-.137-.928-.309-.877-.275-1.822-.618a10.245,10.245,0,0,1-1.892-.927,7.332,7.332,0,0,1-2.068-1.888,7.374,7.374,0,0,1-1.454-5.131,7,7,0,0,1,.788-2.661,7.564,7.564,0,0,1,3.679-3.381,7.757,7.757,0,0,1,2.488-.6,8.371,8.371,0,0,1,2.7.241,7.955,7.955,0,0,1,2.408.978,7.625,7.625,0,0,1,1.864,1.613,6.974,6.974,0,0,1,1.2,2.111,7.179,7.179,0,0,1,.418,2.437h-5.892a1.179,1.179,0,0,0-.508-1.1,3.552,3.552,0,0,0-.894-.412,2.4,2.4,0,0,1-.333-.051,1.731,1.731,0,0,0-.6,0,2.133,2.133,0,0,0-.683.24,1.354,1.354,0,0,0-.561.6,1.509,1.509,0,0,0-.1,1.15,1.642,1.642,0,0,0,.7.944,7.788,7.788,0,0,0,1.087.5q.595.224,1.261.429.595.172,1.208.377t1.239.481a8.222,8.222,0,0,1,3.605,3.02,8.1,8.1,0,0,1,0,8.822,8.224,8.224,0,0,1-3.605,3.02,8.486,8.486,0,0,1-1.852.6A9.646,9.646,0,0,1,2144.552,405.693Z" transform="translate(3812.899 2473.812)" fill="#fff"/>
            <path id="Path_13703" data-name="Path 13703" d="M2222.07,380.851v5.8h-4.941v19.5h-5.922v-19.5H2206.3v-5.8Z" transform="translate(3764.815 2472.877)" fill="#fff"/>
            <path id="Path_13704" data-name="Path 13704" d="M2290.192,386.976h-10.582v3.81h8.584v5.8h-8.584v3.981h10.582v5.8h-16.5V381.21l16.5-.035Z" transform="translate(3718.837 2472.656)" fill="#fff"/>
            <path id="Path_13705" data-name="Path 13705" d="M2354.036,400.069q-.456.069-.911.1t-.946.068v6.35h-5.921V381.5h5.921a11.769,11.769,0,0,1,4.135.788,11.452,11.452,0,0,1,3.381,2.023,9.344,9.344,0,0,1,2.277,2.948,8.071,8.071,0,0,1,.823,3.6,8.2,8.2,0,0,1-.875,3.753,9.083,9.083,0,0,1-2.453,3l5.677,8.98h-6.974Zm-1.857-5.664a6.26,6.26,0,0,0,1.8-.326,5.438,5.438,0,0,0,1.507-.772,3.686,3.686,0,0,0,1.016-1.116,2.661,2.661,0,0,0,.368-1.356,2.574,2.574,0,0,0-.368-1.339,3.789,3.789,0,0,0-1.016-1.1,5.473,5.473,0,0,0-1.507-.772,6.3,6.3,0,0,0-1.8-.326Z" transform="translate(3669.324 2472.434)" fill="#fff"/>
            <path id="Path_13713" data-name="Path 13713" d="M1807.082,375.851v5.8h-4.94v19.5h-5.922v-19.5h-4.906v-5.8Z" transform="translate(4047.957 2476.289)" fill="#66bc99"/>
            <path id="Path_13714" data-name="Path 13714" d="M1867.693,395.069q-.456.069-.911.1t-.946.068v6.35h-5.922V376.5h5.922a11.764,11.764,0,0,1,4.135.788,11.449,11.449,0,0,1,3.381,2.023,9.346,9.346,0,0,1,2.278,2.948,8.068,8.068,0,0,1,.823,3.6,8.2,8.2,0,0,1-.876,3.753,9.093,9.093,0,0,1-2.453,3l5.677,8.98h-6.973Zm-1.857-5.664a6.269,6.269,0,0,0,1.8-.326,5.446,5.446,0,0,0,1.507-.772,3.7,3.7,0,0,0,1.016-1.116,2.658,2.658,0,0,0,.368-1.356,2.571,2.571,0,0,0-.368-1.339,3.8,3.8,0,0,0-1.016-1.1,5.481,5.481,0,0,0-1.507-.772,6.31,6.31,0,0,0-1.8-.326Z" transform="translate(4001.152 2475.846)" fill="#66bc99"/>
            <path id="Path_13715" data-name="Path 13715" d="M1944.472,401.3h-5.922V376.068h5.922Z" transform="translate(3947.5 2476.141)" fill="#66bc99"/>
            <path id="Path_13716" data-name="Path 13716" d="M1986.592,401.188a13.409,13.409,0,0,1-4.853-.91,12.4,12.4,0,0,1-4.258-2.763,12.779,12.779,0,0,1-2.785-4.1,12.635,12.635,0,0,1,0-9.679,12.4,12.4,0,0,1,2.785-4.067,12.578,12.578,0,0,1,4.275-2.78,13.275,13.275,0,0,1,4.853-.927,13.138,13.138,0,0,1,4.835.927,12.626,12.626,0,0,1,4.258,2.78l-4.17,4.085a6.726,6.726,0,0,0-2.313-1.493,7.291,7.291,0,0,0-2.628-.5,7.152,7.152,0,0,0-2.611.5,6.756,6.756,0,0,0-2.295,1.493,7.141,7.141,0,0,0-1.507,2.231,6.6,6.6,0,0,0-.526,2.609,6.477,6.477,0,0,0,.526,2.592,7.192,7.192,0,0,0,1.507,2.214,6.741,6.741,0,0,0,2.295,1.493,7.138,7.138,0,0,0,2.611.5,7.277,7.277,0,0,0,2.628-.5,6.712,6.712,0,0,0,2.313-1.493l4.17,4.119a12.445,12.445,0,0,1-4.24,2.763A13.364,13.364,0,0,1,1986.592,401.188Z" transform="translate(3923.495 2476.214)" fill="#66bc99"/>
            <path id="Path_13717" data-name="Path 13717" d="M2082.168,376.068l-13.21,12.631,13.21,12.6h-8.55l-8.27-7.928V401.3h-5.922V376.068h5.922v7.963l8.3-7.963Z" transform="translate(3865.026 2476.141)" fill="#66bc99"/>
            <path id="Path_13718" data-name="Path 13718" d="M2148.552,400.693a9.327,9.327,0,0,1-2.435-.326,8.324,8.324,0,0,1-2.3-1.013,8.479,8.479,0,0,1-3.995-7.277h5.922a2.481,2.481,0,0,0,.456,1.6,3.266,3.266,0,0,0,.806.772,2.685,2.685,0,0,0,1.366.446,3.157,3.157,0,0,0,1.437-.275,2.343,2.343,0,0,0,.788-.515,2.84,2.84,0,0,0,.456-.6,1.626,1.626,0,0,0,.192-.566,2.811,2.811,0,0,0,0-.892,1.8,1.8,0,0,0-.192-.584,2.366,2.366,0,0,0-.456-.6,3.04,3.04,0,0,0-.788-.532,7.863,7.863,0,0,0-.823-.309q-.438-.137-.928-.309-.877-.274-1.822-.618a10.255,10.255,0,0,1-1.892-.927,7.335,7.335,0,0,1-2.068-1.888,7.374,7.374,0,0,1-1.454-5.131,7,7,0,0,1,.788-2.66,7.564,7.564,0,0,1,3.679-3.381,7.76,7.76,0,0,1,2.488-.6,8.37,8.37,0,0,1,2.7.241,7.956,7.956,0,0,1,2.408.978,7.627,7.627,0,0,1,1.864,1.613,6.968,6.968,0,0,1,1.2,2.111,7.173,7.173,0,0,1,.419,2.437h-5.892a1.179,1.179,0,0,0-.508-1.1,3.553,3.553,0,0,0-.894-.412,2.4,2.4,0,0,1-.333-.051,1.73,1.73,0,0,0-.6,0,2.134,2.134,0,0,0-.683.24,1.356,1.356,0,0,0-.561.6,1.509,1.509,0,0,0-.1,1.15,1.642,1.642,0,0,0,.7.944,7.8,7.8,0,0,0,1.087.5q.595.224,1.261.429.595.172,1.208.377t1.239.481a8.222,8.222,0,0,1,3.605,3.02,8.1,8.1,0,0,1,0,8.822,8.225,8.225,0,0,1-3.605,3.02,8.487,8.487,0,0,1-1.852.6A9.646,9.646,0,0,1,2148.552,400.693Z" transform="translate(3810.17 2477.224)" fill="#66bc99"/>
            <path id="Path_13719" data-name="Path 13719" d="M2226.07,375.851v5.8h-4.941v19.5h-5.922v-19.5H2210.3v-5.8Z" transform="translate(3762.086 2476.289)" fill="#66bc99"/>
            <path id="Path_13720" data-name="Path 13720" d="M2294.192,381.976h-10.582v3.81h8.584v5.8h-8.584v3.981h10.582v5.8h-16.5V376.21l16.5-.035Z" transform="translate(3716.108 2476.067)" fill="#66bc99"/>
            <path id="Path_13721" data-name="Path 13721" d="M2358.036,395.069q-.456.069-.911.1t-.946.068v6.35h-5.921V376.5h5.921a11.769,11.769,0,0,1,4.135.788,11.453,11.453,0,0,1,3.381,2.023,9.343,9.343,0,0,1,2.277,2.948,8.071,8.071,0,0,1,.823,3.6,8.2,8.2,0,0,1-.875,3.753,9.084,9.084,0,0,1-2.453,3l5.677,8.98h-6.974Zm-1.857-5.664a6.26,6.26,0,0,0,1.8-.326,5.438,5.438,0,0,0,1.507-.772,3.687,3.687,0,0,0,1.016-1.116,2.661,2.661,0,0,0,.368-1.356,2.574,2.574,0,0,0-.368-1.339,3.788,3.788,0,0,0-1.016-1.1,5.472,5.472,0,0,0-1.507-.772,6.3,6.3,0,0,0-1.8-.326Z" transform="translate(3666.595 2475.846)" fill="#66bc99"/>
          </g>
        </g>
      </g>
      <g id="Group_808" data-name="Group 808" transform="translate(-6024 133)">
        <g id="Group_807" data-name="Group 807">
          <g id="Group_806" data-name="Group 806">
            <path id="Path_13706" data-name="Path 13706" d="M2467.242,380.851v5.8H2462.3v19.5h-5.922v-19.5h-4.905v-5.8Z" transform="translate(3597.536 2472.877)" fill="#66bc99"/>
            <path id="Path_13707" data-name="Path 13707" d="M2525.993,406.3h-5.922V381.068h5.922Z" transform="translate(3550.733 2472.729)" fill="#66bc99"/>
            <path id="Path_13708" data-name="Path 13708" d="M2577.308,391.781a10.149,10.149,0,0,1-.823,4.068,10.586,10.586,0,0,1-2.277,3.346,11.009,11.009,0,0,1-3.381,2.282,10.647,10.647,0,0,1-4.135.875v4.016h-5.921V381.175h5.921a10.474,10.474,0,0,1,4.135.892,11.281,11.281,0,0,1,3.381,2.3,10.587,10.587,0,0,1,2.277,3.347A10.147,10.147,0,0,1,2577.308,391.781Zm-10.617,4.771a4.731,4.731,0,0,0,1.84-.431,5.053,5.053,0,0,0,1.49-1.034,4.768,4.768,0,0,0,1-1.5,4.71,4.71,0,0,0,0-3.651,4.775,4.775,0,0,0-1-1.5,5.064,5.064,0,0,0-1.49-1.034,4.748,4.748,0,0,0-1.84-.431Z" transform="translate(3522.966 2472.656)" fill="#66bc99"/>
            <path id="Path_13709" data-name="Path 13709" d="M2640.189,405.693a9.333,9.333,0,0,1-2.436-.326,8.332,8.332,0,0,1-2.295-1.013,8.479,8.479,0,0,1-3.995-7.277h5.922a2.487,2.487,0,0,0,.455,1.6,3.269,3.269,0,0,0,.806.772,2.692,2.692,0,0,0,1.367.446,3.159,3.159,0,0,0,1.437-.275,2.342,2.342,0,0,0,.788-.515,2.8,2.8,0,0,0,.456-.6,1.623,1.623,0,0,0,.193-.566,2.889,2.889,0,0,0,0-.892,1.8,1.8,0,0,0-.193-.584,2.342,2.342,0,0,0-.456-.6,3.038,3.038,0,0,0-.788-.532,7.872,7.872,0,0,0-.823-.309q-.439-.137-.929-.309-.876-.275-1.822-.618a10.212,10.212,0,0,1-1.892-.927,7.314,7.314,0,0,1-2.067-1.888,7.384,7.384,0,0,1-1.455-5.131,7,7,0,0,1,.789-2.661,7.562,7.562,0,0,1,3.679-3.381,7.763,7.763,0,0,1,2.488-.6,8.373,8.373,0,0,1,2.7.241,7.96,7.96,0,0,1,2.408.978,7.618,7.618,0,0,1,1.864,1.613,6.959,6.959,0,0,1,1.2,2.111,7.173,7.173,0,0,1,.418,2.437h-5.891a1.181,1.181,0,0,0-.508-1.1,3.565,3.565,0,0,0-.894-.412,2.421,2.421,0,0,1-.333-.051,1.732,1.732,0,0,0-.6,0,2.132,2.132,0,0,0-.683.24,1.36,1.36,0,0,0-.561.6,1.511,1.511,0,0,0-.106,1.15,1.643,1.643,0,0,0,.7.944,7.764,7.764,0,0,0,1.086.5q.6.224,1.262.429.6.172,1.208.377t1.239.481a8.221,8.221,0,0,1,3.605,3.02,8.1,8.1,0,0,1,0,8.822,8.223,8.223,0,0,1-3.605,3.02,8.475,8.475,0,0,1-1.852.6A9.644,9.644,0,0,1,2640.189,405.693Z" transform="translate(3474.731 2473.812)" fill="#66bc99"/>
            <path id="Path_13710" data-name="Path 13710" d="M2717.707,380.851v5.8h-4.94v19.5h-5.922v-19.5h-4.906v-5.8Z" transform="translate(3426.646 2472.877)" fill="#66bc99"/>
            <path id="Path_13711" data-name="Path 13711" d="M2785.829,386.976h-10.582v3.81h8.584v5.8h-8.584v3.981h10.582v5.8h-16.5V381.21l16.5-.035Z" transform="translate(3380.669 2472.656)" fill="#66bc99"/>
            <path id="Path_13712" data-name="Path 13712" d="M2849.675,400.069q-.456.069-.911.1t-.946.068v6.35H2841.9V381.5h5.922a11.764,11.764,0,0,1,4.135.788,11.444,11.444,0,0,1,3.382,2.023,9.349,9.349,0,0,1,2.278,2.948,8.071,8.071,0,0,1,.823,3.6,8.194,8.194,0,0,1-.876,3.753,9.085,9.085,0,0,1-2.453,3l5.677,8.98h-6.973Zm-1.857-5.664a6.272,6.272,0,0,0,1.8-.326,5.439,5.439,0,0,0,1.506-.772,3.691,3.691,0,0,0,1.016-1.116,2.659,2.659,0,0,0,.368-1.356,2.571,2.571,0,0,0-.368-1.339,3.793,3.793,0,0,0-1.016-1.1,5.474,5.474,0,0,0-1.506-.772,6.316,6.316,0,0,0-1.8-.326Z" transform="translate(3331.155 2472.434)" fill="#66bc99"/>
            <path id="Path_13722" data-name="Path 13722" d="M2471.242,375.851v5.8H2466.3v19.5h-5.922v-19.5h-4.905v-5.8Z" transform="translate(3594.807 2476.289)" fill="#fff"/>
            <path id="Path_13723" data-name="Path 13723" d="M2529.993,401.3h-5.922V376.068h5.922Z" transform="translate(3548.004 2476.141)" fill="#fff"/>
            <path id="Path_13724" data-name="Path 13724" d="M2581.308,386.781a10.145,10.145,0,0,1-.824,4.068,10.581,10.581,0,0,1-2.277,3.346,11.008,11.008,0,0,1-3.381,2.282,10.647,10.647,0,0,1-4.135.875v4.016h-5.921V376.175h5.921a10.475,10.475,0,0,1,4.135.892,11.281,11.281,0,0,1,3.381,2.3,10.583,10.583,0,0,1,2.277,3.347A10.143,10.143,0,0,1,2581.308,386.781Zm-10.617,4.771a4.732,4.732,0,0,0,1.84-.431,5.053,5.053,0,0,0,1.49-1.034,4.767,4.767,0,0,0,1-1.5,4.71,4.71,0,0,0,0-3.651,4.775,4.775,0,0,0-1-1.5,5.065,5.065,0,0,0-1.49-1.034,4.749,4.749,0,0,0-1.84-.431Z" transform="translate(3520.237 2476.067)" fill="#fff"/>
            <path id="Path_13725" data-name="Path 13725" d="M2644.189,400.693a9.333,9.333,0,0,1-2.436-.326,8.333,8.333,0,0,1-2.295-1.013,8.479,8.479,0,0,1-3.995-7.277h5.922a2.487,2.487,0,0,0,.455,1.6,3.27,3.27,0,0,0,.806.772,2.691,2.691,0,0,0,1.367.446,3.159,3.159,0,0,0,1.437-.275,2.342,2.342,0,0,0,.788-.515,2.805,2.805,0,0,0,.456-.6,1.624,1.624,0,0,0,.193-.566,2.889,2.889,0,0,0,0-.892,1.8,1.8,0,0,0-.193-.584,2.342,2.342,0,0,0-.456-.6,3.039,3.039,0,0,0-.788-.532,7.879,7.879,0,0,0-.823-.309q-.439-.137-.929-.309-.876-.274-1.822-.618a10.211,10.211,0,0,1-1.892-.927,7.315,7.315,0,0,1-2.067-1.888,7.384,7.384,0,0,1-1.455-5.131,7,7,0,0,1,.789-2.66,7.561,7.561,0,0,1,3.679-3.381,7.763,7.763,0,0,1,2.488-.6,8.372,8.372,0,0,1,2.7.241,7.961,7.961,0,0,1,2.408.978,7.62,7.62,0,0,1,1.864,1.613,6.958,6.958,0,0,1,1.2,2.111,7.173,7.173,0,0,1,.418,2.437h-5.891a1.181,1.181,0,0,0-.508-1.1,3.565,3.565,0,0,0-.894-.412,2.424,2.424,0,0,1-.333-.051,1.731,1.731,0,0,0-.6,0,2.133,2.133,0,0,0-.683.24,1.361,1.361,0,0,0-.561.6,1.511,1.511,0,0,0-.106,1.15,1.643,1.643,0,0,0,.7.944,7.771,7.771,0,0,0,1.086.5q.6.224,1.262.429.6.172,1.208.377t1.239.481a8.22,8.22,0,0,1,3.605,3.02,8.1,8.1,0,0,1,0,8.822,8.223,8.223,0,0,1-3.605,3.02,8.477,8.477,0,0,1-1.852.6A9.644,9.644,0,0,1,2644.189,400.693Z" transform="translate(3472.002 2477.224)" fill="#fff"/>
            <path id="Path_13726" data-name="Path 13726" d="M2721.707,375.851v5.8h-4.94v19.5h-5.922v-19.5h-4.906v-5.8Z" transform="translate(3423.917 2476.289)" fill="#fff"/>
            <path id="Path_13727" data-name="Path 13727" d="M2789.829,381.976h-10.582v3.81h8.584v5.8h-8.584v3.981h10.582v5.8h-16.5V376.21l16.5-.035Z" transform="translate(3377.94 2476.067)" fill="#fff"/>
            <path id="Path_13728" data-name="Path 13728" d="M2853.675,395.069q-.456.069-.911.1t-.946.068v6.35H2845.9V376.5h5.922a11.764,11.764,0,0,1,4.135.788,11.445,11.445,0,0,1,3.382,2.023,9.349,9.349,0,0,1,2.278,2.948,8.071,8.071,0,0,1,.823,3.6,8.2,8.2,0,0,1-.876,3.753,9.085,9.085,0,0,1-2.453,3l5.677,8.98h-6.973Zm-1.857-5.664a6.272,6.272,0,0,0,1.8-.326,5.439,5.439,0,0,0,1.506-.772,3.691,3.691,0,0,0,1.016-1.116,2.659,2.659,0,0,0,.368-1.356,2.571,2.571,0,0,0-.368-1.339,3.793,3.793,0,0,0-1.016-1.1,5.473,5.473,0,0,0-1.506-.772,6.314,6.314,0,0,0-1.8-.326Z" transform="translate(3328.426 2475.846)" fill="#fff"/>
          </g>
        </g>
      </g>
    </g>
  </g>
</svg>
